G04 #@! TF.GenerationSoftware,KiCad,Pcbnew,(5.1.5-0)*
G04 #@! TF.CreationDate,2020-12-17T20:40:07-08:00*
G04 #@! TF.ProjectId,Luminometer_ADC_concept,4c756d69-6e6f-46d6-9574-65725f414443,rev?*
G04 #@! TF.SameCoordinates,Original*
G04 #@! TF.FileFunction,Soldermask,Bot*
G04 #@! TF.FilePolarity,Negative*
%FSLAX46Y46*%
G04 Gerber Fmt 4.6, Leading zero omitted, Abs format (unit mm)*
G04 Created by KiCad (PCBNEW (5.1.5-0)) date 2020-12-17 20:40:07*
%MOMM*%
%LPD*%
G04 APERTURE LIST*
%ADD10C,0.100000*%
G04 APERTURE END LIST*
D10*
G36*
X176908599Y-125153032D02*
G01*
X177163528Y-125258626D01*
X177392960Y-125411928D01*
X177588072Y-125607040D01*
X177741374Y-125836472D01*
X177846968Y-126091401D01*
X177900800Y-126362033D01*
X177900800Y-126637967D01*
X177846968Y-126908599D01*
X177741374Y-127163528D01*
X177588072Y-127392960D01*
X177392960Y-127588072D01*
X177163528Y-127741374D01*
X176908599Y-127846968D01*
X176637967Y-127900800D01*
X176362033Y-127900800D01*
X176091401Y-127846968D01*
X175836472Y-127741374D01*
X175607040Y-127588072D01*
X175411928Y-127392960D01*
X175258626Y-127163528D01*
X175153032Y-126908599D01*
X175099200Y-126637967D01*
X175099200Y-126362033D01*
X175153032Y-126091401D01*
X175258626Y-125836472D01*
X175411928Y-125607040D01*
X175607040Y-125411928D01*
X175836472Y-125258626D01*
X176091401Y-125153032D01*
X176362033Y-125099200D01*
X176637967Y-125099200D01*
X176908599Y-125153032D01*
G37*
G36*
X118908599Y-125153032D02*
G01*
X119163528Y-125258626D01*
X119392960Y-125411928D01*
X119588072Y-125607040D01*
X119741374Y-125836472D01*
X119846968Y-126091401D01*
X119900800Y-126362033D01*
X119900800Y-126637967D01*
X119846968Y-126908599D01*
X119741374Y-127163528D01*
X119588072Y-127392960D01*
X119392960Y-127588072D01*
X119163528Y-127741374D01*
X118908599Y-127846968D01*
X118637967Y-127900800D01*
X118362033Y-127900800D01*
X118091401Y-127846968D01*
X117836472Y-127741374D01*
X117607040Y-127588072D01*
X117411928Y-127392960D01*
X117258626Y-127163528D01*
X117153032Y-126908599D01*
X117099200Y-126637967D01*
X117099200Y-126362033D01*
X117153032Y-126091401D01*
X117258626Y-125836472D01*
X117411928Y-125607040D01*
X117607040Y-125411928D01*
X117836472Y-125258626D01*
X118091401Y-125153032D01*
X118362033Y-125099200D01*
X118637967Y-125099200D01*
X118908599Y-125153032D01*
G37*
G36*
X147983585Y-118966974D02*
G01*
X148129322Y-119027339D01*
X148260482Y-119114978D01*
X148372022Y-119226518D01*
X148459661Y-119357678D01*
X148520026Y-119503415D01*
X148550800Y-119658128D01*
X148550800Y-119815872D01*
X148520026Y-119970585D01*
X148459661Y-120116322D01*
X148372022Y-120247482D01*
X148260482Y-120359022D01*
X148129322Y-120446661D01*
X147983585Y-120507026D01*
X147828872Y-120537800D01*
X147671128Y-120537800D01*
X147516415Y-120507026D01*
X147370678Y-120446661D01*
X147239518Y-120359022D01*
X147127978Y-120247482D01*
X147040339Y-120116322D01*
X146979974Y-119970585D01*
X146949200Y-119815872D01*
X146949200Y-119658128D01*
X146979974Y-119503415D01*
X147040339Y-119357678D01*
X147127978Y-119226518D01*
X147239518Y-119114978D01*
X147370678Y-119027339D01*
X147516415Y-118966974D01*
X147671128Y-118936200D01*
X147828872Y-118936200D01*
X147983585Y-118966974D01*
G37*
G36*
X156599926Y-118528947D02*
G01*
X156628017Y-118537468D01*
X156653909Y-118551308D01*
X156678546Y-118571527D01*
X156694732Y-118587713D01*
X156694738Y-118587718D01*
X156942791Y-118835771D01*
X156942796Y-118835777D01*
X156958982Y-118851963D01*
X156979201Y-118876600D01*
X156993041Y-118902492D01*
X157001562Y-118930583D01*
X157004440Y-118959798D01*
X157001562Y-118989013D01*
X156993041Y-119017104D01*
X156979201Y-119042996D01*
X156958982Y-119067633D01*
X156942796Y-119083819D01*
X156942791Y-119083825D01*
X156341184Y-119685432D01*
X156341178Y-119685437D01*
X156324992Y-119701623D01*
X156300355Y-119721842D01*
X156274463Y-119735682D01*
X156246372Y-119744203D01*
X156217157Y-119747081D01*
X156187942Y-119744203D01*
X156159851Y-119735682D01*
X156133959Y-119721842D01*
X156109322Y-119701623D01*
X156093136Y-119685437D01*
X156093130Y-119685432D01*
X155845077Y-119437379D01*
X155845072Y-119437373D01*
X155828886Y-119421187D01*
X155808667Y-119396550D01*
X155794827Y-119370658D01*
X155786306Y-119342567D01*
X155783428Y-119313352D01*
X155786306Y-119284137D01*
X155794827Y-119256046D01*
X155808667Y-119230154D01*
X155828886Y-119205517D01*
X155845072Y-119189331D01*
X155845077Y-119189325D01*
X156446684Y-118587718D01*
X156446690Y-118587713D01*
X156462876Y-118571527D01*
X156487513Y-118551308D01*
X156513405Y-118537468D01*
X156541496Y-118528947D01*
X156570711Y-118526069D01*
X156599926Y-118528947D01*
G37*
G36*
X138599926Y-118528947D02*
G01*
X138628017Y-118537468D01*
X138653909Y-118551308D01*
X138678546Y-118571527D01*
X138694732Y-118587713D01*
X138694738Y-118587718D01*
X138942791Y-118835771D01*
X138942796Y-118835777D01*
X138958982Y-118851963D01*
X138979201Y-118876600D01*
X138993041Y-118902492D01*
X139001562Y-118930583D01*
X139004440Y-118959798D01*
X139001562Y-118989013D01*
X138993041Y-119017104D01*
X138979201Y-119042996D01*
X138958982Y-119067633D01*
X138942796Y-119083819D01*
X138942791Y-119083825D01*
X138341184Y-119685432D01*
X138341178Y-119685437D01*
X138324992Y-119701623D01*
X138300355Y-119721842D01*
X138274463Y-119735682D01*
X138246372Y-119744203D01*
X138217157Y-119747081D01*
X138187942Y-119744203D01*
X138159851Y-119735682D01*
X138133959Y-119721842D01*
X138109322Y-119701623D01*
X138093136Y-119685437D01*
X138093130Y-119685432D01*
X137845077Y-119437379D01*
X137845072Y-119437373D01*
X137828886Y-119421187D01*
X137808667Y-119396550D01*
X137794827Y-119370658D01*
X137786306Y-119342567D01*
X137783428Y-119313352D01*
X137786306Y-119284137D01*
X137794827Y-119256046D01*
X137808667Y-119230154D01*
X137828886Y-119205517D01*
X137845072Y-119189331D01*
X137845077Y-119189325D01*
X138446684Y-118587718D01*
X138446690Y-118587713D01*
X138462876Y-118571527D01*
X138487513Y-118551308D01*
X138513405Y-118537468D01*
X138541496Y-118528947D01*
X138570711Y-118526069D01*
X138599926Y-118528947D01*
G37*
G36*
X147908599Y-113653032D02*
G01*
X148163528Y-113758626D01*
X148392960Y-113911928D01*
X148588072Y-114107040D01*
X148741374Y-114336472D01*
X148846968Y-114591401D01*
X148900800Y-114862033D01*
X148900800Y-115137967D01*
X148846968Y-115408599D01*
X148741374Y-115663528D01*
X148588072Y-115892960D01*
X148392960Y-116088072D01*
X148163528Y-116241374D01*
X147908599Y-116346968D01*
X147637967Y-116400800D01*
X147362033Y-116400800D01*
X147091401Y-116346968D01*
X146836472Y-116241374D01*
X146607040Y-116088072D01*
X146411928Y-115892960D01*
X146258626Y-115663528D01*
X146153032Y-115408599D01*
X146099200Y-115137967D01*
X146099200Y-114862033D01*
X146153032Y-114591401D01*
X146258626Y-114336472D01*
X146411928Y-114107040D01*
X146607040Y-113911928D01*
X146836472Y-113758626D01*
X147091401Y-113653032D01*
X147362033Y-113599200D01*
X147637967Y-113599200D01*
X147908599Y-113653032D01*
G37*
G36*
X142489013Y-114498438D02*
G01*
X142517104Y-114506959D01*
X142542996Y-114520799D01*
X142567633Y-114541018D01*
X142583819Y-114557204D01*
X142583825Y-114557209D01*
X143185432Y-115158816D01*
X143185437Y-115158822D01*
X143201623Y-115175008D01*
X143221842Y-115199645D01*
X143235682Y-115225537D01*
X143244203Y-115253628D01*
X143247081Y-115282843D01*
X143244203Y-115312058D01*
X143235682Y-115340149D01*
X143221842Y-115366041D01*
X143201623Y-115390678D01*
X143185437Y-115406864D01*
X143185432Y-115406870D01*
X142937379Y-115654923D01*
X142937373Y-115654928D01*
X142921187Y-115671114D01*
X142896550Y-115691333D01*
X142870658Y-115705173D01*
X142842567Y-115713694D01*
X142813352Y-115716572D01*
X142784137Y-115713694D01*
X142756046Y-115705173D01*
X142730154Y-115691333D01*
X142705517Y-115671114D01*
X142689331Y-115654928D01*
X142689325Y-115654923D01*
X142087718Y-115053316D01*
X142087713Y-115053310D01*
X142071527Y-115037124D01*
X142051308Y-115012487D01*
X142037468Y-114986595D01*
X142028947Y-114958504D01*
X142026069Y-114929289D01*
X142028947Y-114900074D01*
X142037468Y-114871983D01*
X142051308Y-114846091D01*
X142071527Y-114821454D01*
X142087713Y-114805268D01*
X142087718Y-114805262D01*
X142335771Y-114557209D01*
X142335777Y-114557204D01*
X142351963Y-114541018D01*
X142376600Y-114520799D01*
X142402492Y-114506959D01*
X142430583Y-114498438D01*
X142459798Y-114495560D01*
X142489013Y-114498438D01*
G37*
G36*
X160489013Y-114498438D02*
G01*
X160517104Y-114506959D01*
X160542996Y-114520799D01*
X160567633Y-114541018D01*
X160583819Y-114557204D01*
X160583825Y-114557209D01*
X161185432Y-115158816D01*
X161185437Y-115158822D01*
X161201623Y-115175008D01*
X161221842Y-115199645D01*
X161235682Y-115225537D01*
X161244203Y-115253628D01*
X161247081Y-115282843D01*
X161244203Y-115312058D01*
X161235682Y-115340149D01*
X161221842Y-115366041D01*
X161201623Y-115390678D01*
X161185437Y-115406864D01*
X161185432Y-115406870D01*
X160937379Y-115654923D01*
X160937373Y-115654928D01*
X160921187Y-115671114D01*
X160896550Y-115691333D01*
X160870658Y-115705173D01*
X160842567Y-115713694D01*
X160813352Y-115716572D01*
X160784137Y-115713694D01*
X160756046Y-115705173D01*
X160730154Y-115691333D01*
X160705517Y-115671114D01*
X160689331Y-115654928D01*
X160689325Y-115654923D01*
X160087718Y-115053316D01*
X160087713Y-115053310D01*
X160071527Y-115037124D01*
X160051308Y-115012487D01*
X160037468Y-114986595D01*
X160028947Y-114958504D01*
X160026069Y-114929289D01*
X160028947Y-114900074D01*
X160037468Y-114871983D01*
X160051308Y-114846091D01*
X160071527Y-114821454D01*
X160087713Y-114805268D01*
X160087718Y-114805262D01*
X160335771Y-114557209D01*
X160335777Y-114557204D01*
X160351963Y-114541018D01*
X160376600Y-114520799D01*
X160402492Y-114506959D01*
X160430583Y-114498438D01*
X160459798Y-114495560D01*
X160489013Y-114498438D01*
G37*
G36*
X134215863Y-114286306D02*
G01*
X134243954Y-114294827D01*
X134269846Y-114308667D01*
X134294483Y-114328886D01*
X134310669Y-114345072D01*
X134310675Y-114345077D01*
X134912282Y-114946684D01*
X134912287Y-114946690D01*
X134928473Y-114962876D01*
X134948692Y-114987513D01*
X134962532Y-115013405D01*
X134971053Y-115041496D01*
X134973931Y-115070711D01*
X134971053Y-115099926D01*
X134962532Y-115128017D01*
X134948692Y-115153909D01*
X134928473Y-115178546D01*
X134912287Y-115194732D01*
X134912282Y-115194738D01*
X134664229Y-115442791D01*
X134664223Y-115442796D01*
X134648037Y-115458982D01*
X134623400Y-115479201D01*
X134597508Y-115493041D01*
X134569417Y-115501562D01*
X134540202Y-115504440D01*
X134510987Y-115501562D01*
X134482896Y-115493041D01*
X134457004Y-115479201D01*
X134432367Y-115458982D01*
X134416181Y-115442796D01*
X134416175Y-115442791D01*
X133814568Y-114841184D01*
X133814563Y-114841178D01*
X133798377Y-114824992D01*
X133778158Y-114800355D01*
X133764318Y-114774463D01*
X133755797Y-114746372D01*
X133752919Y-114717157D01*
X133755797Y-114687942D01*
X133764318Y-114659851D01*
X133778158Y-114633959D01*
X133798377Y-114609322D01*
X133814563Y-114593136D01*
X133814568Y-114593130D01*
X134062621Y-114345077D01*
X134062627Y-114345072D01*
X134078813Y-114328886D01*
X134103450Y-114308667D01*
X134129342Y-114294827D01*
X134157433Y-114286306D01*
X134186648Y-114283428D01*
X134215863Y-114286306D01*
G37*
G36*
X152215863Y-114286306D02*
G01*
X152243954Y-114294827D01*
X152269846Y-114308667D01*
X152294483Y-114328886D01*
X152310669Y-114345072D01*
X152310675Y-114345077D01*
X152912282Y-114946684D01*
X152912287Y-114946690D01*
X152928473Y-114962876D01*
X152948692Y-114987513D01*
X152962532Y-115013405D01*
X152971053Y-115041496D01*
X152973931Y-115070711D01*
X152971053Y-115099926D01*
X152962532Y-115128017D01*
X152948692Y-115153909D01*
X152928473Y-115178546D01*
X152912287Y-115194732D01*
X152912282Y-115194738D01*
X152664229Y-115442791D01*
X152664223Y-115442796D01*
X152648037Y-115458982D01*
X152623400Y-115479201D01*
X152597508Y-115493041D01*
X152569417Y-115501562D01*
X152540202Y-115504440D01*
X152510987Y-115501562D01*
X152482896Y-115493041D01*
X152457004Y-115479201D01*
X152432367Y-115458982D01*
X152416181Y-115442796D01*
X152416175Y-115442791D01*
X151814568Y-114841184D01*
X151814563Y-114841178D01*
X151798377Y-114824992D01*
X151778158Y-114800355D01*
X151764318Y-114774463D01*
X151755797Y-114746372D01*
X151752919Y-114717157D01*
X151755797Y-114687942D01*
X151764318Y-114659851D01*
X151778158Y-114633959D01*
X151798377Y-114609322D01*
X151814563Y-114593136D01*
X151814568Y-114593130D01*
X152062621Y-114345077D01*
X152062627Y-114345072D01*
X152078813Y-114328886D01*
X152103450Y-114308667D01*
X152129342Y-114294827D01*
X152157433Y-114286306D01*
X152186648Y-114283428D01*
X152215863Y-114286306D01*
G37*
G36*
X138812058Y-110255797D02*
G01*
X138840149Y-110264318D01*
X138866041Y-110278158D01*
X138890678Y-110298377D01*
X138906864Y-110314563D01*
X138906870Y-110314568D01*
X139154923Y-110562621D01*
X139154928Y-110562627D01*
X139171114Y-110578813D01*
X139191333Y-110603450D01*
X139205173Y-110629342D01*
X139213694Y-110657433D01*
X139216572Y-110686648D01*
X139213694Y-110715863D01*
X139205173Y-110743954D01*
X139191333Y-110769846D01*
X139171114Y-110794483D01*
X139154928Y-110810669D01*
X139154923Y-110810675D01*
X138553316Y-111412282D01*
X138553310Y-111412287D01*
X138537124Y-111428473D01*
X138512487Y-111448692D01*
X138486595Y-111462532D01*
X138458504Y-111471053D01*
X138429289Y-111473931D01*
X138400074Y-111471053D01*
X138371983Y-111462532D01*
X138346091Y-111448692D01*
X138321454Y-111428473D01*
X138305268Y-111412287D01*
X138305262Y-111412282D01*
X138057209Y-111164229D01*
X138057204Y-111164223D01*
X138041018Y-111148037D01*
X138020799Y-111123400D01*
X138006959Y-111097508D01*
X137998438Y-111069417D01*
X137995560Y-111040202D01*
X137998438Y-111010987D01*
X138006959Y-110982896D01*
X138020799Y-110957004D01*
X138041018Y-110932367D01*
X138057204Y-110916181D01*
X138057209Y-110916175D01*
X138658816Y-110314568D01*
X138658822Y-110314563D01*
X138675008Y-110298377D01*
X138699645Y-110278158D01*
X138725537Y-110264318D01*
X138753628Y-110255797D01*
X138782843Y-110252919D01*
X138812058Y-110255797D01*
G37*
G36*
X156812058Y-110255797D02*
G01*
X156840149Y-110264318D01*
X156866041Y-110278158D01*
X156890678Y-110298377D01*
X156906864Y-110314563D01*
X156906870Y-110314568D01*
X157154923Y-110562621D01*
X157154928Y-110562627D01*
X157171114Y-110578813D01*
X157191333Y-110603450D01*
X157205173Y-110629342D01*
X157213694Y-110657433D01*
X157216572Y-110686648D01*
X157213694Y-110715863D01*
X157205173Y-110743954D01*
X157191333Y-110769846D01*
X157171114Y-110794483D01*
X157154928Y-110810669D01*
X157154923Y-110810675D01*
X156553316Y-111412282D01*
X156553310Y-111412287D01*
X156537124Y-111428473D01*
X156512487Y-111448692D01*
X156486595Y-111462532D01*
X156458504Y-111471053D01*
X156429289Y-111473931D01*
X156400074Y-111471053D01*
X156371983Y-111462532D01*
X156346091Y-111448692D01*
X156321454Y-111428473D01*
X156305268Y-111412287D01*
X156305262Y-111412282D01*
X156057209Y-111164229D01*
X156057204Y-111164223D01*
X156041018Y-111148037D01*
X156020799Y-111123400D01*
X156006959Y-111097508D01*
X155998438Y-111069417D01*
X155995560Y-111040202D01*
X155998438Y-111010987D01*
X156006959Y-110982896D01*
X156020799Y-110957004D01*
X156041018Y-110932367D01*
X156057204Y-110916181D01*
X156057209Y-110916175D01*
X156658816Y-110314568D01*
X156658822Y-110314563D01*
X156675008Y-110298377D01*
X156699645Y-110278158D01*
X156725537Y-110264318D01*
X156753628Y-110255797D01*
X156782843Y-110252919D01*
X156812058Y-110255797D01*
G37*
G36*
X166383585Y-108879974D02*
G01*
X166529322Y-108940339D01*
X166660482Y-109027978D01*
X166772022Y-109139518D01*
X166859661Y-109270678D01*
X166920026Y-109416415D01*
X166950800Y-109571128D01*
X166950800Y-109728872D01*
X166920026Y-109883585D01*
X166859661Y-110029322D01*
X166772022Y-110160482D01*
X166660482Y-110272022D01*
X166529322Y-110359661D01*
X166383585Y-110420026D01*
X166228872Y-110450800D01*
X166071128Y-110450800D01*
X165916415Y-110420026D01*
X165770678Y-110359661D01*
X165639518Y-110272022D01*
X165527978Y-110160482D01*
X165440339Y-110029322D01*
X165379974Y-109883585D01*
X165349200Y-109728872D01*
X165349200Y-109571128D01*
X165379974Y-109416415D01*
X165440339Y-109270678D01*
X165527978Y-109139518D01*
X165639518Y-109027978D01*
X165770678Y-108940339D01*
X165916415Y-108879974D01*
X166071128Y-108849200D01*
X166228872Y-108849200D01*
X166383585Y-108879974D01*
G37*
G36*
X156835676Y-91893425D02*
G01*
X157045109Y-91980174D01*
X157233594Y-92106116D01*
X157393884Y-92266406D01*
X157519826Y-92454891D01*
X157606575Y-92664324D01*
X157650800Y-92886656D01*
X157650800Y-93113344D01*
X157606575Y-93335676D01*
X157519826Y-93545109D01*
X157393884Y-93733594D01*
X157233594Y-93893884D01*
X157045109Y-94019826D01*
X156835676Y-94106575D01*
X156613344Y-94150800D01*
X156386656Y-94150800D01*
X156164324Y-94106575D01*
X155954891Y-94019826D01*
X155766406Y-93893884D01*
X155606116Y-93733594D01*
X155480174Y-93545109D01*
X155393425Y-93335676D01*
X155349200Y-93113344D01*
X155349200Y-92886656D01*
X155393425Y-92664324D01*
X155480174Y-92454891D01*
X155606116Y-92266406D01*
X155766406Y-92106116D01*
X155954891Y-91980174D01*
X156164324Y-91893425D01*
X156386656Y-91849200D01*
X156613344Y-91849200D01*
X156835676Y-91893425D01*
G37*
G36*
X138835676Y-91893425D02*
G01*
X139045109Y-91980174D01*
X139233594Y-92106116D01*
X139393884Y-92266406D01*
X139519826Y-92454891D01*
X139606575Y-92664324D01*
X139650800Y-92886656D01*
X139650800Y-93113344D01*
X139606575Y-93335676D01*
X139519826Y-93545109D01*
X139393884Y-93733594D01*
X139233594Y-93893884D01*
X139045109Y-94019826D01*
X138835676Y-94106575D01*
X138613344Y-94150800D01*
X138386656Y-94150800D01*
X138164324Y-94106575D01*
X137954891Y-94019826D01*
X137766406Y-93893884D01*
X137606116Y-93733594D01*
X137480174Y-93545109D01*
X137393425Y-93335676D01*
X137349200Y-93113344D01*
X137349200Y-92886656D01*
X137393425Y-92664324D01*
X137480174Y-92454891D01*
X137606116Y-92266406D01*
X137766406Y-92106116D01*
X137954891Y-91980174D01*
X138164324Y-91893425D01*
X138386656Y-91849200D01*
X138613344Y-91849200D01*
X138835676Y-91893425D01*
G37*
G36*
X174146709Y-88052092D02*
G01*
X174278795Y-88106804D01*
X174397672Y-88186235D01*
X174498765Y-88287328D01*
X174578196Y-88406205D01*
X174632908Y-88538291D01*
X174660800Y-88678515D01*
X174660800Y-88821485D01*
X174632908Y-88961709D01*
X174578196Y-89093795D01*
X174498765Y-89212672D01*
X174397672Y-89313765D01*
X174278795Y-89393196D01*
X174146709Y-89447908D01*
X174006485Y-89475800D01*
X173863515Y-89475800D01*
X173723291Y-89447908D01*
X173591205Y-89393196D01*
X173472328Y-89313765D01*
X173371235Y-89212672D01*
X173291804Y-89093795D01*
X173237092Y-88961709D01*
X173209200Y-88821485D01*
X173209200Y-88678515D01*
X173237092Y-88538291D01*
X173291804Y-88406205D01*
X173371235Y-88287328D01*
X173472328Y-88186235D01*
X173591205Y-88106804D01*
X173723291Y-88052092D01*
X173863515Y-88024200D01*
X174006485Y-88024200D01*
X174146709Y-88052092D01*
G37*
G36*
X162276709Y-88052092D02*
G01*
X162408795Y-88106804D01*
X162527672Y-88186235D01*
X162628765Y-88287328D01*
X162708196Y-88406205D01*
X162762908Y-88538291D01*
X162790800Y-88678515D01*
X162790800Y-88821485D01*
X162762908Y-88961709D01*
X162708196Y-89093795D01*
X162628765Y-89212672D01*
X162527672Y-89313765D01*
X162408795Y-89393196D01*
X162276709Y-89447908D01*
X162136485Y-89475800D01*
X161993515Y-89475800D01*
X161853291Y-89447908D01*
X161721205Y-89393196D01*
X161602328Y-89313765D01*
X161501235Y-89212672D01*
X161421804Y-89093795D01*
X161367092Y-88961709D01*
X161339200Y-88821485D01*
X161339200Y-88678515D01*
X161367092Y-88538291D01*
X161421804Y-88406205D01*
X161501235Y-88287328D01*
X161602328Y-88186235D01*
X161721205Y-88106804D01*
X161853291Y-88052092D01*
X161993515Y-88024200D01*
X162136485Y-88024200D01*
X162276709Y-88052092D01*
G37*
G36*
X151908599Y-86653032D02*
G01*
X152163528Y-86758626D01*
X152392960Y-86911928D01*
X152588072Y-87107040D01*
X152741374Y-87336472D01*
X152846968Y-87591401D01*
X152900800Y-87862033D01*
X152900800Y-88137967D01*
X152846968Y-88408599D01*
X152741374Y-88663528D01*
X152588072Y-88892960D01*
X152392960Y-89088072D01*
X152163528Y-89241374D01*
X151908599Y-89346968D01*
X151637967Y-89400800D01*
X151362033Y-89400800D01*
X151091401Y-89346968D01*
X150836472Y-89241374D01*
X150607040Y-89088072D01*
X150411928Y-88892960D01*
X150258626Y-88663528D01*
X150153032Y-88408599D01*
X150099200Y-88137967D01*
X150099200Y-87862033D01*
X150153032Y-87591401D01*
X150258626Y-87336472D01*
X150411928Y-87107040D01*
X150607040Y-86911928D01*
X150836472Y-86758626D01*
X151091401Y-86653032D01*
X151362033Y-86599200D01*
X151637967Y-86599200D01*
X151908599Y-86653032D01*
G37*
G36*
X143908599Y-86653032D02*
G01*
X144163528Y-86758626D01*
X144392960Y-86911928D01*
X144588072Y-87107040D01*
X144741374Y-87336472D01*
X144846968Y-87591401D01*
X144900800Y-87862033D01*
X144900800Y-88137967D01*
X144846968Y-88408599D01*
X144741374Y-88663528D01*
X144588072Y-88892960D01*
X144392960Y-89088072D01*
X144163528Y-89241374D01*
X143908599Y-89346968D01*
X143637967Y-89400800D01*
X143362033Y-89400800D01*
X143091401Y-89346968D01*
X142836472Y-89241374D01*
X142607040Y-89088072D01*
X142411928Y-88892960D01*
X142258626Y-88663528D01*
X142153032Y-88408599D01*
X142099200Y-88137967D01*
X142099200Y-87862033D01*
X142153032Y-87591401D01*
X142258626Y-87336472D01*
X142411928Y-87107040D01*
X142607040Y-86911928D01*
X142836472Y-86758626D01*
X143091401Y-86653032D01*
X143362033Y-86599200D01*
X143637967Y-86599200D01*
X143908599Y-86653032D01*
G37*
G36*
X173633169Y-85181895D02*
G01*
X173788005Y-85246031D01*
X173927354Y-85339140D01*
X174045860Y-85457646D01*
X174138969Y-85596995D01*
X174203105Y-85751831D01*
X174235800Y-85916203D01*
X174235800Y-86083797D01*
X174203105Y-86248169D01*
X174138969Y-86403005D01*
X174045860Y-86542354D01*
X173927354Y-86660860D01*
X173788005Y-86753969D01*
X173633169Y-86818105D01*
X173468797Y-86850800D01*
X173301203Y-86850800D01*
X173136831Y-86818105D01*
X172981995Y-86753969D01*
X172842646Y-86660860D01*
X172724140Y-86542354D01*
X172631031Y-86403005D01*
X172566895Y-86248169D01*
X172534200Y-86083797D01*
X172534200Y-85916203D01*
X172566895Y-85751831D01*
X172631031Y-85596995D01*
X172724140Y-85457646D01*
X172842646Y-85339140D01*
X172981995Y-85246031D01*
X173136831Y-85181895D01*
X173301203Y-85149200D01*
X173468797Y-85149200D01*
X173633169Y-85181895D01*
G37*
G36*
X162863169Y-85181895D02*
G01*
X163018005Y-85246031D01*
X163157354Y-85339140D01*
X163275860Y-85457646D01*
X163368969Y-85596995D01*
X163433105Y-85751831D01*
X163465800Y-85916203D01*
X163465800Y-86083797D01*
X163433105Y-86248169D01*
X163368969Y-86403005D01*
X163275860Y-86542354D01*
X163157354Y-86660860D01*
X163018005Y-86753969D01*
X162863169Y-86818105D01*
X162698797Y-86850800D01*
X162531203Y-86850800D01*
X162366831Y-86818105D01*
X162211995Y-86753969D01*
X162072646Y-86660860D01*
X161954140Y-86542354D01*
X161861031Y-86403005D01*
X161796895Y-86248169D01*
X161764200Y-86083797D01*
X161764200Y-85916203D01*
X161796895Y-85751831D01*
X161861031Y-85596995D01*
X161954140Y-85457646D01*
X162072646Y-85339140D01*
X162211995Y-85246031D01*
X162366831Y-85181895D01*
X162531203Y-85149200D01*
X162698797Y-85149200D01*
X162863169Y-85181895D01*
G37*
G36*
X118908599Y-82153032D02*
G01*
X119163528Y-82258626D01*
X119392960Y-82411928D01*
X119588072Y-82607040D01*
X119741374Y-82836472D01*
X119846968Y-83091401D01*
X119900800Y-83362033D01*
X119900800Y-83637967D01*
X119846968Y-83908599D01*
X119741374Y-84163528D01*
X119588072Y-84392960D01*
X119392960Y-84588072D01*
X119163528Y-84741374D01*
X118908599Y-84846968D01*
X118637967Y-84900800D01*
X118362033Y-84900800D01*
X118091401Y-84846968D01*
X117836472Y-84741374D01*
X117607040Y-84588072D01*
X117411928Y-84392960D01*
X117258626Y-84163528D01*
X117153032Y-83908599D01*
X117099200Y-83637967D01*
X117099200Y-83362033D01*
X117153032Y-83091401D01*
X117258626Y-82836472D01*
X117411928Y-82607040D01*
X117607040Y-82411928D01*
X117836472Y-82258626D01*
X118091401Y-82153032D01*
X118362033Y-82099200D01*
X118637967Y-82099200D01*
X118908599Y-82153032D01*
G37*
G36*
X174146709Y-82552092D02*
G01*
X174278795Y-82606804D01*
X174397672Y-82686235D01*
X174498765Y-82787328D01*
X174578196Y-82906205D01*
X174632908Y-83038291D01*
X174660800Y-83178515D01*
X174660800Y-83321485D01*
X174632908Y-83461709D01*
X174578196Y-83593795D01*
X174498765Y-83712672D01*
X174397672Y-83813765D01*
X174278795Y-83893196D01*
X174146709Y-83947908D01*
X174006485Y-83975800D01*
X173863515Y-83975800D01*
X173723291Y-83947908D01*
X173591205Y-83893196D01*
X173472328Y-83813765D01*
X173371235Y-83712672D01*
X173291804Y-83593795D01*
X173237092Y-83461709D01*
X173209200Y-83321485D01*
X173209200Y-83178515D01*
X173237092Y-83038291D01*
X173291804Y-82906205D01*
X173371235Y-82787328D01*
X173472328Y-82686235D01*
X173591205Y-82606804D01*
X173723291Y-82552092D01*
X173863515Y-82524200D01*
X174006485Y-82524200D01*
X174146709Y-82552092D01*
G37*
G36*
X162276709Y-82552092D02*
G01*
X162408795Y-82606804D01*
X162527672Y-82686235D01*
X162628765Y-82787328D01*
X162708196Y-82906205D01*
X162762908Y-83038291D01*
X162790800Y-83178515D01*
X162790800Y-83321485D01*
X162762908Y-83461709D01*
X162708196Y-83593795D01*
X162628765Y-83712672D01*
X162527672Y-83813765D01*
X162408795Y-83893196D01*
X162276709Y-83947908D01*
X162136485Y-83975800D01*
X161993515Y-83975800D01*
X161853291Y-83947908D01*
X161721205Y-83893196D01*
X161602328Y-83813765D01*
X161501235Y-83712672D01*
X161421804Y-83593795D01*
X161367092Y-83461709D01*
X161339200Y-83321485D01*
X161339200Y-83178515D01*
X161367092Y-83038291D01*
X161421804Y-82906205D01*
X161501235Y-82787328D01*
X161602328Y-82686235D01*
X161721205Y-82606804D01*
X161853291Y-82552092D01*
X161993515Y-82524200D01*
X162136485Y-82524200D01*
X162276709Y-82552092D01*
G37*
M02*
