M48
; DRILL file {KiCad (5.1.5-0)} date Monday, September 28, 2020 at 08:09:33 PM
; FORMAT={-:-/ absolute / inch / decimal}
; #@! TF.CreationDate,2020-09-28T20:09:33-07:00
; #@! TF.GenerationSoftware,Kicad,Pcbnew,(5.1.5-0)
; #@! TF.FileFunction,Plated,1,4,PTH
FMAT,2
INCH
T1C0.0157
T2C0.0354
T3C0.0787
T4C0.1260
%
G90
G05
T1
X5.0197Y-4.0748
X5.045Y-4.42
X5.1854Y-4.0378
X5.28Y-4.805
X5.3Y-4.09
X5.37Y-4.155
X5.39Y-3.955
X5.41Y-4.66
X5.435Y-3.81
X5.55Y-3.995
X5.58Y-4.995
X5.59Y-4.055
X5.615Y-4.855
X5.74Y-4.055
X5.755Y-4.42
X5.795Y-3.81
X5.82Y-4.755
X6.02Y-4.77
X6.045Y-4.985
X6.135Y-4.565
X6.17Y-4.895
X6.1811Y-4.3701
X6.23Y-3.965
X6.375Y-4.95
X6.43Y-4.42
X6.495Y-4.035
X6.545Y-4.725
X6.57Y-4.07
X6.605Y-4.61
X6.64Y-3.365
X6.695Y-3.22
X6.7Y-4.4
X6.775Y-4.2
X6.835Y-3.89
X6.835Y-3.96
X6.96Y-4.405
T2
X6.3346Y-3.2822
X6.3346Y-3.4988
X6.8019Y-3.2822
X6.8019Y-3.4988
T3
X6.51Y-3.385
T4
X6.8898Y-4.9213
X4.7244Y-4.9213
X4.7244Y-3.3465
T0
M30
