G04 #@! TF.GenerationSoftware,KiCad,Pcbnew,(5.1.5-0)*
G04 #@! TF.CreationDate,2020-09-28T19:51:32-07:00*
G04 #@! TF.ProjectId,Luminometer_ADC,4c756d69-6e6f-46d6-9574-65725f414443,rev?*
G04 #@! TF.SameCoordinates,Original*
G04 #@! TF.FileFunction,Legend,Top*
G04 #@! TF.FilePolarity,Positive*
%FSLAX46Y46*%
G04 Gerber Fmt 4.6, Leading zero omitted, Abs format (unit mm)*
G04 Created by KiCad (PCBNEW (5.1.5-0)) date 2020-09-28 19:51:32*
%MOMM*%
%LPD*%
G04 APERTURE LIST*
%ADD10C,0.300000*%
%ADD11C,0.120000*%
%ADD12C,0.150000*%
%ADD13C,0.010000*%
%ADD14C,0.100000*%
G04 APERTURE END LIST*
D10*
X185174761Y-112238095D02*
X185174761Y-113190476D01*
X186127142Y-113285714D01*
X186031904Y-113190476D01*
X185936666Y-113000000D01*
X185936666Y-112523809D01*
X186031904Y-112333333D01*
X186127142Y-112238095D01*
X186317619Y-112142857D01*
X186793809Y-112142857D01*
X186984285Y-112238095D01*
X187079523Y-112333333D01*
X187174761Y-112523809D01*
X187174761Y-113000000D01*
X187079523Y-113190476D01*
X186984285Y-113285714D01*
X185174761Y-110904761D02*
X185174761Y-110714285D01*
X185270000Y-110523809D01*
X185365238Y-110428571D01*
X185555714Y-110333333D01*
X185936666Y-110238095D01*
X186412857Y-110238095D01*
X186793809Y-110333333D01*
X186984285Y-110428571D01*
X187079523Y-110523809D01*
X187174761Y-110714285D01*
X187174761Y-110904761D01*
X187079523Y-111095238D01*
X186984285Y-111190476D01*
X186793809Y-111285714D01*
X186412857Y-111380952D01*
X185936666Y-111380952D01*
X185555714Y-111285714D01*
X185365238Y-111190476D01*
X185270000Y-111095238D01*
X185174761Y-110904761D01*
X186984285Y-109380952D02*
X187079523Y-109285714D01*
X187174761Y-109380952D01*
X187079523Y-109476190D01*
X186984285Y-109380952D01*
X187174761Y-109380952D01*
X185174761Y-108047619D02*
X185174761Y-107857142D01*
X185270000Y-107666666D01*
X185365238Y-107571428D01*
X185555714Y-107476190D01*
X185936666Y-107380952D01*
X186412857Y-107380952D01*
X186793809Y-107476190D01*
X186984285Y-107571428D01*
X187079523Y-107666666D01*
X187174761Y-107857142D01*
X187174761Y-108047619D01*
X187079523Y-108238095D01*
X186984285Y-108333333D01*
X186793809Y-108428571D01*
X186412857Y-108523809D01*
X185936666Y-108523809D01*
X185555714Y-108428571D01*
X185365238Y-108333333D01*
X185270000Y-108238095D01*
X185174761Y-108047619D01*
X185174761Y-106142857D02*
X185174761Y-105952380D01*
X185270000Y-105761904D01*
X185365238Y-105666666D01*
X185555714Y-105571428D01*
X185936666Y-105476190D01*
X186412857Y-105476190D01*
X186793809Y-105571428D01*
X186984285Y-105666666D01*
X187079523Y-105761904D01*
X187174761Y-105952380D01*
X187174761Y-106142857D01*
X187079523Y-106333333D01*
X186984285Y-106428571D01*
X186793809Y-106523809D01*
X186412857Y-106619047D01*
X185936666Y-106619047D01*
X185555714Y-106523809D01*
X185365238Y-106428571D01*
X185270000Y-106333333D01*
X185174761Y-106142857D01*
X185174761Y-104238095D02*
X185174761Y-104047619D01*
X185270000Y-103857142D01*
X185365238Y-103761904D01*
X185555714Y-103666666D01*
X185936666Y-103571428D01*
X186412857Y-103571428D01*
X186793809Y-103666666D01*
X186984285Y-103761904D01*
X187079523Y-103857142D01*
X187174761Y-104047619D01*
X187174761Y-104238095D01*
X187079523Y-104428571D01*
X186984285Y-104523809D01*
X186793809Y-104619047D01*
X186412857Y-104714285D01*
X185936666Y-104714285D01*
X185555714Y-104619047D01*
X185365238Y-104523809D01*
X185270000Y-104428571D01*
X185174761Y-104238095D01*
X187174761Y-101190476D02*
X185841428Y-101190476D01*
X186031904Y-101190476D02*
X185936666Y-101095238D01*
X185841428Y-100904761D01*
X185841428Y-100619047D01*
X185936666Y-100428571D01*
X186127142Y-100333333D01*
X187174761Y-100333333D01*
X186127142Y-100333333D02*
X185936666Y-100238095D01*
X185841428Y-100047619D01*
X185841428Y-99761904D01*
X185936666Y-99571428D01*
X186127142Y-99476190D01*
X187174761Y-99476190D01*
X187174761Y-98523809D02*
X185841428Y-98523809D01*
X186031904Y-98523809D02*
X185936666Y-98428571D01*
X185841428Y-98238095D01*
X185841428Y-97952380D01*
X185936666Y-97761904D01*
X186127142Y-97666666D01*
X187174761Y-97666666D01*
X186127142Y-97666666D02*
X185936666Y-97571428D01*
X185841428Y-97380952D01*
X185841428Y-97095238D01*
X185936666Y-96904761D01*
X186127142Y-96809523D01*
X187174761Y-96809523D01*
D11*
X185000000Y-80000000D02*
X185000000Y-130000000D01*
X180000000Y-80000000D02*
X185586421Y-80000000D01*
X180000000Y-130000000D02*
X185586421Y-130000000D01*
X185000000Y-130000000D02*
X184413579Y-128873496D01*
X185000000Y-130000000D02*
X185586421Y-128873496D01*
X185000000Y-80000000D02*
X184413579Y-81126504D01*
X185000000Y-80000000D02*
X185586421Y-81126504D01*
D10*
X140166666Y-133674760D02*
X139785714Y-133674760D01*
X139595238Y-133769999D01*
X139500000Y-133865237D01*
X139309523Y-134150951D01*
X139214285Y-134531903D01*
X139214285Y-135293808D01*
X139309523Y-135484284D01*
X139404761Y-135579522D01*
X139595238Y-135674760D01*
X139976190Y-135674760D01*
X140166666Y-135579522D01*
X140261904Y-135484284D01*
X140357142Y-135293808D01*
X140357142Y-134817618D01*
X140261904Y-134627141D01*
X140166666Y-134531903D01*
X139976190Y-134436665D01*
X139595238Y-134436665D01*
X139404761Y-134531903D01*
X139309523Y-134627141D01*
X139214285Y-134817618D01*
X142166666Y-133674760D02*
X141214285Y-133674760D01*
X141119047Y-134627141D01*
X141214285Y-134531903D01*
X141404761Y-134436665D01*
X141880952Y-134436665D01*
X142071428Y-134531903D01*
X142166666Y-134627141D01*
X142261904Y-134817618D01*
X142261904Y-135293808D01*
X142166666Y-135484284D01*
X142071428Y-135579522D01*
X141880952Y-135674760D01*
X141404761Y-135674760D01*
X141214285Y-135579522D01*
X141119047Y-135484284D01*
X143119047Y-135484284D02*
X143214285Y-135579522D01*
X143119047Y-135674760D01*
X143023809Y-135579522D01*
X143119047Y-135484284D01*
X143119047Y-135674760D01*
X144452380Y-133674760D02*
X144642857Y-133674760D01*
X144833333Y-133769999D01*
X144928571Y-133865237D01*
X145023809Y-134055713D01*
X145119047Y-134436665D01*
X145119047Y-134912856D01*
X145023809Y-135293808D01*
X144928571Y-135484284D01*
X144833333Y-135579522D01*
X144642857Y-135674760D01*
X144452380Y-135674760D01*
X144261904Y-135579522D01*
X144166666Y-135484284D01*
X144071428Y-135293808D01*
X143976190Y-134912856D01*
X143976190Y-134436665D01*
X144071428Y-134055713D01*
X144166666Y-133865237D01*
X144261904Y-133769999D01*
X144452380Y-133674760D01*
X146357142Y-133674760D02*
X146547619Y-133674760D01*
X146738095Y-133769999D01*
X146833333Y-133865237D01*
X146928571Y-134055713D01*
X147023809Y-134436665D01*
X147023809Y-134912856D01*
X146928571Y-135293808D01*
X146833333Y-135484284D01*
X146738095Y-135579522D01*
X146547619Y-135674760D01*
X146357142Y-135674760D01*
X146166666Y-135579522D01*
X146071428Y-135484284D01*
X145976190Y-135293808D01*
X145880952Y-134912856D01*
X145880952Y-134436665D01*
X145976190Y-134055713D01*
X146071428Y-133865237D01*
X146166666Y-133769999D01*
X146357142Y-133674760D01*
X148261904Y-133674760D02*
X148452380Y-133674760D01*
X148642857Y-133769999D01*
X148738095Y-133865237D01*
X148833333Y-134055713D01*
X148928571Y-134436665D01*
X148928571Y-134912856D01*
X148833333Y-135293808D01*
X148738095Y-135484284D01*
X148642857Y-135579522D01*
X148452380Y-135674760D01*
X148261904Y-135674760D01*
X148071428Y-135579522D01*
X147976190Y-135484284D01*
X147880952Y-135293808D01*
X147785714Y-134912856D01*
X147785714Y-134436665D01*
X147880952Y-134055713D01*
X147976190Y-133865237D01*
X148071428Y-133769999D01*
X148261904Y-133674760D01*
X151309523Y-135674760D02*
X151309523Y-134341427D01*
X151309523Y-134531903D02*
X151404761Y-134436665D01*
X151595238Y-134341427D01*
X151880952Y-134341427D01*
X152071428Y-134436665D01*
X152166666Y-134627141D01*
X152166666Y-135674760D01*
X152166666Y-134627141D02*
X152261904Y-134436665D01*
X152452380Y-134341427D01*
X152738095Y-134341427D01*
X152928571Y-134436665D01*
X153023809Y-134627141D01*
X153023809Y-135674760D01*
X153976190Y-135674760D02*
X153976190Y-134341427D01*
X153976190Y-134531903D02*
X154071428Y-134436665D01*
X154261904Y-134341427D01*
X154547619Y-134341427D01*
X154738095Y-134436665D01*
X154833333Y-134627141D01*
X154833333Y-135674760D01*
X154833333Y-134627141D02*
X154928571Y-134436665D01*
X155119047Y-134341427D01*
X155404761Y-134341427D01*
X155595238Y-134436665D01*
X155690476Y-134627141D01*
X155690476Y-135674760D01*
D11*
X115000000Y-133499999D02*
X180000000Y-133499999D01*
X115000000Y-130000000D02*
X115000000Y-134086420D01*
X180000000Y-130000000D02*
X180000000Y-134086420D01*
X180000000Y-133499999D02*
X178873496Y-134086420D01*
X180000000Y-133499999D02*
X178873496Y-132913578D01*
X115000000Y-133499999D02*
X116126504Y-134086420D01*
X115000000Y-133499999D02*
X116126504Y-132913578D01*
D12*
X118754761Y-109712023D02*
X118802380Y-109569166D01*
X118802380Y-109331071D01*
X118754761Y-109235833D01*
X118707142Y-109188214D01*
X118611904Y-109140595D01*
X118516666Y-109140595D01*
X118421428Y-109188214D01*
X118373809Y-109235833D01*
X118326190Y-109331071D01*
X118278571Y-109521547D01*
X118230952Y-109616785D01*
X118183333Y-109664404D01*
X118088095Y-109712023D01*
X117992857Y-109712023D01*
X117897619Y-109664404D01*
X117850000Y-109616785D01*
X117802380Y-109521547D01*
X117802380Y-109283452D01*
X117850000Y-109140595D01*
X118802380Y-108712023D02*
X118135714Y-108712023D01*
X117802380Y-108712023D02*
X117850000Y-108759642D01*
X117897619Y-108712023D01*
X117850000Y-108664404D01*
X117802380Y-108712023D01*
X117897619Y-108712023D01*
X118802380Y-108235833D02*
X117802380Y-108235833D01*
X117802380Y-107854880D01*
X117850000Y-107759642D01*
X117897619Y-107712023D01*
X117992857Y-107664404D01*
X118135714Y-107664404D01*
X118230952Y-107712023D01*
X118278571Y-107759642D01*
X118326190Y-107854880D01*
X118326190Y-108235833D01*
X118802380Y-107235833D02*
X117802380Y-107235833D01*
X118516666Y-106902500D01*
X117802380Y-106569166D01*
X118802380Y-106569166D01*
X118802380Y-104854880D02*
X118802380Y-105331071D01*
X117802380Y-105331071D01*
X118135714Y-104092976D02*
X118802380Y-104092976D01*
X118135714Y-104521547D02*
X118659523Y-104521547D01*
X118754761Y-104473928D01*
X118802380Y-104378690D01*
X118802380Y-104235833D01*
X118754761Y-104140595D01*
X118707142Y-104092976D01*
X118802380Y-103616785D02*
X118135714Y-103616785D01*
X118230952Y-103616785D02*
X118183333Y-103569166D01*
X118135714Y-103473928D01*
X118135714Y-103331071D01*
X118183333Y-103235833D01*
X118278571Y-103188214D01*
X118802380Y-103188214D01*
X118278571Y-103188214D02*
X118183333Y-103140595D01*
X118135714Y-103045357D01*
X118135714Y-102902500D01*
X118183333Y-102807261D01*
X118278571Y-102759642D01*
X118802380Y-102759642D01*
X118802380Y-102283452D02*
X118135714Y-102283452D01*
X117802380Y-102283452D02*
X117850000Y-102331071D01*
X117897619Y-102283452D01*
X117850000Y-102235833D01*
X117802380Y-102283452D01*
X117897619Y-102283452D01*
X118135714Y-101807261D02*
X118802380Y-101807261D01*
X118230952Y-101807261D02*
X118183333Y-101759642D01*
X118135714Y-101664404D01*
X118135714Y-101521547D01*
X118183333Y-101426309D01*
X118278571Y-101378690D01*
X118802380Y-101378690D01*
X118802380Y-100759642D02*
X118754761Y-100854880D01*
X118707142Y-100902500D01*
X118611904Y-100950119D01*
X118326190Y-100950119D01*
X118230952Y-100902500D01*
X118183333Y-100854880D01*
X118135714Y-100759642D01*
X118135714Y-100616785D01*
X118183333Y-100521547D01*
X118230952Y-100473928D01*
X118326190Y-100426309D01*
X118611904Y-100426309D01*
X118707142Y-100473928D01*
X118754761Y-100521547D01*
X118802380Y-100616785D01*
X118802380Y-100759642D01*
X118802380Y-99997738D02*
X118135714Y-99997738D01*
X118230952Y-99997738D02*
X118183333Y-99950119D01*
X118135714Y-99854880D01*
X118135714Y-99712023D01*
X118183333Y-99616785D01*
X118278571Y-99569166D01*
X118802380Y-99569166D01*
X118278571Y-99569166D02*
X118183333Y-99521547D01*
X118135714Y-99426309D01*
X118135714Y-99283452D01*
X118183333Y-99188214D01*
X118278571Y-99140595D01*
X118802380Y-99140595D01*
X118754761Y-98283452D02*
X118802380Y-98378690D01*
X118802380Y-98569166D01*
X118754761Y-98664404D01*
X118659523Y-98712023D01*
X118278571Y-98712023D01*
X118183333Y-98664404D01*
X118135714Y-98569166D01*
X118135714Y-98378690D01*
X118183333Y-98283452D01*
X118278571Y-98235833D01*
X118373809Y-98235833D01*
X118469047Y-98712023D01*
X118135714Y-97950119D02*
X118135714Y-97569166D01*
X117802380Y-97807261D02*
X118659523Y-97807261D01*
X118754761Y-97759642D01*
X118802380Y-97664404D01*
X118802380Y-97569166D01*
X118754761Y-96854880D02*
X118802380Y-96950119D01*
X118802380Y-97140595D01*
X118754761Y-97235833D01*
X118659523Y-97283452D01*
X118278571Y-97283452D01*
X118183333Y-97235833D01*
X118135714Y-97140595D01*
X118135714Y-96950119D01*
X118183333Y-96854880D01*
X118278571Y-96807261D01*
X118373809Y-96807261D01*
X118469047Y-97283452D01*
X118802380Y-96378690D02*
X118135714Y-96378690D01*
X118326190Y-96378690D02*
X118230952Y-96331071D01*
X118183333Y-96283452D01*
X118135714Y-96188214D01*
X118135714Y-96092976D01*
X117802380Y-95140595D02*
X118802380Y-94807261D01*
X117802380Y-94473928D01*
X118802380Y-93616785D02*
X118802380Y-94188214D01*
X118802380Y-93902500D02*
X117802380Y-93902500D01*
X117945238Y-93997738D01*
X118040476Y-94092976D01*
X118088095Y-94188214D01*
X118707142Y-93188214D02*
X118754761Y-93140595D01*
X118802380Y-93188214D01*
X118754761Y-93235833D01*
X118707142Y-93188214D01*
X118802380Y-93188214D01*
X117802380Y-92521547D02*
X117802380Y-92426309D01*
X117850000Y-92331071D01*
X117897619Y-92283452D01*
X117992857Y-92235833D01*
X118183333Y-92188214D01*
X118421428Y-92188214D01*
X118611904Y-92235833D01*
X118707142Y-92283452D01*
X118754761Y-92331071D01*
X118802380Y-92426309D01*
X118802380Y-92521547D01*
X118754761Y-92616785D01*
X118707142Y-92664404D01*
X118611904Y-92712023D01*
X118421428Y-92759642D01*
X118183333Y-92759642D01*
X117992857Y-92712023D01*
X117897619Y-92664404D01*
X117850000Y-92616785D01*
X117802380Y-92521547D01*
X120404761Y-109235833D02*
X120452380Y-109331071D01*
X120452380Y-109521547D01*
X120404761Y-109616785D01*
X120357142Y-109664404D01*
X120261904Y-109712023D01*
X119976190Y-109712023D01*
X119880952Y-109664404D01*
X119833333Y-109616785D01*
X119785714Y-109521547D01*
X119785714Y-109331071D01*
X119833333Y-109235833D01*
X119785714Y-108902500D02*
X119785714Y-108378690D01*
X120452380Y-108902500D01*
X120452380Y-108378690D01*
X120452380Y-107997738D02*
X119452380Y-107997738D01*
X119833333Y-107997738D02*
X119785714Y-107902500D01*
X119785714Y-107712023D01*
X119833333Y-107616785D01*
X119880952Y-107569166D01*
X119976190Y-107521547D01*
X120261904Y-107521547D01*
X120357142Y-107569166D01*
X120404761Y-107616785D01*
X120452380Y-107712023D01*
X120452380Y-107902500D01*
X120404761Y-107997738D01*
X120452380Y-107092976D02*
X119785714Y-107092976D01*
X119452380Y-107092976D02*
X119500000Y-107140595D01*
X119547619Y-107092976D01*
X119500000Y-107045357D01*
X119452380Y-107092976D01*
X119547619Y-107092976D01*
X120452380Y-106473928D02*
X120404761Y-106569166D01*
X120357142Y-106616785D01*
X120261904Y-106664404D01*
X119976190Y-106664404D01*
X119880952Y-106616785D01*
X119833333Y-106569166D01*
X119785714Y-106473928D01*
X119785714Y-106331071D01*
X119833333Y-106235833D01*
X119880952Y-106188214D01*
X119976190Y-106140595D01*
X120261904Y-106140595D01*
X120357142Y-106188214D01*
X120404761Y-106235833D01*
X120452380Y-106331071D01*
X120452380Y-106473928D01*
X120452380Y-105712023D02*
X119452380Y-105712023D01*
X120452380Y-105283452D02*
X119928571Y-105283452D01*
X119833333Y-105331071D01*
X119785714Y-105426309D01*
X119785714Y-105569166D01*
X119833333Y-105664404D01*
X119880952Y-105712023D01*
X119785714Y-104378690D02*
X120452380Y-104378690D01*
X119785714Y-104807261D02*
X120309523Y-104807261D01*
X120404761Y-104759642D01*
X120452380Y-104664404D01*
X120452380Y-104521547D01*
X120404761Y-104426309D01*
X120357142Y-104378690D01*
X120452380Y-103902500D02*
X119452380Y-103902500D01*
X119833333Y-103902500D02*
X119785714Y-103807261D01*
X119785714Y-103616785D01*
X119833333Y-103521547D01*
X119880952Y-103473928D01*
X119976190Y-103426309D01*
X120261904Y-103426309D01*
X120357142Y-103473928D01*
X120404761Y-103521547D01*
X120452380Y-103616785D01*
X120452380Y-103807261D01*
X120404761Y-103902500D01*
X121197619Y-109712023D02*
X121150000Y-109664404D01*
X121102380Y-109569166D01*
X121102380Y-109331071D01*
X121150000Y-109235833D01*
X121197619Y-109188214D01*
X121292857Y-109140595D01*
X121388095Y-109140595D01*
X121530952Y-109188214D01*
X122102380Y-109759642D01*
X122102380Y-109140595D01*
X121102380Y-108521547D02*
X121102380Y-108426309D01*
X121150000Y-108331071D01*
X121197619Y-108283452D01*
X121292857Y-108235833D01*
X121483333Y-108188214D01*
X121721428Y-108188214D01*
X121911904Y-108235833D01*
X122007142Y-108283452D01*
X122054761Y-108331071D01*
X122102380Y-108426309D01*
X122102380Y-108521547D01*
X122054761Y-108616785D01*
X122007142Y-108664404D01*
X121911904Y-108712023D01*
X121721428Y-108759642D01*
X121483333Y-108759642D01*
X121292857Y-108712023D01*
X121197619Y-108664404D01*
X121150000Y-108616785D01*
X121102380Y-108521547D01*
X121197619Y-107807261D02*
X121150000Y-107759642D01*
X121102380Y-107664404D01*
X121102380Y-107426309D01*
X121150000Y-107331071D01*
X121197619Y-107283452D01*
X121292857Y-107235833D01*
X121388095Y-107235833D01*
X121530952Y-107283452D01*
X122102380Y-107854880D01*
X122102380Y-107235833D01*
X121102380Y-106616785D02*
X121102380Y-106521547D01*
X121150000Y-106426309D01*
X121197619Y-106378690D01*
X121292857Y-106331071D01*
X121483333Y-106283452D01*
X121721428Y-106283452D01*
X121911904Y-106331071D01*
X122007142Y-106378690D01*
X122054761Y-106426309D01*
X122102380Y-106521547D01*
X122102380Y-106616785D01*
X122054761Y-106712023D01*
X122007142Y-106759642D01*
X121911904Y-106807261D01*
X121721428Y-106854880D01*
X121483333Y-106854880D01*
X121292857Y-106807261D01*
X121197619Y-106759642D01*
X121150000Y-106712023D01*
X121102380Y-106616785D01*
D13*
G36*
X120278493Y-111374839D02*
G01*
X120452422Y-111389117D01*
X120582477Y-111406656D01*
X120808792Y-111451554D01*
X121029391Y-111512096D01*
X121243616Y-111587767D01*
X121450806Y-111678051D01*
X121650304Y-111782432D01*
X121841450Y-111900394D01*
X122023587Y-112031421D01*
X122196055Y-112174997D01*
X122358195Y-112330607D01*
X122509349Y-112497735D01*
X122648858Y-112675864D01*
X122776064Y-112864479D01*
X122890307Y-113063063D01*
X122990929Y-113271102D01*
X123005148Y-113303889D01*
X123087115Y-113517151D01*
X123152804Y-113735030D01*
X123202224Y-113957564D01*
X123235381Y-114184788D01*
X123252282Y-114416736D01*
X123254652Y-114544000D01*
X123246395Y-114777606D01*
X123221772Y-115007523D01*
X123181001Y-115233169D01*
X123124301Y-115453962D01*
X123051893Y-115669321D01*
X122963995Y-115878665D01*
X122860826Y-116081413D01*
X122742607Y-116276984D01*
X122609556Y-116464795D01*
X122462364Y-116643733D01*
X122300893Y-116813882D01*
X122129724Y-116970255D01*
X121949330Y-117112613D01*
X121760184Y-117240718D01*
X121562760Y-117354333D01*
X121357529Y-117453220D01*
X121144964Y-117537140D01*
X120925539Y-117605857D01*
X120699726Y-117659132D01*
X120467998Y-117696727D01*
X120342466Y-117710256D01*
X120285980Y-117713962D01*
X120216826Y-117716401D01*
X120139218Y-117717603D01*
X120057373Y-117717595D01*
X119975506Y-117716408D01*
X119897832Y-117714069D01*
X119828566Y-117710608D01*
X119775200Y-117706387D01*
X119544573Y-117674940D01*
X119319193Y-117627697D01*
X119099695Y-117565125D01*
X118886719Y-117487694D01*
X118680904Y-117395870D01*
X118482887Y-117290124D01*
X118293307Y-117170922D01*
X118112802Y-117038734D01*
X117942011Y-116894027D01*
X117781572Y-116737270D01*
X117632123Y-116568931D01*
X117494303Y-116389479D01*
X117368750Y-116199381D01*
X117256102Y-115999107D01*
X117156998Y-115789123D01*
X117154851Y-115784110D01*
X117072884Y-115570848D01*
X117007195Y-115352969D01*
X116957775Y-115130435D01*
X116924618Y-114903211D01*
X116907717Y-114671263D01*
X116905347Y-114544000D01*
X116913471Y-114309484D01*
X116937846Y-114079713D01*
X116978481Y-113854650D01*
X116996145Y-113786233D01*
X117799902Y-113786233D01*
X117800296Y-113839907D01*
X117801813Y-113881463D01*
X117804956Y-113915705D01*
X117810227Y-113947436D01*
X117818127Y-113981461D01*
X117821768Y-113995409D01*
X117861069Y-114111712D01*
X117914260Y-114219381D01*
X117980303Y-114317459D01*
X118058162Y-114404988D01*
X118146801Y-114481011D01*
X118245183Y-114544568D01*
X118352271Y-114594703D01*
X118467029Y-114630456D01*
X118521125Y-114641639D01*
X118635590Y-114653358D01*
X118750210Y-114649171D01*
X118863167Y-114629840D01*
X118972648Y-114596128D01*
X119076834Y-114548798D01*
X119173910Y-114488611D01*
X119262060Y-114416332D01*
X119339467Y-114332723D01*
X119376700Y-114282338D01*
X119400055Y-114245055D01*
X119425205Y-114200240D01*
X119449522Y-114153038D01*
X119470382Y-114108592D01*
X119485159Y-114072045D01*
X119487314Y-114065633D01*
X119516435Y-113996917D01*
X119557168Y-113933500D01*
X119606916Y-113878245D01*
X119663078Y-113834013D01*
X119723056Y-113803665D01*
X119726327Y-113802486D01*
X119742003Y-113797952D01*
X119772312Y-113790109D01*
X119815377Y-113779410D01*
X119869322Y-113766309D01*
X119932270Y-113751258D01*
X120002345Y-113734711D01*
X120077669Y-113717121D01*
X120130704Y-113704847D01*
X120220516Y-113684216D01*
X120295498Y-113667202D01*
X120357288Y-113653494D01*
X120407527Y-113642777D01*
X120447853Y-113634739D01*
X120479908Y-113629065D01*
X120505329Y-113625443D01*
X120525758Y-113623560D01*
X120542833Y-113623101D01*
X120555922Y-113623597D01*
X120620970Y-113635093D01*
X120678924Y-113661176D01*
X120731538Y-113702732D01*
X120749049Y-113721133D01*
X120790224Y-113772825D01*
X120817623Y-113821419D01*
X120832914Y-113870765D01*
X120837764Y-113924711D01*
X120837766Y-113925933D01*
X120837766Y-113989433D01*
X120732875Y-114205333D01*
X120696023Y-114280758D01*
X120665134Y-114342776D01*
X120639056Y-114393344D01*
X120616635Y-114434421D01*
X120596717Y-114467963D01*
X120578150Y-114495928D01*
X120559780Y-114520274D01*
X120540453Y-114542960D01*
X120522699Y-114562098D01*
X120453824Y-114623754D01*
X120375904Y-114673214D01*
X120287267Y-114711366D01*
X120192232Y-114737812D01*
X120059787Y-114774678D01*
X119936031Y-114825286D01*
X119821767Y-114889034D01*
X119717801Y-114965324D01*
X119624939Y-115053554D01*
X119543985Y-115153125D01*
X119475745Y-115263437D01*
X119468592Y-115277089D01*
X119413641Y-115400962D01*
X119374865Y-115526294D01*
X119351908Y-115651958D01*
X119344419Y-115776827D01*
X119352043Y-115899774D01*
X119374426Y-116019673D01*
X119411214Y-116135397D01*
X119462055Y-116245818D01*
X119526594Y-116349810D01*
X119604478Y-116446246D01*
X119695352Y-116534000D01*
X119798863Y-116611944D01*
X119907489Y-116675321D01*
X120012227Y-116723427D01*
X120114086Y-116758549D01*
X120218551Y-116782423D01*
X120270499Y-116790303D01*
X120314362Y-116793743D01*
X120368906Y-116794693D01*
X120428086Y-116793299D01*
X120485855Y-116789708D01*
X120536167Y-116784062D01*
X120537235Y-116783902D01*
X120667090Y-116756115D01*
X120789783Y-116712983D01*
X120905311Y-116654508D01*
X121013673Y-116580692D01*
X121114864Y-116491536D01*
X121118240Y-116488173D01*
X121206154Y-116388847D01*
X121279400Y-116282136D01*
X121337864Y-116169312D01*
X121381430Y-116051645D01*
X121409986Y-115930408D01*
X121423417Y-115806870D01*
X121421608Y-115682303D01*
X121404446Y-115557978D01*
X121371815Y-115435166D01*
X121323603Y-115315139D01*
X121259694Y-115199167D01*
X121237181Y-115164973D01*
X121175911Y-115063738D01*
X121131305Y-114962963D01*
X121103138Y-114861835D01*
X121091189Y-114759537D01*
X121095234Y-114655257D01*
X121096010Y-114648678D01*
X121100845Y-114619802D01*
X121109494Y-114578781D01*
X121121218Y-114528379D01*
X121135275Y-114471361D01*
X121150924Y-114410489D01*
X121167426Y-114348529D01*
X121184039Y-114288244D01*
X121200024Y-114232398D01*
X121214638Y-114183755D01*
X121227143Y-114145079D01*
X121236796Y-114119135D01*
X121239426Y-114113453D01*
X121265755Y-114073707D01*
X121300457Y-114042768D01*
X121346094Y-114018981D01*
X121405227Y-114000691D01*
X121418749Y-113997580D01*
X121453240Y-113987842D01*
X121496280Y-113972560D01*
X121541459Y-113954127D01*
X121569795Y-113941176D01*
X121610142Y-113920957D01*
X121641796Y-113902583D01*
X121669708Y-113882471D01*
X121698828Y-113857040D01*
X121734105Y-113822708D01*
X121735617Y-113821197D01*
X121771509Y-113784205D01*
X121798197Y-113753411D01*
X121819288Y-113723942D01*
X121838390Y-113690921D01*
X121852321Y-113663466D01*
X121882122Y-113597304D01*
X121902611Y-113537482D01*
X121915578Y-113477556D01*
X121922815Y-113411082D01*
X121922926Y-113409466D01*
X121921799Y-113324595D01*
X121908184Y-113236536D01*
X121883700Y-113153711D01*
X121847158Y-113078011D01*
X121796391Y-113004357D01*
X121734098Y-112935416D01*
X121662976Y-112873857D01*
X121585723Y-112822346D01*
X121512202Y-112786385D01*
X121451410Y-112764078D01*
X121397257Y-112750017D01*
X121342868Y-112743023D01*
X121281365Y-112741919D01*
X121257085Y-112742699D01*
X121163201Y-112751941D01*
X121079113Y-112772266D01*
X121001872Y-112805000D01*
X120928530Y-112851464D01*
X120856138Y-112912983D01*
X120837766Y-112930947D01*
X120797927Y-112972650D01*
X120767715Y-113009050D01*
X120743310Y-113045140D01*
X120724299Y-113079266D01*
X120685422Y-113146943D01*
X120645556Y-113200189D01*
X120602240Y-113241442D01*
X120553015Y-113273140D01*
X120508797Y-113292853D01*
X120491222Y-113297160D01*
X120458905Y-113302714D01*
X120413975Y-113309284D01*
X120358557Y-113316640D01*
X120294781Y-113324555D01*
X120224772Y-113332797D01*
X120150659Y-113341138D01*
X120074569Y-113349347D01*
X119998629Y-113357196D01*
X119924967Y-113364455D01*
X119855710Y-113370893D01*
X119792985Y-113376283D01*
X119738920Y-113380393D01*
X119695642Y-113382995D01*
X119665350Y-113383859D01*
X119606151Y-113381291D01*
X119554081Y-113373050D01*
X119506287Y-113357715D01*
X119459918Y-113333861D01*
X119412123Y-113300066D01*
X119360048Y-113254906D01*
X119310608Y-113206843D01*
X119240739Y-113139729D01*
X119175963Y-113085063D01*
X119112826Y-113040679D01*
X119047878Y-113004405D01*
X118977664Y-112974073D01*
X118898732Y-112947514D01*
X118897071Y-112947015D01*
X118835674Y-112933000D01*
X118763572Y-112923556D01*
X118686430Y-112918916D01*
X118609913Y-112919317D01*
X118539686Y-112924991D01*
X118504299Y-112930745D01*
X118385815Y-112963069D01*
X118274721Y-113010465D01*
X118171776Y-113072540D01*
X118077735Y-113148906D01*
X118073144Y-113153221D01*
X117989176Y-113243904D01*
X117919727Y-113343278D01*
X117864708Y-113451496D01*
X117824028Y-113568710D01*
X117821768Y-113577057D01*
X117812782Y-113613118D01*
X117806609Y-113645130D01*
X117802747Y-113677898D01*
X117800694Y-113716225D01*
X117799947Y-113764915D01*
X117799902Y-113786233D01*
X116996145Y-113786233D01*
X117035382Y-113634261D01*
X117108556Y-113418509D01*
X117154851Y-113303889D01*
X117253321Y-113094443D01*
X117365513Y-112894371D01*
X117490769Y-112704190D01*
X117628429Y-112524415D01*
X117777836Y-112355563D01*
X117938330Y-112198149D01*
X118109253Y-112052689D01*
X118289947Y-111919700D01*
X118479751Y-111799696D01*
X118678008Y-111693194D01*
X118884058Y-111600709D01*
X119097244Y-111522758D01*
X119316906Y-111459856D01*
X119542385Y-111412520D01*
X119577522Y-111406656D01*
X119743596Y-111385362D01*
X119919102Y-111372961D01*
X120099060Y-111369453D01*
X120278493Y-111374839D01*
G37*
X120278493Y-111374839D02*
X120452422Y-111389117D01*
X120582477Y-111406656D01*
X120808792Y-111451554D01*
X121029391Y-111512096D01*
X121243616Y-111587767D01*
X121450806Y-111678051D01*
X121650304Y-111782432D01*
X121841450Y-111900394D01*
X122023587Y-112031421D01*
X122196055Y-112174997D01*
X122358195Y-112330607D01*
X122509349Y-112497735D01*
X122648858Y-112675864D01*
X122776064Y-112864479D01*
X122890307Y-113063063D01*
X122990929Y-113271102D01*
X123005148Y-113303889D01*
X123087115Y-113517151D01*
X123152804Y-113735030D01*
X123202224Y-113957564D01*
X123235381Y-114184788D01*
X123252282Y-114416736D01*
X123254652Y-114544000D01*
X123246395Y-114777606D01*
X123221772Y-115007523D01*
X123181001Y-115233169D01*
X123124301Y-115453962D01*
X123051893Y-115669321D01*
X122963995Y-115878665D01*
X122860826Y-116081413D01*
X122742607Y-116276984D01*
X122609556Y-116464795D01*
X122462364Y-116643733D01*
X122300893Y-116813882D01*
X122129724Y-116970255D01*
X121949330Y-117112613D01*
X121760184Y-117240718D01*
X121562760Y-117354333D01*
X121357529Y-117453220D01*
X121144964Y-117537140D01*
X120925539Y-117605857D01*
X120699726Y-117659132D01*
X120467998Y-117696727D01*
X120342466Y-117710256D01*
X120285980Y-117713962D01*
X120216826Y-117716401D01*
X120139218Y-117717603D01*
X120057373Y-117717595D01*
X119975506Y-117716408D01*
X119897832Y-117714069D01*
X119828566Y-117710608D01*
X119775200Y-117706387D01*
X119544573Y-117674940D01*
X119319193Y-117627697D01*
X119099695Y-117565125D01*
X118886719Y-117487694D01*
X118680904Y-117395870D01*
X118482887Y-117290124D01*
X118293307Y-117170922D01*
X118112802Y-117038734D01*
X117942011Y-116894027D01*
X117781572Y-116737270D01*
X117632123Y-116568931D01*
X117494303Y-116389479D01*
X117368750Y-116199381D01*
X117256102Y-115999107D01*
X117156998Y-115789123D01*
X117154851Y-115784110D01*
X117072884Y-115570848D01*
X117007195Y-115352969D01*
X116957775Y-115130435D01*
X116924618Y-114903211D01*
X116907717Y-114671263D01*
X116905347Y-114544000D01*
X116913471Y-114309484D01*
X116937846Y-114079713D01*
X116978481Y-113854650D01*
X116996145Y-113786233D01*
X117799902Y-113786233D01*
X117800296Y-113839907D01*
X117801813Y-113881463D01*
X117804956Y-113915705D01*
X117810227Y-113947436D01*
X117818127Y-113981461D01*
X117821768Y-113995409D01*
X117861069Y-114111712D01*
X117914260Y-114219381D01*
X117980303Y-114317459D01*
X118058162Y-114404988D01*
X118146801Y-114481011D01*
X118245183Y-114544568D01*
X118352271Y-114594703D01*
X118467029Y-114630456D01*
X118521125Y-114641639D01*
X118635590Y-114653358D01*
X118750210Y-114649171D01*
X118863167Y-114629840D01*
X118972648Y-114596128D01*
X119076834Y-114548798D01*
X119173910Y-114488611D01*
X119262060Y-114416332D01*
X119339467Y-114332723D01*
X119376700Y-114282338D01*
X119400055Y-114245055D01*
X119425205Y-114200240D01*
X119449522Y-114153038D01*
X119470382Y-114108592D01*
X119485159Y-114072045D01*
X119487314Y-114065633D01*
X119516435Y-113996917D01*
X119557168Y-113933500D01*
X119606916Y-113878245D01*
X119663078Y-113834013D01*
X119723056Y-113803665D01*
X119726327Y-113802486D01*
X119742003Y-113797952D01*
X119772312Y-113790109D01*
X119815377Y-113779410D01*
X119869322Y-113766309D01*
X119932270Y-113751258D01*
X120002345Y-113734711D01*
X120077669Y-113717121D01*
X120130704Y-113704847D01*
X120220516Y-113684216D01*
X120295498Y-113667202D01*
X120357288Y-113653494D01*
X120407527Y-113642777D01*
X120447853Y-113634739D01*
X120479908Y-113629065D01*
X120505329Y-113625443D01*
X120525758Y-113623560D01*
X120542833Y-113623101D01*
X120555922Y-113623597D01*
X120620970Y-113635093D01*
X120678924Y-113661176D01*
X120731538Y-113702732D01*
X120749049Y-113721133D01*
X120790224Y-113772825D01*
X120817623Y-113821419D01*
X120832914Y-113870765D01*
X120837764Y-113924711D01*
X120837766Y-113925933D01*
X120837766Y-113989433D01*
X120732875Y-114205333D01*
X120696023Y-114280758D01*
X120665134Y-114342776D01*
X120639056Y-114393344D01*
X120616635Y-114434421D01*
X120596717Y-114467963D01*
X120578150Y-114495928D01*
X120559780Y-114520274D01*
X120540453Y-114542960D01*
X120522699Y-114562098D01*
X120453824Y-114623754D01*
X120375904Y-114673214D01*
X120287267Y-114711366D01*
X120192232Y-114737812D01*
X120059787Y-114774678D01*
X119936031Y-114825286D01*
X119821767Y-114889034D01*
X119717801Y-114965324D01*
X119624939Y-115053554D01*
X119543985Y-115153125D01*
X119475745Y-115263437D01*
X119468592Y-115277089D01*
X119413641Y-115400962D01*
X119374865Y-115526294D01*
X119351908Y-115651958D01*
X119344419Y-115776827D01*
X119352043Y-115899774D01*
X119374426Y-116019673D01*
X119411214Y-116135397D01*
X119462055Y-116245818D01*
X119526594Y-116349810D01*
X119604478Y-116446246D01*
X119695352Y-116534000D01*
X119798863Y-116611944D01*
X119907489Y-116675321D01*
X120012227Y-116723427D01*
X120114086Y-116758549D01*
X120218551Y-116782423D01*
X120270499Y-116790303D01*
X120314362Y-116793743D01*
X120368906Y-116794693D01*
X120428086Y-116793299D01*
X120485855Y-116789708D01*
X120536167Y-116784062D01*
X120537235Y-116783902D01*
X120667090Y-116756115D01*
X120789783Y-116712983D01*
X120905311Y-116654508D01*
X121013673Y-116580692D01*
X121114864Y-116491536D01*
X121118240Y-116488173D01*
X121206154Y-116388847D01*
X121279400Y-116282136D01*
X121337864Y-116169312D01*
X121381430Y-116051645D01*
X121409986Y-115930408D01*
X121423417Y-115806870D01*
X121421608Y-115682303D01*
X121404446Y-115557978D01*
X121371815Y-115435166D01*
X121323603Y-115315139D01*
X121259694Y-115199167D01*
X121237181Y-115164973D01*
X121175911Y-115063738D01*
X121131305Y-114962963D01*
X121103138Y-114861835D01*
X121091189Y-114759537D01*
X121095234Y-114655257D01*
X121096010Y-114648678D01*
X121100845Y-114619802D01*
X121109494Y-114578781D01*
X121121218Y-114528379D01*
X121135275Y-114471361D01*
X121150924Y-114410489D01*
X121167426Y-114348529D01*
X121184039Y-114288244D01*
X121200024Y-114232398D01*
X121214638Y-114183755D01*
X121227143Y-114145079D01*
X121236796Y-114119135D01*
X121239426Y-114113453D01*
X121265755Y-114073707D01*
X121300457Y-114042768D01*
X121346094Y-114018981D01*
X121405227Y-114000691D01*
X121418749Y-113997580D01*
X121453240Y-113987842D01*
X121496280Y-113972560D01*
X121541459Y-113954127D01*
X121569795Y-113941176D01*
X121610142Y-113920957D01*
X121641796Y-113902583D01*
X121669708Y-113882471D01*
X121698828Y-113857040D01*
X121734105Y-113822708D01*
X121735617Y-113821197D01*
X121771509Y-113784205D01*
X121798197Y-113753411D01*
X121819288Y-113723942D01*
X121838390Y-113690921D01*
X121852321Y-113663466D01*
X121882122Y-113597304D01*
X121902611Y-113537482D01*
X121915578Y-113477556D01*
X121922815Y-113411082D01*
X121922926Y-113409466D01*
X121921799Y-113324595D01*
X121908184Y-113236536D01*
X121883700Y-113153711D01*
X121847158Y-113078011D01*
X121796391Y-113004357D01*
X121734098Y-112935416D01*
X121662976Y-112873857D01*
X121585723Y-112822346D01*
X121512202Y-112786385D01*
X121451410Y-112764078D01*
X121397257Y-112750017D01*
X121342868Y-112743023D01*
X121281365Y-112741919D01*
X121257085Y-112742699D01*
X121163201Y-112751941D01*
X121079113Y-112772266D01*
X121001872Y-112805000D01*
X120928530Y-112851464D01*
X120856138Y-112912983D01*
X120837766Y-112930947D01*
X120797927Y-112972650D01*
X120767715Y-113009050D01*
X120743310Y-113045140D01*
X120724299Y-113079266D01*
X120685422Y-113146943D01*
X120645556Y-113200189D01*
X120602240Y-113241442D01*
X120553015Y-113273140D01*
X120508797Y-113292853D01*
X120491222Y-113297160D01*
X120458905Y-113302714D01*
X120413975Y-113309284D01*
X120358557Y-113316640D01*
X120294781Y-113324555D01*
X120224772Y-113332797D01*
X120150659Y-113341138D01*
X120074569Y-113349347D01*
X119998629Y-113357196D01*
X119924967Y-113364455D01*
X119855710Y-113370893D01*
X119792985Y-113376283D01*
X119738920Y-113380393D01*
X119695642Y-113382995D01*
X119665350Y-113383859D01*
X119606151Y-113381291D01*
X119554081Y-113373050D01*
X119506287Y-113357715D01*
X119459918Y-113333861D01*
X119412123Y-113300066D01*
X119360048Y-113254906D01*
X119310608Y-113206843D01*
X119240739Y-113139729D01*
X119175963Y-113085063D01*
X119112826Y-113040679D01*
X119047878Y-113004405D01*
X118977664Y-112974073D01*
X118898732Y-112947514D01*
X118897071Y-112947015D01*
X118835674Y-112933000D01*
X118763572Y-112923556D01*
X118686430Y-112918916D01*
X118609913Y-112919317D01*
X118539686Y-112924991D01*
X118504299Y-112930745D01*
X118385815Y-112963069D01*
X118274721Y-113010465D01*
X118171776Y-113072540D01*
X118077735Y-113148906D01*
X118073144Y-113153221D01*
X117989176Y-113243904D01*
X117919727Y-113343278D01*
X117864708Y-113451496D01*
X117824028Y-113568710D01*
X117821768Y-113577057D01*
X117812782Y-113613118D01*
X117806609Y-113645130D01*
X117802747Y-113677898D01*
X117800694Y-113716225D01*
X117799947Y-113764915D01*
X117799902Y-113786233D01*
X116996145Y-113786233D01*
X117035382Y-113634261D01*
X117108556Y-113418509D01*
X117154851Y-113303889D01*
X117253321Y-113094443D01*
X117365513Y-112894371D01*
X117490769Y-112704190D01*
X117628429Y-112524415D01*
X117777836Y-112355563D01*
X117938330Y-112198149D01*
X118109253Y-112052689D01*
X118289947Y-111919700D01*
X118479751Y-111799696D01*
X118678008Y-111693194D01*
X118884058Y-111600709D01*
X119097244Y-111522758D01*
X119316906Y-111459856D01*
X119542385Y-111412520D01*
X119577522Y-111406656D01*
X119743596Y-111385362D01*
X119919102Y-111372961D01*
X120099060Y-111369453D01*
X120278493Y-111374839D01*
D11*
X163313000Y-105789000D02*
X163313000Y-107104000D01*
X162863000Y-105789000D02*
X163313000Y-105789000D01*
X162863000Y-105339000D02*
X162863000Y-105789000D01*
X162863000Y-100569000D02*
X163313000Y-100569000D01*
X162863000Y-101019000D02*
X162863000Y-100569000D01*
X168083000Y-105789000D02*
X167633000Y-105789000D01*
X168083000Y-105339000D02*
X168083000Y-105789000D01*
X168083000Y-100569000D02*
X167633000Y-100569000D01*
X168083000Y-101019000D02*
X168083000Y-100569000D01*
X162305000Y-95232000D02*
G75*
G03X162305000Y-95232000I-950000J0D01*
G01*
X126450000Y-102000000D02*
G75*
G03X126450000Y-102000000I-950000J0D01*
G01*
X160776000Y-101081279D02*
X160776000Y-100755721D01*
X159756000Y-101081279D02*
X159756000Y-100755721D01*
X168783000Y-92692000D02*
G75*
G03X168783000Y-92692000I-950000J0D01*
G01*
X136336721Y-122557000D02*
X136662279Y-122557000D01*
X136336721Y-121537000D02*
X136662279Y-121537000D01*
X156382721Y-126129000D02*
X156708279Y-126129000D01*
X156382721Y-125109000D02*
X156708279Y-125109000D01*
X139283221Y-127383000D02*
X139608779Y-127383000D01*
X139283221Y-126363000D02*
X139608779Y-126363000D01*
X137797000Y-124775279D02*
X137797000Y-124449721D01*
X136777000Y-124775279D02*
X136777000Y-124449721D01*
X160882721Y-120629000D02*
X161208279Y-120629000D01*
X160882721Y-119609000D02*
X161208279Y-119609000D01*
X170838279Y-113199000D02*
X170512721Y-113199000D01*
X170838279Y-114219000D02*
X170512721Y-114219000D01*
X155208279Y-122609000D02*
X154882721Y-122609000D01*
X155208279Y-123629000D02*
X154882721Y-123629000D01*
X155208279Y-120609000D02*
X154882721Y-120609000D01*
X155208279Y-121629000D02*
X154882721Y-121629000D01*
X159670221Y-126129000D02*
X159995779Y-126129000D01*
X159670221Y-125109000D02*
X159995779Y-125109000D01*
X167143000Y-114540721D02*
X167143000Y-114866279D01*
X168163000Y-114540721D02*
X168163000Y-114866279D01*
X160908000Y-115517721D02*
X160908000Y-115843279D01*
X161928000Y-115517721D02*
X161928000Y-115843279D01*
X165433000Y-122169000D02*
X165433000Y-123969000D01*
X162233000Y-122169000D02*
X162233000Y-123969000D01*
D14*
X138916000Y-98746000D02*
X138016000Y-98746000D01*
X138916000Y-98346000D02*
X138916000Y-98746000D01*
X139516000Y-98346000D02*
X138916000Y-98346000D01*
X143516000Y-98346000D02*
X143116000Y-98346000D01*
X143516000Y-98746000D02*
X143516000Y-98346000D01*
X143616000Y-107746000D02*
X143116000Y-107746000D01*
X143616000Y-107346000D02*
X143616000Y-107746000D01*
X138916000Y-107646000D02*
X139316000Y-107646000D01*
X138916000Y-107346000D02*
X138916000Y-107646000D01*
D11*
X135634000Y-103062721D02*
X135634000Y-103388279D01*
X136654000Y-103062721D02*
X136654000Y-103388279D01*
X133286000Y-99910279D02*
X133286000Y-99584721D01*
X132266000Y-99910279D02*
X132266000Y-99584721D01*
X166750000Y-95232000D02*
G75*
G03X166750000Y-95232000I-950000J0D01*
G01*
X170783000Y-95232000D02*
G75*
G03X170783000Y-95232000I-950000J0D01*
G01*
X164845000Y-92692000D02*
G75*
G03X164845000Y-92692000I-950000J0D01*
G01*
X173100000Y-92692000D02*
G75*
G03X173100000Y-92692000I-950000J0D01*
G01*
X159928000Y-121089000D02*
X157478000Y-121089000D01*
X158128000Y-124309000D02*
X159928000Y-124309000D01*
X163988000Y-113233000D02*
X165448000Y-113233000D01*
X163988000Y-116393000D02*
X166148000Y-116393000D01*
X163988000Y-116393000D02*
X163988000Y-115463000D01*
X163988000Y-113233000D02*
X163988000Y-114163000D01*
X157828000Y-114349000D02*
X159288000Y-114349000D01*
X157828000Y-117509000D02*
X159988000Y-117509000D01*
X157828000Y-117509000D02*
X157828000Y-116579000D01*
X157828000Y-114349000D02*
X157828000Y-115279000D01*
X174374000Y-108054000D02*
X171924000Y-108054000D01*
X172574000Y-111274000D02*
X174374000Y-111274000D01*
X135286000Y-99910279D02*
X135286000Y-99584721D01*
X134266000Y-99910279D02*
X134266000Y-99584721D01*
X134266000Y-106068721D02*
X134266000Y-106394279D01*
X135286000Y-106068721D02*
X135286000Y-106394279D01*
X141205721Y-97333000D02*
X141531279Y-97333000D01*
X141205721Y-96313000D02*
X141531279Y-96313000D01*
X141170721Y-110045000D02*
X141496279Y-110045000D01*
X141170721Y-109025000D02*
X141496279Y-109025000D01*
X147806000Y-99910279D02*
X147806000Y-99584721D01*
X146786000Y-99910279D02*
X146786000Y-99584721D01*
X154696279Y-102995000D02*
X154370721Y-102995000D01*
X154696279Y-104015000D02*
X154370721Y-104015000D01*
X154696279Y-100963000D02*
X154370721Y-100963000D01*
X154696279Y-101983000D02*
X154370721Y-101983000D01*
X154688279Y-105209000D02*
X154362721Y-105209000D01*
X154688279Y-106229000D02*
X154362721Y-106229000D01*
X142834000Y-125241000D02*
X146284000Y-125241000D01*
X142834000Y-125241000D02*
X140884000Y-125241000D01*
X142834000Y-120121000D02*
X144784000Y-120121000D01*
X142834000Y-120121000D02*
X140884000Y-120121000D01*
X154688279Y-107749000D02*
X154362721Y-107749000D01*
X154688279Y-108769000D02*
X154362721Y-108769000D01*
X171638279Y-98359000D02*
X171312721Y-98359000D01*
X171638279Y-99379000D02*
X171312721Y-99379000D01*
X151950000Y-103251000D02*
G75*
G03X151950000Y-103251000I-950000J0D01*
G01*
X151950000Y-106172000D02*
G75*
G03X151950000Y-106172000I-950000J0D01*
G01*
X151953000Y-100457000D02*
G75*
G03X151953000Y-100457000I-950000J0D01*
G01*
X151950000Y-108966000D02*
G75*
G03X151950000Y-108966000I-950000J0D01*
G01*
X132266000Y-106068721D02*
X132266000Y-106394279D01*
X133286000Y-106068721D02*
X133286000Y-106394279D01*
X169744000Y-109608721D02*
X169744000Y-109934279D01*
X170764000Y-109608721D02*
X170764000Y-109934279D01*
X176274000Y-109598721D02*
X176274000Y-109924279D01*
X177294000Y-109598721D02*
X177294000Y-109924279D01*
X158363000Y-103569279D02*
X158363000Y-103243721D01*
X157343000Y-103569279D02*
X157343000Y-103243721D01*
X157343000Y-106978721D02*
X157343000Y-107304279D01*
X158363000Y-106978721D02*
X158363000Y-107304279D01*
X170495500Y-103367721D02*
X170495500Y-103693279D01*
X171515500Y-103367721D02*
X171515500Y-103693279D01*
X162422721Y-98609000D02*
X162748279Y-98609000D01*
X162422721Y-97589000D02*
X162748279Y-97589000D01*
X171312721Y-101094000D02*
X171638279Y-101094000D01*
X171312721Y-100074000D02*
X171638279Y-100074000D01*
X144670721Y-110045000D02*
X144996279Y-110045000D01*
X144670721Y-109025000D02*
X144996279Y-109025000D01*
D12*
X164338095Y-107783380D02*
X164338095Y-108592904D01*
X164385714Y-108688142D01*
X164433333Y-108735761D01*
X164528571Y-108783380D01*
X164719047Y-108783380D01*
X164814285Y-108735761D01*
X164861904Y-108688142D01*
X164909523Y-108592904D01*
X164909523Y-107783380D01*
X165290476Y-107783380D02*
X165957142Y-107783380D01*
X165528571Y-108783380D01*
X158162666Y-85685380D02*
X158162666Y-86399666D01*
X158115047Y-86542523D01*
X158019809Y-86637761D01*
X157876952Y-86685380D01*
X157781714Y-86685380D01*
X159162666Y-86685380D02*
X158591238Y-86685380D01*
X158876952Y-86685380D02*
X158876952Y-85685380D01*
X158781714Y-85828238D01*
X158686476Y-85923476D01*
X158591238Y-85971095D01*
X132738095Y-81952380D02*
X132738095Y-80952380D01*
X132738095Y-81428571D02*
X133309523Y-81428571D01*
X133309523Y-81952380D02*
X133309523Y-80952380D01*
X134261904Y-80952380D02*
X133785714Y-80952380D01*
X133738095Y-81428571D01*
X133785714Y-81380952D01*
X133880952Y-81333333D01*
X134119047Y-81333333D01*
X134214285Y-81380952D01*
X134261904Y-81428571D01*
X134309523Y-81523809D01*
X134309523Y-81761904D01*
X134261904Y-81857142D01*
X134214285Y-81904761D01*
X134119047Y-81952380D01*
X133880952Y-81952380D01*
X133785714Y-81904761D01*
X133738095Y-81857142D01*
X137738095Y-87252380D02*
X137738095Y-86252380D01*
X137738095Y-86728571D02*
X138309523Y-86728571D01*
X138309523Y-87252380D02*
X138309523Y-86252380D01*
X138928571Y-86680952D02*
X138833333Y-86633333D01*
X138785714Y-86585714D01*
X138738095Y-86490476D01*
X138738095Y-86442857D01*
X138785714Y-86347619D01*
X138833333Y-86300000D01*
X138928571Y-86252380D01*
X139119047Y-86252380D01*
X139214285Y-86300000D01*
X139261904Y-86347619D01*
X139309523Y-86442857D01*
X139309523Y-86490476D01*
X139261904Y-86585714D01*
X139214285Y-86633333D01*
X139119047Y-86680952D01*
X138928571Y-86680952D01*
X138833333Y-86728571D01*
X138785714Y-86776190D01*
X138738095Y-86871428D01*
X138738095Y-87061904D01*
X138785714Y-87157142D01*
X138833333Y-87204761D01*
X138928571Y-87252380D01*
X139119047Y-87252380D01*
X139214285Y-87204761D01*
X139261904Y-87157142D01*
X139309523Y-87061904D01*
X139309523Y-86871428D01*
X139261904Y-86776190D01*
X139214285Y-86728571D01*
X139119047Y-86680952D01*
X145738095Y-87252380D02*
X145738095Y-86252380D01*
X145738095Y-86728571D02*
X146309523Y-86728571D01*
X146309523Y-87252380D02*
X146309523Y-86252380D01*
X146690476Y-86252380D02*
X147357142Y-86252380D01*
X146928571Y-87252380D01*
X156357142Y-95000000D02*
X156261904Y-94952380D01*
X156119047Y-94952380D01*
X155976190Y-95000000D01*
X155880952Y-95095238D01*
X155833333Y-95190476D01*
X155785714Y-95380952D01*
X155785714Y-95523809D01*
X155833333Y-95714285D01*
X155880952Y-95809523D01*
X155976190Y-95904761D01*
X156119047Y-95952380D01*
X156214285Y-95952380D01*
X156357142Y-95904761D01*
X156404761Y-95857142D01*
X156404761Y-95523809D01*
X156214285Y-95523809D01*
X156833333Y-95952380D02*
X156833333Y-94952380D01*
X157214285Y-94952380D01*
X157309523Y-95000000D01*
X157357142Y-95047619D01*
X157404761Y-95142857D01*
X157404761Y-95285714D01*
X157357142Y-95380952D01*
X157309523Y-95428571D01*
X157214285Y-95476190D01*
X156833333Y-95476190D01*
X158404761Y-95857142D02*
X158357142Y-95904761D01*
X158214285Y-95952380D01*
X158119047Y-95952380D01*
X157976190Y-95904761D01*
X157880952Y-95809523D01*
X157833333Y-95714285D01*
X157785714Y-95523809D01*
X157785714Y-95380952D01*
X157833333Y-95190476D01*
X157880952Y-95095238D01*
X157976190Y-95000000D01*
X158119047Y-94952380D01*
X158214285Y-94952380D01*
X158357142Y-95000000D01*
X158404761Y-95047619D01*
X159309523Y-95952380D02*
X158833333Y-95952380D01*
X158833333Y-94952380D01*
X159642857Y-95952380D02*
X159642857Y-94952380D01*
X160214285Y-95952380D02*
X159785714Y-95380952D01*
X160214285Y-94952380D02*
X159642857Y-95523809D01*
X150738095Y-81952380D02*
X150738095Y-80952380D01*
X150738095Y-81428571D02*
X151309523Y-81428571D01*
X151309523Y-81952380D02*
X151309523Y-80952380D01*
X152214285Y-80952380D02*
X152023809Y-80952380D01*
X151928571Y-81000000D01*
X151880952Y-81047619D01*
X151785714Y-81190476D01*
X151738095Y-81380952D01*
X151738095Y-81761904D01*
X151785714Y-81857142D01*
X151833333Y-81904761D01*
X151928571Y-81952380D01*
X152119047Y-81952380D01*
X152214285Y-81904761D01*
X152261904Y-81857142D01*
X152309523Y-81761904D01*
X152309523Y-81523809D01*
X152261904Y-81428571D01*
X152214285Y-81380952D01*
X152119047Y-81333333D01*
X151928571Y-81333333D01*
X151833333Y-81380952D01*
X151785714Y-81428571D01*
X151738095Y-81523809D01*
X141738095Y-115952380D02*
X141738095Y-114952380D01*
X141738095Y-115428571D02*
X142309523Y-115428571D01*
X142309523Y-115952380D02*
X142309523Y-114952380D01*
X143214285Y-115285714D02*
X143214285Y-115952380D01*
X142976190Y-114904761D02*
X142738095Y-115619047D01*
X143357142Y-115619047D01*
X124738095Y-99500000D02*
X124642857Y-99452380D01*
X124500000Y-99452380D01*
X124357142Y-99500000D01*
X124261904Y-99595238D01*
X124214285Y-99690476D01*
X124166666Y-99880952D01*
X124166666Y-100023809D01*
X124214285Y-100214285D01*
X124261904Y-100309523D01*
X124357142Y-100404761D01*
X124500000Y-100452380D01*
X124595238Y-100452380D01*
X124738095Y-100404761D01*
X124785714Y-100357142D01*
X124785714Y-100023809D01*
X124595238Y-100023809D01*
X125214285Y-100452380D02*
X125214285Y-99452380D01*
X125785714Y-100452380D01*
X125785714Y-99452380D01*
X126261904Y-100452380D02*
X126261904Y-99452380D01*
X126500000Y-99452380D01*
X126642857Y-99500000D01*
X126738095Y-99595238D01*
X126785714Y-99690476D01*
X126833333Y-99880952D01*
X126833333Y-100023809D01*
X126785714Y-100214285D01*
X126738095Y-100309523D01*
X126642857Y-100404761D01*
X126500000Y-100452380D01*
X126261904Y-100452380D01*
X174238095Y-121252380D02*
X174238095Y-120252380D01*
X174238095Y-120728571D02*
X174809523Y-120728571D01*
X174809523Y-121252380D02*
X174809523Y-120252380D01*
X175190476Y-120252380D02*
X175809523Y-120252380D01*
X175476190Y-120633333D01*
X175619047Y-120633333D01*
X175714285Y-120680952D01*
X175761904Y-120728571D01*
X175809523Y-120823809D01*
X175809523Y-121061904D01*
X175761904Y-121157142D01*
X175714285Y-121204761D01*
X175619047Y-121252380D01*
X175333333Y-121252380D01*
X175238095Y-121204761D01*
X175190476Y-121157142D01*
X119238095Y-121252380D02*
X119238095Y-120252380D01*
X119238095Y-120728571D02*
X119809523Y-120728571D01*
X119809523Y-121252380D02*
X119809523Y-120252380D01*
X120238095Y-120347619D02*
X120285714Y-120300000D01*
X120380952Y-120252380D01*
X120619047Y-120252380D01*
X120714285Y-120300000D01*
X120761904Y-120347619D01*
X120809523Y-120442857D01*
X120809523Y-120538095D01*
X120761904Y-120680952D01*
X120190476Y-121252380D01*
X120809523Y-121252380D01*
X159193142Y-101561357D02*
X159240761Y-101608976D01*
X159288380Y-101751833D01*
X159288380Y-101847071D01*
X159240761Y-101989928D01*
X159145523Y-102085166D01*
X159050285Y-102132785D01*
X158859809Y-102180404D01*
X158716952Y-102180404D01*
X158526476Y-102132785D01*
X158431238Y-102085166D01*
X158336000Y-101989928D01*
X158288380Y-101847071D01*
X158288380Y-101751833D01*
X158336000Y-101608976D01*
X158383619Y-101561357D01*
X159288380Y-100608976D02*
X159288380Y-101180404D01*
X159288380Y-100894690D02*
X158288380Y-100894690D01*
X158431238Y-100989928D01*
X158526476Y-101085166D01*
X158574095Y-101180404D01*
X158621714Y-99751833D02*
X159288380Y-99751833D01*
X158240761Y-99989928D02*
X158955047Y-100228023D01*
X158955047Y-99608976D01*
X168404761Y-97190476D02*
X168452380Y-97047619D01*
X168452380Y-96809523D01*
X168404761Y-96714285D01*
X168357142Y-96666666D01*
X168261904Y-96619047D01*
X168166666Y-96619047D01*
X168071428Y-96666666D01*
X168023809Y-96714285D01*
X167976190Y-96809523D01*
X167928571Y-97000000D01*
X167880952Y-97095238D01*
X167833333Y-97142857D01*
X167738095Y-97190476D01*
X167642857Y-97190476D01*
X167547619Y-97142857D01*
X167500000Y-97095238D01*
X167452380Y-97000000D01*
X167452380Y-96761904D01*
X167500000Y-96619047D01*
X168357142Y-95619047D02*
X168404761Y-95666666D01*
X168452380Y-95809523D01*
X168452380Y-95904761D01*
X168404761Y-96047619D01*
X168309523Y-96142857D01*
X168214285Y-96190476D01*
X168023809Y-96238095D01*
X167880952Y-96238095D01*
X167690476Y-96190476D01*
X167595238Y-96142857D01*
X167500000Y-96047619D01*
X167452380Y-95904761D01*
X167452380Y-95809523D01*
X167500000Y-95666666D01*
X167547619Y-95619047D01*
X168452380Y-94714285D02*
X168452380Y-95190476D01*
X167452380Y-95190476D01*
X168452380Y-94380952D02*
X167452380Y-94380952D01*
X168452380Y-93809523D02*
X167880952Y-94238095D01*
X167452380Y-93809523D02*
X168023809Y-94380952D01*
X136332833Y-120974142D02*
X136285214Y-121021761D01*
X136142357Y-121069380D01*
X136047119Y-121069380D01*
X135904261Y-121021761D01*
X135809023Y-120926523D01*
X135761404Y-120831285D01*
X135713785Y-120640809D01*
X135713785Y-120497952D01*
X135761404Y-120307476D01*
X135809023Y-120212238D01*
X135904261Y-120117000D01*
X136047119Y-120069380D01*
X136142357Y-120069380D01*
X136285214Y-120117000D01*
X136332833Y-120164619D01*
X136713785Y-120164619D02*
X136761404Y-120117000D01*
X136856642Y-120069380D01*
X137094738Y-120069380D01*
X137189976Y-120117000D01*
X137237595Y-120164619D01*
X137285214Y-120259857D01*
X137285214Y-120355095D01*
X137237595Y-120497952D01*
X136666166Y-121069380D01*
X137285214Y-121069380D01*
X156378833Y-127476142D02*
X156331214Y-127523761D01*
X156188357Y-127571380D01*
X156093119Y-127571380D01*
X155950261Y-127523761D01*
X155855023Y-127428523D01*
X155807404Y-127333285D01*
X155759785Y-127142809D01*
X155759785Y-126999952D01*
X155807404Y-126809476D01*
X155855023Y-126714238D01*
X155950261Y-126619000D01*
X156093119Y-126571380D01*
X156188357Y-126571380D01*
X156331214Y-126619000D01*
X156378833Y-126666619D01*
X156712166Y-126571380D02*
X157331214Y-126571380D01*
X156997880Y-126952333D01*
X157140738Y-126952333D01*
X157235976Y-126999952D01*
X157283595Y-127047571D01*
X157331214Y-127142809D01*
X157331214Y-127380904D01*
X157283595Y-127476142D01*
X157235976Y-127523761D01*
X157140738Y-127571380D01*
X156855023Y-127571380D01*
X156759785Y-127523761D01*
X156712166Y-127476142D01*
X139279333Y-125895380D02*
X138946000Y-125419190D01*
X138707904Y-125895380D02*
X138707904Y-124895380D01*
X139088857Y-124895380D01*
X139184095Y-124943000D01*
X139231714Y-124990619D01*
X139279333Y-125085857D01*
X139279333Y-125228714D01*
X139231714Y-125323952D01*
X139184095Y-125371571D01*
X139088857Y-125419190D01*
X138707904Y-125419190D01*
X140231714Y-125895380D02*
X139660285Y-125895380D01*
X139946000Y-125895380D02*
X139946000Y-124895380D01*
X139850761Y-125038238D01*
X139755523Y-125133476D01*
X139660285Y-125181095D01*
X136309380Y-124779166D02*
X135833190Y-125112500D01*
X136309380Y-125350595D02*
X135309380Y-125350595D01*
X135309380Y-124969642D01*
X135357000Y-124874404D01*
X135404619Y-124826785D01*
X135499857Y-124779166D01*
X135642714Y-124779166D01*
X135737952Y-124826785D01*
X135785571Y-124874404D01*
X135833190Y-124969642D01*
X135833190Y-125350595D01*
X135404619Y-124398214D02*
X135357000Y-124350595D01*
X135309380Y-124255357D01*
X135309380Y-124017261D01*
X135357000Y-123922023D01*
X135404619Y-123874404D01*
X135499857Y-123826785D01*
X135595095Y-123826785D01*
X135737952Y-123874404D01*
X136309380Y-124445833D01*
X136309380Y-123826785D01*
X160878833Y-119046142D02*
X160831214Y-119093761D01*
X160688357Y-119141380D01*
X160593119Y-119141380D01*
X160450261Y-119093761D01*
X160355023Y-118998523D01*
X160307404Y-118903285D01*
X160259785Y-118712809D01*
X160259785Y-118569952D01*
X160307404Y-118379476D01*
X160355023Y-118284238D01*
X160450261Y-118189000D01*
X160593119Y-118141380D01*
X160688357Y-118141380D01*
X160831214Y-118189000D01*
X160878833Y-118236619D01*
X161831214Y-119141380D02*
X161259785Y-119141380D01*
X161545500Y-119141380D02*
X161545500Y-118141380D01*
X161450261Y-118284238D01*
X161355023Y-118379476D01*
X161259785Y-118427095D01*
X170508833Y-115591380D02*
X170175500Y-115115190D01*
X169937404Y-115591380D02*
X169937404Y-114591380D01*
X170318357Y-114591380D01*
X170413595Y-114639000D01*
X170461214Y-114686619D01*
X170508833Y-114781857D01*
X170508833Y-114924714D01*
X170461214Y-115019952D01*
X170413595Y-115067571D01*
X170318357Y-115115190D01*
X169937404Y-115115190D01*
X171413595Y-114591380D02*
X170937404Y-114591380D01*
X170889785Y-115067571D01*
X170937404Y-115019952D01*
X171032642Y-114972333D01*
X171270738Y-114972333D01*
X171365976Y-115019952D01*
X171413595Y-115067571D01*
X171461214Y-115162809D01*
X171461214Y-115400904D01*
X171413595Y-115496142D01*
X171365976Y-115543761D01*
X171270738Y-115591380D01*
X171032642Y-115591380D01*
X170937404Y-115543761D01*
X170889785Y-115496142D01*
X154091333Y-125001380D02*
X153758000Y-124525190D01*
X153519904Y-125001380D02*
X153519904Y-124001380D01*
X153900857Y-124001380D01*
X153996095Y-124049000D01*
X154043714Y-124096619D01*
X154091333Y-124191857D01*
X154091333Y-124334714D01*
X154043714Y-124429952D01*
X153996095Y-124477571D01*
X153900857Y-124525190D01*
X153519904Y-124525190D01*
X154424666Y-124001380D02*
X155043714Y-124001380D01*
X154710380Y-124382333D01*
X154853238Y-124382333D01*
X154948476Y-124429952D01*
X154996095Y-124477571D01*
X155043714Y-124572809D01*
X155043714Y-124810904D01*
X154996095Y-124906142D01*
X154948476Y-124953761D01*
X154853238Y-125001380D01*
X154567523Y-125001380D01*
X154472285Y-124953761D01*
X154424666Y-124906142D01*
X153378833Y-123001380D02*
X153045500Y-122525190D01*
X152807404Y-123001380D02*
X152807404Y-122001380D01*
X153188357Y-122001380D01*
X153283595Y-122049000D01*
X153331214Y-122096619D01*
X153378833Y-122191857D01*
X153378833Y-122334714D01*
X153331214Y-122429952D01*
X153283595Y-122477571D01*
X153188357Y-122525190D01*
X152807404Y-122525190D01*
X154235976Y-122334714D02*
X154235976Y-123001380D01*
X153997880Y-121953761D02*
X153759785Y-122668047D01*
X154378833Y-122668047D01*
X159666333Y-127476142D02*
X159618714Y-127523761D01*
X159475857Y-127571380D01*
X159380619Y-127571380D01*
X159237761Y-127523761D01*
X159142523Y-127428523D01*
X159094904Y-127333285D01*
X159047285Y-127142809D01*
X159047285Y-126999952D01*
X159094904Y-126809476D01*
X159142523Y-126714238D01*
X159237761Y-126619000D01*
X159380619Y-126571380D01*
X159475857Y-126571380D01*
X159618714Y-126619000D01*
X159666333Y-126666619D01*
X160523476Y-126904714D02*
X160523476Y-127571380D01*
X160285380Y-126523761D02*
X160047285Y-127238047D01*
X160666333Y-127238047D01*
X169440142Y-114870166D02*
X169487761Y-114917785D01*
X169535380Y-115060642D01*
X169535380Y-115155880D01*
X169487761Y-115298738D01*
X169392523Y-115393976D01*
X169297285Y-115441595D01*
X169106809Y-115489214D01*
X168963952Y-115489214D01*
X168773476Y-115441595D01*
X168678238Y-115393976D01*
X168583000Y-115298738D01*
X168535380Y-115155880D01*
X168535380Y-115060642D01*
X168583000Y-114917785D01*
X168630619Y-114870166D01*
X168535380Y-113965404D02*
X168535380Y-114441595D01*
X169011571Y-114489214D01*
X168963952Y-114441595D01*
X168916333Y-114346357D01*
X168916333Y-114108261D01*
X168963952Y-114013023D01*
X169011571Y-113965404D01*
X169106809Y-113917785D01*
X169344904Y-113917785D01*
X169440142Y-113965404D01*
X169487761Y-114013023D01*
X169535380Y-114108261D01*
X169535380Y-114346357D01*
X169487761Y-114441595D01*
X169440142Y-114489214D01*
X159219333Y-116037642D02*
X159171714Y-116085261D01*
X159028857Y-116132880D01*
X158933619Y-116132880D01*
X158790761Y-116085261D01*
X158695523Y-115990023D01*
X158647904Y-115894785D01*
X158600285Y-115704309D01*
X158600285Y-115561452D01*
X158647904Y-115370976D01*
X158695523Y-115275738D01*
X158790761Y-115180500D01*
X158933619Y-115132880D01*
X159028857Y-115132880D01*
X159171714Y-115180500D01*
X159219333Y-115228119D01*
X160076476Y-115132880D02*
X159886000Y-115132880D01*
X159790761Y-115180500D01*
X159743142Y-115228119D01*
X159647904Y-115370976D01*
X159600285Y-115561452D01*
X159600285Y-115942404D01*
X159647904Y-116037642D01*
X159695523Y-116085261D01*
X159790761Y-116132880D01*
X159981238Y-116132880D01*
X160076476Y-116085261D01*
X160124095Y-116037642D01*
X160171714Y-115942404D01*
X160171714Y-115704309D01*
X160124095Y-115609071D01*
X160076476Y-115561452D01*
X159981238Y-115513833D01*
X159790761Y-115513833D01*
X159695523Y-115561452D01*
X159647904Y-115609071D01*
X159600285Y-115704309D01*
X167235380Y-123235666D02*
X167235380Y-123711857D01*
X166235380Y-123711857D01*
X167235380Y-122378523D02*
X167235380Y-122949952D01*
X167235380Y-122664238D02*
X166235380Y-122664238D01*
X166378238Y-122759476D01*
X166473476Y-122854714D01*
X166521095Y-122949952D01*
X143383095Y-96734380D02*
X143383095Y-97543904D01*
X143430714Y-97639142D01*
X143478333Y-97686761D01*
X143573571Y-97734380D01*
X143764047Y-97734380D01*
X143859285Y-97686761D01*
X143906904Y-97639142D01*
X143954523Y-97543904D01*
X143954523Y-96734380D01*
X144906904Y-96734380D02*
X144430714Y-96734380D01*
X144383095Y-97210571D01*
X144430714Y-97162952D01*
X144525952Y-97115333D01*
X144764047Y-97115333D01*
X144859285Y-97162952D01*
X144906904Y-97210571D01*
X144954523Y-97305809D01*
X144954523Y-97543904D01*
X144906904Y-97639142D01*
X144859285Y-97686761D01*
X144764047Y-97734380D01*
X144525952Y-97734380D01*
X144430714Y-97686761D01*
X144383095Y-97639142D01*
X135088142Y-103114166D02*
X135135761Y-103161785D01*
X135183380Y-103304642D01*
X135183380Y-103399880D01*
X135135761Y-103542738D01*
X135040523Y-103637976D01*
X134945285Y-103685595D01*
X134754809Y-103733214D01*
X134611952Y-103733214D01*
X134421476Y-103685595D01*
X134326238Y-103637976D01*
X134231000Y-103542738D01*
X134183380Y-103399880D01*
X134183380Y-103304642D01*
X134231000Y-103161785D01*
X134278619Y-103114166D01*
X134183380Y-102780833D02*
X134183380Y-102114166D01*
X135183380Y-102542738D01*
X131703142Y-99914166D02*
X131750761Y-99961785D01*
X131798380Y-100104642D01*
X131798380Y-100199880D01*
X131750761Y-100342738D01*
X131655523Y-100437976D01*
X131560285Y-100485595D01*
X131369809Y-100533214D01*
X131226952Y-100533214D01*
X131036476Y-100485595D01*
X130941238Y-100437976D01*
X130846000Y-100342738D01*
X130798380Y-100199880D01*
X130798380Y-100104642D01*
X130846000Y-99961785D01*
X130893619Y-99914166D01*
X131226952Y-99342738D02*
X131179333Y-99437976D01*
X131131714Y-99485595D01*
X131036476Y-99533214D01*
X130988857Y-99533214D01*
X130893619Y-99485595D01*
X130846000Y-99437976D01*
X130798380Y-99342738D01*
X130798380Y-99152261D01*
X130846000Y-99057023D01*
X130893619Y-99009404D01*
X130988857Y-98961785D01*
X131036476Y-98961785D01*
X131131714Y-99009404D01*
X131179333Y-99057023D01*
X131226952Y-99152261D01*
X131226952Y-99342738D01*
X131274571Y-99437976D01*
X131322190Y-99485595D01*
X131417428Y-99533214D01*
X131607904Y-99533214D01*
X131703142Y-99485595D01*
X131750761Y-99437976D01*
X131798380Y-99342738D01*
X131798380Y-99152261D01*
X131750761Y-99057023D01*
X131703142Y-99009404D01*
X131607904Y-98961785D01*
X131417428Y-98961785D01*
X131322190Y-99009404D01*
X131274571Y-99057023D01*
X131226952Y-99152261D01*
X163428571Y-97452380D02*
X163428571Y-96452380D01*
X163761904Y-97166666D01*
X164095238Y-96452380D01*
X164095238Y-97452380D01*
X164571428Y-97452380D02*
X164571428Y-96452380D01*
X165000000Y-97404761D02*
X165142857Y-97452380D01*
X165380952Y-97452380D01*
X165476190Y-97404761D01*
X165523809Y-97357142D01*
X165571428Y-97261904D01*
X165571428Y-97166666D01*
X165523809Y-97071428D01*
X165476190Y-97023809D01*
X165380952Y-96976190D01*
X165190476Y-96928571D01*
X165095238Y-96880952D01*
X165047619Y-96833333D01*
X165000000Y-96738095D01*
X165000000Y-96642857D01*
X165047619Y-96547619D01*
X165095238Y-96500000D01*
X165190476Y-96452380D01*
X165428571Y-96452380D01*
X165571428Y-96500000D01*
X166190476Y-96452380D02*
X166380952Y-96452380D01*
X166476190Y-96500000D01*
X166571428Y-96595238D01*
X166619047Y-96785714D01*
X166619047Y-97119047D01*
X166571428Y-97309523D01*
X166476190Y-97404761D01*
X166380952Y-97452380D01*
X166190476Y-97452380D01*
X166095238Y-97404761D01*
X166000000Y-97309523D01*
X165952380Y-97119047D01*
X165952380Y-96785714D01*
X166000000Y-96595238D01*
X166095238Y-96500000D01*
X166190476Y-96452380D01*
X171071428Y-94585000D02*
X172071428Y-94585000D01*
X171309523Y-95952380D02*
X171309523Y-94952380D01*
X171547619Y-94952380D01*
X171690476Y-95000000D01*
X171785714Y-95095238D01*
X171833333Y-95190476D01*
X171880952Y-95380952D01*
X171880952Y-95523809D01*
X171833333Y-95714285D01*
X171785714Y-95809523D01*
X171690476Y-95904761D01*
X171547619Y-95952380D01*
X171309523Y-95952380D01*
X172071428Y-94585000D02*
X173071428Y-94585000D01*
X172880952Y-95952380D02*
X172547619Y-95476190D01*
X172309523Y-95952380D02*
X172309523Y-94952380D01*
X172690476Y-94952380D01*
X172785714Y-95000000D01*
X172833333Y-95047619D01*
X172880952Y-95142857D01*
X172880952Y-95285714D01*
X172833333Y-95380952D01*
X172785714Y-95428571D01*
X172690476Y-95476190D01*
X172309523Y-95476190D01*
X173071428Y-94585000D02*
X174071428Y-94585000D01*
X173309523Y-95952380D02*
X173309523Y-94952380D01*
X173547619Y-94952380D01*
X173690476Y-95000000D01*
X173785714Y-95095238D01*
X173833333Y-95190476D01*
X173880952Y-95380952D01*
X173880952Y-95523809D01*
X173833333Y-95714285D01*
X173785714Y-95809523D01*
X173690476Y-95904761D01*
X173547619Y-95952380D01*
X173309523Y-95952380D01*
X174071428Y-94585000D02*
X174928571Y-94585000D01*
X174500000Y-95476190D02*
X174500000Y-95952380D01*
X174166666Y-94952380D02*
X174500000Y-95476190D01*
X174833333Y-94952380D01*
X159428571Y-93452380D02*
X159428571Y-92452380D01*
X159761904Y-93166666D01*
X160095238Y-92452380D01*
X160095238Y-93452380D01*
X160761904Y-92452380D02*
X160952380Y-92452380D01*
X161047619Y-92500000D01*
X161142857Y-92595238D01*
X161190476Y-92785714D01*
X161190476Y-93119047D01*
X161142857Y-93309523D01*
X161047619Y-93404761D01*
X160952380Y-93452380D01*
X160761904Y-93452380D01*
X160666666Y-93404761D01*
X160571428Y-93309523D01*
X160523809Y-93119047D01*
X160523809Y-92785714D01*
X160571428Y-92595238D01*
X160666666Y-92500000D01*
X160761904Y-92452380D01*
X161571428Y-93404761D02*
X161714285Y-93452380D01*
X161952380Y-93452380D01*
X162047619Y-93404761D01*
X162095238Y-93357142D01*
X162142857Y-93261904D01*
X162142857Y-93166666D01*
X162095238Y-93071428D01*
X162047619Y-93023809D01*
X161952380Y-92976190D01*
X161761904Y-92928571D01*
X161666666Y-92880952D01*
X161619047Y-92833333D01*
X161571428Y-92738095D01*
X161571428Y-92642857D01*
X161619047Y-92547619D01*
X161666666Y-92500000D01*
X161761904Y-92452380D01*
X162000000Y-92452380D01*
X162142857Y-92500000D01*
X162571428Y-93452380D02*
X162571428Y-92452380D01*
X173523809Y-92085000D02*
X174523809Y-92085000D01*
X174333333Y-93357142D02*
X174285714Y-93404761D01*
X174142857Y-93452380D01*
X174047619Y-93452380D01*
X173904761Y-93404761D01*
X173809523Y-93309523D01*
X173761904Y-93214285D01*
X173714285Y-93023809D01*
X173714285Y-92880952D01*
X173761904Y-92690476D01*
X173809523Y-92595238D01*
X173904761Y-92500000D01*
X174047619Y-92452380D01*
X174142857Y-92452380D01*
X174285714Y-92500000D01*
X174333333Y-92547619D01*
X174523809Y-92085000D02*
X175476190Y-92085000D01*
X174714285Y-93404761D02*
X174857142Y-93452380D01*
X175095238Y-93452380D01*
X175190476Y-93404761D01*
X175238095Y-93357142D01*
X175285714Y-93261904D01*
X175285714Y-93166666D01*
X175238095Y-93071428D01*
X175190476Y-93023809D01*
X175095238Y-92976190D01*
X174904761Y-92928571D01*
X174809523Y-92880952D01*
X174761904Y-92833333D01*
X174714285Y-92738095D01*
X174714285Y-92642857D01*
X174761904Y-92547619D01*
X174809523Y-92500000D01*
X174904761Y-92452380D01*
X175142857Y-92452380D01*
X175285714Y-92500000D01*
X158266095Y-119651380D02*
X158266095Y-120460904D01*
X158313714Y-120556142D01*
X158361333Y-120603761D01*
X158456571Y-120651380D01*
X158647047Y-120651380D01*
X158742285Y-120603761D01*
X158789904Y-120556142D01*
X158837523Y-120460904D01*
X158837523Y-119651380D01*
X159837523Y-120651380D02*
X159266095Y-120651380D01*
X159551809Y-120651380D02*
X159551809Y-119651380D01*
X159456571Y-119794238D01*
X159361333Y-119889476D01*
X159266095Y-119937095D01*
X163986095Y-116765380D02*
X163986095Y-117574904D01*
X164033714Y-117670142D01*
X164081333Y-117717761D01*
X164176571Y-117765380D01*
X164367047Y-117765380D01*
X164462285Y-117717761D01*
X164509904Y-117670142D01*
X164557523Y-117574904D01*
X164557523Y-116765380D01*
X164938476Y-116765380D02*
X165557523Y-116765380D01*
X165224190Y-117146333D01*
X165367047Y-117146333D01*
X165462285Y-117193952D01*
X165509904Y-117241571D01*
X165557523Y-117336809D01*
X165557523Y-117574904D01*
X165509904Y-117670142D01*
X165462285Y-117717761D01*
X165367047Y-117765380D01*
X165081333Y-117765380D01*
X164986095Y-117717761D01*
X164938476Y-117670142D01*
X157826095Y-117881380D02*
X157826095Y-118690904D01*
X157873714Y-118786142D01*
X157921333Y-118833761D01*
X158016571Y-118881380D01*
X158207047Y-118881380D01*
X158302285Y-118833761D01*
X158349904Y-118786142D01*
X158397523Y-118690904D01*
X158397523Y-117881380D01*
X159302285Y-118214714D02*
X159302285Y-118881380D01*
X159064190Y-117833761D02*
X158826095Y-118548047D01*
X159445142Y-118548047D01*
X172712095Y-106216380D02*
X172712095Y-107025904D01*
X172759714Y-107121142D01*
X172807333Y-107168761D01*
X172902571Y-107216380D01*
X173093047Y-107216380D01*
X173188285Y-107168761D01*
X173235904Y-107121142D01*
X173283523Y-107025904D01*
X173283523Y-106216380D01*
X174188285Y-106216380D02*
X173997809Y-106216380D01*
X173902571Y-106264000D01*
X173854952Y-106311619D01*
X173759714Y-106454476D01*
X173712095Y-106644952D01*
X173712095Y-107025904D01*
X173759714Y-107121142D01*
X173807333Y-107168761D01*
X173902571Y-107216380D01*
X174093047Y-107216380D01*
X174188285Y-107168761D01*
X174235904Y-107121142D01*
X174283523Y-107025904D01*
X174283523Y-106787809D01*
X174235904Y-106692571D01*
X174188285Y-106644952D01*
X174093047Y-106597333D01*
X173902571Y-106597333D01*
X173807333Y-106644952D01*
X173759714Y-106692571D01*
X173712095Y-106787809D01*
X134707333Y-97861380D02*
X134374000Y-97385190D01*
X134135904Y-97861380D02*
X134135904Y-96861380D01*
X134516857Y-96861380D01*
X134612095Y-96909000D01*
X134659714Y-96956619D01*
X134707333Y-97051857D01*
X134707333Y-97194714D01*
X134659714Y-97289952D01*
X134612095Y-97337571D01*
X134516857Y-97385190D01*
X134135904Y-97385190D01*
X135564476Y-96861380D02*
X135374000Y-96861380D01*
X135278761Y-96909000D01*
X135231142Y-96956619D01*
X135135904Y-97099476D01*
X135088285Y-97289952D01*
X135088285Y-97670904D01*
X135135904Y-97766142D01*
X135183523Y-97813761D01*
X135278761Y-97861380D01*
X135469238Y-97861380D01*
X135564476Y-97813761D01*
X135612095Y-97766142D01*
X135659714Y-97670904D01*
X135659714Y-97432809D01*
X135612095Y-97337571D01*
X135564476Y-97289952D01*
X135469238Y-97242333D01*
X135278761Y-97242333D01*
X135183523Y-97289952D01*
X135135904Y-97337571D01*
X135088285Y-97432809D01*
X136658380Y-106398166D02*
X136182190Y-106731500D01*
X136658380Y-106969595D02*
X135658380Y-106969595D01*
X135658380Y-106588642D01*
X135706000Y-106493404D01*
X135753619Y-106445785D01*
X135848857Y-106398166D01*
X135991714Y-106398166D01*
X136086952Y-106445785D01*
X136134571Y-106493404D01*
X136182190Y-106588642D01*
X136182190Y-106969595D01*
X135658380Y-106064833D02*
X135658380Y-105398166D01*
X136658380Y-105826738D01*
X141201833Y-95845380D02*
X140868500Y-95369190D01*
X140630404Y-95845380D02*
X140630404Y-94845380D01*
X141011357Y-94845380D01*
X141106595Y-94893000D01*
X141154214Y-94940619D01*
X141201833Y-95035857D01*
X141201833Y-95178714D01*
X141154214Y-95273952D01*
X141106595Y-95321571D01*
X141011357Y-95369190D01*
X140630404Y-95369190D01*
X141773261Y-95273952D02*
X141678023Y-95226333D01*
X141630404Y-95178714D01*
X141582785Y-95083476D01*
X141582785Y-95035857D01*
X141630404Y-94940619D01*
X141678023Y-94893000D01*
X141773261Y-94845380D01*
X141963738Y-94845380D01*
X142058976Y-94893000D01*
X142106595Y-94940619D01*
X142154214Y-95035857D01*
X142154214Y-95083476D01*
X142106595Y-95178714D01*
X142058976Y-95226333D01*
X141963738Y-95273952D01*
X141773261Y-95273952D01*
X141678023Y-95321571D01*
X141630404Y-95369190D01*
X141582785Y-95464428D01*
X141582785Y-95654904D01*
X141630404Y-95750142D01*
X141678023Y-95797761D01*
X141773261Y-95845380D01*
X141963738Y-95845380D01*
X142058976Y-95797761D01*
X142106595Y-95750142D01*
X142154214Y-95654904D01*
X142154214Y-95464428D01*
X142106595Y-95369190D01*
X142058976Y-95321571D01*
X141963738Y-95273952D01*
X138833333Y-110452380D02*
X138500000Y-109976190D01*
X138261904Y-110452380D02*
X138261904Y-109452380D01*
X138642857Y-109452380D01*
X138738095Y-109500000D01*
X138785714Y-109547619D01*
X138833333Y-109642857D01*
X138833333Y-109785714D01*
X138785714Y-109880952D01*
X138738095Y-109928571D01*
X138642857Y-109976190D01*
X138261904Y-109976190D01*
X139309523Y-110452380D02*
X139500000Y-110452380D01*
X139595238Y-110404761D01*
X139642857Y-110357142D01*
X139738095Y-110214285D01*
X139785714Y-110023809D01*
X139785714Y-109642857D01*
X139738095Y-109547619D01*
X139690476Y-109500000D01*
X139595238Y-109452380D01*
X139404761Y-109452380D01*
X139309523Y-109500000D01*
X139261904Y-109547619D01*
X139214285Y-109642857D01*
X139214285Y-109880952D01*
X139261904Y-109976190D01*
X139309523Y-110023809D01*
X139404761Y-110071428D01*
X139595238Y-110071428D01*
X139690476Y-110023809D01*
X139738095Y-109976190D01*
X139785714Y-109880952D01*
X146452380Y-100142857D02*
X145976190Y-100476190D01*
X146452380Y-100714285D02*
X145452380Y-100714285D01*
X145452380Y-100333333D01*
X145500000Y-100238095D01*
X145547619Y-100190476D01*
X145642857Y-100142857D01*
X145785714Y-100142857D01*
X145880952Y-100190476D01*
X145928571Y-100238095D01*
X145976190Y-100333333D01*
X145976190Y-100714285D01*
X146452380Y-99190476D02*
X146452380Y-99761904D01*
X146452380Y-99476190D02*
X145452380Y-99476190D01*
X145595238Y-99571428D01*
X145690476Y-99666666D01*
X145738095Y-99761904D01*
X145452380Y-98571428D02*
X145452380Y-98476190D01*
X145500000Y-98380952D01*
X145547619Y-98333333D01*
X145642857Y-98285714D01*
X145833333Y-98238095D01*
X146071428Y-98238095D01*
X146261904Y-98285714D01*
X146357142Y-98333333D01*
X146404761Y-98380952D01*
X146452380Y-98476190D01*
X146452380Y-98571428D01*
X146404761Y-98666666D01*
X146357142Y-98714285D01*
X146261904Y-98761904D01*
X146071428Y-98809523D01*
X145833333Y-98809523D01*
X145642857Y-98761904D01*
X145547619Y-98714285D01*
X145500000Y-98666666D01*
X145452380Y-98571428D01*
X153890642Y-105387380D02*
X153557309Y-104911190D01*
X153319214Y-105387380D02*
X153319214Y-104387380D01*
X153700166Y-104387380D01*
X153795404Y-104435000D01*
X153843023Y-104482619D01*
X153890642Y-104577857D01*
X153890642Y-104720714D01*
X153843023Y-104815952D01*
X153795404Y-104863571D01*
X153700166Y-104911190D01*
X153319214Y-104911190D01*
X154843023Y-105387380D02*
X154271595Y-105387380D01*
X154557309Y-105387380D02*
X154557309Y-104387380D01*
X154462071Y-104530238D01*
X154366833Y-104625476D01*
X154271595Y-104673095D01*
X155223976Y-104482619D02*
X155271595Y-104435000D01*
X155366833Y-104387380D01*
X155604928Y-104387380D01*
X155700166Y-104435000D01*
X155747785Y-104482619D01*
X155795404Y-104577857D01*
X155795404Y-104673095D01*
X155747785Y-104815952D01*
X155176357Y-105387380D01*
X155795404Y-105387380D01*
X153890642Y-100528380D02*
X153557309Y-100052190D01*
X153319214Y-100528380D02*
X153319214Y-99528380D01*
X153700166Y-99528380D01*
X153795404Y-99576000D01*
X153843023Y-99623619D01*
X153890642Y-99718857D01*
X153890642Y-99861714D01*
X153843023Y-99956952D01*
X153795404Y-100004571D01*
X153700166Y-100052190D01*
X153319214Y-100052190D01*
X154843023Y-100528380D02*
X154271595Y-100528380D01*
X154557309Y-100528380D02*
X154557309Y-99528380D01*
X154462071Y-99671238D01*
X154366833Y-99766476D01*
X154271595Y-99814095D01*
X155176357Y-99528380D02*
X155795404Y-99528380D01*
X155462071Y-99909333D01*
X155604928Y-99909333D01*
X155700166Y-99956952D01*
X155747785Y-100004571D01*
X155795404Y-100099809D01*
X155795404Y-100337904D01*
X155747785Y-100433142D01*
X155700166Y-100480761D01*
X155604928Y-100528380D01*
X155319214Y-100528380D01*
X155223976Y-100480761D01*
X155176357Y-100433142D01*
X153882642Y-107601380D02*
X153549309Y-107125190D01*
X153311214Y-107601380D02*
X153311214Y-106601380D01*
X153692166Y-106601380D01*
X153787404Y-106649000D01*
X153835023Y-106696619D01*
X153882642Y-106791857D01*
X153882642Y-106934714D01*
X153835023Y-107029952D01*
X153787404Y-107077571D01*
X153692166Y-107125190D01*
X153311214Y-107125190D01*
X154835023Y-107601380D02*
X154263595Y-107601380D01*
X154549309Y-107601380D02*
X154549309Y-106601380D01*
X154454071Y-106744238D01*
X154358833Y-106839476D01*
X154263595Y-106887095D01*
X155692166Y-106934714D02*
X155692166Y-107601380D01*
X155454071Y-106553761D02*
X155215976Y-107268047D01*
X155835023Y-107268047D01*
X142072095Y-125533380D02*
X142072095Y-126342904D01*
X142119714Y-126438142D01*
X142167333Y-126485761D01*
X142262571Y-126533380D01*
X142453047Y-126533380D01*
X142548285Y-126485761D01*
X142595904Y-126438142D01*
X142643523Y-126342904D01*
X142643523Y-125533380D01*
X143072095Y-125628619D02*
X143119714Y-125581000D01*
X143214952Y-125533380D01*
X143453047Y-125533380D01*
X143548285Y-125581000D01*
X143595904Y-125628619D01*
X143643523Y-125723857D01*
X143643523Y-125819095D01*
X143595904Y-125961952D01*
X143024476Y-126533380D01*
X143643523Y-126533380D01*
X153882642Y-110141380D02*
X153549309Y-109665190D01*
X153311214Y-110141380D02*
X153311214Y-109141380D01*
X153692166Y-109141380D01*
X153787404Y-109189000D01*
X153835023Y-109236619D01*
X153882642Y-109331857D01*
X153882642Y-109474714D01*
X153835023Y-109569952D01*
X153787404Y-109617571D01*
X153692166Y-109665190D01*
X153311214Y-109665190D01*
X154835023Y-110141380D02*
X154263595Y-110141380D01*
X154549309Y-110141380D02*
X154549309Y-109141380D01*
X154454071Y-109284238D01*
X154358833Y-109379476D01*
X154263595Y-109427095D01*
X155739785Y-109141380D02*
X155263595Y-109141380D01*
X155215976Y-109617571D01*
X155263595Y-109569952D01*
X155358833Y-109522333D01*
X155596928Y-109522333D01*
X155692166Y-109569952D01*
X155739785Y-109617571D01*
X155787404Y-109712809D01*
X155787404Y-109950904D01*
X155739785Y-110046142D01*
X155692166Y-110093761D01*
X155596928Y-110141380D01*
X155358833Y-110141380D01*
X155263595Y-110093761D01*
X155215976Y-110046142D01*
X170832642Y-97821380D02*
X170499309Y-97345190D01*
X170261214Y-97821380D02*
X170261214Y-96821380D01*
X170642166Y-96821380D01*
X170737404Y-96869000D01*
X170785023Y-96916619D01*
X170832642Y-97011857D01*
X170832642Y-97154714D01*
X170785023Y-97249952D01*
X170737404Y-97297571D01*
X170642166Y-97345190D01*
X170261214Y-97345190D01*
X171785023Y-97821380D02*
X171213595Y-97821380D01*
X171499309Y-97821380D02*
X171499309Y-96821380D01*
X171404071Y-96964238D01*
X171308833Y-97059476D01*
X171213595Y-97107095D01*
X172642166Y-96821380D02*
X172451690Y-96821380D01*
X172356452Y-96869000D01*
X172308833Y-96916619D01*
X172213595Y-97059476D01*
X172165976Y-97249952D01*
X172165976Y-97630904D01*
X172213595Y-97726142D01*
X172261214Y-97773761D01*
X172356452Y-97821380D01*
X172546928Y-97821380D01*
X172642166Y-97773761D01*
X172689785Y-97726142D01*
X172737404Y-97630904D01*
X172737404Y-97392809D01*
X172689785Y-97297571D01*
X172642166Y-97249952D01*
X172546928Y-97202333D01*
X172356452Y-97202333D01*
X172261214Y-97249952D01*
X172213595Y-97297571D01*
X172165976Y-97392809D01*
X145261904Y-104666666D02*
X145738095Y-104666666D01*
X145166666Y-104952380D02*
X145500000Y-103952380D01*
X145833333Y-104952380D01*
X146166666Y-104952380D02*
X146166666Y-103952380D01*
X146404761Y-103952380D01*
X146547619Y-104000000D01*
X146642857Y-104095238D01*
X146690476Y-104190476D01*
X146738095Y-104380952D01*
X146738095Y-104523809D01*
X146690476Y-104714285D01*
X146642857Y-104809523D01*
X146547619Y-104904761D01*
X146404761Y-104952380D01*
X146166666Y-104952380D01*
X147738095Y-104857142D02*
X147690476Y-104904761D01*
X147547619Y-104952380D01*
X147452380Y-104952380D01*
X147309523Y-104904761D01*
X147214285Y-104809523D01*
X147166666Y-104714285D01*
X147119047Y-104523809D01*
X147119047Y-104380952D01*
X147166666Y-104190476D01*
X147214285Y-104095238D01*
X147309523Y-104000000D01*
X147452380Y-103952380D01*
X147547619Y-103952380D01*
X147690476Y-104000000D01*
X147738095Y-104047619D01*
X148357142Y-103952380D02*
X148452380Y-103952380D01*
X148547619Y-104000000D01*
X148595238Y-104047619D01*
X148642857Y-104142857D01*
X148690476Y-104333333D01*
X148690476Y-104571428D01*
X148642857Y-104761904D01*
X148595238Y-104857142D01*
X148547619Y-104904761D01*
X148452380Y-104952380D01*
X148357142Y-104952380D01*
X148261904Y-104904761D01*
X148214285Y-104857142D01*
X148166666Y-104761904D01*
X148119047Y-104571428D01*
X148119047Y-104333333D01*
X148166666Y-104142857D01*
X148214285Y-104047619D01*
X148261904Y-104000000D01*
X148357142Y-103952380D01*
X149119047Y-104952380D02*
X149119047Y-103952380D01*
X149690476Y-104952380D01*
X149690476Y-103952380D01*
X145261904Y-107666666D02*
X145738095Y-107666666D01*
X145166666Y-107952380D02*
X145500000Y-106952380D01*
X145833333Y-107952380D01*
X146166666Y-107952380D02*
X146166666Y-106952380D01*
X146404761Y-106952380D01*
X146547619Y-107000000D01*
X146642857Y-107095238D01*
X146690476Y-107190476D01*
X146738095Y-107380952D01*
X146738095Y-107523809D01*
X146690476Y-107714285D01*
X146642857Y-107809523D01*
X146547619Y-107904761D01*
X146404761Y-107952380D01*
X146166666Y-107952380D01*
X147738095Y-107857142D02*
X147690476Y-107904761D01*
X147547619Y-107952380D01*
X147452380Y-107952380D01*
X147309523Y-107904761D01*
X147214285Y-107809523D01*
X147166666Y-107714285D01*
X147119047Y-107523809D01*
X147119047Y-107380952D01*
X147166666Y-107190476D01*
X147214285Y-107095238D01*
X147309523Y-107000000D01*
X147452380Y-106952380D01*
X147547619Y-106952380D01*
X147690476Y-107000000D01*
X147738095Y-107047619D01*
X148690476Y-107952380D02*
X148119047Y-107952380D01*
X148404761Y-107952380D02*
X148404761Y-106952380D01*
X148309523Y-107095238D01*
X148214285Y-107190476D01*
X148119047Y-107238095D01*
X149119047Y-107952380D02*
X149119047Y-106952380D01*
X149690476Y-107952380D01*
X149690476Y-106952380D01*
X149285714Y-98166666D02*
X149761904Y-98166666D01*
X149190476Y-98452380D02*
X149523809Y-97452380D01*
X149857142Y-98452380D01*
X150190476Y-98452380D02*
X150190476Y-97452380D01*
X150428571Y-97452380D01*
X150571428Y-97500000D01*
X150666666Y-97595238D01*
X150714285Y-97690476D01*
X150761904Y-97880952D01*
X150761904Y-98023809D01*
X150714285Y-98214285D01*
X150666666Y-98309523D01*
X150571428Y-98404761D01*
X150428571Y-98452380D01*
X150190476Y-98452380D01*
X151761904Y-98357142D02*
X151714285Y-98404761D01*
X151571428Y-98452380D01*
X151476190Y-98452380D01*
X151333333Y-98404761D01*
X151238095Y-98309523D01*
X151190476Y-98214285D01*
X151142857Y-98023809D01*
X151142857Y-97880952D01*
X151190476Y-97690476D01*
X151238095Y-97595238D01*
X151333333Y-97500000D01*
X151476190Y-97452380D01*
X151571428Y-97452380D01*
X151714285Y-97500000D01*
X151761904Y-97547619D01*
X152380952Y-97452380D02*
X152476190Y-97452380D01*
X152571428Y-97500000D01*
X152619047Y-97547619D01*
X152666666Y-97642857D01*
X152714285Y-97833333D01*
X152714285Y-98071428D01*
X152666666Y-98261904D01*
X152619047Y-98357142D01*
X152571428Y-98404761D01*
X152476190Y-98452380D01*
X152380952Y-98452380D01*
X152285714Y-98404761D01*
X152238095Y-98357142D01*
X152190476Y-98261904D01*
X152142857Y-98071428D01*
X152142857Y-97833333D01*
X152190476Y-97642857D01*
X152238095Y-97547619D01*
X152285714Y-97500000D01*
X152380952Y-97452380D01*
X153142857Y-98452380D02*
X153142857Y-97452380D01*
X153523809Y-97452380D01*
X153619047Y-97500000D01*
X153666666Y-97547619D01*
X153714285Y-97642857D01*
X153714285Y-97785714D01*
X153666666Y-97880952D01*
X153619047Y-97928571D01*
X153523809Y-97976190D01*
X153142857Y-97976190D01*
X146285714Y-110666666D02*
X146761904Y-110666666D01*
X146190476Y-110952380D02*
X146523809Y-109952380D01*
X146857142Y-110952380D01*
X147190476Y-110952380D02*
X147190476Y-109952380D01*
X147428571Y-109952380D01*
X147571428Y-110000000D01*
X147666666Y-110095238D01*
X147714285Y-110190476D01*
X147761904Y-110380952D01*
X147761904Y-110523809D01*
X147714285Y-110714285D01*
X147666666Y-110809523D01*
X147571428Y-110904761D01*
X147428571Y-110952380D01*
X147190476Y-110952380D01*
X148761904Y-110857142D02*
X148714285Y-110904761D01*
X148571428Y-110952380D01*
X148476190Y-110952380D01*
X148333333Y-110904761D01*
X148238095Y-110809523D01*
X148190476Y-110714285D01*
X148142857Y-110523809D01*
X148142857Y-110380952D01*
X148190476Y-110190476D01*
X148238095Y-110095238D01*
X148333333Y-110000000D01*
X148476190Y-109952380D01*
X148571428Y-109952380D01*
X148714285Y-110000000D01*
X148761904Y-110047619D01*
X149714285Y-110952380D02*
X149142857Y-110952380D01*
X149428571Y-110952380D02*
X149428571Y-109952380D01*
X149333333Y-110095238D01*
X149238095Y-110190476D01*
X149142857Y-110238095D01*
X150142857Y-110952380D02*
X150142857Y-109952380D01*
X150523809Y-109952380D01*
X150619047Y-110000000D01*
X150666666Y-110047619D01*
X150714285Y-110142857D01*
X150714285Y-110285714D01*
X150666666Y-110380952D01*
X150619047Y-110428571D01*
X150523809Y-110476190D01*
X150142857Y-110476190D01*
X131548142Y-106338666D02*
X131595761Y-106386285D01*
X131643380Y-106529142D01*
X131643380Y-106624380D01*
X131595761Y-106767238D01*
X131500523Y-106862476D01*
X131405285Y-106910095D01*
X131214809Y-106957714D01*
X131071952Y-106957714D01*
X130881476Y-106910095D01*
X130786238Y-106862476D01*
X130691000Y-106767238D01*
X130643380Y-106624380D01*
X130643380Y-106529142D01*
X130691000Y-106386285D01*
X130738619Y-106338666D01*
X131643380Y-105862476D02*
X131643380Y-105672000D01*
X131595761Y-105576761D01*
X131548142Y-105529142D01*
X131405285Y-105433904D01*
X131214809Y-105386285D01*
X130833857Y-105386285D01*
X130738619Y-105433904D01*
X130691000Y-105481523D01*
X130643380Y-105576761D01*
X130643380Y-105767238D01*
X130691000Y-105862476D01*
X130738619Y-105910095D01*
X130833857Y-105957714D01*
X131071952Y-105957714D01*
X131167190Y-105910095D01*
X131214809Y-105862476D01*
X131262428Y-105767238D01*
X131262428Y-105576761D01*
X131214809Y-105481523D01*
X131167190Y-105433904D01*
X131071952Y-105386285D01*
X169111142Y-110414357D02*
X169158761Y-110461976D01*
X169206380Y-110604833D01*
X169206380Y-110700071D01*
X169158761Y-110842928D01*
X169063523Y-110938166D01*
X168968285Y-110985785D01*
X168777809Y-111033404D01*
X168634952Y-111033404D01*
X168444476Y-110985785D01*
X168349238Y-110938166D01*
X168254000Y-110842928D01*
X168206380Y-110700071D01*
X168206380Y-110604833D01*
X168254000Y-110461976D01*
X168301619Y-110414357D01*
X169206380Y-109461976D02*
X169206380Y-110033404D01*
X169206380Y-109747690D02*
X168206380Y-109747690D01*
X168349238Y-109842928D01*
X168444476Y-109938166D01*
X168492095Y-110033404D01*
X168206380Y-108842928D02*
X168206380Y-108747690D01*
X168254000Y-108652452D01*
X168301619Y-108604833D01*
X168396857Y-108557214D01*
X168587333Y-108509595D01*
X168825428Y-108509595D01*
X169015904Y-108557214D01*
X169111142Y-108604833D01*
X169158761Y-108652452D01*
X169206380Y-108747690D01*
X169206380Y-108842928D01*
X169158761Y-108938166D01*
X169111142Y-108985785D01*
X169015904Y-109033404D01*
X168825428Y-109081023D01*
X168587333Y-109081023D01*
X168396857Y-109033404D01*
X168301619Y-108985785D01*
X168254000Y-108938166D01*
X168206380Y-108842928D01*
X178571142Y-110404357D02*
X178618761Y-110451976D01*
X178666380Y-110594833D01*
X178666380Y-110690071D01*
X178618761Y-110832928D01*
X178523523Y-110928166D01*
X178428285Y-110975785D01*
X178237809Y-111023404D01*
X178094952Y-111023404D01*
X177904476Y-110975785D01*
X177809238Y-110928166D01*
X177714000Y-110832928D01*
X177666380Y-110690071D01*
X177666380Y-110594833D01*
X177714000Y-110451976D01*
X177761619Y-110404357D01*
X178666380Y-109451976D02*
X178666380Y-110023404D01*
X178666380Y-109737690D02*
X177666380Y-109737690D01*
X177809238Y-109832928D01*
X177904476Y-109928166D01*
X177952095Y-110023404D01*
X178666380Y-108499595D02*
X178666380Y-109071023D01*
X178666380Y-108785309D02*
X177666380Y-108785309D01*
X177809238Y-108880547D01*
X177904476Y-108975785D01*
X177952095Y-109071023D01*
X159742142Y-104401857D02*
X159789761Y-104449476D01*
X159837380Y-104592333D01*
X159837380Y-104687571D01*
X159789761Y-104830428D01*
X159694523Y-104925666D01*
X159599285Y-104973285D01*
X159408809Y-105020904D01*
X159265952Y-105020904D01*
X159075476Y-104973285D01*
X158980238Y-104925666D01*
X158885000Y-104830428D01*
X158837380Y-104687571D01*
X158837380Y-104592333D01*
X158885000Y-104449476D01*
X158932619Y-104401857D01*
X159837380Y-103449476D02*
X159837380Y-104020904D01*
X159837380Y-103735190D02*
X158837380Y-103735190D01*
X158980238Y-103830428D01*
X159075476Y-103925666D01*
X159123095Y-104020904D01*
X158932619Y-103068523D02*
X158885000Y-103020904D01*
X158837380Y-102925666D01*
X158837380Y-102687571D01*
X158885000Y-102592333D01*
X158932619Y-102544714D01*
X159027857Y-102497095D01*
X159123095Y-102497095D01*
X159265952Y-102544714D01*
X159837380Y-103116142D01*
X159837380Y-102497095D01*
X157345142Y-109831142D02*
X157297523Y-109878761D01*
X157154666Y-109926380D01*
X157059428Y-109926380D01*
X156916571Y-109878761D01*
X156821333Y-109783523D01*
X156773714Y-109688285D01*
X156726095Y-109497809D01*
X156726095Y-109354952D01*
X156773714Y-109164476D01*
X156821333Y-109069238D01*
X156916571Y-108974000D01*
X157059428Y-108926380D01*
X157154666Y-108926380D01*
X157297523Y-108974000D01*
X157345142Y-109021619D01*
X158297523Y-109926380D02*
X157726095Y-109926380D01*
X158011809Y-109926380D02*
X158011809Y-108926380D01*
X157916571Y-109069238D01*
X157821333Y-109164476D01*
X157726095Y-109212095D01*
X158630857Y-108926380D02*
X159249904Y-108926380D01*
X158916571Y-109307333D01*
X159059428Y-109307333D01*
X159154666Y-109354952D01*
X159202285Y-109402571D01*
X159249904Y-109497809D01*
X159249904Y-109735904D01*
X159202285Y-109831142D01*
X159154666Y-109878761D01*
X159059428Y-109926380D01*
X158773714Y-109926380D01*
X158678476Y-109878761D01*
X158630857Y-109831142D01*
X170092642Y-104173357D02*
X170140261Y-104220976D01*
X170187880Y-104363833D01*
X170187880Y-104459071D01*
X170140261Y-104601928D01*
X170045023Y-104697166D01*
X169949785Y-104744785D01*
X169759309Y-104792404D01*
X169616452Y-104792404D01*
X169425976Y-104744785D01*
X169330738Y-104697166D01*
X169235500Y-104601928D01*
X169187880Y-104459071D01*
X169187880Y-104363833D01*
X169235500Y-104220976D01*
X169283119Y-104173357D01*
X170187880Y-103220976D02*
X170187880Y-103792404D01*
X170187880Y-103506690D02*
X169187880Y-103506690D01*
X169330738Y-103601928D01*
X169425976Y-103697166D01*
X169473595Y-103792404D01*
X169187880Y-102316214D02*
X169187880Y-102792404D01*
X169664071Y-102840023D01*
X169616452Y-102792404D01*
X169568833Y-102697166D01*
X169568833Y-102459071D01*
X169616452Y-102363833D01*
X169664071Y-102316214D01*
X169759309Y-102268595D01*
X169997404Y-102268595D01*
X170092642Y-102316214D01*
X170140261Y-102363833D01*
X170187880Y-102459071D01*
X170187880Y-102697166D01*
X170140261Y-102792404D01*
X170092642Y-102840023D01*
X158690142Y-98476142D02*
X158642523Y-98523761D01*
X158499666Y-98571380D01*
X158404428Y-98571380D01*
X158261571Y-98523761D01*
X158166333Y-98428523D01*
X158118714Y-98333285D01*
X158071095Y-98142809D01*
X158071095Y-97999952D01*
X158118714Y-97809476D01*
X158166333Y-97714238D01*
X158261571Y-97619000D01*
X158404428Y-97571380D01*
X158499666Y-97571380D01*
X158642523Y-97619000D01*
X158690142Y-97666619D01*
X159642523Y-98571380D02*
X159071095Y-98571380D01*
X159356809Y-98571380D02*
X159356809Y-97571380D01*
X159261571Y-97714238D01*
X159166333Y-97809476D01*
X159071095Y-97857095D01*
X160499666Y-97571380D02*
X160309190Y-97571380D01*
X160213952Y-97619000D01*
X160166333Y-97666619D01*
X160071095Y-97809476D01*
X160023476Y-97999952D01*
X160023476Y-98380904D01*
X160071095Y-98476142D01*
X160118714Y-98523761D01*
X160213952Y-98571380D01*
X160404428Y-98571380D01*
X160499666Y-98523761D01*
X160547285Y-98476142D01*
X160594904Y-98380904D01*
X160594904Y-98142809D01*
X160547285Y-98047571D01*
X160499666Y-97999952D01*
X160404428Y-97952333D01*
X160213952Y-97952333D01*
X160118714Y-97999952D01*
X160071095Y-98047571D01*
X160023476Y-98142809D01*
X173690142Y-100976142D02*
X173642523Y-101023761D01*
X173499666Y-101071380D01*
X173404428Y-101071380D01*
X173261571Y-101023761D01*
X173166333Y-100928523D01*
X173118714Y-100833285D01*
X173071095Y-100642809D01*
X173071095Y-100499952D01*
X173118714Y-100309476D01*
X173166333Y-100214238D01*
X173261571Y-100119000D01*
X173404428Y-100071380D01*
X173499666Y-100071380D01*
X173642523Y-100119000D01*
X173690142Y-100166619D01*
X174642523Y-101071380D02*
X174071095Y-101071380D01*
X174356809Y-101071380D02*
X174356809Y-100071380D01*
X174261571Y-100214238D01*
X174166333Y-100309476D01*
X174071095Y-100357095D01*
X174975857Y-100071380D02*
X175642523Y-100071380D01*
X175213952Y-101071380D01*
X119238095Y-81252380D02*
X119238095Y-80252380D01*
X119238095Y-80728571D02*
X119809523Y-80728571D01*
X119809523Y-81252380D02*
X119809523Y-80252380D01*
X120809523Y-81252380D02*
X120238095Y-81252380D01*
X120523809Y-81252380D02*
X120523809Y-80252380D01*
X120428571Y-80395238D01*
X120333333Y-80490476D01*
X120238095Y-80538095D01*
X144137142Y-111577380D02*
X143803809Y-111101190D01*
X143565714Y-111577380D02*
X143565714Y-110577380D01*
X143946666Y-110577380D01*
X144041904Y-110625000D01*
X144089523Y-110672619D01*
X144137142Y-110767857D01*
X144137142Y-110910714D01*
X144089523Y-111005952D01*
X144041904Y-111053571D01*
X143946666Y-111101190D01*
X143565714Y-111101190D01*
X145089523Y-111577380D02*
X144518095Y-111577380D01*
X144803809Y-111577380D02*
X144803809Y-110577380D01*
X144708571Y-110720238D01*
X144613333Y-110815476D01*
X144518095Y-110863095D01*
X146041904Y-111577380D02*
X145470476Y-111577380D01*
X145756190Y-111577380D02*
X145756190Y-110577380D01*
X145660952Y-110720238D01*
X145565714Y-110815476D01*
X145470476Y-110863095D01*
M02*
