G04 #@! TF.GenerationSoftware,KiCad,Pcbnew,(5.1.5-0)*
G04 #@! TF.CreationDate,2020-12-17T20:40:07-08:00*
G04 #@! TF.ProjectId,Luminometer_ADC_concept,4c756d69-6e6f-46d6-9574-65725f414443,rev?*
G04 #@! TF.SameCoordinates,Original*
G04 #@! TF.FileFunction,Legend,Top*
G04 #@! TF.FilePolarity,Positive*
%FSLAX46Y46*%
G04 Gerber Fmt 4.6, Leading zero omitted, Abs format (unit mm)*
G04 Created by KiCad (PCBNEW (5.1.5-0)) date 2020-12-17 20:40:07*
%MOMM*%
%LPD*%
G04 APERTURE LIST*
%ADD10C,0.150000*%
%ADD11C,0.010000*%
%ADD12C,0.120000*%
%ADD13C,0.100000*%
G04 APERTURE END LIST*
D10*
X131787976Y-83504761D02*
X131930833Y-83552380D01*
X132168928Y-83552380D01*
X132264166Y-83504761D01*
X132311785Y-83457142D01*
X132359404Y-83361904D01*
X132359404Y-83266666D01*
X132311785Y-83171428D01*
X132264166Y-83123809D01*
X132168928Y-83076190D01*
X131978452Y-83028571D01*
X131883214Y-82980952D01*
X131835595Y-82933333D01*
X131787976Y-82838095D01*
X131787976Y-82742857D01*
X131835595Y-82647619D01*
X131883214Y-82600000D01*
X131978452Y-82552380D01*
X132216547Y-82552380D01*
X132359404Y-82600000D01*
X132787976Y-83552380D02*
X132787976Y-82885714D01*
X132787976Y-82552380D02*
X132740357Y-82600000D01*
X132787976Y-82647619D01*
X132835595Y-82600000D01*
X132787976Y-82552380D01*
X132787976Y-82647619D01*
X133264166Y-83552380D02*
X133264166Y-82552380D01*
X133645119Y-82552380D01*
X133740357Y-82600000D01*
X133787976Y-82647619D01*
X133835595Y-82742857D01*
X133835595Y-82885714D01*
X133787976Y-82980952D01*
X133740357Y-83028571D01*
X133645119Y-83076190D01*
X133264166Y-83076190D01*
X134264166Y-83552380D02*
X134264166Y-82552380D01*
X134597500Y-83266666D01*
X134930833Y-82552380D01*
X134930833Y-83552380D01*
X136645119Y-83552380D02*
X136168928Y-83552380D01*
X136168928Y-82552380D01*
X137407023Y-82885714D02*
X137407023Y-83552380D01*
X136978452Y-82885714D02*
X136978452Y-83409523D01*
X137026071Y-83504761D01*
X137121309Y-83552380D01*
X137264166Y-83552380D01*
X137359404Y-83504761D01*
X137407023Y-83457142D01*
X137883214Y-83552380D02*
X137883214Y-82885714D01*
X137883214Y-82980952D02*
X137930833Y-82933333D01*
X138026071Y-82885714D01*
X138168928Y-82885714D01*
X138264166Y-82933333D01*
X138311785Y-83028571D01*
X138311785Y-83552380D01*
X138311785Y-83028571D02*
X138359404Y-82933333D01*
X138454642Y-82885714D01*
X138597500Y-82885714D01*
X138692738Y-82933333D01*
X138740357Y-83028571D01*
X138740357Y-83552380D01*
X139216547Y-83552380D02*
X139216547Y-82885714D01*
X139216547Y-82552380D02*
X139168928Y-82600000D01*
X139216547Y-82647619D01*
X139264166Y-82600000D01*
X139216547Y-82552380D01*
X139216547Y-82647619D01*
X139692738Y-82885714D02*
X139692738Y-83552380D01*
X139692738Y-82980952D02*
X139740357Y-82933333D01*
X139835595Y-82885714D01*
X139978452Y-82885714D01*
X140073690Y-82933333D01*
X140121309Y-83028571D01*
X140121309Y-83552380D01*
X140740357Y-83552380D02*
X140645119Y-83504761D01*
X140597500Y-83457142D01*
X140549880Y-83361904D01*
X140549880Y-83076190D01*
X140597500Y-82980952D01*
X140645119Y-82933333D01*
X140740357Y-82885714D01*
X140883214Y-82885714D01*
X140978452Y-82933333D01*
X141026071Y-82980952D01*
X141073690Y-83076190D01*
X141073690Y-83361904D01*
X141026071Y-83457142D01*
X140978452Y-83504761D01*
X140883214Y-83552380D01*
X140740357Y-83552380D01*
X141502261Y-83552380D02*
X141502261Y-82885714D01*
X141502261Y-82980952D02*
X141549880Y-82933333D01*
X141645119Y-82885714D01*
X141787976Y-82885714D01*
X141883214Y-82933333D01*
X141930833Y-83028571D01*
X141930833Y-83552380D01*
X141930833Y-83028571D02*
X141978452Y-82933333D01*
X142073690Y-82885714D01*
X142216547Y-82885714D01*
X142311785Y-82933333D01*
X142359404Y-83028571D01*
X142359404Y-83552380D01*
X143216547Y-83504761D02*
X143121309Y-83552380D01*
X142930833Y-83552380D01*
X142835595Y-83504761D01*
X142787976Y-83409523D01*
X142787976Y-83028571D01*
X142835595Y-82933333D01*
X142930833Y-82885714D01*
X143121309Y-82885714D01*
X143216547Y-82933333D01*
X143264166Y-83028571D01*
X143264166Y-83123809D01*
X142787976Y-83219047D01*
X143549880Y-82885714D02*
X143930833Y-82885714D01*
X143692738Y-82552380D02*
X143692738Y-83409523D01*
X143740357Y-83504761D01*
X143835595Y-83552380D01*
X143930833Y-83552380D01*
X144645119Y-83504761D02*
X144549880Y-83552380D01*
X144359404Y-83552380D01*
X144264166Y-83504761D01*
X144216547Y-83409523D01*
X144216547Y-83028571D01*
X144264166Y-82933333D01*
X144359404Y-82885714D01*
X144549880Y-82885714D01*
X144645119Y-82933333D01*
X144692738Y-83028571D01*
X144692738Y-83123809D01*
X144216547Y-83219047D01*
X145121309Y-83552380D02*
X145121309Y-82885714D01*
X145121309Y-83076190D02*
X145168928Y-82980952D01*
X145216547Y-82933333D01*
X145311785Y-82885714D01*
X145407023Y-82885714D01*
X146359404Y-82552380D02*
X146692738Y-83552380D01*
X147026071Y-82552380D01*
X147883214Y-83552380D02*
X147311785Y-83552380D01*
X147597500Y-83552380D02*
X147597500Y-82552380D01*
X147502261Y-82695238D01*
X147407023Y-82790476D01*
X147311785Y-82838095D01*
X148311785Y-83457142D02*
X148359404Y-83504761D01*
X148311785Y-83552380D01*
X148264166Y-83504761D01*
X148311785Y-83457142D01*
X148311785Y-83552380D01*
X149311785Y-83552380D02*
X148740357Y-83552380D01*
X149026071Y-83552380D02*
X149026071Y-82552380D01*
X148930833Y-82695238D01*
X148835595Y-82790476D01*
X148740357Y-82838095D01*
X132264166Y-85154761D02*
X132168928Y-85202380D01*
X131978452Y-85202380D01*
X131883214Y-85154761D01*
X131835595Y-85107142D01*
X131787976Y-85011904D01*
X131787976Y-84726190D01*
X131835595Y-84630952D01*
X131883214Y-84583333D01*
X131978452Y-84535714D01*
X132168928Y-84535714D01*
X132264166Y-84583333D01*
X132597500Y-84535714D02*
X133121309Y-84535714D01*
X132597500Y-85202380D01*
X133121309Y-85202380D01*
X133502261Y-85202380D02*
X133502261Y-84202380D01*
X133502261Y-84583333D02*
X133597500Y-84535714D01*
X133787976Y-84535714D01*
X133883214Y-84583333D01*
X133930833Y-84630952D01*
X133978452Y-84726190D01*
X133978452Y-85011904D01*
X133930833Y-85107142D01*
X133883214Y-85154761D01*
X133787976Y-85202380D01*
X133597500Y-85202380D01*
X133502261Y-85154761D01*
X134407023Y-85202380D02*
X134407023Y-84535714D01*
X134407023Y-84202380D02*
X134359404Y-84250000D01*
X134407023Y-84297619D01*
X134454642Y-84250000D01*
X134407023Y-84202380D01*
X134407023Y-84297619D01*
X135026071Y-85202380D02*
X134930833Y-85154761D01*
X134883214Y-85107142D01*
X134835595Y-85011904D01*
X134835595Y-84726190D01*
X134883214Y-84630952D01*
X134930833Y-84583333D01*
X135026071Y-84535714D01*
X135168928Y-84535714D01*
X135264166Y-84583333D01*
X135311785Y-84630952D01*
X135359404Y-84726190D01*
X135359404Y-85011904D01*
X135311785Y-85107142D01*
X135264166Y-85154761D01*
X135168928Y-85202380D01*
X135026071Y-85202380D01*
X135787976Y-85202380D02*
X135787976Y-84202380D01*
X136216547Y-85202380D02*
X136216547Y-84678571D01*
X136168928Y-84583333D01*
X136073690Y-84535714D01*
X135930833Y-84535714D01*
X135835595Y-84583333D01*
X135787976Y-84630952D01*
X137121309Y-84535714D02*
X137121309Y-85202380D01*
X136692738Y-84535714D02*
X136692738Y-85059523D01*
X136740357Y-85154761D01*
X136835595Y-85202380D01*
X136978452Y-85202380D01*
X137073690Y-85154761D01*
X137121309Y-85107142D01*
X137597500Y-85202380D02*
X137597500Y-84202380D01*
X137597500Y-84583333D02*
X137692738Y-84535714D01*
X137883214Y-84535714D01*
X137978452Y-84583333D01*
X138026071Y-84630952D01*
X138073690Y-84726190D01*
X138073690Y-85011904D01*
X138026071Y-85107142D01*
X137978452Y-85154761D01*
X137883214Y-85202380D01*
X137692738Y-85202380D01*
X137597500Y-85154761D01*
X131787976Y-85947619D02*
X131835595Y-85900000D01*
X131930833Y-85852380D01*
X132168928Y-85852380D01*
X132264166Y-85900000D01*
X132311785Y-85947619D01*
X132359404Y-86042857D01*
X132359404Y-86138095D01*
X132311785Y-86280952D01*
X131740357Y-86852380D01*
X132359404Y-86852380D01*
X132978452Y-85852380D02*
X133073690Y-85852380D01*
X133168928Y-85900000D01*
X133216547Y-85947619D01*
X133264166Y-86042857D01*
X133311785Y-86233333D01*
X133311785Y-86471428D01*
X133264166Y-86661904D01*
X133216547Y-86757142D01*
X133168928Y-86804761D01*
X133073690Y-86852380D01*
X132978452Y-86852380D01*
X132883214Y-86804761D01*
X132835595Y-86757142D01*
X132787976Y-86661904D01*
X132740357Y-86471428D01*
X132740357Y-86233333D01*
X132787976Y-86042857D01*
X132835595Y-85947619D01*
X132883214Y-85900000D01*
X132978452Y-85852380D01*
X133692738Y-85947619D02*
X133740357Y-85900000D01*
X133835595Y-85852380D01*
X134073690Y-85852380D01*
X134168928Y-85900000D01*
X134216547Y-85947619D01*
X134264166Y-86042857D01*
X134264166Y-86138095D01*
X134216547Y-86280952D01*
X133645119Y-86852380D01*
X134264166Y-86852380D01*
X134883214Y-85852380D02*
X134978452Y-85852380D01*
X135073690Y-85900000D01*
X135121309Y-85947619D01*
X135168928Y-86042857D01*
X135216547Y-86233333D01*
X135216547Y-86471428D01*
X135168928Y-86661904D01*
X135121309Y-86757142D01*
X135073690Y-86804761D01*
X134978452Y-86852380D01*
X134883214Y-86852380D01*
X134787976Y-86804761D01*
X134740357Y-86757142D01*
X134692738Y-86661904D01*
X134645119Y-86471428D01*
X134645119Y-86233333D01*
X134692738Y-86042857D01*
X134740357Y-85947619D01*
X134787976Y-85900000D01*
X134883214Y-85852380D01*
D11*
G36*
X126948493Y-81580839D02*
G01*
X127122422Y-81595117D01*
X127252477Y-81612656D01*
X127478792Y-81657554D01*
X127699391Y-81718096D01*
X127913616Y-81793767D01*
X128120806Y-81884051D01*
X128320304Y-81988432D01*
X128511450Y-82106394D01*
X128693587Y-82237421D01*
X128866055Y-82380997D01*
X129028195Y-82536607D01*
X129179349Y-82703735D01*
X129318858Y-82881864D01*
X129446064Y-83070479D01*
X129560307Y-83269063D01*
X129660929Y-83477102D01*
X129675148Y-83509889D01*
X129757115Y-83723151D01*
X129822804Y-83941030D01*
X129872224Y-84163564D01*
X129905381Y-84390788D01*
X129922282Y-84622736D01*
X129924652Y-84750000D01*
X129916395Y-84983606D01*
X129891772Y-85213523D01*
X129851001Y-85439169D01*
X129794301Y-85659962D01*
X129721893Y-85875321D01*
X129633995Y-86084665D01*
X129530826Y-86287413D01*
X129412607Y-86482984D01*
X129279556Y-86670795D01*
X129132364Y-86849733D01*
X128970893Y-87019882D01*
X128799724Y-87176255D01*
X128619330Y-87318613D01*
X128430184Y-87446718D01*
X128232760Y-87560333D01*
X128027529Y-87659220D01*
X127814964Y-87743140D01*
X127595539Y-87811857D01*
X127369726Y-87865132D01*
X127137998Y-87902727D01*
X127012466Y-87916256D01*
X126955980Y-87919962D01*
X126886826Y-87922401D01*
X126809218Y-87923603D01*
X126727373Y-87923595D01*
X126645506Y-87922408D01*
X126567832Y-87920069D01*
X126498566Y-87916608D01*
X126445200Y-87912387D01*
X126214573Y-87880940D01*
X125989193Y-87833697D01*
X125769695Y-87771125D01*
X125556719Y-87693694D01*
X125350904Y-87601870D01*
X125152887Y-87496124D01*
X124963307Y-87376922D01*
X124782802Y-87244734D01*
X124612011Y-87100027D01*
X124451572Y-86943270D01*
X124302123Y-86774931D01*
X124164303Y-86595479D01*
X124038750Y-86405381D01*
X123926102Y-86205107D01*
X123826998Y-85995123D01*
X123824851Y-85990110D01*
X123742884Y-85776848D01*
X123677195Y-85558969D01*
X123627775Y-85336435D01*
X123594618Y-85109211D01*
X123577717Y-84877263D01*
X123575347Y-84750000D01*
X123583471Y-84515484D01*
X123607846Y-84285713D01*
X123648481Y-84060650D01*
X123666145Y-83992233D01*
X124469902Y-83992233D01*
X124470296Y-84045907D01*
X124471813Y-84087463D01*
X124474956Y-84121705D01*
X124480227Y-84153436D01*
X124488127Y-84187461D01*
X124491768Y-84201409D01*
X124531069Y-84317712D01*
X124584260Y-84425381D01*
X124650303Y-84523459D01*
X124728162Y-84610988D01*
X124816801Y-84687011D01*
X124915183Y-84750568D01*
X125022271Y-84800703D01*
X125137029Y-84836456D01*
X125191125Y-84847639D01*
X125305590Y-84859358D01*
X125420210Y-84855171D01*
X125533167Y-84835840D01*
X125642648Y-84802128D01*
X125746834Y-84754798D01*
X125843910Y-84694611D01*
X125932060Y-84622332D01*
X126009467Y-84538723D01*
X126046700Y-84488338D01*
X126070055Y-84451055D01*
X126095205Y-84406240D01*
X126119522Y-84359038D01*
X126140382Y-84314592D01*
X126155159Y-84278045D01*
X126157314Y-84271633D01*
X126186435Y-84202917D01*
X126227168Y-84139500D01*
X126276916Y-84084245D01*
X126333078Y-84040013D01*
X126393056Y-84009665D01*
X126396327Y-84008486D01*
X126412003Y-84003952D01*
X126442312Y-83996109D01*
X126485377Y-83985410D01*
X126539322Y-83972309D01*
X126602270Y-83957258D01*
X126672345Y-83940711D01*
X126747669Y-83923121D01*
X126800704Y-83910847D01*
X126890516Y-83890216D01*
X126965498Y-83873202D01*
X127027288Y-83859494D01*
X127077527Y-83848777D01*
X127117853Y-83840739D01*
X127149908Y-83835065D01*
X127175329Y-83831443D01*
X127195758Y-83829560D01*
X127212833Y-83829101D01*
X127225922Y-83829597D01*
X127290970Y-83841093D01*
X127348924Y-83867176D01*
X127401538Y-83908732D01*
X127419049Y-83927133D01*
X127460224Y-83978825D01*
X127487623Y-84027419D01*
X127502914Y-84076765D01*
X127507764Y-84130711D01*
X127507766Y-84131933D01*
X127507766Y-84195433D01*
X127402875Y-84411333D01*
X127366023Y-84486758D01*
X127335134Y-84548776D01*
X127309056Y-84599344D01*
X127286635Y-84640421D01*
X127266717Y-84673963D01*
X127248150Y-84701928D01*
X127229780Y-84726274D01*
X127210453Y-84748960D01*
X127192699Y-84768098D01*
X127123824Y-84829754D01*
X127045904Y-84879214D01*
X126957267Y-84917366D01*
X126862232Y-84943812D01*
X126729787Y-84980678D01*
X126606031Y-85031286D01*
X126491767Y-85095034D01*
X126387801Y-85171324D01*
X126294939Y-85259554D01*
X126213985Y-85359125D01*
X126145745Y-85469437D01*
X126138592Y-85483089D01*
X126083641Y-85606962D01*
X126044865Y-85732294D01*
X126021908Y-85857958D01*
X126014419Y-85982827D01*
X126022043Y-86105774D01*
X126044426Y-86225673D01*
X126081214Y-86341397D01*
X126132055Y-86451818D01*
X126196594Y-86555810D01*
X126274478Y-86652246D01*
X126365352Y-86740000D01*
X126468863Y-86817944D01*
X126577489Y-86881321D01*
X126682227Y-86929427D01*
X126784086Y-86964549D01*
X126888551Y-86988423D01*
X126940499Y-86996303D01*
X126984362Y-86999743D01*
X127038906Y-87000693D01*
X127098086Y-86999299D01*
X127155855Y-86995708D01*
X127206167Y-86990062D01*
X127207235Y-86989902D01*
X127337090Y-86962115D01*
X127459783Y-86918983D01*
X127575311Y-86860508D01*
X127683673Y-86786692D01*
X127784864Y-86697536D01*
X127788240Y-86694173D01*
X127876154Y-86594847D01*
X127949400Y-86488136D01*
X128007864Y-86375312D01*
X128051430Y-86257645D01*
X128079986Y-86136408D01*
X128093417Y-86012870D01*
X128091608Y-85888303D01*
X128074446Y-85763978D01*
X128041815Y-85641166D01*
X127993603Y-85521139D01*
X127929694Y-85405167D01*
X127907181Y-85370973D01*
X127845911Y-85269738D01*
X127801305Y-85168963D01*
X127773138Y-85067835D01*
X127761189Y-84965537D01*
X127765234Y-84861257D01*
X127766010Y-84854678D01*
X127770845Y-84825802D01*
X127779494Y-84784781D01*
X127791218Y-84734379D01*
X127805275Y-84677361D01*
X127820924Y-84616489D01*
X127837426Y-84554529D01*
X127854039Y-84494244D01*
X127870024Y-84438398D01*
X127884638Y-84389755D01*
X127897143Y-84351079D01*
X127906796Y-84325135D01*
X127909426Y-84319453D01*
X127935755Y-84279707D01*
X127970457Y-84248768D01*
X128016094Y-84224981D01*
X128075227Y-84206691D01*
X128088749Y-84203580D01*
X128123240Y-84193842D01*
X128166280Y-84178560D01*
X128211459Y-84160127D01*
X128239795Y-84147176D01*
X128280142Y-84126957D01*
X128311796Y-84108583D01*
X128339708Y-84088471D01*
X128368828Y-84063040D01*
X128404105Y-84028708D01*
X128405617Y-84027197D01*
X128441509Y-83990205D01*
X128468197Y-83959411D01*
X128489288Y-83929942D01*
X128508390Y-83896921D01*
X128522321Y-83869466D01*
X128552122Y-83803304D01*
X128572611Y-83743482D01*
X128585578Y-83683556D01*
X128592815Y-83617082D01*
X128592926Y-83615466D01*
X128591799Y-83530595D01*
X128578184Y-83442536D01*
X128553700Y-83359711D01*
X128517158Y-83284011D01*
X128466391Y-83210357D01*
X128404098Y-83141416D01*
X128332976Y-83079857D01*
X128255723Y-83028346D01*
X128182202Y-82992385D01*
X128121410Y-82970078D01*
X128067257Y-82956017D01*
X128012868Y-82949023D01*
X127951365Y-82947919D01*
X127927085Y-82948699D01*
X127833201Y-82957941D01*
X127749113Y-82978266D01*
X127671872Y-83011000D01*
X127598530Y-83057464D01*
X127526138Y-83118983D01*
X127507766Y-83136947D01*
X127467927Y-83178650D01*
X127437715Y-83215050D01*
X127413310Y-83251140D01*
X127394299Y-83285266D01*
X127355422Y-83352943D01*
X127315556Y-83406189D01*
X127272240Y-83447442D01*
X127223015Y-83479140D01*
X127178797Y-83498853D01*
X127161222Y-83503160D01*
X127128905Y-83508714D01*
X127083975Y-83515284D01*
X127028557Y-83522640D01*
X126964781Y-83530555D01*
X126894772Y-83538797D01*
X126820659Y-83547138D01*
X126744569Y-83555347D01*
X126668629Y-83563196D01*
X126594967Y-83570455D01*
X126525710Y-83576893D01*
X126462985Y-83582283D01*
X126408920Y-83586393D01*
X126365642Y-83588995D01*
X126335350Y-83589859D01*
X126276151Y-83587291D01*
X126224081Y-83579050D01*
X126176287Y-83563715D01*
X126129918Y-83539861D01*
X126082123Y-83506066D01*
X126030048Y-83460906D01*
X125980608Y-83412843D01*
X125910739Y-83345729D01*
X125845963Y-83291063D01*
X125782826Y-83246679D01*
X125717878Y-83210405D01*
X125647664Y-83180073D01*
X125568732Y-83153514D01*
X125567071Y-83153015D01*
X125505674Y-83139000D01*
X125433572Y-83129556D01*
X125356430Y-83124916D01*
X125279913Y-83125317D01*
X125209686Y-83130991D01*
X125174299Y-83136745D01*
X125055815Y-83169069D01*
X124944721Y-83216465D01*
X124841776Y-83278540D01*
X124747735Y-83354906D01*
X124743144Y-83359221D01*
X124659176Y-83449904D01*
X124589727Y-83549278D01*
X124534708Y-83657496D01*
X124494028Y-83774710D01*
X124491768Y-83783057D01*
X124482782Y-83819118D01*
X124476609Y-83851130D01*
X124472747Y-83883898D01*
X124470694Y-83922225D01*
X124469947Y-83970915D01*
X124469902Y-83992233D01*
X123666145Y-83992233D01*
X123705382Y-83840261D01*
X123778556Y-83624509D01*
X123824851Y-83509889D01*
X123923321Y-83300443D01*
X124035513Y-83100371D01*
X124160769Y-82910190D01*
X124298429Y-82730415D01*
X124447836Y-82561563D01*
X124608330Y-82404149D01*
X124779253Y-82258689D01*
X124959947Y-82125700D01*
X125149751Y-82005696D01*
X125348008Y-81899194D01*
X125554058Y-81806709D01*
X125767244Y-81728758D01*
X125986906Y-81665856D01*
X126212385Y-81618520D01*
X126247522Y-81612656D01*
X126413596Y-81591362D01*
X126589102Y-81578961D01*
X126769060Y-81575453D01*
X126948493Y-81580839D01*
G37*
X126948493Y-81580839D02*
X127122422Y-81595117D01*
X127252477Y-81612656D01*
X127478792Y-81657554D01*
X127699391Y-81718096D01*
X127913616Y-81793767D01*
X128120806Y-81884051D01*
X128320304Y-81988432D01*
X128511450Y-82106394D01*
X128693587Y-82237421D01*
X128866055Y-82380997D01*
X129028195Y-82536607D01*
X129179349Y-82703735D01*
X129318858Y-82881864D01*
X129446064Y-83070479D01*
X129560307Y-83269063D01*
X129660929Y-83477102D01*
X129675148Y-83509889D01*
X129757115Y-83723151D01*
X129822804Y-83941030D01*
X129872224Y-84163564D01*
X129905381Y-84390788D01*
X129922282Y-84622736D01*
X129924652Y-84750000D01*
X129916395Y-84983606D01*
X129891772Y-85213523D01*
X129851001Y-85439169D01*
X129794301Y-85659962D01*
X129721893Y-85875321D01*
X129633995Y-86084665D01*
X129530826Y-86287413D01*
X129412607Y-86482984D01*
X129279556Y-86670795D01*
X129132364Y-86849733D01*
X128970893Y-87019882D01*
X128799724Y-87176255D01*
X128619330Y-87318613D01*
X128430184Y-87446718D01*
X128232760Y-87560333D01*
X128027529Y-87659220D01*
X127814964Y-87743140D01*
X127595539Y-87811857D01*
X127369726Y-87865132D01*
X127137998Y-87902727D01*
X127012466Y-87916256D01*
X126955980Y-87919962D01*
X126886826Y-87922401D01*
X126809218Y-87923603D01*
X126727373Y-87923595D01*
X126645506Y-87922408D01*
X126567832Y-87920069D01*
X126498566Y-87916608D01*
X126445200Y-87912387D01*
X126214573Y-87880940D01*
X125989193Y-87833697D01*
X125769695Y-87771125D01*
X125556719Y-87693694D01*
X125350904Y-87601870D01*
X125152887Y-87496124D01*
X124963307Y-87376922D01*
X124782802Y-87244734D01*
X124612011Y-87100027D01*
X124451572Y-86943270D01*
X124302123Y-86774931D01*
X124164303Y-86595479D01*
X124038750Y-86405381D01*
X123926102Y-86205107D01*
X123826998Y-85995123D01*
X123824851Y-85990110D01*
X123742884Y-85776848D01*
X123677195Y-85558969D01*
X123627775Y-85336435D01*
X123594618Y-85109211D01*
X123577717Y-84877263D01*
X123575347Y-84750000D01*
X123583471Y-84515484D01*
X123607846Y-84285713D01*
X123648481Y-84060650D01*
X123666145Y-83992233D01*
X124469902Y-83992233D01*
X124470296Y-84045907D01*
X124471813Y-84087463D01*
X124474956Y-84121705D01*
X124480227Y-84153436D01*
X124488127Y-84187461D01*
X124491768Y-84201409D01*
X124531069Y-84317712D01*
X124584260Y-84425381D01*
X124650303Y-84523459D01*
X124728162Y-84610988D01*
X124816801Y-84687011D01*
X124915183Y-84750568D01*
X125022271Y-84800703D01*
X125137029Y-84836456D01*
X125191125Y-84847639D01*
X125305590Y-84859358D01*
X125420210Y-84855171D01*
X125533167Y-84835840D01*
X125642648Y-84802128D01*
X125746834Y-84754798D01*
X125843910Y-84694611D01*
X125932060Y-84622332D01*
X126009467Y-84538723D01*
X126046700Y-84488338D01*
X126070055Y-84451055D01*
X126095205Y-84406240D01*
X126119522Y-84359038D01*
X126140382Y-84314592D01*
X126155159Y-84278045D01*
X126157314Y-84271633D01*
X126186435Y-84202917D01*
X126227168Y-84139500D01*
X126276916Y-84084245D01*
X126333078Y-84040013D01*
X126393056Y-84009665D01*
X126396327Y-84008486D01*
X126412003Y-84003952D01*
X126442312Y-83996109D01*
X126485377Y-83985410D01*
X126539322Y-83972309D01*
X126602270Y-83957258D01*
X126672345Y-83940711D01*
X126747669Y-83923121D01*
X126800704Y-83910847D01*
X126890516Y-83890216D01*
X126965498Y-83873202D01*
X127027288Y-83859494D01*
X127077527Y-83848777D01*
X127117853Y-83840739D01*
X127149908Y-83835065D01*
X127175329Y-83831443D01*
X127195758Y-83829560D01*
X127212833Y-83829101D01*
X127225922Y-83829597D01*
X127290970Y-83841093D01*
X127348924Y-83867176D01*
X127401538Y-83908732D01*
X127419049Y-83927133D01*
X127460224Y-83978825D01*
X127487623Y-84027419D01*
X127502914Y-84076765D01*
X127507764Y-84130711D01*
X127507766Y-84131933D01*
X127507766Y-84195433D01*
X127402875Y-84411333D01*
X127366023Y-84486758D01*
X127335134Y-84548776D01*
X127309056Y-84599344D01*
X127286635Y-84640421D01*
X127266717Y-84673963D01*
X127248150Y-84701928D01*
X127229780Y-84726274D01*
X127210453Y-84748960D01*
X127192699Y-84768098D01*
X127123824Y-84829754D01*
X127045904Y-84879214D01*
X126957267Y-84917366D01*
X126862232Y-84943812D01*
X126729787Y-84980678D01*
X126606031Y-85031286D01*
X126491767Y-85095034D01*
X126387801Y-85171324D01*
X126294939Y-85259554D01*
X126213985Y-85359125D01*
X126145745Y-85469437D01*
X126138592Y-85483089D01*
X126083641Y-85606962D01*
X126044865Y-85732294D01*
X126021908Y-85857958D01*
X126014419Y-85982827D01*
X126022043Y-86105774D01*
X126044426Y-86225673D01*
X126081214Y-86341397D01*
X126132055Y-86451818D01*
X126196594Y-86555810D01*
X126274478Y-86652246D01*
X126365352Y-86740000D01*
X126468863Y-86817944D01*
X126577489Y-86881321D01*
X126682227Y-86929427D01*
X126784086Y-86964549D01*
X126888551Y-86988423D01*
X126940499Y-86996303D01*
X126984362Y-86999743D01*
X127038906Y-87000693D01*
X127098086Y-86999299D01*
X127155855Y-86995708D01*
X127206167Y-86990062D01*
X127207235Y-86989902D01*
X127337090Y-86962115D01*
X127459783Y-86918983D01*
X127575311Y-86860508D01*
X127683673Y-86786692D01*
X127784864Y-86697536D01*
X127788240Y-86694173D01*
X127876154Y-86594847D01*
X127949400Y-86488136D01*
X128007864Y-86375312D01*
X128051430Y-86257645D01*
X128079986Y-86136408D01*
X128093417Y-86012870D01*
X128091608Y-85888303D01*
X128074446Y-85763978D01*
X128041815Y-85641166D01*
X127993603Y-85521139D01*
X127929694Y-85405167D01*
X127907181Y-85370973D01*
X127845911Y-85269738D01*
X127801305Y-85168963D01*
X127773138Y-85067835D01*
X127761189Y-84965537D01*
X127765234Y-84861257D01*
X127766010Y-84854678D01*
X127770845Y-84825802D01*
X127779494Y-84784781D01*
X127791218Y-84734379D01*
X127805275Y-84677361D01*
X127820924Y-84616489D01*
X127837426Y-84554529D01*
X127854039Y-84494244D01*
X127870024Y-84438398D01*
X127884638Y-84389755D01*
X127897143Y-84351079D01*
X127906796Y-84325135D01*
X127909426Y-84319453D01*
X127935755Y-84279707D01*
X127970457Y-84248768D01*
X128016094Y-84224981D01*
X128075227Y-84206691D01*
X128088749Y-84203580D01*
X128123240Y-84193842D01*
X128166280Y-84178560D01*
X128211459Y-84160127D01*
X128239795Y-84147176D01*
X128280142Y-84126957D01*
X128311796Y-84108583D01*
X128339708Y-84088471D01*
X128368828Y-84063040D01*
X128404105Y-84028708D01*
X128405617Y-84027197D01*
X128441509Y-83990205D01*
X128468197Y-83959411D01*
X128489288Y-83929942D01*
X128508390Y-83896921D01*
X128522321Y-83869466D01*
X128552122Y-83803304D01*
X128572611Y-83743482D01*
X128585578Y-83683556D01*
X128592815Y-83617082D01*
X128592926Y-83615466D01*
X128591799Y-83530595D01*
X128578184Y-83442536D01*
X128553700Y-83359711D01*
X128517158Y-83284011D01*
X128466391Y-83210357D01*
X128404098Y-83141416D01*
X128332976Y-83079857D01*
X128255723Y-83028346D01*
X128182202Y-82992385D01*
X128121410Y-82970078D01*
X128067257Y-82956017D01*
X128012868Y-82949023D01*
X127951365Y-82947919D01*
X127927085Y-82948699D01*
X127833201Y-82957941D01*
X127749113Y-82978266D01*
X127671872Y-83011000D01*
X127598530Y-83057464D01*
X127526138Y-83118983D01*
X127507766Y-83136947D01*
X127467927Y-83178650D01*
X127437715Y-83215050D01*
X127413310Y-83251140D01*
X127394299Y-83285266D01*
X127355422Y-83352943D01*
X127315556Y-83406189D01*
X127272240Y-83447442D01*
X127223015Y-83479140D01*
X127178797Y-83498853D01*
X127161222Y-83503160D01*
X127128905Y-83508714D01*
X127083975Y-83515284D01*
X127028557Y-83522640D01*
X126964781Y-83530555D01*
X126894772Y-83538797D01*
X126820659Y-83547138D01*
X126744569Y-83555347D01*
X126668629Y-83563196D01*
X126594967Y-83570455D01*
X126525710Y-83576893D01*
X126462985Y-83582283D01*
X126408920Y-83586393D01*
X126365642Y-83588995D01*
X126335350Y-83589859D01*
X126276151Y-83587291D01*
X126224081Y-83579050D01*
X126176287Y-83563715D01*
X126129918Y-83539861D01*
X126082123Y-83506066D01*
X126030048Y-83460906D01*
X125980608Y-83412843D01*
X125910739Y-83345729D01*
X125845963Y-83291063D01*
X125782826Y-83246679D01*
X125717878Y-83210405D01*
X125647664Y-83180073D01*
X125568732Y-83153514D01*
X125567071Y-83153015D01*
X125505674Y-83139000D01*
X125433572Y-83129556D01*
X125356430Y-83124916D01*
X125279913Y-83125317D01*
X125209686Y-83130991D01*
X125174299Y-83136745D01*
X125055815Y-83169069D01*
X124944721Y-83216465D01*
X124841776Y-83278540D01*
X124747735Y-83354906D01*
X124743144Y-83359221D01*
X124659176Y-83449904D01*
X124589727Y-83549278D01*
X124534708Y-83657496D01*
X124494028Y-83774710D01*
X124491768Y-83783057D01*
X124482782Y-83819118D01*
X124476609Y-83851130D01*
X124472747Y-83883898D01*
X124470694Y-83922225D01*
X124469947Y-83970915D01*
X124469902Y-83992233D01*
X123666145Y-83992233D01*
X123705382Y-83840261D01*
X123778556Y-83624509D01*
X123824851Y-83509889D01*
X123923321Y-83300443D01*
X124035513Y-83100371D01*
X124160769Y-82910190D01*
X124298429Y-82730415D01*
X124447836Y-82561563D01*
X124608330Y-82404149D01*
X124779253Y-82258689D01*
X124959947Y-82125700D01*
X125149751Y-82005696D01*
X125348008Y-81899194D01*
X125554058Y-81806709D01*
X125767244Y-81728758D01*
X125986906Y-81665856D01*
X126212385Y-81618520D01*
X126247522Y-81612656D01*
X126413596Y-81591362D01*
X126589102Y-81578961D01*
X126769060Y-81575453D01*
X126948493Y-81580839D01*
D12*
X159712779Y-119490000D02*
X159387221Y-119490000D01*
X159712779Y-120510000D02*
X159387221Y-120510000D01*
X165912779Y-119440000D02*
X165587221Y-119440000D01*
X165912779Y-120460000D02*
X165587221Y-120460000D01*
X163526000Y-96831279D02*
X163526000Y-96505721D01*
X162506000Y-96831279D02*
X162506000Y-96505721D01*
X125437221Y-101210000D02*
X125762779Y-101210000D01*
X125437221Y-100190000D02*
X125762779Y-100190000D01*
X118290000Y-95887221D02*
X118290000Y-96212779D01*
X119310000Y-95887221D02*
X119310000Y-96212779D01*
X165962779Y-121440000D02*
X165637221Y-121440000D01*
X165962779Y-122460000D02*
X165637221Y-122460000D01*
X162340000Y-124837221D02*
X162340000Y-125162779D01*
X163360000Y-124837221D02*
X163360000Y-125162779D01*
X138016000Y-97584721D02*
X138016000Y-97910279D01*
X139036000Y-97584721D02*
X139036000Y-97910279D01*
X158220000Y-126010000D02*
X158220000Y-124550000D01*
X161380000Y-126010000D02*
X161380000Y-123850000D01*
X161380000Y-126010000D02*
X160450000Y-126010000D01*
X158220000Y-126010000D02*
X159150000Y-126010000D01*
X140016000Y-104068721D02*
X140016000Y-104394279D01*
X141036000Y-104068721D02*
X141036000Y-104394279D01*
X146920721Y-108045000D02*
X147246279Y-108045000D01*
X146920721Y-107025000D02*
X147246279Y-107025000D01*
X153556000Y-97910279D02*
X153556000Y-97584721D01*
X152536000Y-97910279D02*
X152536000Y-97584721D01*
X157446279Y-96713000D02*
X157120721Y-96713000D01*
X157446279Y-97733000D02*
X157120721Y-97733000D01*
X157438279Y-100959000D02*
X157112721Y-100959000D01*
X157438279Y-101979000D02*
X157112721Y-101979000D01*
X157438279Y-103499000D02*
X157112721Y-103499000D01*
X157438279Y-104519000D02*
X157112721Y-104519000D01*
X138016000Y-104068721D02*
X138016000Y-104394279D01*
X139036000Y-104068721D02*
X139036000Y-104394279D01*
X173091279Y-107294000D02*
X172765721Y-107294000D01*
X173091279Y-108314000D02*
X172765721Y-108314000D01*
X173101279Y-113824000D02*
X172775721Y-113824000D01*
X173101279Y-114844000D02*
X172775721Y-114844000D01*
X160093000Y-102728721D02*
X160093000Y-103054279D01*
X161113000Y-102728721D02*
X161113000Y-103054279D01*
X173245500Y-99117721D02*
X173245500Y-99443279D01*
X174265500Y-99117721D02*
X174265500Y-99443279D01*
X165498279Y-93339000D02*
X165172721Y-93339000D01*
X165498279Y-94359000D02*
X165172721Y-94359000D01*
X174062721Y-96844000D02*
X174388279Y-96844000D01*
X174062721Y-95824000D02*
X174388279Y-95824000D01*
X150420721Y-108045000D02*
X150746279Y-108045000D01*
X150420721Y-107025000D02*
X150746279Y-107025000D01*
D13*
X144666000Y-96746000D02*
X143766000Y-96746000D01*
X144666000Y-96346000D02*
X144666000Y-96746000D01*
X145266000Y-96346000D02*
X144666000Y-96346000D01*
X149266000Y-96346000D02*
X148866000Y-96346000D01*
X149266000Y-96746000D02*
X149266000Y-96346000D01*
X149366000Y-105746000D02*
X148866000Y-105746000D01*
X149366000Y-105346000D02*
X149366000Y-105746000D01*
X144666000Y-105646000D02*
X145066000Y-105646000D01*
X144666000Y-105346000D02*
X144666000Y-105646000D01*
D12*
X166063000Y-101539000D02*
X166063000Y-102854000D01*
X165613000Y-101539000D02*
X166063000Y-101539000D01*
X165613000Y-101089000D02*
X165613000Y-101539000D01*
X165613000Y-96319000D02*
X166063000Y-96319000D01*
X165613000Y-96769000D02*
X165613000Y-96319000D01*
X170833000Y-101539000D02*
X170383000Y-101539000D01*
X170833000Y-101089000D02*
X170833000Y-101539000D01*
X170833000Y-96319000D02*
X170383000Y-96319000D01*
X170833000Y-96769000D02*
X170833000Y-96319000D01*
X143786721Y-122957000D02*
X144112279Y-122957000D01*
X143786721Y-121937000D02*
X144112279Y-121937000D01*
X146733221Y-127783000D02*
X147058779Y-127783000D01*
X146733221Y-126763000D02*
X147058779Y-126763000D01*
X145247000Y-125175279D02*
X145247000Y-124849721D01*
X144227000Y-125175279D02*
X144227000Y-124849721D01*
X168140000Y-123187221D02*
X168140000Y-123512779D01*
X169160000Y-123187221D02*
X169160000Y-123512779D01*
X121812779Y-103190000D02*
X121487221Y-103190000D01*
X121812779Y-104210000D02*
X121487221Y-104210000D01*
X120212779Y-101540000D02*
X119887221Y-101540000D01*
X120212779Y-102560000D02*
X119887221Y-102560000D01*
X125812779Y-97540000D02*
X125487221Y-97540000D01*
X125812779Y-98560000D02*
X125487221Y-98560000D01*
X121019000Y-92367000D02*
X122819000Y-92367000D01*
X121019000Y-95567000D02*
X122819000Y-95567000D01*
X141384000Y-101062721D02*
X141384000Y-101388279D01*
X142404000Y-101062721D02*
X142404000Y-101388279D01*
X119939000Y-97872000D02*
X119939000Y-100322000D01*
X123159000Y-99672000D02*
X123159000Y-97872000D01*
X164170000Y-125960000D02*
X164170000Y-124500000D01*
X167330000Y-125960000D02*
X167330000Y-123800000D01*
X167330000Y-125960000D02*
X166400000Y-125960000D01*
X164170000Y-125960000D02*
X165100000Y-125960000D01*
X174646000Y-111924000D02*
X174646000Y-109474000D01*
X171426000Y-110124000D02*
X171426000Y-111924000D01*
X141036000Y-97910279D02*
X141036000Y-97584721D01*
X140016000Y-97910279D02*
X140016000Y-97584721D01*
X146955721Y-95333000D02*
X147281279Y-95333000D01*
X146955721Y-94313000D02*
X147281279Y-94313000D01*
X157446279Y-98745000D02*
X157120721Y-98745000D01*
X157446279Y-99765000D02*
X157120721Y-99765000D01*
X150284000Y-125641000D02*
X153734000Y-125641000D01*
X150284000Y-125641000D02*
X148334000Y-125641000D01*
X150284000Y-120521000D02*
X152234000Y-120521000D01*
X150284000Y-120521000D02*
X148334000Y-120521000D01*
X174388279Y-94109000D02*
X174062721Y-94109000D01*
X174388279Y-95129000D02*
X174062721Y-95129000D01*
X161113000Y-99319279D02*
X161113000Y-98993721D01*
X160093000Y-99319279D02*
X160093000Y-98993721D01*
D10*
X150738095Y-92452380D02*
X150738095Y-91452380D01*
X150738095Y-91928571D02*
X151309523Y-91928571D01*
X151309523Y-92452380D02*
X151309523Y-91452380D01*
X151738095Y-91547619D02*
X151785714Y-91500000D01*
X151880952Y-91452380D01*
X152119047Y-91452380D01*
X152214285Y-91500000D01*
X152261904Y-91547619D01*
X152309523Y-91642857D01*
X152309523Y-91738095D01*
X152261904Y-91880952D01*
X151690476Y-92452380D01*
X152309523Y-92452380D01*
X176416666Y-86452380D02*
X176416666Y-87166666D01*
X176369047Y-87309523D01*
X176273809Y-87404761D01*
X176130952Y-87452380D01*
X176035714Y-87452380D01*
X177416666Y-87452380D02*
X176845238Y-87452380D01*
X177130952Y-87452380D02*
X177130952Y-86452380D01*
X177035714Y-86595238D01*
X176940476Y-86690476D01*
X176845238Y-86738095D01*
X158907142Y-121882380D02*
X158573809Y-121406190D01*
X158335714Y-121882380D02*
X158335714Y-120882380D01*
X158716666Y-120882380D01*
X158811904Y-120930000D01*
X158859523Y-120977619D01*
X158907142Y-121072857D01*
X158907142Y-121215714D01*
X158859523Y-121310952D01*
X158811904Y-121358571D01*
X158716666Y-121406190D01*
X158335714Y-121406190D01*
X159859523Y-121882380D02*
X159288095Y-121882380D01*
X159573809Y-121882380D02*
X159573809Y-120882380D01*
X159478571Y-121025238D01*
X159383333Y-121120476D01*
X159288095Y-121168095D01*
X160430952Y-121310952D02*
X160335714Y-121263333D01*
X160288095Y-121215714D01*
X160240476Y-121120476D01*
X160240476Y-121072857D01*
X160288095Y-120977619D01*
X160335714Y-120930000D01*
X160430952Y-120882380D01*
X160621428Y-120882380D01*
X160716666Y-120930000D01*
X160764285Y-120977619D01*
X160811904Y-121072857D01*
X160811904Y-121120476D01*
X160764285Y-121215714D01*
X160716666Y-121263333D01*
X160621428Y-121310952D01*
X160430952Y-121310952D01*
X160335714Y-121358571D01*
X160288095Y-121406190D01*
X160240476Y-121501428D01*
X160240476Y-121691904D01*
X160288095Y-121787142D01*
X160335714Y-121834761D01*
X160430952Y-121882380D01*
X160621428Y-121882380D01*
X160716666Y-121834761D01*
X160764285Y-121787142D01*
X160811904Y-121691904D01*
X160811904Y-121501428D01*
X160764285Y-121406190D01*
X160716666Y-121358571D01*
X160621428Y-121310952D01*
X165107142Y-118952380D02*
X164773809Y-118476190D01*
X164535714Y-118952380D02*
X164535714Y-117952380D01*
X164916666Y-117952380D01*
X165011904Y-118000000D01*
X165059523Y-118047619D01*
X165107142Y-118142857D01*
X165107142Y-118285714D01*
X165059523Y-118380952D01*
X165011904Y-118428571D01*
X164916666Y-118476190D01*
X164535714Y-118476190D01*
X166059523Y-118952380D02*
X165488095Y-118952380D01*
X165773809Y-118952380D02*
X165773809Y-117952380D01*
X165678571Y-118095238D01*
X165583333Y-118190476D01*
X165488095Y-118238095D01*
X166392857Y-117952380D02*
X167059523Y-117952380D01*
X166630952Y-118952380D01*
X146738095Y-117952380D02*
X146738095Y-116952380D01*
X146738095Y-117428571D02*
X147309523Y-117428571D01*
X147309523Y-117952380D02*
X147309523Y-116952380D01*
X147928571Y-117380952D02*
X147833333Y-117333333D01*
X147785714Y-117285714D01*
X147738095Y-117190476D01*
X147738095Y-117142857D01*
X147785714Y-117047619D01*
X147833333Y-117000000D01*
X147928571Y-116952380D01*
X148119047Y-116952380D01*
X148214285Y-117000000D01*
X148261904Y-117047619D01*
X148309523Y-117142857D01*
X148309523Y-117190476D01*
X148261904Y-117285714D01*
X148214285Y-117333333D01*
X148119047Y-117380952D01*
X147928571Y-117380952D01*
X147833333Y-117428571D01*
X147785714Y-117476190D01*
X147738095Y-117571428D01*
X147738095Y-117761904D01*
X147785714Y-117857142D01*
X147833333Y-117904761D01*
X147928571Y-117952380D01*
X148119047Y-117952380D01*
X148214285Y-117904761D01*
X148261904Y-117857142D01*
X148309523Y-117761904D01*
X148309523Y-117571428D01*
X148261904Y-117476190D01*
X148214285Y-117428571D01*
X148119047Y-117380952D01*
X175738095Y-123252380D02*
X175738095Y-122252380D01*
X175738095Y-122728571D02*
X176309523Y-122728571D01*
X176309523Y-123252380D02*
X176309523Y-122252380D01*
X176690476Y-122252380D02*
X177357142Y-122252380D01*
X176928571Y-123252380D01*
X137738095Y-90252380D02*
X137738095Y-89252380D01*
X137738095Y-89728571D02*
X138309523Y-89728571D01*
X138309523Y-90252380D02*
X138309523Y-89252380D01*
X139214285Y-89252380D02*
X139023809Y-89252380D01*
X138928571Y-89300000D01*
X138880952Y-89347619D01*
X138785714Y-89490476D01*
X138738095Y-89680952D01*
X138738095Y-90061904D01*
X138785714Y-90157142D01*
X138833333Y-90204761D01*
X138928571Y-90252380D01*
X139119047Y-90252380D01*
X139214285Y-90204761D01*
X139261904Y-90157142D01*
X139309523Y-90061904D01*
X139309523Y-89823809D01*
X139261904Y-89728571D01*
X139214285Y-89680952D01*
X139119047Y-89633333D01*
X138928571Y-89633333D01*
X138833333Y-89680952D01*
X138785714Y-89728571D01*
X138738095Y-89823809D01*
X117738095Y-123252380D02*
X117738095Y-122252380D01*
X117738095Y-122728571D02*
X118309523Y-122728571D01*
X118309523Y-123252380D02*
X118309523Y-122252380D01*
X119214285Y-122585714D02*
X119214285Y-123252380D01*
X118976190Y-122204761D02*
X118738095Y-122919047D01*
X119357142Y-122919047D01*
X155738095Y-90252380D02*
X155738095Y-89252380D01*
X155738095Y-89728571D02*
X156309523Y-89728571D01*
X156309523Y-90252380D02*
X156309523Y-89252380D01*
X156690476Y-89252380D02*
X157309523Y-89252380D01*
X156976190Y-89633333D01*
X157119047Y-89633333D01*
X157214285Y-89680952D01*
X157261904Y-89728571D01*
X157309523Y-89823809D01*
X157309523Y-90061904D01*
X157261904Y-90157142D01*
X157214285Y-90204761D01*
X157119047Y-90252380D01*
X156833333Y-90252380D01*
X156738095Y-90204761D01*
X156690476Y-90157142D01*
X142738095Y-92452380D02*
X142738095Y-91452380D01*
X142738095Y-91928571D02*
X143309523Y-91928571D01*
X143309523Y-92452380D02*
X143309523Y-91452380D01*
X143738095Y-91547619D02*
X143785714Y-91500000D01*
X143880952Y-91452380D01*
X144119047Y-91452380D01*
X144214285Y-91500000D01*
X144261904Y-91547619D01*
X144309523Y-91642857D01*
X144309523Y-91738095D01*
X144261904Y-91880952D01*
X143690476Y-92452380D01*
X144309523Y-92452380D01*
X117738095Y-87702380D02*
X117738095Y-86702380D01*
X117738095Y-87178571D02*
X118309523Y-87178571D01*
X118309523Y-87702380D02*
X118309523Y-86702380D01*
X119309523Y-87702380D02*
X118738095Y-87702380D01*
X119023809Y-87702380D02*
X119023809Y-86702380D01*
X118928571Y-86845238D01*
X118833333Y-86940476D01*
X118738095Y-86988095D01*
X161943142Y-97311357D02*
X161990761Y-97358976D01*
X162038380Y-97501833D01*
X162038380Y-97597071D01*
X161990761Y-97739928D01*
X161895523Y-97835166D01*
X161800285Y-97882785D01*
X161609809Y-97930404D01*
X161466952Y-97930404D01*
X161276476Y-97882785D01*
X161181238Y-97835166D01*
X161086000Y-97739928D01*
X161038380Y-97597071D01*
X161038380Y-97501833D01*
X161086000Y-97358976D01*
X161133619Y-97311357D01*
X162038380Y-96358976D02*
X162038380Y-96930404D01*
X162038380Y-96644690D02*
X161038380Y-96644690D01*
X161181238Y-96739928D01*
X161276476Y-96835166D01*
X161324095Y-96930404D01*
X161371714Y-95501833D02*
X162038380Y-95501833D01*
X160990761Y-95739928D02*
X161705047Y-95978023D01*
X161705047Y-95358976D01*
X125433333Y-102557142D02*
X125385714Y-102604761D01*
X125242857Y-102652380D01*
X125147619Y-102652380D01*
X125004761Y-102604761D01*
X124909523Y-102509523D01*
X124861904Y-102414285D01*
X124814285Y-102223809D01*
X124814285Y-102080952D01*
X124861904Y-101890476D01*
X124909523Y-101795238D01*
X125004761Y-101700000D01*
X125147619Y-101652380D01*
X125242857Y-101652380D01*
X125385714Y-101700000D01*
X125433333Y-101747619D01*
X125766666Y-101652380D02*
X126385714Y-101652380D01*
X126052380Y-102033333D01*
X126195238Y-102033333D01*
X126290476Y-102080952D01*
X126338095Y-102128571D01*
X126385714Y-102223809D01*
X126385714Y-102461904D01*
X126338095Y-102557142D01*
X126290476Y-102604761D01*
X126195238Y-102652380D01*
X125909523Y-102652380D01*
X125814285Y-102604761D01*
X125766666Y-102557142D01*
X117357142Y-96166666D02*
X117404761Y-96214285D01*
X117452380Y-96357142D01*
X117452380Y-96452380D01*
X117404761Y-96595238D01*
X117309523Y-96690476D01*
X117214285Y-96738095D01*
X117023809Y-96785714D01*
X116880952Y-96785714D01*
X116690476Y-96738095D01*
X116595238Y-96690476D01*
X116500000Y-96595238D01*
X116452380Y-96452380D01*
X116452380Y-96357142D01*
X116500000Y-96214285D01*
X116547619Y-96166666D01*
X117452380Y-95214285D02*
X117452380Y-95785714D01*
X117452380Y-95500000D02*
X116452380Y-95500000D01*
X116595238Y-95595238D01*
X116690476Y-95690476D01*
X116738095Y-95785714D01*
X167833333Y-121607142D02*
X167785714Y-121654761D01*
X167642857Y-121702380D01*
X167547619Y-121702380D01*
X167404761Y-121654761D01*
X167309523Y-121559523D01*
X167261904Y-121464285D01*
X167214285Y-121273809D01*
X167214285Y-121130952D01*
X167261904Y-120940476D01*
X167309523Y-120845238D01*
X167404761Y-120750000D01*
X167547619Y-120702380D01*
X167642857Y-120702380D01*
X167785714Y-120750000D01*
X167833333Y-120797619D01*
X168738095Y-120702380D02*
X168261904Y-120702380D01*
X168214285Y-121178571D01*
X168261904Y-121130952D01*
X168357142Y-121083333D01*
X168595238Y-121083333D01*
X168690476Y-121130952D01*
X168738095Y-121178571D01*
X168785714Y-121273809D01*
X168785714Y-121511904D01*
X168738095Y-121607142D01*
X168690476Y-121654761D01*
X168595238Y-121702380D01*
X168357142Y-121702380D01*
X168261904Y-121654761D01*
X168214285Y-121607142D01*
X162333333Y-123607142D02*
X162285714Y-123654761D01*
X162142857Y-123702380D01*
X162047619Y-123702380D01*
X161904761Y-123654761D01*
X161809523Y-123559523D01*
X161761904Y-123464285D01*
X161714285Y-123273809D01*
X161714285Y-123130952D01*
X161761904Y-122940476D01*
X161809523Y-122845238D01*
X161904761Y-122750000D01*
X162047619Y-122702380D01*
X162142857Y-122702380D01*
X162285714Y-122750000D01*
X162333333Y-122797619D01*
X163190476Y-122702380D02*
X163000000Y-122702380D01*
X162904761Y-122750000D01*
X162857142Y-122797619D01*
X162761904Y-122940476D01*
X162714285Y-123130952D01*
X162714285Y-123511904D01*
X162761904Y-123607142D01*
X162809523Y-123654761D01*
X162904761Y-123702380D01*
X163095238Y-123702380D01*
X163190476Y-123654761D01*
X163238095Y-123607142D01*
X163285714Y-123511904D01*
X163285714Y-123273809D01*
X163238095Y-123178571D01*
X163190476Y-123130952D01*
X163095238Y-123083333D01*
X162904761Y-123083333D01*
X162809523Y-123130952D01*
X162761904Y-123178571D01*
X162714285Y-123273809D01*
X137357142Y-97666666D02*
X137404761Y-97714285D01*
X137452380Y-97857142D01*
X137452380Y-97952380D01*
X137404761Y-98095238D01*
X137309523Y-98190476D01*
X137214285Y-98238095D01*
X137023809Y-98285714D01*
X136880952Y-98285714D01*
X136690476Y-98238095D01*
X136595238Y-98190476D01*
X136500000Y-98095238D01*
X136452380Y-97952380D01*
X136452380Y-97857142D01*
X136500000Y-97714285D01*
X136547619Y-97666666D01*
X136880952Y-97095238D02*
X136833333Y-97190476D01*
X136785714Y-97238095D01*
X136690476Y-97285714D01*
X136642857Y-97285714D01*
X136547619Y-97238095D01*
X136500000Y-97190476D01*
X136452380Y-97095238D01*
X136452380Y-96904761D01*
X136500000Y-96809523D01*
X136547619Y-96761904D01*
X136642857Y-96714285D01*
X136690476Y-96714285D01*
X136785714Y-96761904D01*
X136833333Y-96809523D01*
X136880952Y-96904761D01*
X136880952Y-97095238D01*
X136928571Y-97190476D01*
X136976190Y-97238095D01*
X137071428Y-97285714D01*
X137261904Y-97285714D01*
X137357142Y-97238095D01*
X137404761Y-97190476D01*
X137452380Y-97095238D01*
X137452380Y-96904761D01*
X137404761Y-96809523D01*
X137357142Y-96761904D01*
X137261904Y-96714285D01*
X137071428Y-96714285D01*
X136976190Y-96761904D01*
X136928571Y-96809523D01*
X136880952Y-96904761D01*
X158988095Y-127202380D02*
X158988095Y-128011904D01*
X159035714Y-128107142D01*
X159083333Y-128154761D01*
X159178571Y-128202380D01*
X159369047Y-128202380D01*
X159464285Y-128154761D01*
X159511904Y-128107142D01*
X159559523Y-128011904D01*
X159559523Y-127202380D01*
X160464285Y-127535714D02*
X160464285Y-128202380D01*
X160226190Y-127154761D02*
X159988095Y-127869047D01*
X160607142Y-127869047D01*
X142408380Y-104398166D02*
X141932190Y-104731500D01*
X142408380Y-104969595D02*
X141408380Y-104969595D01*
X141408380Y-104588642D01*
X141456000Y-104493404D01*
X141503619Y-104445785D01*
X141598857Y-104398166D01*
X141741714Y-104398166D01*
X141836952Y-104445785D01*
X141884571Y-104493404D01*
X141932190Y-104588642D01*
X141932190Y-104969595D01*
X141408380Y-104064833D02*
X141408380Y-103398166D01*
X142408380Y-103826738D01*
X144083333Y-108202380D02*
X143750000Y-107726190D01*
X143511904Y-108202380D02*
X143511904Y-107202380D01*
X143892857Y-107202380D01*
X143988095Y-107250000D01*
X144035714Y-107297619D01*
X144083333Y-107392857D01*
X144083333Y-107535714D01*
X144035714Y-107630952D01*
X143988095Y-107678571D01*
X143892857Y-107726190D01*
X143511904Y-107726190D01*
X144559523Y-108202380D02*
X144750000Y-108202380D01*
X144845238Y-108154761D01*
X144892857Y-108107142D01*
X144988095Y-107964285D01*
X145035714Y-107773809D01*
X145035714Y-107392857D01*
X144988095Y-107297619D01*
X144940476Y-107250000D01*
X144845238Y-107202380D01*
X144654761Y-107202380D01*
X144559523Y-107250000D01*
X144511904Y-107297619D01*
X144464285Y-107392857D01*
X144464285Y-107630952D01*
X144511904Y-107726190D01*
X144559523Y-107773809D01*
X144654761Y-107821428D01*
X144845238Y-107821428D01*
X144940476Y-107773809D01*
X144988095Y-107726190D01*
X145035714Y-107630952D01*
X152202380Y-98142857D02*
X151726190Y-98476190D01*
X152202380Y-98714285D02*
X151202380Y-98714285D01*
X151202380Y-98333333D01*
X151250000Y-98238095D01*
X151297619Y-98190476D01*
X151392857Y-98142857D01*
X151535714Y-98142857D01*
X151630952Y-98190476D01*
X151678571Y-98238095D01*
X151726190Y-98333333D01*
X151726190Y-98714285D01*
X152202380Y-97190476D02*
X152202380Y-97761904D01*
X152202380Y-97476190D02*
X151202380Y-97476190D01*
X151345238Y-97571428D01*
X151440476Y-97666666D01*
X151488095Y-97761904D01*
X151202380Y-96571428D02*
X151202380Y-96476190D01*
X151250000Y-96380952D01*
X151297619Y-96333333D01*
X151392857Y-96285714D01*
X151583333Y-96238095D01*
X151821428Y-96238095D01*
X152011904Y-96285714D01*
X152107142Y-96333333D01*
X152154761Y-96380952D01*
X152202380Y-96476190D01*
X152202380Y-96571428D01*
X152154761Y-96666666D01*
X152107142Y-96714285D01*
X152011904Y-96761904D01*
X151821428Y-96809523D01*
X151583333Y-96809523D01*
X151392857Y-96761904D01*
X151297619Y-96714285D01*
X151250000Y-96666666D01*
X151202380Y-96571428D01*
X156640642Y-96278380D02*
X156307309Y-95802190D01*
X156069214Y-96278380D02*
X156069214Y-95278380D01*
X156450166Y-95278380D01*
X156545404Y-95326000D01*
X156593023Y-95373619D01*
X156640642Y-95468857D01*
X156640642Y-95611714D01*
X156593023Y-95706952D01*
X156545404Y-95754571D01*
X156450166Y-95802190D01*
X156069214Y-95802190D01*
X157593023Y-96278380D02*
X157021595Y-96278380D01*
X157307309Y-96278380D02*
X157307309Y-95278380D01*
X157212071Y-95421238D01*
X157116833Y-95516476D01*
X157021595Y-95564095D01*
X157926357Y-95278380D02*
X158545404Y-95278380D01*
X158212071Y-95659333D01*
X158354928Y-95659333D01*
X158450166Y-95706952D01*
X158497785Y-95754571D01*
X158545404Y-95849809D01*
X158545404Y-96087904D01*
X158497785Y-96183142D01*
X158450166Y-96230761D01*
X158354928Y-96278380D01*
X158069214Y-96278380D01*
X157973976Y-96230761D01*
X157926357Y-96183142D01*
X156632642Y-103351380D02*
X156299309Y-102875190D01*
X156061214Y-103351380D02*
X156061214Y-102351380D01*
X156442166Y-102351380D01*
X156537404Y-102399000D01*
X156585023Y-102446619D01*
X156632642Y-102541857D01*
X156632642Y-102684714D01*
X156585023Y-102779952D01*
X156537404Y-102827571D01*
X156442166Y-102875190D01*
X156061214Y-102875190D01*
X157585023Y-103351380D02*
X157013595Y-103351380D01*
X157299309Y-103351380D02*
X157299309Y-102351380D01*
X157204071Y-102494238D01*
X157108833Y-102589476D01*
X157013595Y-102637095D01*
X158442166Y-102684714D02*
X158442166Y-103351380D01*
X158204071Y-102303761D02*
X157965976Y-103018047D01*
X158585023Y-103018047D01*
X156632642Y-105891380D02*
X156299309Y-105415190D01*
X156061214Y-105891380D02*
X156061214Y-104891380D01*
X156442166Y-104891380D01*
X156537404Y-104939000D01*
X156585023Y-104986619D01*
X156632642Y-105081857D01*
X156632642Y-105224714D01*
X156585023Y-105319952D01*
X156537404Y-105367571D01*
X156442166Y-105415190D01*
X156061214Y-105415190D01*
X157585023Y-105891380D02*
X157013595Y-105891380D01*
X157299309Y-105891380D02*
X157299309Y-104891380D01*
X157204071Y-105034238D01*
X157108833Y-105129476D01*
X157013595Y-105177095D01*
X158489785Y-104891380D02*
X158013595Y-104891380D01*
X157965976Y-105367571D01*
X158013595Y-105319952D01*
X158108833Y-105272333D01*
X158346928Y-105272333D01*
X158442166Y-105319952D01*
X158489785Y-105367571D01*
X158537404Y-105462809D01*
X158537404Y-105700904D01*
X158489785Y-105796142D01*
X158442166Y-105843761D01*
X158346928Y-105891380D01*
X158108833Y-105891380D01*
X158013595Y-105843761D01*
X157965976Y-105796142D01*
X137298142Y-104338666D02*
X137345761Y-104386285D01*
X137393380Y-104529142D01*
X137393380Y-104624380D01*
X137345761Y-104767238D01*
X137250523Y-104862476D01*
X137155285Y-104910095D01*
X136964809Y-104957714D01*
X136821952Y-104957714D01*
X136631476Y-104910095D01*
X136536238Y-104862476D01*
X136441000Y-104767238D01*
X136393380Y-104624380D01*
X136393380Y-104529142D01*
X136441000Y-104386285D01*
X136488619Y-104338666D01*
X137393380Y-103862476D02*
X137393380Y-103672000D01*
X137345761Y-103576761D01*
X137298142Y-103529142D01*
X137155285Y-103433904D01*
X136964809Y-103386285D01*
X136583857Y-103386285D01*
X136488619Y-103433904D01*
X136441000Y-103481523D01*
X136393380Y-103576761D01*
X136393380Y-103767238D01*
X136441000Y-103862476D01*
X136488619Y-103910095D01*
X136583857Y-103957714D01*
X136821952Y-103957714D01*
X136917190Y-103910095D01*
X136964809Y-103862476D01*
X137012428Y-103767238D01*
X137012428Y-103576761D01*
X136964809Y-103481523D01*
X136917190Y-103433904D01*
X136821952Y-103386285D01*
X172285642Y-106661142D02*
X172238023Y-106708761D01*
X172095166Y-106756380D01*
X171999928Y-106756380D01*
X171857071Y-106708761D01*
X171761833Y-106613523D01*
X171714214Y-106518285D01*
X171666595Y-106327809D01*
X171666595Y-106184952D01*
X171714214Y-105994476D01*
X171761833Y-105899238D01*
X171857071Y-105804000D01*
X171999928Y-105756380D01*
X172095166Y-105756380D01*
X172238023Y-105804000D01*
X172285642Y-105851619D01*
X173238023Y-106756380D02*
X172666595Y-106756380D01*
X172952309Y-106756380D02*
X172952309Y-105756380D01*
X172857071Y-105899238D01*
X172761833Y-105994476D01*
X172666595Y-106042095D01*
X173857071Y-105756380D02*
X173952309Y-105756380D01*
X174047547Y-105804000D01*
X174095166Y-105851619D01*
X174142785Y-105946857D01*
X174190404Y-106137333D01*
X174190404Y-106375428D01*
X174142785Y-106565904D01*
X174095166Y-106661142D01*
X174047547Y-106708761D01*
X173952309Y-106756380D01*
X173857071Y-106756380D01*
X173761833Y-106708761D01*
X173714214Y-106661142D01*
X173666595Y-106565904D01*
X173618976Y-106375428D01*
X173618976Y-106137333D01*
X173666595Y-105946857D01*
X173714214Y-105851619D01*
X173761833Y-105804000D01*
X173857071Y-105756380D01*
X172295642Y-116121142D02*
X172248023Y-116168761D01*
X172105166Y-116216380D01*
X172009928Y-116216380D01*
X171867071Y-116168761D01*
X171771833Y-116073523D01*
X171724214Y-115978285D01*
X171676595Y-115787809D01*
X171676595Y-115644952D01*
X171724214Y-115454476D01*
X171771833Y-115359238D01*
X171867071Y-115264000D01*
X172009928Y-115216380D01*
X172105166Y-115216380D01*
X172248023Y-115264000D01*
X172295642Y-115311619D01*
X173248023Y-116216380D02*
X172676595Y-116216380D01*
X172962309Y-116216380D02*
X172962309Y-115216380D01*
X172867071Y-115359238D01*
X172771833Y-115454476D01*
X172676595Y-115502095D01*
X174200404Y-116216380D02*
X173628976Y-116216380D01*
X173914690Y-116216380D02*
X173914690Y-115216380D01*
X173819452Y-115359238D01*
X173724214Y-115454476D01*
X173628976Y-115502095D01*
X160095142Y-105581142D02*
X160047523Y-105628761D01*
X159904666Y-105676380D01*
X159809428Y-105676380D01*
X159666571Y-105628761D01*
X159571333Y-105533523D01*
X159523714Y-105438285D01*
X159476095Y-105247809D01*
X159476095Y-105104952D01*
X159523714Y-104914476D01*
X159571333Y-104819238D01*
X159666571Y-104724000D01*
X159809428Y-104676380D01*
X159904666Y-104676380D01*
X160047523Y-104724000D01*
X160095142Y-104771619D01*
X161047523Y-105676380D02*
X160476095Y-105676380D01*
X160761809Y-105676380D02*
X160761809Y-104676380D01*
X160666571Y-104819238D01*
X160571333Y-104914476D01*
X160476095Y-104962095D01*
X161380857Y-104676380D02*
X161999904Y-104676380D01*
X161666571Y-105057333D01*
X161809428Y-105057333D01*
X161904666Y-105104952D01*
X161952285Y-105152571D01*
X161999904Y-105247809D01*
X161999904Y-105485904D01*
X161952285Y-105581142D01*
X161904666Y-105628761D01*
X161809428Y-105676380D01*
X161523714Y-105676380D01*
X161428476Y-105628761D01*
X161380857Y-105581142D01*
X175607142Y-99892857D02*
X175654761Y-99940476D01*
X175702380Y-100083333D01*
X175702380Y-100178571D01*
X175654761Y-100321428D01*
X175559523Y-100416666D01*
X175464285Y-100464285D01*
X175273809Y-100511904D01*
X175130952Y-100511904D01*
X174940476Y-100464285D01*
X174845238Y-100416666D01*
X174750000Y-100321428D01*
X174702380Y-100178571D01*
X174702380Y-100083333D01*
X174750000Y-99940476D01*
X174797619Y-99892857D01*
X175702380Y-98940476D02*
X175702380Y-99511904D01*
X175702380Y-99226190D02*
X174702380Y-99226190D01*
X174845238Y-99321428D01*
X174940476Y-99416666D01*
X174988095Y-99511904D01*
X174702380Y-98035714D02*
X174702380Y-98511904D01*
X175178571Y-98559523D01*
X175130952Y-98511904D01*
X175083333Y-98416666D01*
X175083333Y-98178571D01*
X175130952Y-98083333D01*
X175178571Y-98035714D01*
X175273809Y-97988095D01*
X175511904Y-97988095D01*
X175607142Y-98035714D01*
X175654761Y-98083333D01*
X175702380Y-98178571D01*
X175702380Y-98416666D01*
X175654761Y-98511904D01*
X175607142Y-98559523D01*
X161607142Y-94107142D02*
X161559523Y-94154761D01*
X161416666Y-94202380D01*
X161321428Y-94202380D01*
X161178571Y-94154761D01*
X161083333Y-94059523D01*
X161035714Y-93964285D01*
X160988095Y-93773809D01*
X160988095Y-93630952D01*
X161035714Y-93440476D01*
X161083333Y-93345238D01*
X161178571Y-93250000D01*
X161321428Y-93202380D01*
X161416666Y-93202380D01*
X161559523Y-93250000D01*
X161607142Y-93297619D01*
X162559523Y-94202380D02*
X161988095Y-94202380D01*
X162273809Y-94202380D02*
X162273809Y-93202380D01*
X162178571Y-93345238D01*
X162083333Y-93440476D01*
X161988095Y-93488095D01*
X163416666Y-93202380D02*
X163226190Y-93202380D01*
X163130952Y-93250000D01*
X163083333Y-93297619D01*
X162988095Y-93440476D01*
X162940476Y-93630952D01*
X162940476Y-94011904D01*
X162988095Y-94107142D01*
X163035714Y-94154761D01*
X163130952Y-94202380D01*
X163321428Y-94202380D01*
X163416666Y-94154761D01*
X163464285Y-94107142D01*
X163511904Y-94011904D01*
X163511904Y-93773809D01*
X163464285Y-93678571D01*
X163416666Y-93630952D01*
X163321428Y-93583333D01*
X163130952Y-93583333D01*
X163035714Y-93630952D01*
X162988095Y-93678571D01*
X162940476Y-93773809D01*
X176440142Y-96726142D02*
X176392523Y-96773761D01*
X176249666Y-96821380D01*
X176154428Y-96821380D01*
X176011571Y-96773761D01*
X175916333Y-96678523D01*
X175868714Y-96583285D01*
X175821095Y-96392809D01*
X175821095Y-96249952D01*
X175868714Y-96059476D01*
X175916333Y-95964238D01*
X176011571Y-95869000D01*
X176154428Y-95821380D01*
X176249666Y-95821380D01*
X176392523Y-95869000D01*
X176440142Y-95916619D01*
X177392523Y-96821380D02*
X176821095Y-96821380D01*
X177106809Y-96821380D02*
X177106809Y-95821380D01*
X177011571Y-95964238D01*
X176916333Y-96059476D01*
X176821095Y-96107095D01*
X177725857Y-95821380D02*
X178392523Y-95821380D01*
X177963952Y-96821380D01*
X152857142Y-107952380D02*
X152523809Y-107476190D01*
X152285714Y-107952380D02*
X152285714Y-106952380D01*
X152666666Y-106952380D01*
X152761904Y-107000000D01*
X152809523Y-107047619D01*
X152857142Y-107142857D01*
X152857142Y-107285714D01*
X152809523Y-107380952D01*
X152761904Y-107428571D01*
X152666666Y-107476190D01*
X152285714Y-107476190D01*
X153809523Y-107952380D02*
X153238095Y-107952380D01*
X153523809Y-107952380D02*
X153523809Y-106952380D01*
X153428571Y-107095238D01*
X153333333Y-107190476D01*
X153238095Y-107238095D01*
X154761904Y-107952380D02*
X154190476Y-107952380D01*
X154476190Y-107952380D02*
X154476190Y-106952380D01*
X154380952Y-107095238D01*
X154285714Y-107190476D01*
X154190476Y-107238095D01*
X142488095Y-95202380D02*
X142488095Y-96011904D01*
X142535714Y-96107142D01*
X142583333Y-96154761D01*
X142678571Y-96202380D01*
X142869047Y-96202380D01*
X142964285Y-96154761D01*
X143011904Y-96107142D01*
X143059523Y-96011904D01*
X143059523Y-95202380D01*
X144011904Y-95202380D02*
X143535714Y-95202380D01*
X143488095Y-95678571D01*
X143535714Y-95630952D01*
X143630952Y-95583333D01*
X143869047Y-95583333D01*
X143964285Y-95630952D01*
X144011904Y-95678571D01*
X144059523Y-95773809D01*
X144059523Y-96011904D01*
X144011904Y-96107142D01*
X143964285Y-96154761D01*
X143869047Y-96202380D01*
X143630952Y-96202380D01*
X143535714Y-96154761D01*
X143488095Y-96107142D01*
X167088095Y-103533380D02*
X167088095Y-104342904D01*
X167135714Y-104438142D01*
X167183333Y-104485761D01*
X167278571Y-104533380D01*
X167469047Y-104533380D01*
X167564285Y-104485761D01*
X167611904Y-104438142D01*
X167659523Y-104342904D01*
X167659523Y-103533380D01*
X168040476Y-103533380D02*
X168707142Y-103533380D01*
X168278571Y-104533380D01*
X143782833Y-121374142D02*
X143735214Y-121421761D01*
X143592357Y-121469380D01*
X143497119Y-121469380D01*
X143354261Y-121421761D01*
X143259023Y-121326523D01*
X143211404Y-121231285D01*
X143163785Y-121040809D01*
X143163785Y-120897952D01*
X143211404Y-120707476D01*
X143259023Y-120612238D01*
X143354261Y-120517000D01*
X143497119Y-120469380D01*
X143592357Y-120469380D01*
X143735214Y-120517000D01*
X143782833Y-120564619D01*
X144163785Y-120564619D02*
X144211404Y-120517000D01*
X144306642Y-120469380D01*
X144544738Y-120469380D01*
X144639976Y-120517000D01*
X144687595Y-120564619D01*
X144735214Y-120659857D01*
X144735214Y-120755095D01*
X144687595Y-120897952D01*
X144116166Y-121469380D01*
X144735214Y-121469380D01*
X146729333Y-126295380D02*
X146396000Y-125819190D01*
X146157904Y-126295380D02*
X146157904Y-125295380D01*
X146538857Y-125295380D01*
X146634095Y-125343000D01*
X146681714Y-125390619D01*
X146729333Y-125485857D01*
X146729333Y-125628714D01*
X146681714Y-125723952D01*
X146634095Y-125771571D01*
X146538857Y-125819190D01*
X146157904Y-125819190D01*
X147681714Y-126295380D02*
X147110285Y-126295380D01*
X147396000Y-126295380D02*
X147396000Y-125295380D01*
X147300761Y-125438238D01*
X147205523Y-125533476D01*
X147110285Y-125581095D01*
X143759380Y-125179166D02*
X143283190Y-125512500D01*
X143759380Y-125750595D02*
X142759380Y-125750595D01*
X142759380Y-125369642D01*
X142807000Y-125274404D01*
X142854619Y-125226785D01*
X142949857Y-125179166D01*
X143092714Y-125179166D01*
X143187952Y-125226785D01*
X143235571Y-125274404D01*
X143283190Y-125369642D01*
X143283190Y-125750595D01*
X142854619Y-124798214D02*
X142807000Y-124750595D01*
X142759380Y-124655357D01*
X142759380Y-124417261D01*
X142807000Y-124322023D01*
X142854619Y-124274404D01*
X142949857Y-124226785D01*
X143045095Y-124226785D01*
X143187952Y-124274404D01*
X143759380Y-124845833D01*
X143759380Y-124226785D01*
X170532380Y-123516666D02*
X170056190Y-123850000D01*
X170532380Y-124088095D02*
X169532380Y-124088095D01*
X169532380Y-123707142D01*
X169580000Y-123611904D01*
X169627619Y-123564285D01*
X169722857Y-123516666D01*
X169865714Y-123516666D01*
X169960952Y-123564285D01*
X170008571Y-123611904D01*
X170056190Y-123707142D01*
X170056190Y-124088095D01*
X169532380Y-122611904D02*
X169532380Y-123088095D01*
X170008571Y-123135714D01*
X169960952Y-123088095D01*
X169913333Y-122992857D01*
X169913333Y-122754761D01*
X169960952Y-122659523D01*
X170008571Y-122611904D01*
X170103809Y-122564285D01*
X170341904Y-122564285D01*
X170437142Y-122611904D01*
X170484761Y-122659523D01*
X170532380Y-122754761D01*
X170532380Y-122992857D01*
X170484761Y-123088095D01*
X170437142Y-123135714D01*
X120695833Y-105582380D02*
X120362500Y-105106190D01*
X120124404Y-105582380D02*
X120124404Y-104582380D01*
X120505357Y-104582380D01*
X120600595Y-104630000D01*
X120648214Y-104677619D01*
X120695833Y-104772857D01*
X120695833Y-104915714D01*
X120648214Y-105010952D01*
X120600595Y-105058571D01*
X120505357Y-105106190D01*
X120124404Y-105106190D01*
X121029166Y-104582380D02*
X121648214Y-104582380D01*
X121314880Y-104963333D01*
X121457738Y-104963333D01*
X121552976Y-105010952D01*
X121600595Y-105058571D01*
X121648214Y-105153809D01*
X121648214Y-105391904D01*
X121600595Y-105487142D01*
X121552976Y-105534761D01*
X121457738Y-105582380D01*
X121172023Y-105582380D01*
X121076785Y-105534761D01*
X121029166Y-105487142D01*
X118383333Y-103932380D02*
X118050000Y-103456190D01*
X117811904Y-103932380D02*
X117811904Y-102932380D01*
X118192857Y-102932380D01*
X118288095Y-102980000D01*
X118335714Y-103027619D01*
X118383333Y-103122857D01*
X118383333Y-103265714D01*
X118335714Y-103360952D01*
X118288095Y-103408571D01*
X118192857Y-103456190D01*
X117811904Y-103456190D01*
X119240476Y-103265714D02*
X119240476Y-103932380D01*
X119002380Y-102884761D02*
X118764285Y-103599047D01*
X119383333Y-103599047D01*
X125483333Y-96907142D02*
X125435714Y-96954761D01*
X125292857Y-97002380D01*
X125197619Y-97002380D01*
X125054761Y-96954761D01*
X124959523Y-96859523D01*
X124911904Y-96764285D01*
X124864285Y-96573809D01*
X124864285Y-96430952D01*
X124911904Y-96240476D01*
X124959523Y-96145238D01*
X125054761Y-96050000D01*
X125197619Y-96002380D01*
X125292857Y-96002380D01*
X125435714Y-96050000D01*
X125483333Y-96097619D01*
X126340476Y-96335714D02*
X126340476Y-97002380D01*
X126102380Y-95954761D02*
X125864285Y-96669047D01*
X126483333Y-96669047D01*
X121752333Y-91469380D02*
X121276142Y-91469380D01*
X121276142Y-90469380D01*
X122609476Y-91469380D02*
X122038047Y-91469380D01*
X122323761Y-91469380D02*
X122323761Y-90469380D01*
X122228523Y-90612238D01*
X122133285Y-90707476D01*
X122038047Y-90755095D01*
X140838142Y-101114166D02*
X140885761Y-101161785D01*
X140933380Y-101304642D01*
X140933380Y-101399880D01*
X140885761Y-101542738D01*
X140790523Y-101637976D01*
X140695285Y-101685595D01*
X140504809Y-101733214D01*
X140361952Y-101733214D01*
X140171476Y-101685595D01*
X140076238Y-101637976D01*
X139981000Y-101542738D01*
X139933380Y-101399880D01*
X139933380Y-101304642D01*
X139981000Y-101161785D01*
X140028619Y-101114166D01*
X139933380Y-100780833D02*
X139933380Y-100114166D01*
X140933380Y-100542738D01*
X118501380Y-99533904D02*
X119310904Y-99533904D01*
X119406142Y-99486285D01*
X119453761Y-99438666D01*
X119501380Y-99343428D01*
X119501380Y-99152952D01*
X119453761Y-99057714D01*
X119406142Y-99010095D01*
X119310904Y-98962476D01*
X118501380Y-98962476D01*
X119501380Y-97962476D02*
X119501380Y-98533904D01*
X119501380Y-98248190D02*
X118501380Y-98248190D01*
X118644238Y-98343428D01*
X118739476Y-98438666D01*
X118787095Y-98533904D01*
X164988095Y-127202380D02*
X164988095Y-128011904D01*
X165035714Y-128107142D01*
X165083333Y-128154761D01*
X165178571Y-128202380D01*
X165369047Y-128202380D01*
X165464285Y-128154761D01*
X165511904Y-128107142D01*
X165559523Y-128011904D01*
X165559523Y-127202380D01*
X165940476Y-127202380D02*
X166559523Y-127202380D01*
X166226190Y-127583333D01*
X166369047Y-127583333D01*
X166464285Y-127630952D01*
X166511904Y-127678571D01*
X166559523Y-127773809D01*
X166559523Y-128011904D01*
X166511904Y-128107142D01*
X166464285Y-128154761D01*
X166369047Y-128202380D01*
X166083333Y-128202380D01*
X165988095Y-128154761D01*
X165940476Y-128107142D01*
X175388380Y-111785904D02*
X176197904Y-111785904D01*
X176293142Y-111738285D01*
X176340761Y-111690666D01*
X176388380Y-111595428D01*
X176388380Y-111404952D01*
X176340761Y-111309714D01*
X176293142Y-111262095D01*
X176197904Y-111214476D01*
X175388380Y-111214476D01*
X175388380Y-110309714D02*
X175388380Y-110500190D01*
X175436000Y-110595428D01*
X175483619Y-110643047D01*
X175626476Y-110738285D01*
X175816952Y-110785904D01*
X176197904Y-110785904D01*
X176293142Y-110738285D01*
X176340761Y-110690666D01*
X176388380Y-110595428D01*
X176388380Y-110404952D01*
X176340761Y-110309714D01*
X176293142Y-110262095D01*
X176197904Y-110214476D01*
X175959809Y-110214476D01*
X175864571Y-110262095D01*
X175816952Y-110309714D01*
X175769333Y-110404952D01*
X175769333Y-110595428D01*
X175816952Y-110690666D01*
X175864571Y-110738285D01*
X175959809Y-110785904D01*
X140457333Y-95861380D02*
X140124000Y-95385190D01*
X139885904Y-95861380D02*
X139885904Y-94861380D01*
X140266857Y-94861380D01*
X140362095Y-94909000D01*
X140409714Y-94956619D01*
X140457333Y-95051857D01*
X140457333Y-95194714D01*
X140409714Y-95289952D01*
X140362095Y-95337571D01*
X140266857Y-95385190D01*
X139885904Y-95385190D01*
X141314476Y-94861380D02*
X141124000Y-94861380D01*
X141028761Y-94909000D01*
X140981142Y-94956619D01*
X140885904Y-95099476D01*
X140838285Y-95289952D01*
X140838285Y-95670904D01*
X140885904Y-95766142D01*
X140933523Y-95813761D01*
X141028761Y-95861380D01*
X141219238Y-95861380D01*
X141314476Y-95813761D01*
X141362095Y-95766142D01*
X141409714Y-95670904D01*
X141409714Y-95432809D01*
X141362095Y-95337571D01*
X141314476Y-95289952D01*
X141219238Y-95242333D01*
X141028761Y-95242333D01*
X140933523Y-95289952D01*
X140885904Y-95337571D01*
X140838285Y-95432809D01*
X146951833Y-93845380D02*
X146618500Y-93369190D01*
X146380404Y-93845380D02*
X146380404Y-92845380D01*
X146761357Y-92845380D01*
X146856595Y-92893000D01*
X146904214Y-92940619D01*
X146951833Y-93035857D01*
X146951833Y-93178714D01*
X146904214Y-93273952D01*
X146856595Y-93321571D01*
X146761357Y-93369190D01*
X146380404Y-93369190D01*
X147523261Y-93273952D02*
X147428023Y-93226333D01*
X147380404Y-93178714D01*
X147332785Y-93083476D01*
X147332785Y-93035857D01*
X147380404Y-92940619D01*
X147428023Y-92893000D01*
X147523261Y-92845380D01*
X147713738Y-92845380D01*
X147808976Y-92893000D01*
X147856595Y-92940619D01*
X147904214Y-93035857D01*
X147904214Y-93083476D01*
X147856595Y-93178714D01*
X147808976Y-93226333D01*
X147713738Y-93273952D01*
X147523261Y-93273952D01*
X147428023Y-93321571D01*
X147380404Y-93369190D01*
X147332785Y-93464428D01*
X147332785Y-93654904D01*
X147380404Y-93750142D01*
X147428023Y-93797761D01*
X147523261Y-93845380D01*
X147713738Y-93845380D01*
X147808976Y-93797761D01*
X147856595Y-93750142D01*
X147904214Y-93654904D01*
X147904214Y-93464428D01*
X147856595Y-93369190D01*
X147808976Y-93321571D01*
X147713738Y-93273952D01*
X156640642Y-101137380D02*
X156307309Y-100661190D01*
X156069214Y-101137380D02*
X156069214Y-100137380D01*
X156450166Y-100137380D01*
X156545404Y-100185000D01*
X156593023Y-100232619D01*
X156640642Y-100327857D01*
X156640642Y-100470714D01*
X156593023Y-100565952D01*
X156545404Y-100613571D01*
X156450166Y-100661190D01*
X156069214Y-100661190D01*
X157593023Y-101137380D02*
X157021595Y-101137380D01*
X157307309Y-101137380D02*
X157307309Y-100137380D01*
X157212071Y-100280238D01*
X157116833Y-100375476D01*
X157021595Y-100423095D01*
X157973976Y-100232619D02*
X158021595Y-100185000D01*
X158116833Y-100137380D01*
X158354928Y-100137380D01*
X158450166Y-100185000D01*
X158497785Y-100232619D01*
X158545404Y-100327857D01*
X158545404Y-100423095D01*
X158497785Y-100565952D01*
X157926357Y-101137380D01*
X158545404Y-101137380D01*
X149522095Y-125933380D02*
X149522095Y-126742904D01*
X149569714Y-126838142D01*
X149617333Y-126885761D01*
X149712571Y-126933380D01*
X149903047Y-126933380D01*
X149998285Y-126885761D01*
X150045904Y-126838142D01*
X150093523Y-126742904D01*
X150093523Y-125933380D01*
X150522095Y-126028619D02*
X150569714Y-125981000D01*
X150664952Y-125933380D01*
X150903047Y-125933380D01*
X150998285Y-125981000D01*
X151045904Y-126028619D01*
X151093523Y-126123857D01*
X151093523Y-126219095D01*
X151045904Y-126361952D01*
X150474476Y-126933380D01*
X151093523Y-126933380D01*
X173582642Y-93571380D02*
X173249309Y-93095190D01*
X173011214Y-93571380D02*
X173011214Y-92571380D01*
X173392166Y-92571380D01*
X173487404Y-92619000D01*
X173535023Y-92666619D01*
X173582642Y-92761857D01*
X173582642Y-92904714D01*
X173535023Y-92999952D01*
X173487404Y-93047571D01*
X173392166Y-93095190D01*
X173011214Y-93095190D01*
X174535023Y-93571380D02*
X173963595Y-93571380D01*
X174249309Y-93571380D02*
X174249309Y-92571380D01*
X174154071Y-92714238D01*
X174058833Y-92809476D01*
X173963595Y-92857095D01*
X175392166Y-92571380D02*
X175201690Y-92571380D01*
X175106452Y-92619000D01*
X175058833Y-92666619D01*
X174963595Y-92809476D01*
X174915976Y-92999952D01*
X174915976Y-93380904D01*
X174963595Y-93476142D01*
X175011214Y-93523761D01*
X175106452Y-93571380D01*
X175296928Y-93571380D01*
X175392166Y-93523761D01*
X175439785Y-93476142D01*
X175487404Y-93380904D01*
X175487404Y-93142809D01*
X175439785Y-93047571D01*
X175392166Y-92999952D01*
X175296928Y-92952333D01*
X175106452Y-92952333D01*
X175011214Y-92999952D01*
X174963595Y-93047571D01*
X174915976Y-93142809D01*
X162492142Y-100151857D02*
X162539761Y-100199476D01*
X162587380Y-100342333D01*
X162587380Y-100437571D01*
X162539761Y-100580428D01*
X162444523Y-100675666D01*
X162349285Y-100723285D01*
X162158809Y-100770904D01*
X162015952Y-100770904D01*
X161825476Y-100723285D01*
X161730238Y-100675666D01*
X161635000Y-100580428D01*
X161587380Y-100437571D01*
X161587380Y-100342333D01*
X161635000Y-100199476D01*
X161682619Y-100151857D01*
X162587380Y-99199476D02*
X162587380Y-99770904D01*
X162587380Y-99485190D02*
X161587380Y-99485190D01*
X161730238Y-99580428D01*
X161825476Y-99675666D01*
X161873095Y-99770904D01*
X161682619Y-98818523D02*
X161635000Y-98770904D01*
X161587380Y-98675666D01*
X161587380Y-98437571D01*
X161635000Y-98342333D01*
X161682619Y-98294714D01*
X161777857Y-98247095D01*
X161873095Y-98247095D01*
X162015952Y-98294714D01*
X162587380Y-98866142D01*
X162587380Y-98247095D01*
M02*
