G04 #@! TF.GenerationSoftware,KiCad,Pcbnew,(5.1.5-0)*
G04 #@! TF.CreationDate,2020-12-17T20:40:06-08:00*
G04 #@! TF.ProjectId,Luminometer_ADC_concept,4c756d69-6e6f-46d6-9574-65725f414443,rev?*
G04 #@! TF.SameCoordinates,Original*
G04 #@! TF.FileFunction,Paste,Top*
G04 #@! TF.FilePolarity,Positive*
%FSLAX46Y46*%
G04 Gerber Fmt 4.6, Leading zero omitted, Abs format (unit mm)*
G04 Created by KiCad (PCBNEW (5.1.5-0)) date 2020-12-17 20:40:06*
%MOMM*%
%LPD*%
G04 APERTURE LIST*
%ADD10R,0.800000X1.100000*%
%ADD11C,0.100000*%
%ADD12R,0.800000X0.900000*%
%ADD13R,1.500000X0.550000*%
%ADD14R,1.300000X3.400000*%
%ADD15R,0.400000X1.060000*%
%ADD16R,0.650000X1.060000*%
G04 APERTURE END LIST*
D10*
X164825000Y-88750000D03*
X166095000Y-88750000D03*
X167365000Y-88750000D03*
X171175000Y-83250000D03*
X169905000Y-83250000D03*
X164825000Y-83250000D03*
X168635000Y-88750000D03*
X169905000Y-88750000D03*
X171175000Y-88750000D03*
X166095000Y-83250000D03*
X167365000Y-83250000D03*
X168635000Y-83250000D03*
D11*
G36*
X159002691Y-119526053D02*
G01*
X159023926Y-119529203D01*
X159044750Y-119534419D01*
X159064962Y-119541651D01*
X159084368Y-119550830D01*
X159102781Y-119561866D01*
X159120024Y-119574654D01*
X159135930Y-119589070D01*
X159150346Y-119604976D01*
X159163134Y-119622219D01*
X159174170Y-119640632D01*
X159183349Y-119660038D01*
X159190581Y-119680250D01*
X159195797Y-119701074D01*
X159198947Y-119722309D01*
X159200000Y-119743750D01*
X159200000Y-120256250D01*
X159198947Y-120277691D01*
X159195797Y-120298926D01*
X159190581Y-120319750D01*
X159183349Y-120339962D01*
X159174170Y-120359368D01*
X159163134Y-120377781D01*
X159150346Y-120395024D01*
X159135930Y-120410930D01*
X159120024Y-120425346D01*
X159102781Y-120438134D01*
X159084368Y-120449170D01*
X159064962Y-120458349D01*
X159044750Y-120465581D01*
X159023926Y-120470797D01*
X159002691Y-120473947D01*
X158981250Y-120475000D01*
X158543750Y-120475000D01*
X158522309Y-120473947D01*
X158501074Y-120470797D01*
X158480250Y-120465581D01*
X158460038Y-120458349D01*
X158440632Y-120449170D01*
X158422219Y-120438134D01*
X158404976Y-120425346D01*
X158389070Y-120410930D01*
X158374654Y-120395024D01*
X158361866Y-120377781D01*
X158350830Y-120359368D01*
X158341651Y-120339962D01*
X158334419Y-120319750D01*
X158329203Y-120298926D01*
X158326053Y-120277691D01*
X158325000Y-120256250D01*
X158325000Y-119743750D01*
X158326053Y-119722309D01*
X158329203Y-119701074D01*
X158334419Y-119680250D01*
X158341651Y-119660038D01*
X158350830Y-119640632D01*
X158361866Y-119622219D01*
X158374654Y-119604976D01*
X158389070Y-119589070D01*
X158404976Y-119574654D01*
X158422219Y-119561866D01*
X158440632Y-119550830D01*
X158460038Y-119541651D01*
X158480250Y-119534419D01*
X158501074Y-119529203D01*
X158522309Y-119526053D01*
X158543750Y-119525000D01*
X158981250Y-119525000D01*
X159002691Y-119526053D01*
G37*
G36*
X160577691Y-119526053D02*
G01*
X160598926Y-119529203D01*
X160619750Y-119534419D01*
X160639962Y-119541651D01*
X160659368Y-119550830D01*
X160677781Y-119561866D01*
X160695024Y-119574654D01*
X160710930Y-119589070D01*
X160725346Y-119604976D01*
X160738134Y-119622219D01*
X160749170Y-119640632D01*
X160758349Y-119660038D01*
X160765581Y-119680250D01*
X160770797Y-119701074D01*
X160773947Y-119722309D01*
X160775000Y-119743750D01*
X160775000Y-120256250D01*
X160773947Y-120277691D01*
X160770797Y-120298926D01*
X160765581Y-120319750D01*
X160758349Y-120339962D01*
X160749170Y-120359368D01*
X160738134Y-120377781D01*
X160725346Y-120395024D01*
X160710930Y-120410930D01*
X160695024Y-120425346D01*
X160677781Y-120438134D01*
X160659368Y-120449170D01*
X160639962Y-120458349D01*
X160619750Y-120465581D01*
X160598926Y-120470797D01*
X160577691Y-120473947D01*
X160556250Y-120475000D01*
X160118750Y-120475000D01*
X160097309Y-120473947D01*
X160076074Y-120470797D01*
X160055250Y-120465581D01*
X160035038Y-120458349D01*
X160015632Y-120449170D01*
X159997219Y-120438134D01*
X159979976Y-120425346D01*
X159964070Y-120410930D01*
X159949654Y-120395024D01*
X159936866Y-120377781D01*
X159925830Y-120359368D01*
X159916651Y-120339962D01*
X159909419Y-120319750D01*
X159904203Y-120298926D01*
X159901053Y-120277691D01*
X159900000Y-120256250D01*
X159900000Y-119743750D01*
X159901053Y-119722309D01*
X159904203Y-119701074D01*
X159909419Y-119680250D01*
X159916651Y-119660038D01*
X159925830Y-119640632D01*
X159936866Y-119622219D01*
X159949654Y-119604976D01*
X159964070Y-119589070D01*
X159979976Y-119574654D01*
X159997219Y-119561866D01*
X160015632Y-119550830D01*
X160035038Y-119541651D01*
X160055250Y-119534419D01*
X160076074Y-119529203D01*
X160097309Y-119526053D01*
X160118750Y-119525000D01*
X160556250Y-119525000D01*
X160577691Y-119526053D01*
G37*
G36*
X165202691Y-119476053D02*
G01*
X165223926Y-119479203D01*
X165244750Y-119484419D01*
X165264962Y-119491651D01*
X165284368Y-119500830D01*
X165302781Y-119511866D01*
X165320024Y-119524654D01*
X165335930Y-119539070D01*
X165350346Y-119554976D01*
X165363134Y-119572219D01*
X165374170Y-119590632D01*
X165383349Y-119610038D01*
X165390581Y-119630250D01*
X165395797Y-119651074D01*
X165398947Y-119672309D01*
X165400000Y-119693750D01*
X165400000Y-120206250D01*
X165398947Y-120227691D01*
X165395797Y-120248926D01*
X165390581Y-120269750D01*
X165383349Y-120289962D01*
X165374170Y-120309368D01*
X165363134Y-120327781D01*
X165350346Y-120345024D01*
X165335930Y-120360930D01*
X165320024Y-120375346D01*
X165302781Y-120388134D01*
X165284368Y-120399170D01*
X165264962Y-120408349D01*
X165244750Y-120415581D01*
X165223926Y-120420797D01*
X165202691Y-120423947D01*
X165181250Y-120425000D01*
X164743750Y-120425000D01*
X164722309Y-120423947D01*
X164701074Y-120420797D01*
X164680250Y-120415581D01*
X164660038Y-120408349D01*
X164640632Y-120399170D01*
X164622219Y-120388134D01*
X164604976Y-120375346D01*
X164589070Y-120360930D01*
X164574654Y-120345024D01*
X164561866Y-120327781D01*
X164550830Y-120309368D01*
X164541651Y-120289962D01*
X164534419Y-120269750D01*
X164529203Y-120248926D01*
X164526053Y-120227691D01*
X164525000Y-120206250D01*
X164525000Y-119693750D01*
X164526053Y-119672309D01*
X164529203Y-119651074D01*
X164534419Y-119630250D01*
X164541651Y-119610038D01*
X164550830Y-119590632D01*
X164561866Y-119572219D01*
X164574654Y-119554976D01*
X164589070Y-119539070D01*
X164604976Y-119524654D01*
X164622219Y-119511866D01*
X164640632Y-119500830D01*
X164660038Y-119491651D01*
X164680250Y-119484419D01*
X164701074Y-119479203D01*
X164722309Y-119476053D01*
X164743750Y-119475000D01*
X165181250Y-119475000D01*
X165202691Y-119476053D01*
G37*
G36*
X166777691Y-119476053D02*
G01*
X166798926Y-119479203D01*
X166819750Y-119484419D01*
X166839962Y-119491651D01*
X166859368Y-119500830D01*
X166877781Y-119511866D01*
X166895024Y-119524654D01*
X166910930Y-119539070D01*
X166925346Y-119554976D01*
X166938134Y-119572219D01*
X166949170Y-119590632D01*
X166958349Y-119610038D01*
X166965581Y-119630250D01*
X166970797Y-119651074D01*
X166973947Y-119672309D01*
X166975000Y-119693750D01*
X166975000Y-120206250D01*
X166973947Y-120227691D01*
X166970797Y-120248926D01*
X166965581Y-120269750D01*
X166958349Y-120289962D01*
X166949170Y-120309368D01*
X166938134Y-120327781D01*
X166925346Y-120345024D01*
X166910930Y-120360930D01*
X166895024Y-120375346D01*
X166877781Y-120388134D01*
X166859368Y-120399170D01*
X166839962Y-120408349D01*
X166819750Y-120415581D01*
X166798926Y-120420797D01*
X166777691Y-120423947D01*
X166756250Y-120425000D01*
X166318750Y-120425000D01*
X166297309Y-120423947D01*
X166276074Y-120420797D01*
X166255250Y-120415581D01*
X166235038Y-120408349D01*
X166215632Y-120399170D01*
X166197219Y-120388134D01*
X166179976Y-120375346D01*
X166164070Y-120360930D01*
X166149654Y-120345024D01*
X166136866Y-120327781D01*
X166125830Y-120309368D01*
X166116651Y-120289962D01*
X166109419Y-120269750D01*
X166104203Y-120248926D01*
X166101053Y-120227691D01*
X166100000Y-120206250D01*
X166100000Y-119693750D01*
X166101053Y-119672309D01*
X166104203Y-119651074D01*
X166109419Y-119630250D01*
X166116651Y-119610038D01*
X166125830Y-119590632D01*
X166136866Y-119572219D01*
X166149654Y-119554976D01*
X166164070Y-119539070D01*
X166179976Y-119524654D01*
X166197219Y-119511866D01*
X166215632Y-119500830D01*
X166235038Y-119491651D01*
X166255250Y-119484419D01*
X166276074Y-119479203D01*
X166297309Y-119476053D01*
X166318750Y-119475000D01*
X166756250Y-119475000D01*
X166777691Y-119476053D01*
G37*
G36*
X163293691Y-95444553D02*
G01*
X163314926Y-95447703D01*
X163335750Y-95452919D01*
X163355962Y-95460151D01*
X163375368Y-95469330D01*
X163393781Y-95480366D01*
X163411024Y-95493154D01*
X163426930Y-95507570D01*
X163441346Y-95523476D01*
X163454134Y-95540719D01*
X163465170Y-95559132D01*
X163474349Y-95578538D01*
X163481581Y-95598750D01*
X163486797Y-95619574D01*
X163489947Y-95640809D01*
X163491000Y-95662250D01*
X163491000Y-96099750D01*
X163489947Y-96121191D01*
X163486797Y-96142426D01*
X163481581Y-96163250D01*
X163474349Y-96183462D01*
X163465170Y-96202868D01*
X163454134Y-96221281D01*
X163441346Y-96238524D01*
X163426930Y-96254430D01*
X163411024Y-96268846D01*
X163393781Y-96281634D01*
X163375368Y-96292670D01*
X163355962Y-96301849D01*
X163335750Y-96309081D01*
X163314926Y-96314297D01*
X163293691Y-96317447D01*
X163272250Y-96318500D01*
X162759750Y-96318500D01*
X162738309Y-96317447D01*
X162717074Y-96314297D01*
X162696250Y-96309081D01*
X162676038Y-96301849D01*
X162656632Y-96292670D01*
X162638219Y-96281634D01*
X162620976Y-96268846D01*
X162605070Y-96254430D01*
X162590654Y-96238524D01*
X162577866Y-96221281D01*
X162566830Y-96202868D01*
X162557651Y-96183462D01*
X162550419Y-96163250D01*
X162545203Y-96142426D01*
X162542053Y-96121191D01*
X162541000Y-96099750D01*
X162541000Y-95662250D01*
X162542053Y-95640809D01*
X162545203Y-95619574D01*
X162550419Y-95598750D01*
X162557651Y-95578538D01*
X162566830Y-95559132D01*
X162577866Y-95540719D01*
X162590654Y-95523476D01*
X162605070Y-95507570D01*
X162620976Y-95493154D01*
X162638219Y-95480366D01*
X162656632Y-95469330D01*
X162676038Y-95460151D01*
X162696250Y-95452919D01*
X162717074Y-95447703D01*
X162738309Y-95444553D01*
X162759750Y-95443500D01*
X163272250Y-95443500D01*
X163293691Y-95444553D01*
G37*
G36*
X163293691Y-97019553D02*
G01*
X163314926Y-97022703D01*
X163335750Y-97027919D01*
X163355962Y-97035151D01*
X163375368Y-97044330D01*
X163393781Y-97055366D01*
X163411024Y-97068154D01*
X163426930Y-97082570D01*
X163441346Y-97098476D01*
X163454134Y-97115719D01*
X163465170Y-97134132D01*
X163474349Y-97153538D01*
X163481581Y-97173750D01*
X163486797Y-97194574D01*
X163489947Y-97215809D01*
X163491000Y-97237250D01*
X163491000Y-97674750D01*
X163489947Y-97696191D01*
X163486797Y-97717426D01*
X163481581Y-97738250D01*
X163474349Y-97758462D01*
X163465170Y-97777868D01*
X163454134Y-97796281D01*
X163441346Y-97813524D01*
X163426930Y-97829430D01*
X163411024Y-97843846D01*
X163393781Y-97856634D01*
X163375368Y-97867670D01*
X163355962Y-97876849D01*
X163335750Y-97884081D01*
X163314926Y-97889297D01*
X163293691Y-97892447D01*
X163272250Y-97893500D01*
X162759750Y-97893500D01*
X162738309Y-97892447D01*
X162717074Y-97889297D01*
X162696250Y-97884081D01*
X162676038Y-97876849D01*
X162656632Y-97867670D01*
X162638219Y-97856634D01*
X162620976Y-97843846D01*
X162605070Y-97829430D01*
X162590654Y-97813524D01*
X162577866Y-97796281D01*
X162566830Y-97777868D01*
X162557651Y-97758462D01*
X162550419Y-97738250D01*
X162545203Y-97717426D01*
X162542053Y-97696191D01*
X162541000Y-97674750D01*
X162541000Y-97237250D01*
X162542053Y-97215809D01*
X162545203Y-97194574D01*
X162550419Y-97173750D01*
X162557651Y-97153538D01*
X162566830Y-97134132D01*
X162577866Y-97115719D01*
X162590654Y-97098476D01*
X162605070Y-97082570D01*
X162620976Y-97068154D01*
X162638219Y-97055366D01*
X162656632Y-97044330D01*
X162676038Y-97035151D01*
X162696250Y-97027919D01*
X162717074Y-97022703D01*
X162738309Y-97019553D01*
X162759750Y-97018500D01*
X163272250Y-97018500D01*
X163293691Y-97019553D01*
G37*
G36*
X126627691Y-100226053D02*
G01*
X126648926Y-100229203D01*
X126669750Y-100234419D01*
X126689962Y-100241651D01*
X126709368Y-100250830D01*
X126727781Y-100261866D01*
X126745024Y-100274654D01*
X126760930Y-100289070D01*
X126775346Y-100304976D01*
X126788134Y-100322219D01*
X126799170Y-100340632D01*
X126808349Y-100360038D01*
X126815581Y-100380250D01*
X126820797Y-100401074D01*
X126823947Y-100422309D01*
X126825000Y-100443750D01*
X126825000Y-100956250D01*
X126823947Y-100977691D01*
X126820797Y-100998926D01*
X126815581Y-101019750D01*
X126808349Y-101039962D01*
X126799170Y-101059368D01*
X126788134Y-101077781D01*
X126775346Y-101095024D01*
X126760930Y-101110930D01*
X126745024Y-101125346D01*
X126727781Y-101138134D01*
X126709368Y-101149170D01*
X126689962Y-101158349D01*
X126669750Y-101165581D01*
X126648926Y-101170797D01*
X126627691Y-101173947D01*
X126606250Y-101175000D01*
X126168750Y-101175000D01*
X126147309Y-101173947D01*
X126126074Y-101170797D01*
X126105250Y-101165581D01*
X126085038Y-101158349D01*
X126065632Y-101149170D01*
X126047219Y-101138134D01*
X126029976Y-101125346D01*
X126014070Y-101110930D01*
X125999654Y-101095024D01*
X125986866Y-101077781D01*
X125975830Y-101059368D01*
X125966651Y-101039962D01*
X125959419Y-101019750D01*
X125954203Y-100998926D01*
X125951053Y-100977691D01*
X125950000Y-100956250D01*
X125950000Y-100443750D01*
X125951053Y-100422309D01*
X125954203Y-100401074D01*
X125959419Y-100380250D01*
X125966651Y-100360038D01*
X125975830Y-100340632D01*
X125986866Y-100322219D01*
X125999654Y-100304976D01*
X126014070Y-100289070D01*
X126029976Y-100274654D01*
X126047219Y-100261866D01*
X126065632Y-100250830D01*
X126085038Y-100241651D01*
X126105250Y-100234419D01*
X126126074Y-100229203D01*
X126147309Y-100226053D01*
X126168750Y-100225000D01*
X126606250Y-100225000D01*
X126627691Y-100226053D01*
G37*
G36*
X125052691Y-100226053D02*
G01*
X125073926Y-100229203D01*
X125094750Y-100234419D01*
X125114962Y-100241651D01*
X125134368Y-100250830D01*
X125152781Y-100261866D01*
X125170024Y-100274654D01*
X125185930Y-100289070D01*
X125200346Y-100304976D01*
X125213134Y-100322219D01*
X125224170Y-100340632D01*
X125233349Y-100360038D01*
X125240581Y-100380250D01*
X125245797Y-100401074D01*
X125248947Y-100422309D01*
X125250000Y-100443750D01*
X125250000Y-100956250D01*
X125248947Y-100977691D01*
X125245797Y-100998926D01*
X125240581Y-101019750D01*
X125233349Y-101039962D01*
X125224170Y-101059368D01*
X125213134Y-101077781D01*
X125200346Y-101095024D01*
X125185930Y-101110930D01*
X125170024Y-101125346D01*
X125152781Y-101138134D01*
X125134368Y-101149170D01*
X125114962Y-101158349D01*
X125094750Y-101165581D01*
X125073926Y-101170797D01*
X125052691Y-101173947D01*
X125031250Y-101175000D01*
X124593750Y-101175000D01*
X124572309Y-101173947D01*
X124551074Y-101170797D01*
X124530250Y-101165581D01*
X124510038Y-101158349D01*
X124490632Y-101149170D01*
X124472219Y-101138134D01*
X124454976Y-101125346D01*
X124439070Y-101110930D01*
X124424654Y-101095024D01*
X124411866Y-101077781D01*
X124400830Y-101059368D01*
X124391651Y-101039962D01*
X124384419Y-101019750D01*
X124379203Y-100998926D01*
X124376053Y-100977691D01*
X124375000Y-100956250D01*
X124375000Y-100443750D01*
X124376053Y-100422309D01*
X124379203Y-100401074D01*
X124384419Y-100380250D01*
X124391651Y-100360038D01*
X124400830Y-100340632D01*
X124411866Y-100322219D01*
X124424654Y-100304976D01*
X124439070Y-100289070D01*
X124454976Y-100274654D01*
X124472219Y-100261866D01*
X124490632Y-100250830D01*
X124510038Y-100241651D01*
X124530250Y-100234419D01*
X124551074Y-100229203D01*
X124572309Y-100226053D01*
X124593750Y-100225000D01*
X125031250Y-100225000D01*
X125052691Y-100226053D01*
G37*
G36*
X119077691Y-96401053D02*
G01*
X119098926Y-96404203D01*
X119119750Y-96409419D01*
X119139962Y-96416651D01*
X119159368Y-96425830D01*
X119177781Y-96436866D01*
X119195024Y-96449654D01*
X119210930Y-96464070D01*
X119225346Y-96479976D01*
X119238134Y-96497219D01*
X119249170Y-96515632D01*
X119258349Y-96535038D01*
X119265581Y-96555250D01*
X119270797Y-96576074D01*
X119273947Y-96597309D01*
X119275000Y-96618750D01*
X119275000Y-97056250D01*
X119273947Y-97077691D01*
X119270797Y-97098926D01*
X119265581Y-97119750D01*
X119258349Y-97139962D01*
X119249170Y-97159368D01*
X119238134Y-97177781D01*
X119225346Y-97195024D01*
X119210930Y-97210930D01*
X119195024Y-97225346D01*
X119177781Y-97238134D01*
X119159368Y-97249170D01*
X119139962Y-97258349D01*
X119119750Y-97265581D01*
X119098926Y-97270797D01*
X119077691Y-97273947D01*
X119056250Y-97275000D01*
X118543750Y-97275000D01*
X118522309Y-97273947D01*
X118501074Y-97270797D01*
X118480250Y-97265581D01*
X118460038Y-97258349D01*
X118440632Y-97249170D01*
X118422219Y-97238134D01*
X118404976Y-97225346D01*
X118389070Y-97210930D01*
X118374654Y-97195024D01*
X118361866Y-97177781D01*
X118350830Y-97159368D01*
X118341651Y-97139962D01*
X118334419Y-97119750D01*
X118329203Y-97098926D01*
X118326053Y-97077691D01*
X118325000Y-97056250D01*
X118325000Y-96618750D01*
X118326053Y-96597309D01*
X118329203Y-96576074D01*
X118334419Y-96555250D01*
X118341651Y-96535038D01*
X118350830Y-96515632D01*
X118361866Y-96497219D01*
X118374654Y-96479976D01*
X118389070Y-96464070D01*
X118404976Y-96449654D01*
X118422219Y-96436866D01*
X118440632Y-96425830D01*
X118460038Y-96416651D01*
X118480250Y-96409419D01*
X118501074Y-96404203D01*
X118522309Y-96401053D01*
X118543750Y-96400000D01*
X119056250Y-96400000D01*
X119077691Y-96401053D01*
G37*
G36*
X119077691Y-94826053D02*
G01*
X119098926Y-94829203D01*
X119119750Y-94834419D01*
X119139962Y-94841651D01*
X119159368Y-94850830D01*
X119177781Y-94861866D01*
X119195024Y-94874654D01*
X119210930Y-94889070D01*
X119225346Y-94904976D01*
X119238134Y-94922219D01*
X119249170Y-94940632D01*
X119258349Y-94960038D01*
X119265581Y-94980250D01*
X119270797Y-95001074D01*
X119273947Y-95022309D01*
X119275000Y-95043750D01*
X119275000Y-95481250D01*
X119273947Y-95502691D01*
X119270797Y-95523926D01*
X119265581Y-95544750D01*
X119258349Y-95564962D01*
X119249170Y-95584368D01*
X119238134Y-95602781D01*
X119225346Y-95620024D01*
X119210930Y-95635930D01*
X119195024Y-95650346D01*
X119177781Y-95663134D01*
X119159368Y-95674170D01*
X119139962Y-95683349D01*
X119119750Y-95690581D01*
X119098926Y-95695797D01*
X119077691Y-95698947D01*
X119056250Y-95700000D01*
X118543750Y-95700000D01*
X118522309Y-95698947D01*
X118501074Y-95695797D01*
X118480250Y-95690581D01*
X118460038Y-95683349D01*
X118440632Y-95674170D01*
X118422219Y-95663134D01*
X118404976Y-95650346D01*
X118389070Y-95635930D01*
X118374654Y-95620024D01*
X118361866Y-95602781D01*
X118350830Y-95584368D01*
X118341651Y-95564962D01*
X118334419Y-95544750D01*
X118329203Y-95523926D01*
X118326053Y-95502691D01*
X118325000Y-95481250D01*
X118325000Y-95043750D01*
X118326053Y-95022309D01*
X118329203Y-95001074D01*
X118334419Y-94980250D01*
X118341651Y-94960038D01*
X118350830Y-94940632D01*
X118361866Y-94922219D01*
X118374654Y-94904976D01*
X118389070Y-94889070D01*
X118404976Y-94874654D01*
X118422219Y-94861866D01*
X118440632Y-94850830D01*
X118460038Y-94841651D01*
X118480250Y-94834419D01*
X118501074Y-94829203D01*
X118522309Y-94826053D01*
X118543750Y-94825000D01*
X119056250Y-94825000D01*
X119077691Y-94826053D01*
G37*
G36*
X165252691Y-121476053D02*
G01*
X165273926Y-121479203D01*
X165294750Y-121484419D01*
X165314962Y-121491651D01*
X165334368Y-121500830D01*
X165352781Y-121511866D01*
X165370024Y-121524654D01*
X165385930Y-121539070D01*
X165400346Y-121554976D01*
X165413134Y-121572219D01*
X165424170Y-121590632D01*
X165433349Y-121610038D01*
X165440581Y-121630250D01*
X165445797Y-121651074D01*
X165448947Y-121672309D01*
X165450000Y-121693750D01*
X165450000Y-122206250D01*
X165448947Y-122227691D01*
X165445797Y-122248926D01*
X165440581Y-122269750D01*
X165433349Y-122289962D01*
X165424170Y-122309368D01*
X165413134Y-122327781D01*
X165400346Y-122345024D01*
X165385930Y-122360930D01*
X165370024Y-122375346D01*
X165352781Y-122388134D01*
X165334368Y-122399170D01*
X165314962Y-122408349D01*
X165294750Y-122415581D01*
X165273926Y-122420797D01*
X165252691Y-122423947D01*
X165231250Y-122425000D01*
X164793750Y-122425000D01*
X164772309Y-122423947D01*
X164751074Y-122420797D01*
X164730250Y-122415581D01*
X164710038Y-122408349D01*
X164690632Y-122399170D01*
X164672219Y-122388134D01*
X164654976Y-122375346D01*
X164639070Y-122360930D01*
X164624654Y-122345024D01*
X164611866Y-122327781D01*
X164600830Y-122309368D01*
X164591651Y-122289962D01*
X164584419Y-122269750D01*
X164579203Y-122248926D01*
X164576053Y-122227691D01*
X164575000Y-122206250D01*
X164575000Y-121693750D01*
X164576053Y-121672309D01*
X164579203Y-121651074D01*
X164584419Y-121630250D01*
X164591651Y-121610038D01*
X164600830Y-121590632D01*
X164611866Y-121572219D01*
X164624654Y-121554976D01*
X164639070Y-121539070D01*
X164654976Y-121524654D01*
X164672219Y-121511866D01*
X164690632Y-121500830D01*
X164710038Y-121491651D01*
X164730250Y-121484419D01*
X164751074Y-121479203D01*
X164772309Y-121476053D01*
X164793750Y-121475000D01*
X165231250Y-121475000D01*
X165252691Y-121476053D01*
G37*
G36*
X166827691Y-121476053D02*
G01*
X166848926Y-121479203D01*
X166869750Y-121484419D01*
X166889962Y-121491651D01*
X166909368Y-121500830D01*
X166927781Y-121511866D01*
X166945024Y-121524654D01*
X166960930Y-121539070D01*
X166975346Y-121554976D01*
X166988134Y-121572219D01*
X166999170Y-121590632D01*
X167008349Y-121610038D01*
X167015581Y-121630250D01*
X167020797Y-121651074D01*
X167023947Y-121672309D01*
X167025000Y-121693750D01*
X167025000Y-122206250D01*
X167023947Y-122227691D01*
X167020797Y-122248926D01*
X167015581Y-122269750D01*
X167008349Y-122289962D01*
X166999170Y-122309368D01*
X166988134Y-122327781D01*
X166975346Y-122345024D01*
X166960930Y-122360930D01*
X166945024Y-122375346D01*
X166927781Y-122388134D01*
X166909368Y-122399170D01*
X166889962Y-122408349D01*
X166869750Y-122415581D01*
X166848926Y-122420797D01*
X166827691Y-122423947D01*
X166806250Y-122425000D01*
X166368750Y-122425000D01*
X166347309Y-122423947D01*
X166326074Y-122420797D01*
X166305250Y-122415581D01*
X166285038Y-122408349D01*
X166265632Y-122399170D01*
X166247219Y-122388134D01*
X166229976Y-122375346D01*
X166214070Y-122360930D01*
X166199654Y-122345024D01*
X166186866Y-122327781D01*
X166175830Y-122309368D01*
X166166651Y-122289962D01*
X166159419Y-122269750D01*
X166154203Y-122248926D01*
X166151053Y-122227691D01*
X166150000Y-122206250D01*
X166150000Y-121693750D01*
X166151053Y-121672309D01*
X166154203Y-121651074D01*
X166159419Y-121630250D01*
X166166651Y-121610038D01*
X166175830Y-121590632D01*
X166186866Y-121572219D01*
X166199654Y-121554976D01*
X166214070Y-121539070D01*
X166229976Y-121524654D01*
X166247219Y-121511866D01*
X166265632Y-121500830D01*
X166285038Y-121491651D01*
X166305250Y-121484419D01*
X166326074Y-121479203D01*
X166347309Y-121476053D01*
X166368750Y-121475000D01*
X166806250Y-121475000D01*
X166827691Y-121476053D01*
G37*
G36*
X163127691Y-125351053D02*
G01*
X163148926Y-125354203D01*
X163169750Y-125359419D01*
X163189962Y-125366651D01*
X163209368Y-125375830D01*
X163227781Y-125386866D01*
X163245024Y-125399654D01*
X163260930Y-125414070D01*
X163275346Y-125429976D01*
X163288134Y-125447219D01*
X163299170Y-125465632D01*
X163308349Y-125485038D01*
X163315581Y-125505250D01*
X163320797Y-125526074D01*
X163323947Y-125547309D01*
X163325000Y-125568750D01*
X163325000Y-126006250D01*
X163323947Y-126027691D01*
X163320797Y-126048926D01*
X163315581Y-126069750D01*
X163308349Y-126089962D01*
X163299170Y-126109368D01*
X163288134Y-126127781D01*
X163275346Y-126145024D01*
X163260930Y-126160930D01*
X163245024Y-126175346D01*
X163227781Y-126188134D01*
X163209368Y-126199170D01*
X163189962Y-126208349D01*
X163169750Y-126215581D01*
X163148926Y-126220797D01*
X163127691Y-126223947D01*
X163106250Y-126225000D01*
X162593750Y-126225000D01*
X162572309Y-126223947D01*
X162551074Y-126220797D01*
X162530250Y-126215581D01*
X162510038Y-126208349D01*
X162490632Y-126199170D01*
X162472219Y-126188134D01*
X162454976Y-126175346D01*
X162439070Y-126160930D01*
X162424654Y-126145024D01*
X162411866Y-126127781D01*
X162400830Y-126109368D01*
X162391651Y-126089962D01*
X162384419Y-126069750D01*
X162379203Y-126048926D01*
X162376053Y-126027691D01*
X162375000Y-126006250D01*
X162375000Y-125568750D01*
X162376053Y-125547309D01*
X162379203Y-125526074D01*
X162384419Y-125505250D01*
X162391651Y-125485038D01*
X162400830Y-125465632D01*
X162411866Y-125447219D01*
X162424654Y-125429976D01*
X162439070Y-125414070D01*
X162454976Y-125399654D01*
X162472219Y-125386866D01*
X162490632Y-125375830D01*
X162510038Y-125366651D01*
X162530250Y-125359419D01*
X162551074Y-125354203D01*
X162572309Y-125351053D01*
X162593750Y-125350000D01*
X163106250Y-125350000D01*
X163127691Y-125351053D01*
G37*
G36*
X163127691Y-123776053D02*
G01*
X163148926Y-123779203D01*
X163169750Y-123784419D01*
X163189962Y-123791651D01*
X163209368Y-123800830D01*
X163227781Y-123811866D01*
X163245024Y-123824654D01*
X163260930Y-123839070D01*
X163275346Y-123854976D01*
X163288134Y-123872219D01*
X163299170Y-123890632D01*
X163308349Y-123910038D01*
X163315581Y-123930250D01*
X163320797Y-123951074D01*
X163323947Y-123972309D01*
X163325000Y-123993750D01*
X163325000Y-124431250D01*
X163323947Y-124452691D01*
X163320797Y-124473926D01*
X163315581Y-124494750D01*
X163308349Y-124514962D01*
X163299170Y-124534368D01*
X163288134Y-124552781D01*
X163275346Y-124570024D01*
X163260930Y-124585930D01*
X163245024Y-124600346D01*
X163227781Y-124613134D01*
X163209368Y-124624170D01*
X163189962Y-124633349D01*
X163169750Y-124640581D01*
X163148926Y-124645797D01*
X163127691Y-124648947D01*
X163106250Y-124650000D01*
X162593750Y-124650000D01*
X162572309Y-124648947D01*
X162551074Y-124645797D01*
X162530250Y-124640581D01*
X162510038Y-124633349D01*
X162490632Y-124624170D01*
X162472219Y-124613134D01*
X162454976Y-124600346D01*
X162439070Y-124585930D01*
X162424654Y-124570024D01*
X162411866Y-124552781D01*
X162400830Y-124534368D01*
X162391651Y-124514962D01*
X162384419Y-124494750D01*
X162379203Y-124473926D01*
X162376053Y-124452691D01*
X162375000Y-124431250D01*
X162375000Y-123993750D01*
X162376053Y-123972309D01*
X162379203Y-123951074D01*
X162384419Y-123930250D01*
X162391651Y-123910038D01*
X162400830Y-123890632D01*
X162411866Y-123872219D01*
X162424654Y-123854976D01*
X162439070Y-123839070D01*
X162454976Y-123824654D01*
X162472219Y-123811866D01*
X162490632Y-123800830D01*
X162510038Y-123791651D01*
X162530250Y-123784419D01*
X162551074Y-123779203D01*
X162572309Y-123776053D01*
X162593750Y-123775000D01*
X163106250Y-123775000D01*
X163127691Y-123776053D01*
G37*
G36*
X138803691Y-98098553D02*
G01*
X138824926Y-98101703D01*
X138845750Y-98106919D01*
X138865962Y-98114151D01*
X138885368Y-98123330D01*
X138903781Y-98134366D01*
X138921024Y-98147154D01*
X138936930Y-98161570D01*
X138951346Y-98177476D01*
X138964134Y-98194719D01*
X138975170Y-98213132D01*
X138984349Y-98232538D01*
X138991581Y-98252750D01*
X138996797Y-98273574D01*
X138999947Y-98294809D01*
X139001000Y-98316250D01*
X139001000Y-98753750D01*
X138999947Y-98775191D01*
X138996797Y-98796426D01*
X138991581Y-98817250D01*
X138984349Y-98837462D01*
X138975170Y-98856868D01*
X138964134Y-98875281D01*
X138951346Y-98892524D01*
X138936930Y-98908430D01*
X138921024Y-98922846D01*
X138903781Y-98935634D01*
X138885368Y-98946670D01*
X138865962Y-98955849D01*
X138845750Y-98963081D01*
X138824926Y-98968297D01*
X138803691Y-98971447D01*
X138782250Y-98972500D01*
X138269750Y-98972500D01*
X138248309Y-98971447D01*
X138227074Y-98968297D01*
X138206250Y-98963081D01*
X138186038Y-98955849D01*
X138166632Y-98946670D01*
X138148219Y-98935634D01*
X138130976Y-98922846D01*
X138115070Y-98908430D01*
X138100654Y-98892524D01*
X138087866Y-98875281D01*
X138076830Y-98856868D01*
X138067651Y-98837462D01*
X138060419Y-98817250D01*
X138055203Y-98796426D01*
X138052053Y-98775191D01*
X138051000Y-98753750D01*
X138051000Y-98316250D01*
X138052053Y-98294809D01*
X138055203Y-98273574D01*
X138060419Y-98252750D01*
X138067651Y-98232538D01*
X138076830Y-98213132D01*
X138087866Y-98194719D01*
X138100654Y-98177476D01*
X138115070Y-98161570D01*
X138130976Y-98147154D01*
X138148219Y-98134366D01*
X138166632Y-98123330D01*
X138186038Y-98114151D01*
X138206250Y-98106919D01*
X138227074Y-98101703D01*
X138248309Y-98098553D01*
X138269750Y-98097500D01*
X138782250Y-98097500D01*
X138803691Y-98098553D01*
G37*
G36*
X138803691Y-96523553D02*
G01*
X138824926Y-96526703D01*
X138845750Y-96531919D01*
X138865962Y-96539151D01*
X138885368Y-96548330D01*
X138903781Y-96559366D01*
X138921024Y-96572154D01*
X138936930Y-96586570D01*
X138951346Y-96602476D01*
X138964134Y-96619719D01*
X138975170Y-96638132D01*
X138984349Y-96657538D01*
X138991581Y-96677750D01*
X138996797Y-96698574D01*
X138999947Y-96719809D01*
X139001000Y-96741250D01*
X139001000Y-97178750D01*
X138999947Y-97200191D01*
X138996797Y-97221426D01*
X138991581Y-97242250D01*
X138984349Y-97262462D01*
X138975170Y-97281868D01*
X138964134Y-97300281D01*
X138951346Y-97317524D01*
X138936930Y-97333430D01*
X138921024Y-97347846D01*
X138903781Y-97360634D01*
X138885368Y-97371670D01*
X138865962Y-97380849D01*
X138845750Y-97388081D01*
X138824926Y-97393297D01*
X138803691Y-97396447D01*
X138782250Y-97397500D01*
X138269750Y-97397500D01*
X138248309Y-97396447D01*
X138227074Y-97393297D01*
X138206250Y-97388081D01*
X138186038Y-97380849D01*
X138166632Y-97371670D01*
X138148219Y-97360634D01*
X138130976Y-97347846D01*
X138115070Y-97333430D01*
X138100654Y-97317524D01*
X138087866Y-97300281D01*
X138076830Y-97281868D01*
X138067651Y-97262462D01*
X138060419Y-97242250D01*
X138055203Y-97221426D01*
X138052053Y-97200191D01*
X138051000Y-97178750D01*
X138051000Y-96741250D01*
X138052053Y-96719809D01*
X138055203Y-96698574D01*
X138060419Y-96677750D01*
X138067651Y-96657538D01*
X138076830Y-96638132D01*
X138087866Y-96619719D01*
X138100654Y-96602476D01*
X138115070Y-96586570D01*
X138130976Y-96572154D01*
X138148219Y-96559366D01*
X138166632Y-96548330D01*
X138186038Y-96539151D01*
X138206250Y-96531919D01*
X138227074Y-96526703D01*
X138248309Y-96523553D01*
X138269750Y-96522500D01*
X138782250Y-96522500D01*
X138803691Y-96523553D01*
G37*
D12*
X159800000Y-126250000D03*
X158850000Y-124250000D03*
X160750000Y-124250000D03*
D11*
G36*
X140803691Y-104582553D02*
G01*
X140824926Y-104585703D01*
X140845750Y-104590919D01*
X140865962Y-104598151D01*
X140885368Y-104607330D01*
X140903781Y-104618366D01*
X140921024Y-104631154D01*
X140936930Y-104645570D01*
X140951346Y-104661476D01*
X140964134Y-104678719D01*
X140975170Y-104697132D01*
X140984349Y-104716538D01*
X140991581Y-104736750D01*
X140996797Y-104757574D01*
X140999947Y-104778809D01*
X141001000Y-104800250D01*
X141001000Y-105237750D01*
X140999947Y-105259191D01*
X140996797Y-105280426D01*
X140991581Y-105301250D01*
X140984349Y-105321462D01*
X140975170Y-105340868D01*
X140964134Y-105359281D01*
X140951346Y-105376524D01*
X140936930Y-105392430D01*
X140921024Y-105406846D01*
X140903781Y-105419634D01*
X140885368Y-105430670D01*
X140865962Y-105439849D01*
X140845750Y-105447081D01*
X140824926Y-105452297D01*
X140803691Y-105455447D01*
X140782250Y-105456500D01*
X140269750Y-105456500D01*
X140248309Y-105455447D01*
X140227074Y-105452297D01*
X140206250Y-105447081D01*
X140186038Y-105439849D01*
X140166632Y-105430670D01*
X140148219Y-105419634D01*
X140130976Y-105406846D01*
X140115070Y-105392430D01*
X140100654Y-105376524D01*
X140087866Y-105359281D01*
X140076830Y-105340868D01*
X140067651Y-105321462D01*
X140060419Y-105301250D01*
X140055203Y-105280426D01*
X140052053Y-105259191D01*
X140051000Y-105237750D01*
X140051000Y-104800250D01*
X140052053Y-104778809D01*
X140055203Y-104757574D01*
X140060419Y-104736750D01*
X140067651Y-104716538D01*
X140076830Y-104697132D01*
X140087866Y-104678719D01*
X140100654Y-104661476D01*
X140115070Y-104645570D01*
X140130976Y-104631154D01*
X140148219Y-104618366D01*
X140166632Y-104607330D01*
X140186038Y-104598151D01*
X140206250Y-104590919D01*
X140227074Y-104585703D01*
X140248309Y-104582553D01*
X140269750Y-104581500D01*
X140782250Y-104581500D01*
X140803691Y-104582553D01*
G37*
G36*
X140803691Y-103007553D02*
G01*
X140824926Y-103010703D01*
X140845750Y-103015919D01*
X140865962Y-103023151D01*
X140885368Y-103032330D01*
X140903781Y-103043366D01*
X140921024Y-103056154D01*
X140936930Y-103070570D01*
X140951346Y-103086476D01*
X140964134Y-103103719D01*
X140975170Y-103122132D01*
X140984349Y-103141538D01*
X140991581Y-103161750D01*
X140996797Y-103182574D01*
X140999947Y-103203809D01*
X141001000Y-103225250D01*
X141001000Y-103662750D01*
X140999947Y-103684191D01*
X140996797Y-103705426D01*
X140991581Y-103726250D01*
X140984349Y-103746462D01*
X140975170Y-103765868D01*
X140964134Y-103784281D01*
X140951346Y-103801524D01*
X140936930Y-103817430D01*
X140921024Y-103831846D01*
X140903781Y-103844634D01*
X140885368Y-103855670D01*
X140865962Y-103864849D01*
X140845750Y-103872081D01*
X140824926Y-103877297D01*
X140803691Y-103880447D01*
X140782250Y-103881500D01*
X140269750Y-103881500D01*
X140248309Y-103880447D01*
X140227074Y-103877297D01*
X140206250Y-103872081D01*
X140186038Y-103864849D01*
X140166632Y-103855670D01*
X140148219Y-103844634D01*
X140130976Y-103831846D01*
X140115070Y-103817430D01*
X140100654Y-103801524D01*
X140087866Y-103784281D01*
X140076830Y-103765868D01*
X140067651Y-103746462D01*
X140060419Y-103726250D01*
X140055203Y-103705426D01*
X140052053Y-103684191D01*
X140051000Y-103662750D01*
X140051000Y-103225250D01*
X140052053Y-103203809D01*
X140055203Y-103182574D01*
X140060419Y-103161750D01*
X140067651Y-103141538D01*
X140076830Y-103122132D01*
X140087866Y-103103719D01*
X140100654Y-103086476D01*
X140115070Y-103070570D01*
X140130976Y-103056154D01*
X140148219Y-103043366D01*
X140166632Y-103032330D01*
X140186038Y-103023151D01*
X140206250Y-103015919D01*
X140227074Y-103010703D01*
X140248309Y-103007553D01*
X140269750Y-103006500D01*
X140782250Y-103006500D01*
X140803691Y-103007553D01*
G37*
G36*
X148111191Y-107061053D02*
G01*
X148132426Y-107064203D01*
X148153250Y-107069419D01*
X148173462Y-107076651D01*
X148192868Y-107085830D01*
X148211281Y-107096866D01*
X148228524Y-107109654D01*
X148244430Y-107124070D01*
X148258846Y-107139976D01*
X148271634Y-107157219D01*
X148282670Y-107175632D01*
X148291849Y-107195038D01*
X148299081Y-107215250D01*
X148304297Y-107236074D01*
X148307447Y-107257309D01*
X148308500Y-107278750D01*
X148308500Y-107791250D01*
X148307447Y-107812691D01*
X148304297Y-107833926D01*
X148299081Y-107854750D01*
X148291849Y-107874962D01*
X148282670Y-107894368D01*
X148271634Y-107912781D01*
X148258846Y-107930024D01*
X148244430Y-107945930D01*
X148228524Y-107960346D01*
X148211281Y-107973134D01*
X148192868Y-107984170D01*
X148173462Y-107993349D01*
X148153250Y-108000581D01*
X148132426Y-108005797D01*
X148111191Y-108008947D01*
X148089750Y-108010000D01*
X147652250Y-108010000D01*
X147630809Y-108008947D01*
X147609574Y-108005797D01*
X147588750Y-108000581D01*
X147568538Y-107993349D01*
X147549132Y-107984170D01*
X147530719Y-107973134D01*
X147513476Y-107960346D01*
X147497570Y-107945930D01*
X147483154Y-107930024D01*
X147470366Y-107912781D01*
X147459330Y-107894368D01*
X147450151Y-107874962D01*
X147442919Y-107854750D01*
X147437703Y-107833926D01*
X147434553Y-107812691D01*
X147433500Y-107791250D01*
X147433500Y-107278750D01*
X147434553Y-107257309D01*
X147437703Y-107236074D01*
X147442919Y-107215250D01*
X147450151Y-107195038D01*
X147459330Y-107175632D01*
X147470366Y-107157219D01*
X147483154Y-107139976D01*
X147497570Y-107124070D01*
X147513476Y-107109654D01*
X147530719Y-107096866D01*
X147549132Y-107085830D01*
X147568538Y-107076651D01*
X147588750Y-107069419D01*
X147609574Y-107064203D01*
X147630809Y-107061053D01*
X147652250Y-107060000D01*
X148089750Y-107060000D01*
X148111191Y-107061053D01*
G37*
G36*
X146536191Y-107061053D02*
G01*
X146557426Y-107064203D01*
X146578250Y-107069419D01*
X146598462Y-107076651D01*
X146617868Y-107085830D01*
X146636281Y-107096866D01*
X146653524Y-107109654D01*
X146669430Y-107124070D01*
X146683846Y-107139976D01*
X146696634Y-107157219D01*
X146707670Y-107175632D01*
X146716849Y-107195038D01*
X146724081Y-107215250D01*
X146729297Y-107236074D01*
X146732447Y-107257309D01*
X146733500Y-107278750D01*
X146733500Y-107791250D01*
X146732447Y-107812691D01*
X146729297Y-107833926D01*
X146724081Y-107854750D01*
X146716849Y-107874962D01*
X146707670Y-107894368D01*
X146696634Y-107912781D01*
X146683846Y-107930024D01*
X146669430Y-107945930D01*
X146653524Y-107960346D01*
X146636281Y-107973134D01*
X146617868Y-107984170D01*
X146598462Y-107993349D01*
X146578250Y-108000581D01*
X146557426Y-108005797D01*
X146536191Y-108008947D01*
X146514750Y-108010000D01*
X146077250Y-108010000D01*
X146055809Y-108008947D01*
X146034574Y-108005797D01*
X146013750Y-108000581D01*
X145993538Y-107993349D01*
X145974132Y-107984170D01*
X145955719Y-107973134D01*
X145938476Y-107960346D01*
X145922570Y-107945930D01*
X145908154Y-107930024D01*
X145895366Y-107912781D01*
X145884330Y-107894368D01*
X145875151Y-107874962D01*
X145867919Y-107854750D01*
X145862703Y-107833926D01*
X145859553Y-107812691D01*
X145858500Y-107791250D01*
X145858500Y-107278750D01*
X145859553Y-107257309D01*
X145862703Y-107236074D01*
X145867919Y-107215250D01*
X145875151Y-107195038D01*
X145884330Y-107175632D01*
X145895366Y-107157219D01*
X145908154Y-107139976D01*
X145922570Y-107124070D01*
X145938476Y-107109654D01*
X145955719Y-107096866D01*
X145974132Y-107085830D01*
X145993538Y-107076651D01*
X146013750Y-107069419D01*
X146034574Y-107064203D01*
X146055809Y-107061053D01*
X146077250Y-107060000D01*
X146514750Y-107060000D01*
X146536191Y-107061053D01*
G37*
G36*
X153323691Y-96523553D02*
G01*
X153344926Y-96526703D01*
X153365750Y-96531919D01*
X153385962Y-96539151D01*
X153405368Y-96548330D01*
X153423781Y-96559366D01*
X153441024Y-96572154D01*
X153456930Y-96586570D01*
X153471346Y-96602476D01*
X153484134Y-96619719D01*
X153495170Y-96638132D01*
X153504349Y-96657538D01*
X153511581Y-96677750D01*
X153516797Y-96698574D01*
X153519947Y-96719809D01*
X153521000Y-96741250D01*
X153521000Y-97178750D01*
X153519947Y-97200191D01*
X153516797Y-97221426D01*
X153511581Y-97242250D01*
X153504349Y-97262462D01*
X153495170Y-97281868D01*
X153484134Y-97300281D01*
X153471346Y-97317524D01*
X153456930Y-97333430D01*
X153441024Y-97347846D01*
X153423781Y-97360634D01*
X153405368Y-97371670D01*
X153385962Y-97380849D01*
X153365750Y-97388081D01*
X153344926Y-97393297D01*
X153323691Y-97396447D01*
X153302250Y-97397500D01*
X152789750Y-97397500D01*
X152768309Y-97396447D01*
X152747074Y-97393297D01*
X152726250Y-97388081D01*
X152706038Y-97380849D01*
X152686632Y-97371670D01*
X152668219Y-97360634D01*
X152650976Y-97347846D01*
X152635070Y-97333430D01*
X152620654Y-97317524D01*
X152607866Y-97300281D01*
X152596830Y-97281868D01*
X152587651Y-97262462D01*
X152580419Y-97242250D01*
X152575203Y-97221426D01*
X152572053Y-97200191D01*
X152571000Y-97178750D01*
X152571000Y-96741250D01*
X152572053Y-96719809D01*
X152575203Y-96698574D01*
X152580419Y-96677750D01*
X152587651Y-96657538D01*
X152596830Y-96638132D01*
X152607866Y-96619719D01*
X152620654Y-96602476D01*
X152635070Y-96586570D01*
X152650976Y-96572154D01*
X152668219Y-96559366D01*
X152686632Y-96548330D01*
X152706038Y-96539151D01*
X152726250Y-96531919D01*
X152747074Y-96526703D01*
X152768309Y-96523553D01*
X152789750Y-96522500D01*
X153302250Y-96522500D01*
X153323691Y-96523553D01*
G37*
G36*
X153323691Y-98098553D02*
G01*
X153344926Y-98101703D01*
X153365750Y-98106919D01*
X153385962Y-98114151D01*
X153405368Y-98123330D01*
X153423781Y-98134366D01*
X153441024Y-98147154D01*
X153456930Y-98161570D01*
X153471346Y-98177476D01*
X153484134Y-98194719D01*
X153495170Y-98213132D01*
X153504349Y-98232538D01*
X153511581Y-98252750D01*
X153516797Y-98273574D01*
X153519947Y-98294809D01*
X153521000Y-98316250D01*
X153521000Y-98753750D01*
X153519947Y-98775191D01*
X153516797Y-98796426D01*
X153511581Y-98817250D01*
X153504349Y-98837462D01*
X153495170Y-98856868D01*
X153484134Y-98875281D01*
X153471346Y-98892524D01*
X153456930Y-98908430D01*
X153441024Y-98922846D01*
X153423781Y-98935634D01*
X153405368Y-98946670D01*
X153385962Y-98955849D01*
X153365750Y-98963081D01*
X153344926Y-98968297D01*
X153323691Y-98971447D01*
X153302250Y-98972500D01*
X152789750Y-98972500D01*
X152768309Y-98971447D01*
X152747074Y-98968297D01*
X152726250Y-98963081D01*
X152706038Y-98955849D01*
X152686632Y-98946670D01*
X152668219Y-98935634D01*
X152650976Y-98922846D01*
X152635070Y-98908430D01*
X152620654Y-98892524D01*
X152607866Y-98875281D01*
X152596830Y-98856868D01*
X152587651Y-98837462D01*
X152580419Y-98817250D01*
X152575203Y-98796426D01*
X152572053Y-98775191D01*
X152571000Y-98753750D01*
X152571000Y-98316250D01*
X152572053Y-98294809D01*
X152575203Y-98273574D01*
X152580419Y-98252750D01*
X152587651Y-98232538D01*
X152596830Y-98213132D01*
X152607866Y-98194719D01*
X152620654Y-98177476D01*
X152635070Y-98161570D01*
X152650976Y-98147154D01*
X152668219Y-98134366D01*
X152686632Y-98123330D01*
X152706038Y-98114151D01*
X152726250Y-98106919D01*
X152747074Y-98101703D01*
X152768309Y-98098553D01*
X152789750Y-98097500D01*
X153302250Y-98097500D01*
X153323691Y-98098553D01*
G37*
G36*
X156736191Y-96749053D02*
G01*
X156757426Y-96752203D01*
X156778250Y-96757419D01*
X156798462Y-96764651D01*
X156817868Y-96773830D01*
X156836281Y-96784866D01*
X156853524Y-96797654D01*
X156869430Y-96812070D01*
X156883846Y-96827976D01*
X156896634Y-96845219D01*
X156907670Y-96863632D01*
X156916849Y-96883038D01*
X156924081Y-96903250D01*
X156929297Y-96924074D01*
X156932447Y-96945309D01*
X156933500Y-96966750D01*
X156933500Y-97479250D01*
X156932447Y-97500691D01*
X156929297Y-97521926D01*
X156924081Y-97542750D01*
X156916849Y-97562962D01*
X156907670Y-97582368D01*
X156896634Y-97600781D01*
X156883846Y-97618024D01*
X156869430Y-97633930D01*
X156853524Y-97648346D01*
X156836281Y-97661134D01*
X156817868Y-97672170D01*
X156798462Y-97681349D01*
X156778250Y-97688581D01*
X156757426Y-97693797D01*
X156736191Y-97696947D01*
X156714750Y-97698000D01*
X156277250Y-97698000D01*
X156255809Y-97696947D01*
X156234574Y-97693797D01*
X156213750Y-97688581D01*
X156193538Y-97681349D01*
X156174132Y-97672170D01*
X156155719Y-97661134D01*
X156138476Y-97648346D01*
X156122570Y-97633930D01*
X156108154Y-97618024D01*
X156095366Y-97600781D01*
X156084330Y-97582368D01*
X156075151Y-97562962D01*
X156067919Y-97542750D01*
X156062703Y-97521926D01*
X156059553Y-97500691D01*
X156058500Y-97479250D01*
X156058500Y-96966750D01*
X156059553Y-96945309D01*
X156062703Y-96924074D01*
X156067919Y-96903250D01*
X156075151Y-96883038D01*
X156084330Y-96863632D01*
X156095366Y-96845219D01*
X156108154Y-96827976D01*
X156122570Y-96812070D01*
X156138476Y-96797654D01*
X156155719Y-96784866D01*
X156174132Y-96773830D01*
X156193538Y-96764651D01*
X156213750Y-96757419D01*
X156234574Y-96752203D01*
X156255809Y-96749053D01*
X156277250Y-96748000D01*
X156714750Y-96748000D01*
X156736191Y-96749053D01*
G37*
G36*
X158311191Y-96749053D02*
G01*
X158332426Y-96752203D01*
X158353250Y-96757419D01*
X158373462Y-96764651D01*
X158392868Y-96773830D01*
X158411281Y-96784866D01*
X158428524Y-96797654D01*
X158444430Y-96812070D01*
X158458846Y-96827976D01*
X158471634Y-96845219D01*
X158482670Y-96863632D01*
X158491849Y-96883038D01*
X158499081Y-96903250D01*
X158504297Y-96924074D01*
X158507447Y-96945309D01*
X158508500Y-96966750D01*
X158508500Y-97479250D01*
X158507447Y-97500691D01*
X158504297Y-97521926D01*
X158499081Y-97542750D01*
X158491849Y-97562962D01*
X158482670Y-97582368D01*
X158471634Y-97600781D01*
X158458846Y-97618024D01*
X158444430Y-97633930D01*
X158428524Y-97648346D01*
X158411281Y-97661134D01*
X158392868Y-97672170D01*
X158373462Y-97681349D01*
X158353250Y-97688581D01*
X158332426Y-97693797D01*
X158311191Y-97696947D01*
X158289750Y-97698000D01*
X157852250Y-97698000D01*
X157830809Y-97696947D01*
X157809574Y-97693797D01*
X157788750Y-97688581D01*
X157768538Y-97681349D01*
X157749132Y-97672170D01*
X157730719Y-97661134D01*
X157713476Y-97648346D01*
X157697570Y-97633930D01*
X157683154Y-97618024D01*
X157670366Y-97600781D01*
X157659330Y-97582368D01*
X157650151Y-97562962D01*
X157642919Y-97542750D01*
X157637703Y-97521926D01*
X157634553Y-97500691D01*
X157633500Y-97479250D01*
X157633500Y-96966750D01*
X157634553Y-96945309D01*
X157637703Y-96924074D01*
X157642919Y-96903250D01*
X157650151Y-96883038D01*
X157659330Y-96863632D01*
X157670366Y-96845219D01*
X157683154Y-96827976D01*
X157697570Y-96812070D01*
X157713476Y-96797654D01*
X157730719Y-96784866D01*
X157749132Y-96773830D01*
X157768538Y-96764651D01*
X157788750Y-96757419D01*
X157809574Y-96752203D01*
X157830809Y-96749053D01*
X157852250Y-96748000D01*
X158289750Y-96748000D01*
X158311191Y-96749053D01*
G37*
G36*
X156728191Y-100995053D02*
G01*
X156749426Y-100998203D01*
X156770250Y-101003419D01*
X156790462Y-101010651D01*
X156809868Y-101019830D01*
X156828281Y-101030866D01*
X156845524Y-101043654D01*
X156861430Y-101058070D01*
X156875846Y-101073976D01*
X156888634Y-101091219D01*
X156899670Y-101109632D01*
X156908849Y-101129038D01*
X156916081Y-101149250D01*
X156921297Y-101170074D01*
X156924447Y-101191309D01*
X156925500Y-101212750D01*
X156925500Y-101725250D01*
X156924447Y-101746691D01*
X156921297Y-101767926D01*
X156916081Y-101788750D01*
X156908849Y-101808962D01*
X156899670Y-101828368D01*
X156888634Y-101846781D01*
X156875846Y-101864024D01*
X156861430Y-101879930D01*
X156845524Y-101894346D01*
X156828281Y-101907134D01*
X156809868Y-101918170D01*
X156790462Y-101927349D01*
X156770250Y-101934581D01*
X156749426Y-101939797D01*
X156728191Y-101942947D01*
X156706750Y-101944000D01*
X156269250Y-101944000D01*
X156247809Y-101942947D01*
X156226574Y-101939797D01*
X156205750Y-101934581D01*
X156185538Y-101927349D01*
X156166132Y-101918170D01*
X156147719Y-101907134D01*
X156130476Y-101894346D01*
X156114570Y-101879930D01*
X156100154Y-101864024D01*
X156087366Y-101846781D01*
X156076330Y-101828368D01*
X156067151Y-101808962D01*
X156059919Y-101788750D01*
X156054703Y-101767926D01*
X156051553Y-101746691D01*
X156050500Y-101725250D01*
X156050500Y-101212750D01*
X156051553Y-101191309D01*
X156054703Y-101170074D01*
X156059919Y-101149250D01*
X156067151Y-101129038D01*
X156076330Y-101109632D01*
X156087366Y-101091219D01*
X156100154Y-101073976D01*
X156114570Y-101058070D01*
X156130476Y-101043654D01*
X156147719Y-101030866D01*
X156166132Y-101019830D01*
X156185538Y-101010651D01*
X156205750Y-101003419D01*
X156226574Y-100998203D01*
X156247809Y-100995053D01*
X156269250Y-100994000D01*
X156706750Y-100994000D01*
X156728191Y-100995053D01*
G37*
G36*
X158303191Y-100995053D02*
G01*
X158324426Y-100998203D01*
X158345250Y-101003419D01*
X158365462Y-101010651D01*
X158384868Y-101019830D01*
X158403281Y-101030866D01*
X158420524Y-101043654D01*
X158436430Y-101058070D01*
X158450846Y-101073976D01*
X158463634Y-101091219D01*
X158474670Y-101109632D01*
X158483849Y-101129038D01*
X158491081Y-101149250D01*
X158496297Y-101170074D01*
X158499447Y-101191309D01*
X158500500Y-101212750D01*
X158500500Y-101725250D01*
X158499447Y-101746691D01*
X158496297Y-101767926D01*
X158491081Y-101788750D01*
X158483849Y-101808962D01*
X158474670Y-101828368D01*
X158463634Y-101846781D01*
X158450846Y-101864024D01*
X158436430Y-101879930D01*
X158420524Y-101894346D01*
X158403281Y-101907134D01*
X158384868Y-101918170D01*
X158365462Y-101927349D01*
X158345250Y-101934581D01*
X158324426Y-101939797D01*
X158303191Y-101942947D01*
X158281750Y-101944000D01*
X157844250Y-101944000D01*
X157822809Y-101942947D01*
X157801574Y-101939797D01*
X157780750Y-101934581D01*
X157760538Y-101927349D01*
X157741132Y-101918170D01*
X157722719Y-101907134D01*
X157705476Y-101894346D01*
X157689570Y-101879930D01*
X157675154Y-101864024D01*
X157662366Y-101846781D01*
X157651330Y-101828368D01*
X157642151Y-101808962D01*
X157634919Y-101788750D01*
X157629703Y-101767926D01*
X157626553Y-101746691D01*
X157625500Y-101725250D01*
X157625500Y-101212750D01*
X157626553Y-101191309D01*
X157629703Y-101170074D01*
X157634919Y-101149250D01*
X157642151Y-101129038D01*
X157651330Y-101109632D01*
X157662366Y-101091219D01*
X157675154Y-101073976D01*
X157689570Y-101058070D01*
X157705476Y-101043654D01*
X157722719Y-101030866D01*
X157741132Y-101019830D01*
X157760538Y-101010651D01*
X157780750Y-101003419D01*
X157801574Y-100998203D01*
X157822809Y-100995053D01*
X157844250Y-100994000D01*
X158281750Y-100994000D01*
X158303191Y-100995053D01*
G37*
G36*
X156728191Y-103535053D02*
G01*
X156749426Y-103538203D01*
X156770250Y-103543419D01*
X156790462Y-103550651D01*
X156809868Y-103559830D01*
X156828281Y-103570866D01*
X156845524Y-103583654D01*
X156861430Y-103598070D01*
X156875846Y-103613976D01*
X156888634Y-103631219D01*
X156899670Y-103649632D01*
X156908849Y-103669038D01*
X156916081Y-103689250D01*
X156921297Y-103710074D01*
X156924447Y-103731309D01*
X156925500Y-103752750D01*
X156925500Y-104265250D01*
X156924447Y-104286691D01*
X156921297Y-104307926D01*
X156916081Y-104328750D01*
X156908849Y-104348962D01*
X156899670Y-104368368D01*
X156888634Y-104386781D01*
X156875846Y-104404024D01*
X156861430Y-104419930D01*
X156845524Y-104434346D01*
X156828281Y-104447134D01*
X156809868Y-104458170D01*
X156790462Y-104467349D01*
X156770250Y-104474581D01*
X156749426Y-104479797D01*
X156728191Y-104482947D01*
X156706750Y-104484000D01*
X156269250Y-104484000D01*
X156247809Y-104482947D01*
X156226574Y-104479797D01*
X156205750Y-104474581D01*
X156185538Y-104467349D01*
X156166132Y-104458170D01*
X156147719Y-104447134D01*
X156130476Y-104434346D01*
X156114570Y-104419930D01*
X156100154Y-104404024D01*
X156087366Y-104386781D01*
X156076330Y-104368368D01*
X156067151Y-104348962D01*
X156059919Y-104328750D01*
X156054703Y-104307926D01*
X156051553Y-104286691D01*
X156050500Y-104265250D01*
X156050500Y-103752750D01*
X156051553Y-103731309D01*
X156054703Y-103710074D01*
X156059919Y-103689250D01*
X156067151Y-103669038D01*
X156076330Y-103649632D01*
X156087366Y-103631219D01*
X156100154Y-103613976D01*
X156114570Y-103598070D01*
X156130476Y-103583654D01*
X156147719Y-103570866D01*
X156166132Y-103559830D01*
X156185538Y-103550651D01*
X156205750Y-103543419D01*
X156226574Y-103538203D01*
X156247809Y-103535053D01*
X156269250Y-103534000D01*
X156706750Y-103534000D01*
X156728191Y-103535053D01*
G37*
G36*
X158303191Y-103535053D02*
G01*
X158324426Y-103538203D01*
X158345250Y-103543419D01*
X158365462Y-103550651D01*
X158384868Y-103559830D01*
X158403281Y-103570866D01*
X158420524Y-103583654D01*
X158436430Y-103598070D01*
X158450846Y-103613976D01*
X158463634Y-103631219D01*
X158474670Y-103649632D01*
X158483849Y-103669038D01*
X158491081Y-103689250D01*
X158496297Y-103710074D01*
X158499447Y-103731309D01*
X158500500Y-103752750D01*
X158500500Y-104265250D01*
X158499447Y-104286691D01*
X158496297Y-104307926D01*
X158491081Y-104328750D01*
X158483849Y-104348962D01*
X158474670Y-104368368D01*
X158463634Y-104386781D01*
X158450846Y-104404024D01*
X158436430Y-104419930D01*
X158420524Y-104434346D01*
X158403281Y-104447134D01*
X158384868Y-104458170D01*
X158365462Y-104467349D01*
X158345250Y-104474581D01*
X158324426Y-104479797D01*
X158303191Y-104482947D01*
X158281750Y-104484000D01*
X157844250Y-104484000D01*
X157822809Y-104482947D01*
X157801574Y-104479797D01*
X157780750Y-104474581D01*
X157760538Y-104467349D01*
X157741132Y-104458170D01*
X157722719Y-104447134D01*
X157705476Y-104434346D01*
X157689570Y-104419930D01*
X157675154Y-104404024D01*
X157662366Y-104386781D01*
X157651330Y-104368368D01*
X157642151Y-104348962D01*
X157634919Y-104328750D01*
X157629703Y-104307926D01*
X157626553Y-104286691D01*
X157625500Y-104265250D01*
X157625500Y-103752750D01*
X157626553Y-103731309D01*
X157629703Y-103710074D01*
X157634919Y-103689250D01*
X157642151Y-103669038D01*
X157651330Y-103649632D01*
X157662366Y-103631219D01*
X157675154Y-103613976D01*
X157689570Y-103598070D01*
X157705476Y-103583654D01*
X157722719Y-103570866D01*
X157741132Y-103559830D01*
X157760538Y-103550651D01*
X157780750Y-103543419D01*
X157801574Y-103538203D01*
X157822809Y-103535053D01*
X157844250Y-103534000D01*
X158281750Y-103534000D01*
X158303191Y-103535053D01*
G37*
G36*
X138803691Y-104582553D02*
G01*
X138824926Y-104585703D01*
X138845750Y-104590919D01*
X138865962Y-104598151D01*
X138885368Y-104607330D01*
X138903781Y-104618366D01*
X138921024Y-104631154D01*
X138936930Y-104645570D01*
X138951346Y-104661476D01*
X138964134Y-104678719D01*
X138975170Y-104697132D01*
X138984349Y-104716538D01*
X138991581Y-104736750D01*
X138996797Y-104757574D01*
X138999947Y-104778809D01*
X139001000Y-104800250D01*
X139001000Y-105237750D01*
X138999947Y-105259191D01*
X138996797Y-105280426D01*
X138991581Y-105301250D01*
X138984349Y-105321462D01*
X138975170Y-105340868D01*
X138964134Y-105359281D01*
X138951346Y-105376524D01*
X138936930Y-105392430D01*
X138921024Y-105406846D01*
X138903781Y-105419634D01*
X138885368Y-105430670D01*
X138865962Y-105439849D01*
X138845750Y-105447081D01*
X138824926Y-105452297D01*
X138803691Y-105455447D01*
X138782250Y-105456500D01*
X138269750Y-105456500D01*
X138248309Y-105455447D01*
X138227074Y-105452297D01*
X138206250Y-105447081D01*
X138186038Y-105439849D01*
X138166632Y-105430670D01*
X138148219Y-105419634D01*
X138130976Y-105406846D01*
X138115070Y-105392430D01*
X138100654Y-105376524D01*
X138087866Y-105359281D01*
X138076830Y-105340868D01*
X138067651Y-105321462D01*
X138060419Y-105301250D01*
X138055203Y-105280426D01*
X138052053Y-105259191D01*
X138051000Y-105237750D01*
X138051000Y-104800250D01*
X138052053Y-104778809D01*
X138055203Y-104757574D01*
X138060419Y-104736750D01*
X138067651Y-104716538D01*
X138076830Y-104697132D01*
X138087866Y-104678719D01*
X138100654Y-104661476D01*
X138115070Y-104645570D01*
X138130976Y-104631154D01*
X138148219Y-104618366D01*
X138166632Y-104607330D01*
X138186038Y-104598151D01*
X138206250Y-104590919D01*
X138227074Y-104585703D01*
X138248309Y-104582553D01*
X138269750Y-104581500D01*
X138782250Y-104581500D01*
X138803691Y-104582553D01*
G37*
G36*
X138803691Y-103007553D02*
G01*
X138824926Y-103010703D01*
X138845750Y-103015919D01*
X138865962Y-103023151D01*
X138885368Y-103032330D01*
X138903781Y-103043366D01*
X138921024Y-103056154D01*
X138936930Y-103070570D01*
X138951346Y-103086476D01*
X138964134Y-103103719D01*
X138975170Y-103122132D01*
X138984349Y-103141538D01*
X138991581Y-103161750D01*
X138996797Y-103182574D01*
X138999947Y-103203809D01*
X139001000Y-103225250D01*
X139001000Y-103662750D01*
X138999947Y-103684191D01*
X138996797Y-103705426D01*
X138991581Y-103726250D01*
X138984349Y-103746462D01*
X138975170Y-103765868D01*
X138964134Y-103784281D01*
X138951346Y-103801524D01*
X138936930Y-103817430D01*
X138921024Y-103831846D01*
X138903781Y-103844634D01*
X138885368Y-103855670D01*
X138865962Y-103864849D01*
X138845750Y-103872081D01*
X138824926Y-103877297D01*
X138803691Y-103880447D01*
X138782250Y-103881500D01*
X138269750Y-103881500D01*
X138248309Y-103880447D01*
X138227074Y-103877297D01*
X138206250Y-103872081D01*
X138186038Y-103864849D01*
X138166632Y-103855670D01*
X138148219Y-103844634D01*
X138130976Y-103831846D01*
X138115070Y-103817430D01*
X138100654Y-103801524D01*
X138087866Y-103784281D01*
X138076830Y-103765868D01*
X138067651Y-103746462D01*
X138060419Y-103726250D01*
X138055203Y-103705426D01*
X138052053Y-103684191D01*
X138051000Y-103662750D01*
X138051000Y-103225250D01*
X138052053Y-103203809D01*
X138055203Y-103182574D01*
X138060419Y-103161750D01*
X138067651Y-103141538D01*
X138076830Y-103122132D01*
X138087866Y-103103719D01*
X138100654Y-103086476D01*
X138115070Y-103070570D01*
X138130976Y-103056154D01*
X138148219Y-103043366D01*
X138166632Y-103032330D01*
X138186038Y-103023151D01*
X138206250Y-103015919D01*
X138227074Y-103010703D01*
X138248309Y-103007553D01*
X138269750Y-103006500D01*
X138782250Y-103006500D01*
X138803691Y-103007553D01*
G37*
G36*
X172381191Y-107330053D02*
G01*
X172402426Y-107333203D01*
X172423250Y-107338419D01*
X172443462Y-107345651D01*
X172462868Y-107354830D01*
X172481281Y-107365866D01*
X172498524Y-107378654D01*
X172514430Y-107393070D01*
X172528846Y-107408976D01*
X172541634Y-107426219D01*
X172552670Y-107444632D01*
X172561849Y-107464038D01*
X172569081Y-107484250D01*
X172574297Y-107505074D01*
X172577447Y-107526309D01*
X172578500Y-107547750D01*
X172578500Y-108060250D01*
X172577447Y-108081691D01*
X172574297Y-108102926D01*
X172569081Y-108123750D01*
X172561849Y-108143962D01*
X172552670Y-108163368D01*
X172541634Y-108181781D01*
X172528846Y-108199024D01*
X172514430Y-108214930D01*
X172498524Y-108229346D01*
X172481281Y-108242134D01*
X172462868Y-108253170D01*
X172443462Y-108262349D01*
X172423250Y-108269581D01*
X172402426Y-108274797D01*
X172381191Y-108277947D01*
X172359750Y-108279000D01*
X171922250Y-108279000D01*
X171900809Y-108277947D01*
X171879574Y-108274797D01*
X171858750Y-108269581D01*
X171838538Y-108262349D01*
X171819132Y-108253170D01*
X171800719Y-108242134D01*
X171783476Y-108229346D01*
X171767570Y-108214930D01*
X171753154Y-108199024D01*
X171740366Y-108181781D01*
X171729330Y-108163368D01*
X171720151Y-108143962D01*
X171712919Y-108123750D01*
X171707703Y-108102926D01*
X171704553Y-108081691D01*
X171703500Y-108060250D01*
X171703500Y-107547750D01*
X171704553Y-107526309D01*
X171707703Y-107505074D01*
X171712919Y-107484250D01*
X171720151Y-107464038D01*
X171729330Y-107444632D01*
X171740366Y-107426219D01*
X171753154Y-107408976D01*
X171767570Y-107393070D01*
X171783476Y-107378654D01*
X171800719Y-107365866D01*
X171819132Y-107354830D01*
X171838538Y-107345651D01*
X171858750Y-107338419D01*
X171879574Y-107333203D01*
X171900809Y-107330053D01*
X171922250Y-107329000D01*
X172359750Y-107329000D01*
X172381191Y-107330053D01*
G37*
G36*
X173956191Y-107330053D02*
G01*
X173977426Y-107333203D01*
X173998250Y-107338419D01*
X174018462Y-107345651D01*
X174037868Y-107354830D01*
X174056281Y-107365866D01*
X174073524Y-107378654D01*
X174089430Y-107393070D01*
X174103846Y-107408976D01*
X174116634Y-107426219D01*
X174127670Y-107444632D01*
X174136849Y-107464038D01*
X174144081Y-107484250D01*
X174149297Y-107505074D01*
X174152447Y-107526309D01*
X174153500Y-107547750D01*
X174153500Y-108060250D01*
X174152447Y-108081691D01*
X174149297Y-108102926D01*
X174144081Y-108123750D01*
X174136849Y-108143962D01*
X174127670Y-108163368D01*
X174116634Y-108181781D01*
X174103846Y-108199024D01*
X174089430Y-108214930D01*
X174073524Y-108229346D01*
X174056281Y-108242134D01*
X174037868Y-108253170D01*
X174018462Y-108262349D01*
X173998250Y-108269581D01*
X173977426Y-108274797D01*
X173956191Y-108277947D01*
X173934750Y-108279000D01*
X173497250Y-108279000D01*
X173475809Y-108277947D01*
X173454574Y-108274797D01*
X173433750Y-108269581D01*
X173413538Y-108262349D01*
X173394132Y-108253170D01*
X173375719Y-108242134D01*
X173358476Y-108229346D01*
X173342570Y-108214930D01*
X173328154Y-108199024D01*
X173315366Y-108181781D01*
X173304330Y-108163368D01*
X173295151Y-108143962D01*
X173287919Y-108123750D01*
X173282703Y-108102926D01*
X173279553Y-108081691D01*
X173278500Y-108060250D01*
X173278500Y-107547750D01*
X173279553Y-107526309D01*
X173282703Y-107505074D01*
X173287919Y-107484250D01*
X173295151Y-107464038D01*
X173304330Y-107444632D01*
X173315366Y-107426219D01*
X173328154Y-107408976D01*
X173342570Y-107393070D01*
X173358476Y-107378654D01*
X173375719Y-107365866D01*
X173394132Y-107354830D01*
X173413538Y-107345651D01*
X173433750Y-107338419D01*
X173454574Y-107333203D01*
X173475809Y-107330053D01*
X173497250Y-107329000D01*
X173934750Y-107329000D01*
X173956191Y-107330053D01*
G37*
G36*
X172391191Y-113860053D02*
G01*
X172412426Y-113863203D01*
X172433250Y-113868419D01*
X172453462Y-113875651D01*
X172472868Y-113884830D01*
X172491281Y-113895866D01*
X172508524Y-113908654D01*
X172524430Y-113923070D01*
X172538846Y-113938976D01*
X172551634Y-113956219D01*
X172562670Y-113974632D01*
X172571849Y-113994038D01*
X172579081Y-114014250D01*
X172584297Y-114035074D01*
X172587447Y-114056309D01*
X172588500Y-114077750D01*
X172588500Y-114590250D01*
X172587447Y-114611691D01*
X172584297Y-114632926D01*
X172579081Y-114653750D01*
X172571849Y-114673962D01*
X172562670Y-114693368D01*
X172551634Y-114711781D01*
X172538846Y-114729024D01*
X172524430Y-114744930D01*
X172508524Y-114759346D01*
X172491281Y-114772134D01*
X172472868Y-114783170D01*
X172453462Y-114792349D01*
X172433250Y-114799581D01*
X172412426Y-114804797D01*
X172391191Y-114807947D01*
X172369750Y-114809000D01*
X171932250Y-114809000D01*
X171910809Y-114807947D01*
X171889574Y-114804797D01*
X171868750Y-114799581D01*
X171848538Y-114792349D01*
X171829132Y-114783170D01*
X171810719Y-114772134D01*
X171793476Y-114759346D01*
X171777570Y-114744930D01*
X171763154Y-114729024D01*
X171750366Y-114711781D01*
X171739330Y-114693368D01*
X171730151Y-114673962D01*
X171722919Y-114653750D01*
X171717703Y-114632926D01*
X171714553Y-114611691D01*
X171713500Y-114590250D01*
X171713500Y-114077750D01*
X171714553Y-114056309D01*
X171717703Y-114035074D01*
X171722919Y-114014250D01*
X171730151Y-113994038D01*
X171739330Y-113974632D01*
X171750366Y-113956219D01*
X171763154Y-113938976D01*
X171777570Y-113923070D01*
X171793476Y-113908654D01*
X171810719Y-113895866D01*
X171829132Y-113884830D01*
X171848538Y-113875651D01*
X171868750Y-113868419D01*
X171889574Y-113863203D01*
X171910809Y-113860053D01*
X171932250Y-113859000D01*
X172369750Y-113859000D01*
X172391191Y-113860053D01*
G37*
G36*
X173966191Y-113860053D02*
G01*
X173987426Y-113863203D01*
X174008250Y-113868419D01*
X174028462Y-113875651D01*
X174047868Y-113884830D01*
X174066281Y-113895866D01*
X174083524Y-113908654D01*
X174099430Y-113923070D01*
X174113846Y-113938976D01*
X174126634Y-113956219D01*
X174137670Y-113974632D01*
X174146849Y-113994038D01*
X174154081Y-114014250D01*
X174159297Y-114035074D01*
X174162447Y-114056309D01*
X174163500Y-114077750D01*
X174163500Y-114590250D01*
X174162447Y-114611691D01*
X174159297Y-114632926D01*
X174154081Y-114653750D01*
X174146849Y-114673962D01*
X174137670Y-114693368D01*
X174126634Y-114711781D01*
X174113846Y-114729024D01*
X174099430Y-114744930D01*
X174083524Y-114759346D01*
X174066281Y-114772134D01*
X174047868Y-114783170D01*
X174028462Y-114792349D01*
X174008250Y-114799581D01*
X173987426Y-114804797D01*
X173966191Y-114807947D01*
X173944750Y-114809000D01*
X173507250Y-114809000D01*
X173485809Y-114807947D01*
X173464574Y-114804797D01*
X173443750Y-114799581D01*
X173423538Y-114792349D01*
X173404132Y-114783170D01*
X173385719Y-114772134D01*
X173368476Y-114759346D01*
X173352570Y-114744930D01*
X173338154Y-114729024D01*
X173325366Y-114711781D01*
X173314330Y-114693368D01*
X173305151Y-114673962D01*
X173297919Y-114653750D01*
X173292703Y-114632926D01*
X173289553Y-114611691D01*
X173288500Y-114590250D01*
X173288500Y-114077750D01*
X173289553Y-114056309D01*
X173292703Y-114035074D01*
X173297919Y-114014250D01*
X173305151Y-113994038D01*
X173314330Y-113974632D01*
X173325366Y-113956219D01*
X173338154Y-113938976D01*
X173352570Y-113923070D01*
X173368476Y-113908654D01*
X173385719Y-113895866D01*
X173404132Y-113884830D01*
X173423538Y-113875651D01*
X173443750Y-113868419D01*
X173464574Y-113863203D01*
X173485809Y-113860053D01*
X173507250Y-113859000D01*
X173944750Y-113859000D01*
X173966191Y-113860053D01*
G37*
G36*
X160880691Y-103242553D02*
G01*
X160901926Y-103245703D01*
X160922750Y-103250919D01*
X160942962Y-103258151D01*
X160962368Y-103267330D01*
X160980781Y-103278366D01*
X160998024Y-103291154D01*
X161013930Y-103305570D01*
X161028346Y-103321476D01*
X161041134Y-103338719D01*
X161052170Y-103357132D01*
X161061349Y-103376538D01*
X161068581Y-103396750D01*
X161073797Y-103417574D01*
X161076947Y-103438809D01*
X161078000Y-103460250D01*
X161078000Y-103897750D01*
X161076947Y-103919191D01*
X161073797Y-103940426D01*
X161068581Y-103961250D01*
X161061349Y-103981462D01*
X161052170Y-104000868D01*
X161041134Y-104019281D01*
X161028346Y-104036524D01*
X161013930Y-104052430D01*
X160998024Y-104066846D01*
X160980781Y-104079634D01*
X160962368Y-104090670D01*
X160942962Y-104099849D01*
X160922750Y-104107081D01*
X160901926Y-104112297D01*
X160880691Y-104115447D01*
X160859250Y-104116500D01*
X160346750Y-104116500D01*
X160325309Y-104115447D01*
X160304074Y-104112297D01*
X160283250Y-104107081D01*
X160263038Y-104099849D01*
X160243632Y-104090670D01*
X160225219Y-104079634D01*
X160207976Y-104066846D01*
X160192070Y-104052430D01*
X160177654Y-104036524D01*
X160164866Y-104019281D01*
X160153830Y-104000868D01*
X160144651Y-103981462D01*
X160137419Y-103961250D01*
X160132203Y-103940426D01*
X160129053Y-103919191D01*
X160128000Y-103897750D01*
X160128000Y-103460250D01*
X160129053Y-103438809D01*
X160132203Y-103417574D01*
X160137419Y-103396750D01*
X160144651Y-103376538D01*
X160153830Y-103357132D01*
X160164866Y-103338719D01*
X160177654Y-103321476D01*
X160192070Y-103305570D01*
X160207976Y-103291154D01*
X160225219Y-103278366D01*
X160243632Y-103267330D01*
X160263038Y-103258151D01*
X160283250Y-103250919D01*
X160304074Y-103245703D01*
X160325309Y-103242553D01*
X160346750Y-103241500D01*
X160859250Y-103241500D01*
X160880691Y-103242553D01*
G37*
G36*
X160880691Y-101667553D02*
G01*
X160901926Y-101670703D01*
X160922750Y-101675919D01*
X160942962Y-101683151D01*
X160962368Y-101692330D01*
X160980781Y-101703366D01*
X160998024Y-101716154D01*
X161013930Y-101730570D01*
X161028346Y-101746476D01*
X161041134Y-101763719D01*
X161052170Y-101782132D01*
X161061349Y-101801538D01*
X161068581Y-101821750D01*
X161073797Y-101842574D01*
X161076947Y-101863809D01*
X161078000Y-101885250D01*
X161078000Y-102322750D01*
X161076947Y-102344191D01*
X161073797Y-102365426D01*
X161068581Y-102386250D01*
X161061349Y-102406462D01*
X161052170Y-102425868D01*
X161041134Y-102444281D01*
X161028346Y-102461524D01*
X161013930Y-102477430D01*
X160998024Y-102491846D01*
X160980781Y-102504634D01*
X160962368Y-102515670D01*
X160942962Y-102524849D01*
X160922750Y-102532081D01*
X160901926Y-102537297D01*
X160880691Y-102540447D01*
X160859250Y-102541500D01*
X160346750Y-102541500D01*
X160325309Y-102540447D01*
X160304074Y-102537297D01*
X160283250Y-102532081D01*
X160263038Y-102524849D01*
X160243632Y-102515670D01*
X160225219Y-102504634D01*
X160207976Y-102491846D01*
X160192070Y-102477430D01*
X160177654Y-102461524D01*
X160164866Y-102444281D01*
X160153830Y-102425868D01*
X160144651Y-102406462D01*
X160137419Y-102386250D01*
X160132203Y-102365426D01*
X160129053Y-102344191D01*
X160128000Y-102322750D01*
X160128000Y-101885250D01*
X160129053Y-101863809D01*
X160132203Y-101842574D01*
X160137419Y-101821750D01*
X160144651Y-101801538D01*
X160153830Y-101782132D01*
X160164866Y-101763719D01*
X160177654Y-101746476D01*
X160192070Y-101730570D01*
X160207976Y-101716154D01*
X160225219Y-101703366D01*
X160243632Y-101692330D01*
X160263038Y-101683151D01*
X160283250Y-101675919D01*
X160304074Y-101670703D01*
X160325309Y-101667553D01*
X160346750Y-101666500D01*
X160859250Y-101666500D01*
X160880691Y-101667553D01*
G37*
G36*
X174033191Y-99631553D02*
G01*
X174054426Y-99634703D01*
X174075250Y-99639919D01*
X174095462Y-99647151D01*
X174114868Y-99656330D01*
X174133281Y-99667366D01*
X174150524Y-99680154D01*
X174166430Y-99694570D01*
X174180846Y-99710476D01*
X174193634Y-99727719D01*
X174204670Y-99746132D01*
X174213849Y-99765538D01*
X174221081Y-99785750D01*
X174226297Y-99806574D01*
X174229447Y-99827809D01*
X174230500Y-99849250D01*
X174230500Y-100286750D01*
X174229447Y-100308191D01*
X174226297Y-100329426D01*
X174221081Y-100350250D01*
X174213849Y-100370462D01*
X174204670Y-100389868D01*
X174193634Y-100408281D01*
X174180846Y-100425524D01*
X174166430Y-100441430D01*
X174150524Y-100455846D01*
X174133281Y-100468634D01*
X174114868Y-100479670D01*
X174095462Y-100488849D01*
X174075250Y-100496081D01*
X174054426Y-100501297D01*
X174033191Y-100504447D01*
X174011750Y-100505500D01*
X173499250Y-100505500D01*
X173477809Y-100504447D01*
X173456574Y-100501297D01*
X173435750Y-100496081D01*
X173415538Y-100488849D01*
X173396132Y-100479670D01*
X173377719Y-100468634D01*
X173360476Y-100455846D01*
X173344570Y-100441430D01*
X173330154Y-100425524D01*
X173317366Y-100408281D01*
X173306330Y-100389868D01*
X173297151Y-100370462D01*
X173289919Y-100350250D01*
X173284703Y-100329426D01*
X173281553Y-100308191D01*
X173280500Y-100286750D01*
X173280500Y-99849250D01*
X173281553Y-99827809D01*
X173284703Y-99806574D01*
X173289919Y-99785750D01*
X173297151Y-99765538D01*
X173306330Y-99746132D01*
X173317366Y-99727719D01*
X173330154Y-99710476D01*
X173344570Y-99694570D01*
X173360476Y-99680154D01*
X173377719Y-99667366D01*
X173396132Y-99656330D01*
X173415538Y-99647151D01*
X173435750Y-99639919D01*
X173456574Y-99634703D01*
X173477809Y-99631553D01*
X173499250Y-99630500D01*
X174011750Y-99630500D01*
X174033191Y-99631553D01*
G37*
G36*
X174033191Y-98056553D02*
G01*
X174054426Y-98059703D01*
X174075250Y-98064919D01*
X174095462Y-98072151D01*
X174114868Y-98081330D01*
X174133281Y-98092366D01*
X174150524Y-98105154D01*
X174166430Y-98119570D01*
X174180846Y-98135476D01*
X174193634Y-98152719D01*
X174204670Y-98171132D01*
X174213849Y-98190538D01*
X174221081Y-98210750D01*
X174226297Y-98231574D01*
X174229447Y-98252809D01*
X174230500Y-98274250D01*
X174230500Y-98711750D01*
X174229447Y-98733191D01*
X174226297Y-98754426D01*
X174221081Y-98775250D01*
X174213849Y-98795462D01*
X174204670Y-98814868D01*
X174193634Y-98833281D01*
X174180846Y-98850524D01*
X174166430Y-98866430D01*
X174150524Y-98880846D01*
X174133281Y-98893634D01*
X174114868Y-98904670D01*
X174095462Y-98913849D01*
X174075250Y-98921081D01*
X174054426Y-98926297D01*
X174033191Y-98929447D01*
X174011750Y-98930500D01*
X173499250Y-98930500D01*
X173477809Y-98929447D01*
X173456574Y-98926297D01*
X173435750Y-98921081D01*
X173415538Y-98913849D01*
X173396132Y-98904670D01*
X173377719Y-98893634D01*
X173360476Y-98880846D01*
X173344570Y-98866430D01*
X173330154Y-98850524D01*
X173317366Y-98833281D01*
X173306330Y-98814868D01*
X173297151Y-98795462D01*
X173289919Y-98775250D01*
X173284703Y-98754426D01*
X173281553Y-98733191D01*
X173280500Y-98711750D01*
X173280500Y-98274250D01*
X173281553Y-98252809D01*
X173284703Y-98231574D01*
X173289919Y-98210750D01*
X173297151Y-98190538D01*
X173306330Y-98171132D01*
X173317366Y-98152719D01*
X173330154Y-98135476D01*
X173344570Y-98119570D01*
X173360476Y-98105154D01*
X173377719Y-98092366D01*
X173396132Y-98081330D01*
X173415538Y-98072151D01*
X173435750Y-98064919D01*
X173456574Y-98059703D01*
X173477809Y-98056553D01*
X173499250Y-98055500D01*
X174011750Y-98055500D01*
X174033191Y-98056553D01*
G37*
G36*
X164788191Y-93375053D02*
G01*
X164809426Y-93378203D01*
X164830250Y-93383419D01*
X164850462Y-93390651D01*
X164869868Y-93399830D01*
X164888281Y-93410866D01*
X164905524Y-93423654D01*
X164921430Y-93438070D01*
X164935846Y-93453976D01*
X164948634Y-93471219D01*
X164959670Y-93489632D01*
X164968849Y-93509038D01*
X164976081Y-93529250D01*
X164981297Y-93550074D01*
X164984447Y-93571309D01*
X164985500Y-93592750D01*
X164985500Y-94105250D01*
X164984447Y-94126691D01*
X164981297Y-94147926D01*
X164976081Y-94168750D01*
X164968849Y-94188962D01*
X164959670Y-94208368D01*
X164948634Y-94226781D01*
X164935846Y-94244024D01*
X164921430Y-94259930D01*
X164905524Y-94274346D01*
X164888281Y-94287134D01*
X164869868Y-94298170D01*
X164850462Y-94307349D01*
X164830250Y-94314581D01*
X164809426Y-94319797D01*
X164788191Y-94322947D01*
X164766750Y-94324000D01*
X164329250Y-94324000D01*
X164307809Y-94322947D01*
X164286574Y-94319797D01*
X164265750Y-94314581D01*
X164245538Y-94307349D01*
X164226132Y-94298170D01*
X164207719Y-94287134D01*
X164190476Y-94274346D01*
X164174570Y-94259930D01*
X164160154Y-94244024D01*
X164147366Y-94226781D01*
X164136330Y-94208368D01*
X164127151Y-94188962D01*
X164119919Y-94168750D01*
X164114703Y-94147926D01*
X164111553Y-94126691D01*
X164110500Y-94105250D01*
X164110500Y-93592750D01*
X164111553Y-93571309D01*
X164114703Y-93550074D01*
X164119919Y-93529250D01*
X164127151Y-93509038D01*
X164136330Y-93489632D01*
X164147366Y-93471219D01*
X164160154Y-93453976D01*
X164174570Y-93438070D01*
X164190476Y-93423654D01*
X164207719Y-93410866D01*
X164226132Y-93399830D01*
X164245538Y-93390651D01*
X164265750Y-93383419D01*
X164286574Y-93378203D01*
X164307809Y-93375053D01*
X164329250Y-93374000D01*
X164766750Y-93374000D01*
X164788191Y-93375053D01*
G37*
G36*
X166363191Y-93375053D02*
G01*
X166384426Y-93378203D01*
X166405250Y-93383419D01*
X166425462Y-93390651D01*
X166444868Y-93399830D01*
X166463281Y-93410866D01*
X166480524Y-93423654D01*
X166496430Y-93438070D01*
X166510846Y-93453976D01*
X166523634Y-93471219D01*
X166534670Y-93489632D01*
X166543849Y-93509038D01*
X166551081Y-93529250D01*
X166556297Y-93550074D01*
X166559447Y-93571309D01*
X166560500Y-93592750D01*
X166560500Y-94105250D01*
X166559447Y-94126691D01*
X166556297Y-94147926D01*
X166551081Y-94168750D01*
X166543849Y-94188962D01*
X166534670Y-94208368D01*
X166523634Y-94226781D01*
X166510846Y-94244024D01*
X166496430Y-94259930D01*
X166480524Y-94274346D01*
X166463281Y-94287134D01*
X166444868Y-94298170D01*
X166425462Y-94307349D01*
X166405250Y-94314581D01*
X166384426Y-94319797D01*
X166363191Y-94322947D01*
X166341750Y-94324000D01*
X165904250Y-94324000D01*
X165882809Y-94322947D01*
X165861574Y-94319797D01*
X165840750Y-94314581D01*
X165820538Y-94307349D01*
X165801132Y-94298170D01*
X165782719Y-94287134D01*
X165765476Y-94274346D01*
X165749570Y-94259930D01*
X165735154Y-94244024D01*
X165722366Y-94226781D01*
X165711330Y-94208368D01*
X165702151Y-94188962D01*
X165694919Y-94168750D01*
X165689703Y-94147926D01*
X165686553Y-94126691D01*
X165685500Y-94105250D01*
X165685500Y-93592750D01*
X165686553Y-93571309D01*
X165689703Y-93550074D01*
X165694919Y-93529250D01*
X165702151Y-93509038D01*
X165711330Y-93489632D01*
X165722366Y-93471219D01*
X165735154Y-93453976D01*
X165749570Y-93438070D01*
X165765476Y-93423654D01*
X165782719Y-93410866D01*
X165801132Y-93399830D01*
X165820538Y-93390651D01*
X165840750Y-93383419D01*
X165861574Y-93378203D01*
X165882809Y-93375053D01*
X165904250Y-93374000D01*
X166341750Y-93374000D01*
X166363191Y-93375053D01*
G37*
G36*
X175253191Y-95860053D02*
G01*
X175274426Y-95863203D01*
X175295250Y-95868419D01*
X175315462Y-95875651D01*
X175334868Y-95884830D01*
X175353281Y-95895866D01*
X175370524Y-95908654D01*
X175386430Y-95923070D01*
X175400846Y-95938976D01*
X175413634Y-95956219D01*
X175424670Y-95974632D01*
X175433849Y-95994038D01*
X175441081Y-96014250D01*
X175446297Y-96035074D01*
X175449447Y-96056309D01*
X175450500Y-96077750D01*
X175450500Y-96590250D01*
X175449447Y-96611691D01*
X175446297Y-96632926D01*
X175441081Y-96653750D01*
X175433849Y-96673962D01*
X175424670Y-96693368D01*
X175413634Y-96711781D01*
X175400846Y-96729024D01*
X175386430Y-96744930D01*
X175370524Y-96759346D01*
X175353281Y-96772134D01*
X175334868Y-96783170D01*
X175315462Y-96792349D01*
X175295250Y-96799581D01*
X175274426Y-96804797D01*
X175253191Y-96807947D01*
X175231750Y-96809000D01*
X174794250Y-96809000D01*
X174772809Y-96807947D01*
X174751574Y-96804797D01*
X174730750Y-96799581D01*
X174710538Y-96792349D01*
X174691132Y-96783170D01*
X174672719Y-96772134D01*
X174655476Y-96759346D01*
X174639570Y-96744930D01*
X174625154Y-96729024D01*
X174612366Y-96711781D01*
X174601330Y-96693368D01*
X174592151Y-96673962D01*
X174584919Y-96653750D01*
X174579703Y-96632926D01*
X174576553Y-96611691D01*
X174575500Y-96590250D01*
X174575500Y-96077750D01*
X174576553Y-96056309D01*
X174579703Y-96035074D01*
X174584919Y-96014250D01*
X174592151Y-95994038D01*
X174601330Y-95974632D01*
X174612366Y-95956219D01*
X174625154Y-95938976D01*
X174639570Y-95923070D01*
X174655476Y-95908654D01*
X174672719Y-95895866D01*
X174691132Y-95884830D01*
X174710538Y-95875651D01*
X174730750Y-95868419D01*
X174751574Y-95863203D01*
X174772809Y-95860053D01*
X174794250Y-95859000D01*
X175231750Y-95859000D01*
X175253191Y-95860053D01*
G37*
G36*
X173678191Y-95860053D02*
G01*
X173699426Y-95863203D01*
X173720250Y-95868419D01*
X173740462Y-95875651D01*
X173759868Y-95884830D01*
X173778281Y-95895866D01*
X173795524Y-95908654D01*
X173811430Y-95923070D01*
X173825846Y-95938976D01*
X173838634Y-95956219D01*
X173849670Y-95974632D01*
X173858849Y-95994038D01*
X173866081Y-96014250D01*
X173871297Y-96035074D01*
X173874447Y-96056309D01*
X173875500Y-96077750D01*
X173875500Y-96590250D01*
X173874447Y-96611691D01*
X173871297Y-96632926D01*
X173866081Y-96653750D01*
X173858849Y-96673962D01*
X173849670Y-96693368D01*
X173838634Y-96711781D01*
X173825846Y-96729024D01*
X173811430Y-96744930D01*
X173795524Y-96759346D01*
X173778281Y-96772134D01*
X173759868Y-96783170D01*
X173740462Y-96792349D01*
X173720250Y-96799581D01*
X173699426Y-96804797D01*
X173678191Y-96807947D01*
X173656750Y-96809000D01*
X173219250Y-96809000D01*
X173197809Y-96807947D01*
X173176574Y-96804797D01*
X173155750Y-96799581D01*
X173135538Y-96792349D01*
X173116132Y-96783170D01*
X173097719Y-96772134D01*
X173080476Y-96759346D01*
X173064570Y-96744930D01*
X173050154Y-96729024D01*
X173037366Y-96711781D01*
X173026330Y-96693368D01*
X173017151Y-96673962D01*
X173009919Y-96653750D01*
X173004703Y-96632926D01*
X173001553Y-96611691D01*
X173000500Y-96590250D01*
X173000500Y-96077750D01*
X173001553Y-96056309D01*
X173004703Y-96035074D01*
X173009919Y-96014250D01*
X173017151Y-95994038D01*
X173026330Y-95974632D01*
X173037366Y-95956219D01*
X173050154Y-95938976D01*
X173064570Y-95923070D01*
X173080476Y-95908654D01*
X173097719Y-95895866D01*
X173116132Y-95884830D01*
X173135538Y-95875651D01*
X173155750Y-95868419D01*
X173176574Y-95863203D01*
X173197809Y-95860053D01*
X173219250Y-95859000D01*
X173656750Y-95859000D01*
X173678191Y-95860053D01*
G37*
G36*
X151611191Y-107061053D02*
G01*
X151632426Y-107064203D01*
X151653250Y-107069419D01*
X151673462Y-107076651D01*
X151692868Y-107085830D01*
X151711281Y-107096866D01*
X151728524Y-107109654D01*
X151744430Y-107124070D01*
X151758846Y-107139976D01*
X151771634Y-107157219D01*
X151782670Y-107175632D01*
X151791849Y-107195038D01*
X151799081Y-107215250D01*
X151804297Y-107236074D01*
X151807447Y-107257309D01*
X151808500Y-107278750D01*
X151808500Y-107791250D01*
X151807447Y-107812691D01*
X151804297Y-107833926D01*
X151799081Y-107854750D01*
X151791849Y-107874962D01*
X151782670Y-107894368D01*
X151771634Y-107912781D01*
X151758846Y-107930024D01*
X151744430Y-107945930D01*
X151728524Y-107960346D01*
X151711281Y-107973134D01*
X151692868Y-107984170D01*
X151673462Y-107993349D01*
X151653250Y-108000581D01*
X151632426Y-108005797D01*
X151611191Y-108008947D01*
X151589750Y-108010000D01*
X151152250Y-108010000D01*
X151130809Y-108008947D01*
X151109574Y-108005797D01*
X151088750Y-108000581D01*
X151068538Y-107993349D01*
X151049132Y-107984170D01*
X151030719Y-107973134D01*
X151013476Y-107960346D01*
X150997570Y-107945930D01*
X150983154Y-107930024D01*
X150970366Y-107912781D01*
X150959330Y-107894368D01*
X150950151Y-107874962D01*
X150942919Y-107854750D01*
X150937703Y-107833926D01*
X150934553Y-107812691D01*
X150933500Y-107791250D01*
X150933500Y-107278750D01*
X150934553Y-107257309D01*
X150937703Y-107236074D01*
X150942919Y-107215250D01*
X150950151Y-107195038D01*
X150959330Y-107175632D01*
X150970366Y-107157219D01*
X150983154Y-107139976D01*
X150997570Y-107124070D01*
X151013476Y-107109654D01*
X151030719Y-107096866D01*
X151049132Y-107085830D01*
X151068538Y-107076651D01*
X151088750Y-107069419D01*
X151109574Y-107064203D01*
X151130809Y-107061053D01*
X151152250Y-107060000D01*
X151589750Y-107060000D01*
X151611191Y-107061053D01*
G37*
G36*
X150036191Y-107061053D02*
G01*
X150057426Y-107064203D01*
X150078250Y-107069419D01*
X150098462Y-107076651D01*
X150117868Y-107085830D01*
X150136281Y-107096866D01*
X150153524Y-107109654D01*
X150169430Y-107124070D01*
X150183846Y-107139976D01*
X150196634Y-107157219D01*
X150207670Y-107175632D01*
X150216849Y-107195038D01*
X150224081Y-107215250D01*
X150229297Y-107236074D01*
X150232447Y-107257309D01*
X150233500Y-107278750D01*
X150233500Y-107791250D01*
X150232447Y-107812691D01*
X150229297Y-107833926D01*
X150224081Y-107854750D01*
X150216849Y-107874962D01*
X150207670Y-107894368D01*
X150196634Y-107912781D01*
X150183846Y-107930024D01*
X150169430Y-107945930D01*
X150153524Y-107960346D01*
X150136281Y-107973134D01*
X150117868Y-107984170D01*
X150098462Y-107993349D01*
X150078250Y-108000581D01*
X150057426Y-108005797D01*
X150036191Y-108008947D01*
X150014750Y-108010000D01*
X149577250Y-108010000D01*
X149555809Y-108008947D01*
X149534574Y-108005797D01*
X149513750Y-108000581D01*
X149493538Y-107993349D01*
X149474132Y-107984170D01*
X149455719Y-107973134D01*
X149438476Y-107960346D01*
X149422570Y-107945930D01*
X149408154Y-107930024D01*
X149395366Y-107912781D01*
X149384330Y-107894368D01*
X149375151Y-107874962D01*
X149367919Y-107854750D01*
X149362703Y-107833926D01*
X149359553Y-107812691D01*
X149358500Y-107791250D01*
X149358500Y-107278750D01*
X149359553Y-107257309D01*
X149362703Y-107236074D01*
X149367919Y-107215250D01*
X149375151Y-107195038D01*
X149384330Y-107175632D01*
X149395366Y-107157219D01*
X149408154Y-107139976D01*
X149422570Y-107124070D01*
X149438476Y-107109654D01*
X149455719Y-107096866D01*
X149474132Y-107085830D01*
X149493538Y-107076651D01*
X149513750Y-107069419D01*
X149534574Y-107064203D01*
X149555809Y-107061053D01*
X149577250Y-107060000D01*
X150014750Y-107060000D01*
X150036191Y-107061053D01*
G37*
D13*
X149666000Y-97236000D03*
X149666000Y-98506000D03*
X149666000Y-99776000D03*
X149666000Y-101046000D03*
X149666000Y-102316000D03*
X149666000Y-103586000D03*
X149666000Y-104856000D03*
X144266000Y-104856000D03*
X144266000Y-103586000D03*
X144266000Y-102316000D03*
X144266000Y-101046000D03*
X144266000Y-99776000D03*
X144266000Y-98506000D03*
X144266000Y-97236000D03*
D11*
G36*
X165730351Y-100529361D02*
G01*
X165737632Y-100530441D01*
X165744771Y-100532229D01*
X165751701Y-100534709D01*
X165758355Y-100537856D01*
X165764668Y-100541640D01*
X165770579Y-100546024D01*
X165776033Y-100550967D01*
X165780976Y-100556421D01*
X165785360Y-100562332D01*
X165789144Y-100568645D01*
X165792291Y-100575299D01*
X165794771Y-100582229D01*
X165796559Y-100589368D01*
X165797639Y-100596649D01*
X165798000Y-100604000D01*
X165798000Y-100754000D01*
X165797639Y-100761351D01*
X165796559Y-100768632D01*
X165794771Y-100775771D01*
X165792291Y-100782701D01*
X165789144Y-100789355D01*
X165785360Y-100795668D01*
X165780976Y-100801579D01*
X165776033Y-100807033D01*
X165770579Y-100811976D01*
X165764668Y-100816360D01*
X165758355Y-100820144D01*
X165751701Y-100823291D01*
X165744771Y-100825771D01*
X165737632Y-100827559D01*
X165730351Y-100828639D01*
X165723000Y-100829000D01*
X164373000Y-100829000D01*
X164365649Y-100828639D01*
X164358368Y-100827559D01*
X164351229Y-100825771D01*
X164344299Y-100823291D01*
X164337645Y-100820144D01*
X164331332Y-100816360D01*
X164325421Y-100811976D01*
X164319967Y-100807033D01*
X164315024Y-100801579D01*
X164310640Y-100795668D01*
X164306856Y-100789355D01*
X164303709Y-100782701D01*
X164301229Y-100775771D01*
X164299441Y-100768632D01*
X164298361Y-100761351D01*
X164298000Y-100754000D01*
X164298000Y-100604000D01*
X164298361Y-100596649D01*
X164299441Y-100589368D01*
X164301229Y-100582229D01*
X164303709Y-100575299D01*
X164306856Y-100568645D01*
X164310640Y-100562332D01*
X164315024Y-100556421D01*
X164319967Y-100550967D01*
X164325421Y-100546024D01*
X164331332Y-100541640D01*
X164337645Y-100537856D01*
X164344299Y-100534709D01*
X164351229Y-100532229D01*
X164358368Y-100530441D01*
X164365649Y-100529361D01*
X164373000Y-100529000D01*
X165723000Y-100529000D01*
X165730351Y-100529361D01*
G37*
G36*
X165730351Y-100029361D02*
G01*
X165737632Y-100030441D01*
X165744771Y-100032229D01*
X165751701Y-100034709D01*
X165758355Y-100037856D01*
X165764668Y-100041640D01*
X165770579Y-100046024D01*
X165776033Y-100050967D01*
X165780976Y-100056421D01*
X165785360Y-100062332D01*
X165789144Y-100068645D01*
X165792291Y-100075299D01*
X165794771Y-100082229D01*
X165796559Y-100089368D01*
X165797639Y-100096649D01*
X165798000Y-100104000D01*
X165798000Y-100254000D01*
X165797639Y-100261351D01*
X165796559Y-100268632D01*
X165794771Y-100275771D01*
X165792291Y-100282701D01*
X165789144Y-100289355D01*
X165785360Y-100295668D01*
X165780976Y-100301579D01*
X165776033Y-100307033D01*
X165770579Y-100311976D01*
X165764668Y-100316360D01*
X165758355Y-100320144D01*
X165751701Y-100323291D01*
X165744771Y-100325771D01*
X165737632Y-100327559D01*
X165730351Y-100328639D01*
X165723000Y-100329000D01*
X164373000Y-100329000D01*
X164365649Y-100328639D01*
X164358368Y-100327559D01*
X164351229Y-100325771D01*
X164344299Y-100323291D01*
X164337645Y-100320144D01*
X164331332Y-100316360D01*
X164325421Y-100311976D01*
X164319967Y-100307033D01*
X164315024Y-100301579D01*
X164310640Y-100295668D01*
X164306856Y-100289355D01*
X164303709Y-100282701D01*
X164301229Y-100275771D01*
X164299441Y-100268632D01*
X164298361Y-100261351D01*
X164298000Y-100254000D01*
X164298000Y-100104000D01*
X164298361Y-100096649D01*
X164299441Y-100089368D01*
X164301229Y-100082229D01*
X164303709Y-100075299D01*
X164306856Y-100068645D01*
X164310640Y-100062332D01*
X164315024Y-100056421D01*
X164319967Y-100050967D01*
X164325421Y-100046024D01*
X164331332Y-100041640D01*
X164337645Y-100037856D01*
X164344299Y-100034709D01*
X164351229Y-100032229D01*
X164358368Y-100030441D01*
X164365649Y-100029361D01*
X164373000Y-100029000D01*
X165723000Y-100029000D01*
X165730351Y-100029361D01*
G37*
G36*
X165730351Y-99529361D02*
G01*
X165737632Y-99530441D01*
X165744771Y-99532229D01*
X165751701Y-99534709D01*
X165758355Y-99537856D01*
X165764668Y-99541640D01*
X165770579Y-99546024D01*
X165776033Y-99550967D01*
X165780976Y-99556421D01*
X165785360Y-99562332D01*
X165789144Y-99568645D01*
X165792291Y-99575299D01*
X165794771Y-99582229D01*
X165796559Y-99589368D01*
X165797639Y-99596649D01*
X165798000Y-99604000D01*
X165798000Y-99754000D01*
X165797639Y-99761351D01*
X165796559Y-99768632D01*
X165794771Y-99775771D01*
X165792291Y-99782701D01*
X165789144Y-99789355D01*
X165785360Y-99795668D01*
X165780976Y-99801579D01*
X165776033Y-99807033D01*
X165770579Y-99811976D01*
X165764668Y-99816360D01*
X165758355Y-99820144D01*
X165751701Y-99823291D01*
X165744771Y-99825771D01*
X165737632Y-99827559D01*
X165730351Y-99828639D01*
X165723000Y-99829000D01*
X164373000Y-99829000D01*
X164365649Y-99828639D01*
X164358368Y-99827559D01*
X164351229Y-99825771D01*
X164344299Y-99823291D01*
X164337645Y-99820144D01*
X164331332Y-99816360D01*
X164325421Y-99811976D01*
X164319967Y-99807033D01*
X164315024Y-99801579D01*
X164310640Y-99795668D01*
X164306856Y-99789355D01*
X164303709Y-99782701D01*
X164301229Y-99775771D01*
X164299441Y-99768632D01*
X164298361Y-99761351D01*
X164298000Y-99754000D01*
X164298000Y-99604000D01*
X164298361Y-99596649D01*
X164299441Y-99589368D01*
X164301229Y-99582229D01*
X164303709Y-99575299D01*
X164306856Y-99568645D01*
X164310640Y-99562332D01*
X164315024Y-99556421D01*
X164319967Y-99550967D01*
X164325421Y-99546024D01*
X164331332Y-99541640D01*
X164337645Y-99537856D01*
X164344299Y-99534709D01*
X164351229Y-99532229D01*
X164358368Y-99530441D01*
X164365649Y-99529361D01*
X164373000Y-99529000D01*
X165723000Y-99529000D01*
X165730351Y-99529361D01*
G37*
G36*
X165730351Y-99029361D02*
G01*
X165737632Y-99030441D01*
X165744771Y-99032229D01*
X165751701Y-99034709D01*
X165758355Y-99037856D01*
X165764668Y-99041640D01*
X165770579Y-99046024D01*
X165776033Y-99050967D01*
X165780976Y-99056421D01*
X165785360Y-99062332D01*
X165789144Y-99068645D01*
X165792291Y-99075299D01*
X165794771Y-99082229D01*
X165796559Y-99089368D01*
X165797639Y-99096649D01*
X165798000Y-99104000D01*
X165798000Y-99254000D01*
X165797639Y-99261351D01*
X165796559Y-99268632D01*
X165794771Y-99275771D01*
X165792291Y-99282701D01*
X165789144Y-99289355D01*
X165785360Y-99295668D01*
X165780976Y-99301579D01*
X165776033Y-99307033D01*
X165770579Y-99311976D01*
X165764668Y-99316360D01*
X165758355Y-99320144D01*
X165751701Y-99323291D01*
X165744771Y-99325771D01*
X165737632Y-99327559D01*
X165730351Y-99328639D01*
X165723000Y-99329000D01*
X164373000Y-99329000D01*
X164365649Y-99328639D01*
X164358368Y-99327559D01*
X164351229Y-99325771D01*
X164344299Y-99323291D01*
X164337645Y-99320144D01*
X164331332Y-99316360D01*
X164325421Y-99311976D01*
X164319967Y-99307033D01*
X164315024Y-99301579D01*
X164310640Y-99295668D01*
X164306856Y-99289355D01*
X164303709Y-99282701D01*
X164301229Y-99275771D01*
X164299441Y-99268632D01*
X164298361Y-99261351D01*
X164298000Y-99254000D01*
X164298000Y-99104000D01*
X164298361Y-99096649D01*
X164299441Y-99089368D01*
X164301229Y-99082229D01*
X164303709Y-99075299D01*
X164306856Y-99068645D01*
X164310640Y-99062332D01*
X164315024Y-99056421D01*
X164319967Y-99050967D01*
X164325421Y-99046024D01*
X164331332Y-99041640D01*
X164337645Y-99037856D01*
X164344299Y-99034709D01*
X164351229Y-99032229D01*
X164358368Y-99030441D01*
X164365649Y-99029361D01*
X164373000Y-99029000D01*
X165723000Y-99029000D01*
X165730351Y-99029361D01*
G37*
G36*
X165730351Y-98529361D02*
G01*
X165737632Y-98530441D01*
X165744771Y-98532229D01*
X165751701Y-98534709D01*
X165758355Y-98537856D01*
X165764668Y-98541640D01*
X165770579Y-98546024D01*
X165776033Y-98550967D01*
X165780976Y-98556421D01*
X165785360Y-98562332D01*
X165789144Y-98568645D01*
X165792291Y-98575299D01*
X165794771Y-98582229D01*
X165796559Y-98589368D01*
X165797639Y-98596649D01*
X165798000Y-98604000D01*
X165798000Y-98754000D01*
X165797639Y-98761351D01*
X165796559Y-98768632D01*
X165794771Y-98775771D01*
X165792291Y-98782701D01*
X165789144Y-98789355D01*
X165785360Y-98795668D01*
X165780976Y-98801579D01*
X165776033Y-98807033D01*
X165770579Y-98811976D01*
X165764668Y-98816360D01*
X165758355Y-98820144D01*
X165751701Y-98823291D01*
X165744771Y-98825771D01*
X165737632Y-98827559D01*
X165730351Y-98828639D01*
X165723000Y-98829000D01*
X164373000Y-98829000D01*
X164365649Y-98828639D01*
X164358368Y-98827559D01*
X164351229Y-98825771D01*
X164344299Y-98823291D01*
X164337645Y-98820144D01*
X164331332Y-98816360D01*
X164325421Y-98811976D01*
X164319967Y-98807033D01*
X164315024Y-98801579D01*
X164310640Y-98795668D01*
X164306856Y-98789355D01*
X164303709Y-98782701D01*
X164301229Y-98775771D01*
X164299441Y-98768632D01*
X164298361Y-98761351D01*
X164298000Y-98754000D01*
X164298000Y-98604000D01*
X164298361Y-98596649D01*
X164299441Y-98589368D01*
X164301229Y-98582229D01*
X164303709Y-98575299D01*
X164306856Y-98568645D01*
X164310640Y-98562332D01*
X164315024Y-98556421D01*
X164319967Y-98550967D01*
X164325421Y-98546024D01*
X164331332Y-98541640D01*
X164337645Y-98537856D01*
X164344299Y-98534709D01*
X164351229Y-98532229D01*
X164358368Y-98530441D01*
X164365649Y-98529361D01*
X164373000Y-98529000D01*
X165723000Y-98529000D01*
X165730351Y-98529361D01*
G37*
G36*
X165730351Y-98029361D02*
G01*
X165737632Y-98030441D01*
X165744771Y-98032229D01*
X165751701Y-98034709D01*
X165758355Y-98037856D01*
X165764668Y-98041640D01*
X165770579Y-98046024D01*
X165776033Y-98050967D01*
X165780976Y-98056421D01*
X165785360Y-98062332D01*
X165789144Y-98068645D01*
X165792291Y-98075299D01*
X165794771Y-98082229D01*
X165796559Y-98089368D01*
X165797639Y-98096649D01*
X165798000Y-98104000D01*
X165798000Y-98254000D01*
X165797639Y-98261351D01*
X165796559Y-98268632D01*
X165794771Y-98275771D01*
X165792291Y-98282701D01*
X165789144Y-98289355D01*
X165785360Y-98295668D01*
X165780976Y-98301579D01*
X165776033Y-98307033D01*
X165770579Y-98311976D01*
X165764668Y-98316360D01*
X165758355Y-98320144D01*
X165751701Y-98323291D01*
X165744771Y-98325771D01*
X165737632Y-98327559D01*
X165730351Y-98328639D01*
X165723000Y-98329000D01*
X164373000Y-98329000D01*
X164365649Y-98328639D01*
X164358368Y-98327559D01*
X164351229Y-98325771D01*
X164344299Y-98323291D01*
X164337645Y-98320144D01*
X164331332Y-98316360D01*
X164325421Y-98311976D01*
X164319967Y-98307033D01*
X164315024Y-98301579D01*
X164310640Y-98295668D01*
X164306856Y-98289355D01*
X164303709Y-98282701D01*
X164301229Y-98275771D01*
X164299441Y-98268632D01*
X164298361Y-98261351D01*
X164298000Y-98254000D01*
X164298000Y-98104000D01*
X164298361Y-98096649D01*
X164299441Y-98089368D01*
X164301229Y-98082229D01*
X164303709Y-98075299D01*
X164306856Y-98068645D01*
X164310640Y-98062332D01*
X164315024Y-98056421D01*
X164319967Y-98050967D01*
X164325421Y-98046024D01*
X164331332Y-98041640D01*
X164337645Y-98037856D01*
X164344299Y-98034709D01*
X164351229Y-98032229D01*
X164358368Y-98030441D01*
X164365649Y-98029361D01*
X164373000Y-98029000D01*
X165723000Y-98029000D01*
X165730351Y-98029361D01*
G37*
G36*
X165730351Y-97529361D02*
G01*
X165737632Y-97530441D01*
X165744771Y-97532229D01*
X165751701Y-97534709D01*
X165758355Y-97537856D01*
X165764668Y-97541640D01*
X165770579Y-97546024D01*
X165776033Y-97550967D01*
X165780976Y-97556421D01*
X165785360Y-97562332D01*
X165789144Y-97568645D01*
X165792291Y-97575299D01*
X165794771Y-97582229D01*
X165796559Y-97589368D01*
X165797639Y-97596649D01*
X165798000Y-97604000D01*
X165798000Y-97754000D01*
X165797639Y-97761351D01*
X165796559Y-97768632D01*
X165794771Y-97775771D01*
X165792291Y-97782701D01*
X165789144Y-97789355D01*
X165785360Y-97795668D01*
X165780976Y-97801579D01*
X165776033Y-97807033D01*
X165770579Y-97811976D01*
X165764668Y-97816360D01*
X165758355Y-97820144D01*
X165751701Y-97823291D01*
X165744771Y-97825771D01*
X165737632Y-97827559D01*
X165730351Y-97828639D01*
X165723000Y-97829000D01*
X164373000Y-97829000D01*
X164365649Y-97828639D01*
X164358368Y-97827559D01*
X164351229Y-97825771D01*
X164344299Y-97823291D01*
X164337645Y-97820144D01*
X164331332Y-97816360D01*
X164325421Y-97811976D01*
X164319967Y-97807033D01*
X164315024Y-97801579D01*
X164310640Y-97795668D01*
X164306856Y-97789355D01*
X164303709Y-97782701D01*
X164301229Y-97775771D01*
X164299441Y-97768632D01*
X164298361Y-97761351D01*
X164298000Y-97754000D01*
X164298000Y-97604000D01*
X164298361Y-97596649D01*
X164299441Y-97589368D01*
X164301229Y-97582229D01*
X164303709Y-97575299D01*
X164306856Y-97568645D01*
X164310640Y-97562332D01*
X164315024Y-97556421D01*
X164319967Y-97550967D01*
X164325421Y-97546024D01*
X164331332Y-97541640D01*
X164337645Y-97537856D01*
X164344299Y-97534709D01*
X164351229Y-97532229D01*
X164358368Y-97530441D01*
X164365649Y-97529361D01*
X164373000Y-97529000D01*
X165723000Y-97529000D01*
X165730351Y-97529361D01*
G37*
G36*
X165730351Y-97029361D02*
G01*
X165737632Y-97030441D01*
X165744771Y-97032229D01*
X165751701Y-97034709D01*
X165758355Y-97037856D01*
X165764668Y-97041640D01*
X165770579Y-97046024D01*
X165776033Y-97050967D01*
X165780976Y-97056421D01*
X165785360Y-97062332D01*
X165789144Y-97068645D01*
X165792291Y-97075299D01*
X165794771Y-97082229D01*
X165796559Y-97089368D01*
X165797639Y-97096649D01*
X165798000Y-97104000D01*
X165798000Y-97254000D01*
X165797639Y-97261351D01*
X165796559Y-97268632D01*
X165794771Y-97275771D01*
X165792291Y-97282701D01*
X165789144Y-97289355D01*
X165785360Y-97295668D01*
X165780976Y-97301579D01*
X165776033Y-97307033D01*
X165770579Y-97311976D01*
X165764668Y-97316360D01*
X165758355Y-97320144D01*
X165751701Y-97323291D01*
X165744771Y-97325771D01*
X165737632Y-97327559D01*
X165730351Y-97328639D01*
X165723000Y-97329000D01*
X164373000Y-97329000D01*
X164365649Y-97328639D01*
X164358368Y-97327559D01*
X164351229Y-97325771D01*
X164344299Y-97323291D01*
X164337645Y-97320144D01*
X164331332Y-97316360D01*
X164325421Y-97311976D01*
X164319967Y-97307033D01*
X164315024Y-97301579D01*
X164310640Y-97295668D01*
X164306856Y-97289355D01*
X164303709Y-97282701D01*
X164301229Y-97275771D01*
X164299441Y-97268632D01*
X164298361Y-97261351D01*
X164298000Y-97254000D01*
X164298000Y-97104000D01*
X164298361Y-97096649D01*
X164299441Y-97089368D01*
X164301229Y-97082229D01*
X164303709Y-97075299D01*
X164306856Y-97068645D01*
X164310640Y-97062332D01*
X164315024Y-97056421D01*
X164319967Y-97050967D01*
X164325421Y-97046024D01*
X164331332Y-97041640D01*
X164337645Y-97037856D01*
X164344299Y-97034709D01*
X164351229Y-97032229D01*
X164358368Y-97030441D01*
X164365649Y-97029361D01*
X164373000Y-97029000D01*
X165723000Y-97029000D01*
X165730351Y-97029361D01*
G37*
G36*
X166555351Y-95004361D02*
G01*
X166562632Y-95005441D01*
X166569771Y-95007229D01*
X166576701Y-95009709D01*
X166583355Y-95012856D01*
X166589668Y-95016640D01*
X166595579Y-95021024D01*
X166601033Y-95025967D01*
X166605976Y-95031421D01*
X166610360Y-95037332D01*
X166614144Y-95043645D01*
X166617291Y-95050299D01*
X166619771Y-95057229D01*
X166621559Y-95064368D01*
X166622639Y-95071649D01*
X166623000Y-95079000D01*
X166623000Y-96429000D01*
X166622639Y-96436351D01*
X166621559Y-96443632D01*
X166619771Y-96450771D01*
X166617291Y-96457701D01*
X166614144Y-96464355D01*
X166610360Y-96470668D01*
X166605976Y-96476579D01*
X166601033Y-96482033D01*
X166595579Y-96486976D01*
X166589668Y-96491360D01*
X166583355Y-96495144D01*
X166576701Y-96498291D01*
X166569771Y-96500771D01*
X166562632Y-96502559D01*
X166555351Y-96503639D01*
X166548000Y-96504000D01*
X166398000Y-96504000D01*
X166390649Y-96503639D01*
X166383368Y-96502559D01*
X166376229Y-96500771D01*
X166369299Y-96498291D01*
X166362645Y-96495144D01*
X166356332Y-96491360D01*
X166350421Y-96486976D01*
X166344967Y-96482033D01*
X166340024Y-96476579D01*
X166335640Y-96470668D01*
X166331856Y-96464355D01*
X166328709Y-96457701D01*
X166326229Y-96450771D01*
X166324441Y-96443632D01*
X166323361Y-96436351D01*
X166323000Y-96429000D01*
X166323000Y-95079000D01*
X166323361Y-95071649D01*
X166324441Y-95064368D01*
X166326229Y-95057229D01*
X166328709Y-95050299D01*
X166331856Y-95043645D01*
X166335640Y-95037332D01*
X166340024Y-95031421D01*
X166344967Y-95025967D01*
X166350421Y-95021024D01*
X166356332Y-95016640D01*
X166362645Y-95012856D01*
X166369299Y-95009709D01*
X166376229Y-95007229D01*
X166383368Y-95005441D01*
X166390649Y-95004361D01*
X166398000Y-95004000D01*
X166548000Y-95004000D01*
X166555351Y-95004361D01*
G37*
G36*
X167055351Y-95004361D02*
G01*
X167062632Y-95005441D01*
X167069771Y-95007229D01*
X167076701Y-95009709D01*
X167083355Y-95012856D01*
X167089668Y-95016640D01*
X167095579Y-95021024D01*
X167101033Y-95025967D01*
X167105976Y-95031421D01*
X167110360Y-95037332D01*
X167114144Y-95043645D01*
X167117291Y-95050299D01*
X167119771Y-95057229D01*
X167121559Y-95064368D01*
X167122639Y-95071649D01*
X167123000Y-95079000D01*
X167123000Y-96429000D01*
X167122639Y-96436351D01*
X167121559Y-96443632D01*
X167119771Y-96450771D01*
X167117291Y-96457701D01*
X167114144Y-96464355D01*
X167110360Y-96470668D01*
X167105976Y-96476579D01*
X167101033Y-96482033D01*
X167095579Y-96486976D01*
X167089668Y-96491360D01*
X167083355Y-96495144D01*
X167076701Y-96498291D01*
X167069771Y-96500771D01*
X167062632Y-96502559D01*
X167055351Y-96503639D01*
X167048000Y-96504000D01*
X166898000Y-96504000D01*
X166890649Y-96503639D01*
X166883368Y-96502559D01*
X166876229Y-96500771D01*
X166869299Y-96498291D01*
X166862645Y-96495144D01*
X166856332Y-96491360D01*
X166850421Y-96486976D01*
X166844967Y-96482033D01*
X166840024Y-96476579D01*
X166835640Y-96470668D01*
X166831856Y-96464355D01*
X166828709Y-96457701D01*
X166826229Y-96450771D01*
X166824441Y-96443632D01*
X166823361Y-96436351D01*
X166823000Y-96429000D01*
X166823000Y-95079000D01*
X166823361Y-95071649D01*
X166824441Y-95064368D01*
X166826229Y-95057229D01*
X166828709Y-95050299D01*
X166831856Y-95043645D01*
X166835640Y-95037332D01*
X166840024Y-95031421D01*
X166844967Y-95025967D01*
X166850421Y-95021024D01*
X166856332Y-95016640D01*
X166862645Y-95012856D01*
X166869299Y-95009709D01*
X166876229Y-95007229D01*
X166883368Y-95005441D01*
X166890649Y-95004361D01*
X166898000Y-95004000D01*
X167048000Y-95004000D01*
X167055351Y-95004361D01*
G37*
G36*
X167555351Y-95004361D02*
G01*
X167562632Y-95005441D01*
X167569771Y-95007229D01*
X167576701Y-95009709D01*
X167583355Y-95012856D01*
X167589668Y-95016640D01*
X167595579Y-95021024D01*
X167601033Y-95025967D01*
X167605976Y-95031421D01*
X167610360Y-95037332D01*
X167614144Y-95043645D01*
X167617291Y-95050299D01*
X167619771Y-95057229D01*
X167621559Y-95064368D01*
X167622639Y-95071649D01*
X167623000Y-95079000D01*
X167623000Y-96429000D01*
X167622639Y-96436351D01*
X167621559Y-96443632D01*
X167619771Y-96450771D01*
X167617291Y-96457701D01*
X167614144Y-96464355D01*
X167610360Y-96470668D01*
X167605976Y-96476579D01*
X167601033Y-96482033D01*
X167595579Y-96486976D01*
X167589668Y-96491360D01*
X167583355Y-96495144D01*
X167576701Y-96498291D01*
X167569771Y-96500771D01*
X167562632Y-96502559D01*
X167555351Y-96503639D01*
X167548000Y-96504000D01*
X167398000Y-96504000D01*
X167390649Y-96503639D01*
X167383368Y-96502559D01*
X167376229Y-96500771D01*
X167369299Y-96498291D01*
X167362645Y-96495144D01*
X167356332Y-96491360D01*
X167350421Y-96486976D01*
X167344967Y-96482033D01*
X167340024Y-96476579D01*
X167335640Y-96470668D01*
X167331856Y-96464355D01*
X167328709Y-96457701D01*
X167326229Y-96450771D01*
X167324441Y-96443632D01*
X167323361Y-96436351D01*
X167323000Y-96429000D01*
X167323000Y-95079000D01*
X167323361Y-95071649D01*
X167324441Y-95064368D01*
X167326229Y-95057229D01*
X167328709Y-95050299D01*
X167331856Y-95043645D01*
X167335640Y-95037332D01*
X167340024Y-95031421D01*
X167344967Y-95025967D01*
X167350421Y-95021024D01*
X167356332Y-95016640D01*
X167362645Y-95012856D01*
X167369299Y-95009709D01*
X167376229Y-95007229D01*
X167383368Y-95005441D01*
X167390649Y-95004361D01*
X167398000Y-95004000D01*
X167548000Y-95004000D01*
X167555351Y-95004361D01*
G37*
G36*
X168055351Y-95004361D02*
G01*
X168062632Y-95005441D01*
X168069771Y-95007229D01*
X168076701Y-95009709D01*
X168083355Y-95012856D01*
X168089668Y-95016640D01*
X168095579Y-95021024D01*
X168101033Y-95025967D01*
X168105976Y-95031421D01*
X168110360Y-95037332D01*
X168114144Y-95043645D01*
X168117291Y-95050299D01*
X168119771Y-95057229D01*
X168121559Y-95064368D01*
X168122639Y-95071649D01*
X168123000Y-95079000D01*
X168123000Y-96429000D01*
X168122639Y-96436351D01*
X168121559Y-96443632D01*
X168119771Y-96450771D01*
X168117291Y-96457701D01*
X168114144Y-96464355D01*
X168110360Y-96470668D01*
X168105976Y-96476579D01*
X168101033Y-96482033D01*
X168095579Y-96486976D01*
X168089668Y-96491360D01*
X168083355Y-96495144D01*
X168076701Y-96498291D01*
X168069771Y-96500771D01*
X168062632Y-96502559D01*
X168055351Y-96503639D01*
X168048000Y-96504000D01*
X167898000Y-96504000D01*
X167890649Y-96503639D01*
X167883368Y-96502559D01*
X167876229Y-96500771D01*
X167869299Y-96498291D01*
X167862645Y-96495144D01*
X167856332Y-96491360D01*
X167850421Y-96486976D01*
X167844967Y-96482033D01*
X167840024Y-96476579D01*
X167835640Y-96470668D01*
X167831856Y-96464355D01*
X167828709Y-96457701D01*
X167826229Y-96450771D01*
X167824441Y-96443632D01*
X167823361Y-96436351D01*
X167823000Y-96429000D01*
X167823000Y-95079000D01*
X167823361Y-95071649D01*
X167824441Y-95064368D01*
X167826229Y-95057229D01*
X167828709Y-95050299D01*
X167831856Y-95043645D01*
X167835640Y-95037332D01*
X167840024Y-95031421D01*
X167844967Y-95025967D01*
X167850421Y-95021024D01*
X167856332Y-95016640D01*
X167862645Y-95012856D01*
X167869299Y-95009709D01*
X167876229Y-95007229D01*
X167883368Y-95005441D01*
X167890649Y-95004361D01*
X167898000Y-95004000D01*
X168048000Y-95004000D01*
X168055351Y-95004361D01*
G37*
G36*
X168555351Y-95004361D02*
G01*
X168562632Y-95005441D01*
X168569771Y-95007229D01*
X168576701Y-95009709D01*
X168583355Y-95012856D01*
X168589668Y-95016640D01*
X168595579Y-95021024D01*
X168601033Y-95025967D01*
X168605976Y-95031421D01*
X168610360Y-95037332D01*
X168614144Y-95043645D01*
X168617291Y-95050299D01*
X168619771Y-95057229D01*
X168621559Y-95064368D01*
X168622639Y-95071649D01*
X168623000Y-95079000D01*
X168623000Y-96429000D01*
X168622639Y-96436351D01*
X168621559Y-96443632D01*
X168619771Y-96450771D01*
X168617291Y-96457701D01*
X168614144Y-96464355D01*
X168610360Y-96470668D01*
X168605976Y-96476579D01*
X168601033Y-96482033D01*
X168595579Y-96486976D01*
X168589668Y-96491360D01*
X168583355Y-96495144D01*
X168576701Y-96498291D01*
X168569771Y-96500771D01*
X168562632Y-96502559D01*
X168555351Y-96503639D01*
X168548000Y-96504000D01*
X168398000Y-96504000D01*
X168390649Y-96503639D01*
X168383368Y-96502559D01*
X168376229Y-96500771D01*
X168369299Y-96498291D01*
X168362645Y-96495144D01*
X168356332Y-96491360D01*
X168350421Y-96486976D01*
X168344967Y-96482033D01*
X168340024Y-96476579D01*
X168335640Y-96470668D01*
X168331856Y-96464355D01*
X168328709Y-96457701D01*
X168326229Y-96450771D01*
X168324441Y-96443632D01*
X168323361Y-96436351D01*
X168323000Y-96429000D01*
X168323000Y-95079000D01*
X168323361Y-95071649D01*
X168324441Y-95064368D01*
X168326229Y-95057229D01*
X168328709Y-95050299D01*
X168331856Y-95043645D01*
X168335640Y-95037332D01*
X168340024Y-95031421D01*
X168344967Y-95025967D01*
X168350421Y-95021024D01*
X168356332Y-95016640D01*
X168362645Y-95012856D01*
X168369299Y-95009709D01*
X168376229Y-95007229D01*
X168383368Y-95005441D01*
X168390649Y-95004361D01*
X168398000Y-95004000D01*
X168548000Y-95004000D01*
X168555351Y-95004361D01*
G37*
G36*
X169055351Y-95004361D02*
G01*
X169062632Y-95005441D01*
X169069771Y-95007229D01*
X169076701Y-95009709D01*
X169083355Y-95012856D01*
X169089668Y-95016640D01*
X169095579Y-95021024D01*
X169101033Y-95025967D01*
X169105976Y-95031421D01*
X169110360Y-95037332D01*
X169114144Y-95043645D01*
X169117291Y-95050299D01*
X169119771Y-95057229D01*
X169121559Y-95064368D01*
X169122639Y-95071649D01*
X169123000Y-95079000D01*
X169123000Y-96429000D01*
X169122639Y-96436351D01*
X169121559Y-96443632D01*
X169119771Y-96450771D01*
X169117291Y-96457701D01*
X169114144Y-96464355D01*
X169110360Y-96470668D01*
X169105976Y-96476579D01*
X169101033Y-96482033D01*
X169095579Y-96486976D01*
X169089668Y-96491360D01*
X169083355Y-96495144D01*
X169076701Y-96498291D01*
X169069771Y-96500771D01*
X169062632Y-96502559D01*
X169055351Y-96503639D01*
X169048000Y-96504000D01*
X168898000Y-96504000D01*
X168890649Y-96503639D01*
X168883368Y-96502559D01*
X168876229Y-96500771D01*
X168869299Y-96498291D01*
X168862645Y-96495144D01*
X168856332Y-96491360D01*
X168850421Y-96486976D01*
X168844967Y-96482033D01*
X168840024Y-96476579D01*
X168835640Y-96470668D01*
X168831856Y-96464355D01*
X168828709Y-96457701D01*
X168826229Y-96450771D01*
X168824441Y-96443632D01*
X168823361Y-96436351D01*
X168823000Y-96429000D01*
X168823000Y-95079000D01*
X168823361Y-95071649D01*
X168824441Y-95064368D01*
X168826229Y-95057229D01*
X168828709Y-95050299D01*
X168831856Y-95043645D01*
X168835640Y-95037332D01*
X168840024Y-95031421D01*
X168844967Y-95025967D01*
X168850421Y-95021024D01*
X168856332Y-95016640D01*
X168862645Y-95012856D01*
X168869299Y-95009709D01*
X168876229Y-95007229D01*
X168883368Y-95005441D01*
X168890649Y-95004361D01*
X168898000Y-95004000D01*
X169048000Y-95004000D01*
X169055351Y-95004361D01*
G37*
G36*
X169555351Y-95004361D02*
G01*
X169562632Y-95005441D01*
X169569771Y-95007229D01*
X169576701Y-95009709D01*
X169583355Y-95012856D01*
X169589668Y-95016640D01*
X169595579Y-95021024D01*
X169601033Y-95025967D01*
X169605976Y-95031421D01*
X169610360Y-95037332D01*
X169614144Y-95043645D01*
X169617291Y-95050299D01*
X169619771Y-95057229D01*
X169621559Y-95064368D01*
X169622639Y-95071649D01*
X169623000Y-95079000D01*
X169623000Y-96429000D01*
X169622639Y-96436351D01*
X169621559Y-96443632D01*
X169619771Y-96450771D01*
X169617291Y-96457701D01*
X169614144Y-96464355D01*
X169610360Y-96470668D01*
X169605976Y-96476579D01*
X169601033Y-96482033D01*
X169595579Y-96486976D01*
X169589668Y-96491360D01*
X169583355Y-96495144D01*
X169576701Y-96498291D01*
X169569771Y-96500771D01*
X169562632Y-96502559D01*
X169555351Y-96503639D01*
X169548000Y-96504000D01*
X169398000Y-96504000D01*
X169390649Y-96503639D01*
X169383368Y-96502559D01*
X169376229Y-96500771D01*
X169369299Y-96498291D01*
X169362645Y-96495144D01*
X169356332Y-96491360D01*
X169350421Y-96486976D01*
X169344967Y-96482033D01*
X169340024Y-96476579D01*
X169335640Y-96470668D01*
X169331856Y-96464355D01*
X169328709Y-96457701D01*
X169326229Y-96450771D01*
X169324441Y-96443632D01*
X169323361Y-96436351D01*
X169323000Y-96429000D01*
X169323000Y-95079000D01*
X169323361Y-95071649D01*
X169324441Y-95064368D01*
X169326229Y-95057229D01*
X169328709Y-95050299D01*
X169331856Y-95043645D01*
X169335640Y-95037332D01*
X169340024Y-95031421D01*
X169344967Y-95025967D01*
X169350421Y-95021024D01*
X169356332Y-95016640D01*
X169362645Y-95012856D01*
X169369299Y-95009709D01*
X169376229Y-95007229D01*
X169383368Y-95005441D01*
X169390649Y-95004361D01*
X169398000Y-95004000D01*
X169548000Y-95004000D01*
X169555351Y-95004361D01*
G37*
G36*
X170055351Y-95004361D02*
G01*
X170062632Y-95005441D01*
X170069771Y-95007229D01*
X170076701Y-95009709D01*
X170083355Y-95012856D01*
X170089668Y-95016640D01*
X170095579Y-95021024D01*
X170101033Y-95025967D01*
X170105976Y-95031421D01*
X170110360Y-95037332D01*
X170114144Y-95043645D01*
X170117291Y-95050299D01*
X170119771Y-95057229D01*
X170121559Y-95064368D01*
X170122639Y-95071649D01*
X170123000Y-95079000D01*
X170123000Y-96429000D01*
X170122639Y-96436351D01*
X170121559Y-96443632D01*
X170119771Y-96450771D01*
X170117291Y-96457701D01*
X170114144Y-96464355D01*
X170110360Y-96470668D01*
X170105976Y-96476579D01*
X170101033Y-96482033D01*
X170095579Y-96486976D01*
X170089668Y-96491360D01*
X170083355Y-96495144D01*
X170076701Y-96498291D01*
X170069771Y-96500771D01*
X170062632Y-96502559D01*
X170055351Y-96503639D01*
X170048000Y-96504000D01*
X169898000Y-96504000D01*
X169890649Y-96503639D01*
X169883368Y-96502559D01*
X169876229Y-96500771D01*
X169869299Y-96498291D01*
X169862645Y-96495144D01*
X169856332Y-96491360D01*
X169850421Y-96486976D01*
X169844967Y-96482033D01*
X169840024Y-96476579D01*
X169835640Y-96470668D01*
X169831856Y-96464355D01*
X169828709Y-96457701D01*
X169826229Y-96450771D01*
X169824441Y-96443632D01*
X169823361Y-96436351D01*
X169823000Y-96429000D01*
X169823000Y-95079000D01*
X169823361Y-95071649D01*
X169824441Y-95064368D01*
X169826229Y-95057229D01*
X169828709Y-95050299D01*
X169831856Y-95043645D01*
X169835640Y-95037332D01*
X169840024Y-95031421D01*
X169844967Y-95025967D01*
X169850421Y-95021024D01*
X169856332Y-95016640D01*
X169862645Y-95012856D01*
X169869299Y-95009709D01*
X169876229Y-95007229D01*
X169883368Y-95005441D01*
X169890649Y-95004361D01*
X169898000Y-95004000D01*
X170048000Y-95004000D01*
X170055351Y-95004361D01*
G37*
G36*
X172080351Y-97029361D02*
G01*
X172087632Y-97030441D01*
X172094771Y-97032229D01*
X172101701Y-97034709D01*
X172108355Y-97037856D01*
X172114668Y-97041640D01*
X172120579Y-97046024D01*
X172126033Y-97050967D01*
X172130976Y-97056421D01*
X172135360Y-97062332D01*
X172139144Y-97068645D01*
X172142291Y-97075299D01*
X172144771Y-97082229D01*
X172146559Y-97089368D01*
X172147639Y-97096649D01*
X172148000Y-97104000D01*
X172148000Y-97254000D01*
X172147639Y-97261351D01*
X172146559Y-97268632D01*
X172144771Y-97275771D01*
X172142291Y-97282701D01*
X172139144Y-97289355D01*
X172135360Y-97295668D01*
X172130976Y-97301579D01*
X172126033Y-97307033D01*
X172120579Y-97311976D01*
X172114668Y-97316360D01*
X172108355Y-97320144D01*
X172101701Y-97323291D01*
X172094771Y-97325771D01*
X172087632Y-97327559D01*
X172080351Y-97328639D01*
X172073000Y-97329000D01*
X170723000Y-97329000D01*
X170715649Y-97328639D01*
X170708368Y-97327559D01*
X170701229Y-97325771D01*
X170694299Y-97323291D01*
X170687645Y-97320144D01*
X170681332Y-97316360D01*
X170675421Y-97311976D01*
X170669967Y-97307033D01*
X170665024Y-97301579D01*
X170660640Y-97295668D01*
X170656856Y-97289355D01*
X170653709Y-97282701D01*
X170651229Y-97275771D01*
X170649441Y-97268632D01*
X170648361Y-97261351D01*
X170648000Y-97254000D01*
X170648000Y-97104000D01*
X170648361Y-97096649D01*
X170649441Y-97089368D01*
X170651229Y-97082229D01*
X170653709Y-97075299D01*
X170656856Y-97068645D01*
X170660640Y-97062332D01*
X170665024Y-97056421D01*
X170669967Y-97050967D01*
X170675421Y-97046024D01*
X170681332Y-97041640D01*
X170687645Y-97037856D01*
X170694299Y-97034709D01*
X170701229Y-97032229D01*
X170708368Y-97030441D01*
X170715649Y-97029361D01*
X170723000Y-97029000D01*
X172073000Y-97029000D01*
X172080351Y-97029361D01*
G37*
G36*
X172080351Y-97529361D02*
G01*
X172087632Y-97530441D01*
X172094771Y-97532229D01*
X172101701Y-97534709D01*
X172108355Y-97537856D01*
X172114668Y-97541640D01*
X172120579Y-97546024D01*
X172126033Y-97550967D01*
X172130976Y-97556421D01*
X172135360Y-97562332D01*
X172139144Y-97568645D01*
X172142291Y-97575299D01*
X172144771Y-97582229D01*
X172146559Y-97589368D01*
X172147639Y-97596649D01*
X172148000Y-97604000D01*
X172148000Y-97754000D01*
X172147639Y-97761351D01*
X172146559Y-97768632D01*
X172144771Y-97775771D01*
X172142291Y-97782701D01*
X172139144Y-97789355D01*
X172135360Y-97795668D01*
X172130976Y-97801579D01*
X172126033Y-97807033D01*
X172120579Y-97811976D01*
X172114668Y-97816360D01*
X172108355Y-97820144D01*
X172101701Y-97823291D01*
X172094771Y-97825771D01*
X172087632Y-97827559D01*
X172080351Y-97828639D01*
X172073000Y-97829000D01*
X170723000Y-97829000D01*
X170715649Y-97828639D01*
X170708368Y-97827559D01*
X170701229Y-97825771D01*
X170694299Y-97823291D01*
X170687645Y-97820144D01*
X170681332Y-97816360D01*
X170675421Y-97811976D01*
X170669967Y-97807033D01*
X170665024Y-97801579D01*
X170660640Y-97795668D01*
X170656856Y-97789355D01*
X170653709Y-97782701D01*
X170651229Y-97775771D01*
X170649441Y-97768632D01*
X170648361Y-97761351D01*
X170648000Y-97754000D01*
X170648000Y-97604000D01*
X170648361Y-97596649D01*
X170649441Y-97589368D01*
X170651229Y-97582229D01*
X170653709Y-97575299D01*
X170656856Y-97568645D01*
X170660640Y-97562332D01*
X170665024Y-97556421D01*
X170669967Y-97550967D01*
X170675421Y-97546024D01*
X170681332Y-97541640D01*
X170687645Y-97537856D01*
X170694299Y-97534709D01*
X170701229Y-97532229D01*
X170708368Y-97530441D01*
X170715649Y-97529361D01*
X170723000Y-97529000D01*
X172073000Y-97529000D01*
X172080351Y-97529361D01*
G37*
G36*
X172080351Y-98029361D02*
G01*
X172087632Y-98030441D01*
X172094771Y-98032229D01*
X172101701Y-98034709D01*
X172108355Y-98037856D01*
X172114668Y-98041640D01*
X172120579Y-98046024D01*
X172126033Y-98050967D01*
X172130976Y-98056421D01*
X172135360Y-98062332D01*
X172139144Y-98068645D01*
X172142291Y-98075299D01*
X172144771Y-98082229D01*
X172146559Y-98089368D01*
X172147639Y-98096649D01*
X172148000Y-98104000D01*
X172148000Y-98254000D01*
X172147639Y-98261351D01*
X172146559Y-98268632D01*
X172144771Y-98275771D01*
X172142291Y-98282701D01*
X172139144Y-98289355D01*
X172135360Y-98295668D01*
X172130976Y-98301579D01*
X172126033Y-98307033D01*
X172120579Y-98311976D01*
X172114668Y-98316360D01*
X172108355Y-98320144D01*
X172101701Y-98323291D01*
X172094771Y-98325771D01*
X172087632Y-98327559D01*
X172080351Y-98328639D01*
X172073000Y-98329000D01*
X170723000Y-98329000D01*
X170715649Y-98328639D01*
X170708368Y-98327559D01*
X170701229Y-98325771D01*
X170694299Y-98323291D01*
X170687645Y-98320144D01*
X170681332Y-98316360D01*
X170675421Y-98311976D01*
X170669967Y-98307033D01*
X170665024Y-98301579D01*
X170660640Y-98295668D01*
X170656856Y-98289355D01*
X170653709Y-98282701D01*
X170651229Y-98275771D01*
X170649441Y-98268632D01*
X170648361Y-98261351D01*
X170648000Y-98254000D01*
X170648000Y-98104000D01*
X170648361Y-98096649D01*
X170649441Y-98089368D01*
X170651229Y-98082229D01*
X170653709Y-98075299D01*
X170656856Y-98068645D01*
X170660640Y-98062332D01*
X170665024Y-98056421D01*
X170669967Y-98050967D01*
X170675421Y-98046024D01*
X170681332Y-98041640D01*
X170687645Y-98037856D01*
X170694299Y-98034709D01*
X170701229Y-98032229D01*
X170708368Y-98030441D01*
X170715649Y-98029361D01*
X170723000Y-98029000D01*
X172073000Y-98029000D01*
X172080351Y-98029361D01*
G37*
G36*
X172080351Y-98529361D02*
G01*
X172087632Y-98530441D01*
X172094771Y-98532229D01*
X172101701Y-98534709D01*
X172108355Y-98537856D01*
X172114668Y-98541640D01*
X172120579Y-98546024D01*
X172126033Y-98550967D01*
X172130976Y-98556421D01*
X172135360Y-98562332D01*
X172139144Y-98568645D01*
X172142291Y-98575299D01*
X172144771Y-98582229D01*
X172146559Y-98589368D01*
X172147639Y-98596649D01*
X172148000Y-98604000D01*
X172148000Y-98754000D01*
X172147639Y-98761351D01*
X172146559Y-98768632D01*
X172144771Y-98775771D01*
X172142291Y-98782701D01*
X172139144Y-98789355D01*
X172135360Y-98795668D01*
X172130976Y-98801579D01*
X172126033Y-98807033D01*
X172120579Y-98811976D01*
X172114668Y-98816360D01*
X172108355Y-98820144D01*
X172101701Y-98823291D01*
X172094771Y-98825771D01*
X172087632Y-98827559D01*
X172080351Y-98828639D01*
X172073000Y-98829000D01*
X170723000Y-98829000D01*
X170715649Y-98828639D01*
X170708368Y-98827559D01*
X170701229Y-98825771D01*
X170694299Y-98823291D01*
X170687645Y-98820144D01*
X170681332Y-98816360D01*
X170675421Y-98811976D01*
X170669967Y-98807033D01*
X170665024Y-98801579D01*
X170660640Y-98795668D01*
X170656856Y-98789355D01*
X170653709Y-98782701D01*
X170651229Y-98775771D01*
X170649441Y-98768632D01*
X170648361Y-98761351D01*
X170648000Y-98754000D01*
X170648000Y-98604000D01*
X170648361Y-98596649D01*
X170649441Y-98589368D01*
X170651229Y-98582229D01*
X170653709Y-98575299D01*
X170656856Y-98568645D01*
X170660640Y-98562332D01*
X170665024Y-98556421D01*
X170669967Y-98550967D01*
X170675421Y-98546024D01*
X170681332Y-98541640D01*
X170687645Y-98537856D01*
X170694299Y-98534709D01*
X170701229Y-98532229D01*
X170708368Y-98530441D01*
X170715649Y-98529361D01*
X170723000Y-98529000D01*
X172073000Y-98529000D01*
X172080351Y-98529361D01*
G37*
G36*
X172080351Y-99029361D02*
G01*
X172087632Y-99030441D01*
X172094771Y-99032229D01*
X172101701Y-99034709D01*
X172108355Y-99037856D01*
X172114668Y-99041640D01*
X172120579Y-99046024D01*
X172126033Y-99050967D01*
X172130976Y-99056421D01*
X172135360Y-99062332D01*
X172139144Y-99068645D01*
X172142291Y-99075299D01*
X172144771Y-99082229D01*
X172146559Y-99089368D01*
X172147639Y-99096649D01*
X172148000Y-99104000D01*
X172148000Y-99254000D01*
X172147639Y-99261351D01*
X172146559Y-99268632D01*
X172144771Y-99275771D01*
X172142291Y-99282701D01*
X172139144Y-99289355D01*
X172135360Y-99295668D01*
X172130976Y-99301579D01*
X172126033Y-99307033D01*
X172120579Y-99311976D01*
X172114668Y-99316360D01*
X172108355Y-99320144D01*
X172101701Y-99323291D01*
X172094771Y-99325771D01*
X172087632Y-99327559D01*
X172080351Y-99328639D01*
X172073000Y-99329000D01*
X170723000Y-99329000D01*
X170715649Y-99328639D01*
X170708368Y-99327559D01*
X170701229Y-99325771D01*
X170694299Y-99323291D01*
X170687645Y-99320144D01*
X170681332Y-99316360D01*
X170675421Y-99311976D01*
X170669967Y-99307033D01*
X170665024Y-99301579D01*
X170660640Y-99295668D01*
X170656856Y-99289355D01*
X170653709Y-99282701D01*
X170651229Y-99275771D01*
X170649441Y-99268632D01*
X170648361Y-99261351D01*
X170648000Y-99254000D01*
X170648000Y-99104000D01*
X170648361Y-99096649D01*
X170649441Y-99089368D01*
X170651229Y-99082229D01*
X170653709Y-99075299D01*
X170656856Y-99068645D01*
X170660640Y-99062332D01*
X170665024Y-99056421D01*
X170669967Y-99050967D01*
X170675421Y-99046024D01*
X170681332Y-99041640D01*
X170687645Y-99037856D01*
X170694299Y-99034709D01*
X170701229Y-99032229D01*
X170708368Y-99030441D01*
X170715649Y-99029361D01*
X170723000Y-99029000D01*
X172073000Y-99029000D01*
X172080351Y-99029361D01*
G37*
G36*
X172080351Y-99529361D02*
G01*
X172087632Y-99530441D01*
X172094771Y-99532229D01*
X172101701Y-99534709D01*
X172108355Y-99537856D01*
X172114668Y-99541640D01*
X172120579Y-99546024D01*
X172126033Y-99550967D01*
X172130976Y-99556421D01*
X172135360Y-99562332D01*
X172139144Y-99568645D01*
X172142291Y-99575299D01*
X172144771Y-99582229D01*
X172146559Y-99589368D01*
X172147639Y-99596649D01*
X172148000Y-99604000D01*
X172148000Y-99754000D01*
X172147639Y-99761351D01*
X172146559Y-99768632D01*
X172144771Y-99775771D01*
X172142291Y-99782701D01*
X172139144Y-99789355D01*
X172135360Y-99795668D01*
X172130976Y-99801579D01*
X172126033Y-99807033D01*
X172120579Y-99811976D01*
X172114668Y-99816360D01*
X172108355Y-99820144D01*
X172101701Y-99823291D01*
X172094771Y-99825771D01*
X172087632Y-99827559D01*
X172080351Y-99828639D01*
X172073000Y-99829000D01*
X170723000Y-99829000D01*
X170715649Y-99828639D01*
X170708368Y-99827559D01*
X170701229Y-99825771D01*
X170694299Y-99823291D01*
X170687645Y-99820144D01*
X170681332Y-99816360D01*
X170675421Y-99811976D01*
X170669967Y-99807033D01*
X170665024Y-99801579D01*
X170660640Y-99795668D01*
X170656856Y-99789355D01*
X170653709Y-99782701D01*
X170651229Y-99775771D01*
X170649441Y-99768632D01*
X170648361Y-99761351D01*
X170648000Y-99754000D01*
X170648000Y-99604000D01*
X170648361Y-99596649D01*
X170649441Y-99589368D01*
X170651229Y-99582229D01*
X170653709Y-99575299D01*
X170656856Y-99568645D01*
X170660640Y-99562332D01*
X170665024Y-99556421D01*
X170669967Y-99550967D01*
X170675421Y-99546024D01*
X170681332Y-99541640D01*
X170687645Y-99537856D01*
X170694299Y-99534709D01*
X170701229Y-99532229D01*
X170708368Y-99530441D01*
X170715649Y-99529361D01*
X170723000Y-99529000D01*
X172073000Y-99529000D01*
X172080351Y-99529361D01*
G37*
G36*
X172080351Y-100029361D02*
G01*
X172087632Y-100030441D01*
X172094771Y-100032229D01*
X172101701Y-100034709D01*
X172108355Y-100037856D01*
X172114668Y-100041640D01*
X172120579Y-100046024D01*
X172126033Y-100050967D01*
X172130976Y-100056421D01*
X172135360Y-100062332D01*
X172139144Y-100068645D01*
X172142291Y-100075299D01*
X172144771Y-100082229D01*
X172146559Y-100089368D01*
X172147639Y-100096649D01*
X172148000Y-100104000D01*
X172148000Y-100254000D01*
X172147639Y-100261351D01*
X172146559Y-100268632D01*
X172144771Y-100275771D01*
X172142291Y-100282701D01*
X172139144Y-100289355D01*
X172135360Y-100295668D01*
X172130976Y-100301579D01*
X172126033Y-100307033D01*
X172120579Y-100311976D01*
X172114668Y-100316360D01*
X172108355Y-100320144D01*
X172101701Y-100323291D01*
X172094771Y-100325771D01*
X172087632Y-100327559D01*
X172080351Y-100328639D01*
X172073000Y-100329000D01*
X170723000Y-100329000D01*
X170715649Y-100328639D01*
X170708368Y-100327559D01*
X170701229Y-100325771D01*
X170694299Y-100323291D01*
X170687645Y-100320144D01*
X170681332Y-100316360D01*
X170675421Y-100311976D01*
X170669967Y-100307033D01*
X170665024Y-100301579D01*
X170660640Y-100295668D01*
X170656856Y-100289355D01*
X170653709Y-100282701D01*
X170651229Y-100275771D01*
X170649441Y-100268632D01*
X170648361Y-100261351D01*
X170648000Y-100254000D01*
X170648000Y-100104000D01*
X170648361Y-100096649D01*
X170649441Y-100089368D01*
X170651229Y-100082229D01*
X170653709Y-100075299D01*
X170656856Y-100068645D01*
X170660640Y-100062332D01*
X170665024Y-100056421D01*
X170669967Y-100050967D01*
X170675421Y-100046024D01*
X170681332Y-100041640D01*
X170687645Y-100037856D01*
X170694299Y-100034709D01*
X170701229Y-100032229D01*
X170708368Y-100030441D01*
X170715649Y-100029361D01*
X170723000Y-100029000D01*
X172073000Y-100029000D01*
X172080351Y-100029361D01*
G37*
G36*
X172080351Y-100529361D02*
G01*
X172087632Y-100530441D01*
X172094771Y-100532229D01*
X172101701Y-100534709D01*
X172108355Y-100537856D01*
X172114668Y-100541640D01*
X172120579Y-100546024D01*
X172126033Y-100550967D01*
X172130976Y-100556421D01*
X172135360Y-100562332D01*
X172139144Y-100568645D01*
X172142291Y-100575299D01*
X172144771Y-100582229D01*
X172146559Y-100589368D01*
X172147639Y-100596649D01*
X172148000Y-100604000D01*
X172148000Y-100754000D01*
X172147639Y-100761351D01*
X172146559Y-100768632D01*
X172144771Y-100775771D01*
X172142291Y-100782701D01*
X172139144Y-100789355D01*
X172135360Y-100795668D01*
X172130976Y-100801579D01*
X172126033Y-100807033D01*
X172120579Y-100811976D01*
X172114668Y-100816360D01*
X172108355Y-100820144D01*
X172101701Y-100823291D01*
X172094771Y-100825771D01*
X172087632Y-100827559D01*
X172080351Y-100828639D01*
X172073000Y-100829000D01*
X170723000Y-100829000D01*
X170715649Y-100828639D01*
X170708368Y-100827559D01*
X170701229Y-100825771D01*
X170694299Y-100823291D01*
X170687645Y-100820144D01*
X170681332Y-100816360D01*
X170675421Y-100811976D01*
X170669967Y-100807033D01*
X170665024Y-100801579D01*
X170660640Y-100795668D01*
X170656856Y-100789355D01*
X170653709Y-100782701D01*
X170651229Y-100775771D01*
X170649441Y-100768632D01*
X170648361Y-100761351D01*
X170648000Y-100754000D01*
X170648000Y-100604000D01*
X170648361Y-100596649D01*
X170649441Y-100589368D01*
X170651229Y-100582229D01*
X170653709Y-100575299D01*
X170656856Y-100568645D01*
X170660640Y-100562332D01*
X170665024Y-100556421D01*
X170669967Y-100550967D01*
X170675421Y-100546024D01*
X170681332Y-100541640D01*
X170687645Y-100537856D01*
X170694299Y-100534709D01*
X170701229Y-100532229D01*
X170708368Y-100530441D01*
X170715649Y-100529361D01*
X170723000Y-100529000D01*
X172073000Y-100529000D01*
X172080351Y-100529361D01*
G37*
G36*
X170055351Y-101354361D02*
G01*
X170062632Y-101355441D01*
X170069771Y-101357229D01*
X170076701Y-101359709D01*
X170083355Y-101362856D01*
X170089668Y-101366640D01*
X170095579Y-101371024D01*
X170101033Y-101375967D01*
X170105976Y-101381421D01*
X170110360Y-101387332D01*
X170114144Y-101393645D01*
X170117291Y-101400299D01*
X170119771Y-101407229D01*
X170121559Y-101414368D01*
X170122639Y-101421649D01*
X170123000Y-101429000D01*
X170123000Y-102779000D01*
X170122639Y-102786351D01*
X170121559Y-102793632D01*
X170119771Y-102800771D01*
X170117291Y-102807701D01*
X170114144Y-102814355D01*
X170110360Y-102820668D01*
X170105976Y-102826579D01*
X170101033Y-102832033D01*
X170095579Y-102836976D01*
X170089668Y-102841360D01*
X170083355Y-102845144D01*
X170076701Y-102848291D01*
X170069771Y-102850771D01*
X170062632Y-102852559D01*
X170055351Y-102853639D01*
X170048000Y-102854000D01*
X169898000Y-102854000D01*
X169890649Y-102853639D01*
X169883368Y-102852559D01*
X169876229Y-102850771D01*
X169869299Y-102848291D01*
X169862645Y-102845144D01*
X169856332Y-102841360D01*
X169850421Y-102836976D01*
X169844967Y-102832033D01*
X169840024Y-102826579D01*
X169835640Y-102820668D01*
X169831856Y-102814355D01*
X169828709Y-102807701D01*
X169826229Y-102800771D01*
X169824441Y-102793632D01*
X169823361Y-102786351D01*
X169823000Y-102779000D01*
X169823000Y-101429000D01*
X169823361Y-101421649D01*
X169824441Y-101414368D01*
X169826229Y-101407229D01*
X169828709Y-101400299D01*
X169831856Y-101393645D01*
X169835640Y-101387332D01*
X169840024Y-101381421D01*
X169844967Y-101375967D01*
X169850421Y-101371024D01*
X169856332Y-101366640D01*
X169862645Y-101362856D01*
X169869299Y-101359709D01*
X169876229Y-101357229D01*
X169883368Y-101355441D01*
X169890649Y-101354361D01*
X169898000Y-101354000D01*
X170048000Y-101354000D01*
X170055351Y-101354361D01*
G37*
G36*
X169555351Y-101354361D02*
G01*
X169562632Y-101355441D01*
X169569771Y-101357229D01*
X169576701Y-101359709D01*
X169583355Y-101362856D01*
X169589668Y-101366640D01*
X169595579Y-101371024D01*
X169601033Y-101375967D01*
X169605976Y-101381421D01*
X169610360Y-101387332D01*
X169614144Y-101393645D01*
X169617291Y-101400299D01*
X169619771Y-101407229D01*
X169621559Y-101414368D01*
X169622639Y-101421649D01*
X169623000Y-101429000D01*
X169623000Y-102779000D01*
X169622639Y-102786351D01*
X169621559Y-102793632D01*
X169619771Y-102800771D01*
X169617291Y-102807701D01*
X169614144Y-102814355D01*
X169610360Y-102820668D01*
X169605976Y-102826579D01*
X169601033Y-102832033D01*
X169595579Y-102836976D01*
X169589668Y-102841360D01*
X169583355Y-102845144D01*
X169576701Y-102848291D01*
X169569771Y-102850771D01*
X169562632Y-102852559D01*
X169555351Y-102853639D01*
X169548000Y-102854000D01*
X169398000Y-102854000D01*
X169390649Y-102853639D01*
X169383368Y-102852559D01*
X169376229Y-102850771D01*
X169369299Y-102848291D01*
X169362645Y-102845144D01*
X169356332Y-102841360D01*
X169350421Y-102836976D01*
X169344967Y-102832033D01*
X169340024Y-102826579D01*
X169335640Y-102820668D01*
X169331856Y-102814355D01*
X169328709Y-102807701D01*
X169326229Y-102800771D01*
X169324441Y-102793632D01*
X169323361Y-102786351D01*
X169323000Y-102779000D01*
X169323000Y-101429000D01*
X169323361Y-101421649D01*
X169324441Y-101414368D01*
X169326229Y-101407229D01*
X169328709Y-101400299D01*
X169331856Y-101393645D01*
X169335640Y-101387332D01*
X169340024Y-101381421D01*
X169344967Y-101375967D01*
X169350421Y-101371024D01*
X169356332Y-101366640D01*
X169362645Y-101362856D01*
X169369299Y-101359709D01*
X169376229Y-101357229D01*
X169383368Y-101355441D01*
X169390649Y-101354361D01*
X169398000Y-101354000D01*
X169548000Y-101354000D01*
X169555351Y-101354361D01*
G37*
G36*
X169055351Y-101354361D02*
G01*
X169062632Y-101355441D01*
X169069771Y-101357229D01*
X169076701Y-101359709D01*
X169083355Y-101362856D01*
X169089668Y-101366640D01*
X169095579Y-101371024D01*
X169101033Y-101375967D01*
X169105976Y-101381421D01*
X169110360Y-101387332D01*
X169114144Y-101393645D01*
X169117291Y-101400299D01*
X169119771Y-101407229D01*
X169121559Y-101414368D01*
X169122639Y-101421649D01*
X169123000Y-101429000D01*
X169123000Y-102779000D01*
X169122639Y-102786351D01*
X169121559Y-102793632D01*
X169119771Y-102800771D01*
X169117291Y-102807701D01*
X169114144Y-102814355D01*
X169110360Y-102820668D01*
X169105976Y-102826579D01*
X169101033Y-102832033D01*
X169095579Y-102836976D01*
X169089668Y-102841360D01*
X169083355Y-102845144D01*
X169076701Y-102848291D01*
X169069771Y-102850771D01*
X169062632Y-102852559D01*
X169055351Y-102853639D01*
X169048000Y-102854000D01*
X168898000Y-102854000D01*
X168890649Y-102853639D01*
X168883368Y-102852559D01*
X168876229Y-102850771D01*
X168869299Y-102848291D01*
X168862645Y-102845144D01*
X168856332Y-102841360D01*
X168850421Y-102836976D01*
X168844967Y-102832033D01*
X168840024Y-102826579D01*
X168835640Y-102820668D01*
X168831856Y-102814355D01*
X168828709Y-102807701D01*
X168826229Y-102800771D01*
X168824441Y-102793632D01*
X168823361Y-102786351D01*
X168823000Y-102779000D01*
X168823000Y-101429000D01*
X168823361Y-101421649D01*
X168824441Y-101414368D01*
X168826229Y-101407229D01*
X168828709Y-101400299D01*
X168831856Y-101393645D01*
X168835640Y-101387332D01*
X168840024Y-101381421D01*
X168844967Y-101375967D01*
X168850421Y-101371024D01*
X168856332Y-101366640D01*
X168862645Y-101362856D01*
X168869299Y-101359709D01*
X168876229Y-101357229D01*
X168883368Y-101355441D01*
X168890649Y-101354361D01*
X168898000Y-101354000D01*
X169048000Y-101354000D01*
X169055351Y-101354361D01*
G37*
G36*
X168555351Y-101354361D02*
G01*
X168562632Y-101355441D01*
X168569771Y-101357229D01*
X168576701Y-101359709D01*
X168583355Y-101362856D01*
X168589668Y-101366640D01*
X168595579Y-101371024D01*
X168601033Y-101375967D01*
X168605976Y-101381421D01*
X168610360Y-101387332D01*
X168614144Y-101393645D01*
X168617291Y-101400299D01*
X168619771Y-101407229D01*
X168621559Y-101414368D01*
X168622639Y-101421649D01*
X168623000Y-101429000D01*
X168623000Y-102779000D01*
X168622639Y-102786351D01*
X168621559Y-102793632D01*
X168619771Y-102800771D01*
X168617291Y-102807701D01*
X168614144Y-102814355D01*
X168610360Y-102820668D01*
X168605976Y-102826579D01*
X168601033Y-102832033D01*
X168595579Y-102836976D01*
X168589668Y-102841360D01*
X168583355Y-102845144D01*
X168576701Y-102848291D01*
X168569771Y-102850771D01*
X168562632Y-102852559D01*
X168555351Y-102853639D01*
X168548000Y-102854000D01*
X168398000Y-102854000D01*
X168390649Y-102853639D01*
X168383368Y-102852559D01*
X168376229Y-102850771D01*
X168369299Y-102848291D01*
X168362645Y-102845144D01*
X168356332Y-102841360D01*
X168350421Y-102836976D01*
X168344967Y-102832033D01*
X168340024Y-102826579D01*
X168335640Y-102820668D01*
X168331856Y-102814355D01*
X168328709Y-102807701D01*
X168326229Y-102800771D01*
X168324441Y-102793632D01*
X168323361Y-102786351D01*
X168323000Y-102779000D01*
X168323000Y-101429000D01*
X168323361Y-101421649D01*
X168324441Y-101414368D01*
X168326229Y-101407229D01*
X168328709Y-101400299D01*
X168331856Y-101393645D01*
X168335640Y-101387332D01*
X168340024Y-101381421D01*
X168344967Y-101375967D01*
X168350421Y-101371024D01*
X168356332Y-101366640D01*
X168362645Y-101362856D01*
X168369299Y-101359709D01*
X168376229Y-101357229D01*
X168383368Y-101355441D01*
X168390649Y-101354361D01*
X168398000Y-101354000D01*
X168548000Y-101354000D01*
X168555351Y-101354361D01*
G37*
G36*
X168055351Y-101354361D02*
G01*
X168062632Y-101355441D01*
X168069771Y-101357229D01*
X168076701Y-101359709D01*
X168083355Y-101362856D01*
X168089668Y-101366640D01*
X168095579Y-101371024D01*
X168101033Y-101375967D01*
X168105976Y-101381421D01*
X168110360Y-101387332D01*
X168114144Y-101393645D01*
X168117291Y-101400299D01*
X168119771Y-101407229D01*
X168121559Y-101414368D01*
X168122639Y-101421649D01*
X168123000Y-101429000D01*
X168123000Y-102779000D01*
X168122639Y-102786351D01*
X168121559Y-102793632D01*
X168119771Y-102800771D01*
X168117291Y-102807701D01*
X168114144Y-102814355D01*
X168110360Y-102820668D01*
X168105976Y-102826579D01*
X168101033Y-102832033D01*
X168095579Y-102836976D01*
X168089668Y-102841360D01*
X168083355Y-102845144D01*
X168076701Y-102848291D01*
X168069771Y-102850771D01*
X168062632Y-102852559D01*
X168055351Y-102853639D01*
X168048000Y-102854000D01*
X167898000Y-102854000D01*
X167890649Y-102853639D01*
X167883368Y-102852559D01*
X167876229Y-102850771D01*
X167869299Y-102848291D01*
X167862645Y-102845144D01*
X167856332Y-102841360D01*
X167850421Y-102836976D01*
X167844967Y-102832033D01*
X167840024Y-102826579D01*
X167835640Y-102820668D01*
X167831856Y-102814355D01*
X167828709Y-102807701D01*
X167826229Y-102800771D01*
X167824441Y-102793632D01*
X167823361Y-102786351D01*
X167823000Y-102779000D01*
X167823000Y-101429000D01*
X167823361Y-101421649D01*
X167824441Y-101414368D01*
X167826229Y-101407229D01*
X167828709Y-101400299D01*
X167831856Y-101393645D01*
X167835640Y-101387332D01*
X167840024Y-101381421D01*
X167844967Y-101375967D01*
X167850421Y-101371024D01*
X167856332Y-101366640D01*
X167862645Y-101362856D01*
X167869299Y-101359709D01*
X167876229Y-101357229D01*
X167883368Y-101355441D01*
X167890649Y-101354361D01*
X167898000Y-101354000D01*
X168048000Y-101354000D01*
X168055351Y-101354361D01*
G37*
G36*
X167555351Y-101354361D02*
G01*
X167562632Y-101355441D01*
X167569771Y-101357229D01*
X167576701Y-101359709D01*
X167583355Y-101362856D01*
X167589668Y-101366640D01*
X167595579Y-101371024D01*
X167601033Y-101375967D01*
X167605976Y-101381421D01*
X167610360Y-101387332D01*
X167614144Y-101393645D01*
X167617291Y-101400299D01*
X167619771Y-101407229D01*
X167621559Y-101414368D01*
X167622639Y-101421649D01*
X167623000Y-101429000D01*
X167623000Y-102779000D01*
X167622639Y-102786351D01*
X167621559Y-102793632D01*
X167619771Y-102800771D01*
X167617291Y-102807701D01*
X167614144Y-102814355D01*
X167610360Y-102820668D01*
X167605976Y-102826579D01*
X167601033Y-102832033D01*
X167595579Y-102836976D01*
X167589668Y-102841360D01*
X167583355Y-102845144D01*
X167576701Y-102848291D01*
X167569771Y-102850771D01*
X167562632Y-102852559D01*
X167555351Y-102853639D01*
X167548000Y-102854000D01*
X167398000Y-102854000D01*
X167390649Y-102853639D01*
X167383368Y-102852559D01*
X167376229Y-102850771D01*
X167369299Y-102848291D01*
X167362645Y-102845144D01*
X167356332Y-102841360D01*
X167350421Y-102836976D01*
X167344967Y-102832033D01*
X167340024Y-102826579D01*
X167335640Y-102820668D01*
X167331856Y-102814355D01*
X167328709Y-102807701D01*
X167326229Y-102800771D01*
X167324441Y-102793632D01*
X167323361Y-102786351D01*
X167323000Y-102779000D01*
X167323000Y-101429000D01*
X167323361Y-101421649D01*
X167324441Y-101414368D01*
X167326229Y-101407229D01*
X167328709Y-101400299D01*
X167331856Y-101393645D01*
X167335640Y-101387332D01*
X167340024Y-101381421D01*
X167344967Y-101375967D01*
X167350421Y-101371024D01*
X167356332Y-101366640D01*
X167362645Y-101362856D01*
X167369299Y-101359709D01*
X167376229Y-101357229D01*
X167383368Y-101355441D01*
X167390649Y-101354361D01*
X167398000Y-101354000D01*
X167548000Y-101354000D01*
X167555351Y-101354361D01*
G37*
G36*
X167055351Y-101354361D02*
G01*
X167062632Y-101355441D01*
X167069771Y-101357229D01*
X167076701Y-101359709D01*
X167083355Y-101362856D01*
X167089668Y-101366640D01*
X167095579Y-101371024D01*
X167101033Y-101375967D01*
X167105976Y-101381421D01*
X167110360Y-101387332D01*
X167114144Y-101393645D01*
X167117291Y-101400299D01*
X167119771Y-101407229D01*
X167121559Y-101414368D01*
X167122639Y-101421649D01*
X167123000Y-101429000D01*
X167123000Y-102779000D01*
X167122639Y-102786351D01*
X167121559Y-102793632D01*
X167119771Y-102800771D01*
X167117291Y-102807701D01*
X167114144Y-102814355D01*
X167110360Y-102820668D01*
X167105976Y-102826579D01*
X167101033Y-102832033D01*
X167095579Y-102836976D01*
X167089668Y-102841360D01*
X167083355Y-102845144D01*
X167076701Y-102848291D01*
X167069771Y-102850771D01*
X167062632Y-102852559D01*
X167055351Y-102853639D01*
X167048000Y-102854000D01*
X166898000Y-102854000D01*
X166890649Y-102853639D01*
X166883368Y-102852559D01*
X166876229Y-102850771D01*
X166869299Y-102848291D01*
X166862645Y-102845144D01*
X166856332Y-102841360D01*
X166850421Y-102836976D01*
X166844967Y-102832033D01*
X166840024Y-102826579D01*
X166835640Y-102820668D01*
X166831856Y-102814355D01*
X166828709Y-102807701D01*
X166826229Y-102800771D01*
X166824441Y-102793632D01*
X166823361Y-102786351D01*
X166823000Y-102779000D01*
X166823000Y-101429000D01*
X166823361Y-101421649D01*
X166824441Y-101414368D01*
X166826229Y-101407229D01*
X166828709Y-101400299D01*
X166831856Y-101393645D01*
X166835640Y-101387332D01*
X166840024Y-101381421D01*
X166844967Y-101375967D01*
X166850421Y-101371024D01*
X166856332Y-101366640D01*
X166862645Y-101362856D01*
X166869299Y-101359709D01*
X166876229Y-101357229D01*
X166883368Y-101355441D01*
X166890649Y-101354361D01*
X166898000Y-101354000D01*
X167048000Y-101354000D01*
X167055351Y-101354361D01*
G37*
G36*
X166555351Y-101354361D02*
G01*
X166562632Y-101355441D01*
X166569771Y-101357229D01*
X166576701Y-101359709D01*
X166583355Y-101362856D01*
X166589668Y-101366640D01*
X166595579Y-101371024D01*
X166601033Y-101375967D01*
X166605976Y-101381421D01*
X166610360Y-101387332D01*
X166614144Y-101393645D01*
X166617291Y-101400299D01*
X166619771Y-101407229D01*
X166621559Y-101414368D01*
X166622639Y-101421649D01*
X166623000Y-101429000D01*
X166623000Y-102779000D01*
X166622639Y-102786351D01*
X166621559Y-102793632D01*
X166619771Y-102800771D01*
X166617291Y-102807701D01*
X166614144Y-102814355D01*
X166610360Y-102820668D01*
X166605976Y-102826579D01*
X166601033Y-102832033D01*
X166595579Y-102836976D01*
X166589668Y-102841360D01*
X166583355Y-102845144D01*
X166576701Y-102848291D01*
X166569771Y-102850771D01*
X166562632Y-102852559D01*
X166555351Y-102853639D01*
X166548000Y-102854000D01*
X166398000Y-102854000D01*
X166390649Y-102853639D01*
X166383368Y-102852559D01*
X166376229Y-102850771D01*
X166369299Y-102848291D01*
X166362645Y-102845144D01*
X166356332Y-102841360D01*
X166350421Y-102836976D01*
X166344967Y-102832033D01*
X166340024Y-102826579D01*
X166335640Y-102820668D01*
X166331856Y-102814355D01*
X166328709Y-102807701D01*
X166326229Y-102800771D01*
X166324441Y-102793632D01*
X166323361Y-102786351D01*
X166323000Y-102779000D01*
X166323000Y-101429000D01*
X166323361Y-101421649D01*
X166324441Y-101414368D01*
X166326229Y-101407229D01*
X166328709Y-101400299D01*
X166331856Y-101393645D01*
X166335640Y-101387332D01*
X166340024Y-101381421D01*
X166344967Y-101375967D01*
X166350421Y-101371024D01*
X166356332Y-101366640D01*
X166362645Y-101362856D01*
X166369299Y-101359709D01*
X166376229Y-101357229D01*
X166383368Y-101355441D01*
X166390649Y-101354361D01*
X166398000Y-101354000D01*
X166548000Y-101354000D01*
X166555351Y-101354361D01*
G37*
G36*
X144977191Y-121973053D02*
G01*
X144998426Y-121976203D01*
X145019250Y-121981419D01*
X145039462Y-121988651D01*
X145058868Y-121997830D01*
X145077281Y-122008866D01*
X145094524Y-122021654D01*
X145110430Y-122036070D01*
X145124846Y-122051976D01*
X145137634Y-122069219D01*
X145148670Y-122087632D01*
X145157849Y-122107038D01*
X145165081Y-122127250D01*
X145170297Y-122148074D01*
X145173447Y-122169309D01*
X145174500Y-122190750D01*
X145174500Y-122703250D01*
X145173447Y-122724691D01*
X145170297Y-122745926D01*
X145165081Y-122766750D01*
X145157849Y-122786962D01*
X145148670Y-122806368D01*
X145137634Y-122824781D01*
X145124846Y-122842024D01*
X145110430Y-122857930D01*
X145094524Y-122872346D01*
X145077281Y-122885134D01*
X145058868Y-122896170D01*
X145039462Y-122905349D01*
X145019250Y-122912581D01*
X144998426Y-122917797D01*
X144977191Y-122920947D01*
X144955750Y-122922000D01*
X144518250Y-122922000D01*
X144496809Y-122920947D01*
X144475574Y-122917797D01*
X144454750Y-122912581D01*
X144434538Y-122905349D01*
X144415132Y-122896170D01*
X144396719Y-122885134D01*
X144379476Y-122872346D01*
X144363570Y-122857930D01*
X144349154Y-122842024D01*
X144336366Y-122824781D01*
X144325330Y-122806368D01*
X144316151Y-122786962D01*
X144308919Y-122766750D01*
X144303703Y-122745926D01*
X144300553Y-122724691D01*
X144299500Y-122703250D01*
X144299500Y-122190750D01*
X144300553Y-122169309D01*
X144303703Y-122148074D01*
X144308919Y-122127250D01*
X144316151Y-122107038D01*
X144325330Y-122087632D01*
X144336366Y-122069219D01*
X144349154Y-122051976D01*
X144363570Y-122036070D01*
X144379476Y-122021654D01*
X144396719Y-122008866D01*
X144415132Y-121997830D01*
X144434538Y-121988651D01*
X144454750Y-121981419D01*
X144475574Y-121976203D01*
X144496809Y-121973053D01*
X144518250Y-121972000D01*
X144955750Y-121972000D01*
X144977191Y-121973053D01*
G37*
G36*
X143402191Y-121973053D02*
G01*
X143423426Y-121976203D01*
X143444250Y-121981419D01*
X143464462Y-121988651D01*
X143483868Y-121997830D01*
X143502281Y-122008866D01*
X143519524Y-122021654D01*
X143535430Y-122036070D01*
X143549846Y-122051976D01*
X143562634Y-122069219D01*
X143573670Y-122087632D01*
X143582849Y-122107038D01*
X143590081Y-122127250D01*
X143595297Y-122148074D01*
X143598447Y-122169309D01*
X143599500Y-122190750D01*
X143599500Y-122703250D01*
X143598447Y-122724691D01*
X143595297Y-122745926D01*
X143590081Y-122766750D01*
X143582849Y-122786962D01*
X143573670Y-122806368D01*
X143562634Y-122824781D01*
X143549846Y-122842024D01*
X143535430Y-122857930D01*
X143519524Y-122872346D01*
X143502281Y-122885134D01*
X143483868Y-122896170D01*
X143464462Y-122905349D01*
X143444250Y-122912581D01*
X143423426Y-122917797D01*
X143402191Y-122920947D01*
X143380750Y-122922000D01*
X142943250Y-122922000D01*
X142921809Y-122920947D01*
X142900574Y-122917797D01*
X142879750Y-122912581D01*
X142859538Y-122905349D01*
X142840132Y-122896170D01*
X142821719Y-122885134D01*
X142804476Y-122872346D01*
X142788570Y-122857930D01*
X142774154Y-122842024D01*
X142761366Y-122824781D01*
X142750330Y-122806368D01*
X142741151Y-122786962D01*
X142733919Y-122766750D01*
X142728703Y-122745926D01*
X142725553Y-122724691D01*
X142724500Y-122703250D01*
X142724500Y-122190750D01*
X142725553Y-122169309D01*
X142728703Y-122148074D01*
X142733919Y-122127250D01*
X142741151Y-122107038D01*
X142750330Y-122087632D01*
X142761366Y-122069219D01*
X142774154Y-122051976D01*
X142788570Y-122036070D01*
X142804476Y-122021654D01*
X142821719Y-122008866D01*
X142840132Y-121997830D01*
X142859538Y-121988651D01*
X142879750Y-121981419D01*
X142900574Y-121976203D01*
X142921809Y-121973053D01*
X142943250Y-121972000D01*
X143380750Y-121972000D01*
X143402191Y-121973053D01*
G37*
G36*
X147923691Y-126799053D02*
G01*
X147944926Y-126802203D01*
X147965750Y-126807419D01*
X147985962Y-126814651D01*
X148005368Y-126823830D01*
X148023781Y-126834866D01*
X148041024Y-126847654D01*
X148056930Y-126862070D01*
X148071346Y-126877976D01*
X148084134Y-126895219D01*
X148095170Y-126913632D01*
X148104349Y-126933038D01*
X148111581Y-126953250D01*
X148116797Y-126974074D01*
X148119947Y-126995309D01*
X148121000Y-127016750D01*
X148121000Y-127529250D01*
X148119947Y-127550691D01*
X148116797Y-127571926D01*
X148111581Y-127592750D01*
X148104349Y-127612962D01*
X148095170Y-127632368D01*
X148084134Y-127650781D01*
X148071346Y-127668024D01*
X148056930Y-127683930D01*
X148041024Y-127698346D01*
X148023781Y-127711134D01*
X148005368Y-127722170D01*
X147985962Y-127731349D01*
X147965750Y-127738581D01*
X147944926Y-127743797D01*
X147923691Y-127746947D01*
X147902250Y-127748000D01*
X147464750Y-127748000D01*
X147443309Y-127746947D01*
X147422074Y-127743797D01*
X147401250Y-127738581D01*
X147381038Y-127731349D01*
X147361632Y-127722170D01*
X147343219Y-127711134D01*
X147325976Y-127698346D01*
X147310070Y-127683930D01*
X147295654Y-127668024D01*
X147282866Y-127650781D01*
X147271830Y-127632368D01*
X147262651Y-127612962D01*
X147255419Y-127592750D01*
X147250203Y-127571926D01*
X147247053Y-127550691D01*
X147246000Y-127529250D01*
X147246000Y-127016750D01*
X147247053Y-126995309D01*
X147250203Y-126974074D01*
X147255419Y-126953250D01*
X147262651Y-126933038D01*
X147271830Y-126913632D01*
X147282866Y-126895219D01*
X147295654Y-126877976D01*
X147310070Y-126862070D01*
X147325976Y-126847654D01*
X147343219Y-126834866D01*
X147361632Y-126823830D01*
X147381038Y-126814651D01*
X147401250Y-126807419D01*
X147422074Y-126802203D01*
X147443309Y-126799053D01*
X147464750Y-126798000D01*
X147902250Y-126798000D01*
X147923691Y-126799053D01*
G37*
G36*
X146348691Y-126799053D02*
G01*
X146369926Y-126802203D01*
X146390750Y-126807419D01*
X146410962Y-126814651D01*
X146430368Y-126823830D01*
X146448781Y-126834866D01*
X146466024Y-126847654D01*
X146481930Y-126862070D01*
X146496346Y-126877976D01*
X146509134Y-126895219D01*
X146520170Y-126913632D01*
X146529349Y-126933038D01*
X146536581Y-126953250D01*
X146541797Y-126974074D01*
X146544947Y-126995309D01*
X146546000Y-127016750D01*
X146546000Y-127529250D01*
X146544947Y-127550691D01*
X146541797Y-127571926D01*
X146536581Y-127592750D01*
X146529349Y-127612962D01*
X146520170Y-127632368D01*
X146509134Y-127650781D01*
X146496346Y-127668024D01*
X146481930Y-127683930D01*
X146466024Y-127698346D01*
X146448781Y-127711134D01*
X146430368Y-127722170D01*
X146410962Y-127731349D01*
X146390750Y-127738581D01*
X146369926Y-127743797D01*
X146348691Y-127746947D01*
X146327250Y-127748000D01*
X145889750Y-127748000D01*
X145868309Y-127746947D01*
X145847074Y-127743797D01*
X145826250Y-127738581D01*
X145806038Y-127731349D01*
X145786632Y-127722170D01*
X145768219Y-127711134D01*
X145750976Y-127698346D01*
X145735070Y-127683930D01*
X145720654Y-127668024D01*
X145707866Y-127650781D01*
X145696830Y-127632368D01*
X145687651Y-127612962D01*
X145680419Y-127592750D01*
X145675203Y-127571926D01*
X145672053Y-127550691D01*
X145671000Y-127529250D01*
X145671000Y-127016750D01*
X145672053Y-126995309D01*
X145675203Y-126974074D01*
X145680419Y-126953250D01*
X145687651Y-126933038D01*
X145696830Y-126913632D01*
X145707866Y-126895219D01*
X145720654Y-126877976D01*
X145735070Y-126862070D01*
X145750976Y-126847654D01*
X145768219Y-126834866D01*
X145786632Y-126823830D01*
X145806038Y-126814651D01*
X145826250Y-126807419D01*
X145847074Y-126802203D01*
X145868309Y-126799053D01*
X145889750Y-126798000D01*
X146327250Y-126798000D01*
X146348691Y-126799053D01*
G37*
G36*
X145014691Y-123788553D02*
G01*
X145035926Y-123791703D01*
X145056750Y-123796919D01*
X145076962Y-123804151D01*
X145096368Y-123813330D01*
X145114781Y-123824366D01*
X145132024Y-123837154D01*
X145147930Y-123851570D01*
X145162346Y-123867476D01*
X145175134Y-123884719D01*
X145186170Y-123903132D01*
X145195349Y-123922538D01*
X145202581Y-123942750D01*
X145207797Y-123963574D01*
X145210947Y-123984809D01*
X145212000Y-124006250D01*
X145212000Y-124443750D01*
X145210947Y-124465191D01*
X145207797Y-124486426D01*
X145202581Y-124507250D01*
X145195349Y-124527462D01*
X145186170Y-124546868D01*
X145175134Y-124565281D01*
X145162346Y-124582524D01*
X145147930Y-124598430D01*
X145132024Y-124612846D01*
X145114781Y-124625634D01*
X145096368Y-124636670D01*
X145076962Y-124645849D01*
X145056750Y-124653081D01*
X145035926Y-124658297D01*
X145014691Y-124661447D01*
X144993250Y-124662500D01*
X144480750Y-124662500D01*
X144459309Y-124661447D01*
X144438074Y-124658297D01*
X144417250Y-124653081D01*
X144397038Y-124645849D01*
X144377632Y-124636670D01*
X144359219Y-124625634D01*
X144341976Y-124612846D01*
X144326070Y-124598430D01*
X144311654Y-124582524D01*
X144298866Y-124565281D01*
X144287830Y-124546868D01*
X144278651Y-124527462D01*
X144271419Y-124507250D01*
X144266203Y-124486426D01*
X144263053Y-124465191D01*
X144262000Y-124443750D01*
X144262000Y-124006250D01*
X144263053Y-123984809D01*
X144266203Y-123963574D01*
X144271419Y-123942750D01*
X144278651Y-123922538D01*
X144287830Y-123903132D01*
X144298866Y-123884719D01*
X144311654Y-123867476D01*
X144326070Y-123851570D01*
X144341976Y-123837154D01*
X144359219Y-123824366D01*
X144377632Y-123813330D01*
X144397038Y-123804151D01*
X144417250Y-123796919D01*
X144438074Y-123791703D01*
X144459309Y-123788553D01*
X144480750Y-123787500D01*
X144993250Y-123787500D01*
X145014691Y-123788553D01*
G37*
G36*
X145014691Y-125363553D02*
G01*
X145035926Y-125366703D01*
X145056750Y-125371919D01*
X145076962Y-125379151D01*
X145096368Y-125388330D01*
X145114781Y-125399366D01*
X145132024Y-125412154D01*
X145147930Y-125426570D01*
X145162346Y-125442476D01*
X145175134Y-125459719D01*
X145186170Y-125478132D01*
X145195349Y-125497538D01*
X145202581Y-125517750D01*
X145207797Y-125538574D01*
X145210947Y-125559809D01*
X145212000Y-125581250D01*
X145212000Y-126018750D01*
X145210947Y-126040191D01*
X145207797Y-126061426D01*
X145202581Y-126082250D01*
X145195349Y-126102462D01*
X145186170Y-126121868D01*
X145175134Y-126140281D01*
X145162346Y-126157524D01*
X145147930Y-126173430D01*
X145132024Y-126187846D01*
X145114781Y-126200634D01*
X145096368Y-126211670D01*
X145076962Y-126220849D01*
X145056750Y-126228081D01*
X145035926Y-126233297D01*
X145014691Y-126236447D01*
X144993250Y-126237500D01*
X144480750Y-126237500D01*
X144459309Y-126236447D01*
X144438074Y-126233297D01*
X144417250Y-126228081D01*
X144397038Y-126220849D01*
X144377632Y-126211670D01*
X144359219Y-126200634D01*
X144341976Y-126187846D01*
X144326070Y-126173430D01*
X144311654Y-126157524D01*
X144298866Y-126140281D01*
X144287830Y-126121868D01*
X144278651Y-126102462D01*
X144271419Y-126082250D01*
X144266203Y-126061426D01*
X144263053Y-126040191D01*
X144262000Y-126018750D01*
X144262000Y-125581250D01*
X144263053Y-125559809D01*
X144266203Y-125538574D01*
X144271419Y-125517750D01*
X144278651Y-125497538D01*
X144287830Y-125478132D01*
X144298866Y-125459719D01*
X144311654Y-125442476D01*
X144326070Y-125426570D01*
X144341976Y-125412154D01*
X144359219Y-125399366D01*
X144377632Y-125388330D01*
X144397038Y-125379151D01*
X144417250Y-125371919D01*
X144438074Y-125366703D01*
X144459309Y-125363553D01*
X144480750Y-125362500D01*
X144993250Y-125362500D01*
X145014691Y-125363553D01*
G37*
G36*
X168927691Y-123701053D02*
G01*
X168948926Y-123704203D01*
X168969750Y-123709419D01*
X168989962Y-123716651D01*
X169009368Y-123725830D01*
X169027781Y-123736866D01*
X169045024Y-123749654D01*
X169060930Y-123764070D01*
X169075346Y-123779976D01*
X169088134Y-123797219D01*
X169099170Y-123815632D01*
X169108349Y-123835038D01*
X169115581Y-123855250D01*
X169120797Y-123876074D01*
X169123947Y-123897309D01*
X169125000Y-123918750D01*
X169125000Y-124356250D01*
X169123947Y-124377691D01*
X169120797Y-124398926D01*
X169115581Y-124419750D01*
X169108349Y-124439962D01*
X169099170Y-124459368D01*
X169088134Y-124477781D01*
X169075346Y-124495024D01*
X169060930Y-124510930D01*
X169045024Y-124525346D01*
X169027781Y-124538134D01*
X169009368Y-124549170D01*
X168989962Y-124558349D01*
X168969750Y-124565581D01*
X168948926Y-124570797D01*
X168927691Y-124573947D01*
X168906250Y-124575000D01*
X168393750Y-124575000D01*
X168372309Y-124573947D01*
X168351074Y-124570797D01*
X168330250Y-124565581D01*
X168310038Y-124558349D01*
X168290632Y-124549170D01*
X168272219Y-124538134D01*
X168254976Y-124525346D01*
X168239070Y-124510930D01*
X168224654Y-124495024D01*
X168211866Y-124477781D01*
X168200830Y-124459368D01*
X168191651Y-124439962D01*
X168184419Y-124419750D01*
X168179203Y-124398926D01*
X168176053Y-124377691D01*
X168175000Y-124356250D01*
X168175000Y-123918750D01*
X168176053Y-123897309D01*
X168179203Y-123876074D01*
X168184419Y-123855250D01*
X168191651Y-123835038D01*
X168200830Y-123815632D01*
X168211866Y-123797219D01*
X168224654Y-123779976D01*
X168239070Y-123764070D01*
X168254976Y-123749654D01*
X168272219Y-123736866D01*
X168290632Y-123725830D01*
X168310038Y-123716651D01*
X168330250Y-123709419D01*
X168351074Y-123704203D01*
X168372309Y-123701053D01*
X168393750Y-123700000D01*
X168906250Y-123700000D01*
X168927691Y-123701053D01*
G37*
G36*
X168927691Y-122126053D02*
G01*
X168948926Y-122129203D01*
X168969750Y-122134419D01*
X168989962Y-122141651D01*
X169009368Y-122150830D01*
X169027781Y-122161866D01*
X169045024Y-122174654D01*
X169060930Y-122189070D01*
X169075346Y-122204976D01*
X169088134Y-122222219D01*
X169099170Y-122240632D01*
X169108349Y-122260038D01*
X169115581Y-122280250D01*
X169120797Y-122301074D01*
X169123947Y-122322309D01*
X169125000Y-122343750D01*
X169125000Y-122781250D01*
X169123947Y-122802691D01*
X169120797Y-122823926D01*
X169115581Y-122844750D01*
X169108349Y-122864962D01*
X169099170Y-122884368D01*
X169088134Y-122902781D01*
X169075346Y-122920024D01*
X169060930Y-122935930D01*
X169045024Y-122950346D01*
X169027781Y-122963134D01*
X169009368Y-122974170D01*
X168989962Y-122983349D01*
X168969750Y-122990581D01*
X168948926Y-122995797D01*
X168927691Y-122998947D01*
X168906250Y-123000000D01*
X168393750Y-123000000D01*
X168372309Y-122998947D01*
X168351074Y-122995797D01*
X168330250Y-122990581D01*
X168310038Y-122983349D01*
X168290632Y-122974170D01*
X168272219Y-122963134D01*
X168254976Y-122950346D01*
X168239070Y-122935930D01*
X168224654Y-122920024D01*
X168211866Y-122902781D01*
X168200830Y-122884368D01*
X168191651Y-122864962D01*
X168184419Y-122844750D01*
X168179203Y-122823926D01*
X168176053Y-122802691D01*
X168175000Y-122781250D01*
X168175000Y-122343750D01*
X168176053Y-122322309D01*
X168179203Y-122301074D01*
X168184419Y-122280250D01*
X168191651Y-122260038D01*
X168200830Y-122240632D01*
X168211866Y-122222219D01*
X168224654Y-122204976D01*
X168239070Y-122189070D01*
X168254976Y-122174654D01*
X168272219Y-122161866D01*
X168290632Y-122150830D01*
X168310038Y-122141651D01*
X168330250Y-122134419D01*
X168351074Y-122129203D01*
X168372309Y-122126053D01*
X168393750Y-122125000D01*
X168906250Y-122125000D01*
X168927691Y-122126053D01*
G37*
G36*
X121102691Y-103226053D02*
G01*
X121123926Y-103229203D01*
X121144750Y-103234419D01*
X121164962Y-103241651D01*
X121184368Y-103250830D01*
X121202781Y-103261866D01*
X121220024Y-103274654D01*
X121235930Y-103289070D01*
X121250346Y-103304976D01*
X121263134Y-103322219D01*
X121274170Y-103340632D01*
X121283349Y-103360038D01*
X121290581Y-103380250D01*
X121295797Y-103401074D01*
X121298947Y-103422309D01*
X121300000Y-103443750D01*
X121300000Y-103956250D01*
X121298947Y-103977691D01*
X121295797Y-103998926D01*
X121290581Y-104019750D01*
X121283349Y-104039962D01*
X121274170Y-104059368D01*
X121263134Y-104077781D01*
X121250346Y-104095024D01*
X121235930Y-104110930D01*
X121220024Y-104125346D01*
X121202781Y-104138134D01*
X121184368Y-104149170D01*
X121164962Y-104158349D01*
X121144750Y-104165581D01*
X121123926Y-104170797D01*
X121102691Y-104173947D01*
X121081250Y-104175000D01*
X120643750Y-104175000D01*
X120622309Y-104173947D01*
X120601074Y-104170797D01*
X120580250Y-104165581D01*
X120560038Y-104158349D01*
X120540632Y-104149170D01*
X120522219Y-104138134D01*
X120504976Y-104125346D01*
X120489070Y-104110930D01*
X120474654Y-104095024D01*
X120461866Y-104077781D01*
X120450830Y-104059368D01*
X120441651Y-104039962D01*
X120434419Y-104019750D01*
X120429203Y-103998926D01*
X120426053Y-103977691D01*
X120425000Y-103956250D01*
X120425000Y-103443750D01*
X120426053Y-103422309D01*
X120429203Y-103401074D01*
X120434419Y-103380250D01*
X120441651Y-103360038D01*
X120450830Y-103340632D01*
X120461866Y-103322219D01*
X120474654Y-103304976D01*
X120489070Y-103289070D01*
X120504976Y-103274654D01*
X120522219Y-103261866D01*
X120540632Y-103250830D01*
X120560038Y-103241651D01*
X120580250Y-103234419D01*
X120601074Y-103229203D01*
X120622309Y-103226053D01*
X120643750Y-103225000D01*
X121081250Y-103225000D01*
X121102691Y-103226053D01*
G37*
G36*
X122677691Y-103226053D02*
G01*
X122698926Y-103229203D01*
X122719750Y-103234419D01*
X122739962Y-103241651D01*
X122759368Y-103250830D01*
X122777781Y-103261866D01*
X122795024Y-103274654D01*
X122810930Y-103289070D01*
X122825346Y-103304976D01*
X122838134Y-103322219D01*
X122849170Y-103340632D01*
X122858349Y-103360038D01*
X122865581Y-103380250D01*
X122870797Y-103401074D01*
X122873947Y-103422309D01*
X122875000Y-103443750D01*
X122875000Y-103956250D01*
X122873947Y-103977691D01*
X122870797Y-103998926D01*
X122865581Y-104019750D01*
X122858349Y-104039962D01*
X122849170Y-104059368D01*
X122838134Y-104077781D01*
X122825346Y-104095024D01*
X122810930Y-104110930D01*
X122795024Y-104125346D01*
X122777781Y-104138134D01*
X122759368Y-104149170D01*
X122739962Y-104158349D01*
X122719750Y-104165581D01*
X122698926Y-104170797D01*
X122677691Y-104173947D01*
X122656250Y-104175000D01*
X122218750Y-104175000D01*
X122197309Y-104173947D01*
X122176074Y-104170797D01*
X122155250Y-104165581D01*
X122135038Y-104158349D01*
X122115632Y-104149170D01*
X122097219Y-104138134D01*
X122079976Y-104125346D01*
X122064070Y-104110930D01*
X122049654Y-104095024D01*
X122036866Y-104077781D01*
X122025830Y-104059368D01*
X122016651Y-104039962D01*
X122009419Y-104019750D01*
X122004203Y-103998926D01*
X122001053Y-103977691D01*
X122000000Y-103956250D01*
X122000000Y-103443750D01*
X122001053Y-103422309D01*
X122004203Y-103401074D01*
X122009419Y-103380250D01*
X122016651Y-103360038D01*
X122025830Y-103340632D01*
X122036866Y-103322219D01*
X122049654Y-103304976D01*
X122064070Y-103289070D01*
X122079976Y-103274654D01*
X122097219Y-103261866D01*
X122115632Y-103250830D01*
X122135038Y-103241651D01*
X122155250Y-103234419D01*
X122176074Y-103229203D01*
X122197309Y-103226053D01*
X122218750Y-103225000D01*
X122656250Y-103225000D01*
X122677691Y-103226053D01*
G37*
G36*
X119502691Y-101576053D02*
G01*
X119523926Y-101579203D01*
X119544750Y-101584419D01*
X119564962Y-101591651D01*
X119584368Y-101600830D01*
X119602781Y-101611866D01*
X119620024Y-101624654D01*
X119635930Y-101639070D01*
X119650346Y-101654976D01*
X119663134Y-101672219D01*
X119674170Y-101690632D01*
X119683349Y-101710038D01*
X119690581Y-101730250D01*
X119695797Y-101751074D01*
X119698947Y-101772309D01*
X119700000Y-101793750D01*
X119700000Y-102306250D01*
X119698947Y-102327691D01*
X119695797Y-102348926D01*
X119690581Y-102369750D01*
X119683349Y-102389962D01*
X119674170Y-102409368D01*
X119663134Y-102427781D01*
X119650346Y-102445024D01*
X119635930Y-102460930D01*
X119620024Y-102475346D01*
X119602781Y-102488134D01*
X119584368Y-102499170D01*
X119564962Y-102508349D01*
X119544750Y-102515581D01*
X119523926Y-102520797D01*
X119502691Y-102523947D01*
X119481250Y-102525000D01*
X119043750Y-102525000D01*
X119022309Y-102523947D01*
X119001074Y-102520797D01*
X118980250Y-102515581D01*
X118960038Y-102508349D01*
X118940632Y-102499170D01*
X118922219Y-102488134D01*
X118904976Y-102475346D01*
X118889070Y-102460930D01*
X118874654Y-102445024D01*
X118861866Y-102427781D01*
X118850830Y-102409368D01*
X118841651Y-102389962D01*
X118834419Y-102369750D01*
X118829203Y-102348926D01*
X118826053Y-102327691D01*
X118825000Y-102306250D01*
X118825000Y-101793750D01*
X118826053Y-101772309D01*
X118829203Y-101751074D01*
X118834419Y-101730250D01*
X118841651Y-101710038D01*
X118850830Y-101690632D01*
X118861866Y-101672219D01*
X118874654Y-101654976D01*
X118889070Y-101639070D01*
X118904976Y-101624654D01*
X118922219Y-101611866D01*
X118940632Y-101600830D01*
X118960038Y-101591651D01*
X118980250Y-101584419D01*
X119001074Y-101579203D01*
X119022309Y-101576053D01*
X119043750Y-101575000D01*
X119481250Y-101575000D01*
X119502691Y-101576053D01*
G37*
G36*
X121077691Y-101576053D02*
G01*
X121098926Y-101579203D01*
X121119750Y-101584419D01*
X121139962Y-101591651D01*
X121159368Y-101600830D01*
X121177781Y-101611866D01*
X121195024Y-101624654D01*
X121210930Y-101639070D01*
X121225346Y-101654976D01*
X121238134Y-101672219D01*
X121249170Y-101690632D01*
X121258349Y-101710038D01*
X121265581Y-101730250D01*
X121270797Y-101751074D01*
X121273947Y-101772309D01*
X121275000Y-101793750D01*
X121275000Y-102306250D01*
X121273947Y-102327691D01*
X121270797Y-102348926D01*
X121265581Y-102369750D01*
X121258349Y-102389962D01*
X121249170Y-102409368D01*
X121238134Y-102427781D01*
X121225346Y-102445024D01*
X121210930Y-102460930D01*
X121195024Y-102475346D01*
X121177781Y-102488134D01*
X121159368Y-102499170D01*
X121139962Y-102508349D01*
X121119750Y-102515581D01*
X121098926Y-102520797D01*
X121077691Y-102523947D01*
X121056250Y-102525000D01*
X120618750Y-102525000D01*
X120597309Y-102523947D01*
X120576074Y-102520797D01*
X120555250Y-102515581D01*
X120535038Y-102508349D01*
X120515632Y-102499170D01*
X120497219Y-102488134D01*
X120479976Y-102475346D01*
X120464070Y-102460930D01*
X120449654Y-102445024D01*
X120436866Y-102427781D01*
X120425830Y-102409368D01*
X120416651Y-102389962D01*
X120409419Y-102369750D01*
X120404203Y-102348926D01*
X120401053Y-102327691D01*
X120400000Y-102306250D01*
X120400000Y-101793750D01*
X120401053Y-101772309D01*
X120404203Y-101751074D01*
X120409419Y-101730250D01*
X120416651Y-101710038D01*
X120425830Y-101690632D01*
X120436866Y-101672219D01*
X120449654Y-101654976D01*
X120464070Y-101639070D01*
X120479976Y-101624654D01*
X120497219Y-101611866D01*
X120515632Y-101600830D01*
X120535038Y-101591651D01*
X120555250Y-101584419D01*
X120576074Y-101579203D01*
X120597309Y-101576053D01*
X120618750Y-101575000D01*
X121056250Y-101575000D01*
X121077691Y-101576053D01*
G37*
G36*
X125102691Y-97576053D02*
G01*
X125123926Y-97579203D01*
X125144750Y-97584419D01*
X125164962Y-97591651D01*
X125184368Y-97600830D01*
X125202781Y-97611866D01*
X125220024Y-97624654D01*
X125235930Y-97639070D01*
X125250346Y-97654976D01*
X125263134Y-97672219D01*
X125274170Y-97690632D01*
X125283349Y-97710038D01*
X125290581Y-97730250D01*
X125295797Y-97751074D01*
X125298947Y-97772309D01*
X125300000Y-97793750D01*
X125300000Y-98306250D01*
X125298947Y-98327691D01*
X125295797Y-98348926D01*
X125290581Y-98369750D01*
X125283349Y-98389962D01*
X125274170Y-98409368D01*
X125263134Y-98427781D01*
X125250346Y-98445024D01*
X125235930Y-98460930D01*
X125220024Y-98475346D01*
X125202781Y-98488134D01*
X125184368Y-98499170D01*
X125164962Y-98508349D01*
X125144750Y-98515581D01*
X125123926Y-98520797D01*
X125102691Y-98523947D01*
X125081250Y-98525000D01*
X124643750Y-98525000D01*
X124622309Y-98523947D01*
X124601074Y-98520797D01*
X124580250Y-98515581D01*
X124560038Y-98508349D01*
X124540632Y-98499170D01*
X124522219Y-98488134D01*
X124504976Y-98475346D01*
X124489070Y-98460930D01*
X124474654Y-98445024D01*
X124461866Y-98427781D01*
X124450830Y-98409368D01*
X124441651Y-98389962D01*
X124434419Y-98369750D01*
X124429203Y-98348926D01*
X124426053Y-98327691D01*
X124425000Y-98306250D01*
X124425000Y-97793750D01*
X124426053Y-97772309D01*
X124429203Y-97751074D01*
X124434419Y-97730250D01*
X124441651Y-97710038D01*
X124450830Y-97690632D01*
X124461866Y-97672219D01*
X124474654Y-97654976D01*
X124489070Y-97639070D01*
X124504976Y-97624654D01*
X124522219Y-97611866D01*
X124540632Y-97600830D01*
X124560038Y-97591651D01*
X124580250Y-97584419D01*
X124601074Y-97579203D01*
X124622309Y-97576053D01*
X124643750Y-97575000D01*
X125081250Y-97575000D01*
X125102691Y-97576053D01*
G37*
G36*
X126677691Y-97576053D02*
G01*
X126698926Y-97579203D01*
X126719750Y-97584419D01*
X126739962Y-97591651D01*
X126759368Y-97600830D01*
X126777781Y-97611866D01*
X126795024Y-97624654D01*
X126810930Y-97639070D01*
X126825346Y-97654976D01*
X126838134Y-97672219D01*
X126849170Y-97690632D01*
X126858349Y-97710038D01*
X126865581Y-97730250D01*
X126870797Y-97751074D01*
X126873947Y-97772309D01*
X126875000Y-97793750D01*
X126875000Y-98306250D01*
X126873947Y-98327691D01*
X126870797Y-98348926D01*
X126865581Y-98369750D01*
X126858349Y-98389962D01*
X126849170Y-98409368D01*
X126838134Y-98427781D01*
X126825346Y-98445024D01*
X126810930Y-98460930D01*
X126795024Y-98475346D01*
X126777781Y-98488134D01*
X126759368Y-98499170D01*
X126739962Y-98508349D01*
X126719750Y-98515581D01*
X126698926Y-98520797D01*
X126677691Y-98523947D01*
X126656250Y-98525000D01*
X126218750Y-98525000D01*
X126197309Y-98523947D01*
X126176074Y-98520797D01*
X126155250Y-98515581D01*
X126135038Y-98508349D01*
X126115632Y-98499170D01*
X126097219Y-98488134D01*
X126079976Y-98475346D01*
X126064070Y-98460930D01*
X126049654Y-98445024D01*
X126036866Y-98427781D01*
X126025830Y-98409368D01*
X126016651Y-98389962D01*
X126009419Y-98369750D01*
X126004203Y-98348926D01*
X126001053Y-98327691D01*
X126000000Y-98306250D01*
X126000000Y-97793750D01*
X126001053Y-97772309D01*
X126004203Y-97751074D01*
X126009419Y-97730250D01*
X126016651Y-97710038D01*
X126025830Y-97690632D01*
X126036866Y-97672219D01*
X126049654Y-97654976D01*
X126064070Y-97639070D01*
X126079976Y-97624654D01*
X126097219Y-97611866D01*
X126115632Y-97600830D01*
X126135038Y-97591651D01*
X126155250Y-97584419D01*
X126176074Y-97579203D01*
X126197309Y-97576053D01*
X126218750Y-97575000D01*
X126656250Y-97575000D01*
X126677691Y-97576053D01*
G37*
D14*
X120869000Y-93967000D03*
X122969000Y-93967000D03*
D11*
G36*
X142171691Y-101576553D02*
G01*
X142192926Y-101579703D01*
X142213750Y-101584919D01*
X142233962Y-101592151D01*
X142253368Y-101601330D01*
X142271781Y-101612366D01*
X142289024Y-101625154D01*
X142304930Y-101639570D01*
X142319346Y-101655476D01*
X142332134Y-101672719D01*
X142343170Y-101691132D01*
X142352349Y-101710538D01*
X142359581Y-101730750D01*
X142364797Y-101751574D01*
X142367947Y-101772809D01*
X142369000Y-101794250D01*
X142369000Y-102231750D01*
X142367947Y-102253191D01*
X142364797Y-102274426D01*
X142359581Y-102295250D01*
X142352349Y-102315462D01*
X142343170Y-102334868D01*
X142332134Y-102353281D01*
X142319346Y-102370524D01*
X142304930Y-102386430D01*
X142289024Y-102400846D01*
X142271781Y-102413634D01*
X142253368Y-102424670D01*
X142233962Y-102433849D01*
X142213750Y-102441081D01*
X142192926Y-102446297D01*
X142171691Y-102449447D01*
X142150250Y-102450500D01*
X141637750Y-102450500D01*
X141616309Y-102449447D01*
X141595074Y-102446297D01*
X141574250Y-102441081D01*
X141554038Y-102433849D01*
X141534632Y-102424670D01*
X141516219Y-102413634D01*
X141498976Y-102400846D01*
X141483070Y-102386430D01*
X141468654Y-102370524D01*
X141455866Y-102353281D01*
X141444830Y-102334868D01*
X141435651Y-102315462D01*
X141428419Y-102295250D01*
X141423203Y-102274426D01*
X141420053Y-102253191D01*
X141419000Y-102231750D01*
X141419000Y-101794250D01*
X141420053Y-101772809D01*
X141423203Y-101751574D01*
X141428419Y-101730750D01*
X141435651Y-101710538D01*
X141444830Y-101691132D01*
X141455866Y-101672719D01*
X141468654Y-101655476D01*
X141483070Y-101639570D01*
X141498976Y-101625154D01*
X141516219Y-101612366D01*
X141534632Y-101601330D01*
X141554038Y-101592151D01*
X141574250Y-101584919D01*
X141595074Y-101579703D01*
X141616309Y-101576553D01*
X141637750Y-101575500D01*
X142150250Y-101575500D01*
X142171691Y-101576553D01*
G37*
G36*
X142171691Y-100001553D02*
G01*
X142192926Y-100004703D01*
X142213750Y-100009919D01*
X142233962Y-100017151D01*
X142253368Y-100026330D01*
X142271781Y-100037366D01*
X142289024Y-100050154D01*
X142304930Y-100064570D01*
X142319346Y-100080476D01*
X142332134Y-100097719D01*
X142343170Y-100116132D01*
X142352349Y-100135538D01*
X142359581Y-100155750D01*
X142364797Y-100176574D01*
X142367947Y-100197809D01*
X142369000Y-100219250D01*
X142369000Y-100656750D01*
X142367947Y-100678191D01*
X142364797Y-100699426D01*
X142359581Y-100720250D01*
X142352349Y-100740462D01*
X142343170Y-100759868D01*
X142332134Y-100778281D01*
X142319346Y-100795524D01*
X142304930Y-100811430D01*
X142289024Y-100825846D01*
X142271781Y-100838634D01*
X142253368Y-100849670D01*
X142233962Y-100858849D01*
X142213750Y-100866081D01*
X142192926Y-100871297D01*
X142171691Y-100874447D01*
X142150250Y-100875500D01*
X141637750Y-100875500D01*
X141616309Y-100874447D01*
X141595074Y-100871297D01*
X141574250Y-100866081D01*
X141554038Y-100858849D01*
X141534632Y-100849670D01*
X141516219Y-100838634D01*
X141498976Y-100825846D01*
X141483070Y-100811430D01*
X141468654Y-100795524D01*
X141455866Y-100778281D01*
X141444830Y-100759868D01*
X141435651Y-100740462D01*
X141428419Y-100720250D01*
X141423203Y-100699426D01*
X141420053Y-100678191D01*
X141419000Y-100656750D01*
X141419000Y-100219250D01*
X141420053Y-100197809D01*
X141423203Y-100176574D01*
X141428419Y-100155750D01*
X141435651Y-100135538D01*
X141444830Y-100116132D01*
X141455866Y-100097719D01*
X141468654Y-100080476D01*
X141483070Y-100064570D01*
X141498976Y-100050154D01*
X141516219Y-100037366D01*
X141534632Y-100026330D01*
X141554038Y-100017151D01*
X141574250Y-100009919D01*
X141595074Y-100004703D01*
X141616309Y-100001553D01*
X141637750Y-100000500D01*
X142150250Y-100000500D01*
X142171691Y-100001553D01*
G37*
D15*
X120569000Y-97672000D03*
X121219000Y-97672000D03*
X121879000Y-97672000D03*
X122529000Y-97672000D03*
X122529000Y-99872000D03*
X121879000Y-99872000D03*
X121219000Y-99872000D03*
X120569000Y-99872000D03*
D12*
X165750000Y-126200000D03*
X164800000Y-124200000D03*
X166700000Y-124200000D03*
D16*
X173986000Y-112124000D03*
X172086000Y-112124000D03*
X172086000Y-109924000D03*
X173036000Y-109924000D03*
X173986000Y-109924000D03*
D11*
G36*
X140803691Y-96523553D02*
G01*
X140824926Y-96526703D01*
X140845750Y-96531919D01*
X140865962Y-96539151D01*
X140885368Y-96548330D01*
X140903781Y-96559366D01*
X140921024Y-96572154D01*
X140936930Y-96586570D01*
X140951346Y-96602476D01*
X140964134Y-96619719D01*
X140975170Y-96638132D01*
X140984349Y-96657538D01*
X140991581Y-96677750D01*
X140996797Y-96698574D01*
X140999947Y-96719809D01*
X141001000Y-96741250D01*
X141001000Y-97178750D01*
X140999947Y-97200191D01*
X140996797Y-97221426D01*
X140991581Y-97242250D01*
X140984349Y-97262462D01*
X140975170Y-97281868D01*
X140964134Y-97300281D01*
X140951346Y-97317524D01*
X140936930Y-97333430D01*
X140921024Y-97347846D01*
X140903781Y-97360634D01*
X140885368Y-97371670D01*
X140865962Y-97380849D01*
X140845750Y-97388081D01*
X140824926Y-97393297D01*
X140803691Y-97396447D01*
X140782250Y-97397500D01*
X140269750Y-97397500D01*
X140248309Y-97396447D01*
X140227074Y-97393297D01*
X140206250Y-97388081D01*
X140186038Y-97380849D01*
X140166632Y-97371670D01*
X140148219Y-97360634D01*
X140130976Y-97347846D01*
X140115070Y-97333430D01*
X140100654Y-97317524D01*
X140087866Y-97300281D01*
X140076830Y-97281868D01*
X140067651Y-97262462D01*
X140060419Y-97242250D01*
X140055203Y-97221426D01*
X140052053Y-97200191D01*
X140051000Y-97178750D01*
X140051000Y-96741250D01*
X140052053Y-96719809D01*
X140055203Y-96698574D01*
X140060419Y-96677750D01*
X140067651Y-96657538D01*
X140076830Y-96638132D01*
X140087866Y-96619719D01*
X140100654Y-96602476D01*
X140115070Y-96586570D01*
X140130976Y-96572154D01*
X140148219Y-96559366D01*
X140166632Y-96548330D01*
X140186038Y-96539151D01*
X140206250Y-96531919D01*
X140227074Y-96526703D01*
X140248309Y-96523553D01*
X140269750Y-96522500D01*
X140782250Y-96522500D01*
X140803691Y-96523553D01*
G37*
G36*
X140803691Y-98098553D02*
G01*
X140824926Y-98101703D01*
X140845750Y-98106919D01*
X140865962Y-98114151D01*
X140885368Y-98123330D01*
X140903781Y-98134366D01*
X140921024Y-98147154D01*
X140936930Y-98161570D01*
X140951346Y-98177476D01*
X140964134Y-98194719D01*
X140975170Y-98213132D01*
X140984349Y-98232538D01*
X140991581Y-98252750D01*
X140996797Y-98273574D01*
X140999947Y-98294809D01*
X141001000Y-98316250D01*
X141001000Y-98753750D01*
X140999947Y-98775191D01*
X140996797Y-98796426D01*
X140991581Y-98817250D01*
X140984349Y-98837462D01*
X140975170Y-98856868D01*
X140964134Y-98875281D01*
X140951346Y-98892524D01*
X140936930Y-98908430D01*
X140921024Y-98922846D01*
X140903781Y-98935634D01*
X140885368Y-98946670D01*
X140865962Y-98955849D01*
X140845750Y-98963081D01*
X140824926Y-98968297D01*
X140803691Y-98971447D01*
X140782250Y-98972500D01*
X140269750Y-98972500D01*
X140248309Y-98971447D01*
X140227074Y-98968297D01*
X140206250Y-98963081D01*
X140186038Y-98955849D01*
X140166632Y-98946670D01*
X140148219Y-98935634D01*
X140130976Y-98922846D01*
X140115070Y-98908430D01*
X140100654Y-98892524D01*
X140087866Y-98875281D01*
X140076830Y-98856868D01*
X140067651Y-98837462D01*
X140060419Y-98817250D01*
X140055203Y-98796426D01*
X140052053Y-98775191D01*
X140051000Y-98753750D01*
X140051000Y-98316250D01*
X140052053Y-98294809D01*
X140055203Y-98273574D01*
X140060419Y-98252750D01*
X140067651Y-98232538D01*
X140076830Y-98213132D01*
X140087866Y-98194719D01*
X140100654Y-98177476D01*
X140115070Y-98161570D01*
X140130976Y-98147154D01*
X140148219Y-98134366D01*
X140166632Y-98123330D01*
X140186038Y-98114151D01*
X140206250Y-98106919D01*
X140227074Y-98101703D01*
X140248309Y-98098553D01*
X140269750Y-98097500D01*
X140782250Y-98097500D01*
X140803691Y-98098553D01*
G37*
G36*
X148146191Y-94349053D02*
G01*
X148167426Y-94352203D01*
X148188250Y-94357419D01*
X148208462Y-94364651D01*
X148227868Y-94373830D01*
X148246281Y-94384866D01*
X148263524Y-94397654D01*
X148279430Y-94412070D01*
X148293846Y-94427976D01*
X148306634Y-94445219D01*
X148317670Y-94463632D01*
X148326849Y-94483038D01*
X148334081Y-94503250D01*
X148339297Y-94524074D01*
X148342447Y-94545309D01*
X148343500Y-94566750D01*
X148343500Y-95079250D01*
X148342447Y-95100691D01*
X148339297Y-95121926D01*
X148334081Y-95142750D01*
X148326849Y-95162962D01*
X148317670Y-95182368D01*
X148306634Y-95200781D01*
X148293846Y-95218024D01*
X148279430Y-95233930D01*
X148263524Y-95248346D01*
X148246281Y-95261134D01*
X148227868Y-95272170D01*
X148208462Y-95281349D01*
X148188250Y-95288581D01*
X148167426Y-95293797D01*
X148146191Y-95296947D01*
X148124750Y-95298000D01*
X147687250Y-95298000D01*
X147665809Y-95296947D01*
X147644574Y-95293797D01*
X147623750Y-95288581D01*
X147603538Y-95281349D01*
X147584132Y-95272170D01*
X147565719Y-95261134D01*
X147548476Y-95248346D01*
X147532570Y-95233930D01*
X147518154Y-95218024D01*
X147505366Y-95200781D01*
X147494330Y-95182368D01*
X147485151Y-95162962D01*
X147477919Y-95142750D01*
X147472703Y-95121926D01*
X147469553Y-95100691D01*
X147468500Y-95079250D01*
X147468500Y-94566750D01*
X147469553Y-94545309D01*
X147472703Y-94524074D01*
X147477919Y-94503250D01*
X147485151Y-94483038D01*
X147494330Y-94463632D01*
X147505366Y-94445219D01*
X147518154Y-94427976D01*
X147532570Y-94412070D01*
X147548476Y-94397654D01*
X147565719Y-94384866D01*
X147584132Y-94373830D01*
X147603538Y-94364651D01*
X147623750Y-94357419D01*
X147644574Y-94352203D01*
X147665809Y-94349053D01*
X147687250Y-94348000D01*
X148124750Y-94348000D01*
X148146191Y-94349053D01*
G37*
G36*
X146571191Y-94349053D02*
G01*
X146592426Y-94352203D01*
X146613250Y-94357419D01*
X146633462Y-94364651D01*
X146652868Y-94373830D01*
X146671281Y-94384866D01*
X146688524Y-94397654D01*
X146704430Y-94412070D01*
X146718846Y-94427976D01*
X146731634Y-94445219D01*
X146742670Y-94463632D01*
X146751849Y-94483038D01*
X146759081Y-94503250D01*
X146764297Y-94524074D01*
X146767447Y-94545309D01*
X146768500Y-94566750D01*
X146768500Y-95079250D01*
X146767447Y-95100691D01*
X146764297Y-95121926D01*
X146759081Y-95142750D01*
X146751849Y-95162962D01*
X146742670Y-95182368D01*
X146731634Y-95200781D01*
X146718846Y-95218024D01*
X146704430Y-95233930D01*
X146688524Y-95248346D01*
X146671281Y-95261134D01*
X146652868Y-95272170D01*
X146633462Y-95281349D01*
X146613250Y-95288581D01*
X146592426Y-95293797D01*
X146571191Y-95296947D01*
X146549750Y-95298000D01*
X146112250Y-95298000D01*
X146090809Y-95296947D01*
X146069574Y-95293797D01*
X146048750Y-95288581D01*
X146028538Y-95281349D01*
X146009132Y-95272170D01*
X145990719Y-95261134D01*
X145973476Y-95248346D01*
X145957570Y-95233930D01*
X145943154Y-95218024D01*
X145930366Y-95200781D01*
X145919330Y-95182368D01*
X145910151Y-95162962D01*
X145902919Y-95142750D01*
X145897703Y-95121926D01*
X145894553Y-95100691D01*
X145893500Y-95079250D01*
X145893500Y-94566750D01*
X145894553Y-94545309D01*
X145897703Y-94524074D01*
X145902919Y-94503250D01*
X145910151Y-94483038D01*
X145919330Y-94463632D01*
X145930366Y-94445219D01*
X145943154Y-94427976D01*
X145957570Y-94412070D01*
X145973476Y-94397654D01*
X145990719Y-94384866D01*
X146009132Y-94373830D01*
X146028538Y-94364651D01*
X146048750Y-94357419D01*
X146069574Y-94352203D01*
X146090809Y-94349053D01*
X146112250Y-94348000D01*
X146549750Y-94348000D01*
X146571191Y-94349053D01*
G37*
G36*
X156736191Y-98781053D02*
G01*
X156757426Y-98784203D01*
X156778250Y-98789419D01*
X156798462Y-98796651D01*
X156817868Y-98805830D01*
X156836281Y-98816866D01*
X156853524Y-98829654D01*
X156869430Y-98844070D01*
X156883846Y-98859976D01*
X156896634Y-98877219D01*
X156907670Y-98895632D01*
X156916849Y-98915038D01*
X156924081Y-98935250D01*
X156929297Y-98956074D01*
X156932447Y-98977309D01*
X156933500Y-98998750D01*
X156933500Y-99511250D01*
X156932447Y-99532691D01*
X156929297Y-99553926D01*
X156924081Y-99574750D01*
X156916849Y-99594962D01*
X156907670Y-99614368D01*
X156896634Y-99632781D01*
X156883846Y-99650024D01*
X156869430Y-99665930D01*
X156853524Y-99680346D01*
X156836281Y-99693134D01*
X156817868Y-99704170D01*
X156798462Y-99713349D01*
X156778250Y-99720581D01*
X156757426Y-99725797D01*
X156736191Y-99728947D01*
X156714750Y-99730000D01*
X156277250Y-99730000D01*
X156255809Y-99728947D01*
X156234574Y-99725797D01*
X156213750Y-99720581D01*
X156193538Y-99713349D01*
X156174132Y-99704170D01*
X156155719Y-99693134D01*
X156138476Y-99680346D01*
X156122570Y-99665930D01*
X156108154Y-99650024D01*
X156095366Y-99632781D01*
X156084330Y-99614368D01*
X156075151Y-99594962D01*
X156067919Y-99574750D01*
X156062703Y-99553926D01*
X156059553Y-99532691D01*
X156058500Y-99511250D01*
X156058500Y-98998750D01*
X156059553Y-98977309D01*
X156062703Y-98956074D01*
X156067919Y-98935250D01*
X156075151Y-98915038D01*
X156084330Y-98895632D01*
X156095366Y-98877219D01*
X156108154Y-98859976D01*
X156122570Y-98844070D01*
X156138476Y-98829654D01*
X156155719Y-98816866D01*
X156174132Y-98805830D01*
X156193538Y-98796651D01*
X156213750Y-98789419D01*
X156234574Y-98784203D01*
X156255809Y-98781053D01*
X156277250Y-98780000D01*
X156714750Y-98780000D01*
X156736191Y-98781053D01*
G37*
G36*
X158311191Y-98781053D02*
G01*
X158332426Y-98784203D01*
X158353250Y-98789419D01*
X158373462Y-98796651D01*
X158392868Y-98805830D01*
X158411281Y-98816866D01*
X158428524Y-98829654D01*
X158444430Y-98844070D01*
X158458846Y-98859976D01*
X158471634Y-98877219D01*
X158482670Y-98895632D01*
X158491849Y-98915038D01*
X158499081Y-98935250D01*
X158504297Y-98956074D01*
X158507447Y-98977309D01*
X158508500Y-98998750D01*
X158508500Y-99511250D01*
X158507447Y-99532691D01*
X158504297Y-99553926D01*
X158499081Y-99574750D01*
X158491849Y-99594962D01*
X158482670Y-99614368D01*
X158471634Y-99632781D01*
X158458846Y-99650024D01*
X158444430Y-99665930D01*
X158428524Y-99680346D01*
X158411281Y-99693134D01*
X158392868Y-99704170D01*
X158373462Y-99713349D01*
X158353250Y-99720581D01*
X158332426Y-99725797D01*
X158311191Y-99728947D01*
X158289750Y-99730000D01*
X157852250Y-99730000D01*
X157830809Y-99728947D01*
X157809574Y-99725797D01*
X157788750Y-99720581D01*
X157768538Y-99713349D01*
X157749132Y-99704170D01*
X157730719Y-99693134D01*
X157713476Y-99680346D01*
X157697570Y-99665930D01*
X157683154Y-99650024D01*
X157670366Y-99632781D01*
X157659330Y-99614368D01*
X157650151Y-99594962D01*
X157642919Y-99574750D01*
X157637703Y-99553926D01*
X157634553Y-99532691D01*
X157633500Y-99511250D01*
X157633500Y-98998750D01*
X157634553Y-98977309D01*
X157637703Y-98956074D01*
X157642919Y-98935250D01*
X157650151Y-98915038D01*
X157659330Y-98895632D01*
X157670366Y-98877219D01*
X157683154Y-98859976D01*
X157697570Y-98844070D01*
X157713476Y-98829654D01*
X157730719Y-98816866D01*
X157749132Y-98805830D01*
X157768538Y-98796651D01*
X157788750Y-98789419D01*
X157809574Y-98784203D01*
X157830809Y-98781053D01*
X157852250Y-98780000D01*
X158289750Y-98780000D01*
X158311191Y-98781053D01*
G37*
G36*
X148648703Y-124686722D02*
G01*
X148663264Y-124688882D01*
X148677543Y-124692459D01*
X148691403Y-124697418D01*
X148704710Y-124703712D01*
X148717336Y-124711280D01*
X148729159Y-124720048D01*
X148740066Y-124729934D01*
X148749952Y-124740841D01*
X148758720Y-124752664D01*
X148766288Y-124765290D01*
X148772582Y-124778597D01*
X148777541Y-124792457D01*
X148781118Y-124806736D01*
X148783278Y-124821297D01*
X148784000Y-124836000D01*
X148784000Y-125136000D01*
X148783278Y-125150703D01*
X148781118Y-125165264D01*
X148777541Y-125179543D01*
X148772582Y-125193403D01*
X148766288Y-125206710D01*
X148758720Y-125219336D01*
X148749952Y-125231159D01*
X148740066Y-125242066D01*
X148729159Y-125251952D01*
X148717336Y-125260720D01*
X148704710Y-125268288D01*
X148691403Y-125274582D01*
X148677543Y-125279541D01*
X148663264Y-125283118D01*
X148648703Y-125285278D01*
X148634000Y-125286000D01*
X146984000Y-125286000D01*
X146969297Y-125285278D01*
X146954736Y-125283118D01*
X146940457Y-125279541D01*
X146926597Y-125274582D01*
X146913290Y-125268288D01*
X146900664Y-125260720D01*
X146888841Y-125251952D01*
X146877934Y-125242066D01*
X146868048Y-125231159D01*
X146859280Y-125219336D01*
X146851712Y-125206710D01*
X146845418Y-125193403D01*
X146840459Y-125179543D01*
X146836882Y-125165264D01*
X146834722Y-125150703D01*
X146834000Y-125136000D01*
X146834000Y-124836000D01*
X146834722Y-124821297D01*
X146836882Y-124806736D01*
X146840459Y-124792457D01*
X146845418Y-124778597D01*
X146851712Y-124765290D01*
X146859280Y-124752664D01*
X146868048Y-124740841D01*
X146877934Y-124729934D01*
X146888841Y-124720048D01*
X146900664Y-124711280D01*
X146913290Y-124703712D01*
X146926597Y-124697418D01*
X146940457Y-124692459D01*
X146954736Y-124688882D01*
X146969297Y-124686722D01*
X146984000Y-124686000D01*
X148634000Y-124686000D01*
X148648703Y-124686722D01*
G37*
G36*
X148648703Y-123416722D02*
G01*
X148663264Y-123418882D01*
X148677543Y-123422459D01*
X148691403Y-123427418D01*
X148704710Y-123433712D01*
X148717336Y-123441280D01*
X148729159Y-123450048D01*
X148740066Y-123459934D01*
X148749952Y-123470841D01*
X148758720Y-123482664D01*
X148766288Y-123495290D01*
X148772582Y-123508597D01*
X148777541Y-123522457D01*
X148781118Y-123536736D01*
X148783278Y-123551297D01*
X148784000Y-123566000D01*
X148784000Y-123866000D01*
X148783278Y-123880703D01*
X148781118Y-123895264D01*
X148777541Y-123909543D01*
X148772582Y-123923403D01*
X148766288Y-123936710D01*
X148758720Y-123949336D01*
X148749952Y-123961159D01*
X148740066Y-123972066D01*
X148729159Y-123981952D01*
X148717336Y-123990720D01*
X148704710Y-123998288D01*
X148691403Y-124004582D01*
X148677543Y-124009541D01*
X148663264Y-124013118D01*
X148648703Y-124015278D01*
X148634000Y-124016000D01*
X146984000Y-124016000D01*
X146969297Y-124015278D01*
X146954736Y-124013118D01*
X146940457Y-124009541D01*
X146926597Y-124004582D01*
X146913290Y-123998288D01*
X146900664Y-123990720D01*
X146888841Y-123981952D01*
X146877934Y-123972066D01*
X146868048Y-123961159D01*
X146859280Y-123949336D01*
X146851712Y-123936710D01*
X146845418Y-123923403D01*
X146840459Y-123909543D01*
X146836882Y-123895264D01*
X146834722Y-123880703D01*
X146834000Y-123866000D01*
X146834000Y-123566000D01*
X146834722Y-123551297D01*
X146836882Y-123536736D01*
X146840459Y-123522457D01*
X146845418Y-123508597D01*
X146851712Y-123495290D01*
X146859280Y-123482664D01*
X146868048Y-123470841D01*
X146877934Y-123459934D01*
X146888841Y-123450048D01*
X146900664Y-123441280D01*
X146913290Y-123433712D01*
X146926597Y-123427418D01*
X146940457Y-123422459D01*
X146954736Y-123418882D01*
X146969297Y-123416722D01*
X146984000Y-123416000D01*
X148634000Y-123416000D01*
X148648703Y-123416722D01*
G37*
G36*
X148648703Y-122146722D02*
G01*
X148663264Y-122148882D01*
X148677543Y-122152459D01*
X148691403Y-122157418D01*
X148704710Y-122163712D01*
X148717336Y-122171280D01*
X148729159Y-122180048D01*
X148740066Y-122189934D01*
X148749952Y-122200841D01*
X148758720Y-122212664D01*
X148766288Y-122225290D01*
X148772582Y-122238597D01*
X148777541Y-122252457D01*
X148781118Y-122266736D01*
X148783278Y-122281297D01*
X148784000Y-122296000D01*
X148784000Y-122596000D01*
X148783278Y-122610703D01*
X148781118Y-122625264D01*
X148777541Y-122639543D01*
X148772582Y-122653403D01*
X148766288Y-122666710D01*
X148758720Y-122679336D01*
X148749952Y-122691159D01*
X148740066Y-122702066D01*
X148729159Y-122711952D01*
X148717336Y-122720720D01*
X148704710Y-122728288D01*
X148691403Y-122734582D01*
X148677543Y-122739541D01*
X148663264Y-122743118D01*
X148648703Y-122745278D01*
X148634000Y-122746000D01*
X146984000Y-122746000D01*
X146969297Y-122745278D01*
X146954736Y-122743118D01*
X146940457Y-122739541D01*
X146926597Y-122734582D01*
X146913290Y-122728288D01*
X146900664Y-122720720D01*
X146888841Y-122711952D01*
X146877934Y-122702066D01*
X146868048Y-122691159D01*
X146859280Y-122679336D01*
X146851712Y-122666710D01*
X146845418Y-122653403D01*
X146840459Y-122639543D01*
X146836882Y-122625264D01*
X146834722Y-122610703D01*
X146834000Y-122596000D01*
X146834000Y-122296000D01*
X146834722Y-122281297D01*
X146836882Y-122266736D01*
X146840459Y-122252457D01*
X146845418Y-122238597D01*
X146851712Y-122225290D01*
X146859280Y-122212664D01*
X146868048Y-122200841D01*
X146877934Y-122189934D01*
X146888841Y-122180048D01*
X146900664Y-122171280D01*
X146913290Y-122163712D01*
X146926597Y-122157418D01*
X146940457Y-122152459D01*
X146954736Y-122148882D01*
X146969297Y-122146722D01*
X146984000Y-122146000D01*
X148634000Y-122146000D01*
X148648703Y-122146722D01*
G37*
G36*
X148648703Y-120876722D02*
G01*
X148663264Y-120878882D01*
X148677543Y-120882459D01*
X148691403Y-120887418D01*
X148704710Y-120893712D01*
X148717336Y-120901280D01*
X148729159Y-120910048D01*
X148740066Y-120919934D01*
X148749952Y-120930841D01*
X148758720Y-120942664D01*
X148766288Y-120955290D01*
X148772582Y-120968597D01*
X148777541Y-120982457D01*
X148781118Y-120996736D01*
X148783278Y-121011297D01*
X148784000Y-121026000D01*
X148784000Y-121326000D01*
X148783278Y-121340703D01*
X148781118Y-121355264D01*
X148777541Y-121369543D01*
X148772582Y-121383403D01*
X148766288Y-121396710D01*
X148758720Y-121409336D01*
X148749952Y-121421159D01*
X148740066Y-121432066D01*
X148729159Y-121441952D01*
X148717336Y-121450720D01*
X148704710Y-121458288D01*
X148691403Y-121464582D01*
X148677543Y-121469541D01*
X148663264Y-121473118D01*
X148648703Y-121475278D01*
X148634000Y-121476000D01*
X146984000Y-121476000D01*
X146969297Y-121475278D01*
X146954736Y-121473118D01*
X146940457Y-121469541D01*
X146926597Y-121464582D01*
X146913290Y-121458288D01*
X146900664Y-121450720D01*
X146888841Y-121441952D01*
X146877934Y-121432066D01*
X146868048Y-121421159D01*
X146859280Y-121409336D01*
X146851712Y-121396710D01*
X146845418Y-121383403D01*
X146840459Y-121369543D01*
X146836882Y-121355264D01*
X146834722Y-121340703D01*
X146834000Y-121326000D01*
X146834000Y-121026000D01*
X146834722Y-121011297D01*
X146836882Y-120996736D01*
X146840459Y-120982457D01*
X146845418Y-120968597D01*
X146851712Y-120955290D01*
X146859280Y-120942664D01*
X146868048Y-120930841D01*
X146877934Y-120919934D01*
X146888841Y-120910048D01*
X146900664Y-120901280D01*
X146913290Y-120893712D01*
X146926597Y-120887418D01*
X146940457Y-120882459D01*
X146954736Y-120878882D01*
X146969297Y-120876722D01*
X146984000Y-120876000D01*
X148634000Y-120876000D01*
X148648703Y-120876722D01*
G37*
G36*
X153598703Y-120876722D02*
G01*
X153613264Y-120878882D01*
X153627543Y-120882459D01*
X153641403Y-120887418D01*
X153654710Y-120893712D01*
X153667336Y-120901280D01*
X153679159Y-120910048D01*
X153690066Y-120919934D01*
X153699952Y-120930841D01*
X153708720Y-120942664D01*
X153716288Y-120955290D01*
X153722582Y-120968597D01*
X153727541Y-120982457D01*
X153731118Y-120996736D01*
X153733278Y-121011297D01*
X153734000Y-121026000D01*
X153734000Y-121326000D01*
X153733278Y-121340703D01*
X153731118Y-121355264D01*
X153727541Y-121369543D01*
X153722582Y-121383403D01*
X153716288Y-121396710D01*
X153708720Y-121409336D01*
X153699952Y-121421159D01*
X153690066Y-121432066D01*
X153679159Y-121441952D01*
X153667336Y-121450720D01*
X153654710Y-121458288D01*
X153641403Y-121464582D01*
X153627543Y-121469541D01*
X153613264Y-121473118D01*
X153598703Y-121475278D01*
X153584000Y-121476000D01*
X151934000Y-121476000D01*
X151919297Y-121475278D01*
X151904736Y-121473118D01*
X151890457Y-121469541D01*
X151876597Y-121464582D01*
X151863290Y-121458288D01*
X151850664Y-121450720D01*
X151838841Y-121441952D01*
X151827934Y-121432066D01*
X151818048Y-121421159D01*
X151809280Y-121409336D01*
X151801712Y-121396710D01*
X151795418Y-121383403D01*
X151790459Y-121369543D01*
X151786882Y-121355264D01*
X151784722Y-121340703D01*
X151784000Y-121326000D01*
X151784000Y-121026000D01*
X151784722Y-121011297D01*
X151786882Y-120996736D01*
X151790459Y-120982457D01*
X151795418Y-120968597D01*
X151801712Y-120955290D01*
X151809280Y-120942664D01*
X151818048Y-120930841D01*
X151827934Y-120919934D01*
X151838841Y-120910048D01*
X151850664Y-120901280D01*
X151863290Y-120893712D01*
X151876597Y-120887418D01*
X151890457Y-120882459D01*
X151904736Y-120878882D01*
X151919297Y-120876722D01*
X151934000Y-120876000D01*
X153584000Y-120876000D01*
X153598703Y-120876722D01*
G37*
G36*
X153598703Y-122146722D02*
G01*
X153613264Y-122148882D01*
X153627543Y-122152459D01*
X153641403Y-122157418D01*
X153654710Y-122163712D01*
X153667336Y-122171280D01*
X153679159Y-122180048D01*
X153690066Y-122189934D01*
X153699952Y-122200841D01*
X153708720Y-122212664D01*
X153716288Y-122225290D01*
X153722582Y-122238597D01*
X153727541Y-122252457D01*
X153731118Y-122266736D01*
X153733278Y-122281297D01*
X153734000Y-122296000D01*
X153734000Y-122596000D01*
X153733278Y-122610703D01*
X153731118Y-122625264D01*
X153727541Y-122639543D01*
X153722582Y-122653403D01*
X153716288Y-122666710D01*
X153708720Y-122679336D01*
X153699952Y-122691159D01*
X153690066Y-122702066D01*
X153679159Y-122711952D01*
X153667336Y-122720720D01*
X153654710Y-122728288D01*
X153641403Y-122734582D01*
X153627543Y-122739541D01*
X153613264Y-122743118D01*
X153598703Y-122745278D01*
X153584000Y-122746000D01*
X151934000Y-122746000D01*
X151919297Y-122745278D01*
X151904736Y-122743118D01*
X151890457Y-122739541D01*
X151876597Y-122734582D01*
X151863290Y-122728288D01*
X151850664Y-122720720D01*
X151838841Y-122711952D01*
X151827934Y-122702066D01*
X151818048Y-122691159D01*
X151809280Y-122679336D01*
X151801712Y-122666710D01*
X151795418Y-122653403D01*
X151790459Y-122639543D01*
X151786882Y-122625264D01*
X151784722Y-122610703D01*
X151784000Y-122596000D01*
X151784000Y-122296000D01*
X151784722Y-122281297D01*
X151786882Y-122266736D01*
X151790459Y-122252457D01*
X151795418Y-122238597D01*
X151801712Y-122225290D01*
X151809280Y-122212664D01*
X151818048Y-122200841D01*
X151827934Y-122189934D01*
X151838841Y-122180048D01*
X151850664Y-122171280D01*
X151863290Y-122163712D01*
X151876597Y-122157418D01*
X151890457Y-122152459D01*
X151904736Y-122148882D01*
X151919297Y-122146722D01*
X151934000Y-122146000D01*
X153584000Y-122146000D01*
X153598703Y-122146722D01*
G37*
G36*
X153598703Y-123416722D02*
G01*
X153613264Y-123418882D01*
X153627543Y-123422459D01*
X153641403Y-123427418D01*
X153654710Y-123433712D01*
X153667336Y-123441280D01*
X153679159Y-123450048D01*
X153690066Y-123459934D01*
X153699952Y-123470841D01*
X153708720Y-123482664D01*
X153716288Y-123495290D01*
X153722582Y-123508597D01*
X153727541Y-123522457D01*
X153731118Y-123536736D01*
X153733278Y-123551297D01*
X153734000Y-123566000D01*
X153734000Y-123866000D01*
X153733278Y-123880703D01*
X153731118Y-123895264D01*
X153727541Y-123909543D01*
X153722582Y-123923403D01*
X153716288Y-123936710D01*
X153708720Y-123949336D01*
X153699952Y-123961159D01*
X153690066Y-123972066D01*
X153679159Y-123981952D01*
X153667336Y-123990720D01*
X153654710Y-123998288D01*
X153641403Y-124004582D01*
X153627543Y-124009541D01*
X153613264Y-124013118D01*
X153598703Y-124015278D01*
X153584000Y-124016000D01*
X151934000Y-124016000D01*
X151919297Y-124015278D01*
X151904736Y-124013118D01*
X151890457Y-124009541D01*
X151876597Y-124004582D01*
X151863290Y-123998288D01*
X151850664Y-123990720D01*
X151838841Y-123981952D01*
X151827934Y-123972066D01*
X151818048Y-123961159D01*
X151809280Y-123949336D01*
X151801712Y-123936710D01*
X151795418Y-123923403D01*
X151790459Y-123909543D01*
X151786882Y-123895264D01*
X151784722Y-123880703D01*
X151784000Y-123866000D01*
X151784000Y-123566000D01*
X151784722Y-123551297D01*
X151786882Y-123536736D01*
X151790459Y-123522457D01*
X151795418Y-123508597D01*
X151801712Y-123495290D01*
X151809280Y-123482664D01*
X151818048Y-123470841D01*
X151827934Y-123459934D01*
X151838841Y-123450048D01*
X151850664Y-123441280D01*
X151863290Y-123433712D01*
X151876597Y-123427418D01*
X151890457Y-123422459D01*
X151904736Y-123418882D01*
X151919297Y-123416722D01*
X151934000Y-123416000D01*
X153584000Y-123416000D01*
X153598703Y-123416722D01*
G37*
G36*
X153598703Y-124686722D02*
G01*
X153613264Y-124688882D01*
X153627543Y-124692459D01*
X153641403Y-124697418D01*
X153654710Y-124703712D01*
X153667336Y-124711280D01*
X153679159Y-124720048D01*
X153690066Y-124729934D01*
X153699952Y-124740841D01*
X153708720Y-124752664D01*
X153716288Y-124765290D01*
X153722582Y-124778597D01*
X153727541Y-124792457D01*
X153731118Y-124806736D01*
X153733278Y-124821297D01*
X153734000Y-124836000D01*
X153734000Y-125136000D01*
X153733278Y-125150703D01*
X153731118Y-125165264D01*
X153727541Y-125179543D01*
X153722582Y-125193403D01*
X153716288Y-125206710D01*
X153708720Y-125219336D01*
X153699952Y-125231159D01*
X153690066Y-125242066D01*
X153679159Y-125251952D01*
X153667336Y-125260720D01*
X153654710Y-125268288D01*
X153641403Y-125274582D01*
X153627543Y-125279541D01*
X153613264Y-125283118D01*
X153598703Y-125285278D01*
X153584000Y-125286000D01*
X151934000Y-125286000D01*
X151919297Y-125285278D01*
X151904736Y-125283118D01*
X151890457Y-125279541D01*
X151876597Y-125274582D01*
X151863290Y-125268288D01*
X151850664Y-125260720D01*
X151838841Y-125251952D01*
X151827934Y-125242066D01*
X151818048Y-125231159D01*
X151809280Y-125219336D01*
X151801712Y-125206710D01*
X151795418Y-125193403D01*
X151790459Y-125179543D01*
X151786882Y-125165264D01*
X151784722Y-125150703D01*
X151784000Y-125136000D01*
X151784000Y-124836000D01*
X151784722Y-124821297D01*
X151786882Y-124806736D01*
X151790459Y-124792457D01*
X151795418Y-124778597D01*
X151801712Y-124765290D01*
X151809280Y-124752664D01*
X151818048Y-124740841D01*
X151827934Y-124729934D01*
X151838841Y-124720048D01*
X151850664Y-124711280D01*
X151863290Y-124703712D01*
X151876597Y-124697418D01*
X151890457Y-124692459D01*
X151904736Y-124688882D01*
X151919297Y-124686722D01*
X151934000Y-124686000D01*
X153584000Y-124686000D01*
X153598703Y-124686722D01*
G37*
G36*
X173678191Y-94145053D02*
G01*
X173699426Y-94148203D01*
X173720250Y-94153419D01*
X173740462Y-94160651D01*
X173759868Y-94169830D01*
X173778281Y-94180866D01*
X173795524Y-94193654D01*
X173811430Y-94208070D01*
X173825846Y-94223976D01*
X173838634Y-94241219D01*
X173849670Y-94259632D01*
X173858849Y-94279038D01*
X173866081Y-94299250D01*
X173871297Y-94320074D01*
X173874447Y-94341309D01*
X173875500Y-94362750D01*
X173875500Y-94875250D01*
X173874447Y-94896691D01*
X173871297Y-94917926D01*
X173866081Y-94938750D01*
X173858849Y-94958962D01*
X173849670Y-94978368D01*
X173838634Y-94996781D01*
X173825846Y-95014024D01*
X173811430Y-95029930D01*
X173795524Y-95044346D01*
X173778281Y-95057134D01*
X173759868Y-95068170D01*
X173740462Y-95077349D01*
X173720250Y-95084581D01*
X173699426Y-95089797D01*
X173678191Y-95092947D01*
X173656750Y-95094000D01*
X173219250Y-95094000D01*
X173197809Y-95092947D01*
X173176574Y-95089797D01*
X173155750Y-95084581D01*
X173135538Y-95077349D01*
X173116132Y-95068170D01*
X173097719Y-95057134D01*
X173080476Y-95044346D01*
X173064570Y-95029930D01*
X173050154Y-95014024D01*
X173037366Y-94996781D01*
X173026330Y-94978368D01*
X173017151Y-94958962D01*
X173009919Y-94938750D01*
X173004703Y-94917926D01*
X173001553Y-94896691D01*
X173000500Y-94875250D01*
X173000500Y-94362750D01*
X173001553Y-94341309D01*
X173004703Y-94320074D01*
X173009919Y-94299250D01*
X173017151Y-94279038D01*
X173026330Y-94259632D01*
X173037366Y-94241219D01*
X173050154Y-94223976D01*
X173064570Y-94208070D01*
X173080476Y-94193654D01*
X173097719Y-94180866D01*
X173116132Y-94169830D01*
X173135538Y-94160651D01*
X173155750Y-94153419D01*
X173176574Y-94148203D01*
X173197809Y-94145053D01*
X173219250Y-94144000D01*
X173656750Y-94144000D01*
X173678191Y-94145053D01*
G37*
G36*
X175253191Y-94145053D02*
G01*
X175274426Y-94148203D01*
X175295250Y-94153419D01*
X175315462Y-94160651D01*
X175334868Y-94169830D01*
X175353281Y-94180866D01*
X175370524Y-94193654D01*
X175386430Y-94208070D01*
X175400846Y-94223976D01*
X175413634Y-94241219D01*
X175424670Y-94259632D01*
X175433849Y-94279038D01*
X175441081Y-94299250D01*
X175446297Y-94320074D01*
X175449447Y-94341309D01*
X175450500Y-94362750D01*
X175450500Y-94875250D01*
X175449447Y-94896691D01*
X175446297Y-94917926D01*
X175441081Y-94938750D01*
X175433849Y-94958962D01*
X175424670Y-94978368D01*
X175413634Y-94996781D01*
X175400846Y-95014024D01*
X175386430Y-95029930D01*
X175370524Y-95044346D01*
X175353281Y-95057134D01*
X175334868Y-95068170D01*
X175315462Y-95077349D01*
X175295250Y-95084581D01*
X175274426Y-95089797D01*
X175253191Y-95092947D01*
X175231750Y-95094000D01*
X174794250Y-95094000D01*
X174772809Y-95092947D01*
X174751574Y-95089797D01*
X174730750Y-95084581D01*
X174710538Y-95077349D01*
X174691132Y-95068170D01*
X174672719Y-95057134D01*
X174655476Y-95044346D01*
X174639570Y-95029930D01*
X174625154Y-95014024D01*
X174612366Y-94996781D01*
X174601330Y-94978368D01*
X174592151Y-94958962D01*
X174584919Y-94938750D01*
X174579703Y-94917926D01*
X174576553Y-94896691D01*
X174575500Y-94875250D01*
X174575500Y-94362750D01*
X174576553Y-94341309D01*
X174579703Y-94320074D01*
X174584919Y-94299250D01*
X174592151Y-94279038D01*
X174601330Y-94259632D01*
X174612366Y-94241219D01*
X174625154Y-94223976D01*
X174639570Y-94208070D01*
X174655476Y-94193654D01*
X174672719Y-94180866D01*
X174691132Y-94169830D01*
X174710538Y-94160651D01*
X174730750Y-94153419D01*
X174751574Y-94148203D01*
X174772809Y-94145053D01*
X174794250Y-94144000D01*
X175231750Y-94144000D01*
X175253191Y-94145053D01*
G37*
G36*
X160880691Y-97932553D02*
G01*
X160901926Y-97935703D01*
X160922750Y-97940919D01*
X160942962Y-97948151D01*
X160962368Y-97957330D01*
X160980781Y-97968366D01*
X160998024Y-97981154D01*
X161013930Y-97995570D01*
X161028346Y-98011476D01*
X161041134Y-98028719D01*
X161052170Y-98047132D01*
X161061349Y-98066538D01*
X161068581Y-98086750D01*
X161073797Y-98107574D01*
X161076947Y-98128809D01*
X161078000Y-98150250D01*
X161078000Y-98587750D01*
X161076947Y-98609191D01*
X161073797Y-98630426D01*
X161068581Y-98651250D01*
X161061349Y-98671462D01*
X161052170Y-98690868D01*
X161041134Y-98709281D01*
X161028346Y-98726524D01*
X161013930Y-98742430D01*
X160998024Y-98756846D01*
X160980781Y-98769634D01*
X160962368Y-98780670D01*
X160942962Y-98789849D01*
X160922750Y-98797081D01*
X160901926Y-98802297D01*
X160880691Y-98805447D01*
X160859250Y-98806500D01*
X160346750Y-98806500D01*
X160325309Y-98805447D01*
X160304074Y-98802297D01*
X160283250Y-98797081D01*
X160263038Y-98789849D01*
X160243632Y-98780670D01*
X160225219Y-98769634D01*
X160207976Y-98756846D01*
X160192070Y-98742430D01*
X160177654Y-98726524D01*
X160164866Y-98709281D01*
X160153830Y-98690868D01*
X160144651Y-98671462D01*
X160137419Y-98651250D01*
X160132203Y-98630426D01*
X160129053Y-98609191D01*
X160128000Y-98587750D01*
X160128000Y-98150250D01*
X160129053Y-98128809D01*
X160132203Y-98107574D01*
X160137419Y-98086750D01*
X160144651Y-98066538D01*
X160153830Y-98047132D01*
X160164866Y-98028719D01*
X160177654Y-98011476D01*
X160192070Y-97995570D01*
X160207976Y-97981154D01*
X160225219Y-97968366D01*
X160243632Y-97957330D01*
X160263038Y-97948151D01*
X160283250Y-97940919D01*
X160304074Y-97935703D01*
X160325309Y-97932553D01*
X160346750Y-97931500D01*
X160859250Y-97931500D01*
X160880691Y-97932553D01*
G37*
G36*
X160880691Y-99507553D02*
G01*
X160901926Y-99510703D01*
X160922750Y-99515919D01*
X160942962Y-99523151D01*
X160962368Y-99532330D01*
X160980781Y-99543366D01*
X160998024Y-99556154D01*
X161013930Y-99570570D01*
X161028346Y-99586476D01*
X161041134Y-99603719D01*
X161052170Y-99622132D01*
X161061349Y-99641538D01*
X161068581Y-99661750D01*
X161073797Y-99682574D01*
X161076947Y-99703809D01*
X161078000Y-99725250D01*
X161078000Y-100162750D01*
X161076947Y-100184191D01*
X161073797Y-100205426D01*
X161068581Y-100226250D01*
X161061349Y-100246462D01*
X161052170Y-100265868D01*
X161041134Y-100284281D01*
X161028346Y-100301524D01*
X161013930Y-100317430D01*
X160998024Y-100331846D01*
X160980781Y-100344634D01*
X160962368Y-100355670D01*
X160942962Y-100364849D01*
X160922750Y-100372081D01*
X160901926Y-100377297D01*
X160880691Y-100380447D01*
X160859250Y-100381500D01*
X160346750Y-100381500D01*
X160325309Y-100380447D01*
X160304074Y-100377297D01*
X160283250Y-100372081D01*
X160263038Y-100364849D01*
X160243632Y-100355670D01*
X160225219Y-100344634D01*
X160207976Y-100331846D01*
X160192070Y-100317430D01*
X160177654Y-100301524D01*
X160164866Y-100284281D01*
X160153830Y-100265868D01*
X160144651Y-100246462D01*
X160137419Y-100226250D01*
X160132203Y-100205426D01*
X160129053Y-100184191D01*
X160128000Y-100162750D01*
X160128000Y-99725250D01*
X160129053Y-99703809D01*
X160132203Y-99682574D01*
X160137419Y-99661750D01*
X160144651Y-99641538D01*
X160153830Y-99622132D01*
X160164866Y-99603719D01*
X160177654Y-99586476D01*
X160192070Y-99570570D01*
X160207976Y-99556154D01*
X160225219Y-99543366D01*
X160243632Y-99532330D01*
X160263038Y-99523151D01*
X160283250Y-99515919D01*
X160304074Y-99510703D01*
X160325309Y-99507553D01*
X160346750Y-99506500D01*
X160859250Y-99506500D01*
X160880691Y-99507553D01*
G37*
M02*
