G04 #@! TF.GenerationSoftware,KiCad,Pcbnew,(5.1.5-0)*
G04 #@! TF.CreationDate,2020-12-17T20:40:07-08:00*
G04 #@! TF.ProjectId,Luminometer_ADC_concept,4c756d69-6e6f-46d6-9574-65725f414443,rev?*
G04 #@! TF.SameCoordinates,Original*
G04 #@! TF.FileFunction,Paste,Bot*
G04 #@! TF.FilePolarity,Positive*
%FSLAX46Y46*%
G04 Gerber Fmt 4.6, Leading zero omitted, Abs format (unit mm)*
G04 Created by KiCad (PCBNEW (5.1.5-0)) date 2020-12-17 20:40:07*
%MOMM*%
%LPD*%
G04 APERTURE LIST*
%ADD10C,0.100000*%
G04 APERTURE END LIST*
D10*
G36*
X134201351Y-114355747D02*
G01*
X134215912Y-114357907D01*
X134230191Y-114361484D01*
X134244051Y-114366443D01*
X134257358Y-114372737D01*
X134269984Y-114380305D01*
X134281807Y-114389073D01*
X134292714Y-114398959D01*
X134858400Y-114964645D01*
X134868286Y-114975552D01*
X134877054Y-114987375D01*
X134884622Y-115000001D01*
X134890916Y-115013308D01*
X134895875Y-115027168D01*
X134899452Y-115041447D01*
X134901612Y-115056008D01*
X134902334Y-115070711D01*
X134901612Y-115085414D01*
X134899452Y-115099975D01*
X134895875Y-115114254D01*
X134890916Y-115128114D01*
X134884622Y-115141421D01*
X134877054Y-115154047D01*
X134868286Y-115165870D01*
X134858400Y-115176777D01*
X134646268Y-115388909D01*
X134635361Y-115398795D01*
X134623538Y-115407563D01*
X134610912Y-115415131D01*
X134597605Y-115421425D01*
X134583745Y-115426384D01*
X134569466Y-115429961D01*
X134554905Y-115432121D01*
X134540202Y-115432843D01*
X134525499Y-115432121D01*
X134510938Y-115429961D01*
X134496659Y-115426384D01*
X134482799Y-115421425D01*
X134469492Y-115415131D01*
X134456866Y-115407563D01*
X134445043Y-115398795D01*
X134434136Y-115388909D01*
X133868450Y-114823223D01*
X133858564Y-114812316D01*
X133849796Y-114800493D01*
X133842228Y-114787867D01*
X133835934Y-114774560D01*
X133830975Y-114760700D01*
X133827398Y-114746421D01*
X133825238Y-114731860D01*
X133824516Y-114717157D01*
X133825238Y-114702454D01*
X133827398Y-114687893D01*
X133830975Y-114673614D01*
X133835934Y-114659754D01*
X133842228Y-114646447D01*
X133849796Y-114633821D01*
X133858564Y-114621998D01*
X133868450Y-114611091D01*
X134080582Y-114398959D01*
X134091489Y-114389073D01*
X134103312Y-114380305D01*
X134115938Y-114372737D01*
X134129245Y-114366443D01*
X134143105Y-114361484D01*
X134157384Y-114357907D01*
X134171945Y-114355747D01*
X134186648Y-114355025D01*
X134201351Y-114355747D01*
G37*
G36*
X138585414Y-118598388D02*
G01*
X138599975Y-118600548D01*
X138614254Y-118604125D01*
X138628114Y-118609084D01*
X138641421Y-118615378D01*
X138654047Y-118622946D01*
X138665870Y-118631714D01*
X138676777Y-118641600D01*
X138888909Y-118853732D01*
X138898795Y-118864639D01*
X138907563Y-118876462D01*
X138915131Y-118889088D01*
X138921425Y-118902395D01*
X138926384Y-118916255D01*
X138929961Y-118930534D01*
X138932121Y-118945095D01*
X138932843Y-118959798D01*
X138932121Y-118974501D01*
X138929961Y-118989062D01*
X138926384Y-119003341D01*
X138921425Y-119017201D01*
X138915131Y-119030508D01*
X138907563Y-119043134D01*
X138898795Y-119054957D01*
X138888909Y-119065864D01*
X138323223Y-119631550D01*
X138312316Y-119641436D01*
X138300493Y-119650204D01*
X138287867Y-119657772D01*
X138274560Y-119664066D01*
X138260700Y-119669025D01*
X138246421Y-119672602D01*
X138231860Y-119674762D01*
X138217157Y-119675484D01*
X138202454Y-119674762D01*
X138187893Y-119672602D01*
X138173614Y-119669025D01*
X138159754Y-119664066D01*
X138146447Y-119657772D01*
X138133821Y-119650204D01*
X138121998Y-119641436D01*
X138111091Y-119631550D01*
X137898959Y-119419418D01*
X137889073Y-119408511D01*
X137880305Y-119396688D01*
X137872737Y-119384062D01*
X137866443Y-119370755D01*
X137861484Y-119356895D01*
X137857907Y-119342616D01*
X137855747Y-119328055D01*
X137855025Y-119313352D01*
X137855747Y-119298649D01*
X137857907Y-119284088D01*
X137861484Y-119269809D01*
X137866443Y-119255949D01*
X137872737Y-119242642D01*
X137880305Y-119230016D01*
X137889073Y-119218193D01*
X137898959Y-119207286D01*
X138464645Y-118641600D01*
X138475552Y-118631714D01*
X138487375Y-118622946D01*
X138500001Y-118615378D01*
X138513308Y-118609084D01*
X138527168Y-118604125D01*
X138541447Y-118600548D01*
X138556008Y-118598388D01*
X138570711Y-118597666D01*
X138585414Y-118598388D01*
G37*
G36*
X142474501Y-114567879D02*
G01*
X142489062Y-114570039D01*
X142503341Y-114573616D01*
X142517201Y-114578575D01*
X142530508Y-114584869D01*
X142543134Y-114592437D01*
X142554957Y-114601205D01*
X142565864Y-114611091D01*
X143131550Y-115176777D01*
X143141436Y-115187684D01*
X143150204Y-115199507D01*
X143157772Y-115212133D01*
X143164066Y-115225440D01*
X143169025Y-115239300D01*
X143172602Y-115253579D01*
X143174762Y-115268140D01*
X143175484Y-115282843D01*
X143174762Y-115297546D01*
X143172602Y-115312107D01*
X143169025Y-115326386D01*
X143164066Y-115340246D01*
X143157772Y-115353553D01*
X143150204Y-115366179D01*
X143141436Y-115378002D01*
X143131550Y-115388909D01*
X142919418Y-115601041D01*
X142908511Y-115610927D01*
X142896688Y-115619695D01*
X142884062Y-115627263D01*
X142870755Y-115633557D01*
X142856895Y-115638516D01*
X142842616Y-115642093D01*
X142828055Y-115644253D01*
X142813352Y-115644975D01*
X142798649Y-115644253D01*
X142784088Y-115642093D01*
X142769809Y-115638516D01*
X142755949Y-115633557D01*
X142742642Y-115627263D01*
X142730016Y-115619695D01*
X142718193Y-115610927D01*
X142707286Y-115601041D01*
X142141600Y-115035355D01*
X142131714Y-115024448D01*
X142122946Y-115012625D01*
X142115378Y-114999999D01*
X142109084Y-114986692D01*
X142104125Y-114972832D01*
X142100548Y-114958553D01*
X142098388Y-114943992D01*
X142097666Y-114929289D01*
X142098388Y-114914586D01*
X142100548Y-114900025D01*
X142104125Y-114885746D01*
X142109084Y-114871886D01*
X142115378Y-114858579D01*
X142122946Y-114845953D01*
X142131714Y-114834130D01*
X142141600Y-114823223D01*
X142353732Y-114611091D01*
X142364639Y-114601205D01*
X142376462Y-114592437D01*
X142389088Y-114584869D01*
X142402395Y-114578575D01*
X142416255Y-114573616D01*
X142430534Y-114570039D01*
X142445095Y-114567879D01*
X142459798Y-114567157D01*
X142474501Y-114567879D01*
G37*
G36*
X138797546Y-110325238D02*
G01*
X138812107Y-110327398D01*
X138826386Y-110330975D01*
X138840246Y-110335934D01*
X138853553Y-110342228D01*
X138866179Y-110349796D01*
X138878002Y-110358564D01*
X138888909Y-110368450D01*
X139101041Y-110580582D01*
X139110927Y-110591489D01*
X139119695Y-110603312D01*
X139127263Y-110615938D01*
X139133557Y-110629245D01*
X139138516Y-110643105D01*
X139142093Y-110657384D01*
X139144253Y-110671945D01*
X139144975Y-110686648D01*
X139144253Y-110701351D01*
X139142093Y-110715912D01*
X139138516Y-110730191D01*
X139133557Y-110744051D01*
X139127263Y-110757358D01*
X139119695Y-110769984D01*
X139110927Y-110781807D01*
X139101041Y-110792714D01*
X138535355Y-111358400D01*
X138524448Y-111368286D01*
X138512625Y-111377054D01*
X138499999Y-111384622D01*
X138486692Y-111390916D01*
X138472832Y-111395875D01*
X138458553Y-111399452D01*
X138443992Y-111401612D01*
X138429289Y-111402334D01*
X138414586Y-111401612D01*
X138400025Y-111399452D01*
X138385746Y-111395875D01*
X138371886Y-111390916D01*
X138358579Y-111384622D01*
X138345953Y-111377054D01*
X138334130Y-111368286D01*
X138323223Y-111358400D01*
X138111091Y-111146268D01*
X138101205Y-111135361D01*
X138092437Y-111123538D01*
X138084869Y-111110912D01*
X138078575Y-111097605D01*
X138073616Y-111083745D01*
X138070039Y-111069466D01*
X138067879Y-111054905D01*
X138067157Y-111040202D01*
X138067879Y-111025499D01*
X138070039Y-111010938D01*
X138073616Y-110996659D01*
X138078575Y-110982799D01*
X138084869Y-110969492D01*
X138092437Y-110956866D01*
X138101205Y-110945043D01*
X138111091Y-110934136D01*
X138676777Y-110368450D01*
X138687684Y-110358564D01*
X138699507Y-110349796D01*
X138712133Y-110342228D01*
X138725440Y-110335934D01*
X138739300Y-110330975D01*
X138753579Y-110327398D01*
X138768140Y-110325238D01*
X138782843Y-110324516D01*
X138797546Y-110325238D01*
G37*
G36*
X152201351Y-114355747D02*
G01*
X152215912Y-114357907D01*
X152230191Y-114361484D01*
X152244051Y-114366443D01*
X152257358Y-114372737D01*
X152269984Y-114380305D01*
X152281807Y-114389073D01*
X152292714Y-114398959D01*
X152858400Y-114964645D01*
X152868286Y-114975552D01*
X152877054Y-114987375D01*
X152884622Y-115000001D01*
X152890916Y-115013308D01*
X152895875Y-115027168D01*
X152899452Y-115041447D01*
X152901612Y-115056008D01*
X152902334Y-115070711D01*
X152901612Y-115085414D01*
X152899452Y-115099975D01*
X152895875Y-115114254D01*
X152890916Y-115128114D01*
X152884622Y-115141421D01*
X152877054Y-115154047D01*
X152868286Y-115165870D01*
X152858400Y-115176777D01*
X152646268Y-115388909D01*
X152635361Y-115398795D01*
X152623538Y-115407563D01*
X152610912Y-115415131D01*
X152597605Y-115421425D01*
X152583745Y-115426384D01*
X152569466Y-115429961D01*
X152554905Y-115432121D01*
X152540202Y-115432843D01*
X152525499Y-115432121D01*
X152510938Y-115429961D01*
X152496659Y-115426384D01*
X152482799Y-115421425D01*
X152469492Y-115415131D01*
X152456866Y-115407563D01*
X152445043Y-115398795D01*
X152434136Y-115388909D01*
X151868450Y-114823223D01*
X151858564Y-114812316D01*
X151849796Y-114800493D01*
X151842228Y-114787867D01*
X151835934Y-114774560D01*
X151830975Y-114760700D01*
X151827398Y-114746421D01*
X151825238Y-114731860D01*
X151824516Y-114717157D01*
X151825238Y-114702454D01*
X151827398Y-114687893D01*
X151830975Y-114673614D01*
X151835934Y-114659754D01*
X151842228Y-114646447D01*
X151849796Y-114633821D01*
X151858564Y-114621998D01*
X151868450Y-114611091D01*
X152080582Y-114398959D01*
X152091489Y-114389073D01*
X152103312Y-114380305D01*
X152115938Y-114372737D01*
X152129245Y-114366443D01*
X152143105Y-114361484D01*
X152157384Y-114357907D01*
X152171945Y-114355747D01*
X152186648Y-114355025D01*
X152201351Y-114355747D01*
G37*
G36*
X156585414Y-118598388D02*
G01*
X156599975Y-118600548D01*
X156614254Y-118604125D01*
X156628114Y-118609084D01*
X156641421Y-118615378D01*
X156654047Y-118622946D01*
X156665870Y-118631714D01*
X156676777Y-118641600D01*
X156888909Y-118853732D01*
X156898795Y-118864639D01*
X156907563Y-118876462D01*
X156915131Y-118889088D01*
X156921425Y-118902395D01*
X156926384Y-118916255D01*
X156929961Y-118930534D01*
X156932121Y-118945095D01*
X156932843Y-118959798D01*
X156932121Y-118974501D01*
X156929961Y-118989062D01*
X156926384Y-119003341D01*
X156921425Y-119017201D01*
X156915131Y-119030508D01*
X156907563Y-119043134D01*
X156898795Y-119054957D01*
X156888909Y-119065864D01*
X156323223Y-119631550D01*
X156312316Y-119641436D01*
X156300493Y-119650204D01*
X156287867Y-119657772D01*
X156274560Y-119664066D01*
X156260700Y-119669025D01*
X156246421Y-119672602D01*
X156231860Y-119674762D01*
X156217157Y-119675484D01*
X156202454Y-119674762D01*
X156187893Y-119672602D01*
X156173614Y-119669025D01*
X156159754Y-119664066D01*
X156146447Y-119657772D01*
X156133821Y-119650204D01*
X156121998Y-119641436D01*
X156111091Y-119631550D01*
X155898959Y-119419418D01*
X155889073Y-119408511D01*
X155880305Y-119396688D01*
X155872737Y-119384062D01*
X155866443Y-119370755D01*
X155861484Y-119356895D01*
X155857907Y-119342616D01*
X155855747Y-119328055D01*
X155855025Y-119313352D01*
X155855747Y-119298649D01*
X155857907Y-119284088D01*
X155861484Y-119269809D01*
X155866443Y-119255949D01*
X155872737Y-119242642D01*
X155880305Y-119230016D01*
X155889073Y-119218193D01*
X155898959Y-119207286D01*
X156464645Y-118641600D01*
X156475552Y-118631714D01*
X156487375Y-118622946D01*
X156500001Y-118615378D01*
X156513308Y-118609084D01*
X156527168Y-118604125D01*
X156541447Y-118600548D01*
X156556008Y-118598388D01*
X156570711Y-118597666D01*
X156585414Y-118598388D01*
G37*
G36*
X160474501Y-114567879D02*
G01*
X160489062Y-114570039D01*
X160503341Y-114573616D01*
X160517201Y-114578575D01*
X160530508Y-114584869D01*
X160543134Y-114592437D01*
X160554957Y-114601205D01*
X160565864Y-114611091D01*
X161131550Y-115176777D01*
X161141436Y-115187684D01*
X161150204Y-115199507D01*
X161157772Y-115212133D01*
X161164066Y-115225440D01*
X161169025Y-115239300D01*
X161172602Y-115253579D01*
X161174762Y-115268140D01*
X161175484Y-115282843D01*
X161174762Y-115297546D01*
X161172602Y-115312107D01*
X161169025Y-115326386D01*
X161164066Y-115340246D01*
X161157772Y-115353553D01*
X161150204Y-115366179D01*
X161141436Y-115378002D01*
X161131550Y-115388909D01*
X160919418Y-115601041D01*
X160908511Y-115610927D01*
X160896688Y-115619695D01*
X160884062Y-115627263D01*
X160870755Y-115633557D01*
X160856895Y-115638516D01*
X160842616Y-115642093D01*
X160828055Y-115644253D01*
X160813352Y-115644975D01*
X160798649Y-115644253D01*
X160784088Y-115642093D01*
X160769809Y-115638516D01*
X160755949Y-115633557D01*
X160742642Y-115627263D01*
X160730016Y-115619695D01*
X160718193Y-115610927D01*
X160707286Y-115601041D01*
X160141600Y-115035355D01*
X160131714Y-115024448D01*
X160122946Y-115012625D01*
X160115378Y-114999999D01*
X160109084Y-114986692D01*
X160104125Y-114972832D01*
X160100548Y-114958553D01*
X160098388Y-114943992D01*
X160097666Y-114929289D01*
X160098388Y-114914586D01*
X160100548Y-114900025D01*
X160104125Y-114885746D01*
X160109084Y-114871886D01*
X160115378Y-114858579D01*
X160122946Y-114845953D01*
X160131714Y-114834130D01*
X160141600Y-114823223D01*
X160353732Y-114611091D01*
X160364639Y-114601205D01*
X160376462Y-114592437D01*
X160389088Y-114584869D01*
X160402395Y-114578575D01*
X160416255Y-114573616D01*
X160430534Y-114570039D01*
X160445095Y-114567879D01*
X160459798Y-114567157D01*
X160474501Y-114567879D01*
G37*
G36*
X156797546Y-110325238D02*
G01*
X156812107Y-110327398D01*
X156826386Y-110330975D01*
X156840246Y-110335934D01*
X156853553Y-110342228D01*
X156866179Y-110349796D01*
X156878002Y-110358564D01*
X156888909Y-110368450D01*
X157101041Y-110580582D01*
X157110927Y-110591489D01*
X157119695Y-110603312D01*
X157127263Y-110615938D01*
X157133557Y-110629245D01*
X157138516Y-110643105D01*
X157142093Y-110657384D01*
X157144253Y-110671945D01*
X157144975Y-110686648D01*
X157144253Y-110701351D01*
X157142093Y-110715912D01*
X157138516Y-110730191D01*
X157133557Y-110744051D01*
X157127263Y-110757358D01*
X157119695Y-110769984D01*
X157110927Y-110781807D01*
X157101041Y-110792714D01*
X156535355Y-111358400D01*
X156524448Y-111368286D01*
X156512625Y-111377054D01*
X156499999Y-111384622D01*
X156486692Y-111390916D01*
X156472832Y-111395875D01*
X156458553Y-111399452D01*
X156443992Y-111401612D01*
X156429289Y-111402334D01*
X156414586Y-111401612D01*
X156400025Y-111399452D01*
X156385746Y-111395875D01*
X156371886Y-111390916D01*
X156358579Y-111384622D01*
X156345953Y-111377054D01*
X156334130Y-111368286D01*
X156323223Y-111358400D01*
X156111091Y-111146268D01*
X156101205Y-111135361D01*
X156092437Y-111123538D01*
X156084869Y-111110912D01*
X156078575Y-111097605D01*
X156073616Y-111083745D01*
X156070039Y-111069466D01*
X156067879Y-111054905D01*
X156067157Y-111040202D01*
X156067879Y-111025499D01*
X156070039Y-111010938D01*
X156073616Y-110996659D01*
X156078575Y-110982799D01*
X156084869Y-110969492D01*
X156092437Y-110956866D01*
X156101205Y-110945043D01*
X156111091Y-110934136D01*
X156676777Y-110368450D01*
X156687684Y-110358564D01*
X156699507Y-110349796D01*
X156712133Y-110342228D01*
X156725440Y-110335934D01*
X156739300Y-110330975D01*
X156753579Y-110327398D01*
X156768140Y-110325238D01*
X156782843Y-110324516D01*
X156797546Y-110325238D01*
G37*
M02*
