G04 #@! TF.GenerationSoftware,KiCad,Pcbnew,(5.1.5-0)*
G04 #@! TF.CreationDate,2020-09-28T20:09:41-07:00*
G04 #@! TF.ProjectId,Luminometer_ADC,4c756d69-6e6f-46d6-9574-65725f414443,rev?*
G04 #@! TF.SameCoordinates,Original*
G04 #@! TF.FileFunction,Copper,L4,Bot*
G04 #@! TF.FilePolarity,Positive*
%FSLAX46Y46*%
G04 Gerber Fmt 4.6, Leading zero omitted, Abs format (unit mm)*
G04 Created by KiCad (PCBNEW (5.1.5-0)) date 2020-09-28 20:09:41*
%MOMM*%
%LPD*%
G04 APERTURE LIST*
%ADD10C,1.350000*%
%ADD11C,1.500000*%
%ADD12C,6.400000*%
%ADD13C,0.100000*%
%ADD14C,0.800000*%
%ADD15C,2.200000*%
%ADD16C,1.000000*%
%ADD17C,0.500000*%
G04 APERTURE END LIST*
D10*
X160898000Y-88869000D03*
X172768000Y-88869000D03*
X172768000Y-83369000D03*
X160898000Y-83369000D03*
D11*
X125500000Y-106000000D03*
D12*
X175000000Y-125000000D03*
X120000000Y-125000000D03*
G04 #@! TA.AperFunction,SMDPad,CuDef*
D13*
G36*
X133742546Y-108817238D02*
G01*
X133757107Y-108819398D01*
X133771386Y-108822975D01*
X133785246Y-108827934D01*
X133798553Y-108834228D01*
X133811179Y-108841796D01*
X133823002Y-108850564D01*
X133833909Y-108860450D01*
X134046041Y-109072582D01*
X134055927Y-109083489D01*
X134064695Y-109095312D01*
X134072263Y-109107938D01*
X134078557Y-109121245D01*
X134083516Y-109135105D01*
X134087093Y-109149384D01*
X134089253Y-109163945D01*
X134089975Y-109178648D01*
X134089253Y-109193351D01*
X134087093Y-109207912D01*
X134083516Y-109222191D01*
X134078557Y-109236051D01*
X134072263Y-109249358D01*
X134064695Y-109261984D01*
X134055927Y-109273807D01*
X134046041Y-109284714D01*
X133480355Y-109850400D01*
X133469448Y-109860286D01*
X133457625Y-109869054D01*
X133444999Y-109876622D01*
X133431692Y-109882916D01*
X133417832Y-109887875D01*
X133403553Y-109891452D01*
X133388992Y-109893612D01*
X133374289Y-109894334D01*
X133359586Y-109893612D01*
X133345025Y-109891452D01*
X133330746Y-109887875D01*
X133316886Y-109882916D01*
X133303579Y-109876622D01*
X133290953Y-109869054D01*
X133279130Y-109860286D01*
X133268223Y-109850400D01*
X133056091Y-109638268D01*
X133046205Y-109627361D01*
X133037437Y-109615538D01*
X133029869Y-109602912D01*
X133023575Y-109589605D01*
X133018616Y-109575745D01*
X133015039Y-109561466D01*
X133012879Y-109546905D01*
X133012157Y-109532202D01*
X133012879Y-109517499D01*
X133015039Y-109502938D01*
X133018616Y-109488659D01*
X133023575Y-109474799D01*
X133029869Y-109461492D01*
X133037437Y-109448866D01*
X133046205Y-109437043D01*
X133056091Y-109426136D01*
X133621777Y-108860450D01*
X133632684Y-108850564D01*
X133644507Y-108841796D01*
X133657133Y-108834228D01*
X133670440Y-108827934D01*
X133684300Y-108822975D01*
X133698579Y-108819398D01*
X133713140Y-108817238D01*
X133727843Y-108816516D01*
X133742546Y-108817238D01*
G37*
G04 #@! TD.AperFunction*
G04 #@! TA.AperFunction,SMDPad,CuDef*
G36*
X137419501Y-113059879D02*
G01*
X137434062Y-113062039D01*
X137448341Y-113065616D01*
X137462201Y-113070575D01*
X137475508Y-113076869D01*
X137488134Y-113084437D01*
X137499957Y-113093205D01*
X137510864Y-113103091D01*
X138076550Y-113668777D01*
X138086436Y-113679684D01*
X138095204Y-113691507D01*
X138102772Y-113704133D01*
X138109066Y-113717440D01*
X138114025Y-113731300D01*
X138117602Y-113745579D01*
X138119762Y-113760140D01*
X138120484Y-113774843D01*
X138119762Y-113789546D01*
X138117602Y-113804107D01*
X138114025Y-113818386D01*
X138109066Y-113832246D01*
X138102772Y-113845553D01*
X138095204Y-113858179D01*
X138086436Y-113870002D01*
X138076550Y-113880909D01*
X137864418Y-114093041D01*
X137853511Y-114102927D01*
X137841688Y-114111695D01*
X137829062Y-114119263D01*
X137815755Y-114125557D01*
X137801895Y-114130516D01*
X137787616Y-114134093D01*
X137773055Y-114136253D01*
X137758352Y-114136975D01*
X137743649Y-114136253D01*
X137729088Y-114134093D01*
X137714809Y-114130516D01*
X137700949Y-114125557D01*
X137687642Y-114119263D01*
X137675016Y-114111695D01*
X137663193Y-114102927D01*
X137652286Y-114093041D01*
X137086600Y-113527355D01*
X137076714Y-113516448D01*
X137067946Y-113504625D01*
X137060378Y-113491999D01*
X137054084Y-113478692D01*
X137049125Y-113464832D01*
X137045548Y-113450553D01*
X137043388Y-113435992D01*
X137042666Y-113421289D01*
X137043388Y-113406586D01*
X137045548Y-113392025D01*
X137049125Y-113377746D01*
X137054084Y-113363886D01*
X137060378Y-113350579D01*
X137067946Y-113337953D01*
X137076714Y-113326130D01*
X137086600Y-113315223D01*
X137298732Y-113103091D01*
X137309639Y-113093205D01*
X137321462Y-113084437D01*
X137334088Y-113076869D01*
X137347395Y-113070575D01*
X137361255Y-113065616D01*
X137375534Y-113062039D01*
X137390095Y-113059879D01*
X137404798Y-113059157D01*
X137419501Y-113059879D01*
G37*
G04 #@! TD.AperFunction*
G04 #@! TA.AperFunction,SMDPad,CuDef*
G36*
X133530414Y-117090388D02*
G01*
X133544975Y-117092548D01*
X133559254Y-117096125D01*
X133573114Y-117101084D01*
X133586421Y-117107378D01*
X133599047Y-117114946D01*
X133610870Y-117123714D01*
X133621777Y-117133600D01*
X133833909Y-117345732D01*
X133843795Y-117356639D01*
X133852563Y-117368462D01*
X133860131Y-117381088D01*
X133866425Y-117394395D01*
X133871384Y-117408255D01*
X133874961Y-117422534D01*
X133877121Y-117437095D01*
X133877843Y-117451798D01*
X133877121Y-117466501D01*
X133874961Y-117481062D01*
X133871384Y-117495341D01*
X133866425Y-117509201D01*
X133860131Y-117522508D01*
X133852563Y-117535134D01*
X133843795Y-117546957D01*
X133833909Y-117557864D01*
X133268223Y-118123550D01*
X133257316Y-118133436D01*
X133245493Y-118142204D01*
X133232867Y-118149772D01*
X133219560Y-118156066D01*
X133205700Y-118161025D01*
X133191421Y-118164602D01*
X133176860Y-118166762D01*
X133162157Y-118167484D01*
X133147454Y-118166762D01*
X133132893Y-118164602D01*
X133118614Y-118161025D01*
X133104754Y-118156066D01*
X133091447Y-118149772D01*
X133078821Y-118142204D01*
X133066998Y-118133436D01*
X133056091Y-118123550D01*
X132843959Y-117911418D01*
X132834073Y-117900511D01*
X132825305Y-117888688D01*
X132817737Y-117876062D01*
X132811443Y-117862755D01*
X132806484Y-117848895D01*
X132802907Y-117834616D01*
X132800747Y-117820055D01*
X132800025Y-117805352D01*
X132800747Y-117790649D01*
X132802907Y-117776088D01*
X132806484Y-117761809D01*
X132811443Y-117747949D01*
X132817737Y-117734642D01*
X132825305Y-117722016D01*
X132834073Y-117710193D01*
X132843959Y-117699286D01*
X133409645Y-117133600D01*
X133420552Y-117123714D01*
X133432375Y-117114946D01*
X133445001Y-117107378D01*
X133458308Y-117101084D01*
X133472168Y-117096125D01*
X133486447Y-117092548D01*
X133501008Y-117090388D01*
X133515711Y-117089666D01*
X133530414Y-117090388D01*
G37*
G04 #@! TD.AperFunction*
G04 #@! TA.AperFunction,SMDPad,CuDef*
G36*
X129146351Y-112847747D02*
G01*
X129160912Y-112849907D01*
X129175191Y-112853484D01*
X129189051Y-112858443D01*
X129202358Y-112864737D01*
X129214984Y-112872305D01*
X129226807Y-112881073D01*
X129237714Y-112890959D01*
X129803400Y-113456645D01*
X129813286Y-113467552D01*
X129822054Y-113479375D01*
X129829622Y-113492001D01*
X129835916Y-113505308D01*
X129840875Y-113519168D01*
X129844452Y-113533447D01*
X129846612Y-113548008D01*
X129847334Y-113562711D01*
X129846612Y-113577414D01*
X129844452Y-113591975D01*
X129840875Y-113606254D01*
X129835916Y-113620114D01*
X129829622Y-113633421D01*
X129822054Y-113646047D01*
X129813286Y-113657870D01*
X129803400Y-113668777D01*
X129591268Y-113880909D01*
X129580361Y-113890795D01*
X129568538Y-113899563D01*
X129555912Y-113907131D01*
X129542605Y-113913425D01*
X129528745Y-113918384D01*
X129514466Y-113921961D01*
X129499905Y-113924121D01*
X129485202Y-113924843D01*
X129470499Y-113924121D01*
X129455938Y-113921961D01*
X129441659Y-113918384D01*
X129427799Y-113913425D01*
X129414492Y-113907131D01*
X129401866Y-113899563D01*
X129390043Y-113890795D01*
X129379136Y-113880909D01*
X128813450Y-113315223D01*
X128803564Y-113304316D01*
X128794796Y-113292493D01*
X128787228Y-113279867D01*
X128780934Y-113266560D01*
X128775975Y-113252700D01*
X128772398Y-113238421D01*
X128770238Y-113223860D01*
X128769516Y-113209157D01*
X128770238Y-113194454D01*
X128772398Y-113179893D01*
X128775975Y-113165614D01*
X128780934Y-113151754D01*
X128787228Y-113138447D01*
X128794796Y-113125821D01*
X128803564Y-113113998D01*
X128813450Y-113103091D01*
X129025582Y-112890959D01*
X129036489Y-112881073D01*
X129048312Y-112872305D01*
X129060938Y-112864737D01*
X129074245Y-112858443D01*
X129088105Y-112853484D01*
X129102384Y-112849907D01*
X129116945Y-112847747D01*
X129131648Y-112847025D01*
X129146351Y-112847747D01*
G37*
G04 #@! TD.AperFunction*
G04 #@! TA.AperFunction,SMDPad,CuDef*
G36*
X151742546Y-108817238D02*
G01*
X151757107Y-108819398D01*
X151771386Y-108822975D01*
X151785246Y-108827934D01*
X151798553Y-108834228D01*
X151811179Y-108841796D01*
X151823002Y-108850564D01*
X151833909Y-108860450D01*
X152046041Y-109072582D01*
X152055927Y-109083489D01*
X152064695Y-109095312D01*
X152072263Y-109107938D01*
X152078557Y-109121245D01*
X152083516Y-109135105D01*
X152087093Y-109149384D01*
X152089253Y-109163945D01*
X152089975Y-109178648D01*
X152089253Y-109193351D01*
X152087093Y-109207912D01*
X152083516Y-109222191D01*
X152078557Y-109236051D01*
X152072263Y-109249358D01*
X152064695Y-109261984D01*
X152055927Y-109273807D01*
X152046041Y-109284714D01*
X151480355Y-109850400D01*
X151469448Y-109860286D01*
X151457625Y-109869054D01*
X151444999Y-109876622D01*
X151431692Y-109882916D01*
X151417832Y-109887875D01*
X151403553Y-109891452D01*
X151388992Y-109893612D01*
X151374289Y-109894334D01*
X151359586Y-109893612D01*
X151345025Y-109891452D01*
X151330746Y-109887875D01*
X151316886Y-109882916D01*
X151303579Y-109876622D01*
X151290953Y-109869054D01*
X151279130Y-109860286D01*
X151268223Y-109850400D01*
X151056091Y-109638268D01*
X151046205Y-109627361D01*
X151037437Y-109615538D01*
X151029869Y-109602912D01*
X151023575Y-109589605D01*
X151018616Y-109575745D01*
X151015039Y-109561466D01*
X151012879Y-109546905D01*
X151012157Y-109532202D01*
X151012879Y-109517499D01*
X151015039Y-109502938D01*
X151018616Y-109488659D01*
X151023575Y-109474799D01*
X151029869Y-109461492D01*
X151037437Y-109448866D01*
X151046205Y-109437043D01*
X151056091Y-109426136D01*
X151621777Y-108860450D01*
X151632684Y-108850564D01*
X151644507Y-108841796D01*
X151657133Y-108834228D01*
X151670440Y-108827934D01*
X151684300Y-108822975D01*
X151698579Y-108819398D01*
X151713140Y-108817238D01*
X151727843Y-108816516D01*
X151742546Y-108817238D01*
G37*
G04 #@! TD.AperFunction*
G04 #@! TA.AperFunction,SMDPad,CuDef*
G36*
X155419501Y-113059879D02*
G01*
X155434062Y-113062039D01*
X155448341Y-113065616D01*
X155462201Y-113070575D01*
X155475508Y-113076869D01*
X155488134Y-113084437D01*
X155499957Y-113093205D01*
X155510864Y-113103091D01*
X156076550Y-113668777D01*
X156086436Y-113679684D01*
X156095204Y-113691507D01*
X156102772Y-113704133D01*
X156109066Y-113717440D01*
X156114025Y-113731300D01*
X156117602Y-113745579D01*
X156119762Y-113760140D01*
X156120484Y-113774843D01*
X156119762Y-113789546D01*
X156117602Y-113804107D01*
X156114025Y-113818386D01*
X156109066Y-113832246D01*
X156102772Y-113845553D01*
X156095204Y-113858179D01*
X156086436Y-113870002D01*
X156076550Y-113880909D01*
X155864418Y-114093041D01*
X155853511Y-114102927D01*
X155841688Y-114111695D01*
X155829062Y-114119263D01*
X155815755Y-114125557D01*
X155801895Y-114130516D01*
X155787616Y-114134093D01*
X155773055Y-114136253D01*
X155758352Y-114136975D01*
X155743649Y-114136253D01*
X155729088Y-114134093D01*
X155714809Y-114130516D01*
X155700949Y-114125557D01*
X155687642Y-114119263D01*
X155675016Y-114111695D01*
X155663193Y-114102927D01*
X155652286Y-114093041D01*
X155086600Y-113527355D01*
X155076714Y-113516448D01*
X155067946Y-113504625D01*
X155060378Y-113491999D01*
X155054084Y-113478692D01*
X155049125Y-113464832D01*
X155045548Y-113450553D01*
X155043388Y-113435992D01*
X155042666Y-113421289D01*
X155043388Y-113406586D01*
X155045548Y-113392025D01*
X155049125Y-113377746D01*
X155054084Y-113363886D01*
X155060378Y-113350579D01*
X155067946Y-113337953D01*
X155076714Y-113326130D01*
X155086600Y-113315223D01*
X155298732Y-113103091D01*
X155309639Y-113093205D01*
X155321462Y-113084437D01*
X155334088Y-113076869D01*
X155347395Y-113070575D01*
X155361255Y-113065616D01*
X155375534Y-113062039D01*
X155390095Y-113059879D01*
X155404798Y-113059157D01*
X155419501Y-113059879D01*
G37*
G04 #@! TD.AperFunction*
G04 #@! TA.AperFunction,SMDPad,CuDef*
G36*
X151530414Y-117090388D02*
G01*
X151544975Y-117092548D01*
X151559254Y-117096125D01*
X151573114Y-117101084D01*
X151586421Y-117107378D01*
X151599047Y-117114946D01*
X151610870Y-117123714D01*
X151621777Y-117133600D01*
X151833909Y-117345732D01*
X151843795Y-117356639D01*
X151852563Y-117368462D01*
X151860131Y-117381088D01*
X151866425Y-117394395D01*
X151871384Y-117408255D01*
X151874961Y-117422534D01*
X151877121Y-117437095D01*
X151877843Y-117451798D01*
X151877121Y-117466501D01*
X151874961Y-117481062D01*
X151871384Y-117495341D01*
X151866425Y-117509201D01*
X151860131Y-117522508D01*
X151852563Y-117535134D01*
X151843795Y-117546957D01*
X151833909Y-117557864D01*
X151268223Y-118123550D01*
X151257316Y-118133436D01*
X151245493Y-118142204D01*
X151232867Y-118149772D01*
X151219560Y-118156066D01*
X151205700Y-118161025D01*
X151191421Y-118164602D01*
X151176860Y-118166762D01*
X151162157Y-118167484D01*
X151147454Y-118166762D01*
X151132893Y-118164602D01*
X151118614Y-118161025D01*
X151104754Y-118156066D01*
X151091447Y-118149772D01*
X151078821Y-118142204D01*
X151066998Y-118133436D01*
X151056091Y-118123550D01*
X150843959Y-117911418D01*
X150834073Y-117900511D01*
X150825305Y-117888688D01*
X150817737Y-117876062D01*
X150811443Y-117862755D01*
X150806484Y-117848895D01*
X150802907Y-117834616D01*
X150800747Y-117820055D01*
X150800025Y-117805352D01*
X150800747Y-117790649D01*
X150802907Y-117776088D01*
X150806484Y-117761809D01*
X150811443Y-117747949D01*
X150817737Y-117734642D01*
X150825305Y-117722016D01*
X150834073Y-117710193D01*
X150843959Y-117699286D01*
X151409645Y-117133600D01*
X151420552Y-117123714D01*
X151432375Y-117114946D01*
X151445001Y-117107378D01*
X151458308Y-117101084D01*
X151472168Y-117096125D01*
X151486447Y-117092548D01*
X151501008Y-117090388D01*
X151515711Y-117089666D01*
X151530414Y-117090388D01*
G37*
G04 #@! TD.AperFunction*
G04 #@! TA.AperFunction,SMDPad,CuDef*
G36*
X147146351Y-112847747D02*
G01*
X147160912Y-112849907D01*
X147175191Y-112853484D01*
X147189051Y-112858443D01*
X147202358Y-112864737D01*
X147214984Y-112872305D01*
X147226807Y-112881073D01*
X147237714Y-112890959D01*
X147803400Y-113456645D01*
X147813286Y-113467552D01*
X147822054Y-113479375D01*
X147829622Y-113492001D01*
X147835916Y-113505308D01*
X147840875Y-113519168D01*
X147844452Y-113533447D01*
X147846612Y-113548008D01*
X147847334Y-113562711D01*
X147846612Y-113577414D01*
X147844452Y-113591975D01*
X147840875Y-113606254D01*
X147835916Y-113620114D01*
X147829622Y-113633421D01*
X147822054Y-113646047D01*
X147813286Y-113657870D01*
X147803400Y-113668777D01*
X147591268Y-113880909D01*
X147580361Y-113890795D01*
X147568538Y-113899563D01*
X147555912Y-113907131D01*
X147542605Y-113913425D01*
X147528745Y-113918384D01*
X147514466Y-113921961D01*
X147499905Y-113924121D01*
X147485202Y-113924843D01*
X147470499Y-113924121D01*
X147455938Y-113921961D01*
X147441659Y-113918384D01*
X147427799Y-113913425D01*
X147414492Y-113907131D01*
X147401866Y-113899563D01*
X147390043Y-113890795D01*
X147379136Y-113880909D01*
X146813450Y-113315223D01*
X146803564Y-113304316D01*
X146794796Y-113292493D01*
X146787228Y-113279867D01*
X146780934Y-113266560D01*
X146775975Y-113252700D01*
X146772398Y-113238421D01*
X146770238Y-113223860D01*
X146769516Y-113209157D01*
X146770238Y-113194454D01*
X146772398Y-113179893D01*
X146775975Y-113165614D01*
X146780934Y-113151754D01*
X146787228Y-113138447D01*
X146794796Y-113125821D01*
X146803564Y-113113998D01*
X146813450Y-113103091D01*
X147025582Y-112890959D01*
X147036489Y-112881073D01*
X147048312Y-112872305D01*
X147060938Y-112864737D01*
X147074245Y-112858443D01*
X147088105Y-112853484D01*
X147102384Y-112849907D01*
X147116945Y-112847747D01*
X147131648Y-112847025D01*
X147146351Y-112847747D01*
G37*
G04 #@! TD.AperFunction*
D11*
X142748000Y-118237000D03*
D12*
X120000000Y-85000000D03*
D14*
X131710000Y-102560000D03*
X170180000Y-111760000D03*
X166878000Y-103378000D03*
D15*
X165354000Y-85979000D03*
D14*
X176784000Y-111887000D03*
X173609000Y-100584000D03*
X167767000Y-117094000D03*
X152908000Y-121158000D03*
X147828000Y-120777000D03*
X134112000Y-122047000D03*
X141732000Y-126873000D03*
X161925000Y-125730000D03*
X156718000Y-124333000D03*
X155829000Y-115951000D03*
X134620000Y-103886000D03*
X145796000Y-102997000D03*
X164973000Y-102489000D03*
X128143000Y-112268000D03*
X146177000Y-112268000D03*
X127500000Y-103500000D03*
X166243000Y-120015000D03*
X172085000Y-106680000D03*
X170053000Y-81788000D03*
X173609000Y-98806000D03*
X168656000Y-85471000D03*
X158242000Y-100711000D03*
X147193000Y-96774000D03*
X138049000Y-96774000D03*
X137414000Y-118364000D03*
X163322000Y-112268000D03*
X140970000Y-101473000D03*
X141986000Y-102997000D03*
X157000000Y-111000000D03*
X142621000Y-123317000D03*
X153543000Y-126619000D03*
X136906000Y-100457000D03*
X136398000Y-105537000D03*
D16*
X127500000Y-104000000D02*
X125500000Y-106000000D01*
X127500000Y-103500000D02*
X127500000Y-104000000D01*
X129260934Y-113385934D02*
X128143000Y-112268000D01*
X129308425Y-113385934D02*
X129260934Y-113385934D01*
X147294934Y-113385934D02*
X146177000Y-112268000D01*
X147308425Y-113385934D02*
X147294934Y-113385934D01*
D17*
X137297575Y-118247575D02*
X137414000Y-118364000D01*
X142621000Y-118364000D02*
X142748000Y-118237000D01*
D16*
X137541000Y-118237000D02*
X137414000Y-118364000D01*
X142748000Y-118237000D02*
X137541000Y-118237000D01*
X134074359Y-118364000D02*
X133338934Y-117628575D01*
X137414000Y-118364000D02*
X134074359Y-118364000D01*
X150730509Y-118237000D02*
X151338934Y-117628575D01*
X142748000Y-118237000D02*
X150730509Y-118237000D01*
X136340315Y-100457000D02*
X136906000Y-100457000D01*
X133338934Y-103458381D02*
X136340315Y-100457000D01*
X133338934Y-109143293D02*
X133338934Y-103458381D01*
X133551066Y-109355425D02*
X133338934Y-109143293D01*
X140216425Y-109355425D02*
X136398000Y-105537000D01*
X151551066Y-109355425D02*
X140216425Y-109355425D01*
M02*
