G04 #@! TF.GenerationSoftware,KiCad,Pcbnew,(5.1.5-0)*
G04 #@! TF.CreationDate,2020-09-28T20:09:41-07:00*
G04 #@! TF.ProjectId,Luminometer_ADC,4c756d69-6e6f-46d6-9574-65725f414443,rev?*
G04 #@! TF.SameCoordinates,Original*
G04 #@! TF.FileFunction,Legend,Bot*
G04 #@! TF.FilePolarity,Positive*
%FSLAX46Y46*%
G04 Gerber Fmt 4.6, Leading zero omitted, Abs format (unit mm)*
G04 Created by KiCad (PCBNEW (5.1.5-0)) date 2020-09-28 20:09:41*
%MOMM*%
%LPD*%
G04 APERTURE LIST*
%ADD10C,0.200000*%
%ADD11C,0.100000*%
%ADD12C,0.010000*%
%ADD13C,0.120000*%
%ADD14C,0.150000*%
G04 APERTURE END LIST*
D10*
X161150000Y-109810000D02*
X164840000Y-111200000D01*
X172310000Y-109620000D02*
X168810000Y-111120000D01*
X166900000Y-113900000D02*
X166950000Y-117520000D01*
X168560000Y-112990000D02*
X171650000Y-115100000D01*
X165100000Y-113000000D02*
X162050000Y-115160000D01*
D11*
X151827857Y-101542857D02*
X151863571Y-101578571D01*
X151970714Y-101614285D01*
X152042142Y-101614285D01*
X152149285Y-101578571D01*
X152220714Y-101507142D01*
X152256428Y-101435714D01*
X152292142Y-101292857D01*
X152292142Y-101185714D01*
X152256428Y-101042857D01*
X152220714Y-100971428D01*
X152149285Y-100900000D01*
X152042142Y-100864285D01*
X151970714Y-100864285D01*
X151863571Y-100900000D01*
X151827857Y-100935714D01*
X151185000Y-101614285D02*
X151185000Y-101221428D01*
X151220714Y-101150000D01*
X151292142Y-101114285D01*
X151435000Y-101114285D01*
X151506428Y-101150000D01*
X151185000Y-101578571D02*
X151256428Y-101614285D01*
X151435000Y-101614285D01*
X151506428Y-101578571D01*
X151542142Y-101507142D01*
X151542142Y-101435714D01*
X151506428Y-101364285D01*
X151435000Y-101328571D01*
X151256428Y-101328571D01*
X151185000Y-101292857D01*
X150506428Y-101114285D02*
X150506428Y-101614285D01*
X150827857Y-101114285D02*
X150827857Y-101507142D01*
X150792142Y-101578571D01*
X150720714Y-101614285D01*
X150613571Y-101614285D01*
X150542142Y-101578571D01*
X150506428Y-101542857D01*
X150256428Y-101114285D02*
X149970714Y-101114285D01*
X150149285Y-100864285D02*
X150149285Y-101507142D01*
X150113571Y-101578571D01*
X150042142Y-101614285D01*
X149970714Y-101614285D01*
X149720714Y-101614285D02*
X149720714Y-101114285D01*
X149720714Y-100864285D02*
X149756428Y-100900000D01*
X149720714Y-100935714D01*
X149685000Y-100900000D01*
X149720714Y-100864285D01*
X149720714Y-100935714D01*
X149256428Y-101614285D02*
X149327857Y-101578571D01*
X149363571Y-101542857D01*
X149399285Y-101471428D01*
X149399285Y-101257142D01*
X149363571Y-101185714D01*
X149327857Y-101150000D01*
X149256428Y-101114285D01*
X149149285Y-101114285D01*
X149077857Y-101150000D01*
X149042142Y-101185714D01*
X149006428Y-101257142D01*
X149006428Y-101471428D01*
X149042142Y-101542857D01*
X149077857Y-101578571D01*
X149149285Y-101614285D01*
X149256428Y-101614285D01*
X148685000Y-101114285D02*
X148685000Y-101614285D01*
X148685000Y-101185714D02*
X148649285Y-101150000D01*
X148577857Y-101114285D01*
X148470714Y-101114285D01*
X148399285Y-101150000D01*
X148363571Y-101221428D01*
X148363571Y-101614285D01*
X148006428Y-101542857D02*
X147970714Y-101578571D01*
X148006428Y-101614285D01*
X148042142Y-101578571D01*
X148006428Y-101542857D01*
X148006428Y-101614285D01*
X148006428Y-101328571D02*
X148042142Y-100900000D01*
X148006428Y-100864285D01*
X147970714Y-100900000D01*
X148006428Y-101328571D01*
X148006428Y-100864285D01*
X147113571Y-101578571D02*
X147006428Y-101614285D01*
X146827857Y-101614285D01*
X146756428Y-101578571D01*
X146720714Y-101542857D01*
X146685000Y-101471428D01*
X146685000Y-101400000D01*
X146720714Y-101328571D01*
X146756428Y-101292857D01*
X146827857Y-101257142D01*
X146970714Y-101221428D01*
X147042142Y-101185714D01*
X147077857Y-101150000D01*
X147113571Y-101078571D01*
X147113571Y-101007142D01*
X147077857Y-100935714D01*
X147042142Y-100900000D01*
X146970714Y-100864285D01*
X146792142Y-100864285D01*
X146685000Y-100900000D01*
X146077857Y-101578571D02*
X146149285Y-101614285D01*
X146292142Y-101614285D01*
X146363571Y-101578571D01*
X146399285Y-101507142D01*
X146399285Y-101221428D01*
X146363571Y-101150000D01*
X146292142Y-101114285D01*
X146149285Y-101114285D01*
X146077857Y-101150000D01*
X146042142Y-101221428D01*
X146042142Y-101292857D01*
X146399285Y-101364285D01*
X145720714Y-101114285D02*
X145720714Y-101614285D01*
X145720714Y-101185714D02*
X145685000Y-101150000D01*
X145613571Y-101114285D01*
X145506428Y-101114285D01*
X145435000Y-101150000D01*
X145399285Y-101221428D01*
X145399285Y-101614285D01*
X145077857Y-101578571D02*
X145006428Y-101614285D01*
X144863571Y-101614285D01*
X144792142Y-101578571D01*
X144756428Y-101507142D01*
X144756428Y-101471428D01*
X144792142Y-101400000D01*
X144863571Y-101364285D01*
X144970714Y-101364285D01*
X145042142Y-101328571D01*
X145077857Y-101257142D01*
X145077857Y-101221428D01*
X145042142Y-101150000D01*
X144970714Y-101114285D01*
X144863571Y-101114285D01*
X144792142Y-101150000D01*
X144327857Y-101614285D02*
X144399285Y-101578571D01*
X144435000Y-101542857D01*
X144470714Y-101471428D01*
X144470714Y-101257142D01*
X144435000Y-101185714D01*
X144399285Y-101150000D01*
X144327857Y-101114285D01*
X144220714Y-101114285D01*
X144149285Y-101150000D01*
X144113571Y-101185714D01*
X144077857Y-101257142D01*
X144077857Y-101471428D01*
X144113571Y-101542857D01*
X144149285Y-101578571D01*
X144220714Y-101614285D01*
X144327857Y-101614285D01*
X143756428Y-101614285D02*
X143756428Y-101114285D01*
X143756428Y-101257142D02*
X143720714Y-101185714D01*
X143685000Y-101150000D01*
X143613571Y-101114285D01*
X143542142Y-101114285D01*
X143327857Y-101578571D02*
X143256428Y-101614285D01*
X143113571Y-101614285D01*
X143042142Y-101578571D01*
X143006428Y-101507142D01*
X143006428Y-101471428D01*
X143042142Y-101400000D01*
X143113571Y-101364285D01*
X143220714Y-101364285D01*
X143292142Y-101328571D01*
X143327857Y-101257142D01*
X143327857Y-101221428D01*
X143292142Y-101150000D01*
X143220714Y-101114285D01*
X143113571Y-101114285D01*
X143042142Y-101150000D01*
X141792142Y-101614285D02*
X141792142Y-101221428D01*
X141827857Y-101150000D01*
X141899285Y-101114285D01*
X142042142Y-101114285D01*
X142113571Y-101150000D01*
X141792142Y-101578571D02*
X141863571Y-101614285D01*
X142042142Y-101614285D01*
X142113571Y-101578571D01*
X142149285Y-101507142D01*
X142149285Y-101435714D01*
X142113571Y-101364285D01*
X142042142Y-101328571D01*
X141863571Y-101328571D01*
X141792142Y-101292857D01*
X141435000Y-101614285D02*
X141435000Y-101114285D01*
X141435000Y-101257142D02*
X141399285Y-101185714D01*
X141363571Y-101150000D01*
X141292142Y-101114285D01*
X141220714Y-101114285D01*
X140685000Y-101578571D02*
X140756428Y-101614285D01*
X140899285Y-101614285D01*
X140970714Y-101578571D01*
X141006428Y-101507142D01*
X141006428Y-101221428D01*
X140970714Y-101150000D01*
X140899285Y-101114285D01*
X140756428Y-101114285D01*
X140685000Y-101150000D01*
X140649285Y-101221428D01*
X140649285Y-101292857D01*
X141006428Y-101364285D01*
X139435000Y-101614285D02*
X139435000Y-100864285D01*
X139435000Y-101578571D02*
X139506428Y-101614285D01*
X139649285Y-101614285D01*
X139720714Y-101578571D01*
X139756428Y-101542857D01*
X139792142Y-101471428D01*
X139792142Y-101257142D01*
X139756428Y-101185714D01*
X139720714Y-101150000D01*
X139649285Y-101114285D01*
X139506428Y-101114285D01*
X139435000Y-101150000D01*
X138792142Y-101578571D02*
X138863571Y-101614285D01*
X139006428Y-101614285D01*
X139077857Y-101578571D01*
X139113571Y-101507142D01*
X139113571Y-101221428D01*
X139077857Y-101150000D01*
X139006428Y-101114285D01*
X138863571Y-101114285D01*
X138792142Y-101150000D01*
X138756428Y-101221428D01*
X138756428Y-101292857D01*
X139113571Y-101364285D01*
X138327857Y-101614285D02*
X138399285Y-101578571D01*
X138435000Y-101507142D01*
X138435000Y-100864285D01*
X138042142Y-101614285D02*
X138042142Y-101114285D01*
X138042142Y-100864285D02*
X138077857Y-100900000D01*
X138042142Y-100935714D01*
X138006428Y-100900000D01*
X138042142Y-100864285D01*
X138042142Y-100935714D01*
X137363571Y-101578571D02*
X137435000Y-101614285D01*
X137577857Y-101614285D01*
X137649285Y-101578571D01*
X137685000Y-101542857D01*
X137720714Y-101471428D01*
X137720714Y-101257142D01*
X137685000Y-101185714D01*
X137649285Y-101150000D01*
X137577857Y-101114285D01*
X137435000Y-101114285D01*
X137363571Y-101150000D01*
X136720714Y-101614285D02*
X136720714Y-101221428D01*
X136756428Y-101150000D01*
X136827857Y-101114285D01*
X136970714Y-101114285D01*
X137042142Y-101150000D01*
X136720714Y-101578571D02*
X136792142Y-101614285D01*
X136970714Y-101614285D01*
X137042142Y-101578571D01*
X137077857Y-101507142D01*
X137077857Y-101435714D01*
X137042142Y-101364285D01*
X136970714Y-101328571D01*
X136792142Y-101328571D01*
X136720714Y-101292857D01*
X136470714Y-101114285D02*
X136185000Y-101114285D01*
X136363571Y-100864285D02*
X136363571Y-101507142D01*
X136327857Y-101578571D01*
X136256428Y-101614285D01*
X136185000Y-101614285D01*
X135649285Y-101578571D02*
X135720714Y-101614285D01*
X135863571Y-101614285D01*
X135935000Y-101578571D01*
X135970714Y-101507142D01*
X135970714Y-101221428D01*
X135935000Y-101150000D01*
X135863571Y-101114285D01*
X135720714Y-101114285D01*
X135649285Y-101150000D01*
X135613571Y-101221428D01*
X135613571Y-101292857D01*
X135970714Y-101364285D01*
X135292142Y-101542857D02*
X135256428Y-101578571D01*
X135292142Y-101614285D01*
X135327857Y-101578571D01*
X135292142Y-101542857D01*
X135292142Y-101614285D01*
X151827857Y-102767857D02*
X151863571Y-102803571D01*
X151970714Y-102839285D01*
X152042142Y-102839285D01*
X152149285Y-102803571D01*
X152220714Y-102732142D01*
X152256428Y-102660714D01*
X152292142Y-102517857D01*
X152292142Y-102410714D01*
X152256428Y-102267857D01*
X152220714Y-102196428D01*
X152149285Y-102125000D01*
X152042142Y-102089285D01*
X151970714Y-102089285D01*
X151863571Y-102125000D01*
X151827857Y-102160714D01*
X151399285Y-102839285D02*
X151470714Y-102803571D01*
X151506428Y-102732142D01*
X151506428Y-102089285D01*
X150827857Y-102803571D02*
X150899285Y-102839285D01*
X151042142Y-102839285D01*
X151113571Y-102803571D01*
X151149285Y-102732142D01*
X151149285Y-102446428D01*
X151113571Y-102375000D01*
X151042142Y-102339285D01*
X150899285Y-102339285D01*
X150827857Y-102375000D01*
X150792142Y-102446428D01*
X150792142Y-102517857D01*
X151149285Y-102589285D01*
X150149285Y-102839285D02*
X150149285Y-102446428D01*
X150185000Y-102375000D01*
X150256428Y-102339285D01*
X150399285Y-102339285D01*
X150470714Y-102375000D01*
X150149285Y-102803571D02*
X150220714Y-102839285D01*
X150399285Y-102839285D01*
X150470714Y-102803571D01*
X150506428Y-102732142D01*
X150506428Y-102660714D01*
X150470714Y-102589285D01*
X150399285Y-102553571D01*
X150220714Y-102553571D01*
X150149285Y-102517857D01*
X149792142Y-102339285D02*
X149792142Y-102839285D01*
X149792142Y-102410714D02*
X149756428Y-102375000D01*
X149685000Y-102339285D01*
X149577857Y-102339285D01*
X149506428Y-102375000D01*
X149470714Y-102446428D01*
X149470714Y-102839285D01*
X148220714Y-102339285D02*
X148220714Y-102946428D01*
X148256428Y-103017857D01*
X148292142Y-103053571D01*
X148363571Y-103089285D01*
X148470714Y-103089285D01*
X148542142Y-103053571D01*
X148220714Y-102803571D02*
X148292142Y-102839285D01*
X148435000Y-102839285D01*
X148506428Y-102803571D01*
X148542142Y-102767857D01*
X148577857Y-102696428D01*
X148577857Y-102482142D01*
X148542142Y-102410714D01*
X148506428Y-102375000D01*
X148435000Y-102339285D01*
X148292142Y-102339285D01*
X148220714Y-102375000D01*
X147577857Y-102803571D02*
X147649285Y-102839285D01*
X147792142Y-102839285D01*
X147863571Y-102803571D01*
X147899285Y-102732142D01*
X147899285Y-102446428D01*
X147863571Y-102375000D01*
X147792142Y-102339285D01*
X147649285Y-102339285D01*
X147577857Y-102375000D01*
X147542142Y-102446428D01*
X147542142Y-102517857D01*
X147899285Y-102589285D01*
X147220714Y-102339285D02*
X147220714Y-102839285D01*
X147220714Y-102410714D02*
X147185000Y-102375000D01*
X147113571Y-102339285D01*
X147006428Y-102339285D01*
X146935000Y-102375000D01*
X146899285Y-102446428D01*
X146899285Y-102839285D01*
X146649285Y-102339285D02*
X146363571Y-102339285D01*
X146542142Y-102089285D02*
X146542142Y-102732142D01*
X146506428Y-102803571D01*
X146435000Y-102839285D01*
X146363571Y-102839285D01*
X146006428Y-102839285D02*
X146077857Y-102803571D01*
X146113571Y-102732142D01*
X146113571Y-102089285D01*
X145792142Y-102339285D02*
X145613571Y-102839285D01*
X145435000Y-102339285D02*
X145613571Y-102839285D01*
X145685000Y-103017857D01*
X145720714Y-103053571D01*
X145792142Y-103089285D01*
X144649285Y-102339285D02*
X144506428Y-102839285D01*
X144363571Y-102482142D01*
X144220714Y-102839285D01*
X144077857Y-102339285D01*
X143792142Y-102839285D02*
X143792142Y-102339285D01*
X143792142Y-102089285D02*
X143827857Y-102125000D01*
X143792142Y-102160714D01*
X143756428Y-102125000D01*
X143792142Y-102089285D01*
X143792142Y-102160714D01*
X143542142Y-102339285D02*
X143256428Y-102339285D01*
X143435000Y-102089285D02*
X143435000Y-102732142D01*
X143399285Y-102803571D01*
X143327857Y-102839285D01*
X143256428Y-102839285D01*
X143006428Y-102839285D02*
X143006428Y-102089285D01*
X142685000Y-102839285D02*
X142685000Y-102446428D01*
X142720714Y-102375000D01*
X142792142Y-102339285D01*
X142899285Y-102339285D01*
X142970714Y-102375000D01*
X143006428Y-102410714D01*
X141756428Y-102339285D02*
X141756428Y-102839285D01*
X141756428Y-102410714D02*
X141720714Y-102375000D01*
X141649285Y-102339285D01*
X141542142Y-102339285D01*
X141470714Y-102375000D01*
X141435000Y-102446428D01*
X141435000Y-102839285D01*
X140970714Y-102839285D02*
X141042142Y-102803571D01*
X141077857Y-102767857D01*
X141113571Y-102696428D01*
X141113571Y-102482142D01*
X141077857Y-102410714D01*
X141042142Y-102375000D01*
X140970714Y-102339285D01*
X140863571Y-102339285D01*
X140792142Y-102375000D01*
X140756428Y-102410714D01*
X140720714Y-102482142D01*
X140720714Y-102696428D01*
X140756428Y-102767857D01*
X140792142Y-102803571D01*
X140863571Y-102839285D01*
X140970714Y-102839285D01*
X140399285Y-102339285D02*
X140399285Y-102839285D01*
X140399285Y-102410714D02*
X140363571Y-102375000D01*
X140292142Y-102339285D01*
X140185000Y-102339285D01*
X140113571Y-102375000D01*
X140077857Y-102446428D01*
X140077857Y-102839285D01*
X139720714Y-102553571D02*
X139149285Y-102553571D01*
X138827857Y-102803571D02*
X138756428Y-102839285D01*
X138613571Y-102839285D01*
X138542142Y-102803571D01*
X138506428Y-102732142D01*
X138506428Y-102696428D01*
X138542142Y-102625000D01*
X138613571Y-102589285D01*
X138720714Y-102589285D01*
X138792142Y-102553571D01*
X138827857Y-102482142D01*
X138827857Y-102446428D01*
X138792142Y-102375000D01*
X138720714Y-102339285D01*
X138613571Y-102339285D01*
X138542142Y-102375000D01*
X137863571Y-102803571D02*
X137935000Y-102839285D01*
X138077857Y-102839285D01*
X138149285Y-102803571D01*
X138185000Y-102767857D01*
X138220714Y-102696428D01*
X138220714Y-102482142D01*
X138185000Y-102410714D01*
X138149285Y-102375000D01*
X138077857Y-102339285D01*
X137935000Y-102339285D01*
X137863571Y-102375000D01*
X137542142Y-102839285D02*
X137542142Y-102339285D01*
X137542142Y-102482142D02*
X137506428Y-102410714D01*
X137470714Y-102375000D01*
X137399285Y-102339285D01*
X137327857Y-102339285D01*
X136756428Y-102839285D02*
X136756428Y-102446428D01*
X136792142Y-102375000D01*
X136863571Y-102339285D01*
X137006428Y-102339285D01*
X137077857Y-102375000D01*
X136756428Y-102803571D02*
X136827857Y-102839285D01*
X137006428Y-102839285D01*
X137077857Y-102803571D01*
X137113571Y-102732142D01*
X137113571Y-102660714D01*
X137077857Y-102589285D01*
X137006428Y-102553571D01*
X136827857Y-102553571D01*
X136756428Y-102517857D01*
X136506428Y-102339285D02*
X136220714Y-102339285D01*
X136399285Y-102089285D02*
X136399285Y-102732142D01*
X136363571Y-102803571D01*
X136292142Y-102839285D01*
X136220714Y-102839285D01*
X135649285Y-102803571D02*
X135720714Y-102839285D01*
X135863571Y-102839285D01*
X135935000Y-102803571D01*
X135970714Y-102767857D01*
X136006428Y-102696428D01*
X136006428Y-102482142D01*
X135970714Y-102410714D01*
X135935000Y-102375000D01*
X135863571Y-102339285D01*
X135720714Y-102339285D01*
X135649285Y-102375000D01*
X135327857Y-102839285D02*
X135327857Y-102089285D01*
X135006428Y-102839285D02*
X135006428Y-102446428D01*
X135042142Y-102375000D01*
X135113571Y-102339285D01*
X135220714Y-102339285D01*
X135292142Y-102375000D01*
X135327857Y-102410714D01*
X134649285Y-102839285D02*
X134649285Y-102339285D01*
X134649285Y-102089285D02*
X134685000Y-102125000D01*
X134649285Y-102160714D01*
X134613571Y-102125000D01*
X134649285Y-102089285D01*
X134649285Y-102160714D01*
X134292142Y-102339285D02*
X134292142Y-102839285D01*
X134292142Y-102410714D02*
X134256428Y-102375000D01*
X134185000Y-102339285D01*
X134077857Y-102339285D01*
X134006428Y-102375000D01*
X133970714Y-102446428D01*
X133970714Y-102839285D01*
X133292142Y-102339285D02*
X133292142Y-102946428D01*
X133327857Y-103017857D01*
X133363571Y-103053571D01*
X133435000Y-103089285D01*
X133542142Y-103089285D01*
X133613571Y-103053571D01*
X133292142Y-102803571D02*
X133363571Y-102839285D01*
X133506428Y-102839285D01*
X133577857Y-102803571D01*
X133613571Y-102767857D01*
X133649285Y-102696428D01*
X133649285Y-102482142D01*
X133613571Y-102410714D01*
X133577857Y-102375000D01*
X133506428Y-102339285D01*
X133363571Y-102339285D01*
X133292142Y-102375000D01*
X132042142Y-102803571D02*
X132113571Y-102839285D01*
X132256428Y-102839285D01*
X132327857Y-102803571D01*
X132363571Y-102767857D01*
X132399285Y-102696428D01*
X132399285Y-102482142D01*
X132363571Y-102410714D01*
X132327857Y-102375000D01*
X132256428Y-102339285D01*
X132113571Y-102339285D01*
X132042142Y-102375000D01*
X131613571Y-102839285D02*
X131685000Y-102803571D01*
X131720714Y-102732142D01*
X131720714Y-102089285D01*
X131220714Y-102839285D02*
X131292142Y-102803571D01*
X131327857Y-102767857D01*
X131363571Y-102696428D01*
X131363571Y-102482142D01*
X131327857Y-102410714D01*
X131292142Y-102375000D01*
X131220714Y-102339285D01*
X131113571Y-102339285D01*
X131042142Y-102375000D01*
X131006428Y-102410714D01*
X130970714Y-102482142D01*
X130970714Y-102696428D01*
X131006428Y-102767857D01*
X131042142Y-102803571D01*
X131113571Y-102839285D01*
X131220714Y-102839285D01*
X130756428Y-102339285D02*
X130470714Y-102339285D01*
X130649285Y-102089285D02*
X130649285Y-102732142D01*
X130613571Y-102803571D01*
X130542142Y-102839285D01*
X130470714Y-102839285D01*
X130220714Y-102839285D02*
X130220714Y-102089285D01*
X129899285Y-102839285D02*
X129899285Y-102446428D01*
X129935000Y-102375000D01*
X130006428Y-102339285D01*
X130113571Y-102339285D01*
X130185000Y-102375000D01*
X130220714Y-102410714D01*
X152256428Y-103314285D02*
X152256428Y-103921428D01*
X152220714Y-103992857D01*
X152185000Y-104028571D01*
X152113571Y-104064285D01*
X151970714Y-104064285D01*
X151899285Y-104028571D01*
X151863571Y-103992857D01*
X151827857Y-103921428D01*
X151827857Y-103314285D01*
X151506428Y-104028571D02*
X151435000Y-104064285D01*
X151292142Y-104064285D01*
X151220714Y-104028571D01*
X151185000Y-103957142D01*
X151185000Y-103921428D01*
X151220714Y-103850000D01*
X151292142Y-103814285D01*
X151399285Y-103814285D01*
X151470714Y-103778571D01*
X151506428Y-103707142D01*
X151506428Y-103671428D01*
X151470714Y-103600000D01*
X151399285Y-103564285D01*
X151292142Y-103564285D01*
X151220714Y-103600000D01*
X150577857Y-104028571D02*
X150649285Y-104064285D01*
X150792142Y-104064285D01*
X150863571Y-104028571D01*
X150899285Y-103957142D01*
X150899285Y-103671428D01*
X150863571Y-103600000D01*
X150792142Y-103564285D01*
X150649285Y-103564285D01*
X150577857Y-103600000D01*
X150542142Y-103671428D01*
X150542142Y-103742857D01*
X150899285Y-103814285D01*
X149542142Y-104064285D02*
X149613571Y-104028571D01*
X149649285Y-103992857D01*
X149685000Y-103921428D01*
X149685000Y-103707142D01*
X149649285Y-103635714D01*
X149613571Y-103600000D01*
X149542142Y-103564285D01*
X149435000Y-103564285D01*
X149363571Y-103600000D01*
X149327857Y-103635714D01*
X149292142Y-103707142D01*
X149292142Y-103921428D01*
X149327857Y-103992857D01*
X149363571Y-104028571D01*
X149435000Y-104064285D01*
X149542142Y-104064285D01*
X148970714Y-103564285D02*
X148970714Y-104064285D01*
X148970714Y-103635714D02*
X148935000Y-103600000D01*
X148863571Y-103564285D01*
X148756428Y-103564285D01*
X148685000Y-103600000D01*
X148649285Y-103671428D01*
X148649285Y-104064285D01*
X148185000Y-104064285D02*
X148256428Y-104028571D01*
X148292142Y-103957142D01*
X148292142Y-103314285D01*
X147970714Y-103564285D02*
X147792142Y-104064285D01*
X147613571Y-103564285D02*
X147792142Y-104064285D01*
X147863571Y-104242857D01*
X147899285Y-104278571D01*
X147970714Y-104314285D01*
X146185000Y-103564285D02*
X146756428Y-103778571D01*
X146185000Y-103992857D01*
X145292142Y-103385714D02*
X145256428Y-103350000D01*
X145185000Y-103314285D01*
X145006428Y-103314285D01*
X144935000Y-103350000D01*
X144899285Y-103385714D01*
X144863571Y-103457142D01*
X144863571Y-103528571D01*
X144899285Y-103635714D01*
X145327857Y-104064285D01*
X144863571Y-104064285D01*
X144399285Y-103314285D02*
X144327857Y-103314285D01*
X144256428Y-103350000D01*
X144220714Y-103385714D01*
X144185000Y-103457142D01*
X144149285Y-103600000D01*
X144149285Y-103778571D01*
X144185000Y-103921428D01*
X144220714Y-103992857D01*
X144256428Y-104028571D01*
X144327857Y-104064285D01*
X144399285Y-104064285D01*
X144470714Y-104028571D01*
X144506428Y-103992857D01*
X144542142Y-103921428D01*
X144577857Y-103778571D01*
X144577857Y-103600000D01*
X144542142Y-103457142D01*
X144506428Y-103385714D01*
X144470714Y-103350000D01*
X144399285Y-103314285D01*
X143863571Y-104064285D02*
X143292142Y-103314285D01*
X143756428Y-103314285D02*
X143685000Y-103350000D01*
X143649285Y-103421428D01*
X143685000Y-103492857D01*
X143756428Y-103528571D01*
X143827857Y-103492857D01*
X143863571Y-103421428D01*
X143827857Y-103350000D01*
X143756428Y-103314285D01*
X143327857Y-104028571D02*
X143292142Y-103957142D01*
X143327857Y-103885714D01*
X143399285Y-103850000D01*
X143470714Y-103885714D01*
X143506428Y-103957142D01*
X143470714Y-104028571D01*
X143399285Y-104064285D01*
X143327857Y-104028571D01*
X142399285Y-103671428D02*
X142149285Y-103671428D01*
X142042142Y-104064285D02*
X142399285Y-104064285D01*
X142399285Y-103314285D01*
X142042142Y-103314285D01*
X141827857Y-103564285D02*
X141542142Y-103564285D01*
X141720714Y-103314285D02*
X141720714Y-103957142D01*
X141685000Y-104028571D01*
X141613571Y-104064285D01*
X141542142Y-104064285D01*
X141149285Y-103314285D02*
X141006428Y-103314285D01*
X140935000Y-103350000D01*
X140863571Y-103421428D01*
X140827857Y-103564285D01*
X140827857Y-103814285D01*
X140863571Y-103957142D01*
X140935000Y-104028571D01*
X141006428Y-104064285D01*
X141149285Y-104064285D01*
X141220714Y-104028571D01*
X141292142Y-103957142D01*
X141327857Y-103814285D01*
X141327857Y-103564285D01*
X141292142Y-103421428D01*
X141220714Y-103350000D01*
X141149285Y-103314285D01*
X140506428Y-104064285D02*
X140506428Y-103314285D01*
X140506428Y-103671428D02*
X140077857Y-103671428D01*
X140077857Y-104064285D02*
X140077857Y-103314285D01*
X139185000Y-104028571D02*
X139113571Y-104064285D01*
X138970714Y-104064285D01*
X138899285Y-104028571D01*
X138863571Y-103957142D01*
X138863571Y-103921428D01*
X138899285Y-103850000D01*
X138970714Y-103814285D01*
X139077857Y-103814285D01*
X139149285Y-103778571D01*
X139185000Y-103707142D01*
X139185000Y-103671428D01*
X139149285Y-103600000D01*
X139077857Y-103564285D01*
X138970714Y-103564285D01*
X138899285Y-103600000D01*
X138435000Y-104064285D02*
X138506428Y-104028571D01*
X138542142Y-103992857D01*
X138577857Y-103921428D01*
X138577857Y-103707142D01*
X138542142Y-103635714D01*
X138506428Y-103600000D01*
X138435000Y-103564285D01*
X138327857Y-103564285D01*
X138256428Y-103600000D01*
X138220714Y-103635714D01*
X138185000Y-103707142D01*
X138185000Y-103921428D01*
X138220714Y-103992857D01*
X138256428Y-104028571D01*
X138327857Y-104064285D01*
X138435000Y-104064285D01*
X137756428Y-104064285D02*
X137827857Y-104028571D01*
X137863571Y-103957142D01*
X137863571Y-103314285D01*
X137149285Y-103564285D02*
X137149285Y-104064285D01*
X137470714Y-103564285D02*
X137470714Y-103957142D01*
X137435000Y-104028571D01*
X137363571Y-104064285D01*
X137256428Y-104064285D01*
X137185000Y-104028571D01*
X137149285Y-103992857D01*
X136899285Y-103564285D02*
X136613571Y-103564285D01*
X136792142Y-103314285D02*
X136792142Y-103957142D01*
X136756428Y-104028571D01*
X136685000Y-104064285D01*
X136613571Y-104064285D01*
X136363571Y-104064285D02*
X136363571Y-103564285D01*
X136363571Y-103314285D02*
X136399285Y-103350000D01*
X136363571Y-103385714D01*
X136327857Y-103350000D01*
X136363571Y-103314285D01*
X136363571Y-103385714D01*
X135899285Y-104064285D02*
X135970714Y-104028571D01*
X136006428Y-103992857D01*
X136042142Y-103921428D01*
X136042142Y-103707142D01*
X136006428Y-103635714D01*
X135970714Y-103600000D01*
X135899285Y-103564285D01*
X135792142Y-103564285D01*
X135720714Y-103600000D01*
X135685000Y-103635714D01*
X135649285Y-103707142D01*
X135649285Y-103921428D01*
X135685000Y-103992857D01*
X135720714Y-104028571D01*
X135792142Y-104064285D01*
X135899285Y-104064285D01*
X135327857Y-103564285D02*
X135327857Y-104064285D01*
X135327857Y-103635714D02*
X135292142Y-103600000D01*
X135220714Y-103564285D01*
X135113571Y-103564285D01*
X135042142Y-103600000D01*
X135006428Y-103671428D01*
X135006428Y-104064285D01*
D12*
G36*
X167071969Y-96181722D02*
G01*
X166399804Y-96222748D01*
X165848610Y-96280367D01*
X165427350Y-96352361D01*
X165144990Y-96436509D01*
X165010492Y-96530593D01*
X165032822Y-96632392D01*
X165085653Y-96673503D01*
X165204148Y-96696541D01*
X165454672Y-96714688D01*
X165799983Y-96727620D01*
X166202838Y-96735019D01*
X166625995Y-96736562D01*
X167032210Y-96731929D01*
X167384243Y-96720799D01*
X167644850Y-96702850D01*
X167700000Y-96696035D01*
X168187059Y-96612291D01*
X168540826Y-96524064D01*
X168748442Y-96435198D01*
X168795459Y-96373588D01*
X168574001Y-96373588D01*
X168534443Y-96416491D01*
X168346443Y-96475710D01*
X168026864Y-96529331D01*
X167613418Y-96575371D01*
X167143822Y-96611849D01*
X166655790Y-96636780D01*
X166187037Y-96648183D01*
X165775277Y-96644074D01*
X165458224Y-96622471D01*
X165287000Y-96587216D01*
X165255938Y-96540810D01*
X165367408Y-96490402D01*
X165594740Y-96438737D01*
X165911268Y-96388560D01*
X166290322Y-96342617D01*
X166705236Y-96303654D01*
X167129341Y-96274415D01*
X167535970Y-96257645D01*
X167898454Y-96256091D01*
X168190126Y-96272498D01*
X168259214Y-96281240D01*
X168494291Y-96326989D01*
X168574001Y-96373588D01*
X168795459Y-96373588D01*
X168800666Y-96366765D01*
X168736689Y-96272026D01*
X168539119Y-96207109D01*
X168199497Y-96171109D01*
X167709365Y-96163120D01*
X167071969Y-96181722D01*
G37*
X167071969Y-96181722D02*
X166399804Y-96222748D01*
X165848610Y-96280367D01*
X165427350Y-96352361D01*
X165144990Y-96436509D01*
X165010492Y-96530593D01*
X165032822Y-96632392D01*
X165085653Y-96673503D01*
X165204148Y-96696541D01*
X165454672Y-96714688D01*
X165799983Y-96727620D01*
X166202838Y-96735019D01*
X166625995Y-96736562D01*
X167032210Y-96731929D01*
X167384243Y-96720799D01*
X167644850Y-96702850D01*
X167700000Y-96696035D01*
X168187059Y-96612291D01*
X168540826Y-96524064D01*
X168748442Y-96435198D01*
X168795459Y-96373588D01*
X168574001Y-96373588D01*
X168534443Y-96416491D01*
X168346443Y-96475710D01*
X168026864Y-96529331D01*
X167613418Y-96575371D01*
X167143822Y-96611849D01*
X166655790Y-96636780D01*
X166187037Y-96648183D01*
X165775277Y-96644074D01*
X165458224Y-96622471D01*
X165287000Y-96587216D01*
X165255938Y-96540810D01*
X165367408Y-96490402D01*
X165594740Y-96438737D01*
X165911268Y-96388560D01*
X166290322Y-96342617D01*
X166705236Y-96303654D01*
X167129341Y-96274415D01*
X167535970Y-96257645D01*
X167898454Y-96256091D01*
X168190126Y-96272498D01*
X168259214Y-96281240D01*
X168494291Y-96326989D01*
X168574001Y-96373588D01*
X168795459Y-96373588D01*
X168800666Y-96366765D01*
X168736689Y-96272026D01*
X168539119Y-96207109D01*
X168199497Y-96171109D01*
X167709365Y-96163120D01*
X167071969Y-96181722D01*
G36*
X166537837Y-95688855D02*
G01*
X166117602Y-95716705D01*
X166003784Y-95725713D01*
X165167765Y-95811970D01*
X164498674Y-95922044D01*
X163995765Y-96056093D01*
X163658293Y-96214277D01*
X163636000Y-96229710D01*
X163433685Y-96331480D01*
X163141840Y-96429326D01*
X162939445Y-96477970D01*
X162470991Y-96608909D01*
X162140057Y-96795641D01*
X161919541Y-97054309D01*
X161894209Y-97100509D01*
X161812273Y-97403497D01*
X161891311Y-97698407D01*
X162124664Y-97989556D01*
X162259438Y-98107333D01*
X162392664Y-98179565D01*
X162570275Y-98217774D01*
X162838209Y-98233477D01*
X163112647Y-98237313D01*
X163626070Y-98251271D01*
X163993122Y-98287559D01*
X164235910Y-98351489D01*
X164376540Y-98448374D01*
X164430567Y-98554003D01*
X164441354Y-98676811D01*
X164451393Y-98950031D01*
X164460421Y-99354742D01*
X164468178Y-99872023D01*
X164474400Y-100482953D01*
X164478826Y-101168612D01*
X164481193Y-101910078D01*
X164481510Y-102232337D01*
X164482666Y-105725007D01*
X165077315Y-109001241D01*
X165233848Y-109849245D01*
X165378637Y-110605080D01*
X165508910Y-111255557D01*
X165621895Y-111787488D01*
X165714822Y-112187683D01*
X165784920Y-112442953D01*
X165818148Y-112527054D01*
X165994285Y-112760397D01*
X166187494Y-112942960D01*
X166423083Y-113055750D01*
X166736109Y-113130774D01*
X167049031Y-113155410D01*
X167276666Y-113120221D01*
X167487837Y-112985459D01*
X167718568Y-112768235D01*
X167905087Y-112533498D01*
X167967014Y-112417170D01*
X167997608Y-112290301D01*
X168051214Y-112015070D01*
X168124552Y-111610393D01*
X168214346Y-111095189D01*
X168317319Y-110488374D01*
X168430191Y-109808868D01*
X168549686Y-109075587D01*
X168597795Y-108776504D01*
X169147938Y-105343667D01*
X169225021Y-102719000D01*
X169244909Y-102013839D01*
X169263122Y-101314728D01*
X169278952Y-100653011D01*
X169291694Y-100060033D01*
X169300643Y-99567135D01*
X169305091Y-99205663D01*
X169305166Y-99191345D01*
X169139333Y-99191345D01*
X169098429Y-99366022D01*
X168961489Y-99495816D01*
X168707174Y-99590911D01*
X168314144Y-99661492D01*
X168102166Y-99686318D01*
X167840818Y-99726156D01*
X167664112Y-99776796D01*
X167615333Y-99816154D01*
X167690016Y-99851955D01*
X167883251Y-99854309D01*
X168148818Y-99828809D01*
X168440497Y-99781043D01*
X168712068Y-99716604D01*
X168864166Y-99665096D01*
X169139333Y-99552641D01*
X169139333Y-100552503D01*
X169134676Y-100992050D01*
X169122062Y-101410591D01*
X169103529Y-101755434D01*
X169085470Y-101945342D01*
X169031606Y-102338319D01*
X168490881Y-102505332D01*
X168095340Y-102608120D01*
X167657791Y-102693465D01*
X167401745Y-102728531D01*
X167122305Y-102767413D01*
X166924757Y-102814475D01*
X166853333Y-102857692D01*
X166925135Y-102914245D01*
X167043833Y-102929555D01*
X167217648Y-102910854D01*
X167506349Y-102862693D01*
X167860190Y-102795237D01*
X168229424Y-102718652D01*
X168564307Y-102643101D01*
X168815090Y-102578750D01*
X168906500Y-102548945D01*
X168962081Y-102537559D01*
X169001473Y-102570810D01*
X169027191Y-102671795D01*
X169041751Y-102863607D01*
X169047668Y-103169342D01*
X169047457Y-103612095D01*
X169046227Y-103831775D01*
X169039706Y-104307603D01*
X169027269Y-104737230D01*
X169010415Y-105085927D01*
X168990645Y-105318964D01*
X168979169Y-105384904D01*
X168856239Y-105553694D01*
X168613600Y-105709419D01*
X168300564Y-105828714D01*
X167966442Y-105888217D01*
X167911666Y-105890692D01*
X167684006Y-105921563D01*
X167530666Y-105978667D01*
X167487783Y-106038232D01*
X167577331Y-106063007D01*
X167766429Y-106054873D01*
X168022194Y-106015715D01*
X168311744Y-105947416D01*
X168370317Y-105930573D01*
X168624072Y-105864942D01*
X168805763Y-105836044D01*
X168862403Y-105842848D01*
X168859244Y-105931741D01*
X168833166Y-106162084D01*
X168788014Y-106508122D01*
X168727634Y-106944102D01*
X168655871Y-107444268D01*
X168576570Y-107982866D01*
X168493577Y-108534142D01*
X168410737Y-109072340D01*
X168331896Y-109571707D01*
X168260899Y-110006487D01*
X168201593Y-110350927D01*
X168157821Y-110579271D01*
X168149971Y-110614290D01*
X168029707Y-110779661D01*
X167778617Y-110908732D01*
X167432245Y-110996747D01*
X167026134Y-111038946D01*
X166595829Y-111030572D01*
X166176873Y-110966866D01*
X165964968Y-110906794D01*
X165542269Y-110762334D01*
X165110808Y-108381186D01*
X164679346Y-106000038D01*
X164627845Y-102553672D01*
X164576343Y-99107305D01*
X164931672Y-99177486D01*
X165139799Y-99201853D01*
X165478109Y-99222536D01*
X165907461Y-99237930D01*
X166388717Y-99246430D01*
X166641666Y-99247594D01*
X167242195Y-99242122D01*
X167717799Y-99222477D01*
X168112635Y-99183708D01*
X168470860Y-99120863D01*
X168836630Y-99028991D01*
X168991166Y-98984133D01*
X169097485Y-98986805D01*
X169136743Y-99106865D01*
X169139333Y-99191345D01*
X169305166Y-99191345D01*
X169305385Y-99150197D01*
X169308318Y-98306373D01*
X169199929Y-98306373D01*
X169193703Y-98391417D01*
X169152822Y-98570053D01*
X169152683Y-98570574D01*
X169086716Y-98725880D01*
X168960317Y-98826650D01*
X168724994Y-98907499D01*
X168655240Y-98925683D01*
X168027772Y-99051015D01*
X167339113Y-99131697D01*
X166635838Y-99166618D01*
X165964524Y-99154669D01*
X165371748Y-99094738D01*
X164990666Y-99013044D01*
X164749830Y-98927554D01*
X164629621Y-98828108D01*
X164583363Y-98674605D01*
X164581800Y-98661773D01*
X164576855Y-98495219D01*
X164649272Y-98451999D01*
X164793467Y-98478713D01*
X164958950Y-98501462D01*
X165258311Y-98526375D01*
X165656151Y-98551119D01*
X166117073Y-98573361D01*
X166387666Y-98583788D01*
X166933450Y-98599790D01*
X167351720Y-98602524D01*
X167683951Y-98589504D01*
X167971619Y-98558247D01*
X168256198Y-98506268D01*
X168461895Y-98459541D01*
X168785634Y-98384749D01*
X169038370Y-98330958D01*
X169181610Y-98306158D01*
X169199929Y-98306373D01*
X169308318Y-98306373D01*
X169308667Y-98206060D01*
X169605000Y-98031219D01*
X169819089Y-97860543D01*
X169889986Y-97714343D01*
X169732000Y-97714343D01*
X169655503Y-97821250D01*
X169446399Y-97957029D01*
X169135267Y-98105340D01*
X168752685Y-98249843D01*
X168692990Y-98269544D01*
X168209739Y-98381896D01*
X167605539Y-98453778D01*
X166924099Y-98484223D01*
X166209130Y-98472262D01*
X165504344Y-98416928D01*
X165033000Y-98350592D01*
X164541205Y-98256524D01*
X164200343Y-98166669D01*
X163992371Y-98074260D01*
X163899245Y-97972531D01*
X163890000Y-97921932D01*
X163890080Y-97901161D01*
X163707053Y-97901161D01*
X163604199Y-98027336D01*
X163382882Y-98110218D01*
X163089282Y-98146092D01*
X162769579Y-98131245D01*
X162469953Y-98061962D01*
X162350567Y-98010258D01*
X162172424Y-97851868D01*
X162137874Y-97658918D01*
X162230660Y-97452718D01*
X162434524Y-97254580D01*
X162733210Y-97085818D01*
X163110462Y-96967742D01*
X163152092Y-96959503D01*
X163364037Y-96934069D01*
X163454465Y-96970498D01*
X163466666Y-97026090D01*
X163385503Y-97130095D01*
X163152674Y-97201764D01*
X163132370Y-97205147D01*
X162844133Y-97297045D01*
X162584052Y-97450514D01*
X162560870Y-97470159D01*
X162410827Y-97612420D01*
X162377341Y-97697607D01*
X162449663Y-97780307D01*
X162493000Y-97814848D01*
X162688634Y-97886620D01*
X162982847Y-97904970D01*
X163313942Y-97871114D01*
X163603285Y-97792927D01*
X163703148Y-97791909D01*
X163707053Y-97901161D01*
X163890080Y-97901161D01*
X163890349Y-97832212D01*
X163914487Y-97786307D01*
X163997049Y-97783586D01*
X164172674Y-97823416D01*
X164475996Y-97905163D01*
X164496995Y-97910842D01*
X164997637Y-98004345D01*
X165617684Y-98055158D01*
X166312931Y-98064254D01*
X167039174Y-98032604D01*
X167752211Y-97961181D01*
X168407836Y-97850956D01*
X168538325Y-97821982D01*
X169004342Y-97714729D01*
X169330583Y-97645499D01*
X169541752Y-97612063D01*
X169662555Y-97612194D01*
X169717695Y-97643665D01*
X169731876Y-97704248D01*
X169732000Y-97714343D01*
X169889986Y-97714343D01*
X169901237Y-97691143D01*
X169901333Y-97685802D01*
X169970455Y-97532805D01*
X170134166Y-97462491D01*
X170484470Y-97382757D01*
X170703915Y-97320810D01*
X170825708Y-97252532D01*
X170883057Y-97153802D01*
X170909168Y-97000502D01*
X170921492Y-96890634D01*
X170926048Y-96808512D01*
X170801753Y-96808512D01*
X170746976Y-97005644D01*
X170651427Y-97165364D01*
X170590487Y-97207340D01*
X170472955Y-97235188D01*
X170220081Y-97291734D01*
X169862144Y-97370408D01*
X169429422Y-97464646D01*
X168952194Y-97567879D01*
X168460739Y-97673541D01*
X167985335Y-97775064D01*
X167556261Y-97865882D01*
X167488333Y-97880155D01*
X167259472Y-97906099D01*
X166907268Y-97920550D01*
X166477279Y-97924129D01*
X166015063Y-97917460D01*
X165566175Y-97901165D01*
X165176174Y-97875869D01*
X164906510Y-97844852D01*
X164548844Y-97770457D01*
X164198220Y-97671295D01*
X163996343Y-97596252D01*
X163937020Y-97566454D01*
X163591840Y-97566454D01*
X163518069Y-97646840D01*
X163447467Y-97677967D01*
X163240713Y-97731066D01*
X162991428Y-97756135D01*
X162754614Y-97753230D01*
X162585273Y-97722410D01*
X162535333Y-97677013D01*
X162605897Y-97588810D01*
X162778921Y-97488990D01*
X162810500Y-97475489D01*
X163119077Y-97355796D01*
X163313116Y-97304970D01*
X163431658Y-97320552D01*
X163513744Y-97400084D01*
X163533329Y-97429967D01*
X163591840Y-97566454D01*
X163937020Y-97566454D01*
X163773888Y-97484514D01*
X163668443Y-97373500D01*
X163637272Y-97207760D01*
X163636000Y-97128705D01*
X163656875Y-96917720D01*
X163722703Y-96859269D01*
X163741833Y-96864892D01*
X164073201Y-96993842D01*
X164383309Y-97087149D01*
X164709581Y-97149981D01*
X165089440Y-97187508D01*
X165560311Y-97204900D01*
X166159615Y-97207328D01*
X166218333Y-97207006D01*
X166780144Y-97200047D01*
X167244258Y-97183203D01*
X167662598Y-97151191D01*
X168087085Y-97098726D01*
X168569642Y-97020524D01*
X169162191Y-96911300D01*
X169206132Y-96902928D01*
X169695243Y-96812502D01*
X170124206Y-96738695D01*
X170466577Y-96685605D01*
X170695916Y-96657330D01*
X170785779Y-96657970D01*
X170785845Y-96658071D01*
X170801753Y-96808512D01*
X170926048Y-96808512D01*
X170936583Y-96618631D01*
X170897854Y-96465454D01*
X170748821Y-96465454D01*
X168949244Y-96776438D01*
X168401980Y-96870631D01*
X167897461Y-96956759D01*
X167464468Y-97029963D01*
X167131782Y-97085386D01*
X166928182Y-97118173D01*
X166895666Y-97122996D01*
X166592471Y-97141639D01*
X166177116Y-97136055D01*
X165704425Y-97110131D01*
X165229221Y-97067751D01*
X164806329Y-97012801D01*
X164507784Y-96953756D01*
X164117100Y-96831054D01*
X163826730Y-96696978D01*
X163760187Y-96643503D01*
X163461984Y-96643503D01*
X163448426Y-96713284D01*
X163285966Y-96784207D01*
X163233833Y-96796592D01*
X162781769Y-96923535D01*
X162417008Y-97085976D01*
X162175365Y-97266872D01*
X162133504Y-97320240D01*
X162021479Y-97441870D01*
X161957836Y-97427171D01*
X161958576Y-97306027D01*
X162029751Y-97126482D01*
X162222408Y-96919004D01*
X162537653Y-96744846D01*
X162929066Y-96626786D01*
X163103432Y-96599586D01*
X163341899Y-96597919D01*
X163461984Y-96643503D01*
X163760187Y-96643503D01*
X163662821Y-96565259D01*
X163636000Y-96496000D01*
X163717114Y-96366617D01*
X163946766Y-96237047D01*
X164304414Y-96116442D01*
X164681540Y-96030127D01*
X165444475Y-95913630D01*
X166247177Y-95852303D01*
X167123164Y-95845472D01*
X168105952Y-95892463D01*
X168777293Y-95947741D01*
X169348751Y-96002599D01*
X169775807Y-96048744D01*
X170082874Y-96090716D01*
X170294365Y-96133054D01*
X170434692Y-96180300D01*
X170528268Y-96236992D01*
X170576870Y-96282422D01*
X170748821Y-96465454D01*
X170897854Y-96465454D01*
X170888524Y-96428555D01*
X170756154Y-96238287D01*
X170752159Y-96233507D01*
X170536333Y-95975821D01*
X168843000Y-95804420D01*
X168214411Y-95743440D01*
X167711708Y-95702561D01*
X167292782Y-95680616D01*
X166915527Y-95676436D01*
X166537837Y-95688855D01*
G37*
X166537837Y-95688855D02*
X166117602Y-95716705D01*
X166003784Y-95725713D01*
X165167765Y-95811970D01*
X164498674Y-95922044D01*
X163995765Y-96056093D01*
X163658293Y-96214277D01*
X163636000Y-96229710D01*
X163433685Y-96331480D01*
X163141840Y-96429326D01*
X162939445Y-96477970D01*
X162470991Y-96608909D01*
X162140057Y-96795641D01*
X161919541Y-97054309D01*
X161894209Y-97100509D01*
X161812273Y-97403497D01*
X161891311Y-97698407D01*
X162124664Y-97989556D01*
X162259438Y-98107333D01*
X162392664Y-98179565D01*
X162570275Y-98217774D01*
X162838209Y-98233477D01*
X163112647Y-98237313D01*
X163626070Y-98251271D01*
X163993122Y-98287559D01*
X164235910Y-98351489D01*
X164376540Y-98448374D01*
X164430567Y-98554003D01*
X164441354Y-98676811D01*
X164451393Y-98950031D01*
X164460421Y-99354742D01*
X164468178Y-99872023D01*
X164474400Y-100482953D01*
X164478826Y-101168612D01*
X164481193Y-101910078D01*
X164481510Y-102232337D01*
X164482666Y-105725007D01*
X165077315Y-109001241D01*
X165233848Y-109849245D01*
X165378637Y-110605080D01*
X165508910Y-111255557D01*
X165621895Y-111787488D01*
X165714822Y-112187683D01*
X165784920Y-112442953D01*
X165818148Y-112527054D01*
X165994285Y-112760397D01*
X166187494Y-112942960D01*
X166423083Y-113055750D01*
X166736109Y-113130774D01*
X167049031Y-113155410D01*
X167276666Y-113120221D01*
X167487837Y-112985459D01*
X167718568Y-112768235D01*
X167905087Y-112533498D01*
X167967014Y-112417170D01*
X167997608Y-112290301D01*
X168051214Y-112015070D01*
X168124552Y-111610393D01*
X168214346Y-111095189D01*
X168317319Y-110488374D01*
X168430191Y-109808868D01*
X168549686Y-109075587D01*
X168597795Y-108776504D01*
X169147938Y-105343667D01*
X169225021Y-102719000D01*
X169244909Y-102013839D01*
X169263122Y-101314728D01*
X169278952Y-100653011D01*
X169291694Y-100060033D01*
X169300643Y-99567135D01*
X169305091Y-99205663D01*
X169305166Y-99191345D01*
X169139333Y-99191345D01*
X169098429Y-99366022D01*
X168961489Y-99495816D01*
X168707174Y-99590911D01*
X168314144Y-99661492D01*
X168102166Y-99686318D01*
X167840818Y-99726156D01*
X167664112Y-99776796D01*
X167615333Y-99816154D01*
X167690016Y-99851955D01*
X167883251Y-99854309D01*
X168148818Y-99828809D01*
X168440497Y-99781043D01*
X168712068Y-99716604D01*
X168864166Y-99665096D01*
X169139333Y-99552641D01*
X169139333Y-100552503D01*
X169134676Y-100992050D01*
X169122062Y-101410591D01*
X169103529Y-101755434D01*
X169085470Y-101945342D01*
X169031606Y-102338319D01*
X168490881Y-102505332D01*
X168095340Y-102608120D01*
X167657791Y-102693465D01*
X167401745Y-102728531D01*
X167122305Y-102767413D01*
X166924757Y-102814475D01*
X166853333Y-102857692D01*
X166925135Y-102914245D01*
X167043833Y-102929555D01*
X167217648Y-102910854D01*
X167506349Y-102862693D01*
X167860190Y-102795237D01*
X168229424Y-102718652D01*
X168564307Y-102643101D01*
X168815090Y-102578750D01*
X168906500Y-102548945D01*
X168962081Y-102537559D01*
X169001473Y-102570810D01*
X169027191Y-102671795D01*
X169041751Y-102863607D01*
X169047668Y-103169342D01*
X169047457Y-103612095D01*
X169046227Y-103831775D01*
X169039706Y-104307603D01*
X169027269Y-104737230D01*
X169010415Y-105085927D01*
X168990645Y-105318964D01*
X168979169Y-105384904D01*
X168856239Y-105553694D01*
X168613600Y-105709419D01*
X168300564Y-105828714D01*
X167966442Y-105888217D01*
X167911666Y-105890692D01*
X167684006Y-105921563D01*
X167530666Y-105978667D01*
X167487783Y-106038232D01*
X167577331Y-106063007D01*
X167766429Y-106054873D01*
X168022194Y-106015715D01*
X168311744Y-105947416D01*
X168370317Y-105930573D01*
X168624072Y-105864942D01*
X168805763Y-105836044D01*
X168862403Y-105842848D01*
X168859244Y-105931741D01*
X168833166Y-106162084D01*
X168788014Y-106508122D01*
X168727634Y-106944102D01*
X168655871Y-107444268D01*
X168576570Y-107982866D01*
X168493577Y-108534142D01*
X168410737Y-109072340D01*
X168331896Y-109571707D01*
X168260899Y-110006487D01*
X168201593Y-110350927D01*
X168157821Y-110579271D01*
X168149971Y-110614290D01*
X168029707Y-110779661D01*
X167778617Y-110908732D01*
X167432245Y-110996747D01*
X167026134Y-111038946D01*
X166595829Y-111030572D01*
X166176873Y-110966866D01*
X165964968Y-110906794D01*
X165542269Y-110762334D01*
X165110808Y-108381186D01*
X164679346Y-106000038D01*
X164627845Y-102553672D01*
X164576343Y-99107305D01*
X164931672Y-99177486D01*
X165139799Y-99201853D01*
X165478109Y-99222536D01*
X165907461Y-99237930D01*
X166388717Y-99246430D01*
X166641666Y-99247594D01*
X167242195Y-99242122D01*
X167717799Y-99222477D01*
X168112635Y-99183708D01*
X168470860Y-99120863D01*
X168836630Y-99028991D01*
X168991166Y-98984133D01*
X169097485Y-98986805D01*
X169136743Y-99106865D01*
X169139333Y-99191345D01*
X169305166Y-99191345D01*
X169305385Y-99150197D01*
X169308318Y-98306373D01*
X169199929Y-98306373D01*
X169193703Y-98391417D01*
X169152822Y-98570053D01*
X169152683Y-98570574D01*
X169086716Y-98725880D01*
X168960317Y-98826650D01*
X168724994Y-98907499D01*
X168655240Y-98925683D01*
X168027772Y-99051015D01*
X167339113Y-99131697D01*
X166635838Y-99166618D01*
X165964524Y-99154669D01*
X165371748Y-99094738D01*
X164990666Y-99013044D01*
X164749830Y-98927554D01*
X164629621Y-98828108D01*
X164583363Y-98674605D01*
X164581800Y-98661773D01*
X164576855Y-98495219D01*
X164649272Y-98451999D01*
X164793467Y-98478713D01*
X164958950Y-98501462D01*
X165258311Y-98526375D01*
X165656151Y-98551119D01*
X166117073Y-98573361D01*
X166387666Y-98583788D01*
X166933450Y-98599790D01*
X167351720Y-98602524D01*
X167683951Y-98589504D01*
X167971619Y-98558247D01*
X168256198Y-98506268D01*
X168461895Y-98459541D01*
X168785634Y-98384749D01*
X169038370Y-98330958D01*
X169181610Y-98306158D01*
X169199929Y-98306373D01*
X169308318Y-98306373D01*
X169308667Y-98206060D01*
X169605000Y-98031219D01*
X169819089Y-97860543D01*
X169889986Y-97714343D01*
X169732000Y-97714343D01*
X169655503Y-97821250D01*
X169446399Y-97957029D01*
X169135267Y-98105340D01*
X168752685Y-98249843D01*
X168692990Y-98269544D01*
X168209739Y-98381896D01*
X167605539Y-98453778D01*
X166924099Y-98484223D01*
X166209130Y-98472262D01*
X165504344Y-98416928D01*
X165033000Y-98350592D01*
X164541205Y-98256524D01*
X164200343Y-98166669D01*
X163992371Y-98074260D01*
X163899245Y-97972531D01*
X163890000Y-97921932D01*
X163890080Y-97901161D01*
X163707053Y-97901161D01*
X163604199Y-98027336D01*
X163382882Y-98110218D01*
X163089282Y-98146092D01*
X162769579Y-98131245D01*
X162469953Y-98061962D01*
X162350567Y-98010258D01*
X162172424Y-97851868D01*
X162137874Y-97658918D01*
X162230660Y-97452718D01*
X162434524Y-97254580D01*
X162733210Y-97085818D01*
X163110462Y-96967742D01*
X163152092Y-96959503D01*
X163364037Y-96934069D01*
X163454465Y-96970498D01*
X163466666Y-97026090D01*
X163385503Y-97130095D01*
X163152674Y-97201764D01*
X163132370Y-97205147D01*
X162844133Y-97297045D01*
X162584052Y-97450514D01*
X162560870Y-97470159D01*
X162410827Y-97612420D01*
X162377341Y-97697607D01*
X162449663Y-97780307D01*
X162493000Y-97814848D01*
X162688634Y-97886620D01*
X162982847Y-97904970D01*
X163313942Y-97871114D01*
X163603285Y-97792927D01*
X163703148Y-97791909D01*
X163707053Y-97901161D01*
X163890080Y-97901161D01*
X163890349Y-97832212D01*
X163914487Y-97786307D01*
X163997049Y-97783586D01*
X164172674Y-97823416D01*
X164475996Y-97905163D01*
X164496995Y-97910842D01*
X164997637Y-98004345D01*
X165617684Y-98055158D01*
X166312931Y-98064254D01*
X167039174Y-98032604D01*
X167752211Y-97961181D01*
X168407836Y-97850956D01*
X168538325Y-97821982D01*
X169004342Y-97714729D01*
X169330583Y-97645499D01*
X169541752Y-97612063D01*
X169662555Y-97612194D01*
X169717695Y-97643665D01*
X169731876Y-97704248D01*
X169732000Y-97714343D01*
X169889986Y-97714343D01*
X169901237Y-97691143D01*
X169901333Y-97685802D01*
X169970455Y-97532805D01*
X170134166Y-97462491D01*
X170484470Y-97382757D01*
X170703915Y-97320810D01*
X170825708Y-97252532D01*
X170883057Y-97153802D01*
X170909168Y-97000502D01*
X170921492Y-96890634D01*
X170926048Y-96808512D01*
X170801753Y-96808512D01*
X170746976Y-97005644D01*
X170651427Y-97165364D01*
X170590487Y-97207340D01*
X170472955Y-97235188D01*
X170220081Y-97291734D01*
X169862144Y-97370408D01*
X169429422Y-97464646D01*
X168952194Y-97567879D01*
X168460739Y-97673541D01*
X167985335Y-97775064D01*
X167556261Y-97865882D01*
X167488333Y-97880155D01*
X167259472Y-97906099D01*
X166907268Y-97920550D01*
X166477279Y-97924129D01*
X166015063Y-97917460D01*
X165566175Y-97901165D01*
X165176174Y-97875869D01*
X164906510Y-97844852D01*
X164548844Y-97770457D01*
X164198220Y-97671295D01*
X163996343Y-97596252D01*
X163937020Y-97566454D01*
X163591840Y-97566454D01*
X163518069Y-97646840D01*
X163447467Y-97677967D01*
X163240713Y-97731066D01*
X162991428Y-97756135D01*
X162754614Y-97753230D01*
X162585273Y-97722410D01*
X162535333Y-97677013D01*
X162605897Y-97588810D01*
X162778921Y-97488990D01*
X162810500Y-97475489D01*
X163119077Y-97355796D01*
X163313116Y-97304970D01*
X163431658Y-97320552D01*
X163513744Y-97400084D01*
X163533329Y-97429967D01*
X163591840Y-97566454D01*
X163937020Y-97566454D01*
X163773888Y-97484514D01*
X163668443Y-97373500D01*
X163637272Y-97207760D01*
X163636000Y-97128705D01*
X163656875Y-96917720D01*
X163722703Y-96859269D01*
X163741833Y-96864892D01*
X164073201Y-96993842D01*
X164383309Y-97087149D01*
X164709581Y-97149981D01*
X165089440Y-97187508D01*
X165560311Y-97204900D01*
X166159615Y-97207328D01*
X166218333Y-97207006D01*
X166780144Y-97200047D01*
X167244258Y-97183203D01*
X167662598Y-97151191D01*
X168087085Y-97098726D01*
X168569642Y-97020524D01*
X169162191Y-96911300D01*
X169206132Y-96902928D01*
X169695243Y-96812502D01*
X170124206Y-96738695D01*
X170466577Y-96685605D01*
X170695916Y-96657330D01*
X170785779Y-96657970D01*
X170785845Y-96658071D01*
X170801753Y-96808512D01*
X170926048Y-96808512D01*
X170936583Y-96618631D01*
X170897854Y-96465454D01*
X170748821Y-96465454D01*
X168949244Y-96776438D01*
X168401980Y-96870631D01*
X167897461Y-96956759D01*
X167464468Y-97029963D01*
X167131782Y-97085386D01*
X166928182Y-97118173D01*
X166895666Y-97122996D01*
X166592471Y-97141639D01*
X166177116Y-97136055D01*
X165704425Y-97110131D01*
X165229221Y-97067751D01*
X164806329Y-97012801D01*
X164507784Y-96953756D01*
X164117100Y-96831054D01*
X163826730Y-96696978D01*
X163760187Y-96643503D01*
X163461984Y-96643503D01*
X163448426Y-96713284D01*
X163285966Y-96784207D01*
X163233833Y-96796592D01*
X162781769Y-96923535D01*
X162417008Y-97085976D01*
X162175365Y-97266872D01*
X162133504Y-97320240D01*
X162021479Y-97441870D01*
X161957836Y-97427171D01*
X161958576Y-97306027D01*
X162029751Y-97126482D01*
X162222408Y-96919004D01*
X162537653Y-96744846D01*
X162929066Y-96626786D01*
X163103432Y-96599586D01*
X163341899Y-96597919D01*
X163461984Y-96643503D01*
X163760187Y-96643503D01*
X163662821Y-96565259D01*
X163636000Y-96496000D01*
X163717114Y-96366617D01*
X163946766Y-96237047D01*
X164304414Y-96116442D01*
X164681540Y-96030127D01*
X165444475Y-95913630D01*
X166247177Y-95852303D01*
X167123164Y-95845472D01*
X168105952Y-95892463D01*
X168777293Y-95947741D01*
X169348751Y-96002599D01*
X169775807Y-96048744D01*
X170082874Y-96090716D01*
X170294365Y-96133054D01*
X170434692Y-96180300D01*
X170528268Y-96236992D01*
X170576870Y-96282422D01*
X170748821Y-96465454D01*
X170897854Y-96465454D01*
X170888524Y-96428555D01*
X170756154Y-96238287D01*
X170752159Y-96233507D01*
X170536333Y-95975821D01*
X168843000Y-95804420D01*
X168214411Y-95743440D01*
X167711708Y-95702561D01*
X167292782Y-95680616D01*
X166915527Y-95676436D01*
X166537837Y-95688855D01*
D13*
X126450000Y-106000000D02*
G75*
G03X126450000Y-106000000I-950000J0D01*
G01*
X132367369Y-109720292D02*
X132636777Y-109450885D01*
X132726580Y-110079503D02*
X132367369Y-109720292D01*
X132995987Y-109810095D02*
X132726580Y-110079503D01*
X132636777Y-109450885D02*
X132995987Y-109810095D01*
X150367369Y-109720292D02*
X150636777Y-109450885D01*
X150726580Y-110079503D02*
X150367369Y-109720292D01*
X150995987Y-109810095D02*
X150726580Y-110079503D01*
X150636777Y-109450885D02*
X150995987Y-109810095D01*
X143698000Y-118237000D02*
G75*
G03X143698000Y-118237000I-950000J0D01*
G01*
D14*
X126261904Y-107500000D02*
X126357142Y-107452380D01*
X126500000Y-107452380D01*
X126642857Y-107500000D01*
X126738095Y-107595238D01*
X126785714Y-107690476D01*
X126833333Y-107880952D01*
X126833333Y-108023809D01*
X126785714Y-108214285D01*
X126738095Y-108309523D01*
X126642857Y-108404761D01*
X126500000Y-108452380D01*
X126404761Y-108452380D01*
X126261904Y-108404761D01*
X126214285Y-108357142D01*
X126214285Y-108023809D01*
X126404761Y-108023809D01*
X125785714Y-108452380D02*
X125785714Y-107452380D01*
X125214285Y-108452380D01*
X125214285Y-107452380D01*
X124738095Y-108452380D02*
X124738095Y-107452380D01*
X124500000Y-107452380D01*
X124357142Y-107500000D01*
X124261904Y-107595238D01*
X124214285Y-107690476D01*
X124166666Y-107880952D01*
X124166666Y-108023809D01*
X124214285Y-108214285D01*
X124261904Y-108309523D01*
X124357142Y-108404761D01*
X124500000Y-108452380D01*
X124738095Y-108452380D01*
X135516428Y-107396761D02*
X135373571Y-107444380D01*
X135135476Y-107444380D01*
X135040238Y-107396761D01*
X134992619Y-107349142D01*
X134945000Y-107253904D01*
X134945000Y-107158666D01*
X134992619Y-107063428D01*
X135040238Y-107015809D01*
X135135476Y-106968190D01*
X135325952Y-106920571D01*
X135421190Y-106872952D01*
X135468809Y-106825333D01*
X135516428Y-106730095D01*
X135516428Y-106634857D01*
X135468809Y-106539619D01*
X135421190Y-106492000D01*
X135325952Y-106444380D01*
X135087857Y-106444380D01*
X134945000Y-106492000D01*
X134516428Y-107444380D02*
X134516428Y-106777714D01*
X134516428Y-106444380D02*
X134564047Y-106492000D01*
X134516428Y-106539619D01*
X134468809Y-106492000D01*
X134516428Y-106444380D01*
X134516428Y-106539619D01*
X134040238Y-107444380D02*
X134040238Y-106444380D01*
X133659285Y-106444380D01*
X133564047Y-106492000D01*
X133516428Y-106539619D01*
X133468809Y-106634857D01*
X133468809Y-106777714D01*
X133516428Y-106872952D01*
X133564047Y-106920571D01*
X133659285Y-106968190D01*
X134040238Y-106968190D01*
X133040238Y-107444380D02*
X133040238Y-106444380D01*
X132706904Y-107158666D01*
X132373571Y-106444380D01*
X132373571Y-107444380D01*
X131373571Y-107444380D02*
X131945000Y-107444380D01*
X131659285Y-107444380D02*
X131659285Y-106444380D01*
X131754523Y-106587238D01*
X131849761Y-106682476D01*
X131945000Y-106730095D01*
X153516428Y-107396761D02*
X153373571Y-107444380D01*
X153135476Y-107444380D01*
X153040238Y-107396761D01*
X152992619Y-107349142D01*
X152945000Y-107253904D01*
X152945000Y-107158666D01*
X152992619Y-107063428D01*
X153040238Y-107015809D01*
X153135476Y-106968190D01*
X153325952Y-106920571D01*
X153421190Y-106872952D01*
X153468809Y-106825333D01*
X153516428Y-106730095D01*
X153516428Y-106634857D01*
X153468809Y-106539619D01*
X153421190Y-106492000D01*
X153325952Y-106444380D01*
X153087857Y-106444380D01*
X152945000Y-106492000D01*
X152516428Y-107444380D02*
X152516428Y-106777714D01*
X152516428Y-106444380D02*
X152564047Y-106492000D01*
X152516428Y-106539619D01*
X152468809Y-106492000D01*
X152516428Y-106444380D01*
X152516428Y-106539619D01*
X152040238Y-107444380D02*
X152040238Y-106444380D01*
X151659285Y-106444380D01*
X151564047Y-106492000D01*
X151516428Y-106539619D01*
X151468809Y-106634857D01*
X151468809Y-106777714D01*
X151516428Y-106872952D01*
X151564047Y-106920571D01*
X151659285Y-106968190D01*
X152040238Y-106968190D01*
X151040238Y-107444380D02*
X151040238Y-106444380D01*
X150706904Y-107158666D01*
X150373571Y-106444380D01*
X150373571Y-107444380D01*
X149945000Y-106539619D02*
X149897380Y-106492000D01*
X149802142Y-106444380D01*
X149564047Y-106444380D01*
X149468809Y-106492000D01*
X149421190Y-106539619D01*
X149373571Y-106634857D01*
X149373571Y-106730095D01*
X149421190Y-106872952D01*
X149992619Y-107444380D01*
X149373571Y-107444380D01*
X143882904Y-119467380D02*
X143311476Y-119467380D01*
X143597190Y-120467380D02*
X143597190Y-119467380D01*
X142978142Y-120467380D02*
X142978142Y-119467380D01*
X142597190Y-119467380D01*
X142501952Y-119515000D01*
X142454333Y-119562619D01*
X142406714Y-119657857D01*
X142406714Y-119800714D01*
X142454333Y-119895952D01*
X142501952Y-119943571D01*
X142597190Y-119991190D01*
X142978142Y-119991190D01*
X141454333Y-120467380D02*
X142025761Y-120467380D01*
X141740047Y-120467380D02*
X141740047Y-119467380D01*
X141835285Y-119610238D01*
X141930523Y-119705476D01*
X142025761Y-119753095D01*
M02*
