G04 #@! TF.GenerationSoftware,KiCad,Pcbnew,(5.1.9-0-10_14)*
G04 #@! TF.CreationDate,2021-05-06T17:38:12-07:00*
G04 #@! TF.ProjectId,Luminometer_ADC,4c756d69-6e6f-46d6-9574-65725f414443,rev?*
G04 #@! TF.SameCoordinates,Original*
G04 #@! TF.FileFunction,Paste,Bot*
G04 #@! TF.FilePolarity,Positive*
%FSLAX46Y46*%
G04 Gerber Fmt 4.6, Leading zero omitted, Abs format (unit mm)*
G04 Created by KiCad (PCBNEW (5.1.9-0-10_14)) date 2021-05-06 17:38:12*
%MOMM*%
%LPD*%
G01*
G04 APERTURE LIST*
G04 APERTURE END LIST*
G36*
G01*
X138111091Y-110934136D02*
X138676777Y-110368450D01*
G75*
G02*
X138888909Y-110368450I106066J-106066D01*
G01*
X139101041Y-110580582D01*
G75*
G02*
X139101041Y-110792714I-106066J-106066D01*
G01*
X138535355Y-111358400D01*
G75*
G02*
X138323223Y-111358400I-106066J106066D01*
G01*
X138111091Y-111146268D01*
G75*
G02*
X138111091Y-110934136I106066J106066D01*
G01*
G37*
G36*
G01*
X142565864Y-114611091D02*
X143131550Y-115176777D01*
G75*
G02*
X143131550Y-115388909I-106066J-106066D01*
G01*
X142919418Y-115601041D01*
G75*
G02*
X142707286Y-115601041I-106066J106066D01*
G01*
X142141600Y-115035355D01*
G75*
G02*
X142141600Y-114823223I106066J106066D01*
G01*
X142353732Y-114611091D01*
G75*
G02*
X142565864Y-114611091I106066J-106066D01*
G01*
G37*
G36*
G01*
X137898959Y-119207286D02*
X138464645Y-118641600D01*
G75*
G02*
X138676777Y-118641600I106066J-106066D01*
G01*
X138888909Y-118853732D01*
G75*
G02*
X138888909Y-119065864I-106066J-106066D01*
G01*
X138323223Y-119631550D01*
G75*
G02*
X138111091Y-119631550I-106066J106066D01*
G01*
X137898959Y-119419418D01*
G75*
G02*
X137898959Y-119207286I106066J106066D01*
G01*
G37*
G36*
G01*
X134292714Y-114398959D02*
X134858400Y-114964645D01*
G75*
G02*
X134858400Y-115176777I-106066J-106066D01*
G01*
X134646268Y-115388909D01*
G75*
G02*
X134434136Y-115388909I-106066J106066D01*
G01*
X133868450Y-114823223D01*
G75*
G02*
X133868450Y-114611091I106066J106066D01*
G01*
X134080582Y-114398959D01*
G75*
G02*
X134292714Y-114398959I106066J-106066D01*
G01*
G37*
G36*
G01*
X156111091Y-110934136D02*
X156676777Y-110368450D01*
G75*
G02*
X156888909Y-110368450I106066J-106066D01*
G01*
X157101041Y-110580582D01*
G75*
G02*
X157101041Y-110792714I-106066J-106066D01*
G01*
X156535355Y-111358400D01*
G75*
G02*
X156323223Y-111358400I-106066J106066D01*
G01*
X156111091Y-111146268D01*
G75*
G02*
X156111091Y-110934136I106066J106066D01*
G01*
G37*
G36*
G01*
X160565864Y-114611091D02*
X161131550Y-115176777D01*
G75*
G02*
X161131550Y-115388909I-106066J-106066D01*
G01*
X160919418Y-115601041D01*
G75*
G02*
X160707286Y-115601041I-106066J106066D01*
G01*
X160141600Y-115035355D01*
G75*
G02*
X160141600Y-114823223I106066J106066D01*
G01*
X160353732Y-114611091D01*
G75*
G02*
X160565864Y-114611091I106066J-106066D01*
G01*
G37*
G36*
G01*
X155898959Y-119207286D02*
X156464645Y-118641600D01*
G75*
G02*
X156676777Y-118641600I106066J-106066D01*
G01*
X156888909Y-118853732D01*
G75*
G02*
X156888909Y-119065864I-106066J-106066D01*
G01*
X156323223Y-119631550D01*
G75*
G02*
X156111091Y-119631550I-106066J106066D01*
G01*
X155898959Y-119419418D01*
G75*
G02*
X155898959Y-119207286I106066J106066D01*
G01*
G37*
G36*
G01*
X152292714Y-114398959D02*
X152858400Y-114964645D01*
G75*
G02*
X152858400Y-115176777I-106066J-106066D01*
G01*
X152646268Y-115388909D01*
G75*
G02*
X152434136Y-115388909I-106066J106066D01*
G01*
X151868450Y-114823223D01*
G75*
G02*
X151868450Y-114611091I106066J106066D01*
G01*
X152080582Y-114398959D01*
G75*
G02*
X152292714Y-114398959I106066J-106066D01*
G01*
G37*
M02*
