G04 #@! TF.GenerationSoftware,KiCad,Pcbnew,(5.1.5-0)*
G04 #@! TF.CreationDate,2020-09-22T17:23:07-07:00*
G04 #@! TF.ProjectId,Luminometer_ADC,4c756d69-6e6f-46d6-9574-65725f414443,rev?*
G04 #@! TF.SameCoordinates,Original*
G04 #@! TF.FileFunction,Soldermask,Bot*
G04 #@! TF.FilePolarity,Negative*
%FSLAX46Y46*%
G04 Gerber Fmt 4.6, Leading zero omitted, Abs format (unit mm)*
G04 Created by KiCad (PCBNEW (5.1.5-0)) date 2020-09-22 17:23:07*
%MOMM*%
%LPD*%
G04 APERTURE LIST*
%ADD10C,0.100000*%
G04 APERTURE END LIST*
D10*
G36*
X175634239Y-121811467D02*
G01*
X175948282Y-121873934D01*
X176539926Y-122119001D01*
X177072392Y-122474784D01*
X177525216Y-122927608D01*
X177880999Y-123460074D01*
X178126066Y-124051718D01*
X178251000Y-124679804D01*
X178251000Y-125320196D01*
X178126066Y-125948282D01*
X177880999Y-126539926D01*
X177525216Y-127072392D01*
X177072392Y-127525216D01*
X176539926Y-127880999D01*
X175948282Y-128126066D01*
X175634239Y-128188533D01*
X175320197Y-128251000D01*
X174679803Y-128251000D01*
X174365761Y-128188533D01*
X174051718Y-128126066D01*
X173460074Y-127880999D01*
X172927608Y-127525216D01*
X172474784Y-127072392D01*
X172119001Y-126539926D01*
X171873934Y-125948282D01*
X171749000Y-125320196D01*
X171749000Y-124679804D01*
X171873934Y-124051718D01*
X172119001Y-123460074D01*
X172474784Y-122927608D01*
X172927608Y-122474784D01*
X173460074Y-122119001D01*
X174051718Y-121873934D01*
X174365761Y-121811467D01*
X174679803Y-121749000D01*
X175320197Y-121749000D01*
X175634239Y-121811467D01*
G37*
G36*
X120634239Y-121811467D02*
G01*
X120948282Y-121873934D01*
X121539926Y-122119001D01*
X122072392Y-122474784D01*
X122525216Y-122927608D01*
X122880999Y-123460074D01*
X123126066Y-124051718D01*
X123251000Y-124679804D01*
X123251000Y-125320196D01*
X123126066Y-125948282D01*
X122880999Y-126539926D01*
X122525216Y-127072392D01*
X122072392Y-127525216D01*
X121539926Y-127880999D01*
X120948282Y-128126066D01*
X120634239Y-128188533D01*
X120320197Y-128251000D01*
X119679803Y-128251000D01*
X119365761Y-128188533D01*
X119051718Y-128126066D01*
X118460074Y-127880999D01*
X117927608Y-127525216D01*
X117474784Y-127072392D01*
X117119001Y-126539926D01*
X116873934Y-125948282D01*
X116749000Y-125320196D01*
X116749000Y-124679804D01*
X116873934Y-124051718D01*
X117119001Y-123460074D01*
X117474784Y-122927608D01*
X117927608Y-122474784D01*
X118460074Y-122119001D01*
X119051718Y-121873934D01*
X119365761Y-121811467D01*
X119679803Y-121749000D01*
X120320197Y-121749000D01*
X120634239Y-121811467D01*
G37*
G36*
X138536642Y-117974781D02*
G01*
X138682414Y-118035162D01*
X138682416Y-118035163D01*
X138813608Y-118122822D01*
X138925178Y-118234392D01*
X139012837Y-118365584D01*
X139012838Y-118365586D01*
X139073219Y-118511358D01*
X139104000Y-118666107D01*
X139104000Y-118823893D01*
X139073219Y-118978642D01*
X139040990Y-119056449D01*
X139012837Y-119124416D01*
X138925178Y-119255608D01*
X138813608Y-119367178D01*
X138682416Y-119454837D01*
X138682415Y-119454838D01*
X138682414Y-119454838D01*
X138536642Y-119515219D01*
X138381893Y-119546000D01*
X138224107Y-119546000D01*
X138069358Y-119515219D01*
X137923586Y-119454838D01*
X137923585Y-119454838D01*
X137923584Y-119454837D01*
X137792392Y-119367178D01*
X137680822Y-119255608D01*
X137593163Y-119124416D01*
X137565010Y-119056449D01*
X137532781Y-118978642D01*
X137502000Y-118823893D01*
X137502000Y-118666107D01*
X137532781Y-118511358D01*
X137593162Y-118365586D01*
X137593163Y-118365584D01*
X137680822Y-118234392D01*
X137792392Y-118122822D01*
X137923584Y-118035163D01*
X137923586Y-118035162D01*
X138069358Y-117974781D01*
X138224107Y-117944000D01*
X138381893Y-117944000D01*
X138536642Y-117974781D01*
G37*
G36*
X127425639Y-118131979D02*
G01*
X127446720Y-118138375D01*
X127466156Y-118148763D01*
X127487953Y-118166651D01*
X127815858Y-118494556D01*
X127833746Y-118516353D01*
X127844134Y-118535789D01*
X127850530Y-118556870D01*
X127852689Y-118578798D01*
X127850530Y-118600726D01*
X127844134Y-118621807D01*
X127833746Y-118641243D01*
X127815858Y-118663040D01*
X127134399Y-119344499D01*
X127112602Y-119362387D01*
X127093166Y-119372775D01*
X127072085Y-119379171D01*
X127050157Y-119381330D01*
X127028229Y-119379171D01*
X127007148Y-119372775D01*
X126987712Y-119362387D01*
X126965915Y-119344499D01*
X126638010Y-119016594D01*
X126620122Y-118994797D01*
X126609734Y-118975361D01*
X126603338Y-118954280D01*
X126601179Y-118932352D01*
X126603338Y-118910424D01*
X126609734Y-118889343D01*
X126620122Y-118869907D01*
X126638010Y-118848110D01*
X127319469Y-118166651D01*
X127341266Y-118148763D01*
X127360702Y-118138375D01*
X127381783Y-118131979D01*
X127403711Y-118129820D01*
X127425639Y-118131979D01*
G37*
G36*
X148925639Y-118131979D02*
G01*
X148946720Y-118138375D01*
X148966156Y-118148763D01*
X148987953Y-118166651D01*
X149315858Y-118494556D01*
X149333746Y-118516353D01*
X149344134Y-118535789D01*
X149350530Y-118556870D01*
X149352689Y-118578798D01*
X149350530Y-118600726D01*
X149344134Y-118621807D01*
X149333746Y-118641243D01*
X149315858Y-118663040D01*
X148634399Y-119344499D01*
X148612602Y-119362387D01*
X148593166Y-119372775D01*
X148572085Y-119379171D01*
X148550157Y-119381330D01*
X148528229Y-119379171D01*
X148507148Y-119372775D01*
X148487712Y-119362387D01*
X148465915Y-119344499D01*
X148138010Y-119016594D01*
X148120122Y-118994797D01*
X148109734Y-118975361D01*
X148103338Y-118954280D01*
X148101179Y-118932352D01*
X148103338Y-118910424D01*
X148109734Y-118889343D01*
X148120122Y-118869907D01*
X148138010Y-118848110D01*
X148819469Y-118166651D01*
X148841266Y-118148763D01*
X148860702Y-118138375D01*
X148881783Y-118131979D01*
X148903711Y-118129820D01*
X148925639Y-118131979D01*
G37*
G36*
X131314726Y-114101470D02*
G01*
X131335807Y-114107866D01*
X131355243Y-114118254D01*
X131377040Y-114136142D01*
X132058499Y-114817601D01*
X132076387Y-114839398D01*
X132086775Y-114858834D01*
X132093171Y-114879915D01*
X132095330Y-114901843D01*
X132093171Y-114923771D01*
X132086775Y-114944852D01*
X132076387Y-114964288D01*
X132058499Y-114986085D01*
X131730594Y-115313990D01*
X131708797Y-115331878D01*
X131689361Y-115342266D01*
X131668280Y-115348662D01*
X131646352Y-115350821D01*
X131624424Y-115348662D01*
X131603343Y-115342266D01*
X131583907Y-115331878D01*
X131562110Y-115313990D01*
X130880651Y-114632531D01*
X130862763Y-114610734D01*
X130852375Y-114591298D01*
X130845979Y-114570217D01*
X130843820Y-114548289D01*
X130845979Y-114526361D01*
X130852375Y-114505280D01*
X130862763Y-114485844D01*
X130880651Y-114464047D01*
X131208556Y-114136142D01*
X131230353Y-114118254D01*
X131249789Y-114107866D01*
X131270870Y-114101470D01*
X131292798Y-114099311D01*
X131314726Y-114101470D01*
G37*
G36*
X152814726Y-114101470D02*
G01*
X152835807Y-114107866D01*
X152855243Y-114118254D01*
X152877040Y-114136142D01*
X153558499Y-114817601D01*
X153576387Y-114839398D01*
X153586775Y-114858834D01*
X153593171Y-114879915D01*
X153595330Y-114901843D01*
X153593171Y-114923771D01*
X153586775Y-114944852D01*
X153576387Y-114964288D01*
X153558499Y-114986085D01*
X153230594Y-115313990D01*
X153208797Y-115331878D01*
X153189361Y-115342266D01*
X153168280Y-115348662D01*
X153146352Y-115350821D01*
X153124424Y-115348662D01*
X153103343Y-115342266D01*
X153083907Y-115331878D01*
X153062110Y-115313990D01*
X152380651Y-114632531D01*
X152362763Y-114610734D01*
X152352375Y-114591298D01*
X152345979Y-114570217D01*
X152343820Y-114548289D01*
X152345979Y-114526361D01*
X152352375Y-114505280D01*
X152362763Y-114485844D01*
X152380651Y-114464047D01*
X152708556Y-114136142D01*
X152730353Y-114118254D01*
X152749789Y-114107866D01*
X152770870Y-114101470D01*
X152792798Y-114099311D01*
X152814726Y-114101470D01*
G37*
G36*
X123041576Y-113889338D02*
G01*
X123062657Y-113895734D01*
X123082093Y-113906122D01*
X123103890Y-113924010D01*
X123785349Y-114605469D01*
X123803237Y-114627266D01*
X123813625Y-114646702D01*
X123820021Y-114667783D01*
X123822180Y-114689711D01*
X123820021Y-114711639D01*
X123813625Y-114732720D01*
X123803237Y-114752156D01*
X123785349Y-114773953D01*
X123457444Y-115101858D01*
X123435647Y-115119746D01*
X123416211Y-115130134D01*
X123395130Y-115136530D01*
X123373202Y-115138689D01*
X123351274Y-115136530D01*
X123330193Y-115130134D01*
X123310757Y-115119746D01*
X123288960Y-115101858D01*
X122607501Y-114420399D01*
X122589613Y-114398602D01*
X122579225Y-114379166D01*
X122572829Y-114358085D01*
X122570670Y-114336157D01*
X122572829Y-114314229D01*
X122579225Y-114293148D01*
X122589613Y-114273712D01*
X122607501Y-114251915D01*
X122935406Y-113924010D01*
X122957203Y-113906122D01*
X122976639Y-113895734D01*
X122997720Y-113889338D01*
X123019648Y-113887179D01*
X123041576Y-113889338D01*
G37*
G36*
X144541576Y-113889338D02*
G01*
X144562657Y-113895734D01*
X144582093Y-113906122D01*
X144603890Y-113924010D01*
X145285349Y-114605469D01*
X145303237Y-114627266D01*
X145313625Y-114646702D01*
X145320021Y-114667783D01*
X145322180Y-114689711D01*
X145320021Y-114711639D01*
X145313625Y-114732720D01*
X145303237Y-114752156D01*
X145285349Y-114773953D01*
X144957444Y-115101858D01*
X144935647Y-115119746D01*
X144916211Y-115130134D01*
X144895130Y-115136530D01*
X144873202Y-115138689D01*
X144851274Y-115136530D01*
X144830193Y-115130134D01*
X144810757Y-115119746D01*
X144788960Y-115101858D01*
X144107501Y-114420399D01*
X144089613Y-114398602D01*
X144079225Y-114379166D01*
X144072829Y-114358085D01*
X144070670Y-114336157D01*
X144072829Y-114314229D01*
X144079225Y-114293148D01*
X144089613Y-114273712D01*
X144107501Y-114251915D01*
X144435406Y-113924010D01*
X144457203Y-113906122D01*
X144476639Y-113895734D01*
X144497720Y-113889338D01*
X144519648Y-113887179D01*
X144541576Y-113889338D01*
G37*
G36*
X127637771Y-109858829D02*
G01*
X127658852Y-109865225D01*
X127678288Y-109875613D01*
X127700085Y-109893501D01*
X128027990Y-110221406D01*
X128045878Y-110243203D01*
X128056266Y-110262639D01*
X128062662Y-110283720D01*
X128064821Y-110305648D01*
X128062662Y-110327576D01*
X128056266Y-110348657D01*
X128045878Y-110368093D01*
X128027990Y-110389890D01*
X127346531Y-111071349D01*
X127324734Y-111089237D01*
X127305298Y-111099625D01*
X127284217Y-111106021D01*
X127262289Y-111108180D01*
X127240361Y-111106021D01*
X127219280Y-111099625D01*
X127199844Y-111089237D01*
X127178047Y-111071349D01*
X126850142Y-110743444D01*
X126832254Y-110721647D01*
X126821866Y-110702211D01*
X126815470Y-110681130D01*
X126813311Y-110659202D01*
X126815470Y-110637274D01*
X126821866Y-110616193D01*
X126832254Y-110596757D01*
X126850142Y-110574960D01*
X127531601Y-109893501D01*
X127553398Y-109875613D01*
X127572834Y-109865225D01*
X127593915Y-109858829D01*
X127615843Y-109856670D01*
X127637771Y-109858829D01*
G37*
G36*
X149137771Y-109858829D02*
G01*
X149158852Y-109865225D01*
X149178288Y-109875613D01*
X149200085Y-109893501D01*
X149527990Y-110221406D01*
X149545878Y-110243203D01*
X149556266Y-110262639D01*
X149562662Y-110283720D01*
X149564821Y-110305648D01*
X149562662Y-110327576D01*
X149556266Y-110348657D01*
X149545878Y-110368093D01*
X149527990Y-110389890D01*
X148846531Y-111071349D01*
X148824734Y-111089237D01*
X148805298Y-111099625D01*
X148784217Y-111106021D01*
X148762289Y-111108180D01*
X148740361Y-111106021D01*
X148719280Y-111099625D01*
X148699844Y-111089237D01*
X148678047Y-111071349D01*
X148350142Y-110743444D01*
X148332254Y-110721647D01*
X148321866Y-110702211D01*
X148315470Y-110681130D01*
X148313311Y-110659202D01*
X148315470Y-110637274D01*
X148321866Y-110616193D01*
X148332254Y-110596757D01*
X148350142Y-110574960D01*
X149031601Y-109893501D01*
X149053398Y-109875613D01*
X149072834Y-109865225D01*
X149093915Y-109858829D01*
X149115843Y-109856670D01*
X149137771Y-109858829D01*
G37*
G36*
X161109766Y-88170899D02*
G01*
X161241888Y-88225626D01*
X161241890Y-88225627D01*
X161360798Y-88305079D01*
X161461921Y-88406202D01*
X161461922Y-88406204D01*
X161541374Y-88525112D01*
X161596101Y-88657234D01*
X161624000Y-88797494D01*
X161624000Y-88940506D01*
X161596101Y-89080766D01*
X161541374Y-89212888D01*
X161541373Y-89212890D01*
X161461921Y-89331798D01*
X161360798Y-89432921D01*
X161241890Y-89512373D01*
X161241889Y-89512374D01*
X161241888Y-89512374D01*
X161109766Y-89567101D01*
X160969506Y-89595000D01*
X160826494Y-89595000D01*
X160686234Y-89567101D01*
X160554112Y-89512374D01*
X160554111Y-89512374D01*
X160554110Y-89512373D01*
X160435202Y-89432921D01*
X160334079Y-89331798D01*
X160254627Y-89212890D01*
X160254626Y-89212888D01*
X160199899Y-89080766D01*
X160172000Y-88940506D01*
X160172000Y-88797494D01*
X160199899Y-88657234D01*
X160254626Y-88525112D01*
X160334078Y-88406204D01*
X160334079Y-88406202D01*
X160435202Y-88305079D01*
X160554110Y-88225627D01*
X160554112Y-88225626D01*
X160686234Y-88170899D01*
X160826494Y-88143000D01*
X160969506Y-88143000D01*
X161109766Y-88170899D01*
G37*
G36*
X172979766Y-88170899D02*
G01*
X173111888Y-88225626D01*
X173111890Y-88225627D01*
X173230798Y-88305079D01*
X173331921Y-88406202D01*
X173331922Y-88406204D01*
X173411374Y-88525112D01*
X173466101Y-88657234D01*
X173494000Y-88797494D01*
X173494000Y-88940506D01*
X173466101Y-89080766D01*
X173411374Y-89212888D01*
X173411373Y-89212890D01*
X173331921Y-89331798D01*
X173230798Y-89432921D01*
X173111890Y-89512373D01*
X173111889Y-89512374D01*
X173111888Y-89512374D01*
X172979766Y-89567101D01*
X172839506Y-89595000D01*
X172696494Y-89595000D01*
X172556234Y-89567101D01*
X172424112Y-89512374D01*
X172424111Y-89512374D01*
X172424110Y-89512373D01*
X172305202Y-89432921D01*
X172204079Y-89331798D01*
X172124627Y-89212890D01*
X172124626Y-89212888D01*
X172069899Y-89080766D01*
X172042000Y-88940506D01*
X172042000Y-88797494D01*
X172069899Y-88657234D01*
X172124626Y-88525112D01*
X172204078Y-88406204D01*
X172204079Y-88406202D01*
X172305202Y-88305079D01*
X172424110Y-88225627D01*
X172424112Y-88225626D01*
X172556234Y-88170899D01*
X172696494Y-88143000D01*
X172839506Y-88143000D01*
X172979766Y-88170899D01*
G37*
G36*
X120634239Y-81811467D02*
G01*
X120948282Y-81873934D01*
X121539926Y-82119001D01*
X122072392Y-82474784D01*
X122525216Y-82927608D01*
X122880999Y-83460074D01*
X123126066Y-84051718D01*
X123129126Y-84067101D01*
X123251000Y-84679803D01*
X123251000Y-85320197D01*
X123242117Y-85364853D01*
X123126066Y-85948282D01*
X122880999Y-86539926D01*
X122525216Y-87072392D01*
X122072392Y-87525216D01*
X121539926Y-87880999D01*
X120948282Y-88126066D01*
X120722891Y-88170899D01*
X120320197Y-88251000D01*
X119679803Y-88251000D01*
X119277109Y-88170899D01*
X119051718Y-88126066D01*
X118460074Y-87880999D01*
X117927608Y-87525216D01*
X117474784Y-87072392D01*
X117119001Y-86539926D01*
X116873934Y-85948282D01*
X116757883Y-85364853D01*
X116749000Y-85320197D01*
X116749000Y-84679803D01*
X116870874Y-84067101D01*
X116873934Y-84051718D01*
X117119001Y-83460074D01*
X117474784Y-82927608D01*
X117927608Y-82474784D01*
X118460074Y-82119001D01*
X119051718Y-81873934D01*
X119365761Y-81811467D01*
X119679803Y-81749000D01*
X120320197Y-81749000D01*
X120634239Y-81811467D01*
G37*
G36*
X161696228Y-85300703D02*
G01*
X161851100Y-85364853D01*
X161990481Y-85457985D01*
X162109015Y-85576519D01*
X162202147Y-85715900D01*
X162266297Y-85870772D01*
X162299000Y-86035184D01*
X162299000Y-86202816D01*
X162266297Y-86367228D01*
X162202147Y-86522100D01*
X162109015Y-86661481D01*
X161990481Y-86780015D01*
X161851100Y-86873147D01*
X161696228Y-86937297D01*
X161531816Y-86970000D01*
X161364184Y-86970000D01*
X161199772Y-86937297D01*
X161044900Y-86873147D01*
X160905519Y-86780015D01*
X160786985Y-86661481D01*
X160693853Y-86522100D01*
X160629703Y-86367228D01*
X160597000Y-86202816D01*
X160597000Y-86035184D01*
X160629703Y-85870772D01*
X160693853Y-85715900D01*
X160786985Y-85576519D01*
X160905519Y-85457985D01*
X161044900Y-85364853D01*
X161199772Y-85300703D01*
X161364184Y-85268000D01*
X161531816Y-85268000D01*
X161696228Y-85300703D01*
G37*
G36*
X172466228Y-85300703D02*
G01*
X172621100Y-85364853D01*
X172760481Y-85457985D01*
X172879015Y-85576519D01*
X172972147Y-85715900D01*
X173036297Y-85870772D01*
X173069000Y-86035184D01*
X173069000Y-86202816D01*
X173036297Y-86367228D01*
X172972147Y-86522100D01*
X172879015Y-86661481D01*
X172760481Y-86780015D01*
X172621100Y-86873147D01*
X172466228Y-86937297D01*
X172301816Y-86970000D01*
X172134184Y-86970000D01*
X171969772Y-86937297D01*
X171814900Y-86873147D01*
X171675519Y-86780015D01*
X171556985Y-86661481D01*
X171463853Y-86522100D01*
X171399703Y-86367228D01*
X171367000Y-86202816D01*
X171367000Y-86035184D01*
X171399703Y-85870772D01*
X171463853Y-85715900D01*
X171556985Y-85576519D01*
X171675519Y-85457985D01*
X171814900Y-85364853D01*
X171969772Y-85300703D01*
X172134184Y-85268000D01*
X172301816Y-85268000D01*
X172466228Y-85300703D01*
G37*
G36*
X161109766Y-82670899D02*
G01*
X161241888Y-82725626D01*
X161241890Y-82725627D01*
X161360798Y-82805079D01*
X161461921Y-82906202D01*
X161541373Y-83025110D01*
X161541374Y-83025112D01*
X161596101Y-83157234D01*
X161624000Y-83297494D01*
X161624000Y-83440506D01*
X161596101Y-83580766D01*
X161541374Y-83712888D01*
X161541373Y-83712890D01*
X161461921Y-83831798D01*
X161360798Y-83932921D01*
X161241890Y-84012373D01*
X161241889Y-84012374D01*
X161241888Y-84012374D01*
X161109766Y-84067101D01*
X160969506Y-84095000D01*
X160826494Y-84095000D01*
X160686234Y-84067101D01*
X160554112Y-84012374D01*
X160554111Y-84012374D01*
X160554110Y-84012373D01*
X160435202Y-83932921D01*
X160334079Y-83831798D01*
X160254627Y-83712890D01*
X160254626Y-83712888D01*
X160199899Y-83580766D01*
X160172000Y-83440506D01*
X160172000Y-83297494D01*
X160199899Y-83157234D01*
X160254626Y-83025112D01*
X160254627Y-83025110D01*
X160334079Y-82906202D01*
X160435202Y-82805079D01*
X160554110Y-82725627D01*
X160554112Y-82725626D01*
X160686234Y-82670899D01*
X160826494Y-82643000D01*
X160969506Y-82643000D01*
X161109766Y-82670899D01*
G37*
G36*
X172979766Y-82670899D02*
G01*
X173111888Y-82725626D01*
X173111890Y-82725627D01*
X173230798Y-82805079D01*
X173331921Y-82906202D01*
X173411373Y-83025110D01*
X173411374Y-83025112D01*
X173466101Y-83157234D01*
X173494000Y-83297494D01*
X173494000Y-83440506D01*
X173466101Y-83580766D01*
X173411374Y-83712888D01*
X173411373Y-83712890D01*
X173331921Y-83831798D01*
X173230798Y-83932921D01*
X173111890Y-84012373D01*
X173111889Y-84012374D01*
X173111888Y-84012374D01*
X172979766Y-84067101D01*
X172839506Y-84095000D01*
X172696494Y-84095000D01*
X172556234Y-84067101D01*
X172424112Y-84012374D01*
X172424111Y-84012374D01*
X172424110Y-84012373D01*
X172305202Y-83932921D01*
X172204079Y-83831798D01*
X172124627Y-83712890D01*
X172124626Y-83712888D01*
X172069899Y-83580766D01*
X172042000Y-83440506D01*
X172042000Y-83297494D01*
X172069899Y-83157234D01*
X172124626Y-83025112D01*
X172124627Y-83025110D01*
X172204079Y-82906202D01*
X172305202Y-82805079D01*
X172424110Y-82725627D01*
X172424112Y-82725626D01*
X172556234Y-82670899D01*
X172696494Y-82643000D01*
X172839506Y-82643000D01*
X172979766Y-82670899D01*
G37*
M02*
