M48
; DRILL file {KiCad (5.1.9-0-10_14)} date Thursday, May 06, 2021 at 05:31:40 PM
; FORMAT={-:-/ absolute / inch / decimal}
; #@! TF.CreationDate,2021-05-06T17:31:40-07:00
; #@! TF.GenerationSoftware,Kicad,Pcbnew,(5.1.9-0-10_14)
; #@! TF.FileFunction,Plated,1,4,PTH
FMAT,2
INCH
T1C0.0100
T2C0.0157
T3C0.0354
T4C0.0866
T5C0.0984
T6C0.1063
%
G90
G05
T1
X5.9055Y-3.8681
X5.9744Y-4.1929
X6.063Y-4.1929
X6.0728Y-3.9469
X6.3583Y-4.3504
X6.4469Y-4.3602
X6.811Y-4.2815
X6.8898Y-3.8484
X7.0177Y-4.5177
T2
X4.6772Y-3.8563
X4.687Y-3.6791
X4.7126Y-3.9429
X4.7224Y-3.8878
X4.7638Y-3.8878
X4.8071Y-3.8878
X4.8209Y-4.1378
X4.8701Y-3.8524
X5.2657Y-4.4882
X5.402Y-4.0575
X5.5236Y-4.1181
X5.5733Y-4.8207
X5.5865Y-4.1747
X5.6065Y-3.9747
X5.7283Y-4.7146
X5.7579Y-4.124
X5.8065Y-4.0747
X5.8733Y-5.0107
X5.9083Y-4.8707
X5.9565Y-4.0747
X5.9646Y-4.4882
X6.1133Y-4.7707
X6.1142Y-4.8169
X6.1909Y-4.8917
X6.25Y-4.7835
X6.3189Y-4.6555
X6.3287Y-4.8287
X6.3383Y-3.7977
X6.372Y-4.7224
X6.4094Y-5.0256
X6.435Y-4.7992
X6.4764Y-4.4587
X6.5157Y-3.3366
X6.565Y-3.3366
X6.6033Y-3.8677
X6.6142Y-3.3366
X6.6673Y-3.8524
X6.6783Y-3.9027
X6.6831Y-4.5079
X6.6991Y-3.3748
X6.7421Y-3.2298
X6.752Y-4.5472
X6.8228Y-4.3386
X6.8332Y-4.5998
X6.9433Y-3.7227
X6.9433Y-3.7927
X7.0382Y-4.4148
T3
X6.3805Y-3.2776
X6.3805Y-3.4941
X6.8478Y-3.2776
X6.8478Y-3.4941
T4
X5.6496Y-3.4646
X5.9646Y-3.4646
T5
X4.6654Y-3.2874
X4.6654Y-4.9803
X5.8071Y-4.5276
X6.9488Y-4.9803
T6
X5.4528Y-3.6614
X6.1614Y-3.6614
T0
M30
