G04 #@! TF.GenerationSoftware,KiCad,Pcbnew,(5.1.5-0)*
G04 #@! TF.CreationDate,2020-09-22T17:23:07-07:00*
G04 #@! TF.ProjectId,Luminometer_ADC,4c756d69-6e6f-46d6-9574-65725f414443,rev?*
G04 #@! TF.SameCoordinates,Original*
G04 #@! TF.FileFunction,Soldermask,Top*
G04 #@! TF.FilePolarity,Negative*
%FSLAX46Y46*%
G04 Gerber Fmt 4.6, Leading zero omitted, Abs format (unit mm)*
G04 Created by KiCad (PCBNEW (5.1.5-0)) date 2020-09-22 17:23:07*
%MOMM*%
%LPD*%
G04 APERTURE LIST*
%ADD10C,0.100000*%
G04 APERTURE END LIST*
D10*
G36*
X175634239Y-121811467D02*
G01*
X175948282Y-121873934D01*
X176539926Y-122119001D01*
X176843944Y-122322140D01*
X177072391Y-122474783D01*
X177525217Y-122927609D01*
X177555177Y-122972448D01*
X177880999Y-123460074D01*
X178126066Y-124051718D01*
X178150588Y-124175000D01*
X178251000Y-124679803D01*
X178251000Y-125320197D01*
X178209655Y-125528052D01*
X178126066Y-125948282D01*
X177880999Y-126539926D01*
X177670473Y-126855000D01*
X177539110Y-127051599D01*
X177525216Y-127072392D01*
X177072392Y-127525216D01*
X176539926Y-127880999D01*
X175948282Y-128126066D01*
X175634239Y-128188533D01*
X175320197Y-128251000D01*
X174679803Y-128251000D01*
X174365761Y-128188533D01*
X174051718Y-128126066D01*
X173460074Y-127880999D01*
X172927608Y-127525216D01*
X172474784Y-127072392D01*
X172460891Y-127051599D01*
X172329527Y-126855000D01*
X172119001Y-126539926D01*
X171873934Y-125948282D01*
X171790345Y-125528052D01*
X171749000Y-125320197D01*
X171749000Y-124679803D01*
X171849412Y-124175000D01*
X171873934Y-124051718D01*
X172119001Y-123460074D01*
X172444823Y-122972448D01*
X172474783Y-122927609D01*
X172927609Y-122474783D01*
X173156056Y-122322140D01*
X173460074Y-122119001D01*
X174051718Y-121873934D01*
X174365761Y-121811467D01*
X174679803Y-121749000D01*
X175320197Y-121749000D01*
X175634239Y-121811467D01*
G37*
G36*
X120634239Y-121811467D02*
G01*
X120948282Y-121873934D01*
X121539926Y-122119001D01*
X121843944Y-122322140D01*
X122072391Y-122474783D01*
X122525217Y-122927609D01*
X122555177Y-122972448D01*
X122880999Y-123460074D01*
X123126066Y-124051718D01*
X123150588Y-124175000D01*
X123251000Y-124679803D01*
X123251000Y-125320197D01*
X123209655Y-125528052D01*
X123126066Y-125948282D01*
X122880999Y-126539926D01*
X122670473Y-126855000D01*
X122539110Y-127051599D01*
X122525216Y-127072392D01*
X122072392Y-127525216D01*
X121539926Y-127880999D01*
X120948282Y-128126066D01*
X120634239Y-128188533D01*
X120320197Y-128251000D01*
X119679803Y-128251000D01*
X119365761Y-128188533D01*
X119051718Y-128126066D01*
X118460074Y-127880999D01*
X117927608Y-127525216D01*
X117474784Y-127072392D01*
X117460891Y-127051599D01*
X117329527Y-126855000D01*
X117119001Y-126539926D01*
X116873934Y-125948282D01*
X116790345Y-125528052D01*
X116749000Y-125320197D01*
X116749000Y-124679803D01*
X116849412Y-124175000D01*
X116873934Y-124051718D01*
X117119001Y-123460074D01*
X117444823Y-122972448D01*
X117474783Y-122927609D01*
X117927609Y-122474783D01*
X118156056Y-122322140D01*
X118460074Y-122119001D01*
X119051718Y-121873934D01*
X119365761Y-121811467D01*
X119679803Y-121749000D01*
X120320197Y-121749000D01*
X120634239Y-121811467D01*
G37*
G36*
X136130591Y-126859085D02*
G01*
X136164569Y-126869393D01*
X136195890Y-126886134D01*
X136223339Y-126908661D01*
X136245866Y-126936110D01*
X136262607Y-126967431D01*
X136272915Y-127001409D01*
X136277000Y-127042890D01*
X136277000Y-127719110D01*
X136272915Y-127760591D01*
X136262607Y-127794569D01*
X136245866Y-127825890D01*
X136223339Y-127853339D01*
X136195890Y-127875866D01*
X136164569Y-127892607D01*
X136130591Y-127902915D01*
X136089110Y-127907000D01*
X135487890Y-127907000D01*
X135446409Y-127902915D01*
X135412431Y-127892607D01*
X135381110Y-127875866D01*
X135353661Y-127853339D01*
X135331134Y-127825890D01*
X135314393Y-127794569D01*
X135304085Y-127760591D01*
X135300000Y-127719110D01*
X135300000Y-127042890D01*
X135304085Y-127001409D01*
X135314393Y-126967431D01*
X135331134Y-126936110D01*
X135353661Y-126908661D01*
X135381110Y-126886134D01*
X135412431Y-126869393D01*
X135446409Y-126859085D01*
X135487890Y-126855000D01*
X136089110Y-126855000D01*
X136130591Y-126859085D01*
G37*
G36*
X134555591Y-126859085D02*
G01*
X134589569Y-126869393D01*
X134620890Y-126886134D01*
X134648339Y-126908661D01*
X134670866Y-126936110D01*
X134687607Y-126967431D01*
X134697915Y-127001409D01*
X134702000Y-127042890D01*
X134702000Y-127719110D01*
X134697915Y-127760591D01*
X134687607Y-127794569D01*
X134670866Y-127825890D01*
X134648339Y-127853339D01*
X134620890Y-127875866D01*
X134589569Y-127892607D01*
X134555591Y-127902915D01*
X134514110Y-127907000D01*
X133912890Y-127907000D01*
X133871409Y-127902915D01*
X133837431Y-127892607D01*
X133806110Y-127875866D01*
X133778661Y-127853339D01*
X133756134Y-127825890D01*
X133739393Y-127794569D01*
X133729085Y-127760591D01*
X133725000Y-127719110D01*
X133725000Y-127042890D01*
X133729085Y-127001409D01*
X133739393Y-126967431D01*
X133756134Y-126936110D01*
X133778661Y-126908661D01*
X133806110Y-126886134D01*
X133837431Y-126869393D01*
X133871409Y-126859085D01*
X133912890Y-126855000D01*
X134514110Y-126855000D01*
X134555591Y-126859085D01*
G37*
G36*
X133221591Y-125423585D02*
G01*
X133255569Y-125433893D01*
X133286890Y-125450634D01*
X133314339Y-125473161D01*
X133336866Y-125500610D01*
X133353607Y-125531931D01*
X133363915Y-125565909D01*
X133368000Y-125607390D01*
X133368000Y-126208610D01*
X133363915Y-126250091D01*
X133353607Y-126284069D01*
X133336866Y-126315390D01*
X133314339Y-126342839D01*
X133286890Y-126365366D01*
X133255569Y-126382107D01*
X133221591Y-126392415D01*
X133180110Y-126396500D01*
X132503890Y-126396500D01*
X132462409Y-126392415D01*
X132428431Y-126382107D01*
X132397110Y-126365366D01*
X132369661Y-126342839D01*
X132347134Y-126315390D01*
X132330393Y-126284069D01*
X132320085Y-126250091D01*
X132316000Y-126208610D01*
X132316000Y-125607390D01*
X132320085Y-125565909D01*
X132330393Y-125531931D01*
X132347134Y-125500610D01*
X132369661Y-125473161D01*
X132397110Y-125450634D01*
X132428431Y-125433893D01*
X132462409Y-125423585D01*
X132503890Y-125419500D01*
X133180110Y-125419500D01*
X133221591Y-125423585D01*
G37*
G36*
X160962591Y-125097085D02*
G01*
X160996569Y-125107393D01*
X161027890Y-125124134D01*
X161055339Y-125146661D01*
X161077866Y-125174110D01*
X161094607Y-125205431D01*
X161104915Y-125239409D01*
X161109000Y-125280890D01*
X161109000Y-125957110D01*
X161104915Y-125998591D01*
X161094607Y-126032569D01*
X161077866Y-126063890D01*
X161055339Y-126091339D01*
X161027890Y-126113866D01*
X160996569Y-126130607D01*
X160962591Y-126140915D01*
X160921110Y-126145000D01*
X160319890Y-126145000D01*
X160278409Y-126140915D01*
X160244431Y-126130607D01*
X160213110Y-126113866D01*
X160185661Y-126091339D01*
X160163134Y-126063890D01*
X160146393Y-126032569D01*
X160136085Y-125998591D01*
X160132000Y-125957110D01*
X160132000Y-125280890D01*
X160136085Y-125239409D01*
X160146393Y-125205431D01*
X160163134Y-125174110D01*
X160185661Y-125146661D01*
X160213110Y-125124134D01*
X160244431Y-125107393D01*
X160278409Y-125097085D01*
X160319890Y-125093000D01*
X160921110Y-125093000D01*
X160962591Y-125097085D01*
G37*
G36*
X159387591Y-125097085D02*
G01*
X159421569Y-125107393D01*
X159452890Y-125124134D01*
X159480339Y-125146661D01*
X159502866Y-125174110D01*
X159519607Y-125205431D01*
X159529915Y-125239409D01*
X159534000Y-125280890D01*
X159534000Y-125957110D01*
X159529915Y-125998591D01*
X159519607Y-126032569D01*
X159502866Y-126063890D01*
X159480339Y-126091339D01*
X159452890Y-126113866D01*
X159421569Y-126130607D01*
X159387591Y-126140915D01*
X159346110Y-126145000D01*
X158744890Y-126145000D01*
X158703409Y-126140915D01*
X158669431Y-126130607D01*
X158638110Y-126113866D01*
X158610661Y-126091339D01*
X158588134Y-126063890D01*
X158571393Y-126032569D01*
X158561085Y-125998591D01*
X158557000Y-125957110D01*
X158557000Y-125280890D01*
X158561085Y-125239409D01*
X158571393Y-125205431D01*
X158588134Y-125174110D01*
X158610661Y-125146661D01*
X158638110Y-125124134D01*
X158669431Y-125107393D01*
X158703409Y-125097085D01*
X158744890Y-125093000D01*
X159346110Y-125093000D01*
X159387591Y-125097085D01*
G37*
G36*
X157675091Y-125097085D02*
G01*
X157709069Y-125107393D01*
X157740390Y-125124134D01*
X157767839Y-125146661D01*
X157790366Y-125174110D01*
X157807107Y-125205431D01*
X157817415Y-125239409D01*
X157821500Y-125280890D01*
X157821500Y-125957110D01*
X157817415Y-125998591D01*
X157807107Y-126032569D01*
X157790366Y-126063890D01*
X157767839Y-126091339D01*
X157740390Y-126113866D01*
X157709069Y-126130607D01*
X157675091Y-126140915D01*
X157633610Y-126145000D01*
X157032390Y-126145000D01*
X156990909Y-126140915D01*
X156956931Y-126130607D01*
X156925610Y-126113866D01*
X156898161Y-126091339D01*
X156875634Y-126063890D01*
X156858893Y-126032569D01*
X156848585Y-125998591D01*
X156844500Y-125957110D01*
X156844500Y-125280890D01*
X156848585Y-125239409D01*
X156858893Y-125205431D01*
X156875634Y-125174110D01*
X156898161Y-125146661D01*
X156925610Y-125124134D01*
X156956931Y-125107393D01*
X156990909Y-125097085D01*
X157032390Y-125093000D01*
X157633610Y-125093000D01*
X157675091Y-125097085D01*
G37*
G36*
X156100091Y-125097085D02*
G01*
X156134069Y-125107393D01*
X156165390Y-125124134D01*
X156192839Y-125146661D01*
X156215366Y-125174110D01*
X156232107Y-125205431D01*
X156242415Y-125239409D01*
X156246500Y-125280890D01*
X156246500Y-125957110D01*
X156242415Y-125998591D01*
X156232107Y-126032569D01*
X156215366Y-126063890D01*
X156192839Y-126091339D01*
X156165390Y-126113866D01*
X156134069Y-126130607D01*
X156100091Y-126140915D01*
X156058610Y-126145000D01*
X155457390Y-126145000D01*
X155415909Y-126140915D01*
X155381931Y-126130607D01*
X155350610Y-126113866D01*
X155323161Y-126091339D01*
X155300634Y-126063890D01*
X155283893Y-126032569D01*
X155273585Y-125998591D01*
X155269500Y-125957110D01*
X155269500Y-125280890D01*
X155273585Y-125239409D01*
X155283893Y-125205431D01*
X155300634Y-125174110D01*
X155323161Y-125146661D01*
X155350610Y-125124134D01*
X155381931Y-125107393D01*
X155415909Y-125097085D01*
X155457390Y-125093000D01*
X156058610Y-125093000D01*
X156100091Y-125097085D01*
G37*
G36*
X141798928Y-124745764D02*
G01*
X141820009Y-124752160D01*
X141839445Y-124762548D01*
X141856476Y-124776524D01*
X141870452Y-124793555D01*
X141880840Y-124812991D01*
X141887236Y-124834072D01*
X141890000Y-124862140D01*
X141890000Y-125325860D01*
X141887236Y-125353928D01*
X141880840Y-125375009D01*
X141870452Y-125394445D01*
X141856476Y-125411476D01*
X141839445Y-125425452D01*
X141820009Y-125435840D01*
X141798928Y-125442236D01*
X141770860Y-125445000D01*
X139957140Y-125445000D01*
X139929072Y-125442236D01*
X139907991Y-125435840D01*
X139888555Y-125425452D01*
X139871524Y-125411476D01*
X139857548Y-125394445D01*
X139847160Y-125375009D01*
X139840764Y-125353928D01*
X139838000Y-125325860D01*
X139838000Y-124862140D01*
X139840764Y-124834072D01*
X139847160Y-124812991D01*
X139857548Y-124793555D01*
X139871524Y-124776524D01*
X139888555Y-124762548D01*
X139907991Y-124752160D01*
X139929072Y-124745764D01*
X139957140Y-124743000D01*
X141770860Y-124743000D01*
X141798928Y-124745764D01*
G37*
G36*
X136848928Y-124745764D02*
G01*
X136870009Y-124752160D01*
X136889445Y-124762548D01*
X136906476Y-124776524D01*
X136920452Y-124793555D01*
X136930840Y-124812991D01*
X136937236Y-124834072D01*
X136940000Y-124862140D01*
X136940000Y-125325860D01*
X136937236Y-125353928D01*
X136930840Y-125375009D01*
X136920452Y-125394445D01*
X136906476Y-125411476D01*
X136889445Y-125425452D01*
X136870009Y-125435840D01*
X136848928Y-125442236D01*
X136820860Y-125445000D01*
X135007140Y-125445000D01*
X134979072Y-125442236D01*
X134957991Y-125435840D01*
X134938555Y-125425452D01*
X134921524Y-125411476D01*
X134907548Y-125394445D01*
X134897160Y-125375009D01*
X134890764Y-125353928D01*
X134888000Y-125325860D01*
X134888000Y-124862140D01*
X134890764Y-124834072D01*
X134897160Y-124812991D01*
X134907548Y-124793555D01*
X134921524Y-124776524D01*
X134938555Y-124762548D01*
X134957991Y-124752160D01*
X134979072Y-124745764D01*
X135007140Y-124743000D01*
X136820860Y-124743000D01*
X136848928Y-124745764D01*
G37*
G36*
X133221591Y-123848585D02*
G01*
X133255569Y-123858893D01*
X133286890Y-123875634D01*
X133314339Y-123898161D01*
X133336866Y-123925610D01*
X133353607Y-123956931D01*
X133363915Y-123990909D01*
X133368000Y-124032390D01*
X133368000Y-124633610D01*
X133363915Y-124675091D01*
X133353607Y-124709069D01*
X133336866Y-124740390D01*
X133314339Y-124767839D01*
X133286890Y-124790366D01*
X133255569Y-124807107D01*
X133221591Y-124817415D01*
X133180110Y-124821500D01*
X132503890Y-124821500D01*
X132462409Y-124817415D01*
X132428431Y-124807107D01*
X132397110Y-124790366D01*
X132369661Y-124767839D01*
X132347134Y-124740390D01*
X132330393Y-124709069D01*
X132320085Y-124675091D01*
X132316000Y-124633610D01*
X132316000Y-124032390D01*
X132320085Y-123990909D01*
X132330393Y-123956931D01*
X132347134Y-123925610D01*
X132369661Y-123898161D01*
X132397110Y-123875634D01*
X132428431Y-123858893D01*
X132462409Y-123848585D01*
X132503890Y-123844500D01*
X133180110Y-123844500D01*
X133221591Y-123848585D01*
G37*
G36*
X165584000Y-124820000D02*
G01*
X162082000Y-124820000D01*
X162082000Y-123418000D01*
X165584000Y-123418000D01*
X165584000Y-124820000D01*
G37*
G36*
X141798928Y-123475764D02*
G01*
X141820009Y-123482160D01*
X141839445Y-123492548D01*
X141856476Y-123506524D01*
X141870452Y-123523555D01*
X141880840Y-123542991D01*
X141887236Y-123564072D01*
X141890000Y-123592140D01*
X141890000Y-124055860D01*
X141887236Y-124083928D01*
X141880840Y-124105009D01*
X141870452Y-124124445D01*
X141856476Y-124141476D01*
X141839445Y-124155452D01*
X141820009Y-124165840D01*
X141798928Y-124172236D01*
X141770860Y-124175000D01*
X139957140Y-124175000D01*
X139929072Y-124172236D01*
X139907991Y-124165840D01*
X139888555Y-124155452D01*
X139871524Y-124141476D01*
X139857548Y-124124445D01*
X139847160Y-124105009D01*
X139840764Y-124083928D01*
X139838000Y-124055860D01*
X139838000Y-123592140D01*
X139840764Y-123564072D01*
X139847160Y-123542991D01*
X139857548Y-123523555D01*
X139871524Y-123506524D01*
X139888555Y-123492548D01*
X139907991Y-123482160D01*
X139929072Y-123475764D01*
X139957140Y-123473000D01*
X141770860Y-123473000D01*
X141798928Y-123475764D01*
G37*
G36*
X136848928Y-123475764D02*
G01*
X136870009Y-123482160D01*
X136889445Y-123492548D01*
X136906476Y-123506524D01*
X136920452Y-123523555D01*
X136930840Y-123542991D01*
X136937236Y-123564072D01*
X136940000Y-123592140D01*
X136940000Y-124055860D01*
X136937236Y-124083928D01*
X136930840Y-124105009D01*
X136920452Y-124124445D01*
X136906476Y-124141476D01*
X136889445Y-124155452D01*
X136870009Y-124165840D01*
X136848928Y-124172236D01*
X136820860Y-124175000D01*
X135007140Y-124175000D01*
X134979072Y-124172236D01*
X134957991Y-124165840D01*
X134938555Y-124155452D01*
X134921524Y-124141476D01*
X134907548Y-124124445D01*
X134897160Y-124105009D01*
X134890764Y-124083928D01*
X134888000Y-124055860D01*
X134888000Y-123592140D01*
X134890764Y-123564072D01*
X134897160Y-123542991D01*
X134907548Y-123523555D01*
X134921524Y-123506524D01*
X134938555Y-123492548D01*
X134957991Y-123482160D01*
X134979072Y-123475764D01*
X135007140Y-123473000D01*
X136820860Y-123473000D01*
X136848928Y-123475764D01*
G37*
G36*
X160709000Y-123930000D02*
G01*
X159547000Y-123930000D01*
X159547000Y-121468000D01*
X160709000Y-121468000D01*
X160709000Y-123930000D01*
G37*
G36*
X158509000Y-123930000D02*
G01*
X157347000Y-123930000D01*
X157347000Y-121468000D01*
X158509000Y-121468000D01*
X158509000Y-123930000D01*
G37*
G36*
X154600091Y-122597085D02*
G01*
X154634069Y-122607393D01*
X154665390Y-122624134D01*
X154692839Y-122646661D01*
X154715366Y-122674110D01*
X154732107Y-122705431D01*
X154742415Y-122739409D01*
X154746500Y-122780890D01*
X154746500Y-123457110D01*
X154742415Y-123498591D01*
X154732107Y-123532569D01*
X154715366Y-123563890D01*
X154692839Y-123591339D01*
X154665390Y-123613866D01*
X154634069Y-123630607D01*
X154600091Y-123640915D01*
X154558610Y-123645000D01*
X153957390Y-123645000D01*
X153915909Y-123640915D01*
X153881931Y-123630607D01*
X153850610Y-123613866D01*
X153823161Y-123591339D01*
X153800634Y-123563890D01*
X153783893Y-123532569D01*
X153773585Y-123498591D01*
X153769500Y-123457110D01*
X153769500Y-122780890D01*
X153773585Y-122739409D01*
X153783893Y-122705431D01*
X153800634Y-122674110D01*
X153823161Y-122646661D01*
X153850610Y-122624134D01*
X153881931Y-122607393D01*
X153915909Y-122597085D01*
X153957390Y-122593000D01*
X154558610Y-122593000D01*
X154600091Y-122597085D01*
G37*
G36*
X156175091Y-122597085D02*
G01*
X156209069Y-122607393D01*
X156240390Y-122624134D01*
X156267839Y-122646661D01*
X156290366Y-122674110D01*
X156307107Y-122705431D01*
X156317415Y-122739409D01*
X156321500Y-122780890D01*
X156321500Y-123457110D01*
X156317415Y-123498591D01*
X156307107Y-123532569D01*
X156290366Y-123563890D01*
X156267839Y-123591339D01*
X156240390Y-123613866D01*
X156209069Y-123630607D01*
X156175091Y-123640915D01*
X156133610Y-123645000D01*
X155532390Y-123645000D01*
X155490909Y-123640915D01*
X155456931Y-123630607D01*
X155425610Y-123613866D01*
X155398161Y-123591339D01*
X155375634Y-123563890D01*
X155358893Y-123532569D01*
X155348585Y-123498591D01*
X155344500Y-123457110D01*
X155344500Y-122780890D01*
X155348585Y-122739409D01*
X155358893Y-122705431D01*
X155375634Y-122674110D01*
X155398161Y-122646661D01*
X155425610Y-122624134D01*
X155456931Y-122607393D01*
X155490909Y-122597085D01*
X155532390Y-122593000D01*
X156133610Y-122593000D01*
X156175091Y-122597085D01*
G37*
G36*
X133184091Y-122033085D02*
G01*
X133218069Y-122043393D01*
X133249390Y-122060134D01*
X133276839Y-122082661D01*
X133299366Y-122110110D01*
X133316107Y-122141431D01*
X133326415Y-122175409D01*
X133330500Y-122216890D01*
X133330500Y-122893110D01*
X133326415Y-122934591D01*
X133316107Y-122968569D01*
X133299366Y-122999890D01*
X133276839Y-123027339D01*
X133249390Y-123049866D01*
X133218069Y-123066607D01*
X133184091Y-123076915D01*
X133142610Y-123081000D01*
X132541390Y-123081000D01*
X132499909Y-123076915D01*
X132465931Y-123066607D01*
X132434610Y-123049866D01*
X132407161Y-123027339D01*
X132384634Y-122999890D01*
X132367893Y-122968569D01*
X132357585Y-122934591D01*
X132353500Y-122893110D01*
X132353500Y-122216890D01*
X132357585Y-122175409D01*
X132367893Y-122141431D01*
X132384634Y-122110110D01*
X132407161Y-122082661D01*
X132434610Y-122060134D01*
X132465931Y-122043393D01*
X132499909Y-122033085D01*
X132541390Y-122029000D01*
X133142610Y-122029000D01*
X133184091Y-122033085D01*
G37*
G36*
X131609091Y-122033085D02*
G01*
X131643069Y-122043393D01*
X131674390Y-122060134D01*
X131701839Y-122082661D01*
X131724366Y-122110110D01*
X131741107Y-122141431D01*
X131751415Y-122175409D01*
X131755500Y-122216890D01*
X131755500Y-122893110D01*
X131751415Y-122934591D01*
X131741107Y-122968569D01*
X131724366Y-122999890D01*
X131701839Y-123027339D01*
X131674390Y-123049866D01*
X131643069Y-123066607D01*
X131609091Y-123076915D01*
X131567610Y-123081000D01*
X130966390Y-123081000D01*
X130924909Y-123076915D01*
X130890931Y-123066607D01*
X130859610Y-123049866D01*
X130832161Y-123027339D01*
X130809634Y-122999890D01*
X130792893Y-122968569D01*
X130782585Y-122934591D01*
X130778500Y-122893110D01*
X130778500Y-122216890D01*
X130782585Y-122175409D01*
X130792893Y-122141431D01*
X130809634Y-122110110D01*
X130832161Y-122082661D01*
X130859610Y-122060134D01*
X130890931Y-122043393D01*
X130924909Y-122033085D01*
X130966390Y-122029000D01*
X131567610Y-122029000D01*
X131609091Y-122033085D01*
G37*
G36*
X141798928Y-122205764D02*
G01*
X141820009Y-122212160D01*
X141839445Y-122222548D01*
X141856476Y-122236524D01*
X141870452Y-122253555D01*
X141880840Y-122272991D01*
X141887236Y-122294072D01*
X141890000Y-122322140D01*
X141890000Y-122785860D01*
X141887236Y-122813928D01*
X141880840Y-122835009D01*
X141870452Y-122854445D01*
X141856476Y-122871476D01*
X141839445Y-122885452D01*
X141820009Y-122895840D01*
X141798928Y-122902236D01*
X141770860Y-122905000D01*
X139957140Y-122905000D01*
X139929072Y-122902236D01*
X139907991Y-122895840D01*
X139888555Y-122885452D01*
X139871524Y-122871476D01*
X139857548Y-122854445D01*
X139847160Y-122835009D01*
X139840764Y-122813928D01*
X139838000Y-122785860D01*
X139838000Y-122322140D01*
X139840764Y-122294072D01*
X139847160Y-122272991D01*
X139857548Y-122253555D01*
X139871524Y-122236524D01*
X139888555Y-122222548D01*
X139907991Y-122212160D01*
X139929072Y-122205764D01*
X139957140Y-122203000D01*
X141770860Y-122203000D01*
X141798928Y-122205764D01*
G37*
G36*
X136848928Y-122205764D02*
G01*
X136870009Y-122212160D01*
X136889445Y-122222548D01*
X136906476Y-122236524D01*
X136920452Y-122253555D01*
X136930840Y-122272991D01*
X136937236Y-122294072D01*
X136940000Y-122322140D01*
X136940000Y-122785860D01*
X136937236Y-122813928D01*
X136930840Y-122835009D01*
X136920452Y-122854445D01*
X136906476Y-122871476D01*
X136889445Y-122885452D01*
X136870009Y-122895840D01*
X136848928Y-122902236D01*
X136820860Y-122905000D01*
X135007140Y-122905000D01*
X134979072Y-122902236D01*
X134957991Y-122895840D01*
X134938555Y-122885452D01*
X134921524Y-122871476D01*
X134907548Y-122854445D01*
X134897160Y-122835009D01*
X134890764Y-122813928D01*
X134888000Y-122785860D01*
X134888000Y-122322140D01*
X134890764Y-122294072D01*
X134897160Y-122272991D01*
X134907548Y-122253555D01*
X134921524Y-122236524D01*
X134938555Y-122222548D01*
X134957991Y-122212160D01*
X134979072Y-122205764D01*
X135007140Y-122203000D01*
X136820860Y-122203000D01*
X136848928Y-122205764D01*
G37*
G36*
X165584000Y-122720000D02*
G01*
X162082000Y-122720000D01*
X162082000Y-121318000D01*
X165584000Y-121318000D01*
X165584000Y-122720000D01*
G37*
G36*
X156175091Y-120597085D02*
G01*
X156209069Y-120607393D01*
X156240390Y-120624134D01*
X156267839Y-120646661D01*
X156290366Y-120674110D01*
X156307107Y-120705431D01*
X156317415Y-120739409D01*
X156321500Y-120780890D01*
X156321500Y-121457110D01*
X156317415Y-121498591D01*
X156307107Y-121532569D01*
X156290366Y-121563890D01*
X156267839Y-121591339D01*
X156240390Y-121613866D01*
X156209069Y-121630607D01*
X156175091Y-121640915D01*
X156133610Y-121645000D01*
X155532390Y-121645000D01*
X155490909Y-121640915D01*
X155456931Y-121630607D01*
X155425610Y-121613866D01*
X155398161Y-121591339D01*
X155375634Y-121563890D01*
X155358893Y-121532569D01*
X155348585Y-121498591D01*
X155344500Y-121457110D01*
X155344500Y-120780890D01*
X155348585Y-120739409D01*
X155358893Y-120705431D01*
X155375634Y-120674110D01*
X155398161Y-120646661D01*
X155425610Y-120624134D01*
X155456931Y-120607393D01*
X155490909Y-120597085D01*
X155532390Y-120593000D01*
X156133610Y-120593000D01*
X156175091Y-120597085D01*
G37*
G36*
X154600091Y-120597085D02*
G01*
X154634069Y-120607393D01*
X154665390Y-120624134D01*
X154692839Y-120646661D01*
X154715366Y-120674110D01*
X154732107Y-120705431D01*
X154742415Y-120739409D01*
X154746500Y-120780890D01*
X154746500Y-121457110D01*
X154742415Y-121498591D01*
X154732107Y-121532569D01*
X154715366Y-121563890D01*
X154692839Y-121591339D01*
X154665390Y-121613866D01*
X154634069Y-121630607D01*
X154600091Y-121640915D01*
X154558610Y-121645000D01*
X153957390Y-121645000D01*
X153915909Y-121640915D01*
X153881931Y-121630607D01*
X153850610Y-121613866D01*
X153823161Y-121591339D01*
X153800634Y-121563890D01*
X153783893Y-121532569D01*
X153773585Y-121498591D01*
X153769500Y-121457110D01*
X153769500Y-120780890D01*
X153773585Y-120739409D01*
X153783893Y-120705431D01*
X153800634Y-120674110D01*
X153823161Y-120646661D01*
X153850610Y-120624134D01*
X153881931Y-120607393D01*
X153915909Y-120597085D01*
X153957390Y-120593000D01*
X154558610Y-120593000D01*
X154600091Y-120597085D01*
G37*
G36*
X136848928Y-120935764D02*
G01*
X136870009Y-120942160D01*
X136889445Y-120952548D01*
X136906476Y-120966524D01*
X136920452Y-120983555D01*
X136930840Y-121002991D01*
X136937236Y-121024072D01*
X136940000Y-121052140D01*
X136940000Y-121515860D01*
X136937236Y-121543928D01*
X136930840Y-121565009D01*
X136920452Y-121584445D01*
X136906476Y-121601476D01*
X136889445Y-121615452D01*
X136870009Y-121625840D01*
X136848928Y-121632236D01*
X136820860Y-121635000D01*
X135007140Y-121635000D01*
X134979072Y-121632236D01*
X134957991Y-121625840D01*
X134938555Y-121615452D01*
X134921524Y-121601476D01*
X134907548Y-121584445D01*
X134897160Y-121565009D01*
X134890764Y-121543928D01*
X134888000Y-121515860D01*
X134888000Y-121052140D01*
X134890764Y-121024072D01*
X134897160Y-121002991D01*
X134907548Y-120983555D01*
X134921524Y-120966524D01*
X134938555Y-120952548D01*
X134957991Y-120942160D01*
X134979072Y-120935764D01*
X135007140Y-120933000D01*
X136820860Y-120933000D01*
X136848928Y-120935764D01*
G37*
G36*
X141798928Y-120935764D02*
G01*
X141820009Y-120942160D01*
X141839445Y-120952548D01*
X141856476Y-120966524D01*
X141870452Y-120983555D01*
X141880840Y-121002991D01*
X141887236Y-121024072D01*
X141890000Y-121052140D01*
X141890000Y-121515860D01*
X141887236Y-121543928D01*
X141880840Y-121565009D01*
X141870452Y-121584445D01*
X141856476Y-121601476D01*
X141839445Y-121615452D01*
X141820009Y-121625840D01*
X141798928Y-121632236D01*
X141770860Y-121635000D01*
X139957140Y-121635000D01*
X139929072Y-121632236D01*
X139907991Y-121625840D01*
X139888555Y-121615452D01*
X139871524Y-121601476D01*
X139857548Y-121584445D01*
X139847160Y-121565009D01*
X139840764Y-121543928D01*
X139838000Y-121515860D01*
X139838000Y-121052140D01*
X139840764Y-121024072D01*
X139847160Y-121002991D01*
X139857548Y-120983555D01*
X139871524Y-120966524D01*
X139888555Y-120952548D01*
X139907991Y-120942160D01*
X139929072Y-120935764D01*
X139957140Y-120933000D01*
X141770860Y-120933000D01*
X141798928Y-120935764D01*
G37*
G36*
X162175091Y-119597085D02*
G01*
X162209069Y-119607393D01*
X162240390Y-119624134D01*
X162267839Y-119646661D01*
X162290366Y-119674110D01*
X162307107Y-119705431D01*
X162317415Y-119739409D01*
X162321500Y-119780890D01*
X162321500Y-120457110D01*
X162317415Y-120498591D01*
X162307107Y-120532569D01*
X162290366Y-120563890D01*
X162267839Y-120591339D01*
X162240390Y-120613866D01*
X162209069Y-120630607D01*
X162175091Y-120640915D01*
X162133610Y-120645000D01*
X161532390Y-120645000D01*
X161490909Y-120640915D01*
X161456931Y-120630607D01*
X161425610Y-120613866D01*
X161398161Y-120591339D01*
X161375634Y-120563890D01*
X161358893Y-120532569D01*
X161348585Y-120498591D01*
X161344500Y-120457110D01*
X161344500Y-119780890D01*
X161348585Y-119739409D01*
X161358893Y-119705431D01*
X161375634Y-119674110D01*
X161398161Y-119646661D01*
X161425610Y-119624134D01*
X161456931Y-119607393D01*
X161490909Y-119597085D01*
X161532390Y-119593000D01*
X162133610Y-119593000D01*
X162175091Y-119597085D01*
G37*
G36*
X160600091Y-119597085D02*
G01*
X160634069Y-119607393D01*
X160665390Y-119624134D01*
X160692839Y-119646661D01*
X160715366Y-119674110D01*
X160732107Y-119705431D01*
X160742415Y-119739409D01*
X160746500Y-119780890D01*
X160746500Y-120457110D01*
X160742415Y-120498591D01*
X160732107Y-120532569D01*
X160715366Y-120563890D01*
X160692839Y-120591339D01*
X160665390Y-120613866D01*
X160634069Y-120630607D01*
X160600091Y-120640915D01*
X160558610Y-120645000D01*
X159957390Y-120645000D01*
X159915909Y-120640915D01*
X159881931Y-120630607D01*
X159850610Y-120613866D01*
X159823161Y-120591339D01*
X159800634Y-120563890D01*
X159783893Y-120532569D01*
X159773585Y-120498591D01*
X159769500Y-120457110D01*
X159769500Y-119780890D01*
X159773585Y-119739409D01*
X159783893Y-119705431D01*
X159800634Y-119674110D01*
X159823161Y-119646661D01*
X159850610Y-119624134D01*
X159881931Y-119607393D01*
X159915909Y-119597085D01*
X159957390Y-119593000D01*
X160558610Y-119593000D01*
X160600091Y-119597085D01*
G37*
G36*
X160089000Y-117330000D02*
G01*
X159087000Y-117330000D01*
X159087000Y-116428000D01*
X160089000Y-116428000D01*
X160089000Y-117330000D01*
G37*
G36*
X161797591Y-115983585D02*
G01*
X161831569Y-115993893D01*
X161862890Y-116010634D01*
X161890339Y-116033161D01*
X161912866Y-116060610D01*
X161929607Y-116091931D01*
X161939915Y-116125909D01*
X161944000Y-116167390D01*
X161944000Y-116768610D01*
X161939915Y-116810091D01*
X161929607Y-116844069D01*
X161912866Y-116875390D01*
X161890339Y-116902839D01*
X161862890Y-116925366D01*
X161831569Y-116942107D01*
X161797591Y-116952415D01*
X161756110Y-116956500D01*
X161079890Y-116956500D01*
X161038409Y-116952415D01*
X161004431Y-116942107D01*
X160973110Y-116925366D01*
X160945661Y-116902839D01*
X160923134Y-116875390D01*
X160906393Y-116844069D01*
X160896085Y-116810091D01*
X160892000Y-116768610D01*
X160892000Y-116167390D01*
X160896085Y-116125909D01*
X160906393Y-116091931D01*
X160923134Y-116060610D01*
X160945661Y-116033161D01*
X160973110Y-116010634D01*
X161004431Y-115993893D01*
X161038409Y-115983585D01*
X161079890Y-115979500D01*
X161756110Y-115979500D01*
X161797591Y-115983585D01*
G37*
G36*
X158089000Y-116380000D02*
G01*
X157087000Y-116380000D01*
X157087000Y-115478000D01*
X158089000Y-115478000D01*
X158089000Y-116380000D01*
G37*
G36*
X166249000Y-116214000D02*
G01*
X165247000Y-116214000D01*
X165247000Y-115312000D01*
X166249000Y-115312000D01*
X166249000Y-116214000D01*
G37*
G36*
X168032591Y-115006585D02*
G01*
X168066569Y-115016893D01*
X168097890Y-115033634D01*
X168125339Y-115056161D01*
X168147866Y-115083610D01*
X168164607Y-115114931D01*
X168174915Y-115148909D01*
X168179000Y-115190390D01*
X168179000Y-115791610D01*
X168174915Y-115833091D01*
X168164607Y-115867069D01*
X168147866Y-115898390D01*
X168125339Y-115925839D01*
X168097890Y-115948366D01*
X168066569Y-115965107D01*
X168032591Y-115975415D01*
X167991110Y-115979500D01*
X167314890Y-115979500D01*
X167273409Y-115975415D01*
X167239431Y-115965107D01*
X167208110Y-115948366D01*
X167180661Y-115925839D01*
X167158134Y-115898390D01*
X167141393Y-115867069D01*
X167131085Y-115833091D01*
X167127000Y-115791610D01*
X167127000Y-115190390D01*
X167131085Y-115148909D01*
X167141393Y-115114931D01*
X167158134Y-115083610D01*
X167180661Y-115056161D01*
X167208110Y-115033634D01*
X167239431Y-115016893D01*
X167273409Y-115006585D01*
X167314890Y-115002500D01*
X167991110Y-115002500D01*
X168032591Y-115006585D01*
G37*
G36*
X160089000Y-115430000D02*
G01*
X159087000Y-115430000D01*
X159087000Y-114528000D01*
X160089000Y-114528000D01*
X160089000Y-115430000D01*
G37*
G36*
X161797591Y-114408585D02*
G01*
X161831569Y-114418893D01*
X161862890Y-114435634D01*
X161890339Y-114458161D01*
X161912866Y-114485610D01*
X161929607Y-114516931D01*
X161939915Y-114550909D01*
X161944000Y-114592390D01*
X161944000Y-115193610D01*
X161939915Y-115235091D01*
X161929607Y-115269069D01*
X161912866Y-115300390D01*
X161890339Y-115327839D01*
X161862890Y-115350366D01*
X161831569Y-115367107D01*
X161797591Y-115377415D01*
X161756110Y-115381500D01*
X161079890Y-115381500D01*
X161038409Y-115377415D01*
X161004431Y-115367107D01*
X160973110Y-115350366D01*
X160945661Y-115327839D01*
X160923134Y-115300390D01*
X160906393Y-115269069D01*
X160896085Y-115235091D01*
X160892000Y-115193610D01*
X160892000Y-114592390D01*
X160896085Y-114550909D01*
X160906393Y-114516931D01*
X160923134Y-114485610D01*
X160945661Y-114458161D01*
X160973110Y-114435634D01*
X161004431Y-114418893D01*
X161038409Y-114408585D01*
X161079890Y-114404500D01*
X161756110Y-114404500D01*
X161797591Y-114408585D01*
G37*
G36*
X164249000Y-115264000D02*
G01*
X163247000Y-115264000D01*
X163247000Y-114362000D01*
X164249000Y-114362000D01*
X164249000Y-115264000D01*
G37*
G36*
X168032591Y-113431585D02*
G01*
X168066569Y-113441893D01*
X168097890Y-113458634D01*
X168125339Y-113481161D01*
X168147866Y-113508610D01*
X168164607Y-113539931D01*
X168174915Y-113573909D01*
X168179000Y-113615390D01*
X168179000Y-114216610D01*
X168174915Y-114258091D01*
X168164607Y-114292069D01*
X168147866Y-114323390D01*
X168125339Y-114350839D01*
X168097890Y-114373366D01*
X168066569Y-114390107D01*
X168032591Y-114400415D01*
X167991110Y-114404500D01*
X167314890Y-114404500D01*
X167273409Y-114400415D01*
X167239431Y-114390107D01*
X167208110Y-114373366D01*
X167180661Y-114350839D01*
X167158134Y-114323390D01*
X167141393Y-114292069D01*
X167131085Y-114258091D01*
X167127000Y-114216610D01*
X167127000Y-113615390D01*
X167131085Y-113573909D01*
X167141393Y-113539931D01*
X167158134Y-113508610D01*
X167180661Y-113481161D01*
X167208110Y-113458634D01*
X167239431Y-113441893D01*
X167273409Y-113431585D01*
X167314890Y-113427500D01*
X167991110Y-113427500D01*
X168032591Y-113431585D01*
G37*
G36*
X166249000Y-114314000D02*
G01*
X165247000Y-114314000D01*
X165247000Y-113412000D01*
X166249000Y-113412000D01*
X166249000Y-114314000D01*
G37*
G36*
X171805091Y-113187085D02*
G01*
X171839069Y-113197393D01*
X171870390Y-113214134D01*
X171897839Y-113236661D01*
X171920366Y-113264110D01*
X171937107Y-113295431D01*
X171947415Y-113329409D01*
X171951500Y-113370890D01*
X171951500Y-114047110D01*
X171947415Y-114088591D01*
X171937107Y-114122569D01*
X171920366Y-114153890D01*
X171897839Y-114181339D01*
X171870390Y-114203866D01*
X171839069Y-114220607D01*
X171805091Y-114230915D01*
X171763610Y-114235000D01*
X171162390Y-114235000D01*
X171120909Y-114230915D01*
X171086931Y-114220607D01*
X171055610Y-114203866D01*
X171028161Y-114181339D01*
X171005634Y-114153890D01*
X170988893Y-114122569D01*
X170978585Y-114088591D01*
X170974500Y-114047110D01*
X170974500Y-113370890D01*
X170978585Y-113329409D01*
X170988893Y-113295431D01*
X171005634Y-113264110D01*
X171028161Y-113236661D01*
X171055610Y-113214134D01*
X171086931Y-113197393D01*
X171120909Y-113187085D01*
X171162390Y-113183000D01*
X171763610Y-113183000D01*
X171805091Y-113187085D01*
G37*
G36*
X170230091Y-113187085D02*
G01*
X170264069Y-113197393D01*
X170295390Y-113214134D01*
X170322839Y-113236661D01*
X170345366Y-113264110D01*
X170362107Y-113295431D01*
X170372415Y-113329409D01*
X170376500Y-113370890D01*
X170376500Y-114047110D01*
X170372415Y-114088591D01*
X170362107Y-114122569D01*
X170345366Y-114153890D01*
X170322839Y-114181339D01*
X170295390Y-114203866D01*
X170264069Y-114220607D01*
X170230091Y-114230915D01*
X170188610Y-114235000D01*
X169587390Y-114235000D01*
X169545909Y-114230915D01*
X169511931Y-114220607D01*
X169480610Y-114203866D01*
X169453161Y-114181339D01*
X169430634Y-114153890D01*
X169413893Y-114122569D01*
X169403585Y-114088591D01*
X169399500Y-114047110D01*
X169399500Y-113370890D01*
X169403585Y-113329409D01*
X169413893Y-113295431D01*
X169430634Y-113264110D01*
X169453161Y-113236661D01*
X169480610Y-113214134D01*
X169511931Y-113197393D01*
X169545909Y-113187085D01*
X169587390Y-113183000D01*
X170188610Y-113183000D01*
X170230091Y-113187085D01*
G37*
G36*
X170633591Y-110074585D02*
G01*
X170667569Y-110084893D01*
X170698890Y-110101634D01*
X170726339Y-110124161D01*
X170748866Y-110151610D01*
X170765607Y-110182931D01*
X170775915Y-110216909D01*
X170780000Y-110258390D01*
X170780000Y-110859610D01*
X170775915Y-110901091D01*
X170765607Y-110935069D01*
X170748866Y-110966390D01*
X170726339Y-110993839D01*
X170698890Y-111016366D01*
X170667569Y-111033107D01*
X170633591Y-111043415D01*
X170592110Y-111047500D01*
X169915890Y-111047500D01*
X169874409Y-111043415D01*
X169840431Y-111033107D01*
X169809110Y-111016366D01*
X169781661Y-110993839D01*
X169759134Y-110966390D01*
X169742393Y-110935069D01*
X169732085Y-110901091D01*
X169728000Y-110859610D01*
X169728000Y-110258390D01*
X169732085Y-110216909D01*
X169742393Y-110182931D01*
X169759134Y-110151610D01*
X169781661Y-110124161D01*
X169809110Y-110101634D01*
X169840431Y-110084893D01*
X169874409Y-110074585D01*
X169915890Y-110070500D01*
X170592110Y-110070500D01*
X170633591Y-110074585D01*
G37*
G36*
X177163591Y-110064585D02*
G01*
X177197569Y-110074893D01*
X177228890Y-110091634D01*
X177256339Y-110114161D01*
X177278866Y-110141610D01*
X177295607Y-110172931D01*
X177305915Y-110206909D01*
X177310000Y-110248390D01*
X177310000Y-110849610D01*
X177305915Y-110891091D01*
X177295607Y-110925069D01*
X177278866Y-110956390D01*
X177256339Y-110983839D01*
X177228890Y-111006366D01*
X177197569Y-111023107D01*
X177163591Y-111033415D01*
X177122110Y-111037500D01*
X176445890Y-111037500D01*
X176404409Y-111033415D01*
X176370431Y-111023107D01*
X176339110Y-111006366D01*
X176311661Y-110983839D01*
X176289134Y-110956390D01*
X176272393Y-110925069D01*
X176262085Y-110891091D01*
X176258000Y-110849610D01*
X176258000Y-110248390D01*
X176262085Y-110206909D01*
X176272393Y-110172931D01*
X176289134Y-110141610D01*
X176311661Y-110114161D01*
X176339110Y-110091634D01*
X176370431Y-110074893D01*
X176404409Y-110064585D01*
X176445890Y-110060500D01*
X177122110Y-110060500D01*
X177163591Y-110064585D01*
G37*
G36*
X172955000Y-110990000D02*
G01*
X171793000Y-110990000D01*
X171793000Y-108338000D01*
X172955000Y-108338000D01*
X172955000Y-110990000D01*
G37*
G36*
X175155000Y-110990000D02*
G01*
X173993000Y-110990000D01*
X173993000Y-110238000D01*
X175155000Y-110238000D01*
X175155000Y-110990000D01*
G37*
G36*
X170633591Y-108499585D02*
G01*
X170667569Y-108509893D01*
X170698890Y-108526634D01*
X170726339Y-108549161D01*
X170748866Y-108576610D01*
X170765607Y-108607931D01*
X170775915Y-108641909D01*
X170780000Y-108683390D01*
X170780000Y-109284610D01*
X170775915Y-109326091D01*
X170765607Y-109360069D01*
X170748866Y-109391390D01*
X170726339Y-109418839D01*
X170698890Y-109441366D01*
X170667569Y-109458107D01*
X170633591Y-109468415D01*
X170592110Y-109472500D01*
X169915890Y-109472500D01*
X169874409Y-109468415D01*
X169840431Y-109458107D01*
X169809110Y-109441366D01*
X169781661Y-109418839D01*
X169759134Y-109391390D01*
X169742393Y-109360069D01*
X169732085Y-109326091D01*
X169728000Y-109284610D01*
X169728000Y-108683390D01*
X169732085Y-108641909D01*
X169742393Y-108607931D01*
X169759134Y-108576610D01*
X169781661Y-108549161D01*
X169809110Y-108526634D01*
X169840431Y-108509893D01*
X169874409Y-108499585D01*
X169915890Y-108495500D01*
X170592110Y-108495500D01*
X170633591Y-108499585D01*
G37*
G36*
X177163591Y-108489585D02*
G01*
X177197569Y-108499893D01*
X177228890Y-108516634D01*
X177256339Y-108539161D01*
X177278866Y-108566610D01*
X177295607Y-108597931D01*
X177305915Y-108631909D01*
X177310000Y-108673390D01*
X177310000Y-109274610D01*
X177305915Y-109316091D01*
X177295607Y-109350069D01*
X177278866Y-109381390D01*
X177256339Y-109408839D01*
X177228890Y-109431366D01*
X177197569Y-109448107D01*
X177163591Y-109458415D01*
X177122110Y-109462500D01*
X176445890Y-109462500D01*
X176404409Y-109458415D01*
X176370431Y-109448107D01*
X176339110Y-109431366D01*
X176311661Y-109408839D01*
X176289134Y-109381390D01*
X176272393Y-109350069D01*
X176262085Y-109316091D01*
X176258000Y-109274610D01*
X176258000Y-108673390D01*
X176262085Y-108631909D01*
X176272393Y-108597931D01*
X176289134Y-108566610D01*
X176311661Y-108539161D01*
X176339110Y-108516634D01*
X176370431Y-108499893D01*
X176404409Y-108489585D01*
X176445890Y-108485500D01*
X177122110Y-108485500D01*
X177163591Y-108489585D01*
G37*
G36*
X175155000Y-109090000D02*
G01*
X173993000Y-109090000D01*
X173993000Y-108338000D01*
X175155000Y-108338000D01*
X175155000Y-109090000D01*
G37*
G36*
X140578091Y-107870085D02*
G01*
X140612069Y-107880393D01*
X140643390Y-107897134D01*
X140670839Y-107919661D01*
X140693366Y-107947110D01*
X140710107Y-107978431D01*
X140720415Y-108012409D01*
X140724500Y-108053890D01*
X140724500Y-108730110D01*
X140720415Y-108771591D01*
X140710107Y-108805569D01*
X140693366Y-108836890D01*
X140670839Y-108864339D01*
X140643390Y-108886866D01*
X140612069Y-108903607D01*
X140578091Y-108913915D01*
X140536610Y-108918000D01*
X139935390Y-108918000D01*
X139893909Y-108913915D01*
X139859931Y-108903607D01*
X139828610Y-108886866D01*
X139801161Y-108864339D01*
X139778634Y-108836890D01*
X139761893Y-108805569D01*
X139751585Y-108771591D01*
X139747500Y-108730110D01*
X139747500Y-108053890D01*
X139751585Y-108012409D01*
X139761893Y-107978431D01*
X139778634Y-107947110D01*
X139801161Y-107919661D01*
X139828610Y-107897134D01*
X139859931Y-107880393D01*
X139893909Y-107870085D01*
X139935390Y-107866000D01*
X140536610Y-107866000D01*
X140578091Y-107870085D01*
G37*
G36*
X137078091Y-107870085D02*
G01*
X137112069Y-107880393D01*
X137143390Y-107897134D01*
X137170839Y-107919661D01*
X137193366Y-107947110D01*
X137210107Y-107978431D01*
X137220415Y-108012409D01*
X137224500Y-108053890D01*
X137224500Y-108730110D01*
X137220415Y-108771591D01*
X137210107Y-108805569D01*
X137193366Y-108836890D01*
X137170839Y-108864339D01*
X137143390Y-108886866D01*
X137112069Y-108903607D01*
X137078091Y-108913915D01*
X137036610Y-108918000D01*
X136435390Y-108918000D01*
X136393909Y-108913915D01*
X136359931Y-108903607D01*
X136328610Y-108886866D01*
X136301161Y-108864339D01*
X136278634Y-108836890D01*
X136261893Y-108805569D01*
X136251585Y-108771591D01*
X136247500Y-108730110D01*
X136247500Y-108053890D01*
X136251585Y-108012409D01*
X136261893Y-107978431D01*
X136278634Y-107947110D01*
X136301161Y-107919661D01*
X136328610Y-107897134D01*
X136359931Y-107880393D01*
X136393909Y-107870085D01*
X136435390Y-107866000D01*
X137036610Y-107866000D01*
X137078091Y-107870085D01*
G37*
G36*
X142153091Y-107870085D02*
G01*
X142187069Y-107880393D01*
X142218390Y-107897134D01*
X142245839Y-107919661D01*
X142268366Y-107947110D01*
X142285107Y-107978431D01*
X142295415Y-108012409D01*
X142299500Y-108053890D01*
X142299500Y-108730110D01*
X142295415Y-108771591D01*
X142285107Y-108805569D01*
X142268366Y-108836890D01*
X142245839Y-108864339D01*
X142218390Y-108886866D01*
X142187069Y-108903607D01*
X142153091Y-108913915D01*
X142111610Y-108918000D01*
X141510390Y-108918000D01*
X141468909Y-108913915D01*
X141434931Y-108903607D01*
X141403610Y-108886866D01*
X141376161Y-108864339D01*
X141353634Y-108836890D01*
X141336893Y-108805569D01*
X141326585Y-108771591D01*
X141322500Y-108730110D01*
X141322500Y-108053890D01*
X141326585Y-108012409D01*
X141336893Y-107978431D01*
X141353634Y-107947110D01*
X141376161Y-107919661D01*
X141403610Y-107897134D01*
X141434931Y-107880393D01*
X141468909Y-107870085D01*
X141510390Y-107866000D01*
X142111610Y-107866000D01*
X142153091Y-107870085D01*
G37*
G36*
X138653091Y-107870085D02*
G01*
X138687069Y-107880393D01*
X138718390Y-107897134D01*
X138745839Y-107919661D01*
X138768366Y-107947110D01*
X138785107Y-107978431D01*
X138795415Y-108012409D01*
X138799500Y-108053890D01*
X138799500Y-108730110D01*
X138795415Y-108771591D01*
X138785107Y-108805569D01*
X138768366Y-108836890D01*
X138745839Y-108864339D01*
X138718390Y-108886866D01*
X138687069Y-108903607D01*
X138653091Y-108913915D01*
X138611610Y-108918000D01*
X138010390Y-108918000D01*
X137968909Y-108913915D01*
X137934931Y-108903607D01*
X137903610Y-108886866D01*
X137876161Y-108864339D01*
X137853634Y-108836890D01*
X137836893Y-108805569D01*
X137826585Y-108771591D01*
X137822500Y-108730110D01*
X137822500Y-108053890D01*
X137826585Y-108012409D01*
X137836893Y-107978431D01*
X137853634Y-107947110D01*
X137876161Y-107919661D01*
X137903610Y-107897134D01*
X137934931Y-107880393D01*
X137968909Y-107870085D01*
X138010390Y-107866000D01*
X138611610Y-107866000D01*
X138653091Y-107870085D01*
G37*
G36*
X154080091Y-107737085D02*
G01*
X154114069Y-107747393D01*
X154145390Y-107764134D01*
X154172839Y-107786661D01*
X154195366Y-107814110D01*
X154212107Y-107845431D01*
X154222415Y-107879409D01*
X154226500Y-107920890D01*
X154226500Y-108597110D01*
X154222415Y-108638591D01*
X154212107Y-108672569D01*
X154195366Y-108703890D01*
X154172839Y-108731339D01*
X154145390Y-108753866D01*
X154114069Y-108770607D01*
X154080091Y-108780915D01*
X154038610Y-108785000D01*
X153437390Y-108785000D01*
X153395909Y-108780915D01*
X153361931Y-108770607D01*
X153330610Y-108753866D01*
X153303161Y-108731339D01*
X153280634Y-108703890D01*
X153263893Y-108672569D01*
X153253585Y-108638591D01*
X153249500Y-108597110D01*
X153249500Y-107920890D01*
X153253585Y-107879409D01*
X153263893Y-107845431D01*
X153280634Y-107814110D01*
X153303161Y-107786661D01*
X153330610Y-107764134D01*
X153361931Y-107747393D01*
X153395909Y-107737085D01*
X153437390Y-107733000D01*
X154038610Y-107733000D01*
X154080091Y-107737085D01*
G37*
G36*
X155655091Y-107737085D02*
G01*
X155689069Y-107747393D01*
X155720390Y-107764134D01*
X155747839Y-107786661D01*
X155770366Y-107814110D01*
X155787107Y-107845431D01*
X155797415Y-107879409D01*
X155801500Y-107920890D01*
X155801500Y-108597110D01*
X155797415Y-108638591D01*
X155787107Y-108672569D01*
X155770366Y-108703890D01*
X155747839Y-108731339D01*
X155720390Y-108753866D01*
X155689069Y-108770607D01*
X155655091Y-108780915D01*
X155613610Y-108785000D01*
X155012390Y-108785000D01*
X154970909Y-108780915D01*
X154936931Y-108770607D01*
X154905610Y-108753866D01*
X154878161Y-108731339D01*
X154855634Y-108703890D01*
X154838893Y-108672569D01*
X154828585Y-108638591D01*
X154824500Y-108597110D01*
X154824500Y-107920890D01*
X154828585Y-107879409D01*
X154838893Y-107845431D01*
X154855634Y-107814110D01*
X154878161Y-107786661D01*
X154905610Y-107764134D01*
X154936931Y-107747393D01*
X154970909Y-107737085D01*
X155012390Y-107733000D01*
X155613610Y-107733000D01*
X155655091Y-107737085D01*
G37*
G36*
X158232591Y-107444585D02*
G01*
X158266569Y-107454893D01*
X158297890Y-107471634D01*
X158325339Y-107494161D01*
X158347866Y-107521610D01*
X158364607Y-107552931D01*
X158374915Y-107586909D01*
X158379000Y-107628390D01*
X158379000Y-108229610D01*
X158374915Y-108271091D01*
X158364607Y-108305069D01*
X158347866Y-108336390D01*
X158325339Y-108363839D01*
X158297890Y-108386366D01*
X158266569Y-108403107D01*
X158232591Y-108413415D01*
X158191110Y-108417500D01*
X157514890Y-108417500D01*
X157473409Y-108413415D01*
X157439431Y-108403107D01*
X157408110Y-108386366D01*
X157380661Y-108363839D01*
X157358134Y-108336390D01*
X157341393Y-108305069D01*
X157331085Y-108271091D01*
X157327000Y-108229610D01*
X157327000Y-107628390D01*
X157331085Y-107586909D01*
X157341393Y-107552931D01*
X157358134Y-107521610D01*
X157380661Y-107494161D01*
X157408110Y-107471634D01*
X157439431Y-107454893D01*
X157473409Y-107444585D01*
X157514890Y-107440500D01*
X158191110Y-107440500D01*
X158232591Y-107444585D01*
G37*
G36*
X149566642Y-105848781D02*
G01*
X149706383Y-105906664D01*
X149712416Y-105909163D01*
X149843608Y-105996822D01*
X149955178Y-106108392D01*
X150042837Y-106239584D01*
X150042838Y-106239586D01*
X150103219Y-106385358D01*
X150134000Y-106540107D01*
X150134000Y-106697893D01*
X150103219Y-106852642D01*
X150042838Y-106998414D01*
X150042837Y-106998416D01*
X149955178Y-107129608D01*
X149843608Y-107241178D01*
X149712416Y-107328837D01*
X149712415Y-107328838D01*
X149712414Y-107328838D01*
X149566642Y-107389219D01*
X149411893Y-107420000D01*
X149254107Y-107420000D01*
X149099358Y-107389219D01*
X148953586Y-107328838D01*
X148953585Y-107328838D01*
X148953584Y-107328837D01*
X148822392Y-107241178D01*
X148710822Y-107129608D01*
X148623163Y-106998416D01*
X148623162Y-106998414D01*
X148562781Y-106852642D01*
X148532000Y-106697893D01*
X148532000Y-106540107D01*
X148562781Y-106385358D01*
X148623162Y-106239586D01*
X148623163Y-106239584D01*
X148710822Y-106108392D01*
X148822392Y-105996822D01*
X148953584Y-105909163D01*
X148959617Y-105906664D01*
X149099358Y-105848781D01*
X149254107Y-105818000D01*
X149411893Y-105818000D01*
X149566642Y-105848781D01*
G37*
G36*
X163893295Y-105554323D02*
G01*
X163900309Y-105556451D01*
X163914077Y-105563810D01*
X163936716Y-105573187D01*
X163960749Y-105577967D01*
X163985253Y-105577967D01*
X164009286Y-105573186D01*
X164031923Y-105563810D01*
X164045691Y-105556451D01*
X164052705Y-105554323D01*
X164066140Y-105553000D01*
X164379860Y-105553000D01*
X164393295Y-105554323D01*
X164400309Y-105556451D01*
X164414077Y-105563810D01*
X164436716Y-105573187D01*
X164460749Y-105577967D01*
X164485253Y-105577967D01*
X164509286Y-105573186D01*
X164531923Y-105563810D01*
X164545691Y-105556451D01*
X164552705Y-105554323D01*
X164566140Y-105553000D01*
X164879860Y-105553000D01*
X164893295Y-105554323D01*
X164900309Y-105556451D01*
X164914077Y-105563810D01*
X164936716Y-105573187D01*
X164960749Y-105577967D01*
X164985253Y-105577967D01*
X165009286Y-105573186D01*
X165031923Y-105563810D01*
X165045691Y-105556451D01*
X165052705Y-105554323D01*
X165066140Y-105553000D01*
X165379860Y-105553000D01*
X165393295Y-105554323D01*
X165400309Y-105556451D01*
X165414077Y-105563810D01*
X165436716Y-105573187D01*
X165460749Y-105577967D01*
X165485253Y-105577967D01*
X165509286Y-105573186D01*
X165531923Y-105563810D01*
X165545691Y-105556451D01*
X165552705Y-105554323D01*
X165566140Y-105553000D01*
X165879860Y-105553000D01*
X165893295Y-105554323D01*
X165900309Y-105556451D01*
X165914077Y-105563810D01*
X165936716Y-105573187D01*
X165960749Y-105577967D01*
X165985253Y-105577967D01*
X166009286Y-105573186D01*
X166031923Y-105563810D01*
X166045691Y-105556451D01*
X166052705Y-105554323D01*
X166066140Y-105553000D01*
X166379860Y-105553000D01*
X166393295Y-105554323D01*
X166400309Y-105556451D01*
X166414077Y-105563810D01*
X166436716Y-105573187D01*
X166460749Y-105577967D01*
X166485253Y-105577967D01*
X166509286Y-105573186D01*
X166531923Y-105563810D01*
X166545691Y-105556451D01*
X166552705Y-105554323D01*
X166566140Y-105553000D01*
X166879860Y-105553000D01*
X166893295Y-105554323D01*
X166900309Y-105556451D01*
X166914077Y-105563810D01*
X166936716Y-105573187D01*
X166960749Y-105577967D01*
X166985253Y-105577967D01*
X167009286Y-105573186D01*
X167031923Y-105563810D01*
X167045691Y-105556451D01*
X167052705Y-105554323D01*
X167066140Y-105553000D01*
X167379860Y-105553000D01*
X167393295Y-105554323D01*
X167400310Y-105556451D01*
X167406776Y-105559908D01*
X167412442Y-105564558D01*
X167417092Y-105570224D01*
X167420549Y-105576690D01*
X167422677Y-105583705D01*
X167424000Y-105597140D01*
X167424000Y-107110860D01*
X167422677Y-107124295D01*
X167420549Y-107131310D01*
X167417092Y-107137776D01*
X167412442Y-107143442D01*
X167406776Y-107148092D01*
X167400310Y-107151549D01*
X167393295Y-107153677D01*
X167379860Y-107155000D01*
X167066140Y-107155000D01*
X167052705Y-107153677D01*
X167045691Y-107151549D01*
X167031923Y-107144190D01*
X167009284Y-107134813D01*
X166985251Y-107130033D01*
X166960747Y-107130033D01*
X166936714Y-107134814D01*
X166914077Y-107144190D01*
X166900309Y-107151549D01*
X166893295Y-107153677D01*
X166879860Y-107155000D01*
X166566140Y-107155000D01*
X166552705Y-107153677D01*
X166545691Y-107151549D01*
X166531923Y-107144190D01*
X166509284Y-107134813D01*
X166485251Y-107130033D01*
X166460747Y-107130033D01*
X166436714Y-107134814D01*
X166414077Y-107144190D01*
X166400309Y-107151549D01*
X166393295Y-107153677D01*
X166379860Y-107155000D01*
X166066140Y-107155000D01*
X166052705Y-107153677D01*
X166045691Y-107151549D01*
X166031923Y-107144190D01*
X166009284Y-107134813D01*
X165985251Y-107130033D01*
X165960747Y-107130033D01*
X165936714Y-107134814D01*
X165914077Y-107144190D01*
X165900309Y-107151549D01*
X165893295Y-107153677D01*
X165879860Y-107155000D01*
X165566140Y-107155000D01*
X165552705Y-107153677D01*
X165545691Y-107151549D01*
X165531923Y-107144190D01*
X165509284Y-107134813D01*
X165485251Y-107130033D01*
X165460747Y-107130033D01*
X165436714Y-107134814D01*
X165414077Y-107144190D01*
X165400309Y-107151549D01*
X165393295Y-107153677D01*
X165379860Y-107155000D01*
X165066140Y-107155000D01*
X165052705Y-107153677D01*
X165045691Y-107151549D01*
X165031923Y-107144190D01*
X165009284Y-107134813D01*
X164985251Y-107130033D01*
X164960747Y-107130033D01*
X164936714Y-107134814D01*
X164914077Y-107144190D01*
X164900309Y-107151549D01*
X164893295Y-107153677D01*
X164879860Y-107155000D01*
X164566140Y-107155000D01*
X164552705Y-107153677D01*
X164545691Y-107151549D01*
X164531923Y-107144190D01*
X164509284Y-107134813D01*
X164485251Y-107130033D01*
X164460747Y-107130033D01*
X164436714Y-107134814D01*
X164414077Y-107144190D01*
X164400309Y-107151549D01*
X164393295Y-107153677D01*
X164379860Y-107155000D01*
X164066140Y-107155000D01*
X164052705Y-107153677D01*
X164045691Y-107151549D01*
X164031923Y-107144190D01*
X164009284Y-107134813D01*
X163985251Y-107130033D01*
X163960747Y-107130033D01*
X163936714Y-107134814D01*
X163914077Y-107144190D01*
X163900309Y-107151549D01*
X163893295Y-107153677D01*
X163879860Y-107155000D01*
X163566140Y-107155000D01*
X163552705Y-107153677D01*
X163545690Y-107151549D01*
X163539224Y-107148092D01*
X163533558Y-107143442D01*
X163528908Y-107137776D01*
X163525451Y-107131310D01*
X163523323Y-107124295D01*
X163522000Y-107110860D01*
X163522000Y-105597140D01*
X163523323Y-105583705D01*
X163525451Y-105576690D01*
X163528908Y-105570224D01*
X163533558Y-105564558D01*
X163539224Y-105559908D01*
X163545690Y-105556451D01*
X163552705Y-105554323D01*
X163566140Y-105553000D01*
X163879860Y-105553000D01*
X163893295Y-105554323D01*
G37*
G36*
X158232591Y-105869585D02*
G01*
X158266569Y-105879893D01*
X158297890Y-105896634D01*
X158325339Y-105919161D01*
X158347866Y-105946610D01*
X158364607Y-105977931D01*
X158374915Y-106011909D01*
X158379000Y-106053390D01*
X158379000Y-106654610D01*
X158374915Y-106696091D01*
X158364607Y-106730069D01*
X158347866Y-106761390D01*
X158325339Y-106788839D01*
X158297890Y-106811366D01*
X158266569Y-106828107D01*
X158232591Y-106838415D01*
X158191110Y-106842500D01*
X157514890Y-106842500D01*
X157473409Y-106838415D01*
X157439431Y-106828107D01*
X157408110Y-106811366D01*
X157380661Y-106788839D01*
X157358134Y-106761390D01*
X157341393Y-106730069D01*
X157331085Y-106696091D01*
X157327000Y-106654610D01*
X157327000Y-106053390D01*
X157331085Y-106011909D01*
X157341393Y-105977931D01*
X157358134Y-105946610D01*
X157380661Y-105919161D01*
X157408110Y-105896634D01*
X157439431Y-105879893D01*
X157473409Y-105869585D01*
X157514890Y-105865500D01*
X158191110Y-105865500D01*
X158232591Y-105869585D01*
G37*
G36*
X131345591Y-105391585D02*
G01*
X131379569Y-105401893D01*
X131410890Y-105418634D01*
X131438339Y-105441161D01*
X131460866Y-105468610D01*
X131477607Y-105499931D01*
X131487915Y-105533909D01*
X131492000Y-105575390D01*
X131492000Y-106176610D01*
X131487915Y-106218091D01*
X131477607Y-106252069D01*
X131460866Y-106283390D01*
X131438339Y-106310839D01*
X131410890Y-106333366D01*
X131379569Y-106350107D01*
X131345591Y-106360415D01*
X131304110Y-106364500D01*
X130627890Y-106364500D01*
X130586409Y-106360415D01*
X130552431Y-106350107D01*
X130521110Y-106333366D01*
X130493661Y-106310839D01*
X130471134Y-106283390D01*
X130454393Y-106252069D01*
X130444085Y-106218091D01*
X130440000Y-106176610D01*
X130440000Y-105575390D01*
X130444085Y-105533909D01*
X130454393Y-105499931D01*
X130471134Y-105468610D01*
X130493661Y-105441161D01*
X130521110Y-105418634D01*
X130552431Y-105401893D01*
X130586409Y-105391585D01*
X130627890Y-105387500D01*
X131304110Y-105387500D01*
X131345591Y-105391585D01*
G37*
G36*
X129345591Y-105391585D02*
G01*
X129379569Y-105401893D01*
X129410890Y-105418634D01*
X129438339Y-105441161D01*
X129460866Y-105468610D01*
X129477607Y-105499931D01*
X129487915Y-105533909D01*
X129492000Y-105575390D01*
X129492000Y-106176610D01*
X129487915Y-106218091D01*
X129477607Y-106252069D01*
X129460866Y-106283390D01*
X129438339Y-106310839D01*
X129410890Y-106333366D01*
X129379569Y-106350107D01*
X129345591Y-106360415D01*
X129304110Y-106364500D01*
X128627890Y-106364500D01*
X128586409Y-106360415D01*
X128552431Y-106350107D01*
X128521110Y-106333366D01*
X128493661Y-106310839D01*
X128471134Y-106283390D01*
X128454393Y-106252069D01*
X128444085Y-106218091D01*
X128440000Y-106176610D01*
X128440000Y-105575390D01*
X128444085Y-105533909D01*
X128454393Y-105499931D01*
X128471134Y-105468610D01*
X128493661Y-105441161D01*
X128521110Y-105418634D01*
X128552431Y-105401893D01*
X128586409Y-105391585D01*
X128627890Y-105387500D01*
X129304110Y-105387500D01*
X129345591Y-105391585D01*
G37*
G36*
X155655091Y-105197085D02*
G01*
X155689069Y-105207393D01*
X155720390Y-105224134D01*
X155747839Y-105246661D01*
X155770366Y-105274110D01*
X155787107Y-105305431D01*
X155797415Y-105339409D01*
X155801500Y-105380890D01*
X155801500Y-106057110D01*
X155797415Y-106098591D01*
X155787107Y-106132569D01*
X155770366Y-106163890D01*
X155747839Y-106191339D01*
X155720390Y-106213866D01*
X155689069Y-106230607D01*
X155655091Y-106240915D01*
X155613610Y-106245000D01*
X155012390Y-106245000D01*
X154970909Y-106240915D01*
X154936931Y-106230607D01*
X154905610Y-106213866D01*
X154878161Y-106191339D01*
X154855634Y-106163890D01*
X154838893Y-106132569D01*
X154828585Y-106098591D01*
X154824500Y-106057110D01*
X154824500Y-105380890D01*
X154828585Y-105339409D01*
X154838893Y-105305431D01*
X154855634Y-105274110D01*
X154878161Y-105246661D01*
X154905610Y-105224134D01*
X154936931Y-105207393D01*
X154970909Y-105197085D01*
X155012390Y-105193000D01*
X155613610Y-105193000D01*
X155655091Y-105197085D01*
G37*
G36*
X154080091Y-105197085D02*
G01*
X154114069Y-105207393D01*
X154145390Y-105224134D01*
X154172839Y-105246661D01*
X154195366Y-105274110D01*
X154212107Y-105305431D01*
X154222415Y-105339409D01*
X154226500Y-105380890D01*
X154226500Y-106057110D01*
X154222415Y-106098591D01*
X154212107Y-106132569D01*
X154195366Y-106163890D01*
X154172839Y-106191339D01*
X154145390Y-106213866D01*
X154114069Y-106230607D01*
X154080091Y-106240915D01*
X154038610Y-106245000D01*
X153437390Y-106245000D01*
X153395909Y-106240915D01*
X153361931Y-106230607D01*
X153330610Y-106213866D01*
X153303161Y-106191339D01*
X153280634Y-106163890D01*
X153263893Y-106132569D01*
X153253585Y-106098591D01*
X153249500Y-106057110D01*
X153249500Y-105380890D01*
X153253585Y-105339409D01*
X153263893Y-105305431D01*
X153280634Y-105274110D01*
X153303161Y-105246661D01*
X153330610Y-105224134D01*
X153361931Y-105207393D01*
X153395909Y-105197085D01*
X153437390Y-105193000D01*
X154038610Y-105193000D01*
X154080091Y-105197085D01*
G37*
G36*
X135526000Y-106058000D02*
G01*
X133886000Y-106058000D01*
X133886000Y-105368000D01*
X135526000Y-105368000D01*
X135526000Y-106058000D01*
G37*
G36*
X140926000Y-106058000D02*
G01*
X139286000Y-106058000D01*
X139286000Y-105368000D01*
X140926000Y-105368000D01*
X140926000Y-106058000D01*
G37*
G36*
X163068295Y-101229323D02*
G01*
X163075310Y-101231451D01*
X163081776Y-101234908D01*
X163087442Y-101239558D01*
X163092092Y-101245224D01*
X163095549Y-101251690D01*
X163097677Y-101258705D01*
X163099000Y-101272140D01*
X163099000Y-101585860D01*
X163097677Y-101599295D01*
X163095549Y-101606309D01*
X163088190Y-101620077D01*
X163078813Y-101642716D01*
X163074033Y-101666749D01*
X163074033Y-101691253D01*
X163078814Y-101715286D01*
X163088190Y-101737923D01*
X163095549Y-101751691D01*
X163097677Y-101758705D01*
X163099000Y-101772140D01*
X163099000Y-102085860D01*
X163097677Y-102099295D01*
X163095549Y-102106309D01*
X163088190Y-102120077D01*
X163078813Y-102142716D01*
X163074033Y-102166749D01*
X163074033Y-102191253D01*
X163078814Y-102215286D01*
X163088190Y-102237923D01*
X163095549Y-102251691D01*
X163097677Y-102258705D01*
X163099000Y-102272140D01*
X163099000Y-102585860D01*
X163097677Y-102599295D01*
X163095549Y-102606309D01*
X163088190Y-102620077D01*
X163078813Y-102642716D01*
X163074033Y-102666749D01*
X163074033Y-102691253D01*
X163078814Y-102715286D01*
X163088190Y-102737923D01*
X163095549Y-102751691D01*
X163097677Y-102758705D01*
X163099000Y-102772140D01*
X163099000Y-103085860D01*
X163097677Y-103099295D01*
X163095549Y-103106309D01*
X163088190Y-103120077D01*
X163078813Y-103142716D01*
X163074033Y-103166749D01*
X163074033Y-103191253D01*
X163078814Y-103215286D01*
X163088190Y-103237923D01*
X163095549Y-103251691D01*
X163097677Y-103258705D01*
X163099000Y-103272140D01*
X163099000Y-103585860D01*
X163097677Y-103599295D01*
X163095549Y-103606309D01*
X163088190Y-103620077D01*
X163078813Y-103642716D01*
X163074033Y-103666749D01*
X163074033Y-103691253D01*
X163078814Y-103715286D01*
X163088190Y-103737923D01*
X163095549Y-103751691D01*
X163097677Y-103758705D01*
X163099000Y-103772140D01*
X163099000Y-104085860D01*
X163097677Y-104099295D01*
X163095549Y-104106309D01*
X163088190Y-104120077D01*
X163078813Y-104142716D01*
X163074033Y-104166749D01*
X163074033Y-104191253D01*
X163078814Y-104215286D01*
X163088190Y-104237923D01*
X163095549Y-104251691D01*
X163097677Y-104258705D01*
X163099000Y-104272140D01*
X163099000Y-104585860D01*
X163097677Y-104599295D01*
X163095549Y-104606309D01*
X163088190Y-104620077D01*
X163078813Y-104642716D01*
X163074033Y-104666749D01*
X163074033Y-104691253D01*
X163078814Y-104715286D01*
X163088190Y-104737923D01*
X163095549Y-104751691D01*
X163097677Y-104758705D01*
X163099000Y-104772140D01*
X163099000Y-105085860D01*
X163097677Y-105099295D01*
X163095549Y-105106310D01*
X163092092Y-105112776D01*
X163087442Y-105118442D01*
X163081776Y-105123092D01*
X163075310Y-105126549D01*
X163068295Y-105128677D01*
X163054860Y-105130000D01*
X161541140Y-105130000D01*
X161527705Y-105128677D01*
X161520690Y-105126549D01*
X161514224Y-105123092D01*
X161508558Y-105118442D01*
X161503908Y-105112776D01*
X161500451Y-105106310D01*
X161498323Y-105099295D01*
X161497000Y-105085860D01*
X161497000Y-104772140D01*
X161498323Y-104758705D01*
X161500451Y-104751691D01*
X161507810Y-104737923D01*
X161517187Y-104715284D01*
X161521967Y-104691251D01*
X161521967Y-104666747D01*
X161517186Y-104642714D01*
X161507810Y-104620077D01*
X161500451Y-104606309D01*
X161498323Y-104599295D01*
X161497000Y-104585860D01*
X161497000Y-104272140D01*
X161498323Y-104258705D01*
X161500451Y-104251691D01*
X161507810Y-104237923D01*
X161517187Y-104215284D01*
X161521967Y-104191251D01*
X161521967Y-104166747D01*
X161517186Y-104142714D01*
X161507810Y-104120077D01*
X161500451Y-104106309D01*
X161498323Y-104099295D01*
X161497000Y-104085860D01*
X161497000Y-103772140D01*
X161498323Y-103758705D01*
X161500451Y-103751691D01*
X161507810Y-103737923D01*
X161517187Y-103715284D01*
X161521967Y-103691251D01*
X161521967Y-103666747D01*
X161517186Y-103642714D01*
X161507810Y-103620077D01*
X161500451Y-103606309D01*
X161498323Y-103599295D01*
X161497000Y-103585860D01*
X161497000Y-103272140D01*
X161498323Y-103258705D01*
X161500451Y-103251691D01*
X161507810Y-103237923D01*
X161517187Y-103215284D01*
X161521967Y-103191251D01*
X161521967Y-103166747D01*
X161517186Y-103142714D01*
X161507810Y-103120077D01*
X161500451Y-103106309D01*
X161498323Y-103099295D01*
X161497000Y-103085860D01*
X161497000Y-102772140D01*
X161498323Y-102758705D01*
X161500451Y-102751691D01*
X161507810Y-102737923D01*
X161517187Y-102715284D01*
X161521967Y-102691251D01*
X161521967Y-102666747D01*
X161517186Y-102642714D01*
X161507810Y-102620077D01*
X161500451Y-102606309D01*
X161498323Y-102599295D01*
X161497000Y-102585860D01*
X161497000Y-102272140D01*
X161498323Y-102258705D01*
X161500451Y-102251691D01*
X161507810Y-102237923D01*
X161517187Y-102215284D01*
X161521967Y-102191251D01*
X161521967Y-102166747D01*
X161517186Y-102142714D01*
X161507810Y-102120077D01*
X161500451Y-102106309D01*
X161498323Y-102099295D01*
X161497000Y-102085860D01*
X161497000Y-101772140D01*
X161498323Y-101758705D01*
X161500451Y-101751691D01*
X161507810Y-101737923D01*
X161517187Y-101715284D01*
X161521967Y-101691251D01*
X161521967Y-101666747D01*
X161517186Y-101642714D01*
X161507810Y-101620077D01*
X161500451Y-101606309D01*
X161498323Y-101599295D01*
X161497000Y-101585860D01*
X161497000Y-101272140D01*
X161498323Y-101258705D01*
X161500451Y-101251690D01*
X161503908Y-101245224D01*
X161508558Y-101239558D01*
X161514224Y-101234908D01*
X161520690Y-101231451D01*
X161527705Y-101229323D01*
X161541140Y-101228000D01*
X163054860Y-101228000D01*
X163068295Y-101229323D01*
G37*
G36*
X169418295Y-101229323D02*
G01*
X169425310Y-101231451D01*
X169431776Y-101234908D01*
X169437442Y-101239558D01*
X169442092Y-101245224D01*
X169445549Y-101251690D01*
X169447677Y-101258705D01*
X169449000Y-101272140D01*
X169449000Y-101585860D01*
X169447677Y-101599295D01*
X169445549Y-101606309D01*
X169438190Y-101620077D01*
X169428813Y-101642716D01*
X169424033Y-101666749D01*
X169424033Y-101691253D01*
X169428814Y-101715286D01*
X169438190Y-101737923D01*
X169445549Y-101751691D01*
X169447677Y-101758705D01*
X169449000Y-101772140D01*
X169449000Y-102085860D01*
X169447677Y-102099295D01*
X169445549Y-102106309D01*
X169438190Y-102120077D01*
X169428813Y-102142716D01*
X169424033Y-102166749D01*
X169424033Y-102191253D01*
X169428814Y-102215286D01*
X169438190Y-102237923D01*
X169445549Y-102251691D01*
X169447677Y-102258705D01*
X169449000Y-102272140D01*
X169449000Y-102585860D01*
X169447677Y-102599295D01*
X169445549Y-102606309D01*
X169438190Y-102620077D01*
X169428813Y-102642716D01*
X169424033Y-102666749D01*
X169424033Y-102691253D01*
X169428814Y-102715286D01*
X169438190Y-102737923D01*
X169445549Y-102751691D01*
X169447677Y-102758705D01*
X169449000Y-102772140D01*
X169449000Y-103085860D01*
X169447677Y-103099295D01*
X169445549Y-103106309D01*
X169438190Y-103120077D01*
X169428813Y-103142716D01*
X169424033Y-103166749D01*
X169424033Y-103191253D01*
X169428814Y-103215286D01*
X169438190Y-103237923D01*
X169445549Y-103251691D01*
X169447677Y-103258705D01*
X169449000Y-103272140D01*
X169449000Y-103585860D01*
X169447677Y-103599295D01*
X169445549Y-103606309D01*
X169438190Y-103620077D01*
X169428813Y-103642716D01*
X169424033Y-103666749D01*
X169424033Y-103691253D01*
X169428814Y-103715286D01*
X169438190Y-103737923D01*
X169445549Y-103751691D01*
X169447677Y-103758705D01*
X169449000Y-103772140D01*
X169449000Y-104085860D01*
X169447677Y-104099295D01*
X169445549Y-104106309D01*
X169438190Y-104120077D01*
X169428813Y-104142716D01*
X169424033Y-104166749D01*
X169424033Y-104191253D01*
X169428814Y-104215286D01*
X169438190Y-104237923D01*
X169445549Y-104251691D01*
X169447677Y-104258705D01*
X169449000Y-104272140D01*
X169449000Y-104585860D01*
X169447677Y-104599295D01*
X169445549Y-104606309D01*
X169438190Y-104620077D01*
X169428813Y-104642716D01*
X169424033Y-104666749D01*
X169424033Y-104691253D01*
X169428814Y-104715286D01*
X169438190Y-104737923D01*
X169445549Y-104751691D01*
X169447677Y-104758705D01*
X169449000Y-104772140D01*
X169449000Y-105085860D01*
X169447677Y-105099295D01*
X169445549Y-105106310D01*
X169442092Y-105112776D01*
X169437442Y-105118442D01*
X169431776Y-105123092D01*
X169425310Y-105126549D01*
X169418295Y-105128677D01*
X169404860Y-105130000D01*
X167891140Y-105130000D01*
X167877705Y-105128677D01*
X167870690Y-105126549D01*
X167864224Y-105123092D01*
X167858558Y-105118442D01*
X167853908Y-105112776D01*
X167850451Y-105106310D01*
X167848323Y-105099295D01*
X167847000Y-105085860D01*
X167847000Y-104772140D01*
X167848323Y-104758705D01*
X167850451Y-104751691D01*
X167857810Y-104737923D01*
X167867187Y-104715284D01*
X167871967Y-104691251D01*
X167871967Y-104666747D01*
X167867186Y-104642714D01*
X167857810Y-104620077D01*
X167850451Y-104606309D01*
X167848323Y-104599295D01*
X167847000Y-104585860D01*
X167847000Y-104272140D01*
X167848323Y-104258705D01*
X167850451Y-104251691D01*
X167857810Y-104237923D01*
X167867187Y-104215284D01*
X167871967Y-104191251D01*
X167871967Y-104166747D01*
X167867186Y-104142714D01*
X167857810Y-104120077D01*
X167850451Y-104106309D01*
X167848323Y-104099295D01*
X167847000Y-104085860D01*
X167847000Y-103772140D01*
X167848323Y-103758705D01*
X167850451Y-103751691D01*
X167857810Y-103737923D01*
X167867187Y-103715284D01*
X167871967Y-103691251D01*
X167871967Y-103666747D01*
X167867186Y-103642714D01*
X167857810Y-103620077D01*
X167850451Y-103606309D01*
X167848323Y-103599295D01*
X167847000Y-103585860D01*
X167847000Y-103272140D01*
X167848323Y-103258705D01*
X167850451Y-103251691D01*
X167857810Y-103237923D01*
X167867187Y-103215284D01*
X167871967Y-103191251D01*
X167871967Y-103166747D01*
X167867186Y-103142714D01*
X167857810Y-103120077D01*
X167850451Y-103106309D01*
X167848323Y-103099295D01*
X167847000Y-103085860D01*
X167847000Y-102772140D01*
X167848323Y-102758705D01*
X167850451Y-102751691D01*
X167857810Y-102737923D01*
X167867187Y-102715284D01*
X167871967Y-102691251D01*
X167871967Y-102666747D01*
X167867186Y-102642714D01*
X167857810Y-102620077D01*
X167850451Y-102606309D01*
X167848323Y-102599295D01*
X167847000Y-102585860D01*
X167847000Y-102272140D01*
X167848323Y-102258705D01*
X167850451Y-102251691D01*
X167857810Y-102237923D01*
X167867187Y-102215284D01*
X167871967Y-102191251D01*
X167871967Y-102166747D01*
X167867186Y-102142714D01*
X167857810Y-102120077D01*
X167850451Y-102106309D01*
X167848323Y-102099295D01*
X167847000Y-102085860D01*
X167847000Y-101772140D01*
X167848323Y-101758705D01*
X167850451Y-101751691D01*
X167857810Y-101737923D01*
X167867187Y-101715284D01*
X167871967Y-101691251D01*
X167871967Y-101666747D01*
X167867186Y-101642714D01*
X167857810Y-101620077D01*
X167850451Y-101606309D01*
X167848323Y-101599295D01*
X167847000Y-101585860D01*
X167847000Y-101272140D01*
X167848323Y-101258705D01*
X167850451Y-101251690D01*
X167853908Y-101245224D01*
X167858558Y-101239558D01*
X167864224Y-101234908D01*
X167870690Y-101231451D01*
X167877705Y-101229323D01*
X167891140Y-101228000D01*
X169404860Y-101228000D01*
X169418295Y-101229323D01*
G37*
G36*
X171385091Y-103833585D02*
G01*
X171419069Y-103843893D01*
X171450390Y-103860634D01*
X171477839Y-103883161D01*
X171500366Y-103910610D01*
X171517107Y-103941931D01*
X171527415Y-103975909D01*
X171531500Y-104017390D01*
X171531500Y-104618610D01*
X171527415Y-104660091D01*
X171517107Y-104694069D01*
X171500366Y-104725390D01*
X171477839Y-104752839D01*
X171450390Y-104775366D01*
X171419069Y-104792107D01*
X171385091Y-104802415D01*
X171343610Y-104806500D01*
X170667390Y-104806500D01*
X170625909Y-104802415D01*
X170591931Y-104792107D01*
X170560610Y-104775366D01*
X170533161Y-104752839D01*
X170510634Y-104725390D01*
X170493893Y-104694069D01*
X170483585Y-104660091D01*
X170479500Y-104618610D01*
X170479500Y-104017390D01*
X170483585Y-103975909D01*
X170493893Y-103941931D01*
X170510634Y-103910610D01*
X170533161Y-103883161D01*
X170560610Y-103860634D01*
X170591931Y-103843893D01*
X170625909Y-103833585D01*
X170667390Y-103829500D01*
X171343610Y-103829500D01*
X171385091Y-103833585D01*
G37*
G36*
X131345591Y-103816585D02*
G01*
X131379569Y-103826893D01*
X131410890Y-103843634D01*
X131438339Y-103866161D01*
X131460866Y-103893610D01*
X131477607Y-103924931D01*
X131487915Y-103958909D01*
X131492000Y-104000390D01*
X131492000Y-104601610D01*
X131487915Y-104643091D01*
X131477607Y-104677069D01*
X131460866Y-104708390D01*
X131438339Y-104735839D01*
X131410890Y-104758366D01*
X131379569Y-104775107D01*
X131345591Y-104785415D01*
X131304110Y-104789500D01*
X130627890Y-104789500D01*
X130586409Y-104785415D01*
X130552431Y-104775107D01*
X130521110Y-104758366D01*
X130493661Y-104735839D01*
X130471134Y-104708390D01*
X130454393Y-104677069D01*
X130444085Y-104643091D01*
X130440000Y-104601610D01*
X130440000Y-104000390D01*
X130444085Y-103958909D01*
X130454393Y-103924931D01*
X130471134Y-103893610D01*
X130493661Y-103866161D01*
X130521110Y-103843634D01*
X130552431Y-103826893D01*
X130586409Y-103816585D01*
X130627890Y-103812500D01*
X131304110Y-103812500D01*
X131345591Y-103816585D01*
G37*
G36*
X129345591Y-103816585D02*
G01*
X129379569Y-103826893D01*
X129410890Y-103843634D01*
X129438339Y-103866161D01*
X129460866Y-103893610D01*
X129477607Y-103924931D01*
X129487915Y-103958909D01*
X129492000Y-104000390D01*
X129492000Y-104601610D01*
X129487915Y-104643091D01*
X129477607Y-104677069D01*
X129460866Y-104708390D01*
X129438339Y-104735839D01*
X129410890Y-104758366D01*
X129379569Y-104775107D01*
X129345591Y-104785415D01*
X129304110Y-104789500D01*
X128627890Y-104789500D01*
X128586409Y-104785415D01*
X128552431Y-104775107D01*
X128521110Y-104758366D01*
X128493661Y-104735839D01*
X128471134Y-104708390D01*
X128454393Y-104677069D01*
X128444085Y-104643091D01*
X128440000Y-104601610D01*
X128440000Y-104000390D01*
X128444085Y-103958909D01*
X128454393Y-103924931D01*
X128471134Y-103893610D01*
X128493661Y-103866161D01*
X128521110Y-103843634D01*
X128552431Y-103826893D01*
X128586409Y-103816585D01*
X128627890Y-103812500D01*
X129304110Y-103812500D01*
X129345591Y-103816585D01*
G37*
G36*
X140926000Y-104788000D02*
G01*
X139286000Y-104788000D01*
X139286000Y-104098000D01*
X140926000Y-104098000D01*
X140926000Y-104788000D01*
G37*
G36*
X135526000Y-104788000D02*
G01*
X133886000Y-104788000D01*
X133886000Y-104098000D01*
X135526000Y-104098000D01*
X135526000Y-104788000D01*
G37*
G36*
X158232591Y-103709585D02*
G01*
X158266569Y-103719893D01*
X158297890Y-103736634D01*
X158325339Y-103759161D01*
X158347866Y-103786610D01*
X158364607Y-103817931D01*
X158374915Y-103851909D01*
X158379000Y-103893390D01*
X158379000Y-104494610D01*
X158374915Y-104536091D01*
X158364607Y-104570069D01*
X158347866Y-104601390D01*
X158325339Y-104628839D01*
X158297890Y-104651366D01*
X158266569Y-104668107D01*
X158232591Y-104678415D01*
X158191110Y-104682500D01*
X157514890Y-104682500D01*
X157473409Y-104678415D01*
X157439431Y-104668107D01*
X157408110Y-104651366D01*
X157380661Y-104628839D01*
X157358134Y-104601390D01*
X157341393Y-104570069D01*
X157331085Y-104536091D01*
X157327000Y-104494610D01*
X157327000Y-103893390D01*
X157331085Y-103851909D01*
X157341393Y-103817931D01*
X157358134Y-103786610D01*
X157380661Y-103759161D01*
X157408110Y-103736634D01*
X157439431Y-103719893D01*
X157473409Y-103709585D01*
X157514890Y-103705500D01*
X158191110Y-103705500D01*
X158232591Y-103709585D01*
G37*
G36*
X149566642Y-102848781D02*
G01*
X149712414Y-102909162D01*
X149712416Y-102909163D01*
X149843608Y-102996822D01*
X149955178Y-103108392D01*
X150034706Y-103227415D01*
X150042838Y-103239586D01*
X150103219Y-103385358D01*
X150134000Y-103540107D01*
X150134000Y-103697893D01*
X150103219Y-103852642D01*
X150050349Y-103980280D01*
X150042837Y-103998416D01*
X149955178Y-104129608D01*
X149843608Y-104241178D01*
X149712416Y-104328837D01*
X149712415Y-104328838D01*
X149712414Y-104328838D01*
X149566642Y-104389219D01*
X149411893Y-104420000D01*
X149254107Y-104420000D01*
X149099358Y-104389219D01*
X148953586Y-104328838D01*
X148953585Y-104328838D01*
X148953584Y-104328837D01*
X148822392Y-104241178D01*
X148710822Y-104129608D01*
X148623163Y-103998416D01*
X148615651Y-103980280D01*
X148562781Y-103852642D01*
X148532000Y-103697893D01*
X148532000Y-103540107D01*
X148562781Y-103385358D01*
X148623162Y-103239586D01*
X148631294Y-103227415D01*
X148710822Y-103108392D01*
X148822392Y-102996822D01*
X148953584Y-102909163D01*
X148953586Y-102909162D01*
X149099358Y-102848781D01*
X149254107Y-102818000D01*
X149411893Y-102818000D01*
X149566642Y-102848781D01*
G37*
G36*
X154088091Y-102983085D02*
G01*
X154122069Y-102993393D01*
X154153390Y-103010134D01*
X154180839Y-103032661D01*
X154203366Y-103060110D01*
X154220107Y-103091431D01*
X154230415Y-103125409D01*
X154234500Y-103166890D01*
X154234500Y-103843110D01*
X154230415Y-103884591D01*
X154220107Y-103918569D01*
X154203366Y-103949890D01*
X154180839Y-103977339D01*
X154153390Y-103999866D01*
X154122069Y-104016607D01*
X154088091Y-104026915D01*
X154046610Y-104031000D01*
X153445390Y-104031000D01*
X153403909Y-104026915D01*
X153369931Y-104016607D01*
X153338610Y-103999866D01*
X153311161Y-103977339D01*
X153288634Y-103949890D01*
X153271893Y-103918569D01*
X153261585Y-103884591D01*
X153257500Y-103843110D01*
X153257500Y-103166890D01*
X153261585Y-103125409D01*
X153271893Y-103091431D01*
X153288634Y-103060110D01*
X153311161Y-103032661D01*
X153338610Y-103010134D01*
X153369931Y-102993393D01*
X153403909Y-102983085D01*
X153445390Y-102979000D01*
X154046610Y-102979000D01*
X154088091Y-102983085D01*
G37*
G36*
X155663091Y-102983085D02*
G01*
X155697069Y-102993393D01*
X155728390Y-103010134D01*
X155755839Y-103032661D01*
X155778366Y-103060110D01*
X155795107Y-103091431D01*
X155805415Y-103125409D01*
X155809500Y-103166890D01*
X155809500Y-103843110D01*
X155805415Y-103884591D01*
X155795107Y-103918569D01*
X155778366Y-103949890D01*
X155755839Y-103977339D01*
X155728390Y-103999866D01*
X155697069Y-104016607D01*
X155663091Y-104026915D01*
X155621610Y-104031000D01*
X155020390Y-104031000D01*
X154978909Y-104026915D01*
X154944931Y-104016607D01*
X154913610Y-103999866D01*
X154886161Y-103977339D01*
X154863634Y-103949890D01*
X154846893Y-103918569D01*
X154836585Y-103884591D01*
X154832500Y-103843110D01*
X154832500Y-103166890D01*
X154836585Y-103125409D01*
X154846893Y-103091431D01*
X154863634Y-103060110D01*
X154886161Y-103032661D01*
X154913610Y-103010134D01*
X154944931Y-102993393D01*
X154978909Y-102983085D01*
X155020390Y-102979000D01*
X155621610Y-102979000D01*
X155663091Y-102983085D01*
G37*
G36*
X135526000Y-103518000D02*
G01*
X133886000Y-103518000D01*
X133886000Y-102828000D01*
X135526000Y-102828000D01*
X135526000Y-103518000D01*
G37*
G36*
X140926000Y-103518000D02*
G01*
X139286000Y-103518000D01*
X139286000Y-102828000D01*
X140926000Y-102828000D01*
X140926000Y-103518000D01*
G37*
G36*
X132713591Y-102385585D02*
G01*
X132747569Y-102395893D01*
X132778890Y-102412634D01*
X132806339Y-102435161D01*
X132828866Y-102462610D01*
X132845607Y-102493931D01*
X132855915Y-102527909D01*
X132860000Y-102569390D01*
X132860000Y-103170610D01*
X132855915Y-103212091D01*
X132845607Y-103246069D01*
X132828866Y-103277390D01*
X132806339Y-103304839D01*
X132778890Y-103327366D01*
X132747569Y-103344107D01*
X132713591Y-103354415D01*
X132672110Y-103358500D01*
X131995890Y-103358500D01*
X131954409Y-103354415D01*
X131920431Y-103344107D01*
X131889110Y-103327366D01*
X131861661Y-103304839D01*
X131839134Y-103277390D01*
X131822393Y-103246069D01*
X131812085Y-103212091D01*
X131808000Y-103170610D01*
X131808000Y-102569390D01*
X131812085Y-102527909D01*
X131822393Y-102493931D01*
X131839134Y-102462610D01*
X131861661Y-102435161D01*
X131889110Y-102412634D01*
X131920431Y-102395893D01*
X131954409Y-102385585D01*
X131995890Y-102381500D01*
X132672110Y-102381500D01*
X132713591Y-102385585D01*
G37*
G36*
X171385091Y-102258585D02*
G01*
X171419069Y-102268893D01*
X171450390Y-102285634D01*
X171477839Y-102308161D01*
X171500366Y-102335610D01*
X171517107Y-102366931D01*
X171527415Y-102400909D01*
X171531500Y-102442390D01*
X171531500Y-103043610D01*
X171527415Y-103085091D01*
X171517107Y-103119069D01*
X171500366Y-103150390D01*
X171477839Y-103177839D01*
X171450390Y-103200366D01*
X171419069Y-103217107D01*
X171385091Y-103227415D01*
X171343610Y-103231500D01*
X170667390Y-103231500D01*
X170625909Y-103227415D01*
X170591931Y-103217107D01*
X170560610Y-103200366D01*
X170533161Y-103177839D01*
X170510634Y-103150390D01*
X170493893Y-103119069D01*
X170483585Y-103085091D01*
X170479500Y-103043610D01*
X170479500Y-102442390D01*
X170483585Y-102400909D01*
X170493893Y-102366931D01*
X170510634Y-102335610D01*
X170533161Y-102308161D01*
X170560610Y-102285634D01*
X170591931Y-102268893D01*
X170625909Y-102258585D01*
X170667390Y-102254500D01*
X171343610Y-102254500D01*
X171385091Y-102258585D01*
G37*
G36*
X158232591Y-102134585D02*
G01*
X158266569Y-102144893D01*
X158297890Y-102161634D01*
X158325339Y-102184161D01*
X158347866Y-102211610D01*
X158364607Y-102242931D01*
X158374915Y-102276909D01*
X158379000Y-102318390D01*
X158379000Y-102919610D01*
X158374915Y-102961091D01*
X158364607Y-102995069D01*
X158347866Y-103026390D01*
X158325339Y-103053839D01*
X158297890Y-103076366D01*
X158266569Y-103093107D01*
X158232591Y-103103415D01*
X158191110Y-103107500D01*
X157514890Y-103107500D01*
X157473409Y-103103415D01*
X157439431Y-103093107D01*
X157408110Y-103076366D01*
X157380661Y-103053839D01*
X157358134Y-103026390D01*
X157341393Y-102995069D01*
X157331085Y-102961091D01*
X157327000Y-102919610D01*
X157327000Y-102318390D01*
X157331085Y-102276909D01*
X157341393Y-102242931D01*
X157358134Y-102211610D01*
X157380661Y-102184161D01*
X157408110Y-102161634D01*
X157439431Y-102144893D01*
X157473409Y-102134585D01*
X157514890Y-102130500D01*
X158191110Y-102130500D01*
X158232591Y-102134585D01*
G37*
G36*
X140926000Y-102248000D02*
G01*
X139286000Y-102248000D01*
X139286000Y-101558000D01*
X140926000Y-101558000D01*
X140926000Y-102248000D01*
G37*
G36*
X135526000Y-102248000D02*
G01*
X133886000Y-102248000D01*
X133886000Y-101558000D01*
X135526000Y-101558000D01*
X135526000Y-102248000D01*
G37*
G36*
X160645591Y-101221585D02*
G01*
X160679569Y-101231893D01*
X160710890Y-101248634D01*
X160738339Y-101271161D01*
X160760866Y-101298610D01*
X160777607Y-101329931D01*
X160787915Y-101363909D01*
X160792000Y-101405390D01*
X160792000Y-102006610D01*
X160787915Y-102048091D01*
X160777607Y-102082069D01*
X160760866Y-102113390D01*
X160738339Y-102140839D01*
X160710890Y-102163366D01*
X160679569Y-102180107D01*
X160645591Y-102190415D01*
X160604110Y-102194500D01*
X159927890Y-102194500D01*
X159886409Y-102190415D01*
X159852431Y-102180107D01*
X159821110Y-102163366D01*
X159793661Y-102140839D01*
X159771134Y-102113390D01*
X159754393Y-102082069D01*
X159744085Y-102048091D01*
X159740000Y-102006610D01*
X159740000Y-101405390D01*
X159744085Y-101363909D01*
X159754393Y-101329931D01*
X159771134Y-101298610D01*
X159793661Y-101271161D01*
X159821110Y-101248634D01*
X159852431Y-101231893D01*
X159886409Y-101221585D01*
X159927890Y-101217500D01*
X160604110Y-101217500D01*
X160645591Y-101221585D01*
G37*
G36*
X155663091Y-100951085D02*
G01*
X155697069Y-100961393D01*
X155728390Y-100978134D01*
X155755839Y-101000661D01*
X155778366Y-101028110D01*
X155795107Y-101059431D01*
X155805415Y-101093409D01*
X155809500Y-101134890D01*
X155809500Y-101811110D01*
X155805415Y-101852591D01*
X155795107Y-101886569D01*
X155778366Y-101917890D01*
X155755839Y-101945339D01*
X155728390Y-101967866D01*
X155697069Y-101984607D01*
X155663091Y-101994915D01*
X155621610Y-101999000D01*
X155020390Y-101999000D01*
X154978909Y-101994915D01*
X154944931Y-101984607D01*
X154913610Y-101967866D01*
X154886161Y-101945339D01*
X154863634Y-101917890D01*
X154846893Y-101886569D01*
X154836585Y-101852591D01*
X154832500Y-101811110D01*
X154832500Y-101134890D01*
X154836585Y-101093409D01*
X154846893Y-101059431D01*
X154863634Y-101028110D01*
X154886161Y-101000661D01*
X154913610Y-100978134D01*
X154944931Y-100961393D01*
X154978909Y-100951085D01*
X155020390Y-100947000D01*
X155621610Y-100947000D01*
X155663091Y-100951085D01*
G37*
G36*
X154088091Y-100951085D02*
G01*
X154122069Y-100961393D01*
X154153390Y-100978134D01*
X154180839Y-101000661D01*
X154203366Y-101028110D01*
X154220107Y-101059431D01*
X154230415Y-101093409D01*
X154234500Y-101134890D01*
X154234500Y-101811110D01*
X154230415Y-101852591D01*
X154220107Y-101886569D01*
X154203366Y-101917890D01*
X154180839Y-101945339D01*
X154153390Y-101967866D01*
X154122069Y-101984607D01*
X154088091Y-101994915D01*
X154046610Y-101999000D01*
X153445390Y-101999000D01*
X153403909Y-101994915D01*
X153369931Y-101984607D01*
X153338610Y-101967866D01*
X153311161Y-101945339D01*
X153288634Y-101917890D01*
X153271893Y-101886569D01*
X153261585Y-101852591D01*
X153257500Y-101811110D01*
X153257500Y-101134890D01*
X153261585Y-101093409D01*
X153271893Y-101059431D01*
X153288634Y-101028110D01*
X153311161Y-101000661D01*
X153338610Y-100978134D01*
X153369931Y-100961393D01*
X153403909Y-100951085D01*
X153445390Y-100947000D01*
X154046610Y-100947000D01*
X154088091Y-100951085D01*
G37*
G36*
X132713591Y-100810585D02*
G01*
X132747569Y-100820893D01*
X132778890Y-100837634D01*
X132806339Y-100860161D01*
X132828866Y-100887610D01*
X132845607Y-100918931D01*
X132855915Y-100952909D01*
X132860000Y-100994390D01*
X132860000Y-101595610D01*
X132855915Y-101637091D01*
X132845607Y-101671069D01*
X132828866Y-101702390D01*
X132806339Y-101729839D01*
X132778890Y-101752366D01*
X132747569Y-101769107D01*
X132713591Y-101779415D01*
X132672110Y-101783500D01*
X131995890Y-101783500D01*
X131954409Y-101779415D01*
X131920431Y-101769107D01*
X131889110Y-101752366D01*
X131861661Y-101729839D01*
X131839134Y-101702390D01*
X131822393Y-101671069D01*
X131812085Y-101637091D01*
X131808000Y-101595610D01*
X131808000Y-100994390D01*
X131812085Y-100952909D01*
X131822393Y-100918931D01*
X131839134Y-100887610D01*
X131861661Y-100860161D01*
X131889110Y-100837634D01*
X131920431Y-100820893D01*
X131954409Y-100810585D01*
X131995890Y-100806500D01*
X132672110Y-100806500D01*
X132713591Y-100810585D01*
G37*
G36*
X149566642Y-99848781D02*
G01*
X149712414Y-99909162D01*
X149712416Y-99909163D01*
X149843608Y-99996822D01*
X149955178Y-100108392D01*
X150042837Y-100239584D01*
X150042838Y-100239586D01*
X150103219Y-100385358D01*
X150134000Y-100540107D01*
X150134000Y-100697893D01*
X150103219Y-100852642D01*
X150057262Y-100963591D01*
X150042837Y-100998416D01*
X149955178Y-101129608D01*
X149843608Y-101241178D01*
X149712416Y-101328837D01*
X149712415Y-101328838D01*
X149712414Y-101328838D01*
X149566642Y-101389219D01*
X149411893Y-101420000D01*
X149254107Y-101420000D01*
X149099358Y-101389219D01*
X148953586Y-101328838D01*
X148953585Y-101328838D01*
X148953584Y-101328837D01*
X148822392Y-101241178D01*
X148710822Y-101129608D01*
X148623163Y-100998416D01*
X148608738Y-100963591D01*
X148562781Y-100852642D01*
X148532000Y-100697893D01*
X148532000Y-100540107D01*
X148562781Y-100385358D01*
X148623162Y-100239586D01*
X148623163Y-100239584D01*
X148710822Y-100108392D01*
X148822392Y-99996822D01*
X148953584Y-99909163D01*
X148953586Y-99909162D01*
X149099358Y-99848781D01*
X149254107Y-99818000D01*
X149411893Y-99818000D01*
X149566642Y-99848781D01*
G37*
G36*
X171030091Y-100062085D02*
G01*
X171064069Y-100072393D01*
X171095390Y-100089134D01*
X171122839Y-100111661D01*
X171145366Y-100139110D01*
X171162107Y-100170431D01*
X171172415Y-100204409D01*
X171176500Y-100245890D01*
X171176500Y-100922110D01*
X171172415Y-100963591D01*
X171162107Y-100997569D01*
X171145366Y-101028890D01*
X171122839Y-101056339D01*
X171095390Y-101078866D01*
X171064069Y-101095607D01*
X171030091Y-101105915D01*
X170988610Y-101110000D01*
X170387390Y-101110000D01*
X170345909Y-101105915D01*
X170311931Y-101095607D01*
X170280610Y-101078866D01*
X170253161Y-101056339D01*
X170230634Y-101028890D01*
X170213893Y-100997569D01*
X170203585Y-100963591D01*
X170199500Y-100922110D01*
X170199500Y-100245890D01*
X170203585Y-100204409D01*
X170213893Y-100170431D01*
X170230634Y-100139110D01*
X170253161Y-100111661D01*
X170280610Y-100089134D01*
X170311931Y-100072393D01*
X170345909Y-100062085D01*
X170387390Y-100058000D01*
X170988610Y-100058000D01*
X171030091Y-100062085D01*
G37*
G36*
X172605091Y-100062085D02*
G01*
X172639069Y-100072393D01*
X172670390Y-100089134D01*
X172697839Y-100111661D01*
X172720366Y-100139110D01*
X172737107Y-100170431D01*
X172747415Y-100204409D01*
X172751500Y-100245890D01*
X172751500Y-100922110D01*
X172747415Y-100963591D01*
X172737107Y-100997569D01*
X172720366Y-101028890D01*
X172697839Y-101056339D01*
X172670390Y-101078866D01*
X172639069Y-101095607D01*
X172605091Y-101105915D01*
X172563610Y-101110000D01*
X171962390Y-101110000D01*
X171920909Y-101105915D01*
X171886931Y-101095607D01*
X171855610Y-101078866D01*
X171828161Y-101056339D01*
X171805634Y-101028890D01*
X171788893Y-100997569D01*
X171778585Y-100963591D01*
X171774500Y-100922110D01*
X171774500Y-100245890D01*
X171778585Y-100204409D01*
X171788893Y-100170431D01*
X171805634Y-100139110D01*
X171828161Y-100111661D01*
X171855610Y-100089134D01*
X171886931Y-100072393D01*
X171920909Y-100062085D01*
X171962390Y-100058000D01*
X172563610Y-100058000D01*
X172605091Y-100062085D01*
G37*
G36*
X140926000Y-100978000D02*
G01*
X139286000Y-100978000D01*
X139286000Y-100288000D01*
X140926000Y-100288000D01*
X140926000Y-100978000D01*
G37*
G36*
X135526000Y-100978000D02*
G01*
X133886000Y-100978000D01*
X133886000Y-100288000D01*
X135526000Y-100288000D01*
X135526000Y-100978000D01*
G37*
G36*
X163893295Y-99204323D02*
G01*
X163900309Y-99206451D01*
X163914077Y-99213810D01*
X163936716Y-99223187D01*
X163960749Y-99227967D01*
X163985253Y-99227967D01*
X164009286Y-99223186D01*
X164031923Y-99213810D01*
X164045691Y-99206451D01*
X164052705Y-99204323D01*
X164066140Y-99203000D01*
X164379860Y-99203000D01*
X164393295Y-99204323D01*
X164400309Y-99206451D01*
X164414077Y-99213810D01*
X164436716Y-99223187D01*
X164460749Y-99227967D01*
X164485253Y-99227967D01*
X164509286Y-99223186D01*
X164531923Y-99213810D01*
X164545691Y-99206451D01*
X164552705Y-99204323D01*
X164566140Y-99203000D01*
X164879860Y-99203000D01*
X164893295Y-99204323D01*
X164900309Y-99206451D01*
X164914077Y-99213810D01*
X164936716Y-99223187D01*
X164960749Y-99227967D01*
X164985253Y-99227967D01*
X165009286Y-99223186D01*
X165031923Y-99213810D01*
X165045691Y-99206451D01*
X165052705Y-99204323D01*
X165066140Y-99203000D01*
X165379860Y-99203000D01*
X165393295Y-99204323D01*
X165400309Y-99206451D01*
X165414077Y-99213810D01*
X165436716Y-99223187D01*
X165460749Y-99227967D01*
X165485253Y-99227967D01*
X165509286Y-99223186D01*
X165531923Y-99213810D01*
X165545691Y-99206451D01*
X165552705Y-99204323D01*
X165566140Y-99203000D01*
X165879860Y-99203000D01*
X165893295Y-99204323D01*
X165900309Y-99206451D01*
X165914077Y-99213810D01*
X165936716Y-99223187D01*
X165960749Y-99227967D01*
X165985253Y-99227967D01*
X166009286Y-99223186D01*
X166031923Y-99213810D01*
X166045691Y-99206451D01*
X166052705Y-99204323D01*
X166066140Y-99203000D01*
X166379860Y-99203000D01*
X166393295Y-99204323D01*
X166400309Y-99206451D01*
X166414077Y-99213810D01*
X166436716Y-99223187D01*
X166460749Y-99227967D01*
X166485253Y-99227967D01*
X166509286Y-99223186D01*
X166531923Y-99213810D01*
X166545691Y-99206451D01*
X166552705Y-99204323D01*
X166566140Y-99203000D01*
X166879860Y-99203000D01*
X166893295Y-99204323D01*
X166900309Y-99206451D01*
X166914077Y-99213810D01*
X166936716Y-99223187D01*
X166960749Y-99227967D01*
X166985253Y-99227967D01*
X167009286Y-99223186D01*
X167031923Y-99213810D01*
X167045691Y-99206451D01*
X167052705Y-99204323D01*
X167066140Y-99203000D01*
X167379860Y-99203000D01*
X167393295Y-99204323D01*
X167400310Y-99206451D01*
X167406776Y-99209908D01*
X167412442Y-99214558D01*
X167417092Y-99220224D01*
X167420549Y-99226690D01*
X167422677Y-99233705D01*
X167424000Y-99247140D01*
X167424000Y-100760860D01*
X167422677Y-100774295D01*
X167420549Y-100781310D01*
X167417092Y-100787776D01*
X167412442Y-100793442D01*
X167406776Y-100798092D01*
X167400310Y-100801549D01*
X167393295Y-100803677D01*
X167379860Y-100805000D01*
X167066140Y-100805000D01*
X167052705Y-100803677D01*
X167045691Y-100801549D01*
X167031923Y-100794190D01*
X167009284Y-100784813D01*
X166985251Y-100780033D01*
X166960747Y-100780033D01*
X166936714Y-100784814D01*
X166914077Y-100794190D01*
X166900309Y-100801549D01*
X166893295Y-100803677D01*
X166879860Y-100805000D01*
X166566140Y-100805000D01*
X166552705Y-100803677D01*
X166545691Y-100801549D01*
X166531923Y-100794190D01*
X166509284Y-100784813D01*
X166485251Y-100780033D01*
X166460747Y-100780033D01*
X166436714Y-100784814D01*
X166414077Y-100794190D01*
X166400309Y-100801549D01*
X166393295Y-100803677D01*
X166379860Y-100805000D01*
X166066140Y-100805000D01*
X166052705Y-100803677D01*
X166045691Y-100801549D01*
X166031923Y-100794190D01*
X166009284Y-100784813D01*
X165985251Y-100780033D01*
X165960747Y-100780033D01*
X165936714Y-100784814D01*
X165914077Y-100794190D01*
X165900309Y-100801549D01*
X165893295Y-100803677D01*
X165879860Y-100805000D01*
X165566140Y-100805000D01*
X165552705Y-100803677D01*
X165545691Y-100801549D01*
X165531923Y-100794190D01*
X165509284Y-100784813D01*
X165485251Y-100780033D01*
X165460747Y-100780033D01*
X165436714Y-100784814D01*
X165414077Y-100794190D01*
X165400309Y-100801549D01*
X165393295Y-100803677D01*
X165379860Y-100805000D01*
X165066140Y-100805000D01*
X165052705Y-100803677D01*
X165045691Y-100801549D01*
X165031923Y-100794190D01*
X165009284Y-100784813D01*
X164985251Y-100780033D01*
X164960747Y-100780033D01*
X164936714Y-100784814D01*
X164914077Y-100794190D01*
X164900309Y-100801549D01*
X164893295Y-100803677D01*
X164879860Y-100805000D01*
X164566140Y-100805000D01*
X164552705Y-100803677D01*
X164545691Y-100801549D01*
X164531923Y-100794190D01*
X164509284Y-100784813D01*
X164485251Y-100780033D01*
X164460747Y-100780033D01*
X164436714Y-100784814D01*
X164414077Y-100794190D01*
X164400309Y-100801549D01*
X164393295Y-100803677D01*
X164379860Y-100805000D01*
X164066140Y-100805000D01*
X164052705Y-100803677D01*
X164045691Y-100801549D01*
X164031923Y-100794190D01*
X164009284Y-100784813D01*
X163985251Y-100780033D01*
X163960747Y-100780033D01*
X163936714Y-100784814D01*
X163914077Y-100794190D01*
X163900309Y-100801549D01*
X163893295Y-100803677D01*
X163879860Y-100805000D01*
X163566140Y-100805000D01*
X163552705Y-100803677D01*
X163545690Y-100801549D01*
X163539224Y-100798092D01*
X163533558Y-100793442D01*
X163528908Y-100787776D01*
X163525451Y-100781310D01*
X163523323Y-100774295D01*
X163522000Y-100760860D01*
X163522000Y-99247140D01*
X163523323Y-99233705D01*
X163525451Y-99226690D01*
X163528908Y-99220224D01*
X163533558Y-99214558D01*
X163539224Y-99209908D01*
X163545690Y-99206451D01*
X163552705Y-99204323D01*
X163566140Y-99203000D01*
X163879860Y-99203000D01*
X163893295Y-99204323D01*
G37*
G36*
X160645591Y-99646585D02*
G01*
X160679569Y-99656893D01*
X160710890Y-99673634D01*
X160738339Y-99696161D01*
X160760866Y-99723610D01*
X160777607Y-99754931D01*
X160787915Y-99788909D01*
X160792000Y-99830390D01*
X160792000Y-100431610D01*
X160787915Y-100473091D01*
X160777607Y-100507069D01*
X160760866Y-100538390D01*
X160738339Y-100565839D01*
X160710890Y-100588366D01*
X160679569Y-100605107D01*
X160645591Y-100615415D01*
X160604110Y-100619500D01*
X159927890Y-100619500D01*
X159886409Y-100615415D01*
X159852431Y-100605107D01*
X159821110Y-100588366D01*
X159793661Y-100565839D01*
X159771134Y-100538390D01*
X159754393Y-100507069D01*
X159744085Y-100473091D01*
X159740000Y-100431610D01*
X159740000Y-99830390D01*
X159744085Y-99788909D01*
X159754393Y-99754931D01*
X159771134Y-99723610D01*
X159793661Y-99696161D01*
X159821110Y-99673634D01*
X159852431Y-99656893D01*
X159886409Y-99646585D01*
X159927890Y-99642500D01*
X160604110Y-99642500D01*
X160645591Y-99646585D01*
G37*
G36*
X143865591Y-98907585D02*
G01*
X143899569Y-98917893D01*
X143930890Y-98934634D01*
X143958339Y-98957161D01*
X143980866Y-98984610D01*
X143997607Y-99015931D01*
X144007915Y-99049909D01*
X144012000Y-99091390D01*
X144012000Y-99692610D01*
X144007915Y-99734091D01*
X143997607Y-99768069D01*
X143980866Y-99799390D01*
X143958339Y-99826839D01*
X143930890Y-99849366D01*
X143899569Y-99866107D01*
X143865591Y-99876415D01*
X143824110Y-99880500D01*
X143147890Y-99880500D01*
X143106409Y-99876415D01*
X143072431Y-99866107D01*
X143041110Y-99849366D01*
X143013661Y-99826839D01*
X142991134Y-99799390D01*
X142974393Y-99768069D01*
X142964085Y-99734091D01*
X142960000Y-99692610D01*
X142960000Y-99091390D01*
X142964085Y-99049909D01*
X142974393Y-99015931D01*
X142991134Y-98984610D01*
X143013661Y-98957161D01*
X143041110Y-98934634D01*
X143072431Y-98917893D01*
X143106409Y-98907585D01*
X143147890Y-98903500D01*
X143824110Y-98903500D01*
X143865591Y-98907585D01*
G37*
G36*
X131345591Y-98907585D02*
G01*
X131379569Y-98917893D01*
X131410890Y-98934634D01*
X131438339Y-98957161D01*
X131460866Y-98984610D01*
X131477607Y-99015931D01*
X131487915Y-99049909D01*
X131492000Y-99091390D01*
X131492000Y-99692610D01*
X131487915Y-99734091D01*
X131477607Y-99768069D01*
X131460866Y-99799390D01*
X131438339Y-99826839D01*
X131410890Y-99849366D01*
X131379569Y-99866107D01*
X131345591Y-99876415D01*
X131304110Y-99880500D01*
X130627890Y-99880500D01*
X130586409Y-99876415D01*
X130552431Y-99866107D01*
X130521110Y-99849366D01*
X130493661Y-99826839D01*
X130471134Y-99799390D01*
X130454393Y-99768069D01*
X130444085Y-99734091D01*
X130440000Y-99692610D01*
X130440000Y-99091390D01*
X130444085Y-99049909D01*
X130454393Y-99015931D01*
X130471134Y-98984610D01*
X130493661Y-98957161D01*
X130521110Y-98934634D01*
X130552431Y-98917893D01*
X130586409Y-98907585D01*
X130627890Y-98903500D01*
X131304110Y-98903500D01*
X131345591Y-98907585D01*
G37*
G36*
X129345591Y-98907585D02*
G01*
X129379569Y-98917893D01*
X129410890Y-98934634D01*
X129438339Y-98957161D01*
X129460866Y-98984610D01*
X129477607Y-99015931D01*
X129487915Y-99049909D01*
X129492000Y-99091390D01*
X129492000Y-99692610D01*
X129487915Y-99734091D01*
X129477607Y-99768069D01*
X129460866Y-99799390D01*
X129438339Y-99826839D01*
X129410890Y-99849366D01*
X129379569Y-99866107D01*
X129345591Y-99876415D01*
X129304110Y-99880500D01*
X128627890Y-99880500D01*
X128586409Y-99876415D01*
X128552431Y-99866107D01*
X128521110Y-99849366D01*
X128493661Y-99826839D01*
X128471134Y-99799390D01*
X128454393Y-99768069D01*
X128444085Y-99734091D01*
X128440000Y-99692610D01*
X128440000Y-99091390D01*
X128444085Y-99049909D01*
X128454393Y-99015931D01*
X128471134Y-98984610D01*
X128493661Y-98957161D01*
X128521110Y-98934634D01*
X128552431Y-98917893D01*
X128586409Y-98907585D01*
X128627890Y-98903500D01*
X129304110Y-98903500D01*
X129345591Y-98907585D01*
G37*
G36*
X135526000Y-99708000D02*
G01*
X133886000Y-99708000D01*
X133886000Y-99018000D01*
X135526000Y-99018000D01*
X135526000Y-99708000D01*
G37*
G36*
X140926000Y-99708000D02*
G01*
X139286000Y-99708000D01*
X139286000Y-99018000D01*
X140926000Y-99018000D01*
X140926000Y-99708000D01*
G37*
G36*
X172605091Y-98347085D02*
G01*
X172639069Y-98357393D01*
X172670390Y-98374134D01*
X172697839Y-98396661D01*
X172720366Y-98424110D01*
X172737107Y-98455431D01*
X172747415Y-98489409D01*
X172751500Y-98530890D01*
X172751500Y-99207110D01*
X172747415Y-99248591D01*
X172737107Y-99282569D01*
X172720366Y-99313890D01*
X172697839Y-99341339D01*
X172670390Y-99363866D01*
X172639069Y-99380607D01*
X172605091Y-99390915D01*
X172563610Y-99395000D01*
X171962390Y-99395000D01*
X171920909Y-99390915D01*
X171886931Y-99380607D01*
X171855610Y-99363866D01*
X171828161Y-99341339D01*
X171805634Y-99313890D01*
X171788893Y-99282569D01*
X171778585Y-99248591D01*
X171774500Y-99207110D01*
X171774500Y-98530890D01*
X171778585Y-98489409D01*
X171788893Y-98455431D01*
X171805634Y-98424110D01*
X171828161Y-98396661D01*
X171855610Y-98374134D01*
X171886931Y-98357393D01*
X171920909Y-98347085D01*
X171962390Y-98343000D01*
X172563610Y-98343000D01*
X172605091Y-98347085D01*
G37*
G36*
X171030091Y-98347085D02*
G01*
X171064069Y-98357393D01*
X171095390Y-98374134D01*
X171122839Y-98396661D01*
X171145366Y-98424110D01*
X171162107Y-98455431D01*
X171172415Y-98489409D01*
X171176500Y-98530890D01*
X171176500Y-99207110D01*
X171172415Y-99248591D01*
X171162107Y-99282569D01*
X171145366Y-99313890D01*
X171122839Y-99341339D01*
X171095390Y-99363866D01*
X171064069Y-99380607D01*
X171030091Y-99390915D01*
X170988610Y-99395000D01*
X170387390Y-99395000D01*
X170345909Y-99390915D01*
X170311931Y-99380607D01*
X170280610Y-99363866D01*
X170253161Y-99341339D01*
X170230634Y-99313890D01*
X170213893Y-99282569D01*
X170203585Y-99248591D01*
X170199500Y-99207110D01*
X170199500Y-98530890D01*
X170203585Y-98489409D01*
X170213893Y-98455431D01*
X170230634Y-98424110D01*
X170253161Y-98396661D01*
X170280610Y-98374134D01*
X170311931Y-98357393D01*
X170345909Y-98347085D01*
X170387390Y-98343000D01*
X170988610Y-98343000D01*
X171030091Y-98347085D01*
G37*
G36*
X162140091Y-97577085D02*
G01*
X162174069Y-97587393D01*
X162205390Y-97604134D01*
X162232839Y-97626661D01*
X162255366Y-97654110D01*
X162272107Y-97685431D01*
X162282415Y-97719409D01*
X162286500Y-97760890D01*
X162286500Y-98437110D01*
X162282415Y-98478591D01*
X162272107Y-98512569D01*
X162255366Y-98543890D01*
X162232839Y-98571339D01*
X162205390Y-98593866D01*
X162174069Y-98610607D01*
X162140091Y-98620915D01*
X162098610Y-98625000D01*
X161497390Y-98625000D01*
X161455909Y-98620915D01*
X161421931Y-98610607D01*
X161390610Y-98593866D01*
X161363161Y-98571339D01*
X161340634Y-98543890D01*
X161323893Y-98512569D01*
X161313585Y-98478591D01*
X161309500Y-98437110D01*
X161309500Y-97760890D01*
X161313585Y-97719409D01*
X161323893Y-97685431D01*
X161340634Y-97654110D01*
X161363161Y-97626661D01*
X161390610Y-97604134D01*
X161421931Y-97587393D01*
X161455909Y-97577085D01*
X161497390Y-97573000D01*
X162098610Y-97573000D01*
X162140091Y-97577085D01*
G37*
G36*
X163715091Y-97577085D02*
G01*
X163749069Y-97587393D01*
X163780390Y-97604134D01*
X163807839Y-97626661D01*
X163830366Y-97654110D01*
X163847107Y-97685431D01*
X163857415Y-97719409D01*
X163861500Y-97760890D01*
X163861500Y-98437110D01*
X163857415Y-98478591D01*
X163847107Y-98512569D01*
X163830366Y-98543890D01*
X163807839Y-98571339D01*
X163780390Y-98593866D01*
X163749069Y-98610607D01*
X163715091Y-98620915D01*
X163673610Y-98625000D01*
X163072390Y-98625000D01*
X163030909Y-98620915D01*
X162996931Y-98610607D01*
X162965610Y-98593866D01*
X162938161Y-98571339D01*
X162915634Y-98543890D01*
X162898893Y-98512569D01*
X162888585Y-98478591D01*
X162884500Y-98437110D01*
X162884500Y-97760890D01*
X162888585Y-97719409D01*
X162898893Y-97685431D01*
X162915634Y-97654110D01*
X162938161Y-97626661D01*
X162965610Y-97604134D01*
X162996931Y-97587393D01*
X163030909Y-97577085D01*
X163072390Y-97573000D01*
X163673610Y-97573000D01*
X163715091Y-97577085D01*
G37*
G36*
X135526000Y-98438000D02*
G01*
X133886000Y-98438000D01*
X133886000Y-97748000D01*
X135526000Y-97748000D01*
X135526000Y-98438000D01*
G37*
G36*
X140926000Y-98438000D02*
G01*
X139286000Y-98438000D01*
X139286000Y-97748000D01*
X140926000Y-97748000D01*
X140926000Y-98438000D01*
G37*
G36*
X149566642Y-96848781D02*
G01*
X149712414Y-96909162D01*
X149712416Y-96909163D01*
X149843608Y-96996822D01*
X149955178Y-97108392D01*
X150042837Y-97239584D01*
X150042838Y-97239586D01*
X150103219Y-97385358D01*
X150134000Y-97540107D01*
X150134000Y-97697893D01*
X150103219Y-97852642D01*
X150042838Y-97998414D01*
X150042837Y-97998416D01*
X149955178Y-98129608D01*
X149843608Y-98241178D01*
X149712416Y-98328837D01*
X149712415Y-98328838D01*
X149712414Y-98328838D01*
X149566642Y-98389219D01*
X149411893Y-98420000D01*
X149254107Y-98420000D01*
X149099358Y-98389219D01*
X148953586Y-98328838D01*
X148953585Y-98328838D01*
X148953584Y-98328837D01*
X148822392Y-98241178D01*
X148710822Y-98129608D01*
X148623163Y-97998416D01*
X148623162Y-97998414D01*
X148562781Y-97852642D01*
X148532000Y-97697893D01*
X148532000Y-97540107D01*
X148562781Y-97385358D01*
X148623162Y-97239586D01*
X148623163Y-97239584D01*
X148710822Y-97108392D01*
X148822392Y-96996822D01*
X148953584Y-96909163D01*
X148953586Y-96909162D01*
X149099358Y-96848781D01*
X149254107Y-96818000D01*
X149411893Y-96818000D01*
X149566642Y-96848781D01*
G37*
G36*
X129345591Y-97332585D02*
G01*
X129379569Y-97342893D01*
X129410890Y-97359634D01*
X129438339Y-97382161D01*
X129460866Y-97409610D01*
X129477607Y-97440931D01*
X129487915Y-97474909D01*
X129492000Y-97516390D01*
X129492000Y-98117610D01*
X129487915Y-98159091D01*
X129477607Y-98193069D01*
X129460866Y-98224390D01*
X129438339Y-98251839D01*
X129410890Y-98274366D01*
X129379569Y-98291107D01*
X129345591Y-98301415D01*
X129304110Y-98305500D01*
X128627890Y-98305500D01*
X128586409Y-98301415D01*
X128552431Y-98291107D01*
X128521110Y-98274366D01*
X128493661Y-98251839D01*
X128471134Y-98224390D01*
X128454393Y-98193069D01*
X128444085Y-98159091D01*
X128440000Y-98117610D01*
X128440000Y-97516390D01*
X128444085Y-97474909D01*
X128454393Y-97440931D01*
X128471134Y-97409610D01*
X128493661Y-97382161D01*
X128521110Y-97359634D01*
X128552431Y-97342893D01*
X128586409Y-97332585D01*
X128627890Y-97328500D01*
X129304110Y-97328500D01*
X129345591Y-97332585D01*
G37*
G36*
X143865591Y-97332585D02*
G01*
X143899569Y-97342893D01*
X143930890Y-97359634D01*
X143958339Y-97382161D01*
X143980866Y-97409610D01*
X143997607Y-97440931D01*
X144007915Y-97474909D01*
X144012000Y-97516390D01*
X144012000Y-98117610D01*
X144007915Y-98159091D01*
X143997607Y-98193069D01*
X143980866Y-98224390D01*
X143958339Y-98251839D01*
X143930890Y-98274366D01*
X143899569Y-98291107D01*
X143865591Y-98301415D01*
X143824110Y-98305500D01*
X143147890Y-98305500D01*
X143106409Y-98301415D01*
X143072431Y-98291107D01*
X143041110Y-98274366D01*
X143013661Y-98251839D01*
X142991134Y-98224390D01*
X142974393Y-98193069D01*
X142964085Y-98159091D01*
X142960000Y-98117610D01*
X142960000Y-97516390D01*
X142964085Y-97474909D01*
X142974393Y-97440931D01*
X142991134Y-97409610D01*
X143013661Y-97382161D01*
X143041110Y-97359634D01*
X143072431Y-97342893D01*
X143106409Y-97332585D01*
X143147890Y-97328500D01*
X143824110Y-97328500D01*
X143865591Y-97332585D01*
G37*
G36*
X131345591Y-97332585D02*
G01*
X131379569Y-97342893D01*
X131410890Y-97359634D01*
X131438339Y-97382161D01*
X131460866Y-97409610D01*
X131477607Y-97440931D01*
X131487915Y-97474909D01*
X131492000Y-97516390D01*
X131492000Y-98117610D01*
X131487915Y-98159091D01*
X131477607Y-98193069D01*
X131460866Y-98224390D01*
X131438339Y-98251839D01*
X131410890Y-98274366D01*
X131379569Y-98291107D01*
X131345591Y-98301415D01*
X131304110Y-98305500D01*
X130627890Y-98305500D01*
X130586409Y-98301415D01*
X130552431Y-98291107D01*
X130521110Y-98274366D01*
X130493661Y-98251839D01*
X130471134Y-98224390D01*
X130454393Y-98193069D01*
X130444085Y-98159091D01*
X130440000Y-98117610D01*
X130440000Y-97516390D01*
X130444085Y-97474909D01*
X130454393Y-97440931D01*
X130471134Y-97409610D01*
X130493661Y-97382161D01*
X130521110Y-97359634D01*
X130552431Y-97342893D01*
X130586409Y-97332585D01*
X130627890Y-97328500D01*
X131304110Y-97328500D01*
X131345591Y-97332585D01*
G37*
G36*
X138688091Y-95158085D02*
G01*
X138722069Y-95168393D01*
X138753390Y-95185134D01*
X138780839Y-95207661D01*
X138803366Y-95235110D01*
X138820107Y-95266431D01*
X138830415Y-95300409D01*
X138834500Y-95341890D01*
X138834500Y-96018110D01*
X138830415Y-96059591D01*
X138820107Y-96093569D01*
X138803366Y-96124890D01*
X138780839Y-96152339D01*
X138753390Y-96174866D01*
X138722069Y-96191607D01*
X138688091Y-96201915D01*
X138646610Y-96206000D01*
X138045390Y-96206000D01*
X138003909Y-96201915D01*
X137969931Y-96191607D01*
X137938610Y-96174866D01*
X137911161Y-96152339D01*
X137888634Y-96124890D01*
X137871893Y-96093569D01*
X137861585Y-96059591D01*
X137857500Y-96018110D01*
X137857500Y-95341890D01*
X137861585Y-95300409D01*
X137871893Y-95266431D01*
X137888634Y-95235110D01*
X137911161Y-95207661D01*
X137938610Y-95185134D01*
X137969931Y-95168393D01*
X138003909Y-95158085D01*
X138045390Y-95154000D01*
X138646610Y-95154000D01*
X138688091Y-95158085D01*
G37*
G36*
X137113091Y-95158085D02*
G01*
X137147069Y-95168393D01*
X137178390Y-95185134D01*
X137205839Y-95207661D01*
X137228366Y-95235110D01*
X137245107Y-95266431D01*
X137255415Y-95300409D01*
X137259500Y-95341890D01*
X137259500Y-96018110D01*
X137255415Y-96059591D01*
X137245107Y-96093569D01*
X137228366Y-96124890D01*
X137205839Y-96152339D01*
X137178390Y-96174866D01*
X137147069Y-96191607D01*
X137113091Y-96201915D01*
X137071610Y-96206000D01*
X136470390Y-96206000D01*
X136428909Y-96201915D01*
X136394931Y-96191607D01*
X136363610Y-96174866D01*
X136336161Y-96152339D01*
X136313634Y-96124890D01*
X136296893Y-96093569D01*
X136286585Y-96059591D01*
X136282500Y-96018110D01*
X136282500Y-95341890D01*
X136286585Y-95300409D01*
X136296893Y-95266431D01*
X136313634Y-95235110D01*
X136336161Y-95207661D01*
X136363610Y-95185134D01*
X136394931Y-95168393D01*
X136428909Y-95158085D01*
X136470390Y-95154000D01*
X137071610Y-95154000D01*
X137113091Y-95158085D01*
G37*
G36*
X168796642Y-94348781D02*
G01*
X168942414Y-94409162D01*
X168942416Y-94409163D01*
X169073608Y-94496822D01*
X169185178Y-94608392D01*
X169272837Y-94739584D01*
X169272838Y-94739586D01*
X169333219Y-94885358D01*
X169364000Y-95040107D01*
X169364000Y-95197893D01*
X169333219Y-95352642D01*
X169314327Y-95398250D01*
X169272837Y-95498416D01*
X169185178Y-95629608D01*
X169073608Y-95741178D01*
X168942416Y-95828837D01*
X168942415Y-95828838D01*
X168942414Y-95828838D01*
X168796642Y-95889219D01*
X168641893Y-95920000D01*
X168484107Y-95920000D01*
X168329358Y-95889219D01*
X168183586Y-95828838D01*
X168183585Y-95828838D01*
X168183584Y-95828837D01*
X168052392Y-95741178D01*
X167940822Y-95629608D01*
X167853163Y-95498416D01*
X167811673Y-95398250D01*
X167792781Y-95352642D01*
X167762000Y-95197893D01*
X167762000Y-95040107D01*
X167792781Y-94885358D01*
X167853162Y-94739586D01*
X167853163Y-94739584D01*
X167940822Y-94608392D01*
X168052392Y-94496822D01*
X168183584Y-94409163D01*
X168183586Y-94409162D01*
X168329358Y-94348781D01*
X168484107Y-94318000D01*
X168641893Y-94318000D01*
X168796642Y-94348781D01*
G37*
G36*
X164796642Y-94348781D02*
G01*
X164942414Y-94409162D01*
X164942416Y-94409163D01*
X165073608Y-94496822D01*
X165185178Y-94608392D01*
X165272837Y-94739584D01*
X165272838Y-94739586D01*
X165333219Y-94885358D01*
X165364000Y-95040107D01*
X165364000Y-95197893D01*
X165333219Y-95352642D01*
X165314327Y-95398250D01*
X165272837Y-95498416D01*
X165185178Y-95629608D01*
X165073608Y-95741178D01*
X164942416Y-95828837D01*
X164942415Y-95828838D01*
X164942414Y-95828838D01*
X164796642Y-95889219D01*
X164641893Y-95920000D01*
X164484107Y-95920000D01*
X164329358Y-95889219D01*
X164183586Y-95828838D01*
X164183585Y-95828838D01*
X164183584Y-95828837D01*
X164052392Y-95741178D01*
X163940822Y-95629608D01*
X163853163Y-95498416D01*
X163811673Y-95398250D01*
X163792781Y-95352642D01*
X163762000Y-95197893D01*
X163762000Y-95040107D01*
X163792781Y-94885358D01*
X163853162Y-94739586D01*
X163853163Y-94739584D01*
X163940822Y-94608392D01*
X164052392Y-94496822D01*
X164183584Y-94409163D01*
X164183586Y-94409162D01*
X164329358Y-94348781D01*
X164484107Y-94318000D01*
X164641893Y-94318000D01*
X164796642Y-94348781D01*
G37*
G36*
X166796642Y-92348781D02*
G01*
X166942414Y-92409162D01*
X166942416Y-92409163D01*
X167073608Y-92496822D01*
X167185178Y-92608392D01*
X167272837Y-92739584D01*
X167272838Y-92739586D01*
X167333219Y-92885358D01*
X167364000Y-93040107D01*
X167364000Y-93197893D01*
X167333219Y-93352642D01*
X167272838Y-93498414D01*
X167272837Y-93498416D01*
X167185178Y-93629608D01*
X167073608Y-93741178D01*
X166942416Y-93828837D01*
X166942415Y-93828838D01*
X166942414Y-93828838D01*
X166796642Y-93889219D01*
X166641893Y-93920000D01*
X166484107Y-93920000D01*
X166329358Y-93889219D01*
X166183586Y-93828838D01*
X166183585Y-93828838D01*
X166183584Y-93828837D01*
X166052392Y-93741178D01*
X165940822Y-93629608D01*
X165853163Y-93498416D01*
X165853162Y-93498414D01*
X165792781Y-93352642D01*
X165762000Y-93197893D01*
X165762000Y-93040107D01*
X165792781Y-92885358D01*
X165853162Y-92739586D01*
X165853163Y-92739584D01*
X165940822Y-92608392D01*
X166052392Y-92496822D01*
X166183584Y-92409163D01*
X166183586Y-92409162D01*
X166329358Y-92348781D01*
X166484107Y-92318000D01*
X166641893Y-92318000D01*
X166796642Y-92348781D01*
G37*
G36*
X162296642Y-92348781D02*
G01*
X162442414Y-92409162D01*
X162442416Y-92409163D01*
X162573608Y-92496822D01*
X162685178Y-92608392D01*
X162772837Y-92739584D01*
X162772838Y-92739586D01*
X162833219Y-92885358D01*
X162864000Y-93040107D01*
X162864000Y-93197893D01*
X162833219Y-93352642D01*
X162772838Y-93498414D01*
X162772837Y-93498416D01*
X162685178Y-93629608D01*
X162573608Y-93741178D01*
X162442416Y-93828837D01*
X162442415Y-93828838D01*
X162442414Y-93828838D01*
X162296642Y-93889219D01*
X162141893Y-93920000D01*
X161984107Y-93920000D01*
X161829358Y-93889219D01*
X161683586Y-93828838D01*
X161683585Y-93828838D01*
X161683584Y-93828837D01*
X161552392Y-93741178D01*
X161440822Y-93629608D01*
X161353163Y-93498416D01*
X161353162Y-93498414D01*
X161292781Y-93352642D01*
X161262000Y-93197893D01*
X161262000Y-93040107D01*
X161292781Y-92885358D01*
X161353162Y-92739586D01*
X161353163Y-92739584D01*
X161440822Y-92608392D01*
X161552392Y-92496822D01*
X161683584Y-92409163D01*
X161683586Y-92409162D01*
X161829358Y-92348781D01*
X161984107Y-92318000D01*
X162141893Y-92318000D01*
X162296642Y-92348781D01*
G37*
G36*
X171296642Y-92348781D02*
G01*
X171442414Y-92409162D01*
X171442416Y-92409163D01*
X171573608Y-92496822D01*
X171685178Y-92608392D01*
X171772837Y-92739584D01*
X171772838Y-92739586D01*
X171833219Y-92885358D01*
X171864000Y-93040107D01*
X171864000Y-93197893D01*
X171833219Y-93352642D01*
X171772838Y-93498414D01*
X171772837Y-93498416D01*
X171685178Y-93629608D01*
X171573608Y-93741178D01*
X171442416Y-93828837D01*
X171442415Y-93828838D01*
X171442414Y-93828838D01*
X171296642Y-93889219D01*
X171141893Y-93920000D01*
X170984107Y-93920000D01*
X170829358Y-93889219D01*
X170683586Y-93828838D01*
X170683585Y-93828838D01*
X170683584Y-93828837D01*
X170552392Y-93741178D01*
X170440822Y-93629608D01*
X170353163Y-93498416D01*
X170353162Y-93498414D01*
X170292781Y-93352642D01*
X170262000Y-93197893D01*
X170262000Y-93040107D01*
X170292781Y-92885358D01*
X170353162Y-92739586D01*
X170353163Y-92739584D01*
X170440822Y-92608392D01*
X170552392Y-92496822D01*
X170683584Y-92409163D01*
X170683586Y-92409162D01*
X170829358Y-92348781D01*
X170984107Y-92318000D01*
X171141893Y-92318000D01*
X171296642Y-92348781D01*
G37*
G36*
X161109766Y-88170899D02*
G01*
X161241888Y-88225626D01*
X161241890Y-88225627D01*
X161360798Y-88305079D01*
X161461921Y-88406202D01*
X161461922Y-88406204D01*
X161541374Y-88525112D01*
X161596101Y-88657234D01*
X161624000Y-88797494D01*
X161624000Y-88940506D01*
X161596101Y-89080766D01*
X161541374Y-89212888D01*
X161541373Y-89212890D01*
X161461921Y-89331798D01*
X161360798Y-89432921D01*
X161241890Y-89512373D01*
X161241889Y-89512374D01*
X161241888Y-89512374D01*
X161109766Y-89567101D01*
X160969506Y-89595000D01*
X160826494Y-89595000D01*
X160686234Y-89567101D01*
X160554112Y-89512374D01*
X160554111Y-89512374D01*
X160554110Y-89512373D01*
X160435202Y-89432921D01*
X160334079Y-89331798D01*
X160254627Y-89212890D01*
X160254626Y-89212888D01*
X160199899Y-89080766D01*
X160172000Y-88940506D01*
X160172000Y-88797494D01*
X160199899Y-88657234D01*
X160254626Y-88525112D01*
X160334078Y-88406204D01*
X160334079Y-88406202D01*
X160435202Y-88305079D01*
X160554110Y-88225627D01*
X160554112Y-88225626D01*
X160686234Y-88170899D01*
X160826494Y-88143000D01*
X160969506Y-88143000D01*
X161109766Y-88170899D01*
G37*
G36*
X172979766Y-88170899D02*
G01*
X173111888Y-88225626D01*
X173111890Y-88225627D01*
X173230798Y-88305079D01*
X173331921Y-88406202D01*
X173331922Y-88406204D01*
X173411374Y-88525112D01*
X173466101Y-88657234D01*
X173494000Y-88797494D01*
X173494000Y-88940506D01*
X173466101Y-89080766D01*
X173411374Y-89212888D01*
X173411373Y-89212890D01*
X173331921Y-89331798D01*
X173230798Y-89432921D01*
X173111890Y-89512373D01*
X173111889Y-89512374D01*
X173111888Y-89512374D01*
X172979766Y-89567101D01*
X172839506Y-89595000D01*
X172696494Y-89595000D01*
X172556234Y-89567101D01*
X172424112Y-89512374D01*
X172424111Y-89512374D01*
X172424110Y-89512373D01*
X172305202Y-89432921D01*
X172204079Y-89331798D01*
X172124627Y-89212890D01*
X172124626Y-89212888D01*
X172069899Y-89080766D01*
X172042000Y-88940506D01*
X172042000Y-88797494D01*
X172069899Y-88657234D01*
X172124626Y-88525112D01*
X172204078Y-88406204D01*
X172204079Y-88406202D01*
X172305202Y-88305079D01*
X172424110Y-88225627D01*
X172424112Y-88225626D01*
X172556234Y-88170899D01*
X172696494Y-88143000D01*
X172839506Y-88143000D01*
X172979766Y-88170899D01*
G37*
G36*
X170459000Y-89470000D02*
G01*
X169557000Y-89470000D01*
X169557000Y-88268000D01*
X170459000Y-88268000D01*
X170459000Y-89470000D01*
G37*
G36*
X169189000Y-89470000D02*
G01*
X168287000Y-89470000D01*
X168287000Y-88268000D01*
X169189000Y-88268000D01*
X169189000Y-89470000D01*
G37*
G36*
X167919000Y-89470000D02*
G01*
X167017000Y-89470000D01*
X167017000Y-88268000D01*
X167919000Y-88268000D01*
X167919000Y-89470000D01*
G37*
G36*
X164109000Y-89470000D02*
G01*
X163207000Y-89470000D01*
X163207000Y-88268000D01*
X164109000Y-88268000D01*
X164109000Y-89470000D01*
G37*
G36*
X165379000Y-89470000D02*
G01*
X164477000Y-89470000D01*
X164477000Y-88268000D01*
X165379000Y-88268000D01*
X165379000Y-89470000D01*
G37*
G36*
X166649000Y-89470000D02*
G01*
X165747000Y-89470000D01*
X165747000Y-88268000D01*
X166649000Y-88268000D01*
X166649000Y-89470000D01*
G37*
G36*
X120634239Y-81811467D02*
G01*
X120948282Y-81873934D01*
X121539926Y-82119001D01*
X122072392Y-82474784D01*
X122525216Y-82927608D01*
X122880999Y-83460074D01*
X123126066Y-84051718D01*
X123129126Y-84067101D01*
X123251000Y-84679803D01*
X123251000Y-85320197D01*
X123242117Y-85364853D01*
X123126066Y-85948282D01*
X122880999Y-86539926D01*
X122525216Y-87072392D01*
X122072392Y-87525216D01*
X121539926Y-87880999D01*
X120948282Y-88126066D01*
X120722891Y-88170899D01*
X120320197Y-88251000D01*
X119679803Y-88251000D01*
X119277109Y-88170899D01*
X119051718Y-88126066D01*
X118460074Y-87880999D01*
X117927608Y-87525216D01*
X117474784Y-87072392D01*
X117119001Y-86539926D01*
X116873934Y-85948282D01*
X116757883Y-85364853D01*
X116749000Y-85320197D01*
X116749000Y-84679803D01*
X116870874Y-84067101D01*
X116873934Y-84051718D01*
X117119001Y-83460074D01*
X117474784Y-82927608D01*
X117927608Y-82474784D01*
X118460074Y-82119001D01*
X119051718Y-81873934D01*
X119365761Y-81811467D01*
X119679803Y-81749000D01*
X120320197Y-81749000D01*
X120634239Y-81811467D01*
G37*
G36*
X172466228Y-85300703D02*
G01*
X172621100Y-85364853D01*
X172760481Y-85457985D01*
X172879015Y-85576519D01*
X172972147Y-85715900D01*
X173036297Y-85870772D01*
X173069000Y-86035184D01*
X173069000Y-86202816D01*
X173036297Y-86367228D01*
X172972147Y-86522100D01*
X172879015Y-86661481D01*
X172760481Y-86780015D01*
X172621100Y-86873147D01*
X172466228Y-86937297D01*
X172301816Y-86970000D01*
X172134184Y-86970000D01*
X171969772Y-86937297D01*
X171814900Y-86873147D01*
X171675519Y-86780015D01*
X171556985Y-86661481D01*
X171463853Y-86522100D01*
X171399703Y-86367228D01*
X171367000Y-86202816D01*
X171367000Y-86035184D01*
X171399703Y-85870772D01*
X171463853Y-85715900D01*
X171556985Y-85576519D01*
X171675519Y-85457985D01*
X171814900Y-85364853D01*
X171969772Y-85300703D01*
X172134184Y-85268000D01*
X172301816Y-85268000D01*
X172466228Y-85300703D01*
G37*
G36*
X161696228Y-85300703D02*
G01*
X161851100Y-85364853D01*
X161990481Y-85457985D01*
X162109015Y-85576519D01*
X162202147Y-85715900D01*
X162266297Y-85870772D01*
X162299000Y-86035184D01*
X162299000Y-86202816D01*
X162266297Y-86367228D01*
X162202147Y-86522100D01*
X162109015Y-86661481D01*
X161990481Y-86780015D01*
X161851100Y-86873147D01*
X161696228Y-86937297D01*
X161531816Y-86970000D01*
X161364184Y-86970000D01*
X161199772Y-86937297D01*
X161044900Y-86873147D01*
X160905519Y-86780015D01*
X160786985Y-86661481D01*
X160693853Y-86522100D01*
X160629703Y-86367228D01*
X160597000Y-86202816D01*
X160597000Y-86035184D01*
X160629703Y-85870772D01*
X160693853Y-85715900D01*
X160786985Y-85576519D01*
X160905519Y-85457985D01*
X161044900Y-85364853D01*
X161199772Y-85300703D01*
X161364184Y-85268000D01*
X161531816Y-85268000D01*
X161696228Y-85300703D01*
G37*
G36*
X161109766Y-82670899D02*
G01*
X161241888Y-82725626D01*
X161241890Y-82725627D01*
X161360798Y-82805079D01*
X161461921Y-82906202D01*
X161541373Y-83025110D01*
X161541374Y-83025112D01*
X161596101Y-83157234D01*
X161624000Y-83297494D01*
X161624000Y-83440506D01*
X161596101Y-83580766D01*
X161541374Y-83712888D01*
X161541373Y-83712890D01*
X161461921Y-83831798D01*
X161360798Y-83932921D01*
X161241890Y-84012373D01*
X161241889Y-84012374D01*
X161241888Y-84012374D01*
X161109766Y-84067101D01*
X160969506Y-84095000D01*
X160826494Y-84095000D01*
X160686234Y-84067101D01*
X160554112Y-84012374D01*
X160554111Y-84012374D01*
X160554110Y-84012373D01*
X160435202Y-83932921D01*
X160334079Y-83831798D01*
X160254627Y-83712890D01*
X160254626Y-83712888D01*
X160199899Y-83580766D01*
X160172000Y-83440506D01*
X160172000Y-83297494D01*
X160199899Y-83157234D01*
X160254626Y-83025112D01*
X160254627Y-83025110D01*
X160334079Y-82906202D01*
X160435202Y-82805079D01*
X160554110Y-82725627D01*
X160554112Y-82725626D01*
X160686234Y-82670899D01*
X160826494Y-82643000D01*
X160969506Y-82643000D01*
X161109766Y-82670899D01*
G37*
G36*
X172979766Y-82670899D02*
G01*
X173111888Y-82725626D01*
X173111890Y-82725627D01*
X173230798Y-82805079D01*
X173331921Y-82906202D01*
X173411373Y-83025110D01*
X173411374Y-83025112D01*
X173466101Y-83157234D01*
X173494000Y-83297494D01*
X173494000Y-83440506D01*
X173466101Y-83580766D01*
X173411374Y-83712888D01*
X173411373Y-83712890D01*
X173331921Y-83831798D01*
X173230798Y-83932921D01*
X173111890Y-84012373D01*
X173111889Y-84012374D01*
X173111888Y-84012374D01*
X172979766Y-84067101D01*
X172839506Y-84095000D01*
X172696494Y-84095000D01*
X172556234Y-84067101D01*
X172424112Y-84012374D01*
X172424111Y-84012374D01*
X172424110Y-84012373D01*
X172305202Y-83932921D01*
X172204079Y-83831798D01*
X172124627Y-83712890D01*
X172124626Y-83712888D01*
X172069899Y-83580766D01*
X172042000Y-83440506D01*
X172042000Y-83297494D01*
X172069899Y-83157234D01*
X172124626Y-83025112D01*
X172124627Y-83025110D01*
X172204079Y-82906202D01*
X172305202Y-82805079D01*
X172424110Y-82725627D01*
X172424112Y-82725626D01*
X172556234Y-82670899D01*
X172696494Y-82643000D01*
X172839506Y-82643000D01*
X172979766Y-82670899D01*
G37*
G36*
X170459000Y-83970000D02*
G01*
X169557000Y-83970000D01*
X169557000Y-82768000D01*
X170459000Y-82768000D01*
X170459000Y-83970000D01*
G37*
G36*
X169189000Y-83970000D02*
G01*
X168287000Y-83970000D01*
X168287000Y-82768000D01*
X169189000Y-82768000D01*
X169189000Y-83970000D01*
G37*
G36*
X164109000Y-83970000D02*
G01*
X163207000Y-83970000D01*
X163207000Y-82768000D01*
X164109000Y-82768000D01*
X164109000Y-83970000D01*
G37*
G36*
X165379000Y-83970000D02*
G01*
X164477000Y-83970000D01*
X164477000Y-82768000D01*
X165379000Y-82768000D01*
X165379000Y-83970000D01*
G37*
G36*
X166649000Y-83970000D02*
G01*
X165747000Y-83970000D01*
X165747000Y-82768000D01*
X166649000Y-82768000D01*
X166649000Y-83970000D01*
G37*
G36*
X167919000Y-83970000D02*
G01*
X167017000Y-83970000D01*
X167017000Y-82768000D01*
X167919000Y-82768000D01*
X167919000Y-83970000D01*
G37*
M02*
