G04 #@! TF.GenerationSoftware,KiCad,Pcbnew,(5.1.5-0)*
G04 #@! TF.CreationDate,2020-09-28T19:51:32-07:00*
G04 #@! TF.ProjectId,Luminometer_ADC,4c756d69-6e6f-46d6-9574-65725f414443,rev?*
G04 #@! TF.SameCoordinates,Original*
G04 #@! TF.FileFunction,Copper,L2,Inr*
G04 #@! TF.FilePolarity,Positive*
%FSLAX46Y46*%
G04 Gerber Fmt 4.6, Leading zero omitted, Abs format (unit mm)*
G04 Created by KiCad (PCBNEW (5.1.5-0)) date 2020-09-28 19:51:32*
%MOMM*%
%LPD*%
G04 APERTURE LIST*
%ADD10C,1.350000*%
%ADD11C,6.400000*%
%ADD12C,0.800000*%
%ADD13C,2.200000*%
%ADD14C,1.000000*%
G04 APERTURE END LIST*
D10*
X160898000Y-88869000D03*
X172768000Y-88869000D03*
X172768000Y-83369000D03*
X160898000Y-83369000D03*
D11*
X175000000Y-125000000D03*
X120000000Y-125000000D03*
X120000000Y-85000000D03*
D12*
X170180000Y-111760000D03*
X166878000Y-103378000D03*
D13*
X165354000Y-85979000D03*
D12*
X176784000Y-111887000D03*
X173609000Y-100584000D03*
X167767000Y-117094000D03*
X152908000Y-121158000D03*
X147828000Y-120777000D03*
X134112000Y-122047000D03*
X141732000Y-126873000D03*
X161925000Y-125730000D03*
X156718000Y-124333000D03*
X155829000Y-115951000D03*
X134620000Y-103886000D03*
X145796000Y-102997000D03*
X164973000Y-102489000D03*
X128143000Y-112268000D03*
X146177000Y-112268000D03*
X127500000Y-103500000D03*
X166243000Y-120015000D03*
X172085000Y-106680000D03*
X140335000Y-102997000D03*
X170053000Y-81788000D03*
X173609000Y-98806000D03*
X168656000Y-85471000D03*
X158242000Y-100711000D03*
X147193000Y-96774000D03*
X138049000Y-96774000D03*
X137414000Y-118364000D03*
X163322000Y-112268000D03*
X140970000Y-101473000D03*
X141986000Y-102997000D03*
X157000000Y-111000000D03*
X142621000Y-123317000D03*
X153543000Y-126619000D03*
X136906000Y-100457000D03*
X136398000Y-105537000D03*
D14*
X172484999Y-106280001D02*
X172085000Y-106680000D01*
X174809009Y-103955991D02*
X172484999Y-106280001D01*
X173222002Y-81788000D02*
X174809009Y-83375007D01*
X174809009Y-83375007D02*
X174809009Y-103955991D01*
X170053000Y-81788000D02*
X173222002Y-81788000D01*
X166243000Y-112522000D02*
X166243000Y-120015000D01*
X172085000Y-106680000D02*
X166243000Y-112522000D01*
X169487315Y-81788000D02*
X170053000Y-81788000D01*
X159026998Y-81788000D02*
X169487315Y-81788000D01*
X139869999Y-100944999D02*
X159026998Y-81788000D01*
X139869999Y-102531999D02*
X139869999Y-100944999D01*
X140335000Y-102997000D02*
X139869999Y-102531999D01*
X168656000Y-93853000D02*
X173609000Y-98806000D01*
X168656000Y-85471000D02*
X168656000Y-93853000D01*
X165100000Y-93853000D02*
X158242000Y-100711000D01*
X168656000Y-93853000D02*
X165100000Y-93853000D01*
X141488939Y-101796991D02*
X141164948Y-101473000D01*
X141164948Y-101473000D02*
X141070009Y-101473000D01*
X152850991Y-101796991D02*
X141488939Y-101796991D01*
X163322000Y-112268000D02*
X152850991Y-101796991D01*
X149989000Y-111000000D02*
X141986000Y-102997000D01*
X157000000Y-111000000D02*
X149989000Y-111000000D01*
X145923000Y-126619000D02*
X142621000Y-123317000D01*
X153543000Y-126619000D02*
X145923000Y-126619000D01*
M02*
