G04 #@! TF.GenerationSoftware,KiCad,Pcbnew,(5.1.9-0-10_14)*
G04 #@! TF.CreationDate,2021-05-06T17:31:37-07:00*
G04 #@! TF.ProjectId,Luminometer_ADC,4c756d69-6e6f-46d6-9574-65725f414443,rev?*
G04 #@! TF.SameCoordinates,Original*
G04 #@! TF.FileFunction,Paste,Top*
G04 #@! TF.FilePolarity,Positive*
%FSLAX46Y46*%
G04 Gerber Fmt 4.6, Leading zero omitted, Abs format (unit mm)*
G04 Created by KiCad (PCBNEW (5.1.9-0-10_14)) date 2021-05-06 17:31:37*
%MOMM*%
%LPD*%
G01*
G04 APERTURE LIST*
%ADD10R,0.800000X1.100000*%
%ADD11R,1.500000X0.550000*%
%ADD12R,0.800000X0.900000*%
%ADD13R,1.300000X3.400000*%
%ADD14R,0.400000X1.060000*%
%ADD15R,0.650000X1.060000*%
G04 APERTURE END LIST*
D10*
X164825000Y-88750000D03*
X166095000Y-88750000D03*
X167365000Y-88750000D03*
X171175000Y-83250000D03*
X169905000Y-83250000D03*
X164825000Y-83250000D03*
X168635000Y-88750000D03*
X169905000Y-88750000D03*
X171175000Y-88750000D03*
X166095000Y-83250000D03*
X167365000Y-83250000D03*
X168635000Y-83250000D03*
D11*
X149416000Y-99736000D03*
X149416000Y-101006000D03*
X149416000Y-102276000D03*
X149416000Y-103546000D03*
X149416000Y-104816000D03*
X149416000Y-106086000D03*
X149416000Y-107356000D03*
X144016000Y-107356000D03*
X144016000Y-106086000D03*
X144016000Y-104816000D03*
X144016000Y-103546000D03*
X144016000Y-102276000D03*
X144016000Y-101006000D03*
X144016000Y-99736000D03*
G36*
G01*
X169475000Y-108925000D02*
X170025000Y-108925000D01*
G75*
G02*
X170225000Y-109125000I0J-200000D01*
G01*
X170225000Y-109525000D01*
G75*
G02*
X170025000Y-109725000I-200000J0D01*
G01*
X169475000Y-109725000D01*
G75*
G02*
X169275000Y-109525000I0J200000D01*
G01*
X169275000Y-109125000D01*
G75*
G02*
X169475000Y-108925000I200000J0D01*
G01*
G37*
G36*
G01*
X169475000Y-107275000D02*
X170025000Y-107275000D01*
G75*
G02*
X170225000Y-107475000I0J-200000D01*
G01*
X170225000Y-107875000D01*
G75*
G02*
X170025000Y-108075000I-200000J0D01*
G01*
X169475000Y-108075000D01*
G75*
G02*
X169275000Y-107875000I0J200000D01*
G01*
X169275000Y-107475000D01*
G75*
G02*
X169475000Y-107275000I200000J0D01*
G01*
G37*
G36*
G01*
X171225000Y-108925000D02*
X171775000Y-108925000D01*
G75*
G02*
X171975000Y-109125000I0J-200000D01*
G01*
X171975000Y-109525000D01*
G75*
G02*
X171775000Y-109725000I-200000J0D01*
G01*
X171225000Y-109725000D01*
G75*
G02*
X171025000Y-109525000I0J200000D01*
G01*
X171025000Y-109125000D01*
G75*
G02*
X171225000Y-108925000I200000J0D01*
G01*
G37*
G36*
G01*
X171225000Y-107275000D02*
X171775000Y-107275000D01*
G75*
G02*
X171975000Y-107475000I0J-200000D01*
G01*
X171975000Y-107875000D01*
G75*
G02*
X171775000Y-108075000I-200000J0D01*
G01*
X171225000Y-108075000D01*
G75*
G02*
X171025000Y-107875000I0J200000D01*
G01*
X171025000Y-107475000D01*
G75*
G02*
X171225000Y-107275000I200000J0D01*
G01*
G37*
G36*
G01*
X167475000Y-108925000D02*
X168025000Y-108925000D01*
G75*
G02*
X168225000Y-109125000I0J-200000D01*
G01*
X168225000Y-109525000D01*
G75*
G02*
X168025000Y-109725000I-200000J0D01*
G01*
X167475000Y-109725000D01*
G75*
G02*
X167275000Y-109525000I0J200000D01*
G01*
X167275000Y-109125000D01*
G75*
G02*
X167475000Y-108925000I200000J0D01*
G01*
G37*
G36*
G01*
X167475000Y-107275000D02*
X168025000Y-107275000D01*
G75*
G02*
X168225000Y-107475000I0J-200000D01*
G01*
X168225000Y-107875000D01*
G75*
G02*
X168025000Y-108075000I-200000J0D01*
G01*
X167475000Y-108075000D01*
G75*
G02*
X167275000Y-107875000I0J200000D01*
G01*
X167275000Y-107475000D01*
G75*
G02*
X167475000Y-107275000I200000J0D01*
G01*
G37*
G36*
G01*
X165725000Y-108925000D02*
X166275000Y-108925000D01*
G75*
G02*
X166475000Y-109125000I0J-200000D01*
G01*
X166475000Y-109525000D01*
G75*
G02*
X166275000Y-109725000I-200000J0D01*
G01*
X165725000Y-109725000D01*
G75*
G02*
X165525000Y-109525000I0J200000D01*
G01*
X165525000Y-109125000D01*
G75*
G02*
X165725000Y-108925000I200000J0D01*
G01*
G37*
G36*
G01*
X165725000Y-107275000D02*
X166275000Y-107275000D01*
G75*
G02*
X166475000Y-107475000I0J-200000D01*
G01*
X166475000Y-107875000D01*
G75*
G02*
X166275000Y-108075000I-200000J0D01*
G01*
X165725000Y-108075000D01*
G75*
G02*
X165525000Y-107875000I0J200000D01*
G01*
X165525000Y-107475000D01*
G75*
G02*
X165725000Y-107275000I200000J0D01*
G01*
G37*
G36*
G01*
X161225000Y-108425000D02*
X161775000Y-108425000D01*
G75*
G02*
X161975000Y-108625000I0J-200000D01*
G01*
X161975000Y-109025000D01*
G75*
G02*
X161775000Y-109225000I-200000J0D01*
G01*
X161225000Y-109225000D01*
G75*
G02*
X161025000Y-109025000I0J200000D01*
G01*
X161025000Y-108625000D01*
G75*
G02*
X161225000Y-108425000I200000J0D01*
G01*
G37*
G36*
G01*
X161225000Y-106775000D02*
X161775000Y-106775000D01*
G75*
G02*
X161975000Y-106975000I0J-200000D01*
G01*
X161975000Y-107375000D01*
G75*
G02*
X161775000Y-107575000I-200000J0D01*
G01*
X161225000Y-107575000D01*
G75*
G02*
X161025000Y-107375000I0J200000D01*
G01*
X161025000Y-106975000D01*
G75*
G02*
X161225000Y-106775000I200000J0D01*
G01*
G37*
G36*
G01*
X163725000Y-108925000D02*
X164275000Y-108925000D01*
G75*
G02*
X164475000Y-109125000I0J-200000D01*
G01*
X164475000Y-109525000D01*
G75*
G02*
X164275000Y-109725000I-200000J0D01*
G01*
X163725000Y-109725000D01*
G75*
G02*
X163525000Y-109525000I0J200000D01*
G01*
X163525000Y-109125000D01*
G75*
G02*
X163725000Y-108925000I200000J0D01*
G01*
G37*
G36*
G01*
X163725000Y-107275000D02*
X164275000Y-107275000D01*
G75*
G02*
X164475000Y-107475000I0J-200000D01*
G01*
X164475000Y-107875000D01*
G75*
G02*
X164275000Y-108075000I-200000J0D01*
G01*
X163725000Y-108075000D01*
G75*
G02*
X163525000Y-107875000I0J200000D01*
G01*
X163525000Y-107475000D01*
G75*
G02*
X163725000Y-107275000I200000J0D01*
G01*
G37*
G36*
G01*
X169475000Y-112675000D02*
X170025000Y-112675000D01*
G75*
G02*
X170225000Y-112875000I0J-200000D01*
G01*
X170225000Y-113275000D01*
G75*
G02*
X170025000Y-113475000I-200000J0D01*
G01*
X169475000Y-113475000D01*
G75*
G02*
X169275000Y-113275000I0J200000D01*
G01*
X169275000Y-112875000D01*
G75*
G02*
X169475000Y-112675000I200000J0D01*
G01*
G37*
G36*
G01*
X169475000Y-111025000D02*
X170025000Y-111025000D01*
G75*
G02*
X170225000Y-111225000I0J-200000D01*
G01*
X170225000Y-111625000D01*
G75*
G02*
X170025000Y-111825000I-200000J0D01*
G01*
X169475000Y-111825000D01*
G75*
G02*
X169275000Y-111625000I0J200000D01*
G01*
X169275000Y-111225000D01*
G75*
G02*
X169475000Y-111025000I200000J0D01*
G01*
G37*
G36*
G01*
X171775000Y-111825000D02*
X171225000Y-111825000D01*
G75*
G02*
X171025000Y-111625000I0J200000D01*
G01*
X171025000Y-111225000D01*
G75*
G02*
X171225000Y-111025000I200000J0D01*
G01*
X171775000Y-111025000D01*
G75*
G02*
X171975000Y-111225000I0J-200000D01*
G01*
X171975000Y-111625000D01*
G75*
G02*
X171775000Y-111825000I-200000J0D01*
G01*
G37*
G36*
G01*
X171775000Y-113475000D02*
X171225000Y-113475000D01*
G75*
G02*
X171025000Y-113275000I0J200000D01*
G01*
X171025000Y-112875000D01*
G75*
G02*
X171225000Y-112675000I200000J0D01*
G01*
X171775000Y-112675000D01*
G75*
G02*
X171975000Y-112875000I0J-200000D01*
G01*
X171975000Y-113275000D01*
G75*
G02*
X171775000Y-113475000I-200000J0D01*
G01*
G37*
G36*
G01*
X165725000Y-112675000D02*
X166275000Y-112675000D01*
G75*
G02*
X166475000Y-112875000I0J-200000D01*
G01*
X166475000Y-113275000D01*
G75*
G02*
X166275000Y-113475000I-200000J0D01*
G01*
X165725000Y-113475000D01*
G75*
G02*
X165525000Y-113275000I0J200000D01*
G01*
X165525000Y-112875000D01*
G75*
G02*
X165725000Y-112675000I200000J0D01*
G01*
G37*
G36*
G01*
X165725000Y-111025000D02*
X166275000Y-111025000D01*
G75*
G02*
X166475000Y-111225000I0J-200000D01*
G01*
X166475000Y-111625000D01*
G75*
G02*
X166275000Y-111825000I-200000J0D01*
G01*
X165725000Y-111825000D01*
G75*
G02*
X165525000Y-111625000I0J200000D01*
G01*
X165525000Y-111225000D01*
G75*
G02*
X165725000Y-111025000I200000J0D01*
G01*
G37*
G36*
G01*
X168025000Y-111825000D02*
X167475000Y-111825000D01*
G75*
G02*
X167275000Y-111625000I0J200000D01*
G01*
X167275000Y-111225000D01*
G75*
G02*
X167475000Y-111025000I200000J0D01*
G01*
X168025000Y-111025000D01*
G75*
G02*
X168225000Y-111225000I0J-200000D01*
G01*
X168225000Y-111625000D01*
G75*
G02*
X168025000Y-111825000I-200000J0D01*
G01*
G37*
G36*
G01*
X168025000Y-113475000D02*
X167475000Y-113475000D01*
G75*
G02*
X167275000Y-113275000I0J200000D01*
G01*
X167275000Y-112875000D01*
G75*
G02*
X167475000Y-112675000I200000J0D01*
G01*
X168025000Y-112675000D01*
G75*
G02*
X168225000Y-112875000I0J-200000D01*
G01*
X168225000Y-113275000D01*
G75*
G02*
X168025000Y-113475000I-200000J0D01*
G01*
G37*
G36*
G01*
X168475000Y-123675000D02*
X169025000Y-123675000D01*
G75*
G02*
X169225000Y-123875000I0J-200000D01*
G01*
X169225000Y-124275000D01*
G75*
G02*
X169025000Y-124475000I-200000J0D01*
G01*
X168475000Y-124475000D01*
G75*
G02*
X168275000Y-124275000I0J200000D01*
G01*
X168275000Y-123875000D01*
G75*
G02*
X168475000Y-123675000I200000J0D01*
G01*
G37*
G36*
G01*
X168475000Y-122025000D02*
X169025000Y-122025000D01*
G75*
G02*
X169225000Y-122225000I0J-200000D01*
G01*
X169225000Y-122625000D01*
G75*
G02*
X169025000Y-122825000I-200000J0D01*
G01*
X168475000Y-122825000D01*
G75*
G02*
X168275000Y-122625000I0J200000D01*
G01*
X168275000Y-122225000D01*
G75*
G02*
X168475000Y-122025000I200000J0D01*
G01*
G37*
G36*
G01*
X170425000Y-105500000D02*
X170425000Y-106000000D01*
G75*
G02*
X170200000Y-106225000I-225000J0D01*
G01*
X169750000Y-106225000D01*
G75*
G02*
X169525000Y-106000000I0J225000D01*
G01*
X169525000Y-105500000D01*
G75*
G02*
X169750000Y-105275000I225000J0D01*
G01*
X170200000Y-105275000D01*
G75*
G02*
X170425000Y-105500000I0J-225000D01*
G01*
G37*
G36*
G01*
X171975000Y-105500000D02*
X171975000Y-106000000D01*
G75*
G02*
X171750000Y-106225000I-225000J0D01*
G01*
X171300000Y-106225000D01*
G75*
G02*
X171075000Y-106000000I0J225000D01*
G01*
X171075000Y-105500000D01*
G75*
G02*
X171300000Y-105275000I225000J0D01*
G01*
X171750000Y-105275000D01*
G75*
G02*
X171975000Y-105500000I0J-225000D01*
G01*
G37*
G36*
G01*
X167325000Y-106000000D02*
X167325000Y-105500000D01*
G75*
G02*
X167550000Y-105275000I225000J0D01*
G01*
X168000000Y-105275000D01*
G75*
G02*
X168225000Y-105500000I0J-225000D01*
G01*
X168225000Y-106000000D01*
G75*
G02*
X168000000Y-106225000I-225000J0D01*
G01*
X167550000Y-106225000D01*
G75*
G02*
X167325000Y-106000000I0J225000D01*
G01*
G37*
G36*
G01*
X165775000Y-106000000D02*
X165775000Y-105500000D01*
G75*
G02*
X166000000Y-105275000I225000J0D01*
G01*
X166450000Y-105275000D01*
G75*
G02*
X166675000Y-105500000I0J-225000D01*
G01*
X166675000Y-106000000D01*
G75*
G02*
X166450000Y-106225000I-225000J0D01*
G01*
X166000000Y-106225000D01*
G75*
G02*
X165775000Y-106000000I0J225000D01*
G01*
G37*
G36*
G01*
X164500000Y-104675000D02*
X164000000Y-104675000D01*
G75*
G02*
X163775000Y-104450000I0J225000D01*
G01*
X163775000Y-104000000D01*
G75*
G02*
X164000000Y-103775000I225000J0D01*
G01*
X164500000Y-103775000D01*
G75*
G02*
X164725000Y-104000000I0J-225000D01*
G01*
X164725000Y-104450000D01*
G75*
G02*
X164500000Y-104675000I-225000J0D01*
G01*
G37*
G36*
G01*
X164500000Y-106225000D02*
X164000000Y-106225000D01*
G75*
G02*
X163775000Y-106000000I0J225000D01*
G01*
X163775000Y-105550000D01*
G75*
G02*
X164000000Y-105325000I225000J0D01*
G01*
X164500000Y-105325000D01*
G75*
G02*
X164725000Y-105550000I0J-225000D01*
G01*
X164725000Y-106000000D01*
G75*
G02*
X164500000Y-106225000I-225000J0D01*
G01*
G37*
G36*
G01*
X159125000Y-119725000D02*
X159125000Y-120275000D01*
G75*
G02*
X158925000Y-120475000I-200000J0D01*
G01*
X158525000Y-120475000D01*
G75*
G02*
X158325000Y-120275000I0J200000D01*
G01*
X158325000Y-119725000D01*
G75*
G02*
X158525000Y-119525000I200000J0D01*
G01*
X158925000Y-119525000D01*
G75*
G02*
X159125000Y-119725000I0J-200000D01*
G01*
G37*
G36*
G01*
X160775000Y-119725000D02*
X160775000Y-120275000D01*
G75*
G02*
X160575000Y-120475000I-200000J0D01*
G01*
X160175000Y-120475000D01*
G75*
G02*
X159975000Y-120275000I0J200000D01*
G01*
X159975000Y-119725000D01*
G75*
G02*
X160175000Y-119525000I200000J0D01*
G01*
X160575000Y-119525000D01*
G75*
G02*
X160775000Y-119725000I0J-200000D01*
G01*
G37*
G36*
G01*
X165325000Y-119675000D02*
X165325000Y-120225000D01*
G75*
G02*
X165125000Y-120425000I-200000J0D01*
G01*
X164725000Y-120425000D01*
G75*
G02*
X164525000Y-120225000I0J200000D01*
G01*
X164525000Y-119675000D01*
G75*
G02*
X164725000Y-119475000I200000J0D01*
G01*
X165125000Y-119475000D01*
G75*
G02*
X165325000Y-119675000I0J-200000D01*
G01*
G37*
G36*
G01*
X166975000Y-119675000D02*
X166975000Y-120225000D01*
G75*
G02*
X166775000Y-120425000I-200000J0D01*
G01*
X166375000Y-120425000D01*
G75*
G02*
X166175000Y-120225000I0J200000D01*
G01*
X166175000Y-119675000D01*
G75*
G02*
X166375000Y-119475000I200000J0D01*
G01*
X166775000Y-119475000D01*
G75*
G02*
X166975000Y-119675000I0J-200000D01*
G01*
G37*
G36*
G01*
X163266000Y-96343500D02*
X162766000Y-96343500D01*
G75*
G02*
X162541000Y-96118500I0J225000D01*
G01*
X162541000Y-95668500D01*
G75*
G02*
X162766000Y-95443500I225000J0D01*
G01*
X163266000Y-95443500D01*
G75*
G02*
X163491000Y-95668500I0J-225000D01*
G01*
X163491000Y-96118500D01*
G75*
G02*
X163266000Y-96343500I-225000J0D01*
G01*
G37*
G36*
G01*
X163266000Y-97893500D02*
X162766000Y-97893500D01*
G75*
G02*
X162541000Y-97668500I0J225000D01*
G01*
X162541000Y-97218500D01*
G75*
G02*
X162766000Y-96993500I225000J0D01*
G01*
X163266000Y-96993500D01*
G75*
G02*
X163491000Y-97218500I0J-225000D01*
G01*
X163491000Y-97668500D01*
G75*
G02*
X163266000Y-97893500I-225000J0D01*
G01*
G37*
G36*
G01*
X125925000Y-100950000D02*
X125925000Y-100450000D01*
G75*
G02*
X126150000Y-100225000I225000J0D01*
G01*
X126600000Y-100225000D01*
G75*
G02*
X126825000Y-100450000I0J-225000D01*
G01*
X126825000Y-100950000D01*
G75*
G02*
X126600000Y-101175000I-225000J0D01*
G01*
X126150000Y-101175000D01*
G75*
G02*
X125925000Y-100950000I0J225000D01*
G01*
G37*
G36*
G01*
X124375000Y-100950000D02*
X124375000Y-100450000D01*
G75*
G02*
X124600000Y-100225000I225000J0D01*
G01*
X125050000Y-100225000D01*
G75*
G02*
X125275000Y-100450000I0J-225000D01*
G01*
X125275000Y-100950000D01*
G75*
G02*
X125050000Y-101175000I-225000J0D01*
G01*
X124600000Y-101175000D01*
G75*
G02*
X124375000Y-100950000I0J225000D01*
G01*
G37*
G36*
G01*
X118550000Y-96375000D02*
X119050000Y-96375000D01*
G75*
G02*
X119275000Y-96600000I0J-225000D01*
G01*
X119275000Y-97050000D01*
G75*
G02*
X119050000Y-97275000I-225000J0D01*
G01*
X118550000Y-97275000D01*
G75*
G02*
X118325000Y-97050000I0J225000D01*
G01*
X118325000Y-96600000D01*
G75*
G02*
X118550000Y-96375000I225000J0D01*
G01*
G37*
G36*
G01*
X118550000Y-94825000D02*
X119050000Y-94825000D01*
G75*
G02*
X119275000Y-95050000I0J-225000D01*
G01*
X119275000Y-95500000D01*
G75*
G02*
X119050000Y-95725000I-225000J0D01*
G01*
X118550000Y-95725000D01*
G75*
G02*
X118325000Y-95500000I0J225000D01*
G01*
X118325000Y-95050000D01*
G75*
G02*
X118550000Y-94825000I225000J0D01*
G01*
G37*
G36*
G01*
X165475000Y-121700000D02*
X165475000Y-122200000D01*
G75*
G02*
X165250000Y-122425000I-225000J0D01*
G01*
X164800000Y-122425000D01*
G75*
G02*
X164575000Y-122200000I0J225000D01*
G01*
X164575000Y-121700000D01*
G75*
G02*
X164800000Y-121475000I225000J0D01*
G01*
X165250000Y-121475000D01*
G75*
G02*
X165475000Y-121700000I0J-225000D01*
G01*
G37*
G36*
G01*
X167025000Y-121700000D02*
X167025000Y-122200000D01*
G75*
G02*
X166800000Y-122425000I-225000J0D01*
G01*
X166350000Y-122425000D01*
G75*
G02*
X166125000Y-122200000I0J225000D01*
G01*
X166125000Y-121700000D01*
G75*
G02*
X166350000Y-121475000I225000J0D01*
G01*
X166800000Y-121475000D01*
G75*
G02*
X167025000Y-121700000I0J-225000D01*
G01*
G37*
G36*
G01*
X162600000Y-125325000D02*
X163100000Y-125325000D01*
G75*
G02*
X163325000Y-125550000I0J-225000D01*
G01*
X163325000Y-126000000D01*
G75*
G02*
X163100000Y-126225000I-225000J0D01*
G01*
X162600000Y-126225000D01*
G75*
G02*
X162375000Y-126000000I0J225000D01*
G01*
X162375000Y-125550000D01*
G75*
G02*
X162600000Y-125325000I225000J0D01*
G01*
G37*
G36*
G01*
X162600000Y-123775000D02*
X163100000Y-123775000D01*
G75*
G02*
X163325000Y-124000000I0J-225000D01*
G01*
X163325000Y-124450000D01*
G75*
G02*
X163100000Y-124675000I-225000J0D01*
G01*
X162600000Y-124675000D01*
G75*
G02*
X162375000Y-124450000I0J225000D01*
G01*
X162375000Y-124000000D01*
G75*
G02*
X162600000Y-123775000I225000J0D01*
G01*
G37*
G36*
G01*
X138026000Y-100572500D02*
X138526000Y-100572500D01*
G75*
G02*
X138751000Y-100797500I0J-225000D01*
G01*
X138751000Y-101247500D01*
G75*
G02*
X138526000Y-101472500I-225000J0D01*
G01*
X138026000Y-101472500D01*
G75*
G02*
X137801000Y-101247500I0J225000D01*
G01*
X137801000Y-100797500D01*
G75*
G02*
X138026000Y-100572500I225000J0D01*
G01*
G37*
G36*
G01*
X138026000Y-99022500D02*
X138526000Y-99022500D01*
G75*
G02*
X138751000Y-99247500I0J-225000D01*
G01*
X138751000Y-99697500D01*
G75*
G02*
X138526000Y-99922500I-225000J0D01*
G01*
X138026000Y-99922500D01*
G75*
G02*
X137801000Y-99697500I0J225000D01*
G01*
X137801000Y-99247500D01*
G75*
G02*
X138026000Y-99022500I225000J0D01*
G01*
G37*
D12*
X159800000Y-126250000D03*
X158850000Y-124250000D03*
X160750000Y-124250000D03*
G36*
G01*
X147258500Y-110310000D02*
X147258500Y-109760000D01*
G75*
G02*
X147458500Y-109560000I200000J0D01*
G01*
X147858500Y-109560000D01*
G75*
G02*
X148058500Y-109760000I0J-200000D01*
G01*
X148058500Y-110310000D01*
G75*
G02*
X147858500Y-110510000I-200000J0D01*
G01*
X147458500Y-110510000D01*
G75*
G02*
X147258500Y-110310000I0J200000D01*
G01*
G37*
G36*
G01*
X145608500Y-110310000D02*
X145608500Y-109760000D01*
G75*
G02*
X145808500Y-109560000I200000J0D01*
G01*
X146208500Y-109560000D01*
G75*
G02*
X146408500Y-109760000I0J-200000D01*
G01*
X146408500Y-110310000D01*
G75*
G02*
X146208500Y-110510000I-200000J0D01*
G01*
X145808500Y-110510000D01*
G75*
G02*
X145608500Y-110310000I0J200000D01*
G01*
G37*
G36*
G01*
X153071000Y-99822500D02*
X152521000Y-99822500D01*
G75*
G02*
X152321000Y-99622500I0J200000D01*
G01*
X152321000Y-99222500D01*
G75*
G02*
X152521000Y-99022500I200000J0D01*
G01*
X153071000Y-99022500D01*
G75*
G02*
X153271000Y-99222500I0J-200000D01*
G01*
X153271000Y-99622500D01*
G75*
G02*
X153071000Y-99822500I-200000J0D01*
G01*
G37*
G36*
G01*
X153071000Y-101472500D02*
X152521000Y-101472500D01*
G75*
G02*
X152321000Y-101272500I0J200000D01*
G01*
X152321000Y-100872500D01*
G75*
G02*
X152521000Y-100672500I200000J0D01*
G01*
X153071000Y-100672500D01*
G75*
G02*
X153271000Y-100872500I0J-200000D01*
G01*
X153271000Y-101272500D01*
G75*
G02*
X153071000Y-101472500I-200000J0D01*
G01*
G37*
G36*
G01*
X156608500Y-98948000D02*
X156608500Y-99498000D01*
G75*
G02*
X156408500Y-99698000I-200000J0D01*
G01*
X156008500Y-99698000D01*
G75*
G02*
X155808500Y-99498000I0J200000D01*
G01*
X155808500Y-98948000D01*
G75*
G02*
X156008500Y-98748000I200000J0D01*
G01*
X156408500Y-98748000D01*
G75*
G02*
X156608500Y-98948000I0J-200000D01*
G01*
G37*
G36*
G01*
X158258500Y-98948000D02*
X158258500Y-99498000D01*
G75*
G02*
X158058500Y-99698000I-200000J0D01*
G01*
X157658500Y-99698000D01*
G75*
G02*
X157458500Y-99498000I0J200000D01*
G01*
X157458500Y-98948000D01*
G75*
G02*
X157658500Y-98748000I200000J0D01*
G01*
X158058500Y-98748000D01*
G75*
G02*
X158258500Y-98948000I0J-200000D01*
G01*
G37*
G36*
G01*
X156600500Y-103194000D02*
X156600500Y-103744000D01*
G75*
G02*
X156400500Y-103944000I-200000J0D01*
G01*
X156000500Y-103944000D01*
G75*
G02*
X155800500Y-103744000I0J200000D01*
G01*
X155800500Y-103194000D01*
G75*
G02*
X156000500Y-102994000I200000J0D01*
G01*
X156400500Y-102994000D01*
G75*
G02*
X156600500Y-103194000I0J-200000D01*
G01*
G37*
G36*
G01*
X158250500Y-103194000D02*
X158250500Y-103744000D01*
G75*
G02*
X158050500Y-103944000I-200000J0D01*
G01*
X157650500Y-103944000D01*
G75*
G02*
X157450500Y-103744000I0J200000D01*
G01*
X157450500Y-103194000D01*
G75*
G02*
X157650500Y-102994000I200000J0D01*
G01*
X158050500Y-102994000D01*
G75*
G02*
X158250500Y-103194000I0J-200000D01*
G01*
G37*
G36*
G01*
X156600500Y-105734000D02*
X156600500Y-106284000D01*
G75*
G02*
X156400500Y-106484000I-200000J0D01*
G01*
X156000500Y-106484000D01*
G75*
G02*
X155800500Y-106284000I0J200000D01*
G01*
X155800500Y-105734000D01*
G75*
G02*
X156000500Y-105534000I200000J0D01*
G01*
X156400500Y-105534000D01*
G75*
G02*
X156600500Y-105734000I0J-200000D01*
G01*
G37*
G36*
G01*
X158250500Y-105734000D02*
X158250500Y-106284000D01*
G75*
G02*
X158050500Y-106484000I-200000J0D01*
G01*
X157650500Y-106484000D01*
G75*
G02*
X157450500Y-106284000I0J200000D01*
G01*
X157450500Y-105734000D01*
G75*
G02*
X157650500Y-105534000I200000J0D01*
G01*
X158050500Y-105534000D01*
G75*
G02*
X158250500Y-105734000I0J-200000D01*
G01*
G37*
G36*
G01*
X138026000Y-107056500D02*
X138526000Y-107056500D01*
G75*
G02*
X138751000Y-107281500I0J-225000D01*
G01*
X138751000Y-107731500D01*
G75*
G02*
X138526000Y-107956500I-225000J0D01*
G01*
X138026000Y-107956500D01*
G75*
G02*
X137801000Y-107731500I0J225000D01*
G01*
X137801000Y-107281500D01*
G75*
G02*
X138026000Y-107056500I225000J0D01*
G01*
G37*
G36*
G01*
X138026000Y-105506500D02*
X138526000Y-105506500D01*
G75*
G02*
X138751000Y-105731500I0J-225000D01*
G01*
X138751000Y-106181500D01*
G75*
G02*
X138526000Y-106406500I-225000J0D01*
G01*
X138026000Y-106406500D01*
G75*
G02*
X137801000Y-106181500I0J225000D01*
G01*
X137801000Y-105731500D01*
G75*
G02*
X138026000Y-105506500I225000J0D01*
G01*
G37*
G36*
G01*
X175353500Y-110054000D02*
X175353500Y-110554000D01*
G75*
G02*
X175128500Y-110779000I-225000J0D01*
G01*
X174678500Y-110779000D01*
G75*
G02*
X174453500Y-110554000I0J225000D01*
G01*
X174453500Y-110054000D01*
G75*
G02*
X174678500Y-109829000I225000J0D01*
G01*
X175128500Y-109829000D01*
G75*
G02*
X175353500Y-110054000I0J-225000D01*
G01*
G37*
G36*
G01*
X176903500Y-110054000D02*
X176903500Y-110554000D01*
G75*
G02*
X176678500Y-110779000I-225000J0D01*
G01*
X176228500Y-110779000D01*
G75*
G02*
X176003500Y-110554000I0J225000D01*
G01*
X176003500Y-110054000D01*
G75*
G02*
X176228500Y-109829000I225000J0D01*
G01*
X176678500Y-109829000D01*
G75*
G02*
X176903500Y-110054000I0J-225000D01*
G01*
G37*
G36*
G01*
X175363500Y-116584000D02*
X175363500Y-117084000D01*
G75*
G02*
X175138500Y-117309000I-225000J0D01*
G01*
X174688500Y-117309000D01*
G75*
G02*
X174463500Y-117084000I0J225000D01*
G01*
X174463500Y-116584000D01*
G75*
G02*
X174688500Y-116359000I225000J0D01*
G01*
X175138500Y-116359000D01*
G75*
G02*
X175363500Y-116584000I0J-225000D01*
G01*
G37*
G36*
G01*
X176913500Y-116584000D02*
X176913500Y-117084000D01*
G75*
G02*
X176688500Y-117309000I-225000J0D01*
G01*
X176238500Y-117309000D01*
G75*
G02*
X176013500Y-117084000I0J225000D01*
G01*
X176013500Y-116584000D01*
G75*
G02*
X176238500Y-116359000I225000J0D01*
G01*
X176688500Y-116359000D01*
G75*
G02*
X176913500Y-116584000I0J-225000D01*
G01*
G37*
G36*
G01*
X160353000Y-103216500D02*
X160853000Y-103216500D01*
G75*
G02*
X161078000Y-103441500I0J-225000D01*
G01*
X161078000Y-103891500D01*
G75*
G02*
X160853000Y-104116500I-225000J0D01*
G01*
X160353000Y-104116500D01*
G75*
G02*
X160128000Y-103891500I0J225000D01*
G01*
X160128000Y-103441500D01*
G75*
G02*
X160353000Y-103216500I225000J0D01*
G01*
G37*
G36*
G01*
X160353000Y-101666500D02*
X160853000Y-101666500D01*
G75*
G02*
X161078000Y-101891500I0J-225000D01*
G01*
X161078000Y-102341500D01*
G75*
G02*
X160853000Y-102566500I-225000J0D01*
G01*
X160353000Y-102566500D01*
G75*
G02*
X160128000Y-102341500I0J225000D01*
G01*
X160128000Y-101891500D01*
G75*
G02*
X160353000Y-101666500I225000J0D01*
G01*
G37*
G36*
G01*
X173505500Y-99605500D02*
X174005500Y-99605500D01*
G75*
G02*
X174230500Y-99830500I0J-225000D01*
G01*
X174230500Y-100280500D01*
G75*
G02*
X174005500Y-100505500I-225000J0D01*
G01*
X173505500Y-100505500D01*
G75*
G02*
X173280500Y-100280500I0J225000D01*
G01*
X173280500Y-99830500D01*
G75*
G02*
X173505500Y-99605500I225000J0D01*
G01*
G37*
G36*
G01*
X173505500Y-98055500D02*
X174005500Y-98055500D01*
G75*
G02*
X174230500Y-98280500I0J-225000D01*
G01*
X174230500Y-98730500D01*
G75*
G02*
X174005500Y-98955500I-225000J0D01*
G01*
X173505500Y-98955500D01*
G75*
G02*
X173280500Y-98730500I0J225000D01*
G01*
X173280500Y-98280500D01*
G75*
G02*
X173505500Y-98055500I225000J0D01*
G01*
G37*
G36*
G01*
X165010500Y-93599000D02*
X165010500Y-94099000D01*
G75*
G02*
X164785500Y-94324000I-225000J0D01*
G01*
X164335500Y-94324000D01*
G75*
G02*
X164110500Y-94099000I0J225000D01*
G01*
X164110500Y-93599000D01*
G75*
G02*
X164335500Y-93374000I225000J0D01*
G01*
X164785500Y-93374000D01*
G75*
G02*
X165010500Y-93599000I0J-225000D01*
G01*
G37*
G36*
G01*
X166560500Y-93599000D02*
X166560500Y-94099000D01*
G75*
G02*
X166335500Y-94324000I-225000J0D01*
G01*
X165885500Y-94324000D01*
G75*
G02*
X165660500Y-94099000I0J225000D01*
G01*
X165660500Y-93599000D01*
G75*
G02*
X165885500Y-93374000I225000J0D01*
G01*
X166335500Y-93374000D01*
G75*
G02*
X166560500Y-93599000I0J-225000D01*
G01*
G37*
G36*
G01*
X174550500Y-96584000D02*
X174550500Y-96084000D01*
G75*
G02*
X174775500Y-95859000I225000J0D01*
G01*
X175225500Y-95859000D01*
G75*
G02*
X175450500Y-96084000I0J-225000D01*
G01*
X175450500Y-96584000D01*
G75*
G02*
X175225500Y-96809000I-225000J0D01*
G01*
X174775500Y-96809000D01*
G75*
G02*
X174550500Y-96584000I0J225000D01*
G01*
G37*
G36*
G01*
X173000500Y-96584000D02*
X173000500Y-96084000D01*
G75*
G02*
X173225500Y-95859000I225000J0D01*
G01*
X173675500Y-95859000D01*
G75*
G02*
X173900500Y-96084000I0J-225000D01*
G01*
X173900500Y-96584000D01*
G75*
G02*
X173675500Y-96809000I-225000J0D01*
G01*
X173225500Y-96809000D01*
G75*
G02*
X173000500Y-96584000I0J225000D01*
G01*
G37*
G36*
G01*
X150758500Y-110310000D02*
X150758500Y-109760000D01*
G75*
G02*
X150958500Y-109560000I200000J0D01*
G01*
X151358500Y-109560000D01*
G75*
G02*
X151558500Y-109760000I0J-200000D01*
G01*
X151558500Y-110310000D01*
G75*
G02*
X151358500Y-110510000I-200000J0D01*
G01*
X150958500Y-110510000D01*
G75*
G02*
X150758500Y-110310000I0J200000D01*
G01*
G37*
G36*
G01*
X149108500Y-110310000D02*
X149108500Y-109760000D01*
G75*
G02*
X149308500Y-109560000I200000J0D01*
G01*
X149708500Y-109560000D01*
G75*
G02*
X149908500Y-109760000I0J-200000D01*
G01*
X149908500Y-110310000D01*
G75*
G02*
X149708500Y-110510000I-200000J0D01*
G01*
X149308500Y-110510000D01*
G75*
G02*
X149108500Y-110310000I0J200000D01*
G01*
G37*
G36*
G01*
X165723000Y-100829000D02*
X164373000Y-100829000D01*
G75*
G02*
X164298000Y-100754000I0J75000D01*
G01*
X164298000Y-100604000D01*
G75*
G02*
X164373000Y-100529000I75000J0D01*
G01*
X165723000Y-100529000D01*
G75*
G02*
X165798000Y-100604000I0J-75000D01*
G01*
X165798000Y-100754000D01*
G75*
G02*
X165723000Y-100829000I-75000J0D01*
G01*
G37*
G36*
G01*
X165723000Y-100329000D02*
X164373000Y-100329000D01*
G75*
G02*
X164298000Y-100254000I0J75000D01*
G01*
X164298000Y-100104000D01*
G75*
G02*
X164373000Y-100029000I75000J0D01*
G01*
X165723000Y-100029000D01*
G75*
G02*
X165798000Y-100104000I0J-75000D01*
G01*
X165798000Y-100254000D01*
G75*
G02*
X165723000Y-100329000I-75000J0D01*
G01*
G37*
G36*
G01*
X165723000Y-99829000D02*
X164373000Y-99829000D01*
G75*
G02*
X164298000Y-99754000I0J75000D01*
G01*
X164298000Y-99604000D01*
G75*
G02*
X164373000Y-99529000I75000J0D01*
G01*
X165723000Y-99529000D01*
G75*
G02*
X165798000Y-99604000I0J-75000D01*
G01*
X165798000Y-99754000D01*
G75*
G02*
X165723000Y-99829000I-75000J0D01*
G01*
G37*
G36*
G01*
X165723000Y-99329000D02*
X164373000Y-99329000D01*
G75*
G02*
X164298000Y-99254000I0J75000D01*
G01*
X164298000Y-99104000D01*
G75*
G02*
X164373000Y-99029000I75000J0D01*
G01*
X165723000Y-99029000D01*
G75*
G02*
X165798000Y-99104000I0J-75000D01*
G01*
X165798000Y-99254000D01*
G75*
G02*
X165723000Y-99329000I-75000J0D01*
G01*
G37*
G36*
G01*
X165723000Y-98829000D02*
X164373000Y-98829000D01*
G75*
G02*
X164298000Y-98754000I0J75000D01*
G01*
X164298000Y-98604000D01*
G75*
G02*
X164373000Y-98529000I75000J0D01*
G01*
X165723000Y-98529000D01*
G75*
G02*
X165798000Y-98604000I0J-75000D01*
G01*
X165798000Y-98754000D01*
G75*
G02*
X165723000Y-98829000I-75000J0D01*
G01*
G37*
G36*
G01*
X165723000Y-98329000D02*
X164373000Y-98329000D01*
G75*
G02*
X164298000Y-98254000I0J75000D01*
G01*
X164298000Y-98104000D01*
G75*
G02*
X164373000Y-98029000I75000J0D01*
G01*
X165723000Y-98029000D01*
G75*
G02*
X165798000Y-98104000I0J-75000D01*
G01*
X165798000Y-98254000D01*
G75*
G02*
X165723000Y-98329000I-75000J0D01*
G01*
G37*
G36*
G01*
X165723000Y-97829000D02*
X164373000Y-97829000D01*
G75*
G02*
X164298000Y-97754000I0J75000D01*
G01*
X164298000Y-97604000D01*
G75*
G02*
X164373000Y-97529000I75000J0D01*
G01*
X165723000Y-97529000D01*
G75*
G02*
X165798000Y-97604000I0J-75000D01*
G01*
X165798000Y-97754000D01*
G75*
G02*
X165723000Y-97829000I-75000J0D01*
G01*
G37*
G36*
G01*
X165723000Y-97329000D02*
X164373000Y-97329000D01*
G75*
G02*
X164298000Y-97254000I0J75000D01*
G01*
X164298000Y-97104000D01*
G75*
G02*
X164373000Y-97029000I75000J0D01*
G01*
X165723000Y-97029000D01*
G75*
G02*
X165798000Y-97104000I0J-75000D01*
G01*
X165798000Y-97254000D01*
G75*
G02*
X165723000Y-97329000I-75000J0D01*
G01*
G37*
G36*
G01*
X166548000Y-96504000D02*
X166398000Y-96504000D01*
G75*
G02*
X166323000Y-96429000I0J75000D01*
G01*
X166323000Y-95079000D01*
G75*
G02*
X166398000Y-95004000I75000J0D01*
G01*
X166548000Y-95004000D01*
G75*
G02*
X166623000Y-95079000I0J-75000D01*
G01*
X166623000Y-96429000D01*
G75*
G02*
X166548000Y-96504000I-75000J0D01*
G01*
G37*
G36*
G01*
X167048000Y-96504000D02*
X166898000Y-96504000D01*
G75*
G02*
X166823000Y-96429000I0J75000D01*
G01*
X166823000Y-95079000D01*
G75*
G02*
X166898000Y-95004000I75000J0D01*
G01*
X167048000Y-95004000D01*
G75*
G02*
X167123000Y-95079000I0J-75000D01*
G01*
X167123000Y-96429000D01*
G75*
G02*
X167048000Y-96504000I-75000J0D01*
G01*
G37*
G36*
G01*
X167548000Y-96504000D02*
X167398000Y-96504000D01*
G75*
G02*
X167323000Y-96429000I0J75000D01*
G01*
X167323000Y-95079000D01*
G75*
G02*
X167398000Y-95004000I75000J0D01*
G01*
X167548000Y-95004000D01*
G75*
G02*
X167623000Y-95079000I0J-75000D01*
G01*
X167623000Y-96429000D01*
G75*
G02*
X167548000Y-96504000I-75000J0D01*
G01*
G37*
G36*
G01*
X168048000Y-96504000D02*
X167898000Y-96504000D01*
G75*
G02*
X167823000Y-96429000I0J75000D01*
G01*
X167823000Y-95079000D01*
G75*
G02*
X167898000Y-95004000I75000J0D01*
G01*
X168048000Y-95004000D01*
G75*
G02*
X168123000Y-95079000I0J-75000D01*
G01*
X168123000Y-96429000D01*
G75*
G02*
X168048000Y-96504000I-75000J0D01*
G01*
G37*
G36*
G01*
X168548000Y-96504000D02*
X168398000Y-96504000D01*
G75*
G02*
X168323000Y-96429000I0J75000D01*
G01*
X168323000Y-95079000D01*
G75*
G02*
X168398000Y-95004000I75000J0D01*
G01*
X168548000Y-95004000D01*
G75*
G02*
X168623000Y-95079000I0J-75000D01*
G01*
X168623000Y-96429000D01*
G75*
G02*
X168548000Y-96504000I-75000J0D01*
G01*
G37*
G36*
G01*
X169048000Y-96504000D02*
X168898000Y-96504000D01*
G75*
G02*
X168823000Y-96429000I0J75000D01*
G01*
X168823000Y-95079000D01*
G75*
G02*
X168898000Y-95004000I75000J0D01*
G01*
X169048000Y-95004000D01*
G75*
G02*
X169123000Y-95079000I0J-75000D01*
G01*
X169123000Y-96429000D01*
G75*
G02*
X169048000Y-96504000I-75000J0D01*
G01*
G37*
G36*
G01*
X169548000Y-96504000D02*
X169398000Y-96504000D01*
G75*
G02*
X169323000Y-96429000I0J75000D01*
G01*
X169323000Y-95079000D01*
G75*
G02*
X169398000Y-95004000I75000J0D01*
G01*
X169548000Y-95004000D01*
G75*
G02*
X169623000Y-95079000I0J-75000D01*
G01*
X169623000Y-96429000D01*
G75*
G02*
X169548000Y-96504000I-75000J0D01*
G01*
G37*
G36*
G01*
X170048000Y-96504000D02*
X169898000Y-96504000D01*
G75*
G02*
X169823000Y-96429000I0J75000D01*
G01*
X169823000Y-95079000D01*
G75*
G02*
X169898000Y-95004000I75000J0D01*
G01*
X170048000Y-95004000D01*
G75*
G02*
X170123000Y-95079000I0J-75000D01*
G01*
X170123000Y-96429000D01*
G75*
G02*
X170048000Y-96504000I-75000J0D01*
G01*
G37*
G36*
G01*
X172073000Y-97329000D02*
X170723000Y-97329000D01*
G75*
G02*
X170648000Y-97254000I0J75000D01*
G01*
X170648000Y-97104000D01*
G75*
G02*
X170723000Y-97029000I75000J0D01*
G01*
X172073000Y-97029000D01*
G75*
G02*
X172148000Y-97104000I0J-75000D01*
G01*
X172148000Y-97254000D01*
G75*
G02*
X172073000Y-97329000I-75000J0D01*
G01*
G37*
G36*
G01*
X172073000Y-97829000D02*
X170723000Y-97829000D01*
G75*
G02*
X170648000Y-97754000I0J75000D01*
G01*
X170648000Y-97604000D01*
G75*
G02*
X170723000Y-97529000I75000J0D01*
G01*
X172073000Y-97529000D01*
G75*
G02*
X172148000Y-97604000I0J-75000D01*
G01*
X172148000Y-97754000D01*
G75*
G02*
X172073000Y-97829000I-75000J0D01*
G01*
G37*
G36*
G01*
X172073000Y-98329000D02*
X170723000Y-98329000D01*
G75*
G02*
X170648000Y-98254000I0J75000D01*
G01*
X170648000Y-98104000D01*
G75*
G02*
X170723000Y-98029000I75000J0D01*
G01*
X172073000Y-98029000D01*
G75*
G02*
X172148000Y-98104000I0J-75000D01*
G01*
X172148000Y-98254000D01*
G75*
G02*
X172073000Y-98329000I-75000J0D01*
G01*
G37*
G36*
G01*
X172073000Y-98829000D02*
X170723000Y-98829000D01*
G75*
G02*
X170648000Y-98754000I0J75000D01*
G01*
X170648000Y-98604000D01*
G75*
G02*
X170723000Y-98529000I75000J0D01*
G01*
X172073000Y-98529000D01*
G75*
G02*
X172148000Y-98604000I0J-75000D01*
G01*
X172148000Y-98754000D01*
G75*
G02*
X172073000Y-98829000I-75000J0D01*
G01*
G37*
G36*
G01*
X172073000Y-99329000D02*
X170723000Y-99329000D01*
G75*
G02*
X170648000Y-99254000I0J75000D01*
G01*
X170648000Y-99104000D01*
G75*
G02*
X170723000Y-99029000I75000J0D01*
G01*
X172073000Y-99029000D01*
G75*
G02*
X172148000Y-99104000I0J-75000D01*
G01*
X172148000Y-99254000D01*
G75*
G02*
X172073000Y-99329000I-75000J0D01*
G01*
G37*
G36*
G01*
X172073000Y-99829000D02*
X170723000Y-99829000D01*
G75*
G02*
X170648000Y-99754000I0J75000D01*
G01*
X170648000Y-99604000D01*
G75*
G02*
X170723000Y-99529000I75000J0D01*
G01*
X172073000Y-99529000D01*
G75*
G02*
X172148000Y-99604000I0J-75000D01*
G01*
X172148000Y-99754000D01*
G75*
G02*
X172073000Y-99829000I-75000J0D01*
G01*
G37*
G36*
G01*
X172073000Y-100329000D02*
X170723000Y-100329000D01*
G75*
G02*
X170648000Y-100254000I0J75000D01*
G01*
X170648000Y-100104000D01*
G75*
G02*
X170723000Y-100029000I75000J0D01*
G01*
X172073000Y-100029000D01*
G75*
G02*
X172148000Y-100104000I0J-75000D01*
G01*
X172148000Y-100254000D01*
G75*
G02*
X172073000Y-100329000I-75000J0D01*
G01*
G37*
G36*
G01*
X172073000Y-100829000D02*
X170723000Y-100829000D01*
G75*
G02*
X170648000Y-100754000I0J75000D01*
G01*
X170648000Y-100604000D01*
G75*
G02*
X170723000Y-100529000I75000J0D01*
G01*
X172073000Y-100529000D01*
G75*
G02*
X172148000Y-100604000I0J-75000D01*
G01*
X172148000Y-100754000D01*
G75*
G02*
X172073000Y-100829000I-75000J0D01*
G01*
G37*
G36*
G01*
X170048000Y-102854000D02*
X169898000Y-102854000D01*
G75*
G02*
X169823000Y-102779000I0J75000D01*
G01*
X169823000Y-101429000D01*
G75*
G02*
X169898000Y-101354000I75000J0D01*
G01*
X170048000Y-101354000D01*
G75*
G02*
X170123000Y-101429000I0J-75000D01*
G01*
X170123000Y-102779000D01*
G75*
G02*
X170048000Y-102854000I-75000J0D01*
G01*
G37*
G36*
G01*
X169548000Y-102854000D02*
X169398000Y-102854000D01*
G75*
G02*
X169323000Y-102779000I0J75000D01*
G01*
X169323000Y-101429000D01*
G75*
G02*
X169398000Y-101354000I75000J0D01*
G01*
X169548000Y-101354000D01*
G75*
G02*
X169623000Y-101429000I0J-75000D01*
G01*
X169623000Y-102779000D01*
G75*
G02*
X169548000Y-102854000I-75000J0D01*
G01*
G37*
G36*
G01*
X169048000Y-102854000D02*
X168898000Y-102854000D01*
G75*
G02*
X168823000Y-102779000I0J75000D01*
G01*
X168823000Y-101429000D01*
G75*
G02*
X168898000Y-101354000I75000J0D01*
G01*
X169048000Y-101354000D01*
G75*
G02*
X169123000Y-101429000I0J-75000D01*
G01*
X169123000Y-102779000D01*
G75*
G02*
X169048000Y-102854000I-75000J0D01*
G01*
G37*
G36*
G01*
X168548000Y-102854000D02*
X168398000Y-102854000D01*
G75*
G02*
X168323000Y-102779000I0J75000D01*
G01*
X168323000Y-101429000D01*
G75*
G02*
X168398000Y-101354000I75000J0D01*
G01*
X168548000Y-101354000D01*
G75*
G02*
X168623000Y-101429000I0J-75000D01*
G01*
X168623000Y-102779000D01*
G75*
G02*
X168548000Y-102854000I-75000J0D01*
G01*
G37*
G36*
G01*
X168048000Y-102854000D02*
X167898000Y-102854000D01*
G75*
G02*
X167823000Y-102779000I0J75000D01*
G01*
X167823000Y-101429000D01*
G75*
G02*
X167898000Y-101354000I75000J0D01*
G01*
X168048000Y-101354000D01*
G75*
G02*
X168123000Y-101429000I0J-75000D01*
G01*
X168123000Y-102779000D01*
G75*
G02*
X168048000Y-102854000I-75000J0D01*
G01*
G37*
G36*
G01*
X167548000Y-102854000D02*
X167398000Y-102854000D01*
G75*
G02*
X167323000Y-102779000I0J75000D01*
G01*
X167323000Y-101429000D01*
G75*
G02*
X167398000Y-101354000I75000J0D01*
G01*
X167548000Y-101354000D01*
G75*
G02*
X167623000Y-101429000I0J-75000D01*
G01*
X167623000Y-102779000D01*
G75*
G02*
X167548000Y-102854000I-75000J0D01*
G01*
G37*
G36*
G01*
X167048000Y-102854000D02*
X166898000Y-102854000D01*
G75*
G02*
X166823000Y-102779000I0J75000D01*
G01*
X166823000Y-101429000D01*
G75*
G02*
X166898000Y-101354000I75000J0D01*
G01*
X167048000Y-101354000D01*
G75*
G02*
X167123000Y-101429000I0J-75000D01*
G01*
X167123000Y-102779000D01*
G75*
G02*
X167048000Y-102854000I-75000J0D01*
G01*
G37*
G36*
G01*
X166548000Y-102854000D02*
X166398000Y-102854000D01*
G75*
G02*
X166323000Y-102779000I0J75000D01*
G01*
X166323000Y-101429000D01*
G75*
G02*
X166398000Y-101354000I75000J0D01*
G01*
X166548000Y-101354000D01*
G75*
G02*
X166623000Y-101429000I0J-75000D01*
G01*
X166623000Y-102779000D01*
G75*
G02*
X166548000Y-102854000I-75000J0D01*
G01*
G37*
G36*
G01*
X144274500Y-122697000D02*
X144274500Y-122197000D01*
G75*
G02*
X144499500Y-121972000I225000J0D01*
G01*
X144949500Y-121972000D01*
G75*
G02*
X145174500Y-122197000I0J-225000D01*
G01*
X145174500Y-122697000D01*
G75*
G02*
X144949500Y-122922000I-225000J0D01*
G01*
X144499500Y-122922000D01*
G75*
G02*
X144274500Y-122697000I0J225000D01*
G01*
G37*
G36*
G01*
X142724500Y-122697000D02*
X142724500Y-122197000D01*
G75*
G02*
X142949500Y-121972000I225000J0D01*
G01*
X143399500Y-121972000D01*
G75*
G02*
X143624500Y-122197000I0J-225000D01*
G01*
X143624500Y-122697000D01*
G75*
G02*
X143399500Y-122922000I-225000J0D01*
G01*
X142949500Y-122922000D01*
G75*
G02*
X142724500Y-122697000I0J225000D01*
G01*
G37*
G36*
G01*
X147321000Y-127548000D02*
X147321000Y-126998000D01*
G75*
G02*
X147521000Y-126798000I200000J0D01*
G01*
X147921000Y-126798000D01*
G75*
G02*
X148121000Y-126998000I0J-200000D01*
G01*
X148121000Y-127548000D01*
G75*
G02*
X147921000Y-127748000I-200000J0D01*
G01*
X147521000Y-127748000D01*
G75*
G02*
X147321000Y-127548000I0J200000D01*
G01*
G37*
G36*
G01*
X145671000Y-127548000D02*
X145671000Y-126998000D01*
G75*
G02*
X145871000Y-126798000I200000J0D01*
G01*
X146271000Y-126798000D01*
G75*
G02*
X146471000Y-126998000I0J-200000D01*
G01*
X146471000Y-127548000D01*
G75*
G02*
X146271000Y-127748000I-200000J0D01*
G01*
X145871000Y-127748000D01*
G75*
G02*
X145671000Y-127548000I0J200000D01*
G01*
G37*
G36*
G01*
X121225000Y-103425000D02*
X121225000Y-103975000D01*
G75*
G02*
X121025000Y-104175000I-200000J0D01*
G01*
X120625000Y-104175000D01*
G75*
G02*
X120425000Y-103975000I0J200000D01*
G01*
X120425000Y-103425000D01*
G75*
G02*
X120625000Y-103225000I200000J0D01*
G01*
X121025000Y-103225000D01*
G75*
G02*
X121225000Y-103425000I0J-200000D01*
G01*
G37*
G36*
G01*
X122875000Y-103425000D02*
X122875000Y-103975000D01*
G75*
G02*
X122675000Y-104175000I-200000J0D01*
G01*
X122275000Y-104175000D01*
G75*
G02*
X122075000Y-103975000I0J200000D01*
G01*
X122075000Y-103425000D01*
G75*
G02*
X122275000Y-103225000I200000J0D01*
G01*
X122675000Y-103225000D01*
G75*
G02*
X122875000Y-103425000I0J-200000D01*
G01*
G37*
G36*
G01*
X119625000Y-101775000D02*
X119625000Y-102325000D01*
G75*
G02*
X119425000Y-102525000I-200000J0D01*
G01*
X119025000Y-102525000D01*
G75*
G02*
X118825000Y-102325000I0J200000D01*
G01*
X118825000Y-101775000D01*
G75*
G02*
X119025000Y-101575000I200000J0D01*
G01*
X119425000Y-101575000D01*
G75*
G02*
X119625000Y-101775000I0J-200000D01*
G01*
G37*
G36*
G01*
X121275000Y-101775000D02*
X121275000Y-102325000D01*
G75*
G02*
X121075000Y-102525000I-200000J0D01*
G01*
X120675000Y-102525000D01*
G75*
G02*
X120475000Y-102325000I0J200000D01*
G01*
X120475000Y-101775000D01*
G75*
G02*
X120675000Y-101575000I200000J0D01*
G01*
X121075000Y-101575000D01*
G75*
G02*
X121275000Y-101775000I0J-200000D01*
G01*
G37*
G36*
G01*
X125325000Y-97800000D02*
X125325000Y-98300000D01*
G75*
G02*
X125100000Y-98525000I-225000J0D01*
G01*
X124650000Y-98525000D01*
G75*
G02*
X124425000Y-98300000I0J225000D01*
G01*
X124425000Y-97800000D01*
G75*
G02*
X124650000Y-97575000I225000J0D01*
G01*
X125100000Y-97575000D01*
G75*
G02*
X125325000Y-97800000I0J-225000D01*
G01*
G37*
G36*
G01*
X126875000Y-97800000D02*
X126875000Y-98300000D01*
G75*
G02*
X126650000Y-98525000I-225000J0D01*
G01*
X126200000Y-98525000D01*
G75*
G02*
X125975000Y-98300000I0J225000D01*
G01*
X125975000Y-97800000D01*
G75*
G02*
X126200000Y-97575000I225000J0D01*
G01*
X126650000Y-97575000D01*
G75*
G02*
X126875000Y-97800000I0J-225000D01*
G01*
G37*
D13*
X120869000Y-93967000D03*
X122969000Y-93967000D03*
G36*
G01*
X141394000Y-104050500D02*
X141894000Y-104050500D01*
G75*
G02*
X142119000Y-104275500I0J-225000D01*
G01*
X142119000Y-104725500D01*
G75*
G02*
X141894000Y-104950500I-225000J0D01*
G01*
X141394000Y-104950500D01*
G75*
G02*
X141169000Y-104725500I0J225000D01*
G01*
X141169000Y-104275500D01*
G75*
G02*
X141394000Y-104050500I225000J0D01*
G01*
G37*
G36*
G01*
X141394000Y-102500500D02*
X141894000Y-102500500D01*
G75*
G02*
X142119000Y-102725500I0J-225000D01*
G01*
X142119000Y-103175500D01*
G75*
G02*
X141894000Y-103400500I-225000J0D01*
G01*
X141394000Y-103400500D01*
G75*
G02*
X141169000Y-103175500I0J225000D01*
G01*
X141169000Y-102725500D01*
G75*
G02*
X141394000Y-102500500I225000J0D01*
G01*
G37*
D14*
X120569000Y-97672000D03*
X121219000Y-97672000D03*
X121879000Y-97672000D03*
X122529000Y-97672000D03*
X122529000Y-99872000D03*
X121879000Y-99872000D03*
X121219000Y-99872000D03*
X120569000Y-99872000D03*
D12*
X165750000Y-126200000D03*
X164800000Y-124200000D03*
X166700000Y-124200000D03*
D15*
X176736000Y-114624000D03*
X174836000Y-114624000D03*
X174836000Y-112424000D03*
X175786000Y-112424000D03*
X176736000Y-112424000D03*
G36*
G01*
X140551000Y-99822500D02*
X140001000Y-99822500D01*
G75*
G02*
X139801000Y-99622500I0J200000D01*
G01*
X139801000Y-99222500D01*
G75*
G02*
X140001000Y-99022500I200000J0D01*
G01*
X140551000Y-99022500D01*
G75*
G02*
X140751000Y-99222500I0J-200000D01*
G01*
X140751000Y-99622500D01*
G75*
G02*
X140551000Y-99822500I-200000J0D01*
G01*
G37*
G36*
G01*
X140551000Y-101472500D02*
X140001000Y-101472500D01*
G75*
G02*
X139801000Y-101272500I0J200000D01*
G01*
X139801000Y-100872500D01*
G75*
G02*
X140001000Y-100672500I200000J0D01*
G01*
X140551000Y-100672500D01*
G75*
G02*
X140751000Y-100872500I0J-200000D01*
G01*
X140751000Y-101272500D01*
G75*
G02*
X140551000Y-101472500I-200000J0D01*
G01*
G37*
G36*
G01*
X147293500Y-97598000D02*
X147293500Y-97048000D01*
G75*
G02*
X147493500Y-96848000I200000J0D01*
G01*
X147893500Y-96848000D01*
G75*
G02*
X148093500Y-97048000I0J-200000D01*
G01*
X148093500Y-97598000D01*
G75*
G02*
X147893500Y-97798000I-200000J0D01*
G01*
X147493500Y-97798000D01*
G75*
G02*
X147293500Y-97598000I0J200000D01*
G01*
G37*
G36*
G01*
X145643500Y-97598000D02*
X145643500Y-97048000D01*
G75*
G02*
X145843500Y-96848000I200000J0D01*
G01*
X146243500Y-96848000D01*
G75*
G02*
X146443500Y-97048000I0J-200000D01*
G01*
X146443500Y-97598000D01*
G75*
G02*
X146243500Y-97798000I-200000J0D01*
G01*
X145843500Y-97798000D01*
G75*
G02*
X145643500Y-97598000I0J200000D01*
G01*
G37*
G36*
G01*
X156608500Y-100980000D02*
X156608500Y-101530000D01*
G75*
G02*
X156408500Y-101730000I-200000J0D01*
G01*
X156008500Y-101730000D01*
G75*
G02*
X155808500Y-101530000I0J200000D01*
G01*
X155808500Y-100980000D01*
G75*
G02*
X156008500Y-100780000I200000J0D01*
G01*
X156408500Y-100780000D01*
G75*
G02*
X156608500Y-100980000I0J-200000D01*
G01*
G37*
G36*
G01*
X158258500Y-100980000D02*
X158258500Y-101530000D01*
G75*
G02*
X158058500Y-101730000I-200000J0D01*
G01*
X157658500Y-101730000D01*
G75*
G02*
X157458500Y-101530000I0J200000D01*
G01*
X157458500Y-100980000D01*
G75*
G02*
X157658500Y-100780000I200000J0D01*
G01*
X158058500Y-100780000D01*
G75*
G02*
X158258500Y-100980000I0J-200000D01*
G01*
G37*
G36*
G01*
X148784000Y-124836000D02*
X148784000Y-125136000D01*
G75*
G02*
X148634000Y-125286000I-150000J0D01*
G01*
X146984000Y-125286000D01*
G75*
G02*
X146834000Y-125136000I0J150000D01*
G01*
X146834000Y-124836000D01*
G75*
G02*
X146984000Y-124686000I150000J0D01*
G01*
X148634000Y-124686000D01*
G75*
G02*
X148784000Y-124836000I0J-150000D01*
G01*
G37*
G36*
G01*
X148784000Y-123566000D02*
X148784000Y-123866000D01*
G75*
G02*
X148634000Y-124016000I-150000J0D01*
G01*
X146984000Y-124016000D01*
G75*
G02*
X146834000Y-123866000I0J150000D01*
G01*
X146834000Y-123566000D01*
G75*
G02*
X146984000Y-123416000I150000J0D01*
G01*
X148634000Y-123416000D01*
G75*
G02*
X148784000Y-123566000I0J-150000D01*
G01*
G37*
G36*
G01*
X148784000Y-122296000D02*
X148784000Y-122596000D01*
G75*
G02*
X148634000Y-122746000I-150000J0D01*
G01*
X146984000Y-122746000D01*
G75*
G02*
X146834000Y-122596000I0J150000D01*
G01*
X146834000Y-122296000D01*
G75*
G02*
X146984000Y-122146000I150000J0D01*
G01*
X148634000Y-122146000D01*
G75*
G02*
X148784000Y-122296000I0J-150000D01*
G01*
G37*
G36*
G01*
X148784000Y-121026000D02*
X148784000Y-121326000D01*
G75*
G02*
X148634000Y-121476000I-150000J0D01*
G01*
X146984000Y-121476000D01*
G75*
G02*
X146834000Y-121326000I0J150000D01*
G01*
X146834000Y-121026000D01*
G75*
G02*
X146984000Y-120876000I150000J0D01*
G01*
X148634000Y-120876000D01*
G75*
G02*
X148784000Y-121026000I0J-150000D01*
G01*
G37*
G36*
G01*
X153734000Y-121026000D02*
X153734000Y-121326000D01*
G75*
G02*
X153584000Y-121476000I-150000J0D01*
G01*
X151934000Y-121476000D01*
G75*
G02*
X151784000Y-121326000I0J150000D01*
G01*
X151784000Y-121026000D01*
G75*
G02*
X151934000Y-120876000I150000J0D01*
G01*
X153584000Y-120876000D01*
G75*
G02*
X153734000Y-121026000I0J-150000D01*
G01*
G37*
G36*
G01*
X153734000Y-122296000D02*
X153734000Y-122596000D01*
G75*
G02*
X153584000Y-122746000I-150000J0D01*
G01*
X151934000Y-122746000D01*
G75*
G02*
X151784000Y-122596000I0J150000D01*
G01*
X151784000Y-122296000D01*
G75*
G02*
X151934000Y-122146000I150000J0D01*
G01*
X153584000Y-122146000D01*
G75*
G02*
X153734000Y-122296000I0J-150000D01*
G01*
G37*
G36*
G01*
X153734000Y-123566000D02*
X153734000Y-123866000D01*
G75*
G02*
X153584000Y-124016000I-150000J0D01*
G01*
X151934000Y-124016000D01*
G75*
G02*
X151784000Y-123866000I0J150000D01*
G01*
X151784000Y-123566000D01*
G75*
G02*
X151934000Y-123416000I150000J0D01*
G01*
X153584000Y-123416000D01*
G75*
G02*
X153734000Y-123566000I0J-150000D01*
G01*
G37*
G36*
G01*
X153734000Y-124836000D02*
X153734000Y-125136000D01*
G75*
G02*
X153584000Y-125286000I-150000J0D01*
G01*
X151934000Y-125286000D01*
G75*
G02*
X151784000Y-125136000I0J150000D01*
G01*
X151784000Y-124836000D01*
G75*
G02*
X151934000Y-124686000I150000J0D01*
G01*
X153584000Y-124686000D01*
G75*
G02*
X153734000Y-124836000I0J-150000D01*
G01*
G37*
G36*
G01*
X173800500Y-94344000D02*
X173800500Y-94894000D01*
G75*
G02*
X173600500Y-95094000I-200000J0D01*
G01*
X173200500Y-95094000D01*
G75*
G02*
X173000500Y-94894000I0J200000D01*
G01*
X173000500Y-94344000D01*
G75*
G02*
X173200500Y-94144000I200000J0D01*
G01*
X173600500Y-94144000D01*
G75*
G02*
X173800500Y-94344000I0J-200000D01*
G01*
G37*
G36*
G01*
X175450500Y-94344000D02*
X175450500Y-94894000D01*
G75*
G02*
X175250500Y-95094000I-200000J0D01*
G01*
X174850500Y-95094000D01*
G75*
G02*
X174650500Y-94894000I0J200000D01*
G01*
X174650500Y-94344000D01*
G75*
G02*
X174850500Y-94144000I200000J0D01*
G01*
X175250500Y-94144000D01*
G75*
G02*
X175450500Y-94344000I0J-200000D01*
G01*
G37*
G36*
G01*
X160853000Y-98831500D02*
X160353000Y-98831500D01*
G75*
G02*
X160128000Y-98606500I0J225000D01*
G01*
X160128000Y-98156500D01*
G75*
G02*
X160353000Y-97931500I225000J0D01*
G01*
X160853000Y-97931500D01*
G75*
G02*
X161078000Y-98156500I0J-225000D01*
G01*
X161078000Y-98606500D01*
G75*
G02*
X160853000Y-98831500I-225000J0D01*
G01*
G37*
G36*
G01*
X160853000Y-100381500D02*
X160353000Y-100381500D01*
G75*
G02*
X160128000Y-100156500I0J225000D01*
G01*
X160128000Y-99706500D01*
G75*
G02*
X160353000Y-99481500I225000J0D01*
G01*
X160853000Y-99481500D01*
G75*
G02*
X161078000Y-99706500I0J-225000D01*
G01*
X161078000Y-100156500D01*
G75*
G02*
X160853000Y-100381500I-225000J0D01*
G01*
G37*
G36*
G01*
X144600000Y-124800000D02*
X144050000Y-124800000D01*
G75*
G02*
X143850000Y-124600000I0J200000D01*
G01*
X143850000Y-124200000D01*
G75*
G02*
X144050000Y-124000000I200000J0D01*
G01*
X144600000Y-124000000D01*
G75*
G02*
X144800000Y-124200000I0J-200000D01*
G01*
X144800000Y-124600000D01*
G75*
G02*
X144600000Y-124800000I-200000J0D01*
G01*
G37*
G36*
G01*
X144600000Y-126450000D02*
X144050000Y-126450000D01*
G75*
G02*
X143850000Y-126250000I0J200000D01*
G01*
X143850000Y-125850000D01*
G75*
G02*
X144050000Y-125650000I200000J0D01*
G01*
X144600000Y-125650000D01*
G75*
G02*
X144800000Y-125850000I0J-200000D01*
G01*
X144800000Y-126250000D01*
G75*
G02*
X144600000Y-126450000I-200000J0D01*
G01*
G37*
G36*
G01*
X139925000Y-107175000D02*
X140475000Y-107175000D01*
G75*
G02*
X140675000Y-107375000I0J-200000D01*
G01*
X140675000Y-107775000D01*
G75*
G02*
X140475000Y-107975000I-200000J0D01*
G01*
X139925000Y-107975000D01*
G75*
G02*
X139725000Y-107775000I0J200000D01*
G01*
X139725000Y-107375000D01*
G75*
G02*
X139925000Y-107175000I200000J0D01*
G01*
G37*
G36*
G01*
X139925000Y-105525000D02*
X140475000Y-105525000D01*
G75*
G02*
X140675000Y-105725000I0J-200000D01*
G01*
X140675000Y-106125000D01*
G75*
G02*
X140475000Y-106325000I-200000J0D01*
G01*
X139925000Y-106325000D01*
G75*
G02*
X139725000Y-106125000I0J200000D01*
G01*
X139725000Y-105725000D01*
G75*
G02*
X139925000Y-105525000I200000J0D01*
G01*
G37*
M02*
