G04 #@! TF.GenerationSoftware,KiCad,Pcbnew,(5.1.5-0)*
G04 #@! TF.CreationDate,2020-09-28T19:51:32-07:00*
G04 #@! TF.ProjectId,Luminometer_ADC,4c756d69-6e6f-46d6-9574-65725f414443,rev?*
G04 #@! TF.SameCoordinates,Original*
G04 #@! TF.FileFunction,Copper,L3,Inr*
G04 #@! TF.FilePolarity,Positive*
%FSLAX46Y46*%
G04 Gerber Fmt 4.6, Leading zero omitted, Abs format (unit mm)*
G04 Created by KiCad (PCBNEW (5.1.5-0)) date 2020-09-28 19:51:32*
%MOMM*%
%LPD*%
G04 APERTURE LIST*
%ADD10C,1.350000*%
%ADD11C,6.400000*%
%ADD12C,0.800000*%
%ADD13C,2.200000*%
%ADD14C,0.254000*%
G04 APERTURE END LIST*
D10*
X160898000Y-88869000D03*
X172768000Y-88869000D03*
X172768000Y-83369000D03*
X160898000Y-83369000D03*
D11*
X175000000Y-125000000D03*
X120000000Y-125000000D03*
X120000000Y-85000000D03*
D12*
X170180000Y-111760000D03*
X166878000Y-103378000D03*
D13*
X165354000Y-85979000D03*
D12*
X176784000Y-111887000D03*
X173609000Y-100584000D03*
X167767000Y-117094000D03*
X152908000Y-121158000D03*
X147828000Y-120777000D03*
X134112000Y-122047000D03*
X141732000Y-126873000D03*
X161925000Y-125730000D03*
X156718000Y-124333000D03*
X155829000Y-115951000D03*
X134620000Y-103886000D03*
X145796000Y-102997000D03*
X164973000Y-102489000D03*
X128143000Y-112268000D03*
X146177000Y-112268000D03*
X127500000Y-103500000D03*
X166243000Y-120015000D03*
X172085000Y-106680000D03*
X140335000Y-102997000D03*
X170053000Y-81788000D03*
X173609000Y-98806000D03*
X168656000Y-85471000D03*
X158242000Y-100711000D03*
X147193000Y-96774000D03*
X138049000Y-96774000D03*
X137414000Y-118364000D03*
X163322000Y-112268000D03*
X140970000Y-101473000D03*
X141986000Y-102997000D03*
X157000000Y-111000000D03*
X142621000Y-123317000D03*
X153543000Y-126619000D03*
X136906000Y-100457000D03*
X136398000Y-105537000D03*
D14*
G36*
X179340001Y-120373000D02*
G01*
X170500000Y-120373000D01*
X170475224Y-120375440D01*
X170451399Y-120382667D01*
X170429443Y-120394403D01*
X170410197Y-120410197D01*
X170394403Y-120429443D01*
X170382667Y-120451399D01*
X170375440Y-120475224D01*
X170373000Y-120500000D01*
X170373000Y-129340000D01*
X125127000Y-129340000D01*
X125127000Y-126517061D01*
X152508000Y-126517061D01*
X152508000Y-126720939D01*
X152547774Y-126920898D01*
X152625795Y-127109256D01*
X152739063Y-127278774D01*
X152883226Y-127422937D01*
X153052744Y-127536205D01*
X153241102Y-127614226D01*
X153441061Y-127654000D01*
X153644939Y-127654000D01*
X153844898Y-127614226D01*
X154033256Y-127536205D01*
X154202774Y-127422937D01*
X154346937Y-127278774D01*
X154460205Y-127109256D01*
X154538226Y-126920898D01*
X154578000Y-126720939D01*
X154578000Y-126517061D01*
X154538226Y-126317102D01*
X154460205Y-126128744D01*
X154346937Y-125959226D01*
X154202774Y-125815063D01*
X154033256Y-125701795D01*
X153844898Y-125623774D01*
X153644939Y-125584000D01*
X153441061Y-125584000D01*
X153241102Y-125623774D01*
X153052744Y-125701795D01*
X152883226Y-125815063D01*
X152739063Y-125959226D01*
X152625795Y-126128744D01*
X152547774Y-126317102D01*
X152508000Y-126517061D01*
X125127000Y-126517061D01*
X125127000Y-123215061D01*
X141586000Y-123215061D01*
X141586000Y-123418939D01*
X141625774Y-123618898D01*
X141703795Y-123807256D01*
X141817063Y-123976774D01*
X141961226Y-124120937D01*
X142130744Y-124234205D01*
X142319102Y-124312226D01*
X142519061Y-124352000D01*
X142722939Y-124352000D01*
X142922898Y-124312226D01*
X143111256Y-124234205D01*
X143280774Y-124120937D01*
X143424937Y-123976774D01*
X143538205Y-123807256D01*
X143616226Y-123618898D01*
X143656000Y-123418939D01*
X143656000Y-123215061D01*
X143616226Y-123015102D01*
X143538205Y-122826744D01*
X143424937Y-122657226D01*
X143280774Y-122513063D01*
X143111256Y-122399795D01*
X142922898Y-122321774D01*
X142722939Y-122282000D01*
X142519061Y-122282000D01*
X142319102Y-122321774D01*
X142130744Y-122399795D01*
X141961226Y-122513063D01*
X141817063Y-122657226D01*
X141703795Y-122826744D01*
X141625774Y-123015102D01*
X141586000Y-123215061D01*
X125127000Y-123215061D01*
X125127000Y-120000000D01*
X125124560Y-119975224D01*
X125117333Y-119951399D01*
X125105597Y-119929443D01*
X125092154Y-119913061D01*
X165208000Y-119913061D01*
X165208000Y-120116939D01*
X165247774Y-120316898D01*
X165325795Y-120505256D01*
X165439063Y-120674774D01*
X165583226Y-120818937D01*
X165752744Y-120932205D01*
X165941102Y-121010226D01*
X166141061Y-121050000D01*
X166344939Y-121050000D01*
X166544898Y-121010226D01*
X166733256Y-120932205D01*
X166902774Y-120818937D01*
X167046937Y-120674774D01*
X167160205Y-120505256D01*
X167238226Y-120316898D01*
X167278000Y-120116939D01*
X167278000Y-119913061D01*
X167238226Y-119713102D01*
X167160205Y-119524744D01*
X167046937Y-119355226D01*
X166902774Y-119211063D01*
X166733256Y-119097795D01*
X166544898Y-119019774D01*
X166344939Y-118980000D01*
X166141061Y-118980000D01*
X165941102Y-119019774D01*
X165752744Y-119097795D01*
X165583226Y-119211063D01*
X165439063Y-119355226D01*
X165325795Y-119524744D01*
X165247774Y-119713102D01*
X165208000Y-119913061D01*
X125092154Y-119913061D01*
X125089803Y-119910197D01*
X125070557Y-119894403D01*
X125048601Y-119882667D01*
X125024776Y-119875440D01*
X124999810Y-119873000D01*
X115660000Y-119887010D01*
X115660000Y-118262061D01*
X136379000Y-118262061D01*
X136379000Y-118465939D01*
X136418774Y-118665898D01*
X136496795Y-118854256D01*
X136610063Y-119023774D01*
X136754226Y-119167937D01*
X136923744Y-119281205D01*
X137112102Y-119359226D01*
X137312061Y-119399000D01*
X137515939Y-119399000D01*
X137715898Y-119359226D01*
X137904256Y-119281205D01*
X138073774Y-119167937D01*
X138217937Y-119023774D01*
X138331205Y-118854256D01*
X138409226Y-118665898D01*
X138449000Y-118465939D01*
X138449000Y-118262061D01*
X138409226Y-118062102D01*
X138331205Y-117873744D01*
X138217937Y-117704226D01*
X138073774Y-117560063D01*
X137904256Y-117446795D01*
X137715898Y-117368774D01*
X137515939Y-117329000D01*
X137312061Y-117329000D01*
X137112102Y-117368774D01*
X136923744Y-117446795D01*
X136754226Y-117560063D01*
X136610063Y-117704226D01*
X136496795Y-117873744D01*
X136418774Y-118062102D01*
X136379000Y-118262061D01*
X115660000Y-118262061D01*
X115660000Y-113314344D01*
X140615000Y-113314344D01*
X140615000Y-113685656D01*
X140687439Y-114049834D01*
X140829534Y-114392882D01*
X141035825Y-114701618D01*
X141298382Y-114964175D01*
X141607118Y-115170466D01*
X141950166Y-115312561D01*
X142314344Y-115385000D01*
X142685656Y-115385000D01*
X143049834Y-115312561D01*
X143392882Y-115170466D01*
X143701618Y-114964175D01*
X143964175Y-114701618D01*
X144170466Y-114392882D01*
X144312561Y-114049834D01*
X144385000Y-113685656D01*
X144385000Y-113314344D01*
X144312561Y-112950166D01*
X144170466Y-112607118D01*
X143964175Y-112298382D01*
X143831854Y-112166061D01*
X162287000Y-112166061D01*
X162287000Y-112369939D01*
X162326774Y-112569898D01*
X162404795Y-112758256D01*
X162518063Y-112927774D01*
X162662226Y-113071937D01*
X162831744Y-113185205D01*
X163020102Y-113263226D01*
X163220061Y-113303000D01*
X163423939Y-113303000D01*
X163623898Y-113263226D01*
X163812256Y-113185205D01*
X163981774Y-113071937D01*
X164125937Y-112927774D01*
X164239205Y-112758256D01*
X164317226Y-112569898D01*
X164357000Y-112369939D01*
X164357000Y-112166061D01*
X164317226Y-111966102D01*
X164239205Y-111777744D01*
X164125937Y-111608226D01*
X163981774Y-111464063D01*
X163812256Y-111350795D01*
X163623898Y-111272774D01*
X163423939Y-111233000D01*
X163220061Y-111233000D01*
X163020102Y-111272774D01*
X162831744Y-111350795D01*
X162662226Y-111464063D01*
X162518063Y-111608226D01*
X162404795Y-111777744D01*
X162326774Y-111966102D01*
X162287000Y-112166061D01*
X143831854Y-112166061D01*
X143701618Y-112035825D01*
X143392882Y-111829534D01*
X143049834Y-111687439D01*
X142685656Y-111615000D01*
X142314344Y-111615000D01*
X141950166Y-111687439D01*
X141607118Y-111829534D01*
X141298382Y-112035825D01*
X141035825Y-112298382D01*
X140829534Y-112607118D01*
X140687439Y-112950166D01*
X140615000Y-113314344D01*
X115660000Y-113314344D01*
X115660000Y-110898061D01*
X155965000Y-110898061D01*
X155965000Y-111101939D01*
X156004774Y-111301898D01*
X156082795Y-111490256D01*
X156196063Y-111659774D01*
X156340226Y-111803937D01*
X156509744Y-111917205D01*
X156698102Y-111995226D01*
X156898061Y-112035000D01*
X157101939Y-112035000D01*
X157301898Y-111995226D01*
X157490256Y-111917205D01*
X157659774Y-111803937D01*
X157803937Y-111659774D01*
X157917205Y-111490256D01*
X157995226Y-111301898D01*
X158035000Y-111101939D01*
X158035000Y-110898061D01*
X157995226Y-110698102D01*
X157917205Y-110509744D01*
X157803937Y-110340226D01*
X157659774Y-110196063D01*
X157490256Y-110082795D01*
X157301898Y-110004774D01*
X157101939Y-109965000D01*
X156898061Y-109965000D01*
X156698102Y-110004774D01*
X156509744Y-110082795D01*
X156340226Y-110196063D01*
X156196063Y-110340226D01*
X156082795Y-110509744D01*
X156004774Y-110698102D01*
X155965000Y-110898061D01*
X115660000Y-110898061D01*
X115660000Y-106578061D01*
X171050000Y-106578061D01*
X171050000Y-106781939D01*
X171089774Y-106981898D01*
X171167795Y-107170256D01*
X171281063Y-107339774D01*
X171425226Y-107483937D01*
X171594744Y-107597205D01*
X171783102Y-107675226D01*
X171983061Y-107715000D01*
X172186939Y-107715000D01*
X172386898Y-107675226D01*
X172575256Y-107597205D01*
X172744774Y-107483937D01*
X172888937Y-107339774D01*
X173002205Y-107170256D01*
X173080226Y-106981898D01*
X173120000Y-106781939D01*
X173120000Y-106578061D01*
X173080226Y-106378102D01*
X173002205Y-106189744D01*
X172888937Y-106020226D01*
X172744774Y-105876063D01*
X172575256Y-105762795D01*
X172386898Y-105684774D01*
X172186939Y-105645000D01*
X171983061Y-105645000D01*
X171783102Y-105684774D01*
X171594744Y-105762795D01*
X171425226Y-105876063D01*
X171281063Y-106020226D01*
X171167795Y-106189744D01*
X171089774Y-106378102D01*
X171050000Y-106578061D01*
X115660000Y-106578061D01*
X115660000Y-105435061D01*
X135363000Y-105435061D01*
X135363000Y-105638939D01*
X135402774Y-105838898D01*
X135480795Y-106027256D01*
X135594063Y-106196774D01*
X135738226Y-106340937D01*
X135907744Y-106454205D01*
X136096102Y-106532226D01*
X136296061Y-106572000D01*
X136499939Y-106572000D01*
X136699898Y-106532226D01*
X136888256Y-106454205D01*
X137057774Y-106340937D01*
X137201937Y-106196774D01*
X137315205Y-106027256D01*
X137393226Y-105838898D01*
X137433000Y-105638939D01*
X137433000Y-105435061D01*
X137393226Y-105235102D01*
X137315205Y-105046744D01*
X137201937Y-104877226D01*
X137057774Y-104733063D01*
X136888256Y-104619795D01*
X136699898Y-104541774D01*
X136499939Y-104502000D01*
X136296061Y-104502000D01*
X136096102Y-104541774D01*
X135907744Y-104619795D01*
X135738226Y-104733063D01*
X135594063Y-104877226D01*
X135480795Y-105046744D01*
X135402774Y-105235102D01*
X135363000Y-105435061D01*
X115660000Y-105435061D01*
X115660000Y-102895061D01*
X139300000Y-102895061D01*
X139300000Y-103098939D01*
X139339774Y-103298898D01*
X139417795Y-103487256D01*
X139531063Y-103656774D01*
X139675226Y-103800937D01*
X139844744Y-103914205D01*
X140033102Y-103992226D01*
X140233061Y-104032000D01*
X140436939Y-104032000D01*
X140636898Y-103992226D01*
X140825256Y-103914205D01*
X140994774Y-103800937D01*
X141138937Y-103656774D01*
X141160500Y-103624503D01*
X141182063Y-103656774D01*
X141326226Y-103800937D01*
X141495744Y-103914205D01*
X141684102Y-103992226D01*
X141884061Y-104032000D01*
X142087939Y-104032000D01*
X142287898Y-103992226D01*
X142476256Y-103914205D01*
X142645774Y-103800937D01*
X142789937Y-103656774D01*
X142903205Y-103487256D01*
X142981226Y-103298898D01*
X143021000Y-103098939D01*
X143021000Y-102895061D01*
X142981226Y-102695102D01*
X142903205Y-102506744D01*
X142789937Y-102337226D01*
X142645774Y-102193063D01*
X142476256Y-102079795D01*
X142287898Y-102001774D01*
X142087939Y-101962000D01*
X141887725Y-101962000D01*
X141965226Y-101774898D01*
X142005000Y-101574939D01*
X142005000Y-101371061D01*
X141965226Y-101171102D01*
X141887205Y-100982744D01*
X141773937Y-100813226D01*
X141629774Y-100669063D01*
X141539975Y-100609061D01*
X157207000Y-100609061D01*
X157207000Y-100812939D01*
X157246774Y-101012898D01*
X157324795Y-101201256D01*
X157438063Y-101370774D01*
X157582226Y-101514937D01*
X157751744Y-101628205D01*
X157940102Y-101706226D01*
X158140061Y-101746000D01*
X158343939Y-101746000D01*
X158543898Y-101706226D01*
X158732256Y-101628205D01*
X158901774Y-101514937D01*
X159045937Y-101370774D01*
X159159205Y-101201256D01*
X159237226Y-101012898D01*
X159277000Y-100812939D01*
X159277000Y-100609061D01*
X159237226Y-100409102D01*
X159159205Y-100220744D01*
X159045937Y-100051226D01*
X158901774Y-99907063D01*
X158732256Y-99793795D01*
X158543898Y-99715774D01*
X158343939Y-99676000D01*
X158140061Y-99676000D01*
X157940102Y-99715774D01*
X157751744Y-99793795D01*
X157582226Y-99907063D01*
X157438063Y-100051226D01*
X157324795Y-100220744D01*
X157246774Y-100409102D01*
X157207000Y-100609061D01*
X141539975Y-100609061D01*
X141460256Y-100555795D01*
X141271898Y-100477774D01*
X141071939Y-100438000D01*
X140868061Y-100438000D01*
X140668102Y-100477774D01*
X140479744Y-100555795D01*
X140310226Y-100669063D01*
X140166063Y-100813226D01*
X140052795Y-100982744D01*
X139974774Y-101171102D01*
X139935000Y-101371061D01*
X139935000Y-101574939D01*
X139974774Y-101774898D01*
X140052795Y-101963256D01*
X140073202Y-101993798D01*
X140033102Y-102001774D01*
X139844744Y-102079795D01*
X139675226Y-102193063D01*
X139531063Y-102337226D01*
X139417795Y-102506744D01*
X139339774Y-102695102D01*
X139300000Y-102895061D01*
X115660000Y-102895061D01*
X115660000Y-100355061D01*
X135871000Y-100355061D01*
X135871000Y-100558939D01*
X135910774Y-100758898D01*
X135988795Y-100947256D01*
X136102063Y-101116774D01*
X136246226Y-101260937D01*
X136415744Y-101374205D01*
X136604102Y-101452226D01*
X136804061Y-101492000D01*
X137007939Y-101492000D01*
X137207898Y-101452226D01*
X137396256Y-101374205D01*
X137565774Y-101260937D01*
X137709937Y-101116774D01*
X137823205Y-100947256D01*
X137901226Y-100758898D01*
X137941000Y-100558939D01*
X137941000Y-100355061D01*
X137901226Y-100155102D01*
X137823205Y-99966744D01*
X137709937Y-99797226D01*
X137565774Y-99653063D01*
X137396256Y-99539795D01*
X137207898Y-99461774D01*
X137007939Y-99422000D01*
X136804061Y-99422000D01*
X136604102Y-99461774D01*
X136415744Y-99539795D01*
X136246226Y-99653063D01*
X136102063Y-99797226D01*
X135988795Y-99966744D01*
X135910774Y-100155102D01*
X135871000Y-100355061D01*
X115660000Y-100355061D01*
X115660000Y-98704061D01*
X172574000Y-98704061D01*
X172574000Y-98907939D01*
X172613774Y-99107898D01*
X172691795Y-99296256D01*
X172805063Y-99465774D01*
X172949226Y-99609937D01*
X173118744Y-99723205D01*
X173307102Y-99801226D01*
X173507061Y-99841000D01*
X173710939Y-99841000D01*
X173910898Y-99801226D01*
X174099256Y-99723205D01*
X174268774Y-99609937D01*
X174412937Y-99465774D01*
X174526205Y-99296256D01*
X174604226Y-99107898D01*
X174644000Y-98907939D01*
X174644000Y-98704061D01*
X174604226Y-98504102D01*
X174526205Y-98315744D01*
X174412937Y-98146226D01*
X174268774Y-98002063D01*
X174099256Y-97888795D01*
X173910898Y-97810774D01*
X173710939Y-97771000D01*
X173507061Y-97771000D01*
X173307102Y-97810774D01*
X173118744Y-97888795D01*
X172949226Y-98002063D01*
X172805063Y-98146226D01*
X172691795Y-98315744D01*
X172613774Y-98504102D01*
X172574000Y-98704061D01*
X115660000Y-98704061D01*
X115660000Y-96672061D01*
X137014000Y-96672061D01*
X137014000Y-96875939D01*
X137053774Y-97075898D01*
X137131795Y-97264256D01*
X137245063Y-97433774D01*
X137389226Y-97577937D01*
X137558744Y-97691205D01*
X137747102Y-97769226D01*
X137947061Y-97809000D01*
X138150939Y-97809000D01*
X138350898Y-97769226D01*
X138539256Y-97691205D01*
X138708774Y-97577937D01*
X138852937Y-97433774D01*
X138966205Y-97264256D01*
X139044226Y-97075898D01*
X139084000Y-96875939D01*
X139084000Y-96672061D01*
X146158000Y-96672061D01*
X146158000Y-96875939D01*
X146197774Y-97075898D01*
X146275795Y-97264256D01*
X146389063Y-97433774D01*
X146533226Y-97577937D01*
X146702744Y-97691205D01*
X146891102Y-97769226D01*
X147091061Y-97809000D01*
X147294939Y-97809000D01*
X147494898Y-97769226D01*
X147683256Y-97691205D01*
X147852774Y-97577937D01*
X147996937Y-97433774D01*
X148110205Y-97264256D01*
X148188226Y-97075898D01*
X148228000Y-96875939D01*
X148228000Y-96672061D01*
X148188226Y-96472102D01*
X148110205Y-96283744D01*
X147996937Y-96114226D01*
X147852774Y-95970063D01*
X147683256Y-95856795D01*
X147494898Y-95778774D01*
X147294939Y-95739000D01*
X147091061Y-95739000D01*
X146891102Y-95778774D01*
X146702744Y-95856795D01*
X146533226Y-95970063D01*
X146389063Y-96114226D01*
X146275795Y-96283744D01*
X146197774Y-96472102D01*
X146158000Y-96672061D01*
X139084000Y-96672061D01*
X139044226Y-96472102D01*
X138966205Y-96283744D01*
X138852937Y-96114226D01*
X138708774Y-95970063D01*
X138539256Y-95856795D01*
X138350898Y-95778774D01*
X138150939Y-95739000D01*
X137947061Y-95739000D01*
X137747102Y-95778774D01*
X137558744Y-95856795D01*
X137389226Y-95970063D01*
X137245063Y-96114226D01*
X137131795Y-96283744D01*
X137053774Y-96472102D01*
X137014000Y-96672061D01*
X115660000Y-96672061D01*
X115660000Y-90127000D01*
X125000000Y-90127000D01*
X125024776Y-90124560D01*
X125048601Y-90117333D01*
X125070557Y-90105597D01*
X125089803Y-90089803D01*
X125105597Y-90070557D01*
X125117333Y-90048601D01*
X125124560Y-90024776D01*
X125127000Y-90000000D01*
X125127000Y-89829117D01*
X136765000Y-89829117D01*
X136765000Y-90170883D01*
X136831675Y-90506081D01*
X136962463Y-90821831D01*
X137152337Y-91105998D01*
X137394002Y-91347663D01*
X137678169Y-91537537D01*
X137993919Y-91668325D01*
X138329117Y-91735000D01*
X138670883Y-91735000D01*
X139006081Y-91668325D01*
X139321831Y-91537537D01*
X139605998Y-91347663D01*
X139847663Y-91105998D01*
X140037537Y-90821831D01*
X140168325Y-90506081D01*
X140235000Y-90170883D01*
X140235000Y-89829117D01*
X144765000Y-89829117D01*
X144765000Y-90170883D01*
X144831675Y-90506081D01*
X144962463Y-90821831D01*
X145152337Y-91105998D01*
X145394002Y-91347663D01*
X145678169Y-91537537D01*
X145993919Y-91668325D01*
X146329117Y-91735000D01*
X146670883Y-91735000D01*
X147006081Y-91668325D01*
X147321831Y-91537537D01*
X147605998Y-91347663D01*
X147847663Y-91105998D01*
X148037537Y-90821831D01*
X148168325Y-90506081D01*
X148235000Y-90170883D01*
X148235000Y-89829117D01*
X148168325Y-89493919D01*
X148037537Y-89178169D01*
X147847663Y-88894002D01*
X147693637Y-88739976D01*
X159588000Y-88739976D01*
X159588000Y-88998024D01*
X159638342Y-89251113D01*
X159737093Y-89489518D01*
X159880456Y-89704077D01*
X160062923Y-89886544D01*
X160277482Y-90029907D01*
X160515887Y-90128658D01*
X160768976Y-90179000D01*
X161027024Y-90179000D01*
X161280113Y-90128658D01*
X161518518Y-90029907D01*
X161733077Y-89886544D01*
X161915544Y-89704077D01*
X162058907Y-89489518D01*
X162157658Y-89251113D01*
X162208000Y-88998024D01*
X162208000Y-88739976D01*
X171458000Y-88739976D01*
X171458000Y-88998024D01*
X171508342Y-89251113D01*
X171607093Y-89489518D01*
X171750456Y-89704077D01*
X171932923Y-89886544D01*
X172147482Y-90029907D01*
X172385887Y-90128658D01*
X172638976Y-90179000D01*
X172897024Y-90179000D01*
X173150113Y-90128658D01*
X173388518Y-90029907D01*
X173603077Y-89886544D01*
X173785544Y-89704077D01*
X173928907Y-89489518D01*
X174027658Y-89251113D01*
X174078000Y-88998024D01*
X174078000Y-88739976D01*
X174027658Y-88486887D01*
X173928907Y-88248482D01*
X173785544Y-88033923D01*
X173603077Y-87851456D01*
X173388518Y-87708093D01*
X173150113Y-87609342D01*
X172897024Y-87559000D01*
X172638976Y-87559000D01*
X172385887Y-87609342D01*
X172147482Y-87708093D01*
X171932923Y-87851456D01*
X171750456Y-88033923D01*
X171607093Y-88248482D01*
X171508342Y-88486887D01*
X171458000Y-88739976D01*
X162208000Y-88739976D01*
X162157658Y-88486887D01*
X162058907Y-88248482D01*
X161915544Y-88033923D01*
X161733077Y-87851456D01*
X161518518Y-87708093D01*
X161280113Y-87609342D01*
X161027024Y-87559000D01*
X160768976Y-87559000D01*
X160515887Y-87609342D01*
X160277482Y-87708093D01*
X160062923Y-87851456D01*
X159880456Y-88033923D01*
X159737093Y-88248482D01*
X159638342Y-88486887D01*
X159588000Y-88739976D01*
X147693637Y-88739976D01*
X147605998Y-88652337D01*
X147321831Y-88462463D01*
X147006081Y-88331675D01*
X146670883Y-88265000D01*
X146329117Y-88265000D01*
X145993919Y-88331675D01*
X145678169Y-88462463D01*
X145394002Y-88652337D01*
X145152337Y-88894002D01*
X144962463Y-89178169D01*
X144831675Y-89493919D01*
X144765000Y-89829117D01*
X140235000Y-89829117D01*
X140168325Y-89493919D01*
X140037537Y-89178169D01*
X139847663Y-88894002D01*
X139605998Y-88652337D01*
X139321831Y-88462463D01*
X139006081Y-88331675D01*
X138670883Y-88265000D01*
X138329117Y-88265000D01*
X137993919Y-88331675D01*
X137678169Y-88462463D01*
X137394002Y-88652337D01*
X137152337Y-88894002D01*
X136962463Y-89178169D01*
X136831675Y-89493919D01*
X136765000Y-89829117D01*
X125127000Y-89829117D01*
X125127000Y-84814344D01*
X131615000Y-84814344D01*
X131615000Y-85185656D01*
X131687439Y-85549834D01*
X131829534Y-85892882D01*
X132035825Y-86201618D01*
X132298382Y-86464175D01*
X132607118Y-86670466D01*
X132950166Y-86812561D01*
X133314344Y-86885000D01*
X133685656Y-86885000D01*
X134049834Y-86812561D01*
X134392882Y-86670466D01*
X134701618Y-86464175D01*
X134964175Y-86201618D01*
X135170466Y-85892882D01*
X135312561Y-85549834D01*
X135385000Y-85185656D01*
X135385000Y-84814344D01*
X149615000Y-84814344D01*
X149615000Y-85185656D01*
X149687439Y-85549834D01*
X149829534Y-85892882D01*
X150035825Y-86201618D01*
X150298382Y-86464175D01*
X150607118Y-86670466D01*
X150950166Y-86812561D01*
X151314344Y-86885000D01*
X151685656Y-86885000D01*
X152049834Y-86812561D01*
X152392882Y-86670466D01*
X152701618Y-86464175D01*
X152964175Y-86201618D01*
X153113815Y-85977665D01*
X160013000Y-85977665D01*
X160013000Y-86260335D01*
X160068147Y-86537574D01*
X160176320Y-86798727D01*
X160333363Y-87033759D01*
X160533241Y-87233637D01*
X160768273Y-87390680D01*
X161029426Y-87498853D01*
X161306665Y-87554000D01*
X161589335Y-87554000D01*
X161866574Y-87498853D01*
X162127727Y-87390680D01*
X162362759Y-87233637D01*
X162562637Y-87033759D01*
X162719680Y-86798727D01*
X162827853Y-86537574D01*
X162883000Y-86260335D01*
X162883000Y-85977665D01*
X162827853Y-85700426D01*
X162719680Y-85439273D01*
X162672766Y-85369061D01*
X167621000Y-85369061D01*
X167621000Y-85572939D01*
X167660774Y-85772898D01*
X167738795Y-85961256D01*
X167852063Y-86130774D01*
X167996226Y-86274937D01*
X168165744Y-86388205D01*
X168354102Y-86466226D01*
X168554061Y-86506000D01*
X168757939Y-86506000D01*
X168957898Y-86466226D01*
X169146256Y-86388205D01*
X169315774Y-86274937D01*
X169459937Y-86130774D01*
X169562240Y-85977665D01*
X170783000Y-85977665D01*
X170783000Y-86260335D01*
X170838147Y-86537574D01*
X170946320Y-86798727D01*
X171103363Y-87033759D01*
X171303241Y-87233637D01*
X171538273Y-87390680D01*
X171799426Y-87498853D01*
X172076665Y-87554000D01*
X172359335Y-87554000D01*
X172636574Y-87498853D01*
X172897727Y-87390680D01*
X173132759Y-87233637D01*
X173332637Y-87033759D01*
X173489680Y-86798727D01*
X173597853Y-86537574D01*
X173653000Y-86260335D01*
X173653000Y-85977665D01*
X173597853Y-85700426D01*
X173489680Y-85439273D01*
X173332637Y-85204241D01*
X173132759Y-85004363D01*
X172897727Y-84847320D01*
X172636574Y-84739147D01*
X172359335Y-84684000D01*
X172076665Y-84684000D01*
X171799426Y-84739147D01*
X171538273Y-84847320D01*
X171303241Y-85004363D01*
X171103363Y-85204241D01*
X170946320Y-85439273D01*
X170838147Y-85700426D01*
X170783000Y-85977665D01*
X169562240Y-85977665D01*
X169573205Y-85961256D01*
X169651226Y-85772898D01*
X169691000Y-85572939D01*
X169691000Y-85369061D01*
X169651226Y-85169102D01*
X169573205Y-84980744D01*
X169459937Y-84811226D01*
X169315774Y-84667063D01*
X169146256Y-84553795D01*
X168957898Y-84475774D01*
X168757939Y-84436000D01*
X168554061Y-84436000D01*
X168354102Y-84475774D01*
X168165744Y-84553795D01*
X167996226Y-84667063D01*
X167852063Y-84811226D01*
X167738795Y-84980744D01*
X167660774Y-85169102D01*
X167621000Y-85369061D01*
X162672766Y-85369061D01*
X162562637Y-85204241D01*
X162362759Y-85004363D01*
X162127727Y-84847320D01*
X161866574Y-84739147D01*
X161589335Y-84684000D01*
X161306665Y-84684000D01*
X161029426Y-84739147D01*
X160768273Y-84847320D01*
X160533241Y-85004363D01*
X160333363Y-85204241D01*
X160176320Y-85439273D01*
X160068147Y-85700426D01*
X160013000Y-85977665D01*
X153113815Y-85977665D01*
X153170466Y-85892882D01*
X153312561Y-85549834D01*
X153385000Y-85185656D01*
X153385000Y-84814344D01*
X153312561Y-84450166D01*
X153170466Y-84107118D01*
X152964175Y-83798382D01*
X152701618Y-83535825D01*
X152392882Y-83329534D01*
X152176670Y-83239976D01*
X159588000Y-83239976D01*
X159588000Y-83498024D01*
X159638342Y-83751113D01*
X159737093Y-83989518D01*
X159880456Y-84204077D01*
X160062923Y-84386544D01*
X160277482Y-84529907D01*
X160515887Y-84628658D01*
X160768976Y-84679000D01*
X161027024Y-84679000D01*
X161280113Y-84628658D01*
X161518518Y-84529907D01*
X161733077Y-84386544D01*
X161915544Y-84204077D01*
X162058907Y-83989518D01*
X162157658Y-83751113D01*
X162208000Y-83498024D01*
X162208000Y-83239976D01*
X171458000Y-83239976D01*
X171458000Y-83498024D01*
X171508342Y-83751113D01*
X171607093Y-83989518D01*
X171750456Y-84204077D01*
X171932923Y-84386544D01*
X172147482Y-84529907D01*
X172385887Y-84628658D01*
X172638976Y-84679000D01*
X172897024Y-84679000D01*
X173150113Y-84628658D01*
X173388518Y-84529907D01*
X173603077Y-84386544D01*
X173785544Y-84204077D01*
X173928907Y-83989518D01*
X174027658Y-83751113D01*
X174078000Y-83498024D01*
X174078000Y-83239976D01*
X174027658Y-82986887D01*
X173928907Y-82748482D01*
X173785544Y-82533923D01*
X173603077Y-82351456D01*
X173388518Y-82208093D01*
X173150113Y-82109342D01*
X172897024Y-82059000D01*
X172638976Y-82059000D01*
X172385887Y-82109342D01*
X172147482Y-82208093D01*
X171932923Y-82351456D01*
X171750456Y-82533923D01*
X171607093Y-82748482D01*
X171508342Y-82986887D01*
X171458000Y-83239976D01*
X162208000Y-83239976D01*
X162157658Y-82986887D01*
X162058907Y-82748482D01*
X161915544Y-82533923D01*
X161733077Y-82351456D01*
X161518518Y-82208093D01*
X161280113Y-82109342D01*
X161027024Y-82059000D01*
X160768976Y-82059000D01*
X160515887Y-82109342D01*
X160277482Y-82208093D01*
X160062923Y-82351456D01*
X159880456Y-82533923D01*
X159737093Y-82748482D01*
X159638342Y-82986887D01*
X159588000Y-83239976D01*
X152176670Y-83239976D01*
X152049834Y-83187439D01*
X151685656Y-83115000D01*
X151314344Y-83115000D01*
X150950166Y-83187439D01*
X150607118Y-83329534D01*
X150298382Y-83535825D01*
X150035825Y-83798382D01*
X149829534Y-84107118D01*
X149687439Y-84450166D01*
X149615000Y-84814344D01*
X135385000Y-84814344D01*
X135312561Y-84450166D01*
X135170466Y-84107118D01*
X134964175Y-83798382D01*
X134701618Y-83535825D01*
X134392882Y-83329534D01*
X134049834Y-83187439D01*
X133685656Y-83115000D01*
X133314344Y-83115000D01*
X132950166Y-83187439D01*
X132607118Y-83329534D01*
X132298382Y-83535825D01*
X132035825Y-83798382D01*
X131829534Y-84107118D01*
X131687439Y-84450166D01*
X131615000Y-84814344D01*
X125127000Y-84814344D01*
X125127000Y-81686061D01*
X169018000Y-81686061D01*
X169018000Y-81889939D01*
X169057774Y-82089898D01*
X169135795Y-82278256D01*
X169249063Y-82447774D01*
X169393226Y-82591937D01*
X169562744Y-82705205D01*
X169751102Y-82783226D01*
X169951061Y-82823000D01*
X170154939Y-82823000D01*
X170354898Y-82783226D01*
X170543256Y-82705205D01*
X170712774Y-82591937D01*
X170856937Y-82447774D01*
X170970205Y-82278256D01*
X171048226Y-82089898D01*
X171088000Y-81889939D01*
X171088000Y-81686061D01*
X171048226Y-81486102D01*
X170970205Y-81297744D01*
X170856937Y-81128226D01*
X170712774Y-80984063D01*
X170543256Y-80870795D01*
X170354898Y-80792774D01*
X170154939Y-80753000D01*
X169951061Y-80753000D01*
X169751102Y-80792774D01*
X169562744Y-80870795D01*
X169393226Y-80984063D01*
X169249063Y-81128226D01*
X169135795Y-81297744D01*
X169057774Y-81486102D01*
X169018000Y-81686061D01*
X125127000Y-81686061D01*
X125127000Y-80660000D01*
X179340000Y-80660000D01*
X179340001Y-120373000D01*
G37*
X179340001Y-120373000D02*
X170500000Y-120373000D01*
X170475224Y-120375440D01*
X170451399Y-120382667D01*
X170429443Y-120394403D01*
X170410197Y-120410197D01*
X170394403Y-120429443D01*
X170382667Y-120451399D01*
X170375440Y-120475224D01*
X170373000Y-120500000D01*
X170373000Y-129340000D01*
X125127000Y-129340000D01*
X125127000Y-126517061D01*
X152508000Y-126517061D01*
X152508000Y-126720939D01*
X152547774Y-126920898D01*
X152625795Y-127109256D01*
X152739063Y-127278774D01*
X152883226Y-127422937D01*
X153052744Y-127536205D01*
X153241102Y-127614226D01*
X153441061Y-127654000D01*
X153644939Y-127654000D01*
X153844898Y-127614226D01*
X154033256Y-127536205D01*
X154202774Y-127422937D01*
X154346937Y-127278774D01*
X154460205Y-127109256D01*
X154538226Y-126920898D01*
X154578000Y-126720939D01*
X154578000Y-126517061D01*
X154538226Y-126317102D01*
X154460205Y-126128744D01*
X154346937Y-125959226D01*
X154202774Y-125815063D01*
X154033256Y-125701795D01*
X153844898Y-125623774D01*
X153644939Y-125584000D01*
X153441061Y-125584000D01*
X153241102Y-125623774D01*
X153052744Y-125701795D01*
X152883226Y-125815063D01*
X152739063Y-125959226D01*
X152625795Y-126128744D01*
X152547774Y-126317102D01*
X152508000Y-126517061D01*
X125127000Y-126517061D01*
X125127000Y-123215061D01*
X141586000Y-123215061D01*
X141586000Y-123418939D01*
X141625774Y-123618898D01*
X141703795Y-123807256D01*
X141817063Y-123976774D01*
X141961226Y-124120937D01*
X142130744Y-124234205D01*
X142319102Y-124312226D01*
X142519061Y-124352000D01*
X142722939Y-124352000D01*
X142922898Y-124312226D01*
X143111256Y-124234205D01*
X143280774Y-124120937D01*
X143424937Y-123976774D01*
X143538205Y-123807256D01*
X143616226Y-123618898D01*
X143656000Y-123418939D01*
X143656000Y-123215061D01*
X143616226Y-123015102D01*
X143538205Y-122826744D01*
X143424937Y-122657226D01*
X143280774Y-122513063D01*
X143111256Y-122399795D01*
X142922898Y-122321774D01*
X142722939Y-122282000D01*
X142519061Y-122282000D01*
X142319102Y-122321774D01*
X142130744Y-122399795D01*
X141961226Y-122513063D01*
X141817063Y-122657226D01*
X141703795Y-122826744D01*
X141625774Y-123015102D01*
X141586000Y-123215061D01*
X125127000Y-123215061D01*
X125127000Y-120000000D01*
X125124560Y-119975224D01*
X125117333Y-119951399D01*
X125105597Y-119929443D01*
X125092154Y-119913061D01*
X165208000Y-119913061D01*
X165208000Y-120116939D01*
X165247774Y-120316898D01*
X165325795Y-120505256D01*
X165439063Y-120674774D01*
X165583226Y-120818937D01*
X165752744Y-120932205D01*
X165941102Y-121010226D01*
X166141061Y-121050000D01*
X166344939Y-121050000D01*
X166544898Y-121010226D01*
X166733256Y-120932205D01*
X166902774Y-120818937D01*
X167046937Y-120674774D01*
X167160205Y-120505256D01*
X167238226Y-120316898D01*
X167278000Y-120116939D01*
X167278000Y-119913061D01*
X167238226Y-119713102D01*
X167160205Y-119524744D01*
X167046937Y-119355226D01*
X166902774Y-119211063D01*
X166733256Y-119097795D01*
X166544898Y-119019774D01*
X166344939Y-118980000D01*
X166141061Y-118980000D01*
X165941102Y-119019774D01*
X165752744Y-119097795D01*
X165583226Y-119211063D01*
X165439063Y-119355226D01*
X165325795Y-119524744D01*
X165247774Y-119713102D01*
X165208000Y-119913061D01*
X125092154Y-119913061D01*
X125089803Y-119910197D01*
X125070557Y-119894403D01*
X125048601Y-119882667D01*
X125024776Y-119875440D01*
X124999810Y-119873000D01*
X115660000Y-119887010D01*
X115660000Y-118262061D01*
X136379000Y-118262061D01*
X136379000Y-118465939D01*
X136418774Y-118665898D01*
X136496795Y-118854256D01*
X136610063Y-119023774D01*
X136754226Y-119167937D01*
X136923744Y-119281205D01*
X137112102Y-119359226D01*
X137312061Y-119399000D01*
X137515939Y-119399000D01*
X137715898Y-119359226D01*
X137904256Y-119281205D01*
X138073774Y-119167937D01*
X138217937Y-119023774D01*
X138331205Y-118854256D01*
X138409226Y-118665898D01*
X138449000Y-118465939D01*
X138449000Y-118262061D01*
X138409226Y-118062102D01*
X138331205Y-117873744D01*
X138217937Y-117704226D01*
X138073774Y-117560063D01*
X137904256Y-117446795D01*
X137715898Y-117368774D01*
X137515939Y-117329000D01*
X137312061Y-117329000D01*
X137112102Y-117368774D01*
X136923744Y-117446795D01*
X136754226Y-117560063D01*
X136610063Y-117704226D01*
X136496795Y-117873744D01*
X136418774Y-118062102D01*
X136379000Y-118262061D01*
X115660000Y-118262061D01*
X115660000Y-113314344D01*
X140615000Y-113314344D01*
X140615000Y-113685656D01*
X140687439Y-114049834D01*
X140829534Y-114392882D01*
X141035825Y-114701618D01*
X141298382Y-114964175D01*
X141607118Y-115170466D01*
X141950166Y-115312561D01*
X142314344Y-115385000D01*
X142685656Y-115385000D01*
X143049834Y-115312561D01*
X143392882Y-115170466D01*
X143701618Y-114964175D01*
X143964175Y-114701618D01*
X144170466Y-114392882D01*
X144312561Y-114049834D01*
X144385000Y-113685656D01*
X144385000Y-113314344D01*
X144312561Y-112950166D01*
X144170466Y-112607118D01*
X143964175Y-112298382D01*
X143831854Y-112166061D01*
X162287000Y-112166061D01*
X162287000Y-112369939D01*
X162326774Y-112569898D01*
X162404795Y-112758256D01*
X162518063Y-112927774D01*
X162662226Y-113071937D01*
X162831744Y-113185205D01*
X163020102Y-113263226D01*
X163220061Y-113303000D01*
X163423939Y-113303000D01*
X163623898Y-113263226D01*
X163812256Y-113185205D01*
X163981774Y-113071937D01*
X164125937Y-112927774D01*
X164239205Y-112758256D01*
X164317226Y-112569898D01*
X164357000Y-112369939D01*
X164357000Y-112166061D01*
X164317226Y-111966102D01*
X164239205Y-111777744D01*
X164125937Y-111608226D01*
X163981774Y-111464063D01*
X163812256Y-111350795D01*
X163623898Y-111272774D01*
X163423939Y-111233000D01*
X163220061Y-111233000D01*
X163020102Y-111272774D01*
X162831744Y-111350795D01*
X162662226Y-111464063D01*
X162518063Y-111608226D01*
X162404795Y-111777744D01*
X162326774Y-111966102D01*
X162287000Y-112166061D01*
X143831854Y-112166061D01*
X143701618Y-112035825D01*
X143392882Y-111829534D01*
X143049834Y-111687439D01*
X142685656Y-111615000D01*
X142314344Y-111615000D01*
X141950166Y-111687439D01*
X141607118Y-111829534D01*
X141298382Y-112035825D01*
X141035825Y-112298382D01*
X140829534Y-112607118D01*
X140687439Y-112950166D01*
X140615000Y-113314344D01*
X115660000Y-113314344D01*
X115660000Y-110898061D01*
X155965000Y-110898061D01*
X155965000Y-111101939D01*
X156004774Y-111301898D01*
X156082795Y-111490256D01*
X156196063Y-111659774D01*
X156340226Y-111803937D01*
X156509744Y-111917205D01*
X156698102Y-111995226D01*
X156898061Y-112035000D01*
X157101939Y-112035000D01*
X157301898Y-111995226D01*
X157490256Y-111917205D01*
X157659774Y-111803937D01*
X157803937Y-111659774D01*
X157917205Y-111490256D01*
X157995226Y-111301898D01*
X158035000Y-111101939D01*
X158035000Y-110898061D01*
X157995226Y-110698102D01*
X157917205Y-110509744D01*
X157803937Y-110340226D01*
X157659774Y-110196063D01*
X157490256Y-110082795D01*
X157301898Y-110004774D01*
X157101939Y-109965000D01*
X156898061Y-109965000D01*
X156698102Y-110004774D01*
X156509744Y-110082795D01*
X156340226Y-110196063D01*
X156196063Y-110340226D01*
X156082795Y-110509744D01*
X156004774Y-110698102D01*
X155965000Y-110898061D01*
X115660000Y-110898061D01*
X115660000Y-106578061D01*
X171050000Y-106578061D01*
X171050000Y-106781939D01*
X171089774Y-106981898D01*
X171167795Y-107170256D01*
X171281063Y-107339774D01*
X171425226Y-107483937D01*
X171594744Y-107597205D01*
X171783102Y-107675226D01*
X171983061Y-107715000D01*
X172186939Y-107715000D01*
X172386898Y-107675226D01*
X172575256Y-107597205D01*
X172744774Y-107483937D01*
X172888937Y-107339774D01*
X173002205Y-107170256D01*
X173080226Y-106981898D01*
X173120000Y-106781939D01*
X173120000Y-106578061D01*
X173080226Y-106378102D01*
X173002205Y-106189744D01*
X172888937Y-106020226D01*
X172744774Y-105876063D01*
X172575256Y-105762795D01*
X172386898Y-105684774D01*
X172186939Y-105645000D01*
X171983061Y-105645000D01*
X171783102Y-105684774D01*
X171594744Y-105762795D01*
X171425226Y-105876063D01*
X171281063Y-106020226D01*
X171167795Y-106189744D01*
X171089774Y-106378102D01*
X171050000Y-106578061D01*
X115660000Y-106578061D01*
X115660000Y-105435061D01*
X135363000Y-105435061D01*
X135363000Y-105638939D01*
X135402774Y-105838898D01*
X135480795Y-106027256D01*
X135594063Y-106196774D01*
X135738226Y-106340937D01*
X135907744Y-106454205D01*
X136096102Y-106532226D01*
X136296061Y-106572000D01*
X136499939Y-106572000D01*
X136699898Y-106532226D01*
X136888256Y-106454205D01*
X137057774Y-106340937D01*
X137201937Y-106196774D01*
X137315205Y-106027256D01*
X137393226Y-105838898D01*
X137433000Y-105638939D01*
X137433000Y-105435061D01*
X137393226Y-105235102D01*
X137315205Y-105046744D01*
X137201937Y-104877226D01*
X137057774Y-104733063D01*
X136888256Y-104619795D01*
X136699898Y-104541774D01*
X136499939Y-104502000D01*
X136296061Y-104502000D01*
X136096102Y-104541774D01*
X135907744Y-104619795D01*
X135738226Y-104733063D01*
X135594063Y-104877226D01*
X135480795Y-105046744D01*
X135402774Y-105235102D01*
X135363000Y-105435061D01*
X115660000Y-105435061D01*
X115660000Y-102895061D01*
X139300000Y-102895061D01*
X139300000Y-103098939D01*
X139339774Y-103298898D01*
X139417795Y-103487256D01*
X139531063Y-103656774D01*
X139675226Y-103800937D01*
X139844744Y-103914205D01*
X140033102Y-103992226D01*
X140233061Y-104032000D01*
X140436939Y-104032000D01*
X140636898Y-103992226D01*
X140825256Y-103914205D01*
X140994774Y-103800937D01*
X141138937Y-103656774D01*
X141160500Y-103624503D01*
X141182063Y-103656774D01*
X141326226Y-103800937D01*
X141495744Y-103914205D01*
X141684102Y-103992226D01*
X141884061Y-104032000D01*
X142087939Y-104032000D01*
X142287898Y-103992226D01*
X142476256Y-103914205D01*
X142645774Y-103800937D01*
X142789937Y-103656774D01*
X142903205Y-103487256D01*
X142981226Y-103298898D01*
X143021000Y-103098939D01*
X143021000Y-102895061D01*
X142981226Y-102695102D01*
X142903205Y-102506744D01*
X142789937Y-102337226D01*
X142645774Y-102193063D01*
X142476256Y-102079795D01*
X142287898Y-102001774D01*
X142087939Y-101962000D01*
X141887725Y-101962000D01*
X141965226Y-101774898D01*
X142005000Y-101574939D01*
X142005000Y-101371061D01*
X141965226Y-101171102D01*
X141887205Y-100982744D01*
X141773937Y-100813226D01*
X141629774Y-100669063D01*
X141539975Y-100609061D01*
X157207000Y-100609061D01*
X157207000Y-100812939D01*
X157246774Y-101012898D01*
X157324795Y-101201256D01*
X157438063Y-101370774D01*
X157582226Y-101514937D01*
X157751744Y-101628205D01*
X157940102Y-101706226D01*
X158140061Y-101746000D01*
X158343939Y-101746000D01*
X158543898Y-101706226D01*
X158732256Y-101628205D01*
X158901774Y-101514937D01*
X159045937Y-101370774D01*
X159159205Y-101201256D01*
X159237226Y-101012898D01*
X159277000Y-100812939D01*
X159277000Y-100609061D01*
X159237226Y-100409102D01*
X159159205Y-100220744D01*
X159045937Y-100051226D01*
X158901774Y-99907063D01*
X158732256Y-99793795D01*
X158543898Y-99715774D01*
X158343939Y-99676000D01*
X158140061Y-99676000D01*
X157940102Y-99715774D01*
X157751744Y-99793795D01*
X157582226Y-99907063D01*
X157438063Y-100051226D01*
X157324795Y-100220744D01*
X157246774Y-100409102D01*
X157207000Y-100609061D01*
X141539975Y-100609061D01*
X141460256Y-100555795D01*
X141271898Y-100477774D01*
X141071939Y-100438000D01*
X140868061Y-100438000D01*
X140668102Y-100477774D01*
X140479744Y-100555795D01*
X140310226Y-100669063D01*
X140166063Y-100813226D01*
X140052795Y-100982744D01*
X139974774Y-101171102D01*
X139935000Y-101371061D01*
X139935000Y-101574939D01*
X139974774Y-101774898D01*
X140052795Y-101963256D01*
X140073202Y-101993798D01*
X140033102Y-102001774D01*
X139844744Y-102079795D01*
X139675226Y-102193063D01*
X139531063Y-102337226D01*
X139417795Y-102506744D01*
X139339774Y-102695102D01*
X139300000Y-102895061D01*
X115660000Y-102895061D01*
X115660000Y-100355061D01*
X135871000Y-100355061D01*
X135871000Y-100558939D01*
X135910774Y-100758898D01*
X135988795Y-100947256D01*
X136102063Y-101116774D01*
X136246226Y-101260937D01*
X136415744Y-101374205D01*
X136604102Y-101452226D01*
X136804061Y-101492000D01*
X137007939Y-101492000D01*
X137207898Y-101452226D01*
X137396256Y-101374205D01*
X137565774Y-101260937D01*
X137709937Y-101116774D01*
X137823205Y-100947256D01*
X137901226Y-100758898D01*
X137941000Y-100558939D01*
X137941000Y-100355061D01*
X137901226Y-100155102D01*
X137823205Y-99966744D01*
X137709937Y-99797226D01*
X137565774Y-99653063D01*
X137396256Y-99539795D01*
X137207898Y-99461774D01*
X137007939Y-99422000D01*
X136804061Y-99422000D01*
X136604102Y-99461774D01*
X136415744Y-99539795D01*
X136246226Y-99653063D01*
X136102063Y-99797226D01*
X135988795Y-99966744D01*
X135910774Y-100155102D01*
X135871000Y-100355061D01*
X115660000Y-100355061D01*
X115660000Y-98704061D01*
X172574000Y-98704061D01*
X172574000Y-98907939D01*
X172613774Y-99107898D01*
X172691795Y-99296256D01*
X172805063Y-99465774D01*
X172949226Y-99609937D01*
X173118744Y-99723205D01*
X173307102Y-99801226D01*
X173507061Y-99841000D01*
X173710939Y-99841000D01*
X173910898Y-99801226D01*
X174099256Y-99723205D01*
X174268774Y-99609937D01*
X174412937Y-99465774D01*
X174526205Y-99296256D01*
X174604226Y-99107898D01*
X174644000Y-98907939D01*
X174644000Y-98704061D01*
X174604226Y-98504102D01*
X174526205Y-98315744D01*
X174412937Y-98146226D01*
X174268774Y-98002063D01*
X174099256Y-97888795D01*
X173910898Y-97810774D01*
X173710939Y-97771000D01*
X173507061Y-97771000D01*
X173307102Y-97810774D01*
X173118744Y-97888795D01*
X172949226Y-98002063D01*
X172805063Y-98146226D01*
X172691795Y-98315744D01*
X172613774Y-98504102D01*
X172574000Y-98704061D01*
X115660000Y-98704061D01*
X115660000Y-96672061D01*
X137014000Y-96672061D01*
X137014000Y-96875939D01*
X137053774Y-97075898D01*
X137131795Y-97264256D01*
X137245063Y-97433774D01*
X137389226Y-97577937D01*
X137558744Y-97691205D01*
X137747102Y-97769226D01*
X137947061Y-97809000D01*
X138150939Y-97809000D01*
X138350898Y-97769226D01*
X138539256Y-97691205D01*
X138708774Y-97577937D01*
X138852937Y-97433774D01*
X138966205Y-97264256D01*
X139044226Y-97075898D01*
X139084000Y-96875939D01*
X139084000Y-96672061D01*
X146158000Y-96672061D01*
X146158000Y-96875939D01*
X146197774Y-97075898D01*
X146275795Y-97264256D01*
X146389063Y-97433774D01*
X146533226Y-97577937D01*
X146702744Y-97691205D01*
X146891102Y-97769226D01*
X147091061Y-97809000D01*
X147294939Y-97809000D01*
X147494898Y-97769226D01*
X147683256Y-97691205D01*
X147852774Y-97577937D01*
X147996937Y-97433774D01*
X148110205Y-97264256D01*
X148188226Y-97075898D01*
X148228000Y-96875939D01*
X148228000Y-96672061D01*
X148188226Y-96472102D01*
X148110205Y-96283744D01*
X147996937Y-96114226D01*
X147852774Y-95970063D01*
X147683256Y-95856795D01*
X147494898Y-95778774D01*
X147294939Y-95739000D01*
X147091061Y-95739000D01*
X146891102Y-95778774D01*
X146702744Y-95856795D01*
X146533226Y-95970063D01*
X146389063Y-96114226D01*
X146275795Y-96283744D01*
X146197774Y-96472102D01*
X146158000Y-96672061D01*
X139084000Y-96672061D01*
X139044226Y-96472102D01*
X138966205Y-96283744D01*
X138852937Y-96114226D01*
X138708774Y-95970063D01*
X138539256Y-95856795D01*
X138350898Y-95778774D01*
X138150939Y-95739000D01*
X137947061Y-95739000D01*
X137747102Y-95778774D01*
X137558744Y-95856795D01*
X137389226Y-95970063D01*
X137245063Y-96114226D01*
X137131795Y-96283744D01*
X137053774Y-96472102D01*
X137014000Y-96672061D01*
X115660000Y-96672061D01*
X115660000Y-90127000D01*
X125000000Y-90127000D01*
X125024776Y-90124560D01*
X125048601Y-90117333D01*
X125070557Y-90105597D01*
X125089803Y-90089803D01*
X125105597Y-90070557D01*
X125117333Y-90048601D01*
X125124560Y-90024776D01*
X125127000Y-90000000D01*
X125127000Y-89829117D01*
X136765000Y-89829117D01*
X136765000Y-90170883D01*
X136831675Y-90506081D01*
X136962463Y-90821831D01*
X137152337Y-91105998D01*
X137394002Y-91347663D01*
X137678169Y-91537537D01*
X137993919Y-91668325D01*
X138329117Y-91735000D01*
X138670883Y-91735000D01*
X139006081Y-91668325D01*
X139321831Y-91537537D01*
X139605998Y-91347663D01*
X139847663Y-91105998D01*
X140037537Y-90821831D01*
X140168325Y-90506081D01*
X140235000Y-90170883D01*
X140235000Y-89829117D01*
X144765000Y-89829117D01*
X144765000Y-90170883D01*
X144831675Y-90506081D01*
X144962463Y-90821831D01*
X145152337Y-91105998D01*
X145394002Y-91347663D01*
X145678169Y-91537537D01*
X145993919Y-91668325D01*
X146329117Y-91735000D01*
X146670883Y-91735000D01*
X147006081Y-91668325D01*
X147321831Y-91537537D01*
X147605998Y-91347663D01*
X147847663Y-91105998D01*
X148037537Y-90821831D01*
X148168325Y-90506081D01*
X148235000Y-90170883D01*
X148235000Y-89829117D01*
X148168325Y-89493919D01*
X148037537Y-89178169D01*
X147847663Y-88894002D01*
X147693637Y-88739976D01*
X159588000Y-88739976D01*
X159588000Y-88998024D01*
X159638342Y-89251113D01*
X159737093Y-89489518D01*
X159880456Y-89704077D01*
X160062923Y-89886544D01*
X160277482Y-90029907D01*
X160515887Y-90128658D01*
X160768976Y-90179000D01*
X161027024Y-90179000D01*
X161280113Y-90128658D01*
X161518518Y-90029907D01*
X161733077Y-89886544D01*
X161915544Y-89704077D01*
X162058907Y-89489518D01*
X162157658Y-89251113D01*
X162208000Y-88998024D01*
X162208000Y-88739976D01*
X171458000Y-88739976D01*
X171458000Y-88998024D01*
X171508342Y-89251113D01*
X171607093Y-89489518D01*
X171750456Y-89704077D01*
X171932923Y-89886544D01*
X172147482Y-90029907D01*
X172385887Y-90128658D01*
X172638976Y-90179000D01*
X172897024Y-90179000D01*
X173150113Y-90128658D01*
X173388518Y-90029907D01*
X173603077Y-89886544D01*
X173785544Y-89704077D01*
X173928907Y-89489518D01*
X174027658Y-89251113D01*
X174078000Y-88998024D01*
X174078000Y-88739976D01*
X174027658Y-88486887D01*
X173928907Y-88248482D01*
X173785544Y-88033923D01*
X173603077Y-87851456D01*
X173388518Y-87708093D01*
X173150113Y-87609342D01*
X172897024Y-87559000D01*
X172638976Y-87559000D01*
X172385887Y-87609342D01*
X172147482Y-87708093D01*
X171932923Y-87851456D01*
X171750456Y-88033923D01*
X171607093Y-88248482D01*
X171508342Y-88486887D01*
X171458000Y-88739976D01*
X162208000Y-88739976D01*
X162157658Y-88486887D01*
X162058907Y-88248482D01*
X161915544Y-88033923D01*
X161733077Y-87851456D01*
X161518518Y-87708093D01*
X161280113Y-87609342D01*
X161027024Y-87559000D01*
X160768976Y-87559000D01*
X160515887Y-87609342D01*
X160277482Y-87708093D01*
X160062923Y-87851456D01*
X159880456Y-88033923D01*
X159737093Y-88248482D01*
X159638342Y-88486887D01*
X159588000Y-88739976D01*
X147693637Y-88739976D01*
X147605998Y-88652337D01*
X147321831Y-88462463D01*
X147006081Y-88331675D01*
X146670883Y-88265000D01*
X146329117Y-88265000D01*
X145993919Y-88331675D01*
X145678169Y-88462463D01*
X145394002Y-88652337D01*
X145152337Y-88894002D01*
X144962463Y-89178169D01*
X144831675Y-89493919D01*
X144765000Y-89829117D01*
X140235000Y-89829117D01*
X140168325Y-89493919D01*
X140037537Y-89178169D01*
X139847663Y-88894002D01*
X139605998Y-88652337D01*
X139321831Y-88462463D01*
X139006081Y-88331675D01*
X138670883Y-88265000D01*
X138329117Y-88265000D01*
X137993919Y-88331675D01*
X137678169Y-88462463D01*
X137394002Y-88652337D01*
X137152337Y-88894002D01*
X136962463Y-89178169D01*
X136831675Y-89493919D01*
X136765000Y-89829117D01*
X125127000Y-89829117D01*
X125127000Y-84814344D01*
X131615000Y-84814344D01*
X131615000Y-85185656D01*
X131687439Y-85549834D01*
X131829534Y-85892882D01*
X132035825Y-86201618D01*
X132298382Y-86464175D01*
X132607118Y-86670466D01*
X132950166Y-86812561D01*
X133314344Y-86885000D01*
X133685656Y-86885000D01*
X134049834Y-86812561D01*
X134392882Y-86670466D01*
X134701618Y-86464175D01*
X134964175Y-86201618D01*
X135170466Y-85892882D01*
X135312561Y-85549834D01*
X135385000Y-85185656D01*
X135385000Y-84814344D01*
X149615000Y-84814344D01*
X149615000Y-85185656D01*
X149687439Y-85549834D01*
X149829534Y-85892882D01*
X150035825Y-86201618D01*
X150298382Y-86464175D01*
X150607118Y-86670466D01*
X150950166Y-86812561D01*
X151314344Y-86885000D01*
X151685656Y-86885000D01*
X152049834Y-86812561D01*
X152392882Y-86670466D01*
X152701618Y-86464175D01*
X152964175Y-86201618D01*
X153113815Y-85977665D01*
X160013000Y-85977665D01*
X160013000Y-86260335D01*
X160068147Y-86537574D01*
X160176320Y-86798727D01*
X160333363Y-87033759D01*
X160533241Y-87233637D01*
X160768273Y-87390680D01*
X161029426Y-87498853D01*
X161306665Y-87554000D01*
X161589335Y-87554000D01*
X161866574Y-87498853D01*
X162127727Y-87390680D01*
X162362759Y-87233637D01*
X162562637Y-87033759D01*
X162719680Y-86798727D01*
X162827853Y-86537574D01*
X162883000Y-86260335D01*
X162883000Y-85977665D01*
X162827853Y-85700426D01*
X162719680Y-85439273D01*
X162672766Y-85369061D01*
X167621000Y-85369061D01*
X167621000Y-85572939D01*
X167660774Y-85772898D01*
X167738795Y-85961256D01*
X167852063Y-86130774D01*
X167996226Y-86274937D01*
X168165744Y-86388205D01*
X168354102Y-86466226D01*
X168554061Y-86506000D01*
X168757939Y-86506000D01*
X168957898Y-86466226D01*
X169146256Y-86388205D01*
X169315774Y-86274937D01*
X169459937Y-86130774D01*
X169562240Y-85977665D01*
X170783000Y-85977665D01*
X170783000Y-86260335D01*
X170838147Y-86537574D01*
X170946320Y-86798727D01*
X171103363Y-87033759D01*
X171303241Y-87233637D01*
X171538273Y-87390680D01*
X171799426Y-87498853D01*
X172076665Y-87554000D01*
X172359335Y-87554000D01*
X172636574Y-87498853D01*
X172897727Y-87390680D01*
X173132759Y-87233637D01*
X173332637Y-87033759D01*
X173489680Y-86798727D01*
X173597853Y-86537574D01*
X173653000Y-86260335D01*
X173653000Y-85977665D01*
X173597853Y-85700426D01*
X173489680Y-85439273D01*
X173332637Y-85204241D01*
X173132759Y-85004363D01*
X172897727Y-84847320D01*
X172636574Y-84739147D01*
X172359335Y-84684000D01*
X172076665Y-84684000D01*
X171799426Y-84739147D01*
X171538273Y-84847320D01*
X171303241Y-85004363D01*
X171103363Y-85204241D01*
X170946320Y-85439273D01*
X170838147Y-85700426D01*
X170783000Y-85977665D01*
X169562240Y-85977665D01*
X169573205Y-85961256D01*
X169651226Y-85772898D01*
X169691000Y-85572939D01*
X169691000Y-85369061D01*
X169651226Y-85169102D01*
X169573205Y-84980744D01*
X169459937Y-84811226D01*
X169315774Y-84667063D01*
X169146256Y-84553795D01*
X168957898Y-84475774D01*
X168757939Y-84436000D01*
X168554061Y-84436000D01*
X168354102Y-84475774D01*
X168165744Y-84553795D01*
X167996226Y-84667063D01*
X167852063Y-84811226D01*
X167738795Y-84980744D01*
X167660774Y-85169102D01*
X167621000Y-85369061D01*
X162672766Y-85369061D01*
X162562637Y-85204241D01*
X162362759Y-85004363D01*
X162127727Y-84847320D01*
X161866574Y-84739147D01*
X161589335Y-84684000D01*
X161306665Y-84684000D01*
X161029426Y-84739147D01*
X160768273Y-84847320D01*
X160533241Y-85004363D01*
X160333363Y-85204241D01*
X160176320Y-85439273D01*
X160068147Y-85700426D01*
X160013000Y-85977665D01*
X153113815Y-85977665D01*
X153170466Y-85892882D01*
X153312561Y-85549834D01*
X153385000Y-85185656D01*
X153385000Y-84814344D01*
X153312561Y-84450166D01*
X153170466Y-84107118D01*
X152964175Y-83798382D01*
X152701618Y-83535825D01*
X152392882Y-83329534D01*
X152176670Y-83239976D01*
X159588000Y-83239976D01*
X159588000Y-83498024D01*
X159638342Y-83751113D01*
X159737093Y-83989518D01*
X159880456Y-84204077D01*
X160062923Y-84386544D01*
X160277482Y-84529907D01*
X160515887Y-84628658D01*
X160768976Y-84679000D01*
X161027024Y-84679000D01*
X161280113Y-84628658D01*
X161518518Y-84529907D01*
X161733077Y-84386544D01*
X161915544Y-84204077D01*
X162058907Y-83989518D01*
X162157658Y-83751113D01*
X162208000Y-83498024D01*
X162208000Y-83239976D01*
X171458000Y-83239976D01*
X171458000Y-83498024D01*
X171508342Y-83751113D01*
X171607093Y-83989518D01*
X171750456Y-84204077D01*
X171932923Y-84386544D01*
X172147482Y-84529907D01*
X172385887Y-84628658D01*
X172638976Y-84679000D01*
X172897024Y-84679000D01*
X173150113Y-84628658D01*
X173388518Y-84529907D01*
X173603077Y-84386544D01*
X173785544Y-84204077D01*
X173928907Y-83989518D01*
X174027658Y-83751113D01*
X174078000Y-83498024D01*
X174078000Y-83239976D01*
X174027658Y-82986887D01*
X173928907Y-82748482D01*
X173785544Y-82533923D01*
X173603077Y-82351456D01*
X173388518Y-82208093D01*
X173150113Y-82109342D01*
X172897024Y-82059000D01*
X172638976Y-82059000D01*
X172385887Y-82109342D01*
X172147482Y-82208093D01*
X171932923Y-82351456D01*
X171750456Y-82533923D01*
X171607093Y-82748482D01*
X171508342Y-82986887D01*
X171458000Y-83239976D01*
X162208000Y-83239976D01*
X162157658Y-82986887D01*
X162058907Y-82748482D01*
X161915544Y-82533923D01*
X161733077Y-82351456D01*
X161518518Y-82208093D01*
X161280113Y-82109342D01*
X161027024Y-82059000D01*
X160768976Y-82059000D01*
X160515887Y-82109342D01*
X160277482Y-82208093D01*
X160062923Y-82351456D01*
X159880456Y-82533923D01*
X159737093Y-82748482D01*
X159638342Y-82986887D01*
X159588000Y-83239976D01*
X152176670Y-83239976D01*
X152049834Y-83187439D01*
X151685656Y-83115000D01*
X151314344Y-83115000D01*
X150950166Y-83187439D01*
X150607118Y-83329534D01*
X150298382Y-83535825D01*
X150035825Y-83798382D01*
X149829534Y-84107118D01*
X149687439Y-84450166D01*
X149615000Y-84814344D01*
X135385000Y-84814344D01*
X135312561Y-84450166D01*
X135170466Y-84107118D01*
X134964175Y-83798382D01*
X134701618Y-83535825D01*
X134392882Y-83329534D01*
X134049834Y-83187439D01*
X133685656Y-83115000D01*
X133314344Y-83115000D01*
X132950166Y-83187439D01*
X132607118Y-83329534D01*
X132298382Y-83535825D01*
X132035825Y-83798382D01*
X131829534Y-84107118D01*
X131687439Y-84450166D01*
X131615000Y-84814344D01*
X125127000Y-84814344D01*
X125127000Y-81686061D01*
X169018000Y-81686061D01*
X169018000Y-81889939D01*
X169057774Y-82089898D01*
X169135795Y-82278256D01*
X169249063Y-82447774D01*
X169393226Y-82591937D01*
X169562744Y-82705205D01*
X169751102Y-82783226D01*
X169951061Y-82823000D01*
X170154939Y-82823000D01*
X170354898Y-82783226D01*
X170543256Y-82705205D01*
X170712774Y-82591937D01*
X170856937Y-82447774D01*
X170970205Y-82278256D01*
X171048226Y-82089898D01*
X171088000Y-81889939D01*
X171088000Y-81686061D01*
X171048226Y-81486102D01*
X170970205Y-81297744D01*
X170856937Y-81128226D01*
X170712774Y-80984063D01*
X170543256Y-80870795D01*
X170354898Y-80792774D01*
X170154939Y-80753000D01*
X169951061Y-80753000D01*
X169751102Y-80792774D01*
X169562744Y-80870795D01*
X169393226Y-80984063D01*
X169249063Y-81128226D01*
X169135795Y-81297744D01*
X169057774Y-81486102D01*
X169018000Y-81686061D01*
X125127000Y-81686061D01*
X125127000Y-80660000D01*
X179340000Y-80660000D01*
X179340001Y-120373000D01*
M02*
