G04 #@! TF.GenerationSoftware,KiCad,Pcbnew,(5.1.5-0)*
G04 #@! TF.CreationDate,2020-12-17T20:40:06-08:00*
G04 #@! TF.ProjectId,Luminometer_ADC_concept,4c756d69-6e6f-46d6-9574-65725f414443,rev?*
G04 #@! TF.SameCoordinates,Original*
G04 #@! TF.FileFunction,Copper,L3,Inr*
G04 #@! TF.FilePolarity,Positive*
%FSLAX46Y46*%
G04 Gerber Fmt 4.6, Leading zero omitted, Abs format (unit mm)*
G04 Created by KiCad (PCBNEW (5.1.5-0)) date 2020-12-17 20:40:06*
%MOMM*%
%LPD*%
G04 APERTURE LIST*
%ADD10C,1.350000*%
%ADD11C,0.800000*%
%ADD12C,0.254000*%
G04 APERTURE END LIST*
D10*
X162065000Y-88750000D03*
X173935000Y-88750000D03*
X173935000Y-83250000D03*
X162065000Y-83250000D03*
D11*
X163450000Y-121900000D03*
X170550000Y-107700000D03*
X169628000Y-99128000D03*
X170813000Y-114334000D03*
X176359000Y-96334000D03*
X155278000Y-121177000D03*
X141562000Y-122447000D03*
X149182000Y-127273000D03*
X123700000Y-97850000D03*
X140550000Y-102100000D03*
X151546000Y-100997000D03*
X167723000Y-98239000D03*
X133750000Y-114000000D03*
X151500000Y-114000000D03*
X162800000Y-127650000D03*
X119950000Y-98750000D03*
X157250000Y-124250000D03*
X158750000Y-121500000D03*
X165500000Y-84750000D03*
X166750000Y-84750000D03*
X121000000Y-98750000D03*
X122100000Y-98750000D03*
X118800000Y-97950000D03*
X168000000Y-84750000D03*
X119700000Y-100150000D03*
X137460000Y-100560000D03*
X119050000Y-93450000D03*
X176020000Y-109635000D03*
X171250000Y-82038000D03*
X175000000Y-97750000D03*
X175500000Y-112250000D03*
X176359000Y-94556000D03*
X170156000Y-85721000D03*
X160992000Y-96461000D03*
X145500000Y-119750000D03*
X169350000Y-97850000D03*
X147736000Y-100997000D03*
X160750000Y-122650000D03*
X155300000Y-122350000D03*
X150071000Y-123717000D03*
X122450000Y-105100000D03*
X142148000Y-103537000D03*
X142656000Y-98457000D03*
X161850000Y-119950000D03*
X146720000Y-99473000D03*
D12*
G36*
X179123000Y-82302606D02*
G01*
X179123000Y-121623000D01*
X171750000Y-121623000D01*
X171725224Y-121625440D01*
X171701399Y-121632667D01*
X171679443Y-121644403D01*
X171660197Y-121660197D01*
X171644403Y-121679443D01*
X171632667Y-121701399D01*
X171625440Y-121725224D01*
X171623000Y-121750000D01*
X171623000Y-129123000D01*
X123377000Y-129123000D01*
X123377000Y-123640472D01*
X149294000Y-123640472D01*
X149294000Y-123793528D01*
X149323859Y-123943643D01*
X149382431Y-124085048D01*
X149467464Y-124212309D01*
X149575691Y-124320536D01*
X149702952Y-124405569D01*
X149844357Y-124464141D01*
X149994472Y-124494000D01*
X150147528Y-124494000D01*
X150297643Y-124464141D01*
X150439048Y-124405569D01*
X150566309Y-124320536D01*
X150674536Y-124212309D01*
X150759569Y-124085048D01*
X150818141Y-123943643D01*
X150848000Y-123793528D01*
X150848000Y-123640472D01*
X150818141Y-123490357D01*
X150759569Y-123348952D01*
X150674536Y-123221691D01*
X150566309Y-123113464D01*
X150439048Y-123028431D01*
X150297643Y-122969859D01*
X150147528Y-122940000D01*
X149994472Y-122940000D01*
X149844357Y-122969859D01*
X149702952Y-123028431D01*
X149575691Y-123113464D01*
X149467464Y-123221691D01*
X149382431Y-123348952D01*
X149323859Y-123490357D01*
X149294000Y-123640472D01*
X123377000Y-123640472D01*
X123377000Y-122273472D01*
X154523000Y-122273472D01*
X154523000Y-122426528D01*
X154552859Y-122576643D01*
X154611431Y-122718048D01*
X154696464Y-122845309D01*
X154804691Y-122953536D01*
X154931952Y-123038569D01*
X155073357Y-123097141D01*
X155223472Y-123127000D01*
X155376528Y-123127000D01*
X155526643Y-123097141D01*
X155668048Y-123038569D01*
X155795309Y-122953536D01*
X155903536Y-122845309D01*
X155988569Y-122718048D01*
X156047141Y-122576643D01*
X156047771Y-122573472D01*
X159973000Y-122573472D01*
X159973000Y-122726528D01*
X160002859Y-122876643D01*
X160061431Y-123018048D01*
X160146464Y-123145309D01*
X160254691Y-123253536D01*
X160381952Y-123338569D01*
X160523357Y-123397141D01*
X160673472Y-123427000D01*
X160826528Y-123427000D01*
X160976643Y-123397141D01*
X161118048Y-123338569D01*
X161245309Y-123253536D01*
X161353536Y-123145309D01*
X161438569Y-123018048D01*
X161497141Y-122876643D01*
X161527000Y-122726528D01*
X161527000Y-122573472D01*
X161497141Y-122423357D01*
X161438569Y-122281952D01*
X161353536Y-122154691D01*
X161245309Y-122046464D01*
X161118048Y-121961431D01*
X160976643Y-121902859D01*
X160826528Y-121873000D01*
X160673472Y-121873000D01*
X160523357Y-121902859D01*
X160381952Y-121961431D01*
X160254691Y-122046464D01*
X160146464Y-122154691D01*
X160061431Y-122281952D01*
X160002859Y-122423357D01*
X159973000Y-122573472D01*
X156047771Y-122573472D01*
X156077000Y-122426528D01*
X156077000Y-122273472D01*
X156047141Y-122123357D01*
X155988569Y-121981952D01*
X155903536Y-121854691D01*
X155795309Y-121746464D01*
X155668048Y-121661431D01*
X155526643Y-121602859D01*
X155376528Y-121573000D01*
X155223472Y-121573000D01*
X155073357Y-121602859D01*
X154931952Y-121661431D01*
X154804691Y-121746464D01*
X154696464Y-121854691D01*
X154611431Y-121981952D01*
X154552859Y-122123357D01*
X154523000Y-122273472D01*
X123377000Y-122273472D01*
X123377000Y-121750000D01*
X123374560Y-121725224D01*
X123367333Y-121701399D01*
X123355597Y-121679443D01*
X123339803Y-121660197D01*
X123320557Y-121644403D01*
X123298601Y-121632667D01*
X123274776Y-121625440D01*
X123250000Y-121623000D01*
X115877000Y-121623000D01*
X115877000Y-119673472D01*
X144723000Y-119673472D01*
X144723000Y-119826528D01*
X144752859Y-119976643D01*
X144811431Y-120118048D01*
X144896464Y-120245309D01*
X145004691Y-120353536D01*
X145131952Y-120438569D01*
X145273357Y-120497141D01*
X145423472Y-120527000D01*
X145576528Y-120527000D01*
X145726643Y-120497141D01*
X145868048Y-120438569D01*
X145995309Y-120353536D01*
X146103536Y-120245309D01*
X146188569Y-120118048D01*
X146247141Y-119976643D01*
X146267662Y-119873472D01*
X161073000Y-119873472D01*
X161073000Y-120026528D01*
X161102859Y-120176643D01*
X161161431Y-120318048D01*
X161246464Y-120445309D01*
X161354691Y-120553536D01*
X161481952Y-120638569D01*
X161623357Y-120697141D01*
X161773472Y-120727000D01*
X161926528Y-120727000D01*
X162076643Y-120697141D01*
X162218048Y-120638569D01*
X162345309Y-120553536D01*
X162453536Y-120445309D01*
X162538569Y-120318048D01*
X162597141Y-120176643D01*
X162627000Y-120026528D01*
X162627000Y-119873472D01*
X162597141Y-119723357D01*
X162538569Y-119581952D01*
X162453536Y-119454691D01*
X162345309Y-119346464D01*
X162218048Y-119261431D01*
X162076643Y-119202859D01*
X161926528Y-119173000D01*
X161773472Y-119173000D01*
X161623357Y-119202859D01*
X161481952Y-119261431D01*
X161354691Y-119346464D01*
X161246464Y-119454691D01*
X161161431Y-119581952D01*
X161102859Y-119723357D01*
X161073000Y-119873472D01*
X146267662Y-119873472D01*
X146277000Y-119826528D01*
X146277000Y-119673472D01*
X146247141Y-119523357D01*
X146188569Y-119381952D01*
X146103536Y-119254691D01*
X145995309Y-119146464D01*
X145868048Y-119061431D01*
X145726643Y-119002859D01*
X145576528Y-118973000D01*
X145423472Y-118973000D01*
X145273357Y-119002859D01*
X145131952Y-119061431D01*
X145004691Y-119146464D01*
X144896464Y-119254691D01*
X144811431Y-119381952D01*
X144752859Y-119523357D01*
X144723000Y-119673472D01*
X115877000Y-119673472D01*
X115877000Y-114829905D01*
X145773000Y-114829905D01*
X145773000Y-115170095D01*
X145839368Y-115503747D01*
X145969553Y-115818041D01*
X146158552Y-116100898D01*
X146399102Y-116341448D01*
X146681959Y-116530447D01*
X146996253Y-116660632D01*
X147329905Y-116727000D01*
X147670095Y-116727000D01*
X148003747Y-116660632D01*
X148318041Y-116530447D01*
X148600898Y-116341448D01*
X148841448Y-116100898D01*
X149030447Y-115818041D01*
X149160632Y-115503747D01*
X149227000Y-115170095D01*
X149227000Y-114829905D01*
X149160632Y-114496253D01*
X149030447Y-114181959D01*
X148841448Y-113899102D01*
X148600898Y-113658552D01*
X148318041Y-113469553D01*
X148003747Y-113339368D01*
X147670095Y-113273000D01*
X147329905Y-113273000D01*
X146996253Y-113339368D01*
X146681959Y-113469553D01*
X146399102Y-113658552D01*
X146158552Y-113899102D01*
X145969553Y-114181959D01*
X145839368Y-114496253D01*
X145773000Y-114829905D01*
X115877000Y-114829905D01*
X115877000Y-112173472D01*
X174723000Y-112173472D01*
X174723000Y-112326528D01*
X174752859Y-112476643D01*
X174811431Y-112618048D01*
X174896464Y-112745309D01*
X175004691Y-112853536D01*
X175131952Y-112938569D01*
X175273357Y-112997141D01*
X175423472Y-113027000D01*
X175576528Y-113027000D01*
X175726643Y-112997141D01*
X175868048Y-112938569D01*
X175995309Y-112853536D01*
X176103536Y-112745309D01*
X176188569Y-112618048D01*
X176247141Y-112476643D01*
X176277000Y-112326528D01*
X176277000Y-112173472D01*
X176247141Y-112023357D01*
X176188569Y-111881952D01*
X176103536Y-111754691D01*
X175995309Y-111646464D01*
X175868048Y-111561431D01*
X175726643Y-111502859D01*
X175576528Y-111473000D01*
X175423472Y-111473000D01*
X175273357Y-111502859D01*
X175131952Y-111561431D01*
X175004691Y-111646464D01*
X174896464Y-111754691D01*
X174811431Y-111881952D01*
X174752859Y-112023357D01*
X174723000Y-112173472D01*
X115877000Y-112173472D01*
X115877000Y-109558472D01*
X175243000Y-109558472D01*
X175243000Y-109711528D01*
X175272859Y-109861643D01*
X175331431Y-110003048D01*
X175416464Y-110130309D01*
X175524691Y-110238536D01*
X175651952Y-110323569D01*
X175793357Y-110382141D01*
X175943472Y-110412000D01*
X176096528Y-110412000D01*
X176246643Y-110382141D01*
X176388048Y-110323569D01*
X176515309Y-110238536D01*
X176623536Y-110130309D01*
X176708569Y-110003048D01*
X176767141Y-109861643D01*
X176797000Y-109711528D01*
X176797000Y-109558472D01*
X176767141Y-109408357D01*
X176708569Y-109266952D01*
X176623536Y-109139691D01*
X176515309Y-109031464D01*
X176388048Y-108946431D01*
X176246643Y-108887859D01*
X176096528Y-108858000D01*
X175943472Y-108858000D01*
X175793357Y-108887859D01*
X175651952Y-108946431D01*
X175524691Y-109031464D01*
X175416464Y-109139691D01*
X175331431Y-109266952D01*
X175272859Y-109408357D01*
X175243000Y-109558472D01*
X115877000Y-109558472D01*
X115877000Y-105023472D01*
X121673000Y-105023472D01*
X121673000Y-105176528D01*
X121702859Y-105326643D01*
X121761431Y-105468048D01*
X121846464Y-105595309D01*
X121954691Y-105703536D01*
X122081952Y-105788569D01*
X122223357Y-105847141D01*
X122373472Y-105877000D01*
X122526528Y-105877000D01*
X122676643Y-105847141D01*
X122818048Y-105788569D01*
X122945309Y-105703536D01*
X123053536Y-105595309D01*
X123138569Y-105468048D01*
X123197141Y-105326643D01*
X123227000Y-105176528D01*
X123227000Y-105023472D01*
X123197141Y-104873357D01*
X123138569Y-104731952D01*
X123053536Y-104604691D01*
X122945309Y-104496464D01*
X122818048Y-104411431D01*
X122676643Y-104352859D01*
X122526528Y-104323000D01*
X122373472Y-104323000D01*
X122223357Y-104352859D01*
X122081952Y-104411431D01*
X121954691Y-104496464D01*
X121846464Y-104604691D01*
X121761431Y-104731952D01*
X121702859Y-104873357D01*
X121673000Y-105023472D01*
X115877000Y-105023472D01*
X115877000Y-103460472D01*
X141371000Y-103460472D01*
X141371000Y-103613528D01*
X141400859Y-103763643D01*
X141459431Y-103905048D01*
X141544464Y-104032309D01*
X141652691Y-104140536D01*
X141779952Y-104225569D01*
X141921357Y-104284141D01*
X142071472Y-104314000D01*
X142224528Y-104314000D01*
X142374643Y-104284141D01*
X142516048Y-104225569D01*
X142643309Y-104140536D01*
X142751536Y-104032309D01*
X142836569Y-103905048D01*
X142895141Y-103763643D01*
X142925000Y-103613528D01*
X142925000Y-103460472D01*
X142895141Y-103310357D01*
X142836569Y-103168952D01*
X142751536Y-103041691D01*
X142643309Y-102933464D01*
X142516048Y-102848431D01*
X142374643Y-102789859D01*
X142224528Y-102760000D01*
X142071472Y-102760000D01*
X141921357Y-102789859D01*
X141779952Y-102848431D01*
X141652691Y-102933464D01*
X141544464Y-103041691D01*
X141459431Y-103168952D01*
X141400859Y-103310357D01*
X141371000Y-103460472D01*
X115877000Y-103460472D01*
X115877000Y-100073472D01*
X118923000Y-100073472D01*
X118923000Y-100226528D01*
X118952859Y-100376643D01*
X119011431Y-100518048D01*
X119096464Y-100645309D01*
X119204691Y-100753536D01*
X119331952Y-100838569D01*
X119473357Y-100897141D01*
X119623472Y-100927000D01*
X119776528Y-100927000D01*
X119926643Y-100897141D01*
X120068048Y-100838569D01*
X120195309Y-100753536D01*
X120303536Y-100645309D01*
X120388569Y-100518048D01*
X120402890Y-100483472D01*
X136683000Y-100483472D01*
X136683000Y-100636528D01*
X136712859Y-100786643D01*
X136771431Y-100928048D01*
X136856464Y-101055309D01*
X136964691Y-101163536D01*
X137091952Y-101248569D01*
X137233357Y-101307141D01*
X137383472Y-101337000D01*
X137536528Y-101337000D01*
X137686643Y-101307141D01*
X137828048Y-101248569D01*
X137955309Y-101163536D01*
X138063536Y-101055309D01*
X138148569Y-100928048D01*
X138151707Y-100920472D01*
X146959000Y-100920472D01*
X146959000Y-101073528D01*
X146988859Y-101223643D01*
X147047431Y-101365048D01*
X147132464Y-101492309D01*
X147240691Y-101600536D01*
X147367952Y-101685569D01*
X147509357Y-101744141D01*
X147659472Y-101774000D01*
X147812528Y-101774000D01*
X147962643Y-101744141D01*
X148104048Y-101685569D01*
X148231309Y-101600536D01*
X148339536Y-101492309D01*
X148424569Y-101365048D01*
X148483141Y-101223643D01*
X148513000Y-101073528D01*
X148513000Y-100920472D01*
X148483141Y-100770357D01*
X148424569Y-100628952D01*
X148339536Y-100501691D01*
X148231309Y-100393464D01*
X148104048Y-100308431D01*
X147962643Y-100249859D01*
X147812528Y-100220000D01*
X147659472Y-100220000D01*
X147509357Y-100249859D01*
X147367952Y-100308431D01*
X147240691Y-100393464D01*
X147132464Y-100501691D01*
X147047431Y-100628952D01*
X146988859Y-100770357D01*
X146959000Y-100920472D01*
X138151707Y-100920472D01*
X138207141Y-100786643D01*
X138237000Y-100636528D01*
X138237000Y-100483472D01*
X138207141Y-100333357D01*
X138148569Y-100191952D01*
X138063536Y-100064691D01*
X137955309Y-99956464D01*
X137828048Y-99871431D01*
X137686643Y-99812859D01*
X137536528Y-99783000D01*
X137383472Y-99783000D01*
X137233357Y-99812859D01*
X137091952Y-99871431D01*
X136964691Y-99956464D01*
X136856464Y-100064691D01*
X136771431Y-100191952D01*
X136712859Y-100333357D01*
X136683000Y-100483472D01*
X120402890Y-100483472D01*
X120447141Y-100376643D01*
X120477000Y-100226528D01*
X120477000Y-100073472D01*
X120447141Y-99923357D01*
X120388569Y-99781952D01*
X120303536Y-99654691D01*
X120195309Y-99546464D01*
X120068048Y-99461431D01*
X119926643Y-99402859D01*
X119894533Y-99396472D01*
X145943000Y-99396472D01*
X145943000Y-99549528D01*
X145972859Y-99699643D01*
X146031431Y-99841048D01*
X146116464Y-99968309D01*
X146224691Y-100076536D01*
X146351952Y-100161569D01*
X146493357Y-100220141D01*
X146643472Y-100250000D01*
X146796528Y-100250000D01*
X146946643Y-100220141D01*
X147088048Y-100161569D01*
X147215309Y-100076536D01*
X147323536Y-99968309D01*
X147408569Y-99841048D01*
X147467141Y-99699643D01*
X147497000Y-99549528D01*
X147497000Y-99396472D01*
X147467141Y-99246357D01*
X147408569Y-99104952D01*
X147323536Y-98977691D01*
X147215309Y-98869464D01*
X147088048Y-98784431D01*
X146946643Y-98725859D01*
X146796528Y-98696000D01*
X146643472Y-98696000D01*
X146493357Y-98725859D01*
X146351952Y-98784431D01*
X146224691Y-98869464D01*
X146116464Y-98977691D01*
X146031431Y-99104952D01*
X145972859Y-99246357D01*
X145943000Y-99396472D01*
X119894533Y-99396472D01*
X119776528Y-99373000D01*
X119623472Y-99373000D01*
X119473357Y-99402859D01*
X119331952Y-99461431D01*
X119204691Y-99546464D01*
X119096464Y-99654691D01*
X119011431Y-99781952D01*
X118952859Y-99923357D01*
X118923000Y-100073472D01*
X115877000Y-100073472D01*
X115877000Y-98380472D01*
X141879000Y-98380472D01*
X141879000Y-98533528D01*
X141908859Y-98683643D01*
X141967431Y-98825048D01*
X142052464Y-98952309D01*
X142160691Y-99060536D01*
X142287952Y-99145569D01*
X142429357Y-99204141D01*
X142579472Y-99234000D01*
X142732528Y-99234000D01*
X142882643Y-99204141D01*
X143024048Y-99145569D01*
X143151309Y-99060536D01*
X143259536Y-98952309D01*
X143344569Y-98825048D01*
X143403141Y-98683643D01*
X143433000Y-98533528D01*
X143433000Y-98380472D01*
X143403141Y-98230357D01*
X143344569Y-98088952D01*
X143259536Y-97961691D01*
X143151309Y-97853464D01*
X143031593Y-97773472D01*
X168573000Y-97773472D01*
X168573000Y-97926528D01*
X168602859Y-98076643D01*
X168661431Y-98218048D01*
X168746464Y-98345309D01*
X168854691Y-98453536D01*
X168981952Y-98538569D01*
X169123357Y-98597141D01*
X169273472Y-98627000D01*
X169426528Y-98627000D01*
X169576643Y-98597141D01*
X169718048Y-98538569D01*
X169845309Y-98453536D01*
X169953536Y-98345309D01*
X170038569Y-98218048D01*
X170097141Y-98076643D01*
X170127000Y-97926528D01*
X170127000Y-97773472D01*
X170107110Y-97673472D01*
X174223000Y-97673472D01*
X174223000Y-97826528D01*
X174252859Y-97976643D01*
X174311431Y-98118048D01*
X174396464Y-98245309D01*
X174504691Y-98353536D01*
X174631952Y-98438569D01*
X174773357Y-98497141D01*
X174923472Y-98527000D01*
X175076528Y-98527000D01*
X175226643Y-98497141D01*
X175368048Y-98438569D01*
X175495309Y-98353536D01*
X175603536Y-98245309D01*
X175688569Y-98118048D01*
X175747141Y-97976643D01*
X175777000Y-97826528D01*
X175777000Y-97673472D01*
X175747141Y-97523357D01*
X175688569Y-97381952D01*
X175603536Y-97254691D01*
X175495309Y-97146464D01*
X175368048Y-97061431D01*
X175226643Y-97002859D01*
X175076528Y-96973000D01*
X174923472Y-96973000D01*
X174773357Y-97002859D01*
X174631952Y-97061431D01*
X174504691Y-97146464D01*
X174396464Y-97254691D01*
X174311431Y-97381952D01*
X174252859Y-97523357D01*
X174223000Y-97673472D01*
X170107110Y-97673472D01*
X170097141Y-97623357D01*
X170038569Y-97481952D01*
X169953536Y-97354691D01*
X169845309Y-97246464D01*
X169718048Y-97161431D01*
X169576643Y-97102859D01*
X169426528Y-97073000D01*
X169273472Y-97073000D01*
X169123357Y-97102859D01*
X168981952Y-97161431D01*
X168854691Y-97246464D01*
X168746464Y-97354691D01*
X168661431Y-97481952D01*
X168602859Y-97623357D01*
X168573000Y-97773472D01*
X143031593Y-97773472D01*
X143024048Y-97768431D01*
X142882643Y-97709859D01*
X142732528Y-97680000D01*
X142579472Y-97680000D01*
X142429357Y-97709859D01*
X142287952Y-97768431D01*
X142160691Y-97853464D01*
X142052464Y-97961691D01*
X141967431Y-98088952D01*
X141908859Y-98230357D01*
X141879000Y-98380472D01*
X115877000Y-98380472D01*
X115877000Y-96384472D01*
X160215000Y-96384472D01*
X160215000Y-96537528D01*
X160244859Y-96687643D01*
X160303431Y-96829048D01*
X160388464Y-96956309D01*
X160496691Y-97064536D01*
X160623952Y-97149569D01*
X160765357Y-97208141D01*
X160915472Y-97238000D01*
X161068528Y-97238000D01*
X161218643Y-97208141D01*
X161360048Y-97149569D01*
X161487309Y-97064536D01*
X161595536Y-96956309D01*
X161680569Y-96829048D01*
X161739141Y-96687643D01*
X161769000Y-96537528D01*
X161769000Y-96384472D01*
X161739141Y-96234357D01*
X161680569Y-96092952D01*
X161595536Y-95965691D01*
X161487309Y-95857464D01*
X161360048Y-95772431D01*
X161218643Y-95713859D01*
X161068528Y-95684000D01*
X160915472Y-95684000D01*
X160765357Y-95713859D01*
X160623952Y-95772431D01*
X160496691Y-95857464D01*
X160388464Y-95965691D01*
X160303431Y-96092952D01*
X160244859Y-96234357D01*
X160215000Y-96384472D01*
X115877000Y-96384472D01*
X115877000Y-94479472D01*
X175582000Y-94479472D01*
X175582000Y-94632528D01*
X175611859Y-94782643D01*
X175670431Y-94924048D01*
X175755464Y-95051309D01*
X175863691Y-95159536D01*
X175990952Y-95244569D01*
X176132357Y-95303141D01*
X176282472Y-95333000D01*
X176435528Y-95333000D01*
X176585643Y-95303141D01*
X176727048Y-95244569D01*
X176854309Y-95159536D01*
X176962536Y-95051309D01*
X177047569Y-94924048D01*
X177106141Y-94782643D01*
X177136000Y-94632528D01*
X177136000Y-94479472D01*
X177106141Y-94329357D01*
X177047569Y-94187952D01*
X176962536Y-94060691D01*
X176854309Y-93952464D01*
X176727048Y-93867431D01*
X176585643Y-93808859D01*
X176435528Y-93779000D01*
X176282472Y-93779000D01*
X176132357Y-93808859D01*
X175990952Y-93867431D01*
X175863691Y-93952464D01*
X175755464Y-94060691D01*
X175670431Y-94187952D01*
X175611859Y-94329357D01*
X175582000Y-94479472D01*
X115877000Y-94479472D01*
X115877000Y-93373472D01*
X118273000Y-93373472D01*
X118273000Y-93526528D01*
X118302859Y-93676643D01*
X118361431Y-93818048D01*
X118446464Y-93945309D01*
X118554691Y-94053536D01*
X118681952Y-94138569D01*
X118823357Y-94197141D01*
X118973472Y-94227000D01*
X119126528Y-94227000D01*
X119276643Y-94197141D01*
X119418048Y-94138569D01*
X119545309Y-94053536D01*
X119653536Y-93945309D01*
X119738569Y-93818048D01*
X119797141Y-93676643D01*
X119827000Y-93526528D01*
X119827000Y-93373472D01*
X119797141Y-93223357D01*
X119738569Y-93081952D01*
X119653536Y-92954691D01*
X119553373Y-92854528D01*
X137023000Y-92854528D01*
X137023000Y-93145472D01*
X137079760Y-93430825D01*
X137191099Y-93699622D01*
X137352739Y-93941533D01*
X137558467Y-94147261D01*
X137800378Y-94308901D01*
X138069175Y-94420240D01*
X138354528Y-94477000D01*
X138645472Y-94477000D01*
X138930825Y-94420240D01*
X139199622Y-94308901D01*
X139441533Y-94147261D01*
X139647261Y-93941533D01*
X139808901Y-93699622D01*
X139920240Y-93430825D01*
X139977000Y-93145472D01*
X139977000Y-92854528D01*
X155023000Y-92854528D01*
X155023000Y-93145472D01*
X155079760Y-93430825D01*
X155191099Y-93699622D01*
X155352739Y-93941533D01*
X155558467Y-94147261D01*
X155800378Y-94308901D01*
X156069175Y-94420240D01*
X156354528Y-94477000D01*
X156645472Y-94477000D01*
X156930825Y-94420240D01*
X157199622Y-94308901D01*
X157441533Y-94147261D01*
X157647261Y-93941533D01*
X157808901Y-93699622D01*
X157920240Y-93430825D01*
X157977000Y-93145472D01*
X157977000Y-92854528D01*
X157920240Y-92569175D01*
X157808901Y-92300378D01*
X157647261Y-92058467D01*
X157441533Y-91852739D01*
X157199622Y-91691099D01*
X156930825Y-91579760D01*
X156645472Y-91523000D01*
X156354528Y-91523000D01*
X156069175Y-91579760D01*
X155800378Y-91691099D01*
X155558467Y-91852739D01*
X155352739Y-92058467D01*
X155191099Y-92300378D01*
X155079760Y-92569175D01*
X155023000Y-92854528D01*
X139977000Y-92854528D01*
X139920240Y-92569175D01*
X139808901Y-92300378D01*
X139647261Y-92058467D01*
X139441533Y-91852739D01*
X139199622Y-91691099D01*
X138930825Y-91579760D01*
X138645472Y-91523000D01*
X138354528Y-91523000D01*
X138069175Y-91579760D01*
X137800378Y-91691099D01*
X137558467Y-91852739D01*
X137352739Y-92058467D01*
X137191099Y-92300378D01*
X137079760Y-92569175D01*
X137023000Y-92854528D01*
X119553373Y-92854528D01*
X119545309Y-92846464D01*
X119418048Y-92761431D01*
X119276643Y-92702859D01*
X119126528Y-92673000D01*
X118973472Y-92673000D01*
X118823357Y-92702859D01*
X118681952Y-92761431D01*
X118554691Y-92846464D01*
X118446464Y-92954691D01*
X118361431Y-93081952D01*
X118302859Y-93223357D01*
X118273000Y-93373472D01*
X115877000Y-93373472D01*
X115877000Y-88377000D01*
X123250000Y-88377000D01*
X123274776Y-88374560D01*
X123298601Y-88367333D01*
X123320557Y-88355597D01*
X123339803Y-88339803D01*
X123355597Y-88320557D01*
X123367333Y-88298601D01*
X123374560Y-88274776D01*
X123377000Y-88250000D01*
X123377000Y-87829905D01*
X141773000Y-87829905D01*
X141773000Y-88170095D01*
X141839368Y-88503747D01*
X141969553Y-88818041D01*
X142158552Y-89100898D01*
X142399102Y-89341448D01*
X142681959Y-89530447D01*
X142996253Y-89660632D01*
X143329905Y-89727000D01*
X143670095Y-89727000D01*
X144003747Y-89660632D01*
X144318041Y-89530447D01*
X144600898Y-89341448D01*
X144841448Y-89100898D01*
X145030447Y-88818041D01*
X145160632Y-88503747D01*
X145227000Y-88170095D01*
X145227000Y-87829905D01*
X149773000Y-87829905D01*
X149773000Y-88170095D01*
X149839368Y-88503747D01*
X149969553Y-88818041D01*
X150158552Y-89100898D01*
X150399102Y-89341448D01*
X150681959Y-89530447D01*
X150996253Y-89660632D01*
X151329905Y-89727000D01*
X151670095Y-89727000D01*
X152003747Y-89660632D01*
X152318041Y-89530447D01*
X152600898Y-89341448D01*
X152841448Y-89100898D01*
X153030447Y-88818041D01*
X153101548Y-88646387D01*
X161013000Y-88646387D01*
X161013000Y-88853613D01*
X161053428Y-89056857D01*
X161132730Y-89248309D01*
X161247858Y-89420611D01*
X161394389Y-89567142D01*
X161566691Y-89682270D01*
X161758143Y-89761572D01*
X161961387Y-89802000D01*
X162168613Y-89802000D01*
X162371857Y-89761572D01*
X162563309Y-89682270D01*
X162735611Y-89567142D01*
X162882142Y-89420611D01*
X162997270Y-89248309D01*
X163076572Y-89056857D01*
X163117000Y-88853613D01*
X163117000Y-88646387D01*
X172883000Y-88646387D01*
X172883000Y-88853613D01*
X172923428Y-89056857D01*
X173002730Y-89248309D01*
X173117858Y-89420611D01*
X173264389Y-89567142D01*
X173436691Y-89682270D01*
X173628143Y-89761572D01*
X173831387Y-89802000D01*
X174038613Y-89802000D01*
X174241857Y-89761572D01*
X174433309Y-89682270D01*
X174605611Y-89567142D01*
X174752142Y-89420611D01*
X174867270Y-89248309D01*
X174946572Y-89056857D01*
X174987000Y-88853613D01*
X174987000Y-88646387D01*
X174946572Y-88443143D01*
X174867270Y-88251691D01*
X174752142Y-88079389D01*
X174605611Y-87932858D01*
X174433309Y-87817730D01*
X174241857Y-87738428D01*
X174038613Y-87698000D01*
X173831387Y-87698000D01*
X173628143Y-87738428D01*
X173436691Y-87817730D01*
X173264389Y-87932858D01*
X173117858Y-88079389D01*
X173002730Y-88251691D01*
X172923428Y-88443143D01*
X172883000Y-88646387D01*
X163117000Y-88646387D01*
X163076572Y-88443143D01*
X162997270Y-88251691D01*
X162882142Y-88079389D01*
X162735611Y-87932858D01*
X162563309Y-87817730D01*
X162371857Y-87738428D01*
X162168613Y-87698000D01*
X161961387Y-87698000D01*
X161758143Y-87738428D01*
X161566691Y-87817730D01*
X161394389Y-87932858D01*
X161247858Y-88079389D01*
X161132730Y-88251691D01*
X161053428Y-88443143D01*
X161013000Y-88646387D01*
X153101548Y-88646387D01*
X153160632Y-88503747D01*
X153227000Y-88170095D01*
X153227000Y-87829905D01*
X153160632Y-87496253D01*
X153030447Y-87181959D01*
X152841448Y-86899102D01*
X152600898Y-86658552D01*
X152318041Y-86469553D01*
X152003747Y-86339368D01*
X151670095Y-86273000D01*
X151329905Y-86273000D01*
X150996253Y-86339368D01*
X150681959Y-86469553D01*
X150399102Y-86658552D01*
X150158552Y-86899102D01*
X149969553Y-87181959D01*
X149839368Y-87496253D01*
X149773000Y-87829905D01*
X145227000Y-87829905D01*
X145160632Y-87496253D01*
X145030447Y-87181959D01*
X144841448Y-86899102D01*
X144600898Y-86658552D01*
X144318041Y-86469553D01*
X144003747Y-86339368D01*
X143670095Y-86273000D01*
X143329905Y-86273000D01*
X142996253Y-86339368D01*
X142681959Y-86469553D01*
X142399102Y-86658552D01*
X142158552Y-86899102D01*
X141969553Y-87181959D01*
X141839368Y-87496253D01*
X141773000Y-87829905D01*
X123377000Y-87829905D01*
X123377000Y-85884076D01*
X161438000Y-85884076D01*
X161438000Y-86115924D01*
X161483231Y-86343318D01*
X161571956Y-86557519D01*
X161700764Y-86750294D01*
X161864706Y-86914236D01*
X162057481Y-87043044D01*
X162271682Y-87131769D01*
X162499076Y-87177000D01*
X162730924Y-87177000D01*
X162958318Y-87131769D01*
X163172519Y-87043044D01*
X163365294Y-86914236D01*
X163529236Y-86750294D01*
X163658044Y-86557519D01*
X163746769Y-86343318D01*
X163792000Y-86115924D01*
X163792000Y-85884076D01*
X163746769Y-85656682D01*
X163741712Y-85644472D01*
X169379000Y-85644472D01*
X169379000Y-85797528D01*
X169408859Y-85947643D01*
X169467431Y-86089048D01*
X169552464Y-86216309D01*
X169660691Y-86324536D01*
X169787952Y-86409569D01*
X169929357Y-86468141D01*
X170079472Y-86498000D01*
X170232528Y-86498000D01*
X170382643Y-86468141D01*
X170524048Y-86409569D01*
X170651309Y-86324536D01*
X170759536Y-86216309D01*
X170844569Y-86089048D01*
X170903141Y-85947643D01*
X170915784Y-85884076D01*
X172208000Y-85884076D01*
X172208000Y-86115924D01*
X172253231Y-86343318D01*
X172341956Y-86557519D01*
X172470764Y-86750294D01*
X172634706Y-86914236D01*
X172827481Y-87043044D01*
X173041682Y-87131769D01*
X173269076Y-87177000D01*
X173500924Y-87177000D01*
X173728318Y-87131769D01*
X173942519Y-87043044D01*
X174135294Y-86914236D01*
X174299236Y-86750294D01*
X174428044Y-86557519D01*
X174516769Y-86343318D01*
X174562000Y-86115924D01*
X174562000Y-85884076D01*
X174516769Y-85656682D01*
X174428044Y-85442481D01*
X174299236Y-85249706D01*
X174135294Y-85085764D01*
X173942519Y-84956956D01*
X173728318Y-84868231D01*
X173500924Y-84823000D01*
X173269076Y-84823000D01*
X173041682Y-84868231D01*
X172827481Y-84956956D01*
X172634706Y-85085764D01*
X172470764Y-85249706D01*
X172341956Y-85442481D01*
X172253231Y-85656682D01*
X172208000Y-85884076D01*
X170915784Y-85884076D01*
X170933000Y-85797528D01*
X170933000Y-85644472D01*
X170903141Y-85494357D01*
X170844569Y-85352952D01*
X170759536Y-85225691D01*
X170651309Y-85117464D01*
X170524048Y-85032431D01*
X170382643Y-84973859D01*
X170232528Y-84944000D01*
X170079472Y-84944000D01*
X169929357Y-84973859D01*
X169787952Y-85032431D01*
X169660691Y-85117464D01*
X169552464Y-85225691D01*
X169467431Y-85352952D01*
X169408859Y-85494357D01*
X169379000Y-85644472D01*
X163741712Y-85644472D01*
X163658044Y-85442481D01*
X163529236Y-85249706D01*
X163365294Y-85085764D01*
X163172519Y-84956956D01*
X162958318Y-84868231D01*
X162730924Y-84823000D01*
X162499076Y-84823000D01*
X162271682Y-84868231D01*
X162057481Y-84956956D01*
X161864706Y-85085764D01*
X161700764Y-85249706D01*
X161571956Y-85442481D01*
X161483231Y-85656682D01*
X161438000Y-85884076D01*
X123377000Y-85884076D01*
X123377000Y-83146387D01*
X161013000Y-83146387D01*
X161013000Y-83353613D01*
X161053428Y-83556857D01*
X161132730Y-83748309D01*
X161247858Y-83920611D01*
X161394389Y-84067142D01*
X161566691Y-84182270D01*
X161758143Y-84261572D01*
X161961387Y-84302000D01*
X162168613Y-84302000D01*
X162371857Y-84261572D01*
X162563309Y-84182270D01*
X162735611Y-84067142D01*
X162882142Y-83920611D01*
X162997270Y-83748309D01*
X163076572Y-83556857D01*
X163117000Y-83353613D01*
X163117000Y-83146387D01*
X172883000Y-83146387D01*
X172883000Y-83353613D01*
X172923428Y-83556857D01*
X173002730Y-83748309D01*
X173117858Y-83920611D01*
X173264389Y-84067142D01*
X173436691Y-84182270D01*
X173628143Y-84261572D01*
X173831387Y-84302000D01*
X174038613Y-84302000D01*
X174241857Y-84261572D01*
X174433309Y-84182270D01*
X174605611Y-84067142D01*
X174752142Y-83920611D01*
X174867270Y-83748309D01*
X174946572Y-83556857D01*
X174987000Y-83353613D01*
X174987000Y-83146387D01*
X174946572Y-82943143D01*
X174867270Y-82751691D01*
X174752142Y-82579389D01*
X174605611Y-82432858D01*
X174433309Y-82317730D01*
X174241857Y-82238428D01*
X174038613Y-82198000D01*
X173831387Y-82198000D01*
X173628143Y-82238428D01*
X173436691Y-82317730D01*
X173264389Y-82432858D01*
X173117858Y-82579389D01*
X173002730Y-82751691D01*
X172923428Y-82943143D01*
X172883000Y-83146387D01*
X163117000Y-83146387D01*
X163076572Y-82943143D01*
X162997270Y-82751691D01*
X162882142Y-82579389D01*
X162735611Y-82432858D01*
X162563309Y-82317730D01*
X162371857Y-82238428D01*
X162168613Y-82198000D01*
X161961387Y-82198000D01*
X161758143Y-82238428D01*
X161566691Y-82317730D01*
X161394389Y-82432858D01*
X161247858Y-82579389D01*
X161132730Y-82751691D01*
X161053428Y-82943143D01*
X161013000Y-83146387D01*
X123377000Y-83146387D01*
X123377000Y-81961472D01*
X170473000Y-81961472D01*
X170473000Y-82114528D01*
X170502859Y-82264643D01*
X170561431Y-82406048D01*
X170646464Y-82533309D01*
X170754691Y-82641536D01*
X170881952Y-82726569D01*
X171023357Y-82785141D01*
X171173472Y-82815000D01*
X171326528Y-82815000D01*
X171476643Y-82785141D01*
X171618048Y-82726569D01*
X171745309Y-82641536D01*
X171853536Y-82533309D01*
X171938569Y-82406048D01*
X171997141Y-82264643D01*
X172027000Y-82114528D01*
X172027000Y-81961472D01*
X171997141Y-81811357D01*
X171938569Y-81669952D01*
X171853536Y-81542691D01*
X171745309Y-81434464D01*
X171618048Y-81349431D01*
X171476643Y-81290859D01*
X171326528Y-81261000D01*
X171173472Y-81261000D01*
X171023357Y-81290859D01*
X170881952Y-81349431D01*
X170754691Y-81434464D01*
X170646464Y-81542691D01*
X170561431Y-81669952D01*
X170502859Y-81811357D01*
X170473000Y-81961472D01*
X123377000Y-81961472D01*
X123377000Y-80877000D01*
X177697394Y-80877000D01*
X179123000Y-82302606D01*
G37*
X179123000Y-82302606D02*
X179123000Y-121623000D01*
X171750000Y-121623000D01*
X171725224Y-121625440D01*
X171701399Y-121632667D01*
X171679443Y-121644403D01*
X171660197Y-121660197D01*
X171644403Y-121679443D01*
X171632667Y-121701399D01*
X171625440Y-121725224D01*
X171623000Y-121750000D01*
X171623000Y-129123000D01*
X123377000Y-129123000D01*
X123377000Y-123640472D01*
X149294000Y-123640472D01*
X149294000Y-123793528D01*
X149323859Y-123943643D01*
X149382431Y-124085048D01*
X149467464Y-124212309D01*
X149575691Y-124320536D01*
X149702952Y-124405569D01*
X149844357Y-124464141D01*
X149994472Y-124494000D01*
X150147528Y-124494000D01*
X150297643Y-124464141D01*
X150439048Y-124405569D01*
X150566309Y-124320536D01*
X150674536Y-124212309D01*
X150759569Y-124085048D01*
X150818141Y-123943643D01*
X150848000Y-123793528D01*
X150848000Y-123640472D01*
X150818141Y-123490357D01*
X150759569Y-123348952D01*
X150674536Y-123221691D01*
X150566309Y-123113464D01*
X150439048Y-123028431D01*
X150297643Y-122969859D01*
X150147528Y-122940000D01*
X149994472Y-122940000D01*
X149844357Y-122969859D01*
X149702952Y-123028431D01*
X149575691Y-123113464D01*
X149467464Y-123221691D01*
X149382431Y-123348952D01*
X149323859Y-123490357D01*
X149294000Y-123640472D01*
X123377000Y-123640472D01*
X123377000Y-122273472D01*
X154523000Y-122273472D01*
X154523000Y-122426528D01*
X154552859Y-122576643D01*
X154611431Y-122718048D01*
X154696464Y-122845309D01*
X154804691Y-122953536D01*
X154931952Y-123038569D01*
X155073357Y-123097141D01*
X155223472Y-123127000D01*
X155376528Y-123127000D01*
X155526643Y-123097141D01*
X155668048Y-123038569D01*
X155795309Y-122953536D01*
X155903536Y-122845309D01*
X155988569Y-122718048D01*
X156047141Y-122576643D01*
X156047771Y-122573472D01*
X159973000Y-122573472D01*
X159973000Y-122726528D01*
X160002859Y-122876643D01*
X160061431Y-123018048D01*
X160146464Y-123145309D01*
X160254691Y-123253536D01*
X160381952Y-123338569D01*
X160523357Y-123397141D01*
X160673472Y-123427000D01*
X160826528Y-123427000D01*
X160976643Y-123397141D01*
X161118048Y-123338569D01*
X161245309Y-123253536D01*
X161353536Y-123145309D01*
X161438569Y-123018048D01*
X161497141Y-122876643D01*
X161527000Y-122726528D01*
X161527000Y-122573472D01*
X161497141Y-122423357D01*
X161438569Y-122281952D01*
X161353536Y-122154691D01*
X161245309Y-122046464D01*
X161118048Y-121961431D01*
X160976643Y-121902859D01*
X160826528Y-121873000D01*
X160673472Y-121873000D01*
X160523357Y-121902859D01*
X160381952Y-121961431D01*
X160254691Y-122046464D01*
X160146464Y-122154691D01*
X160061431Y-122281952D01*
X160002859Y-122423357D01*
X159973000Y-122573472D01*
X156047771Y-122573472D01*
X156077000Y-122426528D01*
X156077000Y-122273472D01*
X156047141Y-122123357D01*
X155988569Y-121981952D01*
X155903536Y-121854691D01*
X155795309Y-121746464D01*
X155668048Y-121661431D01*
X155526643Y-121602859D01*
X155376528Y-121573000D01*
X155223472Y-121573000D01*
X155073357Y-121602859D01*
X154931952Y-121661431D01*
X154804691Y-121746464D01*
X154696464Y-121854691D01*
X154611431Y-121981952D01*
X154552859Y-122123357D01*
X154523000Y-122273472D01*
X123377000Y-122273472D01*
X123377000Y-121750000D01*
X123374560Y-121725224D01*
X123367333Y-121701399D01*
X123355597Y-121679443D01*
X123339803Y-121660197D01*
X123320557Y-121644403D01*
X123298601Y-121632667D01*
X123274776Y-121625440D01*
X123250000Y-121623000D01*
X115877000Y-121623000D01*
X115877000Y-119673472D01*
X144723000Y-119673472D01*
X144723000Y-119826528D01*
X144752859Y-119976643D01*
X144811431Y-120118048D01*
X144896464Y-120245309D01*
X145004691Y-120353536D01*
X145131952Y-120438569D01*
X145273357Y-120497141D01*
X145423472Y-120527000D01*
X145576528Y-120527000D01*
X145726643Y-120497141D01*
X145868048Y-120438569D01*
X145995309Y-120353536D01*
X146103536Y-120245309D01*
X146188569Y-120118048D01*
X146247141Y-119976643D01*
X146267662Y-119873472D01*
X161073000Y-119873472D01*
X161073000Y-120026528D01*
X161102859Y-120176643D01*
X161161431Y-120318048D01*
X161246464Y-120445309D01*
X161354691Y-120553536D01*
X161481952Y-120638569D01*
X161623357Y-120697141D01*
X161773472Y-120727000D01*
X161926528Y-120727000D01*
X162076643Y-120697141D01*
X162218048Y-120638569D01*
X162345309Y-120553536D01*
X162453536Y-120445309D01*
X162538569Y-120318048D01*
X162597141Y-120176643D01*
X162627000Y-120026528D01*
X162627000Y-119873472D01*
X162597141Y-119723357D01*
X162538569Y-119581952D01*
X162453536Y-119454691D01*
X162345309Y-119346464D01*
X162218048Y-119261431D01*
X162076643Y-119202859D01*
X161926528Y-119173000D01*
X161773472Y-119173000D01*
X161623357Y-119202859D01*
X161481952Y-119261431D01*
X161354691Y-119346464D01*
X161246464Y-119454691D01*
X161161431Y-119581952D01*
X161102859Y-119723357D01*
X161073000Y-119873472D01*
X146267662Y-119873472D01*
X146277000Y-119826528D01*
X146277000Y-119673472D01*
X146247141Y-119523357D01*
X146188569Y-119381952D01*
X146103536Y-119254691D01*
X145995309Y-119146464D01*
X145868048Y-119061431D01*
X145726643Y-119002859D01*
X145576528Y-118973000D01*
X145423472Y-118973000D01*
X145273357Y-119002859D01*
X145131952Y-119061431D01*
X145004691Y-119146464D01*
X144896464Y-119254691D01*
X144811431Y-119381952D01*
X144752859Y-119523357D01*
X144723000Y-119673472D01*
X115877000Y-119673472D01*
X115877000Y-114829905D01*
X145773000Y-114829905D01*
X145773000Y-115170095D01*
X145839368Y-115503747D01*
X145969553Y-115818041D01*
X146158552Y-116100898D01*
X146399102Y-116341448D01*
X146681959Y-116530447D01*
X146996253Y-116660632D01*
X147329905Y-116727000D01*
X147670095Y-116727000D01*
X148003747Y-116660632D01*
X148318041Y-116530447D01*
X148600898Y-116341448D01*
X148841448Y-116100898D01*
X149030447Y-115818041D01*
X149160632Y-115503747D01*
X149227000Y-115170095D01*
X149227000Y-114829905D01*
X149160632Y-114496253D01*
X149030447Y-114181959D01*
X148841448Y-113899102D01*
X148600898Y-113658552D01*
X148318041Y-113469553D01*
X148003747Y-113339368D01*
X147670095Y-113273000D01*
X147329905Y-113273000D01*
X146996253Y-113339368D01*
X146681959Y-113469553D01*
X146399102Y-113658552D01*
X146158552Y-113899102D01*
X145969553Y-114181959D01*
X145839368Y-114496253D01*
X145773000Y-114829905D01*
X115877000Y-114829905D01*
X115877000Y-112173472D01*
X174723000Y-112173472D01*
X174723000Y-112326528D01*
X174752859Y-112476643D01*
X174811431Y-112618048D01*
X174896464Y-112745309D01*
X175004691Y-112853536D01*
X175131952Y-112938569D01*
X175273357Y-112997141D01*
X175423472Y-113027000D01*
X175576528Y-113027000D01*
X175726643Y-112997141D01*
X175868048Y-112938569D01*
X175995309Y-112853536D01*
X176103536Y-112745309D01*
X176188569Y-112618048D01*
X176247141Y-112476643D01*
X176277000Y-112326528D01*
X176277000Y-112173472D01*
X176247141Y-112023357D01*
X176188569Y-111881952D01*
X176103536Y-111754691D01*
X175995309Y-111646464D01*
X175868048Y-111561431D01*
X175726643Y-111502859D01*
X175576528Y-111473000D01*
X175423472Y-111473000D01*
X175273357Y-111502859D01*
X175131952Y-111561431D01*
X175004691Y-111646464D01*
X174896464Y-111754691D01*
X174811431Y-111881952D01*
X174752859Y-112023357D01*
X174723000Y-112173472D01*
X115877000Y-112173472D01*
X115877000Y-109558472D01*
X175243000Y-109558472D01*
X175243000Y-109711528D01*
X175272859Y-109861643D01*
X175331431Y-110003048D01*
X175416464Y-110130309D01*
X175524691Y-110238536D01*
X175651952Y-110323569D01*
X175793357Y-110382141D01*
X175943472Y-110412000D01*
X176096528Y-110412000D01*
X176246643Y-110382141D01*
X176388048Y-110323569D01*
X176515309Y-110238536D01*
X176623536Y-110130309D01*
X176708569Y-110003048D01*
X176767141Y-109861643D01*
X176797000Y-109711528D01*
X176797000Y-109558472D01*
X176767141Y-109408357D01*
X176708569Y-109266952D01*
X176623536Y-109139691D01*
X176515309Y-109031464D01*
X176388048Y-108946431D01*
X176246643Y-108887859D01*
X176096528Y-108858000D01*
X175943472Y-108858000D01*
X175793357Y-108887859D01*
X175651952Y-108946431D01*
X175524691Y-109031464D01*
X175416464Y-109139691D01*
X175331431Y-109266952D01*
X175272859Y-109408357D01*
X175243000Y-109558472D01*
X115877000Y-109558472D01*
X115877000Y-105023472D01*
X121673000Y-105023472D01*
X121673000Y-105176528D01*
X121702859Y-105326643D01*
X121761431Y-105468048D01*
X121846464Y-105595309D01*
X121954691Y-105703536D01*
X122081952Y-105788569D01*
X122223357Y-105847141D01*
X122373472Y-105877000D01*
X122526528Y-105877000D01*
X122676643Y-105847141D01*
X122818048Y-105788569D01*
X122945309Y-105703536D01*
X123053536Y-105595309D01*
X123138569Y-105468048D01*
X123197141Y-105326643D01*
X123227000Y-105176528D01*
X123227000Y-105023472D01*
X123197141Y-104873357D01*
X123138569Y-104731952D01*
X123053536Y-104604691D01*
X122945309Y-104496464D01*
X122818048Y-104411431D01*
X122676643Y-104352859D01*
X122526528Y-104323000D01*
X122373472Y-104323000D01*
X122223357Y-104352859D01*
X122081952Y-104411431D01*
X121954691Y-104496464D01*
X121846464Y-104604691D01*
X121761431Y-104731952D01*
X121702859Y-104873357D01*
X121673000Y-105023472D01*
X115877000Y-105023472D01*
X115877000Y-103460472D01*
X141371000Y-103460472D01*
X141371000Y-103613528D01*
X141400859Y-103763643D01*
X141459431Y-103905048D01*
X141544464Y-104032309D01*
X141652691Y-104140536D01*
X141779952Y-104225569D01*
X141921357Y-104284141D01*
X142071472Y-104314000D01*
X142224528Y-104314000D01*
X142374643Y-104284141D01*
X142516048Y-104225569D01*
X142643309Y-104140536D01*
X142751536Y-104032309D01*
X142836569Y-103905048D01*
X142895141Y-103763643D01*
X142925000Y-103613528D01*
X142925000Y-103460472D01*
X142895141Y-103310357D01*
X142836569Y-103168952D01*
X142751536Y-103041691D01*
X142643309Y-102933464D01*
X142516048Y-102848431D01*
X142374643Y-102789859D01*
X142224528Y-102760000D01*
X142071472Y-102760000D01*
X141921357Y-102789859D01*
X141779952Y-102848431D01*
X141652691Y-102933464D01*
X141544464Y-103041691D01*
X141459431Y-103168952D01*
X141400859Y-103310357D01*
X141371000Y-103460472D01*
X115877000Y-103460472D01*
X115877000Y-100073472D01*
X118923000Y-100073472D01*
X118923000Y-100226528D01*
X118952859Y-100376643D01*
X119011431Y-100518048D01*
X119096464Y-100645309D01*
X119204691Y-100753536D01*
X119331952Y-100838569D01*
X119473357Y-100897141D01*
X119623472Y-100927000D01*
X119776528Y-100927000D01*
X119926643Y-100897141D01*
X120068048Y-100838569D01*
X120195309Y-100753536D01*
X120303536Y-100645309D01*
X120388569Y-100518048D01*
X120402890Y-100483472D01*
X136683000Y-100483472D01*
X136683000Y-100636528D01*
X136712859Y-100786643D01*
X136771431Y-100928048D01*
X136856464Y-101055309D01*
X136964691Y-101163536D01*
X137091952Y-101248569D01*
X137233357Y-101307141D01*
X137383472Y-101337000D01*
X137536528Y-101337000D01*
X137686643Y-101307141D01*
X137828048Y-101248569D01*
X137955309Y-101163536D01*
X138063536Y-101055309D01*
X138148569Y-100928048D01*
X138151707Y-100920472D01*
X146959000Y-100920472D01*
X146959000Y-101073528D01*
X146988859Y-101223643D01*
X147047431Y-101365048D01*
X147132464Y-101492309D01*
X147240691Y-101600536D01*
X147367952Y-101685569D01*
X147509357Y-101744141D01*
X147659472Y-101774000D01*
X147812528Y-101774000D01*
X147962643Y-101744141D01*
X148104048Y-101685569D01*
X148231309Y-101600536D01*
X148339536Y-101492309D01*
X148424569Y-101365048D01*
X148483141Y-101223643D01*
X148513000Y-101073528D01*
X148513000Y-100920472D01*
X148483141Y-100770357D01*
X148424569Y-100628952D01*
X148339536Y-100501691D01*
X148231309Y-100393464D01*
X148104048Y-100308431D01*
X147962643Y-100249859D01*
X147812528Y-100220000D01*
X147659472Y-100220000D01*
X147509357Y-100249859D01*
X147367952Y-100308431D01*
X147240691Y-100393464D01*
X147132464Y-100501691D01*
X147047431Y-100628952D01*
X146988859Y-100770357D01*
X146959000Y-100920472D01*
X138151707Y-100920472D01*
X138207141Y-100786643D01*
X138237000Y-100636528D01*
X138237000Y-100483472D01*
X138207141Y-100333357D01*
X138148569Y-100191952D01*
X138063536Y-100064691D01*
X137955309Y-99956464D01*
X137828048Y-99871431D01*
X137686643Y-99812859D01*
X137536528Y-99783000D01*
X137383472Y-99783000D01*
X137233357Y-99812859D01*
X137091952Y-99871431D01*
X136964691Y-99956464D01*
X136856464Y-100064691D01*
X136771431Y-100191952D01*
X136712859Y-100333357D01*
X136683000Y-100483472D01*
X120402890Y-100483472D01*
X120447141Y-100376643D01*
X120477000Y-100226528D01*
X120477000Y-100073472D01*
X120447141Y-99923357D01*
X120388569Y-99781952D01*
X120303536Y-99654691D01*
X120195309Y-99546464D01*
X120068048Y-99461431D01*
X119926643Y-99402859D01*
X119894533Y-99396472D01*
X145943000Y-99396472D01*
X145943000Y-99549528D01*
X145972859Y-99699643D01*
X146031431Y-99841048D01*
X146116464Y-99968309D01*
X146224691Y-100076536D01*
X146351952Y-100161569D01*
X146493357Y-100220141D01*
X146643472Y-100250000D01*
X146796528Y-100250000D01*
X146946643Y-100220141D01*
X147088048Y-100161569D01*
X147215309Y-100076536D01*
X147323536Y-99968309D01*
X147408569Y-99841048D01*
X147467141Y-99699643D01*
X147497000Y-99549528D01*
X147497000Y-99396472D01*
X147467141Y-99246357D01*
X147408569Y-99104952D01*
X147323536Y-98977691D01*
X147215309Y-98869464D01*
X147088048Y-98784431D01*
X146946643Y-98725859D01*
X146796528Y-98696000D01*
X146643472Y-98696000D01*
X146493357Y-98725859D01*
X146351952Y-98784431D01*
X146224691Y-98869464D01*
X146116464Y-98977691D01*
X146031431Y-99104952D01*
X145972859Y-99246357D01*
X145943000Y-99396472D01*
X119894533Y-99396472D01*
X119776528Y-99373000D01*
X119623472Y-99373000D01*
X119473357Y-99402859D01*
X119331952Y-99461431D01*
X119204691Y-99546464D01*
X119096464Y-99654691D01*
X119011431Y-99781952D01*
X118952859Y-99923357D01*
X118923000Y-100073472D01*
X115877000Y-100073472D01*
X115877000Y-98380472D01*
X141879000Y-98380472D01*
X141879000Y-98533528D01*
X141908859Y-98683643D01*
X141967431Y-98825048D01*
X142052464Y-98952309D01*
X142160691Y-99060536D01*
X142287952Y-99145569D01*
X142429357Y-99204141D01*
X142579472Y-99234000D01*
X142732528Y-99234000D01*
X142882643Y-99204141D01*
X143024048Y-99145569D01*
X143151309Y-99060536D01*
X143259536Y-98952309D01*
X143344569Y-98825048D01*
X143403141Y-98683643D01*
X143433000Y-98533528D01*
X143433000Y-98380472D01*
X143403141Y-98230357D01*
X143344569Y-98088952D01*
X143259536Y-97961691D01*
X143151309Y-97853464D01*
X143031593Y-97773472D01*
X168573000Y-97773472D01*
X168573000Y-97926528D01*
X168602859Y-98076643D01*
X168661431Y-98218048D01*
X168746464Y-98345309D01*
X168854691Y-98453536D01*
X168981952Y-98538569D01*
X169123357Y-98597141D01*
X169273472Y-98627000D01*
X169426528Y-98627000D01*
X169576643Y-98597141D01*
X169718048Y-98538569D01*
X169845309Y-98453536D01*
X169953536Y-98345309D01*
X170038569Y-98218048D01*
X170097141Y-98076643D01*
X170127000Y-97926528D01*
X170127000Y-97773472D01*
X170107110Y-97673472D01*
X174223000Y-97673472D01*
X174223000Y-97826528D01*
X174252859Y-97976643D01*
X174311431Y-98118048D01*
X174396464Y-98245309D01*
X174504691Y-98353536D01*
X174631952Y-98438569D01*
X174773357Y-98497141D01*
X174923472Y-98527000D01*
X175076528Y-98527000D01*
X175226643Y-98497141D01*
X175368048Y-98438569D01*
X175495309Y-98353536D01*
X175603536Y-98245309D01*
X175688569Y-98118048D01*
X175747141Y-97976643D01*
X175777000Y-97826528D01*
X175777000Y-97673472D01*
X175747141Y-97523357D01*
X175688569Y-97381952D01*
X175603536Y-97254691D01*
X175495309Y-97146464D01*
X175368048Y-97061431D01*
X175226643Y-97002859D01*
X175076528Y-96973000D01*
X174923472Y-96973000D01*
X174773357Y-97002859D01*
X174631952Y-97061431D01*
X174504691Y-97146464D01*
X174396464Y-97254691D01*
X174311431Y-97381952D01*
X174252859Y-97523357D01*
X174223000Y-97673472D01*
X170107110Y-97673472D01*
X170097141Y-97623357D01*
X170038569Y-97481952D01*
X169953536Y-97354691D01*
X169845309Y-97246464D01*
X169718048Y-97161431D01*
X169576643Y-97102859D01*
X169426528Y-97073000D01*
X169273472Y-97073000D01*
X169123357Y-97102859D01*
X168981952Y-97161431D01*
X168854691Y-97246464D01*
X168746464Y-97354691D01*
X168661431Y-97481952D01*
X168602859Y-97623357D01*
X168573000Y-97773472D01*
X143031593Y-97773472D01*
X143024048Y-97768431D01*
X142882643Y-97709859D01*
X142732528Y-97680000D01*
X142579472Y-97680000D01*
X142429357Y-97709859D01*
X142287952Y-97768431D01*
X142160691Y-97853464D01*
X142052464Y-97961691D01*
X141967431Y-98088952D01*
X141908859Y-98230357D01*
X141879000Y-98380472D01*
X115877000Y-98380472D01*
X115877000Y-96384472D01*
X160215000Y-96384472D01*
X160215000Y-96537528D01*
X160244859Y-96687643D01*
X160303431Y-96829048D01*
X160388464Y-96956309D01*
X160496691Y-97064536D01*
X160623952Y-97149569D01*
X160765357Y-97208141D01*
X160915472Y-97238000D01*
X161068528Y-97238000D01*
X161218643Y-97208141D01*
X161360048Y-97149569D01*
X161487309Y-97064536D01*
X161595536Y-96956309D01*
X161680569Y-96829048D01*
X161739141Y-96687643D01*
X161769000Y-96537528D01*
X161769000Y-96384472D01*
X161739141Y-96234357D01*
X161680569Y-96092952D01*
X161595536Y-95965691D01*
X161487309Y-95857464D01*
X161360048Y-95772431D01*
X161218643Y-95713859D01*
X161068528Y-95684000D01*
X160915472Y-95684000D01*
X160765357Y-95713859D01*
X160623952Y-95772431D01*
X160496691Y-95857464D01*
X160388464Y-95965691D01*
X160303431Y-96092952D01*
X160244859Y-96234357D01*
X160215000Y-96384472D01*
X115877000Y-96384472D01*
X115877000Y-94479472D01*
X175582000Y-94479472D01*
X175582000Y-94632528D01*
X175611859Y-94782643D01*
X175670431Y-94924048D01*
X175755464Y-95051309D01*
X175863691Y-95159536D01*
X175990952Y-95244569D01*
X176132357Y-95303141D01*
X176282472Y-95333000D01*
X176435528Y-95333000D01*
X176585643Y-95303141D01*
X176727048Y-95244569D01*
X176854309Y-95159536D01*
X176962536Y-95051309D01*
X177047569Y-94924048D01*
X177106141Y-94782643D01*
X177136000Y-94632528D01*
X177136000Y-94479472D01*
X177106141Y-94329357D01*
X177047569Y-94187952D01*
X176962536Y-94060691D01*
X176854309Y-93952464D01*
X176727048Y-93867431D01*
X176585643Y-93808859D01*
X176435528Y-93779000D01*
X176282472Y-93779000D01*
X176132357Y-93808859D01*
X175990952Y-93867431D01*
X175863691Y-93952464D01*
X175755464Y-94060691D01*
X175670431Y-94187952D01*
X175611859Y-94329357D01*
X175582000Y-94479472D01*
X115877000Y-94479472D01*
X115877000Y-93373472D01*
X118273000Y-93373472D01*
X118273000Y-93526528D01*
X118302859Y-93676643D01*
X118361431Y-93818048D01*
X118446464Y-93945309D01*
X118554691Y-94053536D01*
X118681952Y-94138569D01*
X118823357Y-94197141D01*
X118973472Y-94227000D01*
X119126528Y-94227000D01*
X119276643Y-94197141D01*
X119418048Y-94138569D01*
X119545309Y-94053536D01*
X119653536Y-93945309D01*
X119738569Y-93818048D01*
X119797141Y-93676643D01*
X119827000Y-93526528D01*
X119827000Y-93373472D01*
X119797141Y-93223357D01*
X119738569Y-93081952D01*
X119653536Y-92954691D01*
X119553373Y-92854528D01*
X137023000Y-92854528D01*
X137023000Y-93145472D01*
X137079760Y-93430825D01*
X137191099Y-93699622D01*
X137352739Y-93941533D01*
X137558467Y-94147261D01*
X137800378Y-94308901D01*
X138069175Y-94420240D01*
X138354528Y-94477000D01*
X138645472Y-94477000D01*
X138930825Y-94420240D01*
X139199622Y-94308901D01*
X139441533Y-94147261D01*
X139647261Y-93941533D01*
X139808901Y-93699622D01*
X139920240Y-93430825D01*
X139977000Y-93145472D01*
X139977000Y-92854528D01*
X155023000Y-92854528D01*
X155023000Y-93145472D01*
X155079760Y-93430825D01*
X155191099Y-93699622D01*
X155352739Y-93941533D01*
X155558467Y-94147261D01*
X155800378Y-94308901D01*
X156069175Y-94420240D01*
X156354528Y-94477000D01*
X156645472Y-94477000D01*
X156930825Y-94420240D01*
X157199622Y-94308901D01*
X157441533Y-94147261D01*
X157647261Y-93941533D01*
X157808901Y-93699622D01*
X157920240Y-93430825D01*
X157977000Y-93145472D01*
X157977000Y-92854528D01*
X157920240Y-92569175D01*
X157808901Y-92300378D01*
X157647261Y-92058467D01*
X157441533Y-91852739D01*
X157199622Y-91691099D01*
X156930825Y-91579760D01*
X156645472Y-91523000D01*
X156354528Y-91523000D01*
X156069175Y-91579760D01*
X155800378Y-91691099D01*
X155558467Y-91852739D01*
X155352739Y-92058467D01*
X155191099Y-92300378D01*
X155079760Y-92569175D01*
X155023000Y-92854528D01*
X139977000Y-92854528D01*
X139920240Y-92569175D01*
X139808901Y-92300378D01*
X139647261Y-92058467D01*
X139441533Y-91852739D01*
X139199622Y-91691099D01*
X138930825Y-91579760D01*
X138645472Y-91523000D01*
X138354528Y-91523000D01*
X138069175Y-91579760D01*
X137800378Y-91691099D01*
X137558467Y-91852739D01*
X137352739Y-92058467D01*
X137191099Y-92300378D01*
X137079760Y-92569175D01*
X137023000Y-92854528D01*
X119553373Y-92854528D01*
X119545309Y-92846464D01*
X119418048Y-92761431D01*
X119276643Y-92702859D01*
X119126528Y-92673000D01*
X118973472Y-92673000D01*
X118823357Y-92702859D01*
X118681952Y-92761431D01*
X118554691Y-92846464D01*
X118446464Y-92954691D01*
X118361431Y-93081952D01*
X118302859Y-93223357D01*
X118273000Y-93373472D01*
X115877000Y-93373472D01*
X115877000Y-88377000D01*
X123250000Y-88377000D01*
X123274776Y-88374560D01*
X123298601Y-88367333D01*
X123320557Y-88355597D01*
X123339803Y-88339803D01*
X123355597Y-88320557D01*
X123367333Y-88298601D01*
X123374560Y-88274776D01*
X123377000Y-88250000D01*
X123377000Y-87829905D01*
X141773000Y-87829905D01*
X141773000Y-88170095D01*
X141839368Y-88503747D01*
X141969553Y-88818041D01*
X142158552Y-89100898D01*
X142399102Y-89341448D01*
X142681959Y-89530447D01*
X142996253Y-89660632D01*
X143329905Y-89727000D01*
X143670095Y-89727000D01*
X144003747Y-89660632D01*
X144318041Y-89530447D01*
X144600898Y-89341448D01*
X144841448Y-89100898D01*
X145030447Y-88818041D01*
X145160632Y-88503747D01*
X145227000Y-88170095D01*
X145227000Y-87829905D01*
X149773000Y-87829905D01*
X149773000Y-88170095D01*
X149839368Y-88503747D01*
X149969553Y-88818041D01*
X150158552Y-89100898D01*
X150399102Y-89341448D01*
X150681959Y-89530447D01*
X150996253Y-89660632D01*
X151329905Y-89727000D01*
X151670095Y-89727000D01*
X152003747Y-89660632D01*
X152318041Y-89530447D01*
X152600898Y-89341448D01*
X152841448Y-89100898D01*
X153030447Y-88818041D01*
X153101548Y-88646387D01*
X161013000Y-88646387D01*
X161013000Y-88853613D01*
X161053428Y-89056857D01*
X161132730Y-89248309D01*
X161247858Y-89420611D01*
X161394389Y-89567142D01*
X161566691Y-89682270D01*
X161758143Y-89761572D01*
X161961387Y-89802000D01*
X162168613Y-89802000D01*
X162371857Y-89761572D01*
X162563309Y-89682270D01*
X162735611Y-89567142D01*
X162882142Y-89420611D01*
X162997270Y-89248309D01*
X163076572Y-89056857D01*
X163117000Y-88853613D01*
X163117000Y-88646387D01*
X172883000Y-88646387D01*
X172883000Y-88853613D01*
X172923428Y-89056857D01*
X173002730Y-89248309D01*
X173117858Y-89420611D01*
X173264389Y-89567142D01*
X173436691Y-89682270D01*
X173628143Y-89761572D01*
X173831387Y-89802000D01*
X174038613Y-89802000D01*
X174241857Y-89761572D01*
X174433309Y-89682270D01*
X174605611Y-89567142D01*
X174752142Y-89420611D01*
X174867270Y-89248309D01*
X174946572Y-89056857D01*
X174987000Y-88853613D01*
X174987000Y-88646387D01*
X174946572Y-88443143D01*
X174867270Y-88251691D01*
X174752142Y-88079389D01*
X174605611Y-87932858D01*
X174433309Y-87817730D01*
X174241857Y-87738428D01*
X174038613Y-87698000D01*
X173831387Y-87698000D01*
X173628143Y-87738428D01*
X173436691Y-87817730D01*
X173264389Y-87932858D01*
X173117858Y-88079389D01*
X173002730Y-88251691D01*
X172923428Y-88443143D01*
X172883000Y-88646387D01*
X163117000Y-88646387D01*
X163076572Y-88443143D01*
X162997270Y-88251691D01*
X162882142Y-88079389D01*
X162735611Y-87932858D01*
X162563309Y-87817730D01*
X162371857Y-87738428D01*
X162168613Y-87698000D01*
X161961387Y-87698000D01*
X161758143Y-87738428D01*
X161566691Y-87817730D01*
X161394389Y-87932858D01*
X161247858Y-88079389D01*
X161132730Y-88251691D01*
X161053428Y-88443143D01*
X161013000Y-88646387D01*
X153101548Y-88646387D01*
X153160632Y-88503747D01*
X153227000Y-88170095D01*
X153227000Y-87829905D01*
X153160632Y-87496253D01*
X153030447Y-87181959D01*
X152841448Y-86899102D01*
X152600898Y-86658552D01*
X152318041Y-86469553D01*
X152003747Y-86339368D01*
X151670095Y-86273000D01*
X151329905Y-86273000D01*
X150996253Y-86339368D01*
X150681959Y-86469553D01*
X150399102Y-86658552D01*
X150158552Y-86899102D01*
X149969553Y-87181959D01*
X149839368Y-87496253D01*
X149773000Y-87829905D01*
X145227000Y-87829905D01*
X145160632Y-87496253D01*
X145030447Y-87181959D01*
X144841448Y-86899102D01*
X144600898Y-86658552D01*
X144318041Y-86469553D01*
X144003747Y-86339368D01*
X143670095Y-86273000D01*
X143329905Y-86273000D01*
X142996253Y-86339368D01*
X142681959Y-86469553D01*
X142399102Y-86658552D01*
X142158552Y-86899102D01*
X141969553Y-87181959D01*
X141839368Y-87496253D01*
X141773000Y-87829905D01*
X123377000Y-87829905D01*
X123377000Y-85884076D01*
X161438000Y-85884076D01*
X161438000Y-86115924D01*
X161483231Y-86343318D01*
X161571956Y-86557519D01*
X161700764Y-86750294D01*
X161864706Y-86914236D01*
X162057481Y-87043044D01*
X162271682Y-87131769D01*
X162499076Y-87177000D01*
X162730924Y-87177000D01*
X162958318Y-87131769D01*
X163172519Y-87043044D01*
X163365294Y-86914236D01*
X163529236Y-86750294D01*
X163658044Y-86557519D01*
X163746769Y-86343318D01*
X163792000Y-86115924D01*
X163792000Y-85884076D01*
X163746769Y-85656682D01*
X163741712Y-85644472D01*
X169379000Y-85644472D01*
X169379000Y-85797528D01*
X169408859Y-85947643D01*
X169467431Y-86089048D01*
X169552464Y-86216309D01*
X169660691Y-86324536D01*
X169787952Y-86409569D01*
X169929357Y-86468141D01*
X170079472Y-86498000D01*
X170232528Y-86498000D01*
X170382643Y-86468141D01*
X170524048Y-86409569D01*
X170651309Y-86324536D01*
X170759536Y-86216309D01*
X170844569Y-86089048D01*
X170903141Y-85947643D01*
X170915784Y-85884076D01*
X172208000Y-85884076D01*
X172208000Y-86115924D01*
X172253231Y-86343318D01*
X172341956Y-86557519D01*
X172470764Y-86750294D01*
X172634706Y-86914236D01*
X172827481Y-87043044D01*
X173041682Y-87131769D01*
X173269076Y-87177000D01*
X173500924Y-87177000D01*
X173728318Y-87131769D01*
X173942519Y-87043044D01*
X174135294Y-86914236D01*
X174299236Y-86750294D01*
X174428044Y-86557519D01*
X174516769Y-86343318D01*
X174562000Y-86115924D01*
X174562000Y-85884076D01*
X174516769Y-85656682D01*
X174428044Y-85442481D01*
X174299236Y-85249706D01*
X174135294Y-85085764D01*
X173942519Y-84956956D01*
X173728318Y-84868231D01*
X173500924Y-84823000D01*
X173269076Y-84823000D01*
X173041682Y-84868231D01*
X172827481Y-84956956D01*
X172634706Y-85085764D01*
X172470764Y-85249706D01*
X172341956Y-85442481D01*
X172253231Y-85656682D01*
X172208000Y-85884076D01*
X170915784Y-85884076D01*
X170933000Y-85797528D01*
X170933000Y-85644472D01*
X170903141Y-85494357D01*
X170844569Y-85352952D01*
X170759536Y-85225691D01*
X170651309Y-85117464D01*
X170524048Y-85032431D01*
X170382643Y-84973859D01*
X170232528Y-84944000D01*
X170079472Y-84944000D01*
X169929357Y-84973859D01*
X169787952Y-85032431D01*
X169660691Y-85117464D01*
X169552464Y-85225691D01*
X169467431Y-85352952D01*
X169408859Y-85494357D01*
X169379000Y-85644472D01*
X163741712Y-85644472D01*
X163658044Y-85442481D01*
X163529236Y-85249706D01*
X163365294Y-85085764D01*
X163172519Y-84956956D01*
X162958318Y-84868231D01*
X162730924Y-84823000D01*
X162499076Y-84823000D01*
X162271682Y-84868231D01*
X162057481Y-84956956D01*
X161864706Y-85085764D01*
X161700764Y-85249706D01*
X161571956Y-85442481D01*
X161483231Y-85656682D01*
X161438000Y-85884076D01*
X123377000Y-85884076D01*
X123377000Y-83146387D01*
X161013000Y-83146387D01*
X161013000Y-83353613D01*
X161053428Y-83556857D01*
X161132730Y-83748309D01*
X161247858Y-83920611D01*
X161394389Y-84067142D01*
X161566691Y-84182270D01*
X161758143Y-84261572D01*
X161961387Y-84302000D01*
X162168613Y-84302000D01*
X162371857Y-84261572D01*
X162563309Y-84182270D01*
X162735611Y-84067142D01*
X162882142Y-83920611D01*
X162997270Y-83748309D01*
X163076572Y-83556857D01*
X163117000Y-83353613D01*
X163117000Y-83146387D01*
X172883000Y-83146387D01*
X172883000Y-83353613D01*
X172923428Y-83556857D01*
X173002730Y-83748309D01*
X173117858Y-83920611D01*
X173264389Y-84067142D01*
X173436691Y-84182270D01*
X173628143Y-84261572D01*
X173831387Y-84302000D01*
X174038613Y-84302000D01*
X174241857Y-84261572D01*
X174433309Y-84182270D01*
X174605611Y-84067142D01*
X174752142Y-83920611D01*
X174867270Y-83748309D01*
X174946572Y-83556857D01*
X174987000Y-83353613D01*
X174987000Y-83146387D01*
X174946572Y-82943143D01*
X174867270Y-82751691D01*
X174752142Y-82579389D01*
X174605611Y-82432858D01*
X174433309Y-82317730D01*
X174241857Y-82238428D01*
X174038613Y-82198000D01*
X173831387Y-82198000D01*
X173628143Y-82238428D01*
X173436691Y-82317730D01*
X173264389Y-82432858D01*
X173117858Y-82579389D01*
X173002730Y-82751691D01*
X172923428Y-82943143D01*
X172883000Y-83146387D01*
X163117000Y-83146387D01*
X163076572Y-82943143D01*
X162997270Y-82751691D01*
X162882142Y-82579389D01*
X162735611Y-82432858D01*
X162563309Y-82317730D01*
X162371857Y-82238428D01*
X162168613Y-82198000D01*
X161961387Y-82198000D01*
X161758143Y-82238428D01*
X161566691Y-82317730D01*
X161394389Y-82432858D01*
X161247858Y-82579389D01*
X161132730Y-82751691D01*
X161053428Y-82943143D01*
X161013000Y-83146387D01*
X123377000Y-83146387D01*
X123377000Y-81961472D01*
X170473000Y-81961472D01*
X170473000Y-82114528D01*
X170502859Y-82264643D01*
X170561431Y-82406048D01*
X170646464Y-82533309D01*
X170754691Y-82641536D01*
X170881952Y-82726569D01*
X171023357Y-82785141D01*
X171173472Y-82815000D01*
X171326528Y-82815000D01*
X171476643Y-82785141D01*
X171618048Y-82726569D01*
X171745309Y-82641536D01*
X171853536Y-82533309D01*
X171938569Y-82406048D01*
X171997141Y-82264643D01*
X172027000Y-82114528D01*
X172027000Y-81961472D01*
X171997141Y-81811357D01*
X171938569Y-81669952D01*
X171853536Y-81542691D01*
X171745309Y-81434464D01*
X171618048Y-81349431D01*
X171476643Y-81290859D01*
X171326528Y-81261000D01*
X171173472Y-81261000D01*
X171023357Y-81290859D01*
X170881952Y-81349431D01*
X170754691Y-81434464D01*
X170646464Y-81542691D01*
X170561431Y-81669952D01*
X170502859Y-81811357D01*
X170473000Y-81961472D01*
X123377000Y-81961472D01*
X123377000Y-80877000D01*
X177697394Y-80877000D01*
X179123000Y-82302606D01*
M02*
