G04 #@! TF.GenerationSoftware,KiCad,Pcbnew,(5.1.5-0)*
G04 #@! TF.CreationDate,2020-12-17T20:40:07-08:00*
G04 #@! TF.ProjectId,Luminometer_ADC_concept,4c756d69-6e6f-46d6-9574-65725f414443,rev?*
G04 #@! TF.SameCoordinates,Original*
G04 #@! TF.FileFunction,Legend,Bot*
G04 #@! TF.FilePolarity,Positive*
%FSLAX46Y46*%
G04 Gerber Fmt 4.6, Leading zero omitted, Abs format (unit mm)*
G04 Created by KiCad (PCBNEW (5.1.5-0)) date 2020-12-17 20:40:07*
%MOMM*%
%LPD*%
G04 APERTURE LIST*
%ADD10C,0.120000*%
%ADD11C,0.100000*%
%ADD12C,0.010000*%
%ADD13C,0.150000*%
G04 APERTURE END LIST*
D10*
X122050000Y-116350000D02*
X123450000Y-117050000D01*
X123450000Y-118050000D02*
X121950000Y-118550000D01*
X124750000Y-119050000D02*
X124750000Y-120565475D01*
X126050000Y-118050000D02*
X127550000Y-118550000D01*
X126050000Y-117050000D02*
X127350000Y-116350000D01*
D11*
X152625476Y-102607142D02*
X152673095Y-102654761D01*
X152815952Y-102702380D01*
X152911190Y-102702380D01*
X153054047Y-102654761D01*
X153149285Y-102559523D01*
X153196904Y-102464285D01*
X153244523Y-102273809D01*
X153244523Y-102130952D01*
X153196904Y-101940476D01*
X153149285Y-101845238D01*
X153054047Y-101750000D01*
X152911190Y-101702380D01*
X152815952Y-101702380D01*
X152673095Y-101750000D01*
X152625476Y-101797619D01*
X151768333Y-102702380D02*
X151768333Y-102178571D01*
X151815952Y-102083333D01*
X151911190Y-102035714D01*
X152101666Y-102035714D01*
X152196904Y-102083333D01*
X151768333Y-102654761D02*
X151863571Y-102702380D01*
X152101666Y-102702380D01*
X152196904Y-102654761D01*
X152244523Y-102559523D01*
X152244523Y-102464285D01*
X152196904Y-102369047D01*
X152101666Y-102321428D01*
X151863571Y-102321428D01*
X151768333Y-102273809D01*
X150863571Y-102035714D02*
X150863571Y-102702380D01*
X151292142Y-102035714D02*
X151292142Y-102559523D01*
X151244523Y-102654761D01*
X151149285Y-102702380D01*
X151006428Y-102702380D01*
X150911190Y-102654761D01*
X150863571Y-102607142D01*
X150530238Y-102035714D02*
X150149285Y-102035714D01*
X150387380Y-101702380D02*
X150387380Y-102559523D01*
X150339761Y-102654761D01*
X150244523Y-102702380D01*
X150149285Y-102702380D01*
X149815952Y-102702380D02*
X149815952Y-102035714D01*
X149815952Y-101702380D02*
X149863571Y-101750000D01*
X149815952Y-101797619D01*
X149768333Y-101750000D01*
X149815952Y-101702380D01*
X149815952Y-101797619D01*
X149196904Y-102702380D02*
X149292142Y-102654761D01*
X149339761Y-102607142D01*
X149387380Y-102511904D01*
X149387380Y-102226190D01*
X149339761Y-102130952D01*
X149292142Y-102083333D01*
X149196904Y-102035714D01*
X149054047Y-102035714D01*
X148958809Y-102083333D01*
X148911190Y-102130952D01*
X148863571Y-102226190D01*
X148863571Y-102511904D01*
X148911190Y-102607142D01*
X148958809Y-102654761D01*
X149054047Y-102702380D01*
X149196904Y-102702380D01*
X148435000Y-102035714D02*
X148435000Y-102702380D01*
X148435000Y-102130952D02*
X148387380Y-102083333D01*
X148292142Y-102035714D01*
X148149285Y-102035714D01*
X148054047Y-102083333D01*
X148006428Y-102178571D01*
X148006428Y-102702380D01*
X147530238Y-102607142D02*
X147482619Y-102654761D01*
X147530238Y-102702380D01*
X147577857Y-102654761D01*
X147530238Y-102607142D01*
X147530238Y-102702380D01*
X147530238Y-102321428D02*
X147577857Y-101750000D01*
X147530238Y-101702380D01*
X147482619Y-101750000D01*
X147530238Y-102321428D01*
X147530238Y-101702380D01*
X146339761Y-102654761D02*
X146196904Y-102702380D01*
X145958809Y-102702380D01*
X145863571Y-102654761D01*
X145815952Y-102607142D01*
X145768333Y-102511904D01*
X145768333Y-102416666D01*
X145815952Y-102321428D01*
X145863571Y-102273809D01*
X145958809Y-102226190D01*
X146149285Y-102178571D01*
X146244523Y-102130952D01*
X146292142Y-102083333D01*
X146339761Y-101988095D01*
X146339761Y-101892857D01*
X146292142Y-101797619D01*
X146244523Y-101750000D01*
X146149285Y-101702380D01*
X145911190Y-101702380D01*
X145768333Y-101750000D01*
X144958809Y-102654761D02*
X145054047Y-102702380D01*
X145244523Y-102702380D01*
X145339761Y-102654761D01*
X145387380Y-102559523D01*
X145387380Y-102178571D01*
X145339761Y-102083333D01*
X145244523Y-102035714D01*
X145054047Y-102035714D01*
X144958809Y-102083333D01*
X144911190Y-102178571D01*
X144911190Y-102273809D01*
X145387380Y-102369047D01*
X144482619Y-102035714D02*
X144482619Y-102702380D01*
X144482619Y-102130952D02*
X144435000Y-102083333D01*
X144339761Y-102035714D01*
X144196904Y-102035714D01*
X144101666Y-102083333D01*
X144054047Y-102178571D01*
X144054047Y-102702380D01*
X143625476Y-102654761D02*
X143530238Y-102702380D01*
X143339761Y-102702380D01*
X143244523Y-102654761D01*
X143196904Y-102559523D01*
X143196904Y-102511904D01*
X143244523Y-102416666D01*
X143339761Y-102369047D01*
X143482619Y-102369047D01*
X143577857Y-102321428D01*
X143625476Y-102226190D01*
X143625476Y-102178571D01*
X143577857Y-102083333D01*
X143482619Y-102035714D01*
X143339761Y-102035714D01*
X143244523Y-102083333D01*
X142625476Y-102702380D02*
X142720714Y-102654761D01*
X142768333Y-102607142D01*
X142815952Y-102511904D01*
X142815952Y-102226190D01*
X142768333Y-102130952D01*
X142720714Y-102083333D01*
X142625476Y-102035714D01*
X142482619Y-102035714D01*
X142387380Y-102083333D01*
X142339761Y-102130952D01*
X142292142Y-102226190D01*
X142292142Y-102511904D01*
X142339761Y-102607142D01*
X142387380Y-102654761D01*
X142482619Y-102702380D01*
X142625476Y-102702380D01*
X141863571Y-102702380D02*
X141863571Y-102035714D01*
X141863571Y-102226190D02*
X141815952Y-102130952D01*
X141768333Y-102083333D01*
X141673095Y-102035714D01*
X141577857Y-102035714D01*
X141292142Y-102654761D02*
X141196904Y-102702380D01*
X141006428Y-102702380D01*
X140911190Y-102654761D01*
X140863571Y-102559523D01*
X140863571Y-102511904D01*
X140911190Y-102416666D01*
X141006428Y-102369047D01*
X141149285Y-102369047D01*
X141244523Y-102321428D01*
X141292142Y-102226190D01*
X141292142Y-102178571D01*
X141244523Y-102083333D01*
X141149285Y-102035714D01*
X141006428Y-102035714D01*
X140911190Y-102083333D01*
X152768333Y-104302380D02*
X152768333Y-103778571D01*
X152815952Y-103683333D01*
X152911190Y-103635714D01*
X153101666Y-103635714D01*
X153196904Y-103683333D01*
X152768333Y-104254761D02*
X152863571Y-104302380D01*
X153101666Y-104302380D01*
X153196904Y-104254761D01*
X153244523Y-104159523D01*
X153244523Y-104064285D01*
X153196904Y-103969047D01*
X153101666Y-103921428D01*
X152863571Y-103921428D01*
X152768333Y-103873809D01*
X152292142Y-104302380D02*
X152292142Y-103635714D01*
X152292142Y-103826190D02*
X152244523Y-103730952D01*
X152196904Y-103683333D01*
X152101666Y-103635714D01*
X152006428Y-103635714D01*
X151292142Y-104254761D02*
X151387380Y-104302380D01*
X151577857Y-104302380D01*
X151673095Y-104254761D01*
X151720714Y-104159523D01*
X151720714Y-103778571D01*
X151673095Y-103683333D01*
X151577857Y-103635714D01*
X151387380Y-103635714D01*
X151292142Y-103683333D01*
X151244523Y-103778571D01*
X151244523Y-103873809D01*
X151720714Y-103969047D01*
X149625476Y-104302380D02*
X149625476Y-103302380D01*
X149625476Y-104254761D02*
X149720714Y-104302380D01*
X149911190Y-104302380D01*
X150006428Y-104254761D01*
X150054047Y-104207142D01*
X150101666Y-104111904D01*
X150101666Y-103826190D01*
X150054047Y-103730952D01*
X150006428Y-103683333D01*
X149911190Y-103635714D01*
X149720714Y-103635714D01*
X149625476Y-103683333D01*
X148768333Y-104254761D02*
X148863571Y-104302380D01*
X149054047Y-104302380D01*
X149149285Y-104254761D01*
X149196904Y-104159523D01*
X149196904Y-103778571D01*
X149149285Y-103683333D01*
X149054047Y-103635714D01*
X148863571Y-103635714D01*
X148768333Y-103683333D01*
X148720714Y-103778571D01*
X148720714Y-103873809D01*
X149196904Y-103969047D01*
X148149285Y-104302380D02*
X148244523Y-104254761D01*
X148292142Y-104159523D01*
X148292142Y-103302380D01*
X147768333Y-104302380D02*
X147768333Y-103635714D01*
X147768333Y-103302380D02*
X147815952Y-103350000D01*
X147768333Y-103397619D01*
X147720714Y-103350000D01*
X147768333Y-103302380D01*
X147768333Y-103397619D01*
X146863571Y-104254761D02*
X146958809Y-104302380D01*
X147149285Y-104302380D01*
X147244523Y-104254761D01*
X147292142Y-104207142D01*
X147339761Y-104111904D01*
X147339761Y-103826190D01*
X147292142Y-103730952D01*
X147244523Y-103683333D01*
X147149285Y-103635714D01*
X146958809Y-103635714D01*
X146863571Y-103683333D01*
X146006428Y-104302380D02*
X146006428Y-103778571D01*
X146054047Y-103683333D01*
X146149285Y-103635714D01*
X146339761Y-103635714D01*
X146435000Y-103683333D01*
X146006428Y-104254761D02*
X146101666Y-104302380D01*
X146339761Y-104302380D01*
X146435000Y-104254761D01*
X146482619Y-104159523D01*
X146482619Y-104064285D01*
X146435000Y-103969047D01*
X146339761Y-103921428D01*
X146101666Y-103921428D01*
X146006428Y-103873809D01*
X145673095Y-103635714D02*
X145292142Y-103635714D01*
X145530238Y-103302380D02*
X145530238Y-104159523D01*
X145482619Y-104254761D01*
X145387380Y-104302380D01*
X145292142Y-104302380D01*
X144577857Y-104254761D02*
X144673095Y-104302380D01*
X144863571Y-104302380D01*
X144958809Y-104254761D01*
X145006428Y-104159523D01*
X145006428Y-103778571D01*
X144958809Y-103683333D01*
X144863571Y-103635714D01*
X144673095Y-103635714D01*
X144577857Y-103683333D01*
X144530238Y-103778571D01*
X144530238Y-103873809D01*
X145006428Y-103969047D01*
X144101666Y-104207142D02*
X144054047Y-104254761D01*
X144101666Y-104302380D01*
X144149285Y-104254761D01*
X144101666Y-104207142D01*
X144101666Y-104302380D01*
X152625476Y-105807142D02*
X152673095Y-105854761D01*
X152815952Y-105902380D01*
X152911190Y-105902380D01*
X153054047Y-105854761D01*
X153149285Y-105759523D01*
X153196904Y-105664285D01*
X153244523Y-105473809D01*
X153244523Y-105330952D01*
X153196904Y-105140476D01*
X153149285Y-105045238D01*
X153054047Y-104950000D01*
X152911190Y-104902380D01*
X152815952Y-104902380D01*
X152673095Y-104950000D01*
X152625476Y-104997619D01*
X152054047Y-105902380D02*
X152149285Y-105854761D01*
X152196904Y-105759523D01*
X152196904Y-104902380D01*
X151292142Y-105854761D02*
X151387380Y-105902380D01*
X151577857Y-105902380D01*
X151673095Y-105854761D01*
X151720714Y-105759523D01*
X151720714Y-105378571D01*
X151673095Y-105283333D01*
X151577857Y-105235714D01*
X151387380Y-105235714D01*
X151292142Y-105283333D01*
X151244523Y-105378571D01*
X151244523Y-105473809D01*
X151720714Y-105569047D01*
X150387380Y-105902380D02*
X150387380Y-105378571D01*
X150435000Y-105283333D01*
X150530238Y-105235714D01*
X150720714Y-105235714D01*
X150815952Y-105283333D01*
X150387380Y-105854761D02*
X150482619Y-105902380D01*
X150720714Y-105902380D01*
X150815952Y-105854761D01*
X150863571Y-105759523D01*
X150863571Y-105664285D01*
X150815952Y-105569047D01*
X150720714Y-105521428D01*
X150482619Y-105521428D01*
X150387380Y-105473809D01*
X149911190Y-105235714D02*
X149911190Y-105902380D01*
X149911190Y-105330952D02*
X149863571Y-105283333D01*
X149768333Y-105235714D01*
X149625476Y-105235714D01*
X149530238Y-105283333D01*
X149482619Y-105378571D01*
X149482619Y-105902380D01*
X147815952Y-105235714D02*
X147815952Y-106045238D01*
X147863571Y-106140476D01*
X147911190Y-106188095D01*
X148006428Y-106235714D01*
X148149285Y-106235714D01*
X148244523Y-106188095D01*
X147815952Y-105854761D02*
X147911190Y-105902380D01*
X148101666Y-105902380D01*
X148196904Y-105854761D01*
X148244523Y-105807142D01*
X148292142Y-105711904D01*
X148292142Y-105426190D01*
X148244523Y-105330952D01*
X148196904Y-105283333D01*
X148101666Y-105235714D01*
X147911190Y-105235714D01*
X147815952Y-105283333D01*
X146958809Y-105854761D02*
X147054047Y-105902380D01*
X147244523Y-105902380D01*
X147339761Y-105854761D01*
X147387380Y-105759523D01*
X147387380Y-105378571D01*
X147339761Y-105283333D01*
X147244523Y-105235714D01*
X147054047Y-105235714D01*
X146958809Y-105283333D01*
X146911190Y-105378571D01*
X146911190Y-105473809D01*
X147387380Y-105569047D01*
X146482619Y-105235714D02*
X146482619Y-105902380D01*
X146482619Y-105330952D02*
X146435000Y-105283333D01*
X146339761Y-105235714D01*
X146196904Y-105235714D01*
X146101666Y-105283333D01*
X146054047Y-105378571D01*
X146054047Y-105902380D01*
X145720714Y-105235714D02*
X145339761Y-105235714D01*
X145577857Y-104902380D02*
X145577857Y-105759523D01*
X145530238Y-105854761D01*
X145435000Y-105902380D01*
X145339761Y-105902380D01*
X144863571Y-105902380D02*
X144958809Y-105854761D01*
X145006428Y-105759523D01*
X145006428Y-104902380D01*
X144577857Y-105235714D02*
X144339761Y-105902380D01*
X144101666Y-105235714D02*
X144339761Y-105902380D01*
X144435000Y-106140476D01*
X144482619Y-106188095D01*
X144577857Y-106235714D01*
X143054047Y-105235714D02*
X142863571Y-105902380D01*
X142673095Y-105426190D01*
X142482619Y-105902380D01*
X142292142Y-105235714D01*
X141911190Y-105902380D02*
X141911190Y-105235714D01*
X141911190Y-104902380D02*
X141958809Y-104950000D01*
X141911190Y-104997619D01*
X141863571Y-104950000D01*
X141911190Y-104902380D01*
X141911190Y-104997619D01*
X141577857Y-105235714D02*
X141196904Y-105235714D01*
X141435000Y-104902380D02*
X141435000Y-105759523D01*
X141387380Y-105854761D01*
X141292142Y-105902380D01*
X141196904Y-105902380D01*
X140863571Y-105902380D02*
X140863571Y-104902380D01*
X140435000Y-105902380D02*
X140435000Y-105378571D01*
X140482619Y-105283333D01*
X140577857Y-105235714D01*
X140720714Y-105235714D01*
X140815952Y-105283333D01*
X140863571Y-105330952D01*
X153196904Y-106835714D02*
X153196904Y-107502380D01*
X153196904Y-106930952D02*
X153149285Y-106883333D01*
X153054047Y-106835714D01*
X152911190Y-106835714D01*
X152815952Y-106883333D01*
X152768333Y-106978571D01*
X152768333Y-107502380D01*
X152149285Y-107502380D02*
X152244523Y-107454761D01*
X152292142Y-107407142D01*
X152339761Y-107311904D01*
X152339761Y-107026190D01*
X152292142Y-106930952D01*
X152244523Y-106883333D01*
X152149285Y-106835714D01*
X152006428Y-106835714D01*
X151911190Y-106883333D01*
X151863571Y-106930952D01*
X151815952Y-107026190D01*
X151815952Y-107311904D01*
X151863571Y-107407142D01*
X151911190Y-107454761D01*
X152006428Y-107502380D01*
X152149285Y-107502380D01*
X151387380Y-106835714D02*
X151387380Y-107502380D01*
X151387380Y-106930952D02*
X151339761Y-106883333D01*
X151244523Y-106835714D01*
X151101666Y-106835714D01*
X151006428Y-106883333D01*
X150958809Y-106978571D01*
X150958809Y-107502380D01*
X150482619Y-107121428D02*
X149720714Y-107121428D01*
X149292142Y-107454761D02*
X149196904Y-107502380D01*
X149006428Y-107502380D01*
X148911190Y-107454761D01*
X148863571Y-107359523D01*
X148863571Y-107311904D01*
X148911190Y-107216666D01*
X149006428Y-107169047D01*
X149149285Y-107169047D01*
X149244523Y-107121428D01*
X149292142Y-107026190D01*
X149292142Y-106978571D01*
X149244523Y-106883333D01*
X149149285Y-106835714D01*
X149006428Y-106835714D01*
X148911190Y-106883333D01*
X148006428Y-107454761D02*
X148101666Y-107502380D01*
X148292142Y-107502380D01*
X148387380Y-107454761D01*
X148435000Y-107407142D01*
X148482619Y-107311904D01*
X148482619Y-107026190D01*
X148435000Y-106930952D01*
X148387380Y-106883333D01*
X148292142Y-106835714D01*
X148101666Y-106835714D01*
X148006428Y-106883333D01*
X147577857Y-107502380D02*
X147577857Y-106835714D01*
X147577857Y-107026190D02*
X147530238Y-106930952D01*
X147482619Y-106883333D01*
X147387380Y-106835714D01*
X147292142Y-106835714D01*
X146530238Y-107502380D02*
X146530238Y-106978571D01*
X146577857Y-106883333D01*
X146673095Y-106835714D01*
X146863571Y-106835714D01*
X146958809Y-106883333D01*
X146530238Y-107454761D02*
X146625476Y-107502380D01*
X146863571Y-107502380D01*
X146958809Y-107454761D01*
X147006428Y-107359523D01*
X147006428Y-107264285D01*
X146958809Y-107169047D01*
X146863571Y-107121428D01*
X146625476Y-107121428D01*
X146530238Y-107073809D01*
X146196904Y-106835714D02*
X145815952Y-106835714D01*
X146054047Y-106502380D02*
X146054047Y-107359523D01*
X146006428Y-107454761D01*
X145911190Y-107502380D01*
X145815952Y-107502380D01*
X145054047Y-107454761D02*
X145149285Y-107502380D01*
X145339761Y-107502380D01*
X145435000Y-107454761D01*
X145482619Y-107407142D01*
X145530238Y-107311904D01*
X145530238Y-107026190D01*
X145482619Y-106930952D01*
X145435000Y-106883333D01*
X145339761Y-106835714D01*
X145149285Y-106835714D01*
X145054047Y-106883333D01*
X144625476Y-107502380D02*
X144625476Y-106502380D01*
X144196904Y-107502380D02*
X144196904Y-106978571D01*
X144244523Y-106883333D01*
X144339761Y-106835714D01*
X144482619Y-106835714D01*
X144577857Y-106883333D01*
X144625476Y-106930952D01*
X143720714Y-107502380D02*
X143720714Y-106835714D01*
X143720714Y-106502380D02*
X143768333Y-106550000D01*
X143720714Y-106597619D01*
X143673095Y-106550000D01*
X143720714Y-106502380D01*
X143720714Y-106597619D01*
X143244523Y-106835714D02*
X143244523Y-107502380D01*
X143244523Y-106930952D02*
X143196904Y-106883333D01*
X143101666Y-106835714D01*
X142958809Y-106835714D01*
X142863571Y-106883333D01*
X142815952Y-106978571D01*
X142815952Y-107502380D01*
X141911190Y-106835714D02*
X141911190Y-107645238D01*
X141958809Y-107740476D01*
X142006428Y-107788095D01*
X142101666Y-107835714D01*
X142244523Y-107835714D01*
X142339761Y-107788095D01*
X141911190Y-107454761D02*
X142006428Y-107502380D01*
X142196904Y-107502380D01*
X142292142Y-107454761D01*
X142339761Y-107407142D01*
X142387380Y-107311904D01*
X142387380Y-107026190D01*
X142339761Y-106930952D01*
X142292142Y-106883333D01*
X142196904Y-106835714D01*
X142006428Y-106835714D01*
X141911190Y-106883333D01*
X152768333Y-109054761D02*
X152863571Y-109102380D01*
X153054047Y-109102380D01*
X153149285Y-109054761D01*
X153196904Y-109007142D01*
X153244523Y-108911904D01*
X153244523Y-108626190D01*
X153196904Y-108530952D01*
X153149285Y-108483333D01*
X153054047Y-108435714D01*
X152863571Y-108435714D01*
X152768333Y-108483333D01*
X152196904Y-109102380D02*
X152292142Y-109054761D01*
X152339761Y-108959523D01*
X152339761Y-108102380D01*
X151673095Y-109102380D02*
X151768333Y-109054761D01*
X151815952Y-109007142D01*
X151863571Y-108911904D01*
X151863571Y-108626190D01*
X151815952Y-108530952D01*
X151768333Y-108483333D01*
X151673095Y-108435714D01*
X151530238Y-108435714D01*
X151435000Y-108483333D01*
X151387380Y-108530952D01*
X151339761Y-108626190D01*
X151339761Y-108911904D01*
X151387380Y-109007142D01*
X151435000Y-109054761D01*
X151530238Y-109102380D01*
X151673095Y-109102380D01*
X151054047Y-108435714D02*
X150673095Y-108435714D01*
X150911190Y-108102380D02*
X150911190Y-108959523D01*
X150863571Y-109054761D01*
X150768333Y-109102380D01*
X150673095Y-109102380D01*
X150339761Y-109102380D02*
X150339761Y-108102380D01*
X149911190Y-109102380D02*
X149911190Y-108578571D01*
X149958809Y-108483333D01*
X150054047Y-108435714D01*
X150196904Y-108435714D01*
X150292142Y-108483333D01*
X150339761Y-108530952D01*
X149435000Y-109007142D02*
X149387380Y-109054761D01*
X149435000Y-109102380D01*
X149482619Y-109054761D01*
X149435000Y-109007142D01*
X149435000Y-109102380D01*
X148196904Y-108102380D02*
X148196904Y-108911904D01*
X148149285Y-109007142D01*
X148101666Y-109054761D01*
X148006428Y-109102380D01*
X147815952Y-109102380D01*
X147720714Y-109054761D01*
X147673095Y-109007142D01*
X147625476Y-108911904D01*
X147625476Y-108102380D01*
X147196904Y-109054761D02*
X147101666Y-109102380D01*
X146911190Y-109102380D01*
X146815952Y-109054761D01*
X146768333Y-108959523D01*
X146768333Y-108911904D01*
X146815952Y-108816666D01*
X146911190Y-108769047D01*
X147054047Y-108769047D01*
X147149285Y-108721428D01*
X147196904Y-108626190D01*
X147196904Y-108578571D01*
X147149285Y-108483333D01*
X147054047Y-108435714D01*
X146911190Y-108435714D01*
X146815952Y-108483333D01*
X145958809Y-109054761D02*
X146054047Y-109102380D01*
X146244523Y-109102380D01*
X146339761Y-109054761D01*
X146387380Y-108959523D01*
X146387380Y-108578571D01*
X146339761Y-108483333D01*
X146244523Y-108435714D01*
X146054047Y-108435714D01*
X145958809Y-108483333D01*
X145911190Y-108578571D01*
X145911190Y-108673809D01*
X146387380Y-108769047D01*
X144577857Y-109102380D02*
X144673095Y-109054761D01*
X144720714Y-109007142D01*
X144768333Y-108911904D01*
X144768333Y-108626190D01*
X144720714Y-108530952D01*
X144673095Y-108483333D01*
X144577857Y-108435714D01*
X144435000Y-108435714D01*
X144339761Y-108483333D01*
X144292142Y-108530952D01*
X144244523Y-108626190D01*
X144244523Y-108911904D01*
X144292142Y-109007142D01*
X144339761Y-109054761D01*
X144435000Y-109102380D01*
X144577857Y-109102380D01*
X143815952Y-108435714D02*
X143815952Y-109102380D01*
X143815952Y-108530952D02*
X143768333Y-108483333D01*
X143673095Y-108435714D01*
X143530238Y-108435714D01*
X143435000Y-108483333D01*
X143387380Y-108578571D01*
X143387380Y-109102380D01*
X142768333Y-109102380D02*
X142863571Y-109054761D01*
X142911190Y-108959523D01*
X142911190Y-108102380D01*
X142482619Y-108435714D02*
X142244523Y-109102380D01*
X142006428Y-108435714D02*
X142244523Y-109102380D01*
X142339761Y-109340476D01*
X142387380Y-109388095D01*
X142482619Y-109435714D01*
X152435000Y-110035714D02*
X153196904Y-110321428D01*
X152435000Y-110607142D01*
X151244523Y-109797619D02*
X151196904Y-109750000D01*
X151101666Y-109702380D01*
X150863571Y-109702380D01*
X150768333Y-109750000D01*
X150720714Y-109797619D01*
X150673095Y-109892857D01*
X150673095Y-109988095D01*
X150720714Y-110130952D01*
X151292142Y-110702380D01*
X150673095Y-110702380D01*
X150054047Y-109702380D02*
X149958809Y-109702380D01*
X149863571Y-109750000D01*
X149815952Y-109797619D01*
X149768333Y-109892857D01*
X149720714Y-110083333D01*
X149720714Y-110321428D01*
X149768333Y-110511904D01*
X149815952Y-110607142D01*
X149863571Y-110654761D01*
X149958809Y-110702380D01*
X150054047Y-110702380D01*
X150149285Y-110654761D01*
X150196904Y-110607142D01*
X150244523Y-110511904D01*
X150292142Y-110321428D01*
X150292142Y-110083333D01*
X150244523Y-109892857D01*
X150196904Y-109797619D01*
X150149285Y-109750000D01*
X150054047Y-109702380D01*
X149339761Y-110702380D02*
X148577857Y-109702380D01*
X149196904Y-109702380D02*
X149101666Y-109750000D01*
X149054047Y-109845238D01*
X149101666Y-109940476D01*
X149196904Y-109988095D01*
X149292142Y-109940476D01*
X149339761Y-109845238D01*
X149292142Y-109750000D01*
X149196904Y-109702380D01*
X148625476Y-110654761D02*
X148577857Y-110559523D01*
X148625476Y-110464285D01*
X148720714Y-110416666D01*
X148815952Y-110464285D01*
X148863571Y-110559523D01*
X148815952Y-110654761D01*
X148720714Y-110702380D01*
X148625476Y-110654761D01*
X147387380Y-110178571D02*
X147054047Y-110178571D01*
X146911190Y-110702380D02*
X147387380Y-110702380D01*
X147387380Y-109702380D01*
X146911190Y-109702380D01*
X146625476Y-110035714D02*
X146244523Y-110035714D01*
X146482619Y-109702380D02*
X146482619Y-110559523D01*
X146435000Y-110654761D01*
X146339761Y-110702380D01*
X146244523Y-110702380D01*
X145720714Y-109702380D02*
X145530238Y-109702380D01*
X145435000Y-109750000D01*
X145339761Y-109845238D01*
X145292142Y-110035714D01*
X145292142Y-110369047D01*
X145339761Y-110559523D01*
X145435000Y-110654761D01*
X145530238Y-110702380D01*
X145720714Y-110702380D01*
X145815952Y-110654761D01*
X145911190Y-110559523D01*
X145958809Y-110369047D01*
X145958809Y-110035714D01*
X145911190Y-109845238D01*
X145815952Y-109750000D01*
X145720714Y-109702380D01*
X144863571Y-110702380D02*
X144863571Y-109702380D01*
X144863571Y-110178571D02*
X144292142Y-110178571D01*
X144292142Y-110702380D02*
X144292142Y-109702380D01*
X143815952Y-110607142D02*
X143768333Y-110654761D01*
X143815952Y-110702380D01*
X143863571Y-110654761D01*
X143815952Y-110607142D01*
X143815952Y-110702380D01*
D12*
G36*
X125288950Y-105800939D02*
G01*
X124929246Y-105812985D01*
X124567343Y-105831359D01*
X124234308Y-105854749D01*
X123961210Y-105881841D01*
X123779117Y-105911324D01*
X123777862Y-105911626D01*
X123557694Y-105983247D01*
X123444615Y-106062160D01*
X123446666Y-106141195D01*
X123484531Y-106173171D01*
X123575540Y-106191739D01*
X123765526Y-106206531D01*
X124026516Y-106217244D01*
X124330536Y-106223574D01*
X124649611Y-106225218D01*
X124955766Y-106221872D01*
X125221028Y-106213233D01*
X125417421Y-106198998D01*
X125452500Y-106194526D01*
X125813576Y-106131256D01*
X126076699Y-106063071D01*
X126236158Y-105993624D01*
X126263838Y-105956564D01*
X126099069Y-105956564D01*
X126075604Y-105986395D01*
X125935297Y-106030414D01*
X125696285Y-106070238D01*
X125386832Y-106104403D01*
X125035203Y-106131444D01*
X124669665Y-106149897D01*
X124318481Y-106158297D01*
X124009917Y-106155179D01*
X123772239Y-106139079D01*
X123642750Y-106112458D01*
X123620483Y-106077802D01*
X123705005Y-106040222D01*
X123876206Y-106001790D01*
X124113972Y-105964579D01*
X124398194Y-105930664D01*
X124708758Y-105902118D01*
X125025554Y-105881014D01*
X125328469Y-105869425D01*
X125597392Y-105869424D01*
X125812211Y-105883086D01*
X125837076Y-105886241D01*
X126028380Y-105920825D01*
X126099069Y-105956564D01*
X126263838Y-105956564D01*
X126286240Y-105926572D01*
X126221234Y-105865569D01*
X126044185Y-105815890D01*
X125877487Y-105801079D01*
X125615386Y-105796533D01*
X125288950Y-105800939D01*
G37*
X125288950Y-105800939D02*
X124929246Y-105812985D01*
X124567343Y-105831359D01*
X124234308Y-105854749D01*
X123961210Y-105881841D01*
X123779117Y-105911324D01*
X123777862Y-105911626D01*
X123557694Y-105983247D01*
X123444615Y-106062160D01*
X123446666Y-106141195D01*
X123484531Y-106173171D01*
X123575540Y-106191739D01*
X123765526Y-106206531D01*
X124026516Y-106217244D01*
X124330536Y-106223574D01*
X124649611Y-106225218D01*
X124955766Y-106221872D01*
X125221028Y-106213233D01*
X125417421Y-106198998D01*
X125452500Y-106194526D01*
X125813576Y-106131256D01*
X126076699Y-106063071D01*
X126236158Y-105993624D01*
X126263838Y-105956564D01*
X126099069Y-105956564D01*
X126075604Y-105986395D01*
X125935297Y-106030414D01*
X125696285Y-106070238D01*
X125386832Y-106104403D01*
X125035203Y-106131444D01*
X124669665Y-106149897D01*
X124318481Y-106158297D01*
X124009917Y-106155179D01*
X123772239Y-106139079D01*
X123642750Y-106112458D01*
X123620483Y-106077802D01*
X123705005Y-106040222D01*
X123876206Y-106001790D01*
X124113972Y-105964579D01*
X124398194Y-105930664D01*
X124708758Y-105902118D01*
X125025554Y-105881014D01*
X125328469Y-105869425D01*
X125597392Y-105869424D01*
X125812211Y-105883086D01*
X125837076Y-105886241D01*
X126028380Y-105920825D01*
X126099069Y-105956564D01*
X126263838Y-105956564D01*
X126286240Y-105926572D01*
X126221234Y-105865569D01*
X126044185Y-105815890D01*
X125877487Y-105801079D01*
X125615386Y-105796533D01*
X125288950Y-105800939D01*
G36*
X124046650Y-105466400D02*
G01*
X123422742Y-105536851D01*
X122892108Y-105651333D01*
X122465224Y-105808862D01*
X122277500Y-105914123D01*
X122165437Y-105959832D01*
X121975431Y-106012469D01*
X121811867Y-106047994D01*
X121472994Y-106152640D01*
X121226284Y-106310235D01*
X121078878Y-106506872D01*
X121037915Y-106728647D01*
X121110537Y-106961652D01*
X121250205Y-107141828D01*
X121355109Y-107240364D01*
X121451350Y-107301014D01*
X121573484Y-107333280D01*
X121756068Y-107346664D01*
X122009030Y-107350484D01*
X122288654Y-107357795D01*
X122542726Y-107373490D01*
X122727016Y-107394578D01*
X122761439Y-107401357D01*
X122886153Y-107444400D01*
X122953206Y-107523482D01*
X122990740Y-107678552D01*
X122999564Y-107739360D01*
X123008511Y-107867479D01*
X123016759Y-108106729D01*
X123024079Y-108441241D01*
X123030240Y-108855145D01*
X123035014Y-109332573D01*
X123038169Y-109857655D01*
X123039478Y-110414524D01*
X123039500Y-110498193D01*
X123039500Y-112965661D01*
X123483036Y-115418937D01*
X123605147Y-116083042D01*
X123716436Y-116665525D01*
X123815232Y-117158430D01*
X123899864Y-117553804D01*
X123968661Y-117843691D01*
X124019950Y-118020136D01*
X124038661Y-118063593D01*
X124170404Y-118239249D01*
X124318121Y-118379719D01*
X124494813Y-118464312D01*
X124729583Y-118520580D01*
X124964274Y-118539057D01*
X125135000Y-118512665D01*
X125293985Y-118411156D01*
X125467507Y-118247423D01*
X125607987Y-118070013D01*
X125654600Y-117982500D01*
X125677941Y-117886681D01*
X125718483Y-117679614D01*
X125773759Y-117375518D01*
X125841301Y-116988610D01*
X125918643Y-116533111D01*
X126003318Y-116023239D01*
X126092857Y-115473213D01*
X126128386Y-115252000D01*
X126539853Y-112680250D01*
X126596897Y-110743500D01*
X126611773Y-110215997D01*
X126625382Y-109690614D01*
X126637183Y-109191634D01*
X126638574Y-109125637D01*
X126530508Y-109125637D01*
X126528323Y-109426519D01*
X126518908Y-109721472D01*
X126501978Y-109983936D01*
X126490831Y-110092812D01*
X126450766Y-110426374D01*
X126045442Y-110551566D01*
X125748796Y-110628645D01*
X125420611Y-110692638D01*
X125228809Y-110718898D01*
X125019204Y-110749092D01*
X124871038Y-110787084D01*
X124817500Y-110823085D01*
X124874628Y-110850361D01*
X125028218Y-110850834D01*
X125251584Y-110828736D01*
X125518039Y-110788298D01*
X125800896Y-110733751D01*
X126073468Y-110669326D01*
X126309069Y-110599254D01*
X126371209Y-110576746D01*
X126407937Y-110576176D01*
X126433923Y-110618437D01*
X126450752Y-110720408D01*
X126460006Y-110898973D01*
X126463269Y-111171013D01*
X126462171Y-111546331D01*
X126457317Y-111903284D01*
X126448092Y-112225668D01*
X126435607Y-112487408D01*
X126420973Y-112662432D01*
X126412490Y-112712000D01*
X126349443Y-112824884D01*
X126212343Y-112914596D01*
X126043495Y-112979503D01*
X125807577Y-113046545D01*
X125578781Y-113093148D01*
X125489926Y-113103607D01*
X125340682Y-113126073D01*
X125264516Y-113161820D01*
X125262000Y-113169478D01*
X125317553Y-113209975D01*
X125461962Y-113218382D01*
X125661857Y-113197096D01*
X125883867Y-113148514D01*
X125984380Y-113117608D01*
X126163412Y-113065231D01*
X126288506Y-113044626D01*
X126320110Y-113050442D01*
X126318022Y-113117354D01*
X126298825Y-113290380D01*
X126265379Y-113550216D01*
X126220542Y-113877556D01*
X126167173Y-114253094D01*
X126108131Y-114657526D01*
X126046274Y-115071544D01*
X125984461Y-115475845D01*
X125925551Y-115851121D01*
X125872402Y-116178069D01*
X125827874Y-116437381D01*
X125794824Y-116609754D01*
X125789582Y-116633217D01*
X125701262Y-116751505D01*
X125515051Y-116844871D01*
X125258160Y-116910289D01*
X124957797Y-116944733D01*
X124641170Y-116945175D01*
X124335488Y-116908590D01*
X124067960Y-116831951D01*
X124054241Y-116826237D01*
X123830732Y-116731194D01*
X123173120Y-112997750D01*
X123113746Y-107999274D01*
X123314748Y-108042155D01*
X123957517Y-108134057D01*
X124660857Y-108155981D01*
X125380643Y-108109825D01*
X126072746Y-107997490D01*
X126425653Y-107908175D01*
X126506289Y-107905305D01*
X126526644Y-107983703D01*
X126520903Y-108054360D01*
X126465422Y-108203424D01*
X126328402Y-108311888D01*
X126094775Y-108387459D01*
X125776648Y-108435074D01*
X125573911Y-108465039D01*
X125433606Y-108502548D01*
X125389000Y-108534615D01*
X125445177Y-108558181D01*
X125589345Y-108560400D01*
X125784965Y-108544838D01*
X125995498Y-108515060D01*
X126184402Y-108474633D01*
X126266259Y-108448995D01*
X126402895Y-108406187D01*
X126472634Y-108394000D01*
X126496526Y-108453007D01*
X126514325Y-108612321D01*
X126525747Y-108845385D01*
X126530508Y-109125637D01*
X126638574Y-109125637D01*
X126646636Y-108743341D01*
X126653201Y-108370019D01*
X126656336Y-108095950D01*
X126656471Y-108066897D01*
X126658518Y-107468210D01*
X126557008Y-107468210D01*
X126538790Y-107576856D01*
X126500299Y-107702646D01*
X126426147Y-107779930D01*
X126280489Y-107836902D01*
X126170804Y-107866287D01*
X125699044Y-107960567D01*
X125181678Y-108021251D01*
X124653604Y-108047503D01*
X124149720Y-108038485D01*
X123704922Y-107993359D01*
X123420500Y-107932282D01*
X123239873Y-107868165D01*
X123149716Y-107793581D01*
X123115023Y-107678453D01*
X123113851Y-107668829D01*
X123110163Y-107543892D01*
X123164554Y-107511422D01*
X123272601Y-107531300D01*
X123397689Y-107548658D01*
X123622572Y-107567811D01*
X123920095Y-107586896D01*
X124263106Y-107604053D01*
X124436554Y-107611080D01*
X125146756Y-107616825D01*
X125742123Y-107576406D01*
X126226274Y-107489468D01*
X126477180Y-107410124D01*
X126544049Y-107401394D01*
X126557008Y-107468210D01*
X126658518Y-107468210D01*
X126659001Y-107327044D01*
X126881251Y-107195913D01*
X127041817Y-107067907D01*
X127095804Y-106956578D01*
X126976500Y-106956578D01*
X126917036Y-107047131D01*
X126752619Y-107147236D01*
X126504211Y-107249885D01*
X126192775Y-107348071D01*
X125839275Y-107434789D01*
X125464672Y-107503031D01*
X125262000Y-107529621D01*
X125045453Y-107540049D01*
X124741615Y-107536914D01*
X124389233Y-107522264D01*
X124027054Y-107498151D01*
X123693824Y-107466623D01*
X123452250Y-107433866D01*
X123086132Y-107365427D01*
X122832365Y-107299570D01*
X122676560Y-107230803D01*
X122604325Y-107153628D01*
X122595000Y-107106542D01*
X122597109Y-107098859D01*
X122457845Y-107098859D01*
X122380049Y-107197659D01*
X122213655Y-107259424D01*
X121992305Y-107281562D01*
X121749641Y-107261482D01*
X121519306Y-107196590D01*
X121471243Y-107174874D01*
X121327683Y-107057405D01*
X121292699Y-106914193D01*
X121354831Y-106760968D01*
X121502619Y-106613460D01*
X121724601Y-106487397D01*
X122009317Y-106398510D01*
X122041570Y-106392126D01*
X122200528Y-106373051D01*
X122268349Y-106400373D01*
X122277500Y-106442067D01*
X122216628Y-106520070D01*
X122042006Y-106573822D01*
X122026778Y-106576360D01*
X121810600Y-106645283D01*
X121615539Y-106760385D01*
X121598153Y-106775119D01*
X121485621Y-106881814D01*
X121460506Y-106945705D01*
X121514748Y-107007730D01*
X121547250Y-107033635D01*
X121693976Y-107087464D01*
X121914636Y-107101227D01*
X122162957Y-107075835D01*
X122379964Y-107017195D01*
X122454840Y-107016424D01*
X122457845Y-107098859D01*
X122597109Y-107098859D01*
X122619110Y-107018733D01*
X122713691Y-107017906D01*
X122737875Y-107024651D01*
X123397902Y-107167594D01*
X124128580Y-107230621D01*
X124901815Y-107213679D01*
X125689512Y-107116716D01*
X126111618Y-107030919D01*
X126454492Y-106952351D01*
X126692836Y-106902562D01*
X126845428Y-106879937D01*
X126931049Y-106882863D01*
X126968477Y-106909725D01*
X126976500Y-106956578D01*
X127095804Y-106956578D01*
X127103428Y-106940857D01*
X127103500Y-106936851D01*
X127155342Y-106822103D01*
X127278125Y-106769368D01*
X127540853Y-106709567D01*
X127705437Y-106663107D01*
X127796782Y-106611898D01*
X127839793Y-106537851D01*
X127859377Y-106422876D01*
X127868620Y-106340475D01*
X127871047Y-106296870D01*
X127751538Y-106296870D01*
X127748200Y-106330250D01*
X127727881Y-106469919D01*
X127710086Y-106537697D01*
X127646910Y-106555780D01*
X127482917Y-106595904D01*
X127241320Y-106652802D01*
X126945331Y-106721209D01*
X126618164Y-106795858D01*
X126283030Y-106871482D01*
X125963144Y-106942816D01*
X125681717Y-107004593D01*
X125461962Y-107051546D01*
X125327093Y-107078410D01*
X125325500Y-107078692D01*
X125093661Y-107102873D01*
X124773434Y-107114216D01*
X124402690Y-107113569D01*
X124019303Y-107101782D01*
X123661143Y-107079704D01*
X123366084Y-107048184D01*
X123271722Y-107032648D01*
X122912439Y-106953959D01*
X122663032Y-106871783D01*
X122623121Y-106847340D01*
X122371381Y-106847340D01*
X122316052Y-106907630D01*
X122263101Y-106930975D01*
X122108035Y-106970799D01*
X121921072Y-106989600D01*
X121743461Y-106987422D01*
X121616455Y-106964307D01*
X121579000Y-106930259D01*
X121631923Y-106864107D01*
X121761691Y-106789242D01*
X121785375Y-106779116D01*
X122016808Y-106689346D01*
X122162337Y-106651227D01*
X122251244Y-106662914D01*
X122312809Y-106722563D01*
X122327497Y-106744975D01*
X122371381Y-106847340D01*
X122623121Y-106847340D01*
X122506550Y-106775948D01*
X122426045Y-106656287D01*
X122404500Y-106512325D01*
X122413938Y-106364526D01*
X122453148Y-106316355D01*
X122515625Y-106331089D01*
X122785582Y-106431128D01*
X123058366Y-106502633D01*
X123367146Y-106551233D01*
X123745092Y-106582560D01*
X124087250Y-106597877D01*
X124402409Y-106606813D01*
X124667966Y-106607745D01*
X124912840Y-106598023D01*
X125165952Y-106574996D01*
X125456220Y-106536015D01*
X125812565Y-106478427D01*
X126263908Y-106399582D01*
X126278000Y-106397077D01*
X126673602Y-106326925D01*
X127030087Y-106264060D01*
X127327287Y-106212011D01*
X127545027Y-106174307D01*
X127663136Y-106154477D01*
X127675000Y-106152688D01*
X127740980Y-106178460D01*
X127751538Y-106296870D01*
X127871047Y-106296870D01*
X127879968Y-106136665D01*
X127850848Y-106021362D01*
X127738902Y-106021362D01*
X126389326Y-106254064D01*
X125978877Y-106324585D01*
X125600490Y-106389127D01*
X125275755Y-106444045D01*
X125026260Y-106485693D01*
X124873596Y-106510426D01*
X124849250Y-106514097D01*
X124600848Y-106529834D01*
X124269714Y-106523871D01*
X123897622Y-106499564D01*
X123526346Y-106460268D01*
X123197659Y-106409339D01*
X123006064Y-106366038D01*
X122775459Y-106291783D01*
X122585033Y-106211999D01*
X122508757Y-106164706D01*
X122277500Y-106164706D01*
X122221244Y-106236066D01*
X122081339Y-106285920D01*
X121952277Y-106298500D01*
X121775054Y-106337724D01*
X121564895Y-106435909D01*
X121373463Y-106563822D01*
X121252418Y-106692231D01*
X121250526Y-106695582D01*
X121191074Y-106789751D01*
X121161255Y-106776021D01*
X121147288Y-106720846D01*
X121173070Y-106597654D01*
X121271332Y-106449261D01*
X121290542Y-106428327D01*
X121518543Y-106263182D01*
X121813638Y-106149052D01*
X122110243Y-106108000D01*
X122233623Y-106126520D01*
X122277500Y-106164706D01*
X122508757Y-106164706D01*
X122479114Y-106146327D01*
X122421708Y-106030206D01*
X122488667Y-105923137D01*
X122677626Y-105825928D01*
X122986219Y-105739387D01*
X123412078Y-105664319D01*
X123952838Y-105601534D01*
X124119000Y-105586729D01*
X124455027Y-105561768D01*
X124753822Y-105548812D01*
X125048069Y-105548537D01*
X125370456Y-105561618D01*
X125753666Y-105588732D01*
X126228266Y-105630359D01*
X126662550Y-105671641D01*
X126988278Y-105706276D01*
X127223504Y-105737574D01*
X127386280Y-105768847D01*
X127494660Y-105803406D01*
X127566696Y-105844562D01*
X127609591Y-105883717D01*
X127738902Y-106021362D01*
X127850848Y-106021362D01*
X127844062Y-105994496D01*
X127745047Y-105852553D01*
X127741620Y-105848469D01*
X127682502Y-105781505D01*
X127620851Y-105730220D01*
X127537728Y-105690192D01*
X127414194Y-105657002D01*
X127231309Y-105626229D01*
X126970134Y-105593453D01*
X126611729Y-105554252D01*
X126373250Y-105529082D01*
X125532381Y-105461531D01*
X124753355Y-105440965D01*
X124046650Y-105466400D01*
G37*
X124046650Y-105466400D02*
X123422742Y-105536851D01*
X122892108Y-105651333D01*
X122465224Y-105808862D01*
X122277500Y-105914123D01*
X122165437Y-105959832D01*
X121975431Y-106012469D01*
X121811867Y-106047994D01*
X121472994Y-106152640D01*
X121226284Y-106310235D01*
X121078878Y-106506872D01*
X121037915Y-106728647D01*
X121110537Y-106961652D01*
X121250205Y-107141828D01*
X121355109Y-107240364D01*
X121451350Y-107301014D01*
X121573484Y-107333280D01*
X121756068Y-107346664D01*
X122009030Y-107350484D01*
X122288654Y-107357795D01*
X122542726Y-107373490D01*
X122727016Y-107394578D01*
X122761439Y-107401357D01*
X122886153Y-107444400D01*
X122953206Y-107523482D01*
X122990740Y-107678552D01*
X122999564Y-107739360D01*
X123008511Y-107867479D01*
X123016759Y-108106729D01*
X123024079Y-108441241D01*
X123030240Y-108855145D01*
X123035014Y-109332573D01*
X123038169Y-109857655D01*
X123039478Y-110414524D01*
X123039500Y-110498193D01*
X123039500Y-112965661D01*
X123483036Y-115418937D01*
X123605147Y-116083042D01*
X123716436Y-116665525D01*
X123815232Y-117158430D01*
X123899864Y-117553804D01*
X123968661Y-117843691D01*
X124019950Y-118020136D01*
X124038661Y-118063593D01*
X124170404Y-118239249D01*
X124318121Y-118379719D01*
X124494813Y-118464312D01*
X124729583Y-118520580D01*
X124964274Y-118539057D01*
X125135000Y-118512665D01*
X125293985Y-118411156D01*
X125467507Y-118247423D01*
X125607987Y-118070013D01*
X125654600Y-117982500D01*
X125677941Y-117886681D01*
X125718483Y-117679614D01*
X125773759Y-117375518D01*
X125841301Y-116988610D01*
X125918643Y-116533111D01*
X126003318Y-116023239D01*
X126092857Y-115473213D01*
X126128386Y-115252000D01*
X126539853Y-112680250D01*
X126596897Y-110743500D01*
X126611773Y-110215997D01*
X126625382Y-109690614D01*
X126637183Y-109191634D01*
X126638574Y-109125637D01*
X126530508Y-109125637D01*
X126528323Y-109426519D01*
X126518908Y-109721472D01*
X126501978Y-109983936D01*
X126490831Y-110092812D01*
X126450766Y-110426374D01*
X126045442Y-110551566D01*
X125748796Y-110628645D01*
X125420611Y-110692638D01*
X125228809Y-110718898D01*
X125019204Y-110749092D01*
X124871038Y-110787084D01*
X124817500Y-110823085D01*
X124874628Y-110850361D01*
X125028218Y-110850834D01*
X125251584Y-110828736D01*
X125518039Y-110788298D01*
X125800896Y-110733751D01*
X126073468Y-110669326D01*
X126309069Y-110599254D01*
X126371209Y-110576746D01*
X126407937Y-110576176D01*
X126433923Y-110618437D01*
X126450752Y-110720408D01*
X126460006Y-110898973D01*
X126463269Y-111171013D01*
X126462171Y-111546331D01*
X126457317Y-111903284D01*
X126448092Y-112225668D01*
X126435607Y-112487408D01*
X126420973Y-112662432D01*
X126412490Y-112712000D01*
X126349443Y-112824884D01*
X126212343Y-112914596D01*
X126043495Y-112979503D01*
X125807577Y-113046545D01*
X125578781Y-113093148D01*
X125489926Y-113103607D01*
X125340682Y-113126073D01*
X125264516Y-113161820D01*
X125262000Y-113169478D01*
X125317553Y-113209975D01*
X125461962Y-113218382D01*
X125661857Y-113197096D01*
X125883867Y-113148514D01*
X125984380Y-113117608D01*
X126163412Y-113065231D01*
X126288506Y-113044626D01*
X126320110Y-113050442D01*
X126318022Y-113117354D01*
X126298825Y-113290380D01*
X126265379Y-113550216D01*
X126220542Y-113877556D01*
X126167173Y-114253094D01*
X126108131Y-114657526D01*
X126046274Y-115071544D01*
X125984461Y-115475845D01*
X125925551Y-115851121D01*
X125872402Y-116178069D01*
X125827874Y-116437381D01*
X125794824Y-116609754D01*
X125789582Y-116633217D01*
X125701262Y-116751505D01*
X125515051Y-116844871D01*
X125258160Y-116910289D01*
X124957797Y-116944733D01*
X124641170Y-116945175D01*
X124335488Y-116908590D01*
X124067960Y-116831951D01*
X124054241Y-116826237D01*
X123830732Y-116731194D01*
X123173120Y-112997750D01*
X123113746Y-107999274D01*
X123314748Y-108042155D01*
X123957517Y-108134057D01*
X124660857Y-108155981D01*
X125380643Y-108109825D01*
X126072746Y-107997490D01*
X126425653Y-107908175D01*
X126506289Y-107905305D01*
X126526644Y-107983703D01*
X126520903Y-108054360D01*
X126465422Y-108203424D01*
X126328402Y-108311888D01*
X126094775Y-108387459D01*
X125776648Y-108435074D01*
X125573911Y-108465039D01*
X125433606Y-108502548D01*
X125389000Y-108534615D01*
X125445177Y-108558181D01*
X125589345Y-108560400D01*
X125784965Y-108544838D01*
X125995498Y-108515060D01*
X126184402Y-108474633D01*
X126266259Y-108448995D01*
X126402895Y-108406187D01*
X126472634Y-108394000D01*
X126496526Y-108453007D01*
X126514325Y-108612321D01*
X126525747Y-108845385D01*
X126530508Y-109125637D01*
X126638574Y-109125637D01*
X126646636Y-108743341D01*
X126653201Y-108370019D01*
X126656336Y-108095950D01*
X126656471Y-108066897D01*
X126658518Y-107468210D01*
X126557008Y-107468210D01*
X126538790Y-107576856D01*
X126500299Y-107702646D01*
X126426147Y-107779930D01*
X126280489Y-107836902D01*
X126170804Y-107866287D01*
X125699044Y-107960567D01*
X125181678Y-108021251D01*
X124653604Y-108047503D01*
X124149720Y-108038485D01*
X123704922Y-107993359D01*
X123420500Y-107932282D01*
X123239873Y-107868165D01*
X123149716Y-107793581D01*
X123115023Y-107678453D01*
X123113851Y-107668829D01*
X123110163Y-107543892D01*
X123164554Y-107511422D01*
X123272601Y-107531300D01*
X123397689Y-107548658D01*
X123622572Y-107567811D01*
X123920095Y-107586896D01*
X124263106Y-107604053D01*
X124436554Y-107611080D01*
X125146756Y-107616825D01*
X125742123Y-107576406D01*
X126226274Y-107489468D01*
X126477180Y-107410124D01*
X126544049Y-107401394D01*
X126557008Y-107468210D01*
X126658518Y-107468210D01*
X126659001Y-107327044D01*
X126881251Y-107195913D01*
X127041817Y-107067907D01*
X127095804Y-106956578D01*
X126976500Y-106956578D01*
X126917036Y-107047131D01*
X126752619Y-107147236D01*
X126504211Y-107249885D01*
X126192775Y-107348071D01*
X125839275Y-107434789D01*
X125464672Y-107503031D01*
X125262000Y-107529621D01*
X125045453Y-107540049D01*
X124741615Y-107536914D01*
X124389233Y-107522264D01*
X124027054Y-107498151D01*
X123693824Y-107466623D01*
X123452250Y-107433866D01*
X123086132Y-107365427D01*
X122832365Y-107299570D01*
X122676560Y-107230803D01*
X122604325Y-107153628D01*
X122595000Y-107106542D01*
X122597109Y-107098859D01*
X122457845Y-107098859D01*
X122380049Y-107197659D01*
X122213655Y-107259424D01*
X121992305Y-107281562D01*
X121749641Y-107261482D01*
X121519306Y-107196590D01*
X121471243Y-107174874D01*
X121327683Y-107057405D01*
X121292699Y-106914193D01*
X121354831Y-106760968D01*
X121502619Y-106613460D01*
X121724601Y-106487397D01*
X122009317Y-106398510D01*
X122041570Y-106392126D01*
X122200528Y-106373051D01*
X122268349Y-106400373D01*
X122277500Y-106442067D01*
X122216628Y-106520070D01*
X122042006Y-106573822D01*
X122026778Y-106576360D01*
X121810600Y-106645283D01*
X121615539Y-106760385D01*
X121598153Y-106775119D01*
X121485621Y-106881814D01*
X121460506Y-106945705D01*
X121514748Y-107007730D01*
X121547250Y-107033635D01*
X121693976Y-107087464D01*
X121914636Y-107101227D01*
X122162957Y-107075835D01*
X122379964Y-107017195D01*
X122454840Y-107016424D01*
X122457845Y-107098859D01*
X122597109Y-107098859D01*
X122619110Y-107018733D01*
X122713691Y-107017906D01*
X122737875Y-107024651D01*
X123397902Y-107167594D01*
X124128580Y-107230621D01*
X124901815Y-107213679D01*
X125689512Y-107116716D01*
X126111618Y-107030919D01*
X126454492Y-106952351D01*
X126692836Y-106902562D01*
X126845428Y-106879937D01*
X126931049Y-106882863D01*
X126968477Y-106909725D01*
X126976500Y-106956578D01*
X127095804Y-106956578D01*
X127103428Y-106940857D01*
X127103500Y-106936851D01*
X127155342Y-106822103D01*
X127278125Y-106769368D01*
X127540853Y-106709567D01*
X127705437Y-106663107D01*
X127796782Y-106611898D01*
X127839793Y-106537851D01*
X127859377Y-106422876D01*
X127868620Y-106340475D01*
X127871047Y-106296870D01*
X127751538Y-106296870D01*
X127748200Y-106330250D01*
X127727881Y-106469919D01*
X127710086Y-106537697D01*
X127646910Y-106555780D01*
X127482917Y-106595904D01*
X127241320Y-106652802D01*
X126945331Y-106721209D01*
X126618164Y-106795858D01*
X126283030Y-106871482D01*
X125963144Y-106942816D01*
X125681717Y-107004593D01*
X125461962Y-107051546D01*
X125327093Y-107078410D01*
X125325500Y-107078692D01*
X125093661Y-107102873D01*
X124773434Y-107114216D01*
X124402690Y-107113569D01*
X124019303Y-107101782D01*
X123661143Y-107079704D01*
X123366084Y-107048184D01*
X123271722Y-107032648D01*
X122912439Y-106953959D01*
X122663032Y-106871783D01*
X122623121Y-106847340D01*
X122371381Y-106847340D01*
X122316052Y-106907630D01*
X122263101Y-106930975D01*
X122108035Y-106970799D01*
X121921072Y-106989600D01*
X121743461Y-106987422D01*
X121616455Y-106964307D01*
X121579000Y-106930259D01*
X121631923Y-106864107D01*
X121761691Y-106789242D01*
X121785375Y-106779116D01*
X122016808Y-106689346D01*
X122162337Y-106651227D01*
X122251244Y-106662914D01*
X122312809Y-106722563D01*
X122327497Y-106744975D01*
X122371381Y-106847340D01*
X122623121Y-106847340D01*
X122506550Y-106775948D01*
X122426045Y-106656287D01*
X122404500Y-106512325D01*
X122413938Y-106364526D01*
X122453148Y-106316355D01*
X122515625Y-106331089D01*
X122785582Y-106431128D01*
X123058366Y-106502633D01*
X123367146Y-106551233D01*
X123745092Y-106582560D01*
X124087250Y-106597877D01*
X124402409Y-106606813D01*
X124667966Y-106607745D01*
X124912840Y-106598023D01*
X125165952Y-106574996D01*
X125456220Y-106536015D01*
X125812565Y-106478427D01*
X126263908Y-106399582D01*
X126278000Y-106397077D01*
X126673602Y-106326925D01*
X127030087Y-106264060D01*
X127327287Y-106212011D01*
X127545027Y-106174307D01*
X127663136Y-106154477D01*
X127675000Y-106152688D01*
X127740980Y-106178460D01*
X127751538Y-106296870D01*
X127871047Y-106296870D01*
X127879968Y-106136665D01*
X127850848Y-106021362D01*
X127738902Y-106021362D01*
X126389326Y-106254064D01*
X125978877Y-106324585D01*
X125600490Y-106389127D01*
X125275755Y-106444045D01*
X125026260Y-106485693D01*
X124873596Y-106510426D01*
X124849250Y-106514097D01*
X124600848Y-106529834D01*
X124269714Y-106523871D01*
X123897622Y-106499564D01*
X123526346Y-106460268D01*
X123197659Y-106409339D01*
X123006064Y-106366038D01*
X122775459Y-106291783D01*
X122585033Y-106211999D01*
X122508757Y-106164706D01*
X122277500Y-106164706D01*
X122221244Y-106236066D01*
X122081339Y-106285920D01*
X121952277Y-106298500D01*
X121775054Y-106337724D01*
X121564895Y-106435909D01*
X121373463Y-106563822D01*
X121252418Y-106692231D01*
X121250526Y-106695582D01*
X121191074Y-106789751D01*
X121161255Y-106776021D01*
X121147288Y-106720846D01*
X121173070Y-106597654D01*
X121271332Y-106449261D01*
X121290542Y-106428327D01*
X121518543Y-106263182D01*
X121813638Y-106149052D01*
X122110243Y-106108000D01*
X122233623Y-106126520D01*
X122277500Y-106164706D01*
X122508757Y-106164706D01*
X122479114Y-106146327D01*
X122421708Y-106030206D01*
X122488667Y-105923137D01*
X122677626Y-105825928D01*
X122986219Y-105739387D01*
X123412078Y-105664319D01*
X123952838Y-105601534D01*
X124119000Y-105586729D01*
X124455027Y-105561768D01*
X124753822Y-105548812D01*
X125048069Y-105548537D01*
X125370456Y-105561618D01*
X125753666Y-105588732D01*
X126228266Y-105630359D01*
X126662550Y-105671641D01*
X126988278Y-105706276D01*
X127223504Y-105737574D01*
X127386280Y-105768847D01*
X127494660Y-105803406D01*
X127566696Y-105844562D01*
X127609591Y-105883717D01*
X127738902Y-106021362D01*
X127850848Y-106021362D01*
X127844062Y-105994496D01*
X127745047Y-105852553D01*
X127741620Y-105848469D01*
X127682502Y-105781505D01*
X127620851Y-105730220D01*
X127537728Y-105690192D01*
X127414194Y-105657002D01*
X127231309Y-105626229D01*
X126970134Y-105593453D01*
X126611729Y-105554252D01*
X126373250Y-105529082D01*
X125532381Y-105461531D01*
X124753355Y-105440965D01*
X124046650Y-105466400D01*
D10*
X167100000Y-109650000D02*
G75*
G03X167100000Y-109650000I-950000J0D01*
G01*
X137691777Y-110958885D02*
X138050987Y-111318095D01*
X138050987Y-111318095D02*
X137781580Y-111587503D01*
X137781580Y-111587503D02*
X137422369Y-111228292D01*
X137422369Y-111228292D02*
X137691777Y-110958885D01*
X155691777Y-110958885D02*
X156050987Y-111318095D01*
X156050987Y-111318095D02*
X155781580Y-111587503D01*
X155781580Y-111587503D02*
X155422369Y-111228292D01*
X155422369Y-111228292D02*
X155691777Y-110958885D01*
X148700000Y-119737000D02*
G75*
G03X148700000Y-119737000I-950000J0D01*
G01*
D13*
X167011904Y-111250000D02*
X167107142Y-111202380D01*
X167250000Y-111202380D01*
X167392857Y-111250000D01*
X167488095Y-111345238D01*
X167535714Y-111440476D01*
X167583333Y-111630952D01*
X167583333Y-111773809D01*
X167535714Y-111964285D01*
X167488095Y-112059523D01*
X167392857Y-112154761D01*
X167250000Y-112202380D01*
X167154761Y-112202380D01*
X167011904Y-112154761D01*
X166964285Y-112107142D01*
X166964285Y-111773809D01*
X167154761Y-111773809D01*
X166535714Y-112202380D02*
X166535714Y-111202380D01*
X165964285Y-112202380D01*
X165964285Y-111202380D01*
X165488095Y-112202380D02*
X165488095Y-111202380D01*
X165250000Y-111202380D01*
X165107142Y-111250000D01*
X165011904Y-111345238D01*
X164964285Y-111440476D01*
X164916666Y-111630952D01*
X164916666Y-111773809D01*
X164964285Y-111964285D01*
X165011904Y-112059523D01*
X165107142Y-112154761D01*
X165250000Y-112202380D01*
X165488095Y-112202380D01*
X140626428Y-121662761D02*
X140483571Y-121710380D01*
X140245476Y-121710380D01*
X140150238Y-121662761D01*
X140102619Y-121615142D01*
X140055000Y-121519904D01*
X140055000Y-121424666D01*
X140102619Y-121329428D01*
X140150238Y-121281809D01*
X140245476Y-121234190D01*
X140435952Y-121186571D01*
X140531190Y-121138952D01*
X140578809Y-121091333D01*
X140626428Y-120996095D01*
X140626428Y-120900857D01*
X140578809Y-120805619D01*
X140531190Y-120758000D01*
X140435952Y-120710380D01*
X140197857Y-120710380D01*
X140055000Y-120758000D01*
X139626428Y-121710380D02*
X139626428Y-121043714D01*
X139626428Y-120710380D02*
X139674047Y-120758000D01*
X139626428Y-120805619D01*
X139578809Y-120758000D01*
X139626428Y-120710380D01*
X139626428Y-120805619D01*
X139150238Y-121710380D02*
X139150238Y-120710380D01*
X138769285Y-120710380D01*
X138674047Y-120758000D01*
X138626428Y-120805619D01*
X138578809Y-120900857D01*
X138578809Y-121043714D01*
X138626428Y-121138952D01*
X138674047Y-121186571D01*
X138769285Y-121234190D01*
X139150238Y-121234190D01*
X138150238Y-121710380D02*
X138150238Y-120710380D01*
X137816904Y-121424666D01*
X137483571Y-120710380D01*
X137483571Y-121710380D01*
X136483571Y-121710380D02*
X137055000Y-121710380D01*
X136769285Y-121710380D02*
X136769285Y-120710380D01*
X136864523Y-120853238D01*
X136959761Y-120948476D01*
X137055000Y-120996095D01*
X158376428Y-121412761D02*
X158233571Y-121460380D01*
X157995476Y-121460380D01*
X157900238Y-121412761D01*
X157852619Y-121365142D01*
X157805000Y-121269904D01*
X157805000Y-121174666D01*
X157852619Y-121079428D01*
X157900238Y-121031809D01*
X157995476Y-120984190D01*
X158185952Y-120936571D01*
X158281190Y-120888952D01*
X158328809Y-120841333D01*
X158376428Y-120746095D01*
X158376428Y-120650857D01*
X158328809Y-120555619D01*
X158281190Y-120508000D01*
X158185952Y-120460380D01*
X157947857Y-120460380D01*
X157805000Y-120508000D01*
X157376428Y-121460380D02*
X157376428Y-120793714D01*
X157376428Y-120460380D02*
X157424047Y-120508000D01*
X157376428Y-120555619D01*
X157328809Y-120508000D01*
X157376428Y-120460380D01*
X157376428Y-120555619D01*
X156900238Y-121460380D02*
X156900238Y-120460380D01*
X156519285Y-120460380D01*
X156424047Y-120508000D01*
X156376428Y-120555619D01*
X156328809Y-120650857D01*
X156328809Y-120793714D01*
X156376428Y-120888952D01*
X156424047Y-120936571D01*
X156519285Y-120984190D01*
X156900238Y-120984190D01*
X155900238Y-121460380D02*
X155900238Y-120460380D01*
X155566904Y-121174666D01*
X155233571Y-120460380D01*
X155233571Y-121460380D01*
X154805000Y-120555619D02*
X154757380Y-120508000D01*
X154662142Y-120460380D01*
X154424047Y-120460380D01*
X154328809Y-120508000D01*
X154281190Y-120555619D01*
X154233571Y-120650857D01*
X154233571Y-120746095D01*
X154281190Y-120888952D01*
X154852619Y-121460380D01*
X154233571Y-121460380D01*
X148646809Y-121443571D02*
X148503952Y-121491190D01*
X148456333Y-121538809D01*
X148408714Y-121634047D01*
X148408714Y-121776904D01*
X148456333Y-121872142D01*
X148503952Y-121919761D01*
X148599190Y-121967380D01*
X148980142Y-121967380D01*
X148980142Y-120967380D01*
X148646809Y-120967380D01*
X148551571Y-121015000D01*
X148503952Y-121062619D01*
X148456333Y-121157857D01*
X148456333Y-121253095D01*
X148503952Y-121348333D01*
X148551571Y-121395952D01*
X148646809Y-121443571D01*
X148980142Y-121443571D01*
X147980142Y-121967380D02*
X147980142Y-121300714D01*
X147980142Y-120967380D02*
X148027761Y-121015000D01*
X147980142Y-121062619D01*
X147932523Y-121015000D01*
X147980142Y-120967380D01*
X147980142Y-121062619D01*
X147075380Y-121967380D02*
X147075380Y-121443571D01*
X147123000Y-121348333D01*
X147218238Y-121300714D01*
X147408714Y-121300714D01*
X147503952Y-121348333D01*
X147075380Y-121919761D02*
X147170619Y-121967380D01*
X147408714Y-121967380D01*
X147503952Y-121919761D01*
X147551571Y-121824523D01*
X147551571Y-121729285D01*
X147503952Y-121634047D01*
X147408714Y-121586428D01*
X147170619Y-121586428D01*
X147075380Y-121538809D01*
X146646809Y-121919761D02*
X146551571Y-121967380D01*
X146361095Y-121967380D01*
X146265857Y-121919761D01*
X146218238Y-121824523D01*
X146218238Y-121776904D01*
X146265857Y-121681666D01*
X146361095Y-121634047D01*
X146503952Y-121634047D01*
X146599190Y-121586428D01*
X146646809Y-121491190D01*
X146646809Y-121443571D01*
X146599190Y-121348333D01*
X146503952Y-121300714D01*
X146361095Y-121300714D01*
X146265857Y-121348333D01*
M02*
