G04 #@! TF.GenerationSoftware,KiCad,Pcbnew,(5.1.5-0)*
G04 #@! TF.CreationDate,2020-09-28T20:09:41-07:00*
G04 #@! TF.ProjectId,Luminometer_ADC,4c756d69-6e6f-46d6-9574-65725f414443,rev?*
G04 #@! TF.SameCoordinates,Original*
G04 #@! TF.FileFunction,Soldermask,Top*
G04 #@! TF.FilePolarity,Negative*
%FSLAX46Y46*%
G04 Gerber Fmt 4.6, Leading zero omitted, Abs format (unit mm)*
G04 Created by KiCad (PCBNEW (5.1.5-0)) date 2020-09-28 20:09:41*
%MOMM*%
%LPD*%
G04 APERTURE LIST*
%ADD10C,0.100000*%
G04 APERTURE END LIST*
D10*
G36*
X175506570Y-121786072D02*
G01*
X175948282Y-121873934D01*
X176539926Y-122119001D01*
X176942271Y-122387840D01*
X177072391Y-122474783D01*
X177525217Y-122927609D01*
X177552454Y-122968372D01*
X177880999Y-123460074D01*
X178126066Y-124051718D01*
X178251000Y-124679804D01*
X178251000Y-125320196D01*
X178126066Y-125948282D01*
X177880999Y-126539926D01*
X177525216Y-127072392D01*
X177072392Y-127525216D01*
X176539926Y-127880999D01*
X175948282Y-128126066D01*
X175634239Y-128188533D01*
X175320197Y-128251000D01*
X174679803Y-128251000D01*
X174365761Y-128188533D01*
X174051718Y-128126066D01*
X173460074Y-127880999D01*
X172927608Y-127525216D01*
X172474784Y-127072392D01*
X172119001Y-126539926D01*
X171873934Y-125948282D01*
X171749000Y-125320196D01*
X171749000Y-124679804D01*
X171873934Y-124051718D01*
X172119001Y-123460074D01*
X172447546Y-122968372D01*
X172474783Y-122927609D01*
X172927609Y-122474783D01*
X173057729Y-122387840D01*
X173460074Y-122119001D01*
X174051718Y-121873934D01*
X174493430Y-121786072D01*
X174679803Y-121749000D01*
X175320197Y-121749000D01*
X175506570Y-121786072D01*
G37*
G36*
X120506570Y-121786072D02*
G01*
X120948282Y-121873934D01*
X121539926Y-122119001D01*
X121942271Y-122387840D01*
X122072391Y-122474783D01*
X122525217Y-122927609D01*
X122552454Y-122968372D01*
X122880999Y-123460074D01*
X123126066Y-124051718D01*
X123251000Y-124679804D01*
X123251000Y-125320196D01*
X123126066Y-125948282D01*
X122880999Y-126539926D01*
X122525216Y-127072392D01*
X122072392Y-127525216D01*
X121539926Y-127880999D01*
X120948282Y-128126066D01*
X120634239Y-128188533D01*
X120320197Y-128251000D01*
X119679803Y-128251000D01*
X119365761Y-128188533D01*
X119051718Y-128126066D01*
X118460074Y-127880999D01*
X117927608Y-127525216D01*
X117474784Y-127072392D01*
X117119001Y-126539926D01*
X116873934Y-125948282D01*
X116749000Y-125320196D01*
X116749000Y-124679804D01*
X116873934Y-124051718D01*
X117119001Y-123460074D01*
X117447546Y-122968372D01*
X117474783Y-122927609D01*
X117927609Y-122474783D01*
X118057729Y-122387840D01*
X118460074Y-122119001D01*
X119051718Y-121873934D01*
X119493430Y-121786072D01*
X119679803Y-121749000D01*
X120320197Y-121749000D01*
X120506570Y-121786072D01*
G37*
G36*
X140575591Y-126351085D02*
G01*
X140609569Y-126361393D01*
X140640890Y-126378134D01*
X140668339Y-126400661D01*
X140690866Y-126428110D01*
X140707607Y-126459431D01*
X140717915Y-126493409D01*
X140722000Y-126534890D01*
X140722000Y-127211110D01*
X140717915Y-127252591D01*
X140707607Y-127286569D01*
X140690866Y-127317890D01*
X140668339Y-127345339D01*
X140640890Y-127367866D01*
X140609569Y-127384607D01*
X140575591Y-127394915D01*
X140534110Y-127399000D01*
X139932890Y-127399000D01*
X139891409Y-127394915D01*
X139857431Y-127384607D01*
X139826110Y-127367866D01*
X139798661Y-127345339D01*
X139776134Y-127317890D01*
X139759393Y-127286569D01*
X139749085Y-127252591D01*
X139745000Y-127211110D01*
X139745000Y-126534890D01*
X139749085Y-126493409D01*
X139759393Y-126459431D01*
X139776134Y-126428110D01*
X139798661Y-126400661D01*
X139826110Y-126378134D01*
X139857431Y-126361393D01*
X139891409Y-126351085D01*
X139932890Y-126347000D01*
X140534110Y-126347000D01*
X140575591Y-126351085D01*
G37*
G36*
X139000591Y-126351085D02*
G01*
X139034569Y-126361393D01*
X139065890Y-126378134D01*
X139093339Y-126400661D01*
X139115866Y-126428110D01*
X139132607Y-126459431D01*
X139142915Y-126493409D01*
X139147000Y-126534890D01*
X139147000Y-127211110D01*
X139142915Y-127252591D01*
X139132607Y-127286569D01*
X139115866Y-127317890D01*
X139093339Y-127345339D01*
X139065890Y-127367866D01*
X139034569Y-127384607D01*
X139000591Y-127394915D01*
X138959110Y-127399000D01*
X138357890Y-127399000D01*
X138316409Y-127394915D01*
X138282431Y-127384607D01*
X138251110Y-127367866D01*
X138223661Y-127345339D01*
X138201134Y-127317890D01*
X138184393Y-127286569D01*
X138174085Y-127252591D01*
X138170000Y-127211110D01*
X138170000Y-126534890D01*
X138174085Y-126493409D01*
X138184393Y-126459431D01*
X138201134Y-126428110D01*
X138223661Y-126400661D01*
X138251110Y-126378134D01*
X138282431Y-126361393D01*
X138316409Y-126351085D01*
X138357890Y-126347000D01*
X138959110Y-126347000D01*
X139000591Y-126351085D01*
G37*
G36*
X160962591Y-125097085D02*
G01*
X160996569Y-125107393D01*
X161027890Y-125124134D01*
X161055339Y-125146661D01*
X161077866Y-125174110D01*
X161094607Y-125205431D01*
X161104915Y-125239409D01*
X161109000Y-125280890D01*
X161109000Y-125957110D01*
X161104915Y-125998591D01*
X161094607Y-126032569D01*
X161077866Y-126063890D01*
X161055339Y-126091339D01*
X161027890Y-126113866D01*
X160996569Y-126130607D01*
X160962591Y-126140915D01*
X160921110Y-126145000D01*
X160319890Y-126145000D01*
X160278409Y-126140915D01*
X160244431Y-126130607D01*
X160213110Y-126113866D01*
X160185661Y-126091339D01*
X160163134Y-126063890D01*
X160146393Y-126032569D01*
X160136085Y-125998591D01*
X160132000Y-125957110D01*
X160132000Y-125280890D01*
X160136085Y-125239409D01*
X160146393Y-125205431D01*
X160163134Y-125174110D01*
X160185661Y-125146661D01*
X160213110Y-125124134D01*
X160244431Y-125107393D01*
X160278409Y-125097085D01*
X160319890Y-125093000D01*
X160921110Y-125093000D01*
X160962591Y-125097085D01*
G37*
G36*
X159387591Y-125097085D02*
G01*
X159421569Y-125107393D01*
X159452890Y-125124134D01*
X159480339Y-125146661D01*
X159502866Y-125174110D01*
X159519607Y-125205431D01*
X159529915Y-125239409D01*
X159534000Y-125280890D01*
X159534000Y-125957110D01*
X159529915Y-125998591D01*
X159519607Y-126032569D01*
X159502866Y-126063890D01*
X159480339Y-126091339D01*
X159452890Y-126113866D01*
X159421569Y-126130607D01*
X159387591Y-126140915D01*
X159346110Y-126145000D01*
X158744890Y-126145000D01*
X158703409Y-126140915D01*
X158669431Y-126130607D01*
X158638110Y-126113866D01*
X158610661Y-126091339D01*
X158588134Y-126063890D01*
X158571393Y-126032569D01*
X158561085Y-125998591D01*
X158557000Y-125957110D01*
X158557000Y-125280890D01*
X158561085Y-125239409D01*
X158571393Y-125205431D01*
X158588134Y-125174110D01*
X158610661Y-125146661D01*
X158638110Y-125124134D01*
X158669431Y-125107393D01*
X158703409Y-125097085D01*
X158744890Y-125093000D01*
X159346110Y-125093000D01*
X159387591Y-125097085D01*
G37*
G36*
X157675091Y-125097085D02*
G01*
X157709069Y-125107393D01*
X157740390Y-125124134D01*
X157767839Y-125146661D01*
X157790366Y-125174110D01*
X157807107Y-125205431D01*
X157817415Y-125239409D01*
X157821500Y-125280890D01*
X157821500Y-125957110D01*
X157817415Y-125998591D01*
X157807107Y-126032569D01*
X157790366Y-126063890D01*
X157767839Y-126091339D01*
X157740390Y-126113866D01*
X157709069Y-126130607D01*
X157675091Y-126140915D01*
X157633610Y-126145000D01*
X157032390Y-126145000D01*
X156990909Y-126140915D01*
X156956931Y-126130607D01*
X156925610Y-126113866D01*
X156898161Y-126091339D01*
X156875634Y-126063890D01*
X156858893Y-126032569D01*
X156848585Y-125998591D01*
X156844500Y-125957110D01*
X156844500Y-125280890D01*
X156848585Y-125239409D01*
X156858893Y-125205431D01*
X156875634Y-125174110D01*
X156898161Y-125146661D01*
X156925610Y-125124134D01*
X156956931Y-125107393D01*
X156990909Y-125097085D01*
X157032390Y-125093000D01*
X157633610Y-125093000D01*
X157675091Y-125097085D01*
G37*
G36*
X156100091Y-125097085D02*
G01*
X156134069Y-125107393D01*
X156165390Y-125124134D01*
X156192839Y-125146661D01*
X156215366Y-125174110D01*
X156232107Y-125205431D01*
X156242415Y-125239409D01*
X156246500Y-125280890D01*
X156246500Y-125957110D01*
X156242415Y-125998591D01*
X156232107Y-126032569D01*
X156215366Y-126063890D01*
X156192839Y-126091339D01*
X156165390Y-126113866D01*
X156134069Y-126130607D01*
X156100091Y-126140915D01*
X156058610Y-126145000D01*
X155457390Y-126145000D01*
X155415909Y-126140915D01*
X155381931Y-126130607D01*
X155350610Y-126113866D01*
X155323161Y-126091339D01*
X155300634Y-126063890D01*
X155283893Y-126032569D01*
X155273585Y-125998591D01*
X155269500Y-125957110D01*
X155269500Y-125280890D01*
X155273585Y-125239409D01*
X155283893Y-125205431D01*
X155300634Y-125174110D01*
X155323161Y-125146661D01*
X155350610Y-125124134D01*
X155381931Y-125107393D01*
X155415909Y-125097085D01*
X155457390Y-125093000D01*
X156058610Y-125093000D01*
X156100091Y-125097085D01*
G37*
G36*
X137666591Y-124915585D02*
G01*
X137700569Y-124925893D01*
X137731890Y-124942634D01*
X137759339Y-124965161D01*
X137781866Y-124992610D01*
X137798607Y-125023931D01*
X137808915Y-125057909D01*
X137813000Y-125099390D01*
X137813000Y-125700610D01*
X137808915Y-125742091D01*
X137798607Y-125776069D01*
X137781866Y-125807390D01*
X137759339Y-125834839D01*
X137731890Y-125857366D01*
X137700569Y-125874107D01*
X137666591Y-125884415D01*
X137625110Y-125888500D01*
X136948890Y-125888500D01*
X136907409Y-125884415D01*
X136873431Y-125874107D01*
X136842110Y-125857366D01*
X136814661Y-125834839D01*
X136792134Y-125807390D01*
X136775393Y-125776069D01*
X136765085Y-125742091D01*
X136761000Y-125700610D01*
X136761000Y-125099390D01*
X136765085Y-125057909D01*
X136775393Y-125023931D01*
X136792134Y-124992610D01*
X136814661Y-124965161D01*
X136842110Y-124942634D01*
X136873431Y-124925893D01*
X136907409Y-124915585D01*
X136948890Y-124911500D01*
X137625110Y-124911500D01*
X137666591Y-124915585D01*
G37*
G36*
X146243928Y-124237764D02*
G01*
X146265009Y-124244160D01*
X146284445Y-124254548D01*
X146301476Y-124268524D01*
X146315452Y-124285555D01*
X146325840Y-124304991D01*
X146332236Y-124326072D01*
X146335000Y-124354140D01*
X146335000Y-124817860D01*
X146332236Y-124845928D01*
X146325840Y-124867009D01*
X146315452Y-124886445D01*
X146301476Y-124903476D01*
X146284445Y-124917452D01*
X146265009Y-124927840D01*
X146243928Y-124934236D01*
X146215860Y-124937000D01*
X144402140Y-124937000D01*
X144374072Y-124934236D01*
X144352991Y-124927840D01*
X144333555Y-124917452D01*
X144316524Y-124903476D01*
X144302548Y-124886445D01*
X144292160Y-124867009D01*
X144285764Y-124845928D01*
X144283000Y-124817860D01*
X144283000Y-124354140D01*
X144285764Y-124326072D01*
X144292160Y-124304991D01*
X144302548Y-124285555D01*
X144316524Y-124268524D01*
X144333555Y-124254548D01*
X144352991Y-124244160D01*
X144374072Y-124237764D01*
X144402140Y-124235000D01*
X146215860Y-124235000D01*
X146243928Y-124237764D01*
G37*
G36*
X141293928Y-124237764D02*
G01*
X141315009Y-124244160D01*
X141334445Y-124254548D01*
X141351476Y-124268524D01*
X141365452Y-124285555D01*
X141375840Y-124304991D01*
X141382236Y-124326072D01*
X141385000Y-124354140D01*
X141385000Y-124817860D01*
X141382236Y-124845928D01*
X141375840Y-124867009D01*
X141365452Y-124886445D01*
X141351476Y-124903476D01*
X141334445Y-124917452D01*
X141315009Y-124927840D01*
X141293928Y-124934236D01*
X141265860Y-124937000D01*
X139452140Y-124937000D01*
X139424072Y-124934236D01*
X139402991Y-124927840D01*
X139383555Y-124917452D01*
X139366524Y-124903476D01*
X139352548Y-124886445D01*
X139342160Y-124867009D01*
X139335764Y-124845928D01*
X139333000Y-124817860D01*
X139333000Y-124354140D01*
X139335764Y-124326072D01*
X139342160Y-124304991D01*
X139352548Y-124285555D01*
X139366524Y-124268524D01*
X139383555Y-124254548D01*
X139402991Y-124244160D01*
X139424072Y-124237764D01*
X139452140Y-124235000D01*
X141265860Y-124235000D01*
X141293928Y-124237764D01*
G37*
G36*
X165584000Y-124820000D02*
G01*
X162082000Y-124820000D01*
X162082000Y-123418000D01*
X165584000Y-123418000D01*
X165584000Y-124820000D01*
G37*
G36*
X137666591Y-123340585D02*
G01*
X137700569Y-123350893D01*
X137731890Y-123367634D01*
X137759339Y-123390161D01*
X137781866Y-123417610D01*
X137798607Y-123448931D01*
X137808915Y-123482909D01*
X137813000Y-123524390D01*
X137813000Y-124125610D01*
X137808915Y-124167091D01*
X137798607Y-124201069D01*
X137781866Y-124232390D01*
X137759339Y-124259839D01*
X137731890Y-124282366D01*
X137700569Y-124299107D01*
X137666591Y-124309415D01*
X137625110Y-124313500D01*
X136948890Y-124313500D01*
X136907409Y-124309415D01*
X136873431Y-124299107D01*
X136842110Y-124282366D01*
X136814661Y-124259839D01*
X136792134Y-124232390D01*
X136775393Y-124201069D01*
X136765085Y-124167091D01*
X136761000Y-124125610D01*
X136761000Y-123524390D01*
X136765085Y-123482909D01*
X136775393Y-123448931D01*
X136792134Y-123417610D01*
X136814661Y-123390161D01*
X136842110Y-123367634D01*
X136873431Y-123350893D01*
X136907409Y-123340585D01*
X136948890Y-123336500D01*
X137625110Y-123336500D01*
X137666591Y-123340585D01*
G37*
G36*
X160709000Y-123930000D02*
G01*
X159547000Y-123930000D01*
X159547000Y-121468000D01*
X160709000Y-121468000D01*
X160709000Y-123930000D01*
G37*
G36*
X158509000Y-123930000D02*
G01*
X157347000Y-123930000D01*
X157347000Y-121468000D01*
X158509000Y-121468000D01*
X158509000Y-123930000D01*
G37*
G36*
X146243928Y-122967764D02*
G01*
X146265009Y-122974160D01*
X146284445Y-122984548D01*
X146301476Y-122998524D01*
X146315452Y-123015555D01*
X146325840Y-123034991D01*
X146332236Y-123056072D01*
X146335000Y-123084140D01*
X146335000Y-123547860D01*
X146332236Y-123575928D01*
X146325840Y-123597009D01*
X146315452Y-123616445D01*
X146301476Y-123633476D01*
X146284445Y-123647452D01*
X146265009Y-123657840D01*
X146243928Y-123664236D01*
X146215860Y-123667000D01*
X144402140Y-123667000D01*
X144374072Y-123664236D01*
X144352991Y-123657840D01*
X144333555Y-123647452D01*
X144316524Y-123633476D01*
X144302548Y-123616445D01*
X144292160Y-123597009D01*
X144285764Y-123575928D01*
X144283000Y-123547860D01*
X144283000Y-123084140D01*
X144285764Y-123056072D01*
X144292160Y-123034991D01*
X144302548Y-123015555D01*
X144316524Y-122998524D01*
X144333555Y-122984548D01*
X144352991Y-122974160D01*
X144374072Y-122967764D01*
X144402140Y-122965000D01*
X146215860Y-122965000D01*
X146243928Y-122967764D01*
G37*
G36*
X141293928Y-122967764D02*
G01*
X141315009Y-122974160D01*
X141334445Y-122984548D01*
X141351476Y-122998524D01*
X141365452Y-123015555D01*
X141375840Y-123034991D01*
X141382236Y-123056072D01*
X141385000Y-123084140D01*
X141385000Y-123547860D01*
X141382236Y-123575928D01*
X141375840Y-123597009D01*
X141365452Y-123616445D01*
X141351476Y-123633476D01*
X141334445Y-123647452D01*
X141315009Y-123657840D01*
X141293928Y-123664236D01*
X141265860Y-123667000D01*
X139452140Y-123667000D01*
X139424072Y-123664236D01*
X139402991Y-123657840D01*
X139383555Y-123647452D01*
X139366524Y-123633476D01*
X139352548Y-123616445D01*
X139342160Y-123597009D01*
X139335764Y-123575928D01*
X139333000Y-123547860D01*
X139333000Y-123084140D01*
X139335764Y-123056072D01*
X139342160Y-123034991D01*
X139352548Y-123015555D01*
X139366524Y-122998524D01*
X139383555Y-122984548D01*
X139402991Y-122974160D01*
X139424072Y-122967764D01*
X139452140Y-122965000D01*
X141265860Y-122965000D01*
X141293928Y-122967764D01*
G37*
G36*
X156175091Y-122597085D02*
G01*
X156209069Y-122607393D01*
X156240390Y-122624134D01*
X156267839Y-122646661D01*
X156290366Y-122674110D01*
X156307107Y-122705431D01*
X156317415Y-122739409D01*
X156321500Y-122780890D01*
X156321500Y-123457110D01*
X156317415Y-123498591D01*
X156307107Y-123532569D01*
X156290366Y-123563890D01*
X156267839Y-123591339D01*
X156240390Y-123613866D01*
X156209069Y-123630607D01*
X156175091Y-123640915D01*
X156133610Y-123645000D01*
X155532390Y-123645000D01*
X155490909Y-123640915D01*
X155456931Y-123630607D01*
X155425610Y-123613866D01*
X155398161Y-123591339D01*
X155375634Y-123563890D01*
X155358893Y-123532569D01*
X155348585Y-123498591D01*
X155344500Y-123457110D01*
X155344500Y-122780890D01*
X155348585Y-122739409D01*
X155358893Y-122705431D01*
X155375634Y-122674110D01*
X155398161Y-122646661D01*
X155425610Y-122624134D01*
X155456931Y-122607393D01*
X155490909Y-122597085D01*
X155532390Y-122593000D01*
X156133610Y-122593000D01*
X156175091Y-122597085D01*
G37*
G36*
X154600091Y-122597085D02*
G01*
X154634069Y-122607393D01*
X154665390Y-122624134D01*
X154692839Y-122646661D01*
X154715366Y-122674110D01*
X154732107Y-122705431D01*
X154742415Y-122739409D01*
X154746500Y-122780890D01*
X154746500Y-123457110D01*
X154742415Y-123498591D01*
X154732107Y-123532569D01*
X154715366Y-123563890D01*
X154692839Y-123591339D01*
X154665390Y-123613866D01*
X154634069Y-123630607D01*
X154600091Y-123640915D01*
X154558610Y-123645000D01*
X153957390Y-123645000D01*
X153915909Y-123640915D01*
X153881931Y-123630607D01*
X153850610Y-123613866D01*
X153823161Y-123591339D01*
X153800634Y-123563890D01*
X153783893Y-123532569D01*
X153773585Y-123498591D01*
X153769500Y-123457110D01*
X153769500Y-122780890D01*
X153773585Y-122739409D01*
X153783893Y-122705431D01*
X153800634Y-122674110D01*
X153823161Y-122646661D01*
X153850610Y-122624134D01*
X153881931Y-122607393D01*
X153915909Y-122597085D01*
X153957390Y-122593000D01*
X154558610Y-122593000D01*
X154600091Y-122597085D01*
G37*
G36*
X165584000Y-122720000D02*
G01*
X162082000Y-122720000D01*
X162082000Y-121318000D01*
X165584000Y-121318000D01*
X165584000Y-122720000D01*
G37*
G36*
X137629091Y-121525085D02*
G01*
X137663069Y-121535393D01*
X137694390Y-121552134D01*
X137721839Y-121574661D01*
X137744366Y-121602110D01*
X137761107Y-121633431D01*
X137771415Y-121667409D01*
X137775500Y-121708890D01*
X137775500Y-122385110D01*
X137771415Y-122426591D01*
X137761107Y-122460569D01*
X137744366Y-122491890D01*
X137721839Y-122519339D01*
X137694390Y-122541866D01*
X137663069Y-122558607D01*
X137629091Y-122568915D01*
X137587610Y-122573000D01*
X136986390Y-122573000D01*
X136944909Y-122568915D01*
X136910931Y-122558607D01*
X136879610Y-122541866D01*
X136852161Y-122519339D01*
X136829634Y-122491890D01*
X136812893Y-122460569D01*
X136802585Y-122426591D01*
X136798500Y-122385110D01*
X136798500Y-121708890D01*
X136802585Y-121667409D01*
X136812893Y-121633431D01*
X136829634Y-121602110D01*
X136852161Y-121574661D01*
X136879610Y-121552134D01*
X136910931Y-121535393D01*
X136944909Y-121525085D01*
X136986390Y-121521000D01*
X137587610Y-121521000D01*
X137629091Y-121525085D01*
G37*
G36*
X136054091Y-121525085D02*
G01*
X136088069Y-121535393D01*
X136119390Y-121552134D01*
X136146839Y-121574661D01*
X136169366Y-121602110D01*
X136186107Y-121633431D01*
X136196415Y-121667409D01*
X136200500Y-121708890D01*
X136200500Y-122385110D01*
X136196415Y-122426591D01*
X136186107Y-122460569D01*
X136169366Y-122491890D01*
X136146839Y-122519339D01*
X136119390Y-122541866D01*
X136088069Y-122558607D01*
X136054091Y-122568915D01*
X136012610Y-122573000D01*
X135411390Y-122573000D01*
X135369909Y-122568915D01*
X135335931Y-122558607D01*
X135304610Y-122541866D01*
X135277161Y-122519339D01*
X135254634Y-122491890D01*
X135237893Y-122460569D01*
X135227585Y-122426591D01*
X135223500Y-122385110D01*
X135223500Y-121708890D01*
X135227585Y-121667409D01*
X135237893Y-121633431D01*
X135254634Y-121602110D01*
X135277161Y-121574661D01*
X135304610Y-121552134D01*
X135335931Y-121535393D01*
X135369909Y-121525085D01*
X135411390Y-121521000D01*
X136012610Y-121521000D01*
X136054091Y-121525085D01*
G37*
G36*
X146243928Y-121697764D02*
G01*
X146265009Y-121704160D01*
X146284445Y-121714548D01*
X146301476Y-121728524D01*
X146315452Y-121745555D01*
X146325840Y-121764991D01*
X146332236Y-121786072D01*
X146335000Y-121814140D01*
X146335000Y-122277860D01*
X146332236Y-122305928D01*
X146325840Y-122327009D01*
X146315452Y-122346445D01*
X146301476Y-122363476D01*
X146284445Y-122377452D01*
X146265009Y-122387840D01*
X146243928Y-122394236D01*
X146215860Y-122397000D01*
X144402140Y-122397000D01*
X144374072Y-122394236D01*
X144352991Y-122387840D01*
X144333555Y-122377452D01*
X144316524Y-122363476D01*
X144302548Y-122346445D01*
X144292160Y-122327009D01*
X144285764Y-122305928D01*
X144283000Y-122277860D01*
X144283000Y-121814140D01*
X144285764Y-121786072D01*
X144292160Y-121764991D01*
X144302548Y-121745555D01*
X144316524Y-121728524D01*
X144333555Y-121714548D01*
X144352991Y-121704160D01*
X144374072Y-121697764D01*
X144402140Y-121695000D01*
X146215860Y-121695000D01*
X146243928Y-121697764D01*
G37*
G36*
X141293928Y-121697764D02*
G01*
X141315009Y-121704160D01*
X141334445Y-121714548D01*
X141351476Y-121728524D01*
X141365452Y-121745555D01*
X141375840Y-121764991D01*
X141382236Y-121786072D01*
X141385000Y-121814140D01*
X141385000Y-122277860D01*
X141382236Y-122305928D01*
X141375840Y-122327009D01*
X141365452Y-122346445D01*
X141351476Y-122363476D01*
X141334445Y-122377452D01*
X141315009Y-122387840D01*
X141293928Y-122394236D01*
X141265860Y-122397000D01*
X139452140Y-122397000D01*
X139424072Y-122394236D01*
X139402991Y-122387840D01*
X139383555Y-122377452D01*
X139366524Y-122363476D01*
X139352548Y-122346445D01*
X139342160Y-122327009D01*
X139335764Y-122305928D01*
X139333000Y-122277860D01*
X139333000Y-121814140D01*
X139335764Y-121786072D01*
X139342160Y-121764991D01*
X139352548Y-121745555D01*
X139366524Y-121728524D01*
X139383555Y-121714548D01*
X139402991Y-121704160D01*
X139424072Y-121697764D01*
X139452140Y-121695000D01*
X141265860Y-121695000D01*
X141293928Y-121697764D01*
G37*
G36*
X156175091Y-120597085D02*
G01*
X156209069Y-120607393D01*
X156240390Y-120624134D01*
X156267839Y-120646661D01*
X156290366Y-120674110D01*
X156307107Y-120705431D01*
X156317415Y-120739409D01*
X156321500Y-120780890D01*
X156321500Y-121457110D01*
X156317415Y-121498591D01*
X156307107Y-121532569D01*
X156290366Y-121563890D01*
X156267839Y-121591339D01*
X156240390Y-121613866D01*
X156209069Y-121630607D01*
X156175091Y-121640915D01*
X156133610Y-121645000D01*
X155532390Y-121645000D01*
X155490909Y-121640915D01*
X155456931Y-121630607D01*
X155425610Y-121613866D01*
X155398161Y-121591339D01*
X155375634Y-121563890D01*
X155358893Y-121532569D01*
X155348585Y-121498591D01*
X155344500Y-121457110D01*
X155344500Y-120780890D01*
X155348585Y-120739409D01*
X155358893Y-120705431D01*
X155375634Y-120674110D01*
X155398161Y-120646661D01*
X155425610Y-120624134D01*
X155456931Y-120607393D01*
X155490909Y-120597085D01*
X155532390Y-120593000D01*
X156133610Y-120593000D01*
X156175091Y-120597085D01*
G37*
G36*
X154600091Y-120597085D02*
G01*
X154634069Y-120607393D01*
X154665390Y-120624134D01*
X154692839Y-120646661D01*
X154715366Y-120674110D01*
X154732107Y-120705431D01*
X154742415Y-120739409D01*
X154746500Y-120780890D01*
X154746500Y-121457110D01*
X154742415Y-121498591D01*
X154732107Y-121532569D01*
X154715366Y-121563890D01*
X154692839Y-121591339D01*
X154665390Y-121613866D01*
X154634069Y-121630607D01*
X154600091Y-121640915D01*
X154558610Y-121645000D01*
X153957390Y-121645000D01*
X153915909Y-121640915D01*
X153881931Y-121630607D01*
X153850610Y-121613866D01*
X153823161Y-121591339D01*
X153800634Y-121563890D01*
X153783893Y-121532569D01*
X153773585Y-121498591D01*
X153769500Y-121457110D01*
X153769500Y-120780890D01*
X153773585Y-120739409D01*
X153783893Y-120705431D01*
X153800634Y-120674110D01*
X153823161Y-120646661D01*
X153850610Y-120624134D01*
X153881931Y-120607393D01*
X153915909Y-120597085D01*
X153957390Y-120593000D01*
X154558610Y-120593000D01*
X154600091Y-120597085D01*
G37*
G36*
X141293928Y-120427764D02*
G01*
X141315009Y-120434160D01*
X141334445Y-120444548D01*
X141351476Y-120458524D01*
X141365452Y-120475555D01*
X141375840Y-120494991D01*
X141382236Y-120516072D01*
X141385000Y-120544140D01*
X141385000Y-121007860D01*
X141382236Y-121035928D01*
X141375840Y-121057009D01*
X141365452Y-121076445D01*
X141351476Y-121093476D01*
X141334445Y-121107452D01*
X141315009Y-121117840D01*
X141293928Y-121124236D01*
X141265860Y-121127000D01*
X139452140Y-121127000D01*
X139424072Y-121124236D01*
X139402991Y-121117840D01*
X139383555Y-121107452D01*
X139366524Y-121093476D01*
X139352548Y-121076445D01*
X139342160Y-121057009D01*
X139335764Y-121035928D01*
X139333000Y-121007860D01*
X139333000Y-120544140D01*
X139335764Y-120516072D01*
X139342160Y-120494991D01*
X139352548Y-120475555D01*
X139366524Y-120458524D01*
X139383555Y-120444548D01*
X139402991Y-120434160D01*
X139424072Y-120427764D01*
X139452140Y-120425000D01*
X141265860Y-120425000D01*
X141293928Y-120427764D01*
G37*
G36*
X146243928Y-120427764D02*
G01*
X146265009Y-120434160D01*
X146284445Y-120444548D01*
X146301476Y-120458524D01*
X146315452Y-120475555D01*
X146325840Y-120494991D01*
X146332236Y-120516072D01*
X146335000Y-120544140D01*
X146335000Y-121007860D01*
X146332236Y-121035928D01*
X146325840Y-121057009D01*
X146315452Y-121076445D01*
X146301476Y-121093476D01*
X146284445Y-121107452D01*
X146265009Y-121117840D01*
X146243928Y-121124236D01*
X146215860Y-121127000D01*
X144402140Y-121127000D01*
X144374072Y-121124236D01*
X144352991Y-121117840D01*
X144333555Y-121107452D01*
X144316524Y-121093476D01*
X144302548Y-121076445D01*
X144292160Y-121057009D01*
X144285764Y-121035928D01*
X144283000Y-121007860D01*
X144283000Y-120544140D01*
X144285764Y-120516072D01*
X144292160Y-120494991D01*
X144302548Y-120475555D01*
X144316524Y-120458524D01*
X144333555Y-120444548D01*
X144352991Y-120434160D01*
X144374072Y-120427764D01*
X144402140Y-120425000D01*
X146215860Y-120425000D01*
X146243928Y-120427764D01*
G37*
G36*
X162175091Y-119597085D02*
G01*
X162209069Y-119607393D01*
X162240390Y-119624134D01*
X162267839Y-119646661D01*
X162290366Y-119674110D01*
X162307107Y-119705431D01*
X162317415Y-119739409D01*
X162321500Y-119780890D01*
X162321500Y-120457110D01*
X162317415Y-120498591D01*
X162307107Y-120532569D01*
X162290366Y-120563890D01*
X162267839Y-120591339D01*
X162240390Y-120613866D01*
X162209069Y-120630607D01*
X162175091Y-120640915D01*
X162133610Y-120645000D01*
X161532390Y-120645000D01*
X161490909Y-120640915D01*
X161456931Y-120630607D01*
X161425610Y-120613866D01*
X161398161Y-120591339D01*
X161375634Y-120563890D01*
X161358893Y-120532569D01*
X161348585Y-120498591D01*
X161344500Y-120457110D01*
X161344500Y-119780890D01*
X161348585Y-119739409D01*
X161358893Y-119705431D01*
X161375634Y-119674110D01*
X161398161Y-119646661D01*
X161425610Y-119624134D01*
X161456931Y-119607393D01*
X161490909Y-119597085D01*
X161532390Y-119593000D01*
X162133610Y-119593000D01*
X162175091Y-119597085D01*
G37*
G36*
X160600091Y-119597085D02*
G01*
X160634069Y-119607393D01*
X160665390Y-119624134D01*
X160692839Y-119646661D01*
X160715366Y-119674110D01*
X160732107Y-119705431D01*
X160742415Y-119739409D01*
X160746500Y-119780890D01*
X160746500Y-120457110D01*
X160742415Y-120498591D01*
X160732107Y-120532569D01*
X160715366Y-120563890D01*
X160692839Y-120591339D01*
X160665390Y-120613866D01*
X160634069Y-120630607D01*
X160600091Y-120640915D01*
X160558610Y-120645000D01*
X159957390Y-120645000D01*
X159915909Y-120640915D01*
X159881931Y-120630607D01*
X159850610Y-120613866D01*
X159823161Y-120591339D01*
X159800634Y-120563890D01*
X159783893Y-120532569D01*
X159773585Y-120498591D01*
X159769500Y-120457110D01*
X159769500Y-119780890D01*
X159773585Y-119739409D01*
X159783893Y-119705431D01*
X159800634Y-119674110D01*
X159823161Y-119646661D01*
X159850610Y-119624134D01*
X159881931Y-119607393D01*
X159915909Y-119597085D01*
X159957390Y-119593000D01*
X160558610Y-119593000D01*
X160600091Y-119597085D01*
G37*
G36*
X160089000Y-117330000D02*
G01*
X159087000Y-117330000D01*
X159087000Y-116428000D01*
X160089000Y-116428000D01*
X160089000Y-117330000D01*
G37*
G36*
X161797591Y-115983585D02*
G01*
X161831569Y-115993893D01*
X161862890Y-116010634D01*
X161890339Y-116033161D01*
X161912866Y-116060610D01*
X161929607Y-116091931D01*
X161939915Y-116125909D01*
X161944000Y-116167390D01*
X161944000Y-116768610D01*
X161939915Y-116810091D01*
X161929607Y-116844069D01*
X161912866Y-116875390D01*
X161890339Y-116902839D01*
X161862890Y-116925366D01*
X161831569Y-116942107D01*
X161797591Y-116952415D01*
X161756110Y-116956500D01*
X161079890Y-116956500D01*
X161038409Y-116952415D01*
X161004431Y-116942107D01*
X160973110Y-116925366D01*
X160945661Y-116902839D01*
X160923134Y-116875390D01*
X160906393Y-116844069D01*
X160896085Y-116810091D01*
X160892000Y-116768610D01*
X160892000Y-116167390D01*
X160896085Y-116125909D01*
X160906393Y-116091931D01*
X160923134Y-116060610D01*
X160945661Y-116033161D01*
X160973110Y-116010634D01*
X161004431Y-115993893D01*
X161038409Y-115983585D01*
X161079890Y-115979500D01*
X161756110Y-115979500D01*
X161797591Y-115983585D01*
G37*
G36*
X158089000Y-116380000D02*
G01*
X157087000Y-116380000D01*
X157087000Y-115478000D01*
X158089000Y-115478000D01*
X158089000Y-116380000D01*
G37*
G36*
X166249000Y-116214000D02*
G01*
X165247000Y-116214000D01*
X165247000Y-115312000D01*
X166249000Y-115312000D01*
X166249000Y-116214000D01*
G37*
G36*
X168032591Y-115006585D02*
G01*
X168066569Y-115016893D01*
X168097890Y-115033634D01*
X168125339Y-115056161D01*
X168147866Y-115083610D01*
X168164607Y-115114931D01*
X168174915Y-115148909D01*
X168179000Y-115190390D01*
X168179000Y-115791610D01*
X168174915Y-115833091D01*
X168164607Y-115867069D01*
X168147866Y-115898390D01*
X168125339Y-115925839D01*
X168097890Y-115948366D01*
X168066569Y-115965107D01*
X168032591Y-115975415D01*
X167991110Y-115979500D01*
X167314890Y-115979500D01*
X167273409Y-115975415D01*
X167239431Y-115965107D01*
X167208110Y-115948366D01*
X167180661Y-115925839D01*
X167158134Y-115898390D01*
X167141393Y-115867069D01*
X167131085Y-115833091D01*
X167127000Y-115791610D01*
X167127000Y-115190390D01*
X167131085Y-115148909D01*
X167141393Y-115114931D01*
X167158134Y-115083610D01*
X167180661Y-115056161D01*
X167208110Y-115033634D01*
X167239431Y-115016893D01*
X167273409Y-115006585D01*
X167314890Y-115002500D01*
X167991110Y-115002500D01*
X168032591Y-115006585D01*
G37*
G36*
X160089000Y-115430000D02*
G01*
X159087000Y-115430000D01*
X159087000Y-114528000D01*
X160089000Y-114528000D01*
X160089000Y-115430000D01*
G37*
G36*
X161797591Y-114408585D02*
G01*
X161831569Y-114418893D01*
X161862890Y-114435634D01*
X161890339Y-114458161D01*
X161912866Y-114485610D01*
X161929607Y-114516931D01*
X161939915Y-114550909D01*
X161944000Y-114592390D01*
X161944000Y-115193610D01*
X161939915Y-115235091D01*
X161929607Y-115269069D01*
X161912866Y-115300390D01*
X161890339Y-115327839D01*
X161862890Y-115350366D01*
X161831569Y-115367107D01*
X161797591Y-115377415D01*
X161756110Y-115381500D01*
X161079890Y-115381500D01*
X161038409Y-115377415D01*
X161004431Y-115367107D01*
X160973110Y-115350366D01*
X160945661Y-115327839D01*
X160923134Y-115300390D01*
X160906393Y-115269069D01*
X160896085Y-115235091D01*
X160892000Y-115193610D01*
X160892000Y-114592390D01*
X160896085Y-114550909D01*
X160906393Y-114516931D01*
X160923134Y-114485610D01*
X160945661Y-114458161D01*
X160973110Y-114435634D01*
X161004431Y-114418893D01*
X161038409Y-114408585D01*
X161079890Y-114404500D01*
X161756110Y-114404500D01*
X161797591Y-114408585D01*
G37*
G36*
X164249000Y-115264000D02*
G01*
X163247000Y-115264000D01*
X163247000Y-114362000D01*
X164249000Y-114362000D01*
X164249000Y-115264000D01*
G37*
G36*
X142879487Y-112248996D02*
G01*
X143116253Y-112347068D01*
X143116255Y-112347069D01*
X143329339Y-112489447D01*
X143510553Y-112670661D01*
X143652932Y-112883747D01*
X143751004Y-113120513D01*
X143801000Y-113371861D01*
X143801000Y-113628139D01*
X143751004Y-113879487D01*
X143664390Y-114088591D01*
X143652931Y-114116255D01*
X143510553Y-114329339D01*
X143329339Y-114510553D01*
X143116255Y-114652931D01*
X143116254Y-114652932D01*
X143116253Y-114652932D01*
X142879487Y-114751004D01*
X142628139Y-114801000D01*
X142371861Y-114801000D01*
X142120513Y-114751004D01*
X141883747Y-114652932D01*
X141883746Y-114652932D01*
X141883745Y-114652931D01*
X141670661Y-114510553D01*
X141489447Y-114329339D01*
X141347069Y-114116255D01*
X141335610Y-114088591D01*
X141248996Y-113879487D01*
X141199000Y-113628139D01*
X141199000Y-113371861D01*
X141248996Y-113120513D01*
X141347068Y-112883747D01*
X141489447Y-112670661D01*
X141670661Y-112489447D01*
X141883745Y-112347069D01*
X141883747Y-112347068D01*
X142120513Y-112248996D01*
X142371861Y-112199000D01*
X142628139Y-112199000D01*
X142879487Y-112248996D01*
G37*
G36*
X168032591Y-113431585D02*
G01*
X168066569Y-113441893D01*
X168097890Y-113458634D01*
X168125339Y-113481161D01*
X168147866Y-113508610D01*
X168164607Y-113539931D01*
X168174915Y-113573909D01*
X168179000Y-113615390D01*
X168179000Y-114216610D01*
X168174915Y-114258091D01*
X168164607Y-114292069D01*
X168147866Y-114323390D01*
X168125339Y-114350839D01*
X168097890Y-114373366D01*
X168066569Y-114390107D01*
X168032591Y-114400415D01*
X167991110Y-114404500D01*
X167314890Y-114404500D01*
X167273409Y-114400415D01*
X167239431Y-114390107D01*
X167208110Y-114373366D01*
X167180661Y-114350839D01*
X167158134Y-114323390D01*
X167141393Y-114292069D01*
X167131085Y-114258091D01*
X167127000Y-114216610D01*
X167127000Y-113615390D01*
X167131085Y-113573909D01*
X167141393Y-113539931D01*
X167158134Y-113508610D01*
X167180661Y-113481161D01*
X167208110Y-113458634D01*
X167239431Y-113441893D01*
X167273409Y-113431585D01*
X167314890Y-113427500D01*
X167991110Y-113427500D01*
X168032591Y-113431585D01*
G37*
G36*
X166249000Y-114314000D02*
G01*
X165247000Y-114314000D01*
X165247000Y-113412000D01*
X166249000Y-113412000D01*
X166249000Y-114314000D01*
G37*
G36*
X171805091Y-113187085D02*
G01*
X171839069Y-113197393D01*
X171870390Y-113214134D01*
X171897839Y-113236661D01*
X171920366Y-113264110D01*
X171937107Y-113295431D01*
X171947415Y-113329409D01*
X171951500Y-113370890D01*
X171951500Y-114047110D01*
X171947415Y-114088591D01*
X171937107Y-114122569D01*
X171920366Y-114153890D01*
X171897839Y-114181339D01*
X171870390Y-114203866D01*
X171839069Y-114220607D01*
X171805091Y-114230915D01*
X171763610Y-114235000D01*
X171162390Y-114235000D01*
X171120909Y-114230915D01*
X171086931Y-114220607D01*
X171055610Y-114203866D01*
X171028161Y-114181339D01*
X171005634Y-114153890D01*
X170988893Y-114122569D01*
X170978585Y-114088591D01*
X170974500Y-114047110D01*
X170974500Y-113370890D01*
X170978585Y-113329409D01*
X170988893Y-113295431D01*
X171005634Y-113264110D01*
X171028161Y-113236661D01*
X171055610Y-113214134D01*
X171086931Y-113197393D01*
X171120909Y-113187085D01*
X171162390Y-113183000D01*
X171763610Y-113183000D01*
X171805091Y-113187085D01*
G37*
G36*
X170230091Y-113187085D02*
G01*
X170264069Y-113197393D01*
X170295390Y-113214134D01*
X170322839Y-113236661D01*
X170345366Y-113264110D01*
X170362107Y-113295431D01*
X170372415Y-113329409D01*
X170376500Y-113370890D01*
X170376500Y-114047110D01*
X170372415Y-114088591D01*
X170362107Y-114122569D01*
X170345366Y-114153890D01*
X170322839Y-114181339D01*
X170295390Y-114203866D01*
X170264069Y-114220607D01*
X170230091Y-114230915D01*
X170188610Y-114235000D01*
X169587390Y-114235000D01*
X169545909Y-114230915D01*
X169511931Y-114220607D01*
X169480610Y-114203866D01*
X169453161Y-114181339D01*
X169430634Y-114153890D01*
X169413893Y-114122569D01*
X169403585Y-114088591D01*
X169399500Y-114047110D01*
X169399500Y-113370890D01*
X169403585Y-113329409D01*
X169413893Y-113295431D01*
X169430634Y-113264110D01*
X169453161Y-113236661D01*
X169480610Y-113214134D01*
X169511931Y-113197393D01*
X169545909Y-113187085D01*
X169587390Y-113183000D01*
X170188610Y-113183000D01*
X170230091Y-113187085D01*
G37*
G36*
X170633591Y-110074585D02*
G01*
X170667569Y-110084893D01*
X170698890Y-110101634D01*
X170726339Y-110124161D01*
X170748866Y-110151610D01*
X170765607Y-110182931D01*
X170775915Y-110216909D01*
X170780000Y-110258390D01*
X170780000Y-110859610D01*
X170775915Y-110901091D01*
X170765607Y-110935069D01*
X170748866Y-110966390D01*
X170726339Y-110993839D01*
X170698890Y-111016366D01*
X170667569Y-111033107D01*
X170633591Y-111043415D01*
X170592110Y-111047500D01*
X169915890Y-111047500D01*
X169874409Y-111043415D01*
X169840431Y-111033107D01*
X169809110Y-111016366D01*
X169781661Y-110993839D01*
X169759134Y-110966390D01*
X169742393Y-110935069D01*
X169732085Y-110901091D01*
X169728000Y-110859610D01*
X169728000Y-110258390D01*
X169732085Y-110216909D01*
X169742393Y-110182931D01*
X169759134Y-110151610D01*
X169781661Y-110124161D01*
X169809110Y-110101634D01*
X169840431Y-110084893D01*
X169874409Y-110074585D01*
X169915890Y-110070500D01*
X170592110Y-110070500D01*
X170633591Y-110074585D01*
G37*
G36*
X177163591Y-110064585D02*
G01*
X177197569Y-110074893D01*
X177228890Y-110091634D01*
X177256339Y-110114161D01*
X177278866Y-110141610D01*
X177295607Y-110172931D01*
X177305915Y-110206909D01*
X177310000Y-110248390D01*
X177310000Y-110849610D01*
X177305915Y-110891091D01*
X177295607Y-110925069D01*
X177278866Y-110956390D01*
X177256339Y-110983839D01*
X177228890Y-111006366D01*
X177197569Y-111023107D01*
X177163591Y-111033415D01*
X177122110Y-111037500D01*
X176445890Y-111037500D01*
X176404409Y-111033415D01*
X176370431Y-111023107D01*
X176339110Y-111006366D01*
X176311661Y-110983839D01*
X176289134Y-110956390D01*
X176272393Y-110925069D01*
X176262085Y-110891091D01*
X176258000Y-110849610D01*
X176258000Y-110248390D01*
X176262085Y-110206909D01*
X176272393Y-110172931D01*
X176289134Y-110141610D01*
X176311661Y-110114161D01*
X176339110Y-110091634D01*
X176370431Y-110074893D01*
X176404409Y-110064585D01*
X176445890Y-110060500D01*
X177122110Y-110060500D01*
X177163591Y-110064585D01*
G37*
G36*
X175155000Y-110990000D02*
G01*
X173993000Y-110990000D01*
X173993000Y-110238000D01*
X175155000Y-110238000D01*
X175155000Y-110990000D01*
G37*
G36*
X172955000Y-110990000D02*
G01*
X171793000Y-110990000D01*
X171793000Y-108338000D01*
X172955000Y-108338000D01*
X172955000Y-110990000D01*
G37*
G36*
X144388091Y-109013085D02*
G01*
X144422069Y-109023393D01*
X144453390Y-109040134D01*
X144480839Y-109062661D01*
X144503366Y-109090110D01*
X144520107Y-109121431D01*
X144530415Y-109155409D01*
X144534500Y-109196890D01*
X144534500Y-109873110D01*
X144530415Y-109914591D01*
X144520107Y-109948569D01*
X144503366Y-109979890D01*
X144480839Y-110007339D01*
X144453390Y-110029866D01*
X144422069Y-110046607D01*
X144388091Y-110056915D01*
X144346610Y-110061000D01*
X143745390Y-110061000D01*
X143703909Y-110056915D01*
X143669931Y-110046607D01*
X143638610Y-110029866D01*
X143611161Y-110007339D01*
X143588634Y-109979890D01*
X143571893Y-109948569D01*
X143561585Y-109914591D01*
X143557500Y-109873110D01*
X143557500Y-109196890D01*
X143561585Y-109155409D01*
X143571893Y-109121431D01*
X143588634Y-109090110D01*
X143611161Y-109062661D01*
X143638610Y-109040134D01*
X143669931Y-109023393D01*
X143703909Y-109013085D01*
X143745390Y-109009000D01*
X144346610Y-109009000D01*
X144388091Y-109013085D01*
G37*
G36*
X140888091Y-109013085D02*
G01*
X140922069Y-109023393D01*
X140953390Y-109040134D01*
X140980839Y-109062661D01*
X141003366Y-109090110D01*
X141020107Y-109121431D01*
X141030415Y-109155409D01*
X141034500Y-109196890D01*
X141034500Y-109873110D01*
X141030415Y-109914591D01*
X141020107Y-109948569D01*
X141003366Y-109979890D01*
X140980839Y-110007339D01*
X140953390Y-110029866D01*
X140922069Y-110046607D01*
X140888091Y-110056915D01*
X140846610Y-110061000D01*
X140245390Y-110061000D01*
X140203909Y-110056915D01*
X140169931Y-110046607D01*
X140138610Y-110029866D01*
X140111161Y-110007339D01*
X140088634Y-109979890D01*
X140071893Y-109948569D01*
X140061585Y-109914591D01*
X140057500Y-109873110D01*
X140057500Y-109196890D01*
X140061585Y-109155409D01*
X140071893Y-109121431D01*
X140088634Y-109090110D01*
X140111161Y-109062661D01*
X140138610Y-109040134D01*
X140169931Y-109023393D01*
X140203909Y-109013085D01*
X140245390Y-109009000D01*
X140846610Y-109009000D01*
X140888091Y-109013085D01*
G37*
G36*
X145963091Y-109013085D02*
G01*
X145997069Y-109023393D01*
X146028390Y-109040134D01*
X146055839Y-109062661D01*
X146078366Y-109090110D01*
X146095107Y-109121431D01*
X146105415Y-109155409D01*
X146109500Y-109196890D01*
X146109500Y-109873110D01*
X146105415Y-109914591D01*
X146095107Y-109948569D01*
X146078366Y-109979890D01*
X146055839Y-110007339D01*
X146028390Y-110029866D01*
X145997069Y-110046607D01*
X145963091Y-110056915D01*
X145921610Y-110061000D01*
X145320390Y-110061000D01*
X145278909Y-110056915D01*
X145244931Y-110046607D01*
X145213610Y-110029866D01*
X145186161Y-110007339D01*
X145163634Y-109979890D01*
X145146893Y-109948569D01*
X145136585Y-109914591D01*
X145132500Y-109873110D01*
X145132500Y-109196890D01*
X145136585Y-109155409D01*
X145146893Y-109121431D01*
X145163634Y-109090110D01*
X145186161Y-109062661D01*
X145213610Y-109040134D01*
X145244931Y-109023393D01*
X145278909Y-109013085D01*
X145320390Y-109009000D01*
X145921610Y-109009000D01*
X145963091Y-109013085D01*
G37*
G36*
X142463091Y-109013085D02*
G01*
X142497069Y-109023393D01*
X142528390Y-109040134D01*
X142555839Y-109062661D01*
X142578366Y-109090110D01*
X142595107Y-109121431D01*
X142605415Y-109155409D01*
X142609500Y-109196890D01*
X142609500Y-109873110D01*
X142605415Y-109914591D01*
X142595107Y-109948569D01*
X142578366Y-109979890D01*
X142555839Y-110007339D01*
X142528390Y-110029866D01*
X142497069Y-110046607D01*
X142463091Y-110056915D01*
X142421610Y-110061000D01*
X141820390Y-110061000D01*
X141778909Y-110056915D01*
X141744931Y-110046607D01*
X141713610Y-110029866D01*
X141686161Y-110007339D01*
X141663634Y-109979890D01*
X141646893Y-109948569D01*
X141636585Y-109914591D01*
X141632500Y-109873110D01*
X141632500Y-109196890D01*
X141636585Y-109155409D01*
X141646893Y-109121431D01*
X141663634Y-109090110D01*
X141686161Y-109062661D01*
X141713610Y-109040134D01*
X141744931Y-109023393D01*
X141778909Y-109013085D01*
X141820390Y-109009000D01*
X142421610Y-109009000D01*
X142463091Y-109013085D01*
G37*
G36*
X151233642Y-108195781D02*
G01*
X151379414Y-108256162D01*
X151379416Y-108256163D01*
X151510608Y-108343822D01*
X151622178Y-108455392D01*
X151709837Y-108586584D01*
X151709838Y-108586586D01*
X151770219Y-108732358D01*
X151801000Y-108887107D01*
X151801000Y-109044893D01*
X151770219Y-109199642D01*
X151721984Y-109316091D01*
X151709837Y-109345416D01*
X151622178Y-109476608D01*
X151510608Y-109588178D01*
X151379416Y-109675837D01*
X151379415Y-109675838D01*
X151379414Y-109675838D01*
X151233642Y-109736219D01*
X151078893Y-109767000D01*
X150921107Y-109767000D01*
X150766358Y-109736219D01*
X150620586Y-109675838D01*
X150620585Y-109675838D01*
X150620584Y-109675837D01*
X150489392Y-109588178D01*
X150377822Y-109476608D01*
X150290163Y-109345416D01*
X150278016Y-109316091D01*
X150229781Y-109199642D01*
X150199000Y-109044893D01*
X150199000Y-108887107D01*
X150229781Y-108732358D01*
X150290162Y-108586586D01*
X150290163Y-108586584D01*
X150377822Y-108455392D01*
X150489392Y-108343822D01*
X150620584Y-108256163D01*
X150620586Y-108256162D01*
X150766358Y-108195781D01*
X150921107Y-108165000D01*
X151078893Y-108165000D01*
X151233642Y-108195781D01*
G37*
G36*
X170633591Y-108499585D02*
G01*
X170667569Y-108509893D01*
X170698890Y-108526634D01*
X170726339Y-108549161D01*
X170748866Y-108576610D01*
X170765607Y-108607931D01*
X170775915Y-108641909D01*
X170780000Y-108683390D01*
X170780000Y-109284610D01*
X170775915Y-109326091D01*
X170765607Y-109360069D01*
X170748866Y-109391390D01*
X170726339Y-109418839D01*
X170698890Y-109441366D01*
X170667569Y-109458107D01*
X170633591Y-109468415D01*
X170592110Y-109472500D01*
X169915890Y-109472500D01*
X169874409Y-109468415D01*
X169840431Y-109458107D01*
X169809110Y-109441366D01*
X169781661Y-109418839D01*
X169759134Y-109391390D01*
X169742393Y-109360069D01*
X169732085Y-109326091D01*
X169728000Y-109284610D01*
X169728000Y-108683390D01*
X169732085Y-108641909D01*
X169742393Y-108607931D01*
X169759134Y-108576610D01*
X169781661Y-108549161D01*
X169809110Y-108526634D01*
X169840431Y-108509893D01*
X169874409Y-108499585D01*
X169915890Y-108495500D01*
X170592110Y-108495500D01*
X170633591Y-108499585D01*
G37*
G36*
X177163591Y-108489585D02*
G01*
X177197569Y-108499893D01*
X177228890Y-108516634D01*
X177256339Y-108539161D01*
X177278866Y-108566610D01*
X177295607Y-108597931D01*
X177305915Y-108631909D01*
X177310000Y-108673390D01*
X177310000Y-109274610D01*
X177305915Y-109316091D01*
X177295607Y-109350069D01*
X177278866Y-109381390D01*
X177256339Y-109408839D01*
X177228890Y-109431366D01*
X177197569Y-109448107D01*
X177163591Y-109458415D01*
X177122110Y-109462500D01*
X176445890Y-109462500D01*
X176404409Y-109458415D01*
X176370431Y-109448107D01*
X176339110Y-109431366D01*
X176311661Y-109408839D01*
X176289134Y-109381390D01*
X176272393Y-109350069D01*
X176262085Y-109316091D01*
X176258000Y-109274610D01*
X176258000Y-108673390D01*
X176262085Y-108631909D01*
X176272393Y-108597931D01*
X176289134Y-108566610D01*
X176311661Y-108539161D01*
X176339110Y-108516634D01*
X176370431Y-108499893D01*
X176404409Y-108489585D01*
X176445890Y-108485500D01*
X177122110Y-108485500D01*
X177163591Y-108489585D01*
G37*
G36*
X175155000Y-109090000D02*
G01*
X173993000Y-109090000D01*
X173993000Y-108338000D01*
X175155000Y-108338000D01*
X175155000Y-109090000D01*
G37*
G36*
X155655091Y-107737085D02*
G01*
X155689069Y-107747393D01*
X155720390Y-107764134D01*
X155747839Y-107786661D01*
X155770366Y-107814110D01*
X155787107Y-107845431D01*
X155797415Y-107879409D01*
X155801500Y-107920890D01*
X155801500Y-108597110D01*
X155797415Y-108638591D01*
X155787107Y-108672569D01*
X155770366Y-108703890D01*
X155747839Y-108731339D01*
X155720390Y-108753866D01*
X155689069Y-108770607D01*
X155655091Y-108780915D01*
X155613610Y-108785000D01*
X155012390Y-108785000D01*
X154970909Y-108780915D01*
X154936931Y-108770607D01*
X154905610Y-108753866D01*
X154878161Y-108731339D01*
X154855634Y-108703890D01*
X154838893Y-108672569D01*
X154828585Y-108638591D01*
X154824500Y-108597110D01*
X154824500Y-107920890D01*
X154828585Y-107879409D01*
X154838893Y-107845431D01*
X154855634Y-107814110D01*
X154878161Y-107786661D01*
X154905610Y-107764134D01*
X154936931Y-107747393D01*
X154970909Y-107737085D01*
X155012390Y-107733000D01*
X155613610Y-107733000D01*
X155655091Y-107737085D01*
G37*
G36*
X154080091Y-107737085D02*
G01*
X154114069Y-107747393D01*
X154145390Y-107764134D01*
X154172839Y-107786661D01*
X154195366Y-107814110D01*
X154212107Y-107845431D01*
X154222415Y-107879409D01*
X154226500Y-107920890D01*
X154226500Y-108597110D01*
X154222415Y-108638591D01*
X154212107Y-108672569D01*
X154195366Y-108703890D01*
X154172839Y-108731339D01*
X154145390Y-108753866D01*
X154114069Y-108770607D01*
X154080091Y-108780915D01*
X154038610Y-108785000D01*
X153437390Y-108785000D01*
X153395909Y-108780915D01*
X153361931Y-108770607D01*
X153330610Y-108753866D01*
X153303161Y-108731339D01*
X153280634Y-108703890D01*
X153263893Y-108672569D01*
X153253585Y-108638591D01*
X153249500Y-108597110D01*
X153249500Y-107920890D01*
X153253585Y-107879409D01*
X153263893Y-107845431D01*
X153280634Y-107814110D01*
X153303161Y-107786661D01*
X153330610Y-107764134D01*
X153361931Y-107747393D01*
X153395909Y-107737085D01*
X153437390Y-107733000D01*
X154038610Y-107733000D01*
X154080091Y-107737085D01*
G37*
G36*
X158232591Y-107444585D02*
G01*
X158266569Y-107454893D01*
X158297890Y-107471634D01*
X158325339Y-107494161D01*
X158347866Y-107521610D01*
X158364607Y-107552931D01*
X158374915Y-107586909D01*
X158379000Y-107628390D01*
X158379000Y-108229610D01*
X158374915Y-108271091D01*
X158364607Y-108305069D01*
X158347866Y-108336390D01*
X158325339Y-108363839D01*
X158297890Y-108386366D01*
X158266569Y-108403107D01*
X158232591Y-108413415D01*
X158191110Y-108417500D01*
X157514890Y-108417500D01*
X157473409Y-108413415D01*
X157439431Y-108403107D01*
X157408110Y-108386366D01*
X157380661Y-108363839D01*
X157358134Y-108336390D01*
X157341393Y-108305069D01*
X157331085Y-108271091D01*
X157327000Y-108229610D01*
X157327000Y-107628390D01*
X157331085Y-107586909D01*
X157341393Y-107552931D01*
X157358134Y-107521610D01*
X157380661Y-107494161D01*
X157408110Y-107471634D01*
X157439431Y-107454893D01*
X157473409Y-107444585D01*
X157514890Y-107440500D01*
X158191110Y-107440500D01*
X158232591Y-107444585D01*
G37*
G36*
X133155591Y-106534585D02*
G01*
X133189569Y-106544893D01*
X133220890Y-106561634D01*
X133248339Y-106584161D01*
X133270866Y-106611610D01*
X133287607Y-106642931D01*
X133297915Y-106676909D01*
X133302000Y-106718390D01*
X133302000Y-107319610D01*
X133297915Y-107361091D01*
X133287607Y-107395069D01*
X133270866Y-107426390D01*
X133248339Y-107453839D01*
X133220890Y-107476366D01*
X133189569Y-107493107D01*
X133155591Y-107503415D01*
X133114110Y-107507500D01*
X132437890Y-107507500D01*
X132396409Y-107503415D01*
X132362431Y-107493107D01*
X132331110Y-107476366D01*
X132303661Y-107453839D01*
X132281134Y-107426390D01*
X132264393Y-107395069D01*
X132254085Y-107361091D01*
X132250000Y-107319610D01*
X132250000Y-106718390D01*
X132254085Y-106676909D01*
X132264393Y-106642931D01*
X132281134Y-106611610D01*
X132303661Y-106584161D01*
X132331110Y-106561634D01*
X132362431Y-106544893D01*
X132396409Y-106534585D01*
X132437890Y-106530500D01*
X133114110Y-106530500D01*
X133155591Y-106534585D01*
G37*
G36*
X135155591Y-106534585D02*
G01*
X135189569Y-106544893D01*
X135220890Y-106561634D01*
X135248339Y-106584161D01*
X135270866Y-106611610D01*
X135287607Y-106642931D01*
X135297915Y-106676909D01*
X135302000Y-106718390D01*
X135302000Y-107319610D01*
X135297915Y-107361091D01*
X135287607Y-107395069D01*
X135270866Y-107426390D01*
X135248339Y-107453839D01*
X135220890Y-107476366D01*
X135189569Y-107493107D01*
X135155591Y-107503415D01*
X135114110Y-107507500D01*
X134437890Y-107507500D01*
X134396409Y-107503415D01*
X134362431Y-107493107D01*
X134331110Y-107476366D01*
X134303661Y-107453839D01*
X134281134Y-107426390D01*
X134264393Y-107395069D01*
X134254085Y-107361091D01*
X134250000Y-107319610D01*
X134250000Y-106718390D01*
X134254085Y-106676909D01*
X134264393Y-106642931D01*
X134281134Y-106611610D01*
X134303661Y-106584161D01*
X134331110Y-106561634D01*
X134362431Y-106544893D01*
X134396409Y-106534585D01*
X134437890Y-106530500D01*
X135114110Y-106530500D01*
X135155591Y-106534585D01*
G37*
G36*
X144736000Y-107201000D02*
G01*
X143096000Y-107201000D01*
X143096000Y-106511000D01*
X144736000Y-106511000D01*
X144736000Y-107201000D01*
G37*
G36*
X139336000Y-107201000D02*
G01*
X137696000Y-107201000D01*
X137696000Y-106511000D01*
X139336000Y-106511000D01*
X139336000Y-107201000D01*
G37*
G36*
X163893295Y-105554323D02*
G01*
X163900309Y-105556451D01*
X163914077Y-105563810D01*
X163936716Y-105573187D01*
X163960749Y-105577967D01*
X163985253Y-105577967D01*
X164009286Y-105573186D01*
X164031923Y-105563810D01*
X164045691Y-105556451D01*
X164052705Y-105554323D01*
X164066140Y-105553000D01*
X164379860Y-105553000D01*
X164393295Y-105554323D01*
X164400309Y-105556451D01*
X164414077Y-105563810D01*
X164436716Y-105573187D01*
X164460749Y-105577967D01*
X164485253Y-105577967D01*
X164509286Y-105573186D01*
X164531923Y-105563810D01*
X164545691Y-105556451D01*
X164552705Y-105554323D01*
X164566140Y-105553000D01*
X164879860Y-105553000D01*
X164893295Y-105554323D01*
X164900309Y-105556451D01*
X164914077Y-105563810D01*
X164936716Y-105573187D01*
X164960749Y-105577967D01*
X164985253Y-105577967D01*
X165009286Y-105573186D01*
X165031923Y-105563810D01*
X165045691Y-105556451D01*
X165052705Y-105554323D01*
X165066140Y-105553000D01*
X165379860Y-105553000D01*
X165393295Y-105554323D01*
X165400309Y-105556451D01*
X165414077Y-105563810D01*
X165436716Y-105573187D01*
X165460749Y-105577967D01*
X165485253Y-105577967D01*
X165509286Y-105573186D01*
X165531923Y-105563810D01*
X165545691Y-105556451D01*
X165552705Y-105554323D01*
X165566140Y-105553000D01*
X165879860Y-105553000D01*
X165893295Y-105554323D01*
X165900309Y-105556451D01*
X165914077Y-105563810D01*
X165936716Y-105573187D01*
X165960749Y-105577967D01*
X165985253Y-105577967D01*
X166009286Y-105573186D01*
X166031923Y-105563810D01*
X166045691Y-105556451D01*
X166052705Y-105554323D01*
X166066140Y-105553000D01*
X166379860Y-105553000D01*
X166393295Y-105554323D01*
X166400309Y-105556451D01*
X166414077Y-105563810D01*
X166436716Y-105573187D01*
X166460749Y-105577967D01*
X166485253Y-105577967D01*
X166509286Y-105573186D01*
X166531923Y-105563810D01*
X166545691Y-105556451D01*
X166552705Y-105554323D01*
X166566140Y-105553000D01*
X166879860Y-105553000D01*
X166893295Y-105554323D01*
X166900309Y-105556451D01*
X166914077Y-105563810D01*
X166936716Y-105573187D01*
X166960749Y-105577967D01*
X166985253Y-105577967D01*
X167009286Y-105573186D01*
X167031923Y-105563810D01*
X167045691Y-105556451D01*
X167052705Y-105554323D01*
X167066140Y-105553000D01*
X167379860Y-105553000D01*
X167393295Y-105554323D01*
X167400310Y-105556451D01*
X167406776Y-105559908D01*
X167412442Y-105564558D01*
X167417092Y-105570224D01*
X167420549Y-105576690D01*
X167422677Y-105583705D01*
X167424000Y-105597140D01*
X167424000Y-107110860D01*
X167422677Y-107124295D01*
X167420549Y-107131310D01*
X167417092Y-107137776D01*
X167412442Y-107143442D01*
X167406776Y-107148092D01*
X167400310Y-107151549D01*
X167393295Y-107153677D01*
X167379860Y-107155000D01*
X167066140Y-107155000D01*
X167052705Y-107153677D01*
X167045691Y-107151549D01*
X167031923Y-107144190D01*
X167009284Y-107134813D01*
X166985251Y-107130033D01*
X166960747Y-107130033D01*
X166936714Y-107134814D01*
X166914077Y-107144190D01*
X166900309Y-107151549D01*
X166893295Y-107153677D01*
X166879860Y-107155000D01*
X166566140Y-107155000D01*
X166552705Y-107153677D01*
X166545691Y-107151549D01*
X166531923Y-107144190D01*
X166509284Y-107134813D01*
X166485251Y-107130033D01*
X166460747Y-107130033D01*
X166436714Y-107134814D01*
X166414077Y-107144190D01*
X166400309Y-107151549D01*
X166393295Y-107153677D01*
X166379860Y-107155000D01*
X166066140Y-107155000D01*
X166052705Y-107153677D01*
X166045691Y-107151549D01*
X166031923Y-107144190D01*
X166009284Y-107134813D01*
X165985251Y-107130033D01*
X165960747Y-107130033D01*
X165936714Y-107134814D01*
X165914077Y-107144190D01*
X165900309Y-107151549D01*
X165893295Y-107153677D01*
X165879860Y-107155000D01*
X165566140Y-107155000D01*
X165552705Y-107153677D01*
X165545691Y-107151549D01*
X165531923Y-107144190D01*
X165509284Y-107134813D01*
X165485251Y-107130033D01*
X165460747Y-107130033D01*
X165436714Y-107134814D01*
X165414077Y-107144190D01*
X165400309Y-107151549D01*
X165393295Y-107153677D01*
X165379860Y-107155000D01*
X165066140Y-107155000D01*
X165052705Y-107153677D01*
X165045691Y-107151549D01*
X165031923Y-107144190D01*
X165009284Y-107134813D01*
X164985251Y-107130033D01*
X164960747Y-107130033D01*
X164936714Y-107134814D01*
X164914077Y-107144190D01*
X164900309Y-107151549D01*
X164893295Y-107153677D01*
X164879860Y-107155000D01*
X164566140Y-107155000D01*
X164552705Y-107153677D01*
X164545691Y-107151549D01*
X164531923Y-107144190D01*
X164509284Y-107134813D01*
X164485251Y-107130033D01*
X164460747Y-107130033D01*
X164436714Y-107134814D01*
X164414077Y-107144190D01*
X164400309Y-107151549D01*
X164393295Y-107153677D01*
X164379860Y-107155000D01*
X164066140Y-107155000D01*
X164052705Y-107153677D01*
X164045691Y-107151549D01*
X164031923Y-107144190D01*
X164009284Y-107134813D01*
X163985251Y-107130033D01*
X163960747Y-107130033D01*
X163936714Y-107134814D01*
X163914077Y-107144190D01*
X163900309Y-107151549D01*
X163893295Y-107153677D01*
X163879860Y-107155000D01*
X163566140Y-107155000D01*
X163552705Y-107153677D01*
X163545690Y-107151549D01*
X163539224Y-107148092D01*
X163533558Y-107143442D01*
X163528908Y-107137776D01*
X163525451Y-107131310D01*
X163523323Y-107124295D01*
X163522000Y-107110860D01*
X163522000Y-105597140D01*
X163523323Y-105583705D01*
X163525451Y-105576690D01*
X163528908Y-105570224D01*
X163533558Y-105564558D01*
X163539224Y-105559908D01*
X163545690Y-105556451D01*
X163552705Y-105554323D01*
X163566140Y-105553000D01*
X163879860Y-105553000D01*
X163893295Y-105554323D01*
G37*
G36*
X151233642Y-105401781D02*
G01*
X151319271Y-105437250D01*
X151379416Y-105462163D01*
X151510608Y-105549822D01*
X151622178Y-105661392D01*
X151709837Y-105792584D01*
X151709838Y-105792586D01*
X151770219Y-105938358D01*
X151801000Y-106093107D01*
X151801000Y-106250893D01*
X151770219Y-106405642D01*
X151726578Y-106511000D01*
X151709837Y-106551416D01*
X151622178Y-106682608D01*
X151510608Y-106794178D01*
X151379416Y-106881837D01*
X151379415Y-106881838D01*
X151379414Y-106881838D01*
X151233642Y-106942219D01*
X151078893Y-106973000D01*
X150921107Y-106973000D01*
X150766358Y-106942219D01*
X150620586Y-106881838D01*
X150620585Y-106881838D01*
X150620584Y-106881837D01*
X150489392Y-106794178D01*
X150377822Y-106682608D01*
X150290163Y-106551416D01*
X150273422Y-106511000D01*
X150229781Y-106405642D01*
X150199000Y-106250893D01*
X150199000Y-106093107D01*
X150229781Y-105938358D01*
X150290162Y-105792586D01*
X150290163Y-105792584D01*
X150377822Y-105661392D01*
X150489392Y-105549822D01*
X150620584Y-105462163D01*
X150680729Y-105437250D01*
X150766358Y-105401781D01*
X150921107Y-105371000D01*
X151078893Y-105371000D01*
X151233642Y-105401781D01*
G37*
G36*
X158232591Y-105869585D02*
G01*
X158266569Y-105879893D01*
X158297890Y-105896634D01*
X158325339Y-105919161D01*
X158347866Y-105946610D01*
X158364607Y-105977931D01*
X158374915Y-106011909D01*
X158379000Y-106053390D01*
X158379000Y-106654610D01*
X158374915Y-106696091D01*
X158364607Y-106730069D01*
X158347866Y-106761390D01*
X158325339Y-106788839D01*
X158297890Y-106811366D01*
X158266569Y-106828107D01*
X158232591Y-106838415D01*
X158191110Y-106842500D01*
X157514890Y-106842500D01*
X157473409Y-106838415D01*
X157439431Y-106828107D01*
X157408110Y-106811366D01*
X157380661Y-106788839D01*
X157358134Y-106761390D01*
X157341393Y-106730069D01*
X157331085Y-106696091D01*
X157327000Y-106654610D01*
X157327000Y-106053390D01*
X157331085Y-106011909D01*
X157341393Y-105977931D01*
X157358134Y-105946610D01*
X157380661Y-105919161D01*
X157408110Y-105896634D01*
X157439431Y-105879893D01*
X157473409Y-105869585D01*
X157514890Y-105865500D01*
X158191110Y-105865500D01*
X158232591Y-105869585D01*
G37*
G36*
X155655091Y-105197085D02*
G01*
X155689069Y-105207393D01*
X155720390Y-105224134D01*
X155747839Y-105246661D01*
X155770366Y-105274110D01*
X155787107Y-105305431D01*
X155797415Y-105339409D01*
X155801500Y-105380890D01*
X155801500Y-106057110D01*
X155797415Y-106098591D01*
X155787107Y-106132569D01*
X155770366Y-106163890D01*
X155747839Y-106191339D01*
X155720390Y-106213866D01*
X155689069Y-106230607D01*
X155655091Y-106240915D01*
X155613610Y-106245000D01*
X155012390Y-106245000D01*
X154970909Y-106240915D01*
X154936931Y-106230607D01*
X154905610Y-106213866D01*
X154878161Y-106191339D01*
X154855634Y-106163890D01*
X154838893Y-106132569D01*
X154828585Y-106098591D01*
X154824500Y-106057110D01*
X154824500Y-105380890D01*
X154828585Y-105339409D01*
X154838893Y-105305431D01*
X154855634Y-105274110D01*
X154878161Y-105246661D01*
X154905610Y-105224134D01*
X154936931Y-105207393D01*
X154970909Y-105197085D01*
X155012390Y-105193000D01*
X155613610Y-105193000D01*
X155655091Y-105197085D01*
G37*
G36*
X154080091Y-105197085D02*
G01*
X154114069Y-105207393D01*
X154145390Y-105224134D01*
X154172839Y-105246661D01*
X154195366Y-105274110D01*
X154212107Y-105305431D01*
X154222415Y-105339409D01*
X154226500Y-105380890D01*
X154226500Y-106057110D01*
X154222415Y-106098591D01*
X154212107Y-106132569D01*
X154195366Y-106163890D01*
X154172839Y-106191339D01*
X154145390Y-106213866D01*
X154114069Y-106230607D01*
X154080091Y-106240915D01*
X154038610Y-106245000D01*
X153437390Y-106245000D01*
X153395909Y-106240915D01*
X153361931Y-106230607D01*
X153330610Y-106213866D01*
X153303161Y-106191339D01*
X153280634Y-106163890D01*
X153263893Y-106132569D01*
X153253585Y-106098591D01*
X153249500Y-106057110D01*
X153249500Y-105380890D01*
X153253585Y-105339409D01*
X153263893Y-105305431D01*
X153280634Y-105274110D01*
X153303161Y-105246661D01*
X153330610Y-105224134D01*
X153361931Y-105207393D01*
X153395909Y-105197085D01*
X153437390Y-105193000D01*
X154038610Y-105193000D01*
X154080091Y-105197085D01*
G37*
G36*
X133155591Y-104959585D02*
G01*
X133189569Y-104969893D01*
X133220890Y-104986634D01*
X133248339Y-105009161D01*
X133270866Y-105036610D01*
X133287607Y-105067931D01*
X133297915Y-105101909D01*
X133302000Y-105143390D01*
X133302000Y-105744610D01*
X133297915Y-105786091D01*
X133287607Y-105820069D01*
X133270866Y-105851390D01*
X133248339Y-105878839D01*
X133220890Y-105901366D01*
X133189569Y-105918107D01*
X133155591Y-105928415D01*
X133114110Y-105932500D01*
X132437890Y-105932500D01*
X132396409Y-105928415D01*
X132362431Y-105918107D01*
X132331110Y-105901366D01*
X132303661Y-105878839D01*
X132281134Y-105851390D01*
X132264393Y-105820069D01*
X132254085Y-105786091D01*
X132250000Y-105744610D01*
X132250000Y-105143390D01*
X132254085Y-105101909D01*
X132264393Y-105067931D01*
X132281134Y-105036610D01*
X132303661Y-105009161D01*
X132331110Y-104986634D01*
X132362431Y-104969893D01*
X132396409Y-104959585D01*
X132437890Y-104955500D01*
X133114110Y-104955500D01*
X133155591Y-104959585D01*
G37*
G36*
X135155591Y-104959585D02*
G01*
X135189569Y-104969893D01*
X135220890Y-104986634D01*
X135248339Y-105009161D01*
X135270866Y-105036610D01*
X135287607Y-105067931D01*
X135297915Y-105101909D01*
X135302000Y-105143390D01*
X135302000Y-105744610D01*
X135297915Y-105786091D01*
X135287607Y-105820069D01*
X135270866Y-105851390D01*
X135248339Y-105878839D01*
X135220890Y-105901366D01*
X135189569Y-105918107D01*
X135155591Y-105928415D01*
X135114110Y-105932500D01*
X134437890Y-105932500D01*
X134396409Y-105928415D01*
X134362431Y-105918107D01*
X134331110Y-105901366D01*
X134303661Y-105878839D01*
X134281134Y-105851390D01*
X134264393Y-105820069D01*
X134254085Y-105786091D01*
X134250000Y-105744610D01*
X134250000Y-105143390D01*
X134254085Y-105101909D01*
X134264393Y-105067931D01*
X134281134Y-105036610D01*
X134303661Y-105009161D01*
X134331110Y-104986634D01*
X134362431Y-104969893D01*
X134396409Y-104959585D01*
X134437890Y-104955500D01*
X135114110Y-104955500D01*
X135155591Y-104959585D01*
G37*
G36*
X139336000Y-105931000D02*
G01*
X137696000Y-105931000D01*
X137696000Y-105241000D01*
X139336000Y-105241000D01*
X139336000Y-105931000D01*
G37*
G36*
X144736000Y-105931000D02*
G01*
X143096000Y-105931000D01*
X143096000Y-105241000D01*
X144736000Y-105241000D01*
X144736000Y-105931000D01*
G37*
G36*
X169418295Y-101229323D02*
G01*
X169425310Y-101231451D01*
X169431776Y-101234908D01*
X169437442Y-101239558D01*
X169442092Y-101245224D01*
X169445549Y-101251690D01*
X169447677Y-101258705D01*
X169449000Y-101272140D01*
X169449000Y-101585860D01*
X169447677Y-101599295D01*
X169445549Y-101606309D01*
X169438190Y-101620077D01*
X169428813Y-101642716D01*
X169424033Y-101666749D01*
X169424033Y-101691253D01*
X169428814Y-101715286D01*
X169438190Y-101737923D01*
X169445549Y-101751691D01*
X169447677Y-101758705D01*
X169449000Y-101772140D01*
X169449000Y-102085860D01*
X169447677Y-102099295D01*
X169445549Y-102106309D01*
X169438190Y-102120077D01*
X169428813Y-102142716D01*
X169424033Y-102166749D01*
X169424033Y-102191253D01*
X169428814Y-102215286D01*
X169438190Y-102237923D01*
X169445549Y-102251691D01*
X169447677Y-102258705D01*
X169449000Y-102272140D01*
X169449000Y-102585860D01*
X169447677Y-102599295D01*
X169445549Y-102606309D01*
X169438190Y-102620077D01*
X169428813Y-102642716D01*
X169424033Y-102666749D01*
X169424033Y-102691253D01*
X169428814Y-102715286D01*
X169438190Y-102737923D01*
X169445549Y-102751691D01*
X169447677Y-102758705D01*
X169449000Y-102772140D01*
X169449000Y-103085860D01*
X169447677Y-103099295D01*
X169445549Y-103106309D01*
X169438190Y-103120077D01*
X169428813Y-103142716D01*
X169424033Y-103166749D01*
X169424033Y-103191253D01*
X169428814Y-103215286D01*
X169438190Y-103237923D01*
X169445549Y-103251691D01*
X169447677Y-103258705D01*
X169449000Y-103272140D01*
X169449000Y-103585860D01*
X169447677Y-103599295D01*
X169445549Y-103606309D01*
X169438190Y-103620077D01*
X169428813Y-103642716D01*
X169424033Y-103666749D01*
X169424033Y-103691253D01*
X169428814Y-103715286D01*
X169438190Y-103737923D01*
X169445549Y-103751691D01*
X169447677Y-103758705D01*
X169449000Y-103772140D01*
X169449000Y-104085860D01*
X169447677Y-104099295D01*
X169445549Y-104106309D01*
X169438190Y-104120077D01*
X169428813Y-104142716D01*
X169424033Y-104166749D01*
X169424033Y-104191253D01*
X169428814Y-104215286D01*
X169438190Y-104237923D01*
X169445549Y-104251691D01*
X169447677Y-104258705D01*
X169449000Y-104272140D01*
X169449000Y-104585860D01*
X169447677Y-104599295D01*
X169445549Y-104606309D01*
X169438190Y-104620077D01*
X169428813Y-104642716D01*
X169424033Y-104666749D01*
X169424033Y-104691253D01*
X169428814Y-104715286D01*
X169438190Y-104737923D01*
X169445549Y-104751691D01*
X169447677Y-104758705D01*
X169449000Y-104772140D01*
X169449000Y-105085860D01*
X169447677Y-105099295D01*
X169445549Y-105106310D01*
X169442092Y-105112776D01*
X169437442Y-105118442D01*
X169431776Y-105123092D01*
X169425310Y-105126549D01*
X169418295Y-105128677D01*
X169404860Y-105130000D01*
X167891140Y-105130000D01*
X167877705Y-105128677D01*
X167870690Y-105126549D01*
X167864224Y-105123092D01*
X167858558Y-105118442D01*
X167853908Y-105112776D01*
X167850451Y-105106310D01*
X167848323Y-105099295D01*
X167847000Y-105085860D01*
X167847000Y-104772140D01*
X167848323Y-104758705D01*
X167850451Y-104751691D01*
X167857810Y-104737923D01*
X167867187Y-104715284D01*
X167871967Y-104691251D01*
X167871967Y-104666747D01*
X167867186Y-104642714D01*
X167857810Y-104620077D01*
X167850451Y-104606309D01*
X167848323Y-104599295D01*
X167847000Y-104585860D01*
X167847000Y-104272140D01*
X167848323Y-104258705D01*
X167850451Y-104251691D01*
X167857810Y-104237923D01*
X167867187Y-104215284D01*
X167871967Y-104191251D01*
X167871967Y-104166747D01*
X167867186Y-104142714D01*
X167857810Y-104120077D01*
X167850451Y-104106309D01*
X167848323Y-104099295D01*
X167847000Y-104085860D01*
X167847000Y-103772140D01*
X167848323Y-103758705D01*
X167850451Y-103751691D01*
X167857810Y-103737923D01*
X167867187Y-103715284D01*
X167871967Y-103691251D01*
X167871967Y-103666747D01*
X167867186Y-103642714D01*
X167857810Y-103620077D01*
X167850451Y-103606309D01*
X167848323Y-103599295D01*
X167847000Y-103585860D01*
X167847000Y-103272140D01*
X167848323Y-103258705D01*
X167850451Y-103251691D01*
X167857810Y-103237923D01*
X167867187Y-103215284D01*
X167871967Y-103191251D01*
X167871967Y-103166747D01*
X167867186Y-103142714D01*
X167857810Y-103120077D01*
X167850451Y-103106309D01*
X167848323Y-103099295D01*
X167847000Y-103085860D01*
X167847000Y-102772140D01*
X167848323Y-102758705D01*
X167850451Y-102751691D01*
X167857810Y-102737923D01*
X167867187Y-102715284D01*
X167871967Y-102691251D01*
X167871967Y-102666747D01*
X167867186Y-102642714D01*
X167857810Y-102620077D01*
X167850451Y-102606309D01*
X167848323Y-102599295D01*
X167847000Y-102585860D01*
X167847000Y-102272140D01*
X167848323Y-102258705D01*
X167850451Y-102251691D01*
X167857810Y-102237923D01*
X167867187Y-102215284D01*
X167871967Y-102191251D01*
X167871967Y-102166747D01*
X167867186Y-102142714D01*
X167857810Y-102120077D01*
X167850451Y-102106309D01*
X167848323Y-102099295D01*
X167847000Y-102085860D01*
X167847000Y-101772140D01*
X167848323Y-101758705D01*
X167850451Y-101751691D01*
X167857810Y-101737923D01*
X167867187Y-101715284D01*
X167871967Y-101691251D01*
X167871967Y-101666747D01*
X167867186Y-101642714D01*
X167857810Y-101620077D01*
X167850451Y-101606309D01*
X167848323Y-101599295D01*
X167847000Y-101585860D01*
X167847000Y-101272140D01*
X167848323Y-101258705D01*
X167850451Y-101251690D01*
X167853908Y-101245224D01*
X167858558Y-101239558D01*
X167864224Y-101234908D01*
X167870690Y-101231451D01*
X167877705Y-101229323D01*
X167891140Y-101228000D01*
X169404860Y-101228000D01*
X169418295Y-101229323D01*
G37*
G36*
X163068295Y-101229323D02*
G01*
X163075310Y-101231451D01*
X163081776Y-101234908D01*
X163087442Y-101239558D01*
X163092092Y-101245224D01*
X163095549Y-101251690D01*
X163097677Y-101258705D01*
X163099000Y-101272140D01*
X163099000Y-101585860D01*
X163097677Y-101599295D01*
X163095549Y-101606309D01*
X163088190Y-101620077D01*
X163078813Y-101642716D01*
X163074033Y-101666749D01*
X163074033Y-101691253D01*
X163078814Y-101715286D01*
X163088190Y-101737923D01*
X163095549Y-101751691D01*
X163097677Y-101758705D01*
X163099000Y-101772140D01*
X163099000Y-102085860D01*
X163097677Y-102099295D01*
X163095549Y-102106309D01*
X163088190Y-102120077D01*
X163078813Y-102142716D01*
X163074033Y-102166749D01*
X163074033Y-102191253D01*
X163078814Y-102215286D01*
X163088190Y-102237923D01*
X163095549Y-102251691D01*
X163097677Y-102258705D01*
X163099000Y-102272140D01*
X163099000Y-102585860D01*
X163097677Y-102599295D01*
X163095549Y-102606309D01*
X163088190Y-102620077D01*
X163078813Y-102642716D01*
X163074033Y-102666749D01*
X163074033Y-102691253D01*
X163078814Y-102715286D01*
X163088190Y-102737923D01*
X163095549Y-102751691D01*
X163097677Y-102758705D01*
X163099000Y-102772140D01*
X163099000Y-103085860D01*
X163097677Y-103099295D01*
X163095549Y-103106309D01*
X163088190Y-103120077D01*
X163078813Y-103142716D01*
X163074033Y-103166749D01*
X163074033Y-103191253D01*
X163078814Y-103215286D01*
X163088190Y-103237923D01*
X163095549Y-103251691D01*
X163097677Y-103258705D01*
X163099000Y-103272140D01*
X163099000Y-103585860D01*
X163097677Y-103599295D01*
X163095549Y-103606309D01*
X163088190Y-103620077D01*
X163078813Y-103642716D01*
X163074033Y-103666749D01*
X163074033Y-103691253D01*
X163078814Y-103715286D01*
X163088190Y-103737923D01*
X163095549Y-103751691D01*
X163097677Y-103758705D01*
X163099000Y-103772140D01*
X163099000Y-104085860D01*
X163097677Y-104099295D01*
X163095549Y-104106309D01*
X163088190Y-104120077D01*
X163078813Y-104142716D01*
X163074033Y-104166749D01*
X163074033Y-104191253D01*
X163078814Y-104215286D01*
X163088190Y-104237923D01*
X163095549Y-104251691D01*
X163097677Y-104258705D01*
X163099000Y-104272140D01*
X163099000Y-104585860D01*
X163097677Y-104599295D01*
X163095549Y-104606309D01*
X163088190Y-104620077D01*
X163078813Y-104642716D01*
X163074033Y-104666749D01*
X163074033Y-104691253D01*
X163078814Y-104715286D01*
X163088190Y-104737923D01*
X163095549Y-104751691D01*
X163097677Y-104758705D01*
X163099000Y-104772140D01*
X163099000Y-105085860D01*
X163097677Y-105099295D01*
X163095549Y-105106310D01*
X163092092Y-105112776D01*
X163087442Y-105118442D01*
X163081776Y-105123092D01*
X163075310Y-105126549D01*
X163068295Y-105128677D01*
X163054860Y-105130000D01*
X161541140Y-105130000D01*
X161527705Y-105128677D01*
X161520690Y-105126549D01*
X161514224Y-105123092D01*
X161508558Y-105118442D01*
X161503908Y-105112776D01*
X161500451Y-105106310D01*
X161498323Y-105099295D01*
X161497000Y-105085860D01*
X161497000Y-104772140D01*
X161498323Y-104758705D01*
X161500451Y-104751691D01*
X161507810Y-104737923D01*
X161517187Y-104715284D01*
X161521967Y-104691251D01*
X161521967Y-104666747D01*
X161517186Y-104642714D01*
X161507810Y-104620077D01*
X161500451Y-104606309D01*
X161498323Y-104599295D01*
X161497000Y-104585860D01*
X161497000Y-104272140D01*
X161498323Y-104258705D01*
X161500451Y-104251691D01*
X161507810Y-104237923D01*
X161517187Y-104215284D01*
X161521967Y-104191251D01*
X161521967Y-104166747D01*
X161517186Y-104142714D01*
X161507810Y-104120077D01*
X161500451Y-104106309D01*
X161498323Y-104099295D01*
X161497000Y-104085860D01*
X161497000Y-103772140D01*
X161498323Y-103758705D01*
X161500451Y-103751691D01*
X161507810Y-103737923D01*
X161517187Y-103715284D01*
X161521967Y-103691251D01*
X161521967Y-103666747D01*
X161517186Y-103642714D01*
X161507810Y-103620077D01*
X161500451Y-103606309D01*
X161498323Y-103599295D01*
X161497000Y-103585860D01*
X161497000Y-103272140D01*
X161498323Y-103258705D01*
X161500451Y-103251691D01*
X161507810Y-103237923D01*
X161517187Y-103215284D01*
X161521967Y-103191251D01*
X161521967Y-103166747D01*
X161517186Y-103142714D01*
X161507810Y-103120077D01*
X161500451Y-103106309D01*
X161498323Y-103099295D01*
X161497000Y-103085860D01*
X161497000Y-102772140D01*
X161498323Y-102758705D01*
X161500451Y-102751691D01*
X161507810Y-102737923D01*
X161517187Y-102715284D01*
X161521967Y-102691251D01*
X161521967Y-102666747D01*
X161517186Y-102642714D01*
X161507810Y-102620077D01*
X161500451Y-102606309D01*
X161498323Y-102599295D01*
X161497000Y-102585860D01*
X161497000Y-102272140D01*
X161498323Y-102258705D01*
X161500451Y-102251691D01*
X161507810Y-102237923D01*
X161517187Y-102215284D01*
X161521967Y-102191251D01*
X161521967Y-102166747D01*
X161517186Y-102142714D01*
X161507810Y-102120077D01*
X161500451Y-102106309D01*
X161498323Y-102099295D01*
X161497000Y-102085860D01*
X161497000Y-101772140D01*
X161498323Y-101758705D01*
X161500451Y-101751691D01*
X161507810Y-101737923D01*
X161517187Y-101715284D01*
X161521967Y-101691251D01*
X161521967Y-101666747D01*
X161517186Y-101642714D01*
X161507810Y-101620077D01*
X161500451Y-101606309D01*
X161498323Y-101599295D01*
X161497000Y-101585860D01*
X161497000Y-101272140D01*
X161498323Y-101258705D01*
X161500451Y-101251690D01*
X161503908Y-101245224D01*
X161508558Y-101239558D01*
X161514224Y-101234908D01*
X161520690Y-101231451D01*
X161527705Y-101229323D01*
X161541140Y-101228000D01*
X163054860Y-101228000D01*
X163068295Y-101229323D01*
G37*
G36*
X171385091Y-103833585D02*
G01*
X171419069Y-103843893D01*
X171450390Y-103860634D01*
X171477839Y-103883161D01*
X171500366Y-103910610D01*
X171517107Y-103941931D01*
X171527415Y-103975909D01*
X171531500Y-104017390D01*
X171531500Y-104618610D01*
X171527415Y-104660091D01*
X171517107Y-104694069D01*
X171500366Y-104725390D01*
X171477839Y-104752839D01*
X171450390Y-104775366D01*
X171419069Y-104792107D01*
X171385091Y-104802415D01*
X171343610Y-104806500D01*
X170667390Y-104806500D01*
X170625909Y-104802415D01*
X170591931Y-104792107D01*
X170560610Y-104775366D01*
X170533161Y-104752839D01*
X170510634Y-104725390D01*
X170493893Y-104694069D01*
X170483585Y-104660091D01*
X170479500Y-104618610D01*
X170479500Y-104017390D01*
X170483585Y-103975909D01*
X170493893Y-103941931D01*
X170510634Y-103910610D01*
X170533161Y-103883161D01*
X170560610Y-103860634D01*
X170591931Y-103843893D01*
X170625909Y-103833585D01*
X170667390Y-103829500D01*
X171343610Y-103829500D01*
X171385091Y-103833585D01*
G37*
G36*
X158232591Y-103709585D02*
G01*
X158266569Y-103719893D01*
X158297890Y-103736634D01*
X158325339Y-103759161D01*
X158347866Y-103786610D01*
X158364607Y-103817931D01*
X158374915Y-103851909D01*
X158379000Y-103893390D01*
X158379000Y-104494610D01*
X158374915Y-104536091D01*
X158364607Y-104570069D01*
X158347866Y-104601390D01*
X158325339Y-104628839D01*
X158297890Y-104651366D01*
X158266569Y-104668107D01*
X158232591Y-104678415D01*
X158191110Y-104682500D01*
X157514890Y-104682500D01*
X157473409Y-104678415D01*
X157439431Y-104668107D01*
X157408110Y-104651366D01*
X157380661Y-104628839D01*
X157358134Y-104601390D01*
X157341393Y-104570069D01*
X157331085Y-104536091D01*
X157327000Y-104494610D01*
X157327000Y-103893390D01*
X157331085Y-103851909D01*
X157341393Y-103817931D01*
X157358134Y-103786610D01*
X157380661Y-103759161D01*
X157408110Y-103736634D01*
X157439431Y-103719893D01*
X157473409Y-103709585D01*
X157514890Y-103705500D01*
X158191110Y-103705500D01*
X158232591Y-103709585D01*
G37*
G36*
X139336000Y-104661000D02*
G01*
X137696000Y-104661000D01*
X137696000Y-103971000D01*
X139336000Y-103971000D01*
X139336000Y-104661000D01*
G37*
G36*
X144736000Y-104661000D02*
G01*
X143096000Y-104661000D01*
X143096000Y-103971000D01*
X144736000Y-103971000D01*
X144736000Y-104661000D01*
G37*
G36*
X136523591Y-103528585D02*
G01*
X136557569Y-103538893D01*
X136588890Y-103555634D01*
X136616339Y-103578161D01*
X136638866Y-103605610D01*
X136655607Y-103636931D01*
X136665915Y-103670909D01*
X136670000Y-103712390D01*
X136670000Y-104313610D01*
X136665915Y-104355091D01*
X136655607Y-104389069D01*
X136638866Y-104420390D01*
X136616339Y-104447839D01*
X136588890Y-104470366D01*
X136557569Y-104487107D01*
X136523591Y-104497415D01*
X136482110Y-104501500D01*
X135805890Y-104501500D01*
X135764409Y-104497415D01*
X135730431Y-104487107D01*
X135699110Y-104470366D01*
X135671661Y-104447839D01*
X135649134Y-104420390D01*
X135632393Y-104389069D01*
X135622085Y-104355091D01*
X135618000Y-104313610D01*
X135618000Y-103712390D01*
X135622085Y-103670909D01*
X135632393Y-103636931D01*
X135649134Y-103605610D01*
X135671661Y-103578161D01*
X135699110Y-103555634D01*
X135730431Y-103538893D01*
X135764409Y-103528585D01*
X135805890Y-103524500D01*
X136482110Y-103524500D01*
X136523591Y-103528585D01*
G37*
G36*
X151233642Y-102480781D02*
G01*
X151379414Y-102541162D01*
X151379416Y-102541163D01*
X151510608Y-102628822D01*
X151622178Y-102740392D01*
X151698730Y-102854961D01*
X151709838Y-102871586D01*
X151770219Y-103017358D01*
X151801000Y-103172107D01*
X151801000Y-103329893D01*
X151770219Y-103484642D01*
X151717025Y-103613063D01*
X151709837Y-103630416D01*
X151622178Y-103761608D01*
X151510608Y-103873178D01*
X151379416Y-103960837D01*
X151379415Y-103960838D01*
X151379414Y-103960838D01*
X151233642Y-104021219D01*
X151078893Y-104052000D01*
X150921107Y-104052000D01*
X150766358Y-104021219D01*
X150620586Y-103960838D01*
X150620585Y-103960838D01*
X150620584Y-103960837D01*
X150489392Y-103873178D01*
X150377822Y-103761608D01*
X150290163Y-103630416D01*
X150282975Y-103613063D01*
X150229781Y-103484642D01*
X150199000Y-103329893D01*
X150199000Y-103172107D01*
X150229781Y-103017358D01*
X150290162Y-102871586D01*
X150301270Y-102854961D01*
X150377822Y-102740392D01*
X150489392Y-102628822D01*
X150620584Y-102541163D01*
X150620586Y-102541162D01*
X150766358Y-102480781D01*
X150921107Y-102450000D01*
X151078893Y-102450000D01*
X151233642Y-102480781D01*
G37*
G36*
X155663091Y-102983085D02*
G01*
X155697069Y-102993393D01*
X155728390Y-103010134D01*
X155755839Y-103032661D01*
X155778366Y-103060110D01*
X155795107Y-103091431D01*
X155805415Y-103125409D01*
X155809500Y-103166890D01*
X155809500Y-103843110D01*
X155805415Y-103884591D01*
X155795107Y-103918569D01*
X155778366Y-103949890D01*
X155755839Y-103977339D01*
X155728390Y-103999866D01*
X155697069Y-104016607D01*
X155663091Y-104026915D01*
X155621610Y-104031000D01*
X155020390Y-104031000D01*
X154978909Y-104026915D01*
X154944931Y-104016607D01*
X154913610Y-103999866D01*
X154886161Y-103977339D01*
X154863634Y-103949890D01*
X154846893Y-103918569D01*
X154836585Y-103884591D01*
X154832500Y-103843110D01*
X154832500Y-103166890D01*
X154836585Y-103125409D01*
X154846893Y-103091431D01*
X154863634Y-103060110D01*
X154886161Y-103032661D01*
X154913610Y-103010134D01*
X154944931Y-102993393D01*
X154978909Y-102983085D01*
X155020390Y-102979000D01*
X155621610Y-102979000D01*
X155663091Y-102983085D01*
G37*
G36*
X154088091Y-102983085D02*
G01*
X154122069Y-102993393D01*
X154153390Y-103010134D01*
X154180839Y-103032661D01*
X154203366Y-103060110D01*
X154220107Y-103091431D01*
X154230415Y-103125409D01*
X154234500Y-103166890D01*
X154234500Y-103843110D01*
X154230415Y-103884591D01*
X154220107Y-103918569D01*
X154203366Y-103949890D01*
X154180839Y-103977339D01*
X154153390Y-103999866D01*
X154122069Y-104016607D01*
X154088091Y-104026915D01*
X154046610Y-104031000D01*
X153445390Y-104031000D01*
X153403909Y-104026915D01*
X153369931Y-104016607D01*
X153338610Y-103999866D01*
X153311161Y-103977339D01*
X153288634Y-103949890D01*
X153271893Y-103918569D01*
X153261585Y-103884591D01*
X153257500Y-103843110D01*
X153257500Y-103166890D01*
X153261585Y-103125409D01*
X153271893Y-103091431D01*
X153288634Y-103060110D01*
X153311161Y-103032661D01*
X153338610Y-103010134D01*
X153369931Y-102993393D01*
X153403909Y-102983085D01*
X153445390Y-102979000D01*
X154046610Y-102979000D01*
X154088091Y-102983085D01*
G37*
G36*
X139336000Y-103391000D02*
G01*
X137696000Y-103391000D01*
X137696000Y-102701000D01*
X139336000Y-102701000D01*
X139336000Y-103391000D01*
G37*
G36*
X144736000Y-103391000D02*
G01*
X143096000Y-103391000D01*
X143096000Y-102701000D01*
X144736000Y-102701000D01*
X144736000Y-103391000D01*
G37*
G36*
X171385091Y-102258585D02*
G01*
X171419069Y-102268893D01*
X171450390Y-102285634D01*
X171477839Y-102308161D01*
X171500366Y-102335610D01*
X171517107Y-102366931D01*
X171527415Y-102400909D01*
X171531500Y-102442390D01*
X171531500Y-103043610D01*
X171527415Y-103085091D01*
X171517107Y-103119069D01*
X171500366Y-103150390D01*
X171477839Y-103177839D01*
X171450390Y-103200366D01*
X171419069Y-103217107D01*
X171385091Y-103227415D01*
X171343610Y-103231500D01*
X170667390Y-103231500D01*
X170625909Y-103227415D01*
X170591931Y-103217107D01*
X170560610Y-103200366D01*
X170533161Y-103177839D01*
X170510634Y-103150390D01*
X170493893Y-103119069D01*
X170483585Y-103085091D01*
X170479500Y-103043610D01*
X170479500Y-102442390D01*
X170483585Y-102400909D01*
X170493893Y-102366931D01*
X170510634Y-102335610D01*
X170533161Y-102308161D01*
X170560610Y-102285634D01*
X170591931Y-102268893D01*
X170625909Y-102258585D01*
X170667390Y-102254500D01*
X171343610Y-102254500D01*
X171385091Y-102258585D01*
G37*
G36*
X158232591Y-102134585D02*
G01*
X158266569Y-102144893D01*
X158297890Y-102161634D01*
X158325339Y-102184161D01*
X158347866Y-102211610D01*
X158364607Y-102242931D01*
X158374915Y-102276909D01*
X158379000Y-102318390D01*
X158379000Y-102919610D01*
X158374915Y-102961091D01*
X158364607Y-102995069D01*
X158347866Y-103026390D01*
X158325339Y-103053839D01*
X158297890Y-103076366D01*
X158266569Y-103093107D01*
X158232591Y-103103415D01*
X158191110Y-103107500D01*
X157514890Y-103107500D01*
X157473409Y-103103415D01*
X157439431Y-103093107D01*
X157408110Y-103076366D01*
X157380661Y-103053839D01*
X157358134Y-103026390D01*
X157341393Y-102995069D01*
X157331085Y-102961091D01*
X157327000Y-102919610D01*
X157327000Y-102318390D01*
X157331085Y-102276909D01*
X157341393Y-102242931D01*
X157358134Y-102211610D01*
X157380661Y-102184161D01*
X157408110Y-102161634D01*
X157439431Y-102144893D01*
X157473409Y-102134585D01*
X157514890Y-102130500D01*
X158191110Y-102130500D01*
X158232591Y-102134585D01*
G37*
G36*
X136523591Y-101953585D02*
G01*
X136557569Y-101963893D01*
X136588890Y-101980634D01*
X136616339Y-102003161D01*
X136638866Y-102030610D01*
X136655607Y-102061931D01*
X136665915Y-102095909D01*
X136670000Y-102137390D01*
X136670000Y-102738610D01*
X136665915Y-102780091D01*
X136655607Y-102814069D01*
X136638866Y-102845390D01*
X136616339Y-102872839D01*
X136588890Y-102895366D01*
X136557569Y-102912107D01*
X136523591Y-102922415D01*
X136482110Y-102926500D01*
X135805890Y-102926500D01*
X135764409Y-102922415D01*
X135730431Y-102912107D01*
X135699110Y-102895366D01*
X135671661Y-102872839D01*
X135649134Y-102845390D01*
X135632393Y-102814069D01*
X135622085Y-102780091D01*
X135618000Y-102738610D01*
X135618000Y-102137390D01*
X135622085Y-102095909D01*
X135632393Y-102061931D01*
X135649134Y-102030610D01*
X135671661Y-102003161D01*
X135699110Y-101980634D01*
X135730431Y-101963893D01*
X135764409Y-101953585D01*
X135805890Y-101949500D01*
X136482110Y-101949500D01*
X136523591Y-101953585D01*
G37*
G36*
X125733642Y-101229781D02*
G01*
X125879119Y-101290040D01*
X125879416Y-101290163D01*
X126010608Y-101377822D01*
X126122178Y-101489392D01*
X126209498Y-101620077D01*
X126209838Y-101620586D01*
X126270219Y-101766358D01*
X126301000Y-101921107D01*
X126301000Y-102078893D01*
X126270219Y-102233642D01*
X126211770Y-102374750D01*
X126209837Y-102379416D01*
X126122178Y-102510608D01*
X126010608Y-102622178D01*
X125879416Y-102709837D01*
X125879415Y-102709838D01*
X125879414Y-102709838D01*
X125733642Y-102770219D01*
X125578893Y-102801000D01*
X125421107Y-102801000D01*
X125266358Y-102770219D01*
X125120586Y-102709838D01*
X125120585Y-102709838D01*
X125120584Y-102709837D01*
X124989392Y-102622178D01*
X124877822Y-102510608D01*
X124790163Y-102379416D01*
X124788230Y-102374750D01*
X124729781Y-102233642D01*
X124699000Y-102078893D01*
X124699000Y-101921107D01*
X124729781Y-101766358D01*
X124790162Y-101620586D01*
X124790502Y-101620077D01*
X124877822Y-101489392D01*
X124989392Y-101377822D01*
X125120584Y-101290163D01*
X125120881Y-101290040D01*
X125266358Y-101229781D01*
X125421107Y-101199000D01*
X125578893Y-101199000D01*
X125733642Y-101229781D01*
G37*
G36*
X160645591Y-101221585D02*
G01*
X160679569Y-101231893D01*
X160710890Y-101248634D01*
X160738339Y-101271161D01*
X160760866Y-101298610D01*
X160777607Y-101329931D01*
X160787915Y-101363909D01*
X160792000Y-101405390D01*
X160792000Y-102006610D01*
X160787915Y-102048091D01*
X160777607Y-102082069D01*
X160760866Y-102113390D01*
X160738339Y-102140839D01*
X160710890Y-102163366D01*
X160679569Y-102180107D01*
X160645591Y-102190415D01*
X160604110Y-102194500D01*
X159927890Y-102194500D01*
X159886409Y-102190415D01*
X159852431Y-102180107D01*
X159821110Y-102163366D01*
X159793661Y-102140839D01*
X159771134Y-102113390D01*
X159754393Y-102082069D01*
X159744085Y-102048091D01*
X159740000Y-102006610D01*
X159740000Y-101405390D01*
X159744085Y-101363909D01*
X159754393Y-101329931D01*
X159771134Y-101298610D01*
X159793661Y-101271161D01*
X159821110Y-101248634D01*
X159852431Y-101231893D01*
X159886409Y-101221585D01*
X159927890Y-101217500D01*
X160604110Y-101217500D01*
X160645591Y-101221585D01*
G37*
G36*
X144736000Y-102121000D02*
G01*
X143096000Y-102121000D01*
X143096000Y-101431000D01*
X144736000Y-101431000D01*
X144736000Y-102121000D01*
G37*
G36*
X139336000Y-102121000D02*
G01*
X137696000Y-102121000D01*
X137696000Y-101431000D01*
X139336000Y-101431000D01*
X139336000Y-102121000D01*
G37*
G36*
X154088091Y-100951085D02*
G01*
X154122069Y-100961393D01*
X154153390Y-100978134D01*
X154180839Y-101000661D01*
X154203366Y-101028110D01*
X154220107Y-101059431D01*
X154230415Y-101093409D01*
X154234500Y-101134890D01*
X154234500Y-101811110D01*
X154230415Y-101852591D01*
X154220107Y-101886569D01*
X154203366Y-101917890D01*
X154180839Y-101945339D01*
X154153390Y-101967866D01*
X154122069Y-101984607D01*
X154088091Y-101994915D01*
X154046610Y-101999000D01*
X153445390Y-101999000D01*
X153403909Y-101994915D01*
X153369931Y-101984607D01*
X153338610Y-101967866D01*
X153311161Y-101945339D01*
X153288634Y-101917890D01*
X153271893Y-101886569D01*
X153261585Y-101852591D01*
X153257500Y-101811110D01*
X153257500Y-101134890D01*
X153261585Y-101093409D01*
X153271893Y-101059431D01*
X153288634Y-101028110D01*
X153311161Y-101000661D01*
X153338610Y-100978134D01*
X153369931Y-100961393D01*
X153403909Y-100951085D01*
X153445390Y-100947000D01*
X154046610Y-100947000D01*
X154088091Y-100951085D01*
G37*
G36*
X155663091Y-100951085D02*
G01*
X155697069Y-100961393D01*
X155728390Y-100978134D01*
X155755839Y-101000661D01*
X155778366Y-101028110D01*
X155795107Y-101059431D01*
X155805415Y-101093409D01*
X155809500Y-101134890D01*
X155809500Y-101811110D01*
X155805415Y-101852591D01*
X155795107Y-101886569D01*
X155778366Y-101917890D01*
X155755839Y-101945339D01*
X155728390Y-101967866D01*
X155697069Y-101984607D01*
X155663091Y-101994915D01*
X155621610Y-101999000D01*
X155020390Y-101999000D01*
X154978909Y-101994915D01*
X154944931Y-101984607D01*
X154913610Y-101967866D01*
X154886161Y-101945339D01*
X154863634Y-101917890D01*
X154846893Y-101886569D01*
X154836585Y-101852591D01*
X154832500Y-101811110D01*
X154832500Y-101134890D01*
X154836585Y-101093409D01*
X154846893Y-101059431D01*
X154863634Y-101028110D01*
X154886161Y-101000661D01*
X154913610Y-100978134D01*
X154944931Y-100961393D01*
X154978909Y-100951085D01*
X155020390Y-100947000D01*
X155621610Y-100947000D01*
X155663091Y-100951085D01*
G37*
G36*
X151236642Y-99686781D02*
G01*
X151382414Y-99747162D01*
X151382416Y-99747163D01*
X151513608Y-99834822D01*
X151625178Y-99946392D01*
X151712174Y-100076592D01*
X151712838Y-100077586D01*
X151773219Y-100223358D01*
X151804000Y-100378107D01*
X151804000Y-100535893D01*
X151773219Y-100690642D01*
X151726650Y-100803069D01*
X151712837Y-100836416D01*
X151625178Y-100967608D01*
X151513608Y-101079178D01*
X151382416Y-101166837D01*
X151382415Y-101166838D01*
X151382414Y-101166838D01*
X151236642Y-101227219D01*
X151081893Y-101258000D01*
X150924107Y-101258000D01*
X150769358Y-101227219D01*
X150623586Y-101166838D01*
X150623585Y-101166838D01*
X150623584Y-101166837D01*
X150492392Y-101079178D01*
X150380822Y-100967608D01*
X150293163Y-100836416D01*
X150279350Y-100803069D01*
X150232781Y-100690642D01*
X150202000Y-100535893D01*
X150202000Y-100378107D01*
X150232781Y-100223358D01*
X150293162Y-100077586D01*
X150293826Y-100076592D01*
X150380822Y-99946392D01*
X150492392Y-99834822D01*
X150623584Y-99747163D01*
X150623586Y-99747162D01*
X150769358Y-99686781D01*
X150924107Y-99656000D01*
X151081893Y-99656000D01*
X151236642Y-99686781D01*
G37*
G36*
X172605091Y-100062085D02*
G01*
X172639069Y-100072393D01*
X172670390Y-100089134D01*
X172697839Y-100111661D01*
X172720366Y-100139110D01*
X172737107Y-100170431D01*
X172747415Y-100204409D01*
X172751500Y-100245890D01*
X172751500Y-100922110D01*
X172747415Y-100963591D01*
X172737107Y-100997569D01*
X172720366Y-101028890D01*
X172697839Y-101056339D01*
X172670390Y-101078866D01*
X172639069Y-101095607D01*
X172605091Y-101105915D01*
X172563610Y-101110000D01*
X171962390Y-101110000D01*
X171920909Y-101105915D01*
X171886931Y-101095607D01*
X171855610Y-101078866D01*
X171828161Y-101056339D01*
X171805634Y-101028890D01*
X171788893Y-100997569D01*
X171778585Y-100963591D01*
X171774500Y-100922110D01*
X171774500Y-100245890D01*
X171778585Y-100204409D01*
X171788893Y-100170431D01*
X171805634Y-100139110D01*
X171828161Y-100111661D01*
X171855610Y-100089134D01*
X171886931Y-100072393D01*
X171920909Y-100062085D01*
X171962390Y-100058000D01*
X172563610Y-100058000D01*
X172605091Y-100062085D01*
G37*
G36*
X171030091Y-100062085D02*
G01*
X171064069Y-100072393D01*
X171095390Y-100089134D01*
X171122839Y-100111661D01*
X171145366Y-100139110D01*
X171162107Y-100170431D01*
X171172415Y-100204409D01*
X171176500Y-100245890D01*
X171176500Y-100922110D01*
X171172415Y-100963591D01*
X171162107Y-100997569D01*
X171145366Y-101028890D01*
X171122839Y-101056339D01*
X171095390Y-101078866D01*
X171064069Y-101095607D01*
X171030091Y-101105915D01*
X170988610Y-101110000D01*
X170387390Y-101110000D01*
X170345909Y-101105915D01*
X170311931Y-101095607D01*
X170280610Y-101078866D01*
X170253161Y-101056339D01*
X170230634Y-101028890D01*
X170213893Y-100997569D01*
X170203585Y-100963591D01*
X170199500Y-100922110D01*
X170199500Y-100245890D01*
X170203585Y-100204409D01*
X170213893Y-100170431D01*
X170230634Y-100139110D01*
X170253161Y-100111661D01*
X170280610Y-100089134D01*
X170311931Y-100072393D01*
X170345909Y-100062085D01*
X170387390Y-100058000D01*
X170988610Y-100058000D01*
X171030091Y-100062085D01*
G37*
G36*
X133155591Y-100050585D02*
G01*
X133189569Y-100060893D01*
X133220890Y-100077634D01*
X133248339Y-100100161D01*
X133270866Y-100127610D01*
X133287607Y-100158931D01*
X133297915Y-100192909D01*
X133302000Y-100234390D01*
X133302000Y-100835610D01*
X133297915Y-100877091D01*
X133287607Y-100911069D01*
X133270866Y-100942390D01*
X133248339Y-100969839D01*
X133220890Y-100992366D01*
X133189569Y-101009107D01*
X133155591Y-101019415D01*
X133114110Y-101023500D01*
X132437890Y-101023500D01*
X132396409Y-101019415D01*
X132362431Y-101009107D01*
X132331110Y-100992366D01*
X132303661Y-100969839D01*
X132281134Y-100942390D01*
X132264393Y-100911069D01*
X132254085Y-100877091D01*
X132250000Y-100835610D01*
X132250000Y-100234390D01*
X132254085Y-100192909D01*
X132264393Y-100158931D01*
X132281134Y-100127610D01*
X132303661Y-100100161D01*
X132331110Y-100077634D01*
X132362431Y-100060893D01*
X132396409Y-100050585D01*
X132437890Y-100046500D01*
X133114110Y-100046500D01*
X133155591Y-100050585D01*
G37*
G36*
X147675591Y-100050585D02*
G01*
X147709569Y-100060893D01*
X147740890Y-100077634D01*
X147768339Y-100100161D01*
X147790866Y-100127610D01*
X147807607Y-100158931D01*
X147817915Y-100192909D01*
X147822000Y-100234390D01*
X147822000Y-100835610D01*
X147817915Y-100877091D01*
X147807607Y-100911069D01*
X147790866Y-100942390D01*
X147768339Y-100969839D01*
X147740890Y-100992366D01*
X147709569Y-101009107D01*
X147675591Y-101019415D01*
X147634110Y-101023500D01*
X146957890Y-101023500D01*
X146916409Y-101019415D01*
X146882431Y-101009107D01*
X146851110Y-100992366D01*
X146823661Y-100969839D01*
X146801134Y-100942390D01*
X146784393Y-100911069D01*
X146774085Y-100877091D01*
X146770000Y-100835610D01*
X146770000Y-100234390D01*
X146774085Y-100192909D01*
X146784393Y-100158931D01*
X146801134Y-100127610D01*
X146823661Y-100100161D01*
X146851110Y-100077634D01*
X146882431Y-100060893D01*
X146916409Y-100050585D01*
X146957890Y-100046500D01*
X147634110Y-100046500D01*
X147675591Y-100050585D01*
G37*
G36*
X135155591Y-100050585D02*
G01*
X135189569Y-100060893D01*
X135220890Y-100077634D01*
X135248339Y-100100161D01*
X135270866Y-100127610D01*
X135287607Y-100158931D01*
X135297915Y-100192909D01*
X135302000Y-100234390D01*
X135302000Y-100835610D01*
X135297915Y-100877091D01*
X135287607Y-100911069D01*
X135270866Y-100942390D01*
X135248339Y-100969839D01*
X135220890Y-100992366D01*
X135189569Y-101009107D01*
X135155591Y-101019415D01*
X135114110Y-101023500D01*
X134437890Y-101023500D01*
X134396409Y-101019415D01*
X134362431Y-101009107D01*
X134331110Y-100992366D01*
X134303661Y-100969839D01*
X134281134Y-100942390D01*
X134264393Y-100911069D01*
X134254085Y-100877091D01*
X134250000Y-100835610D01*
X134250000Y-100234390D01*
X134254085Y-100192909D01*
X134264393Y-100158931D01*
X134281134Y-100127610D01*
X134303661Y-100100161D01*
X134331110Y-100077634D01*
X134362431Y-100060893D01*
X134396409Y-100050585D01*
X134437890Y-100046500D01*
X135114110Y-100046500D01*
X135155591Y-100050585D01*
G37*
G36*
X144736000Y-100851000D02*
G01*
X143096000Y-100851000D01*
X143096000Y-100161000D01*
X144736000Y-100161000D01*
X144736000Y-100851000D01*
G37*
G36*
X139336000Y-100851000D02*
G01*
X137696000Y-100851000D01*
X137696000Y-100161000D01*
X139336000Y-100161000D01*
X139336000Y-100851000D01*
G37*
G36*
X163893295Y-99204323D02*
G01*
X163900309Y-99206451D01*
X163914077Y-99213810D01*
X163936716Y-99223187D01*
X163960749Y-99227967D01*
X163985253Y-99227967D01*
X164009286Y-99223186D01*
X164031923Y-99213810D01*
X164045691Y-99206451D01*
X164052705Y-99204323D01*
X164066140Y-99203000D01*
X164379860Y-99203000D01*
X164393295Y-99204323D01*
X164400309Y-99206451D01*
X164414077Y-99213810D01*
X164436716Y-99223187D01*
X164460749Y-99227967D01*
X164485253Y-99227967D01*
X164509286Y-99223186D01*
X164531923Y-99213810D01*
X164545691Y-99206451D01*
X164552705Y-99204323D01*
X164566140Y-99203000D01*
X164879860Y-99203000D01*
X164893295Y-99204323D01*
X164900309Y-99206451D01*
X164914077Y-99213810D01*
X164936716Y-99223187D01*
X164960749Y-99227967D01*
X164985253Y-99227967D01*
X165009286Y-99223186D01*
X165031923Y-99213810D01*
X165045691Y-99206451D01*
X165052705Y-99204323D01*
X165066140Y-99203000D01*
X165379860Y-99203000D01*
X165393295Y-99204323D01*
X165400309Y-99206451D01*
X165414077Y-99213810D01*
X165436716Y-99223187D01*
X165460749Y-99227967D01*
X165485253Y-99227967D01*
X165509286Y-99223186D01*
X165531923Y-99213810D01*
X165545691Y-99206451D01*
X165552705Y-99204323D01*
X165566140Y-99203000D01*
X165879860Y-99203000D01*
X165893295Y-99204323D01*
X165900309Y-99206451D01*
X165914077Y-99213810D01*
X165936716Y-99223187D01*
X165960749Y-99227967D01*
X165985253Y-99227967D01*
X166009286Y-99223186D01*
X166031923Y-99213810D01*
X166045691Y-99206451D01*
X166052705Y-99204323D01*
X166066140Y-99203000D01*
X166379860Y-99203000D01*
X166393295Y-99204323D01*
X166400309Y-99206451D01*
X166414077Y-99213810D01*
X166436716Y-99223187D01*
X166460749Y-99227967D01*
X166485253Y-99227967D01*
X166509286Y-99223186D01*
X166531923Y-99213810D01*
X166545691Y-99206451D01*
X166552705Y-99204323D01*
X166566140Y-99203000D01*
X166879860Y-99203000D01*
X166893295Y-99204323D01*
X166900309Y-99206451D01*
X166914077Y-99213810D01*
X166936716Y-99223187D01*
X166960749Y-99227967D01*
X166985253Y-99227967D01*
X167009286Y-99223186D01*
X167031923Y-99213810D01*
X167045691Y-99206451D01*
X167052705Y-99204323D01*
X167066140Y-99203000D01*
X167379860Y-99203000D01*
X167393295Y-99204323D01*
X167400310Y-99206451D01*
X167406776Y-99209908D01*
X167412442Y-99214558D01*
X167417092Y-99220224D01*
X167420549Y-99226690D01*
X167422677Y-99233705D01*
X167424000Y-99247140D01*
X167424000Y-100760860D01*
X167422677Y-100774295D01*
X167420549Y-100781310D01*
X167417092Y-100787776D01*
X167412442Y-100793442D01*
X167406776Y-100798092D01*
X167400310Y-100801549D01*
X167393295Y-100803677D01*
X167379860Y-100805000D01*
X167066140Y-100805000D01*
X167052705Y-100803677D01*
X167045691Y-100801549D01*
X167031923Y-100794190D01*
X167009284Y-100784813D01*
X166985251Y-100780033D01*
X166960747Y-100780033D01*
X166936714Y-100784814D01*
X166914077Y-100794190D01*
X166900309Y-100801549D01*
X166893295Y-100803677D01*
X166879860Y-100805000D01*
X166566140Y-100805000D01*
X166552705Y-100803677D01*
X166545691Y-100801549D01*
X166531923Y-100794190D01*
X166509284Y-100784813D01*
X166485251Y-100780033D01*
X166460747Y-100780033D01*
X166436714Y-100784814D01*
X166414077Y-100794190D01*
X166400309Y-100801549D01*
X166393295Y-100803677D01*
X166379860Y-100805000D01*
X166066140Y-100805000D01*
X166052705Y-100803677D01*
X166045691Y-100801549D01*
X166031923Y-100794190D01*
X166009284Y-100784813D01*
X165985251Y-100780033D01*
X165960747Y-100780033D01*
X165936714Y-100784814D01*
X165914077Y-100794190D01*
X165900309Y-100801549D01*
X165893295Y-100803677D01*
X165879860Y-100805000D01*
X165566140Y-100805000D01*
X165552705Y-100803677D01*
X165545691Y-100801549D01*
X165531923Y-100794190D01*
X165509284Y-100784813D01*
X165485251Y-100780033D01*
X165460747Y-100780033D01*
X165436714Y-100784814D01*
X165414077Y-100794190D01*
X165400309Y-100801549D01*
X165393295Y-100803677D01*
X165379860Y-100805000D01*
X165066140Y-100805000D01*
X165052705Y-100803677D01*
X165045691Y-100801549D01*
X165031923Y-100794190D01*
X165009284Y-100784813D01*
X164985251Y-100780033D01*
X164960747Y-100780033D01*
X164936714Y-100784814D01*
X164914077Y-100794190D01*
X164900309Y-100801549D01*
X164893295Y-100803677D01*
X164879860Y-100805000D01*
X164566140Y-100805000D01*
X164552705Y-100803677D01*
X164545691Y-100801549D01*
X164531923Y-100794190D01*
X164509284Y-100784813D01*
X164485251Y-100780033D01*
X164460747Y-100780033D01*
X164436714Y-100784814D01*
X164414077Y-100794190D01*
X164400309Y-100801549D01*
X164393295Y-100803677D01*
X164379860Y-100805000D01*
X164066140Y-100805000D01*
X164052705Y-100803677D01*
X164045691Y-100801549D01*
X164031923Y-100794190D01*
X164009284Y-100784813D01*
X163985251Y-100780033D01*
X163960747Y-100780033D01*
X163936714Y-100784814D01*
X163914077Y-100794190D01*
X163900309Y-100801549D01*
X163893295Y-100803677D01*
X163879860Y-100805000D01*
X163566140Y-100805000D01*
X163552705Y-100803677D01*
X163545690Y-100801549D01*
X163539224Y-100798092D01*
X163533558Y-100793442D01*
X163528908Y-100787776D01*
X163525451Y-100781310D01*
X163523323Y-100774295D01*
X163522000Y-100760860D01*
X163522000Y-99247140D01*
X163523323Y-99233705D01*
X163525451Y-99226690D01*
X163528908Y-99220224D01*
X163533558Y-99214558D01*
X163539224Y-99209908D01*
X163545690Y-99206451D01*
X163552705Y-99204323D01*
X163566140Y-99203000D01*
X163879860Y-99203000D01*
X163893295Y-99204323D01*
G37*
G36*
X160645591Y-99646585D02*
G01*
X160679569Y-99656893D01*
X160710890Y-99673634D01*
X160738339Y-99696161D01*
X160760866Y-99723610D01*
X160777607Y-99754931D01*
X160787915Y-99788909D01*
X160792000Y-99830390D01*
X160792000Y-100431610D01*
X160787915Y-100473091D01*
X160777607Y-100507069D01*
X160760866Y-100538390D01*
X160738339Y-100565839D01*
X160710890Y-100588366D01*
X160679569Y-100605107D01*
X160645591Y-100615415D01*
X160604110Y-100619500D01*
X159927890Y-100619500D01*
X159886409Y-100615415D01*
X159852431Y-100605107D01*
X159821110Y-100588366D01*
X159793661Y-100565839D01*
X159771134Y-100538390D01*
X159754393Y-100507069D01*
X159744085Y-100473091D01*
X159740000Y-100431610D01*
X159740000Y-99830390D01*
X159744085Y-99788909D01*
X159754393Y-99754931D01*
X159771134Y-99723610D01*
X159793661Y-99696161D01*
X159821110Y-99673634D01*
X159852431Y-99656893D01*
X159886409Y-99646585D01*
X159927890Y-99642500D01*
X160604110Y-99642500D01*
X160645591Y-99646585D01*
G37*
G36*
X139336000Y-99581000D02*
G01*
X137696000Y-99581000D01*
X137696000Y-98891000D01*
X139336000Y-98891000D01*
X139336000Y-99581000D01*
G37*
G36*
X144736000Y-99581000D02*
G01*
X143096000Y-99581000D01*
X143096000Y-98891000D01*
X144736000Y-98891000D01*
X144736000Y-99581000D01*
G37*
G36*
X133155591Y-98475585D02*
G01*
X133189569Y-98485893D01*
X133220890Y-98502634D01*
X133248339Y-98525161D01*
X133270866Y-98552610D01*
X133287607Y-98583931D01*
X133297915Y-98617909D01*
X133302000Y-98659390D01*
X133302000Y-99260610D01*
X133297915Y-99302091D01*
X133287607Y-99336069D01*
X133270866Y-99367390D01*
X133248339Y-99394839D01*
X133220890Y-99417366D01*
X133189569Y-99434107D01*
X133155591Y-99444415D01*
X133114110Y-99448500D01*
X132437890Y-99448500D01*
X132396409Y-99444415D01*
X132362431Y-99434107D01*
X132331110Y-99417366D01*
X132303661Y-99394839D01*
X132281134Y-99367390D01*
X132264393Y-99336069D01*
X132254085Y-99302091D01*
X132250000Y-99260610D01*
X132250000Y-98659390D01*
X132254085Y-98617909D01*
X132264393Y-98583931D01*
X132281134Y-98552610D01*
X132303661Y-98525161D01*
X132331110Y-98502634D01*
X132362431Y-98485893D01*
X132396409Y-98475585D01*
X132437890Y-98471500D01*
X133114110Y-98471500D01*
X133155591Y-98475585D01*
G37*
G36*
X135155591Y-98475585D02*
G01*
X135189569Y-98485893D01*
X135220890Y-98502634D01*
X135248339Y-98525161D01*
X135270866Y-98552610D01*
X135287607Y-98583931D01*
X135297915Y-98617909D01*
X135302000Y-98659390D01*
X135302000Y-99260610D01*
X135297915Y-99302091D01*
X135287607Y-99336069D01*
X135270866Y-99367390D01*
X135248339Y-99394839D01*
X135220890Y-99417366D01*
X135189569Y-99434107D01*
X135155591Y-99444415D01*
X135114110Y-99448500D01*
X134437890Y-99448500D01*
X134396409Y-99444415D01*
X134362431Y-99434107D01*
X134331110Y-99417366D01*
X134303661Y-99394839D01*
X134281134Y-99367390D01*
X134264393Y-99336069D01*
X134254085Y-99302091D01*
X134250000Y-99260610D01*
X134250000Y-98659390D01*
X134254085Y-98617909D01*
X134264393Y-98583931D01*
X134281134Y-98552610D01*
X134303661Y-98525161D01*
X134331110Y-98502634D01*
X134362431Y-98485893D01*
X134396409Y-98475585D01*
X134437890Y-98471500D01*
X135114110Y-98471500D01*
X135155591Y-98475585D01*
G37*
G36*
X147675591Y-98475585D02*
G01*
X147709569Y-98485893D01*
X147740890Y-98502634D01*
X147768339Y-98525161D01*
X147790866Y-98552610D01*
X147807607Y-98583931D01*
X147817915Y-98617909D01*
X147822000Y-98659390D01*
X147822000Y-99260610D01*
X147817915Y-99302091D01*
X147807607Y-99336069D01*
X147790866Y-99367390D01*
X147768339Y-99394839D01*
X147740890Y-99417366D01*
X147709569Y-99434107D01*
X147675591Y-99444415D01*
X147634110Y-99448500D01*
X146957890Y-99448500D01*
X146916409Y-99444415D01*
X146882431Y-99434107D01*
X146851110Y-99417366D01*
X146823661Y-99394839D01*
X146801134Y-99367390D01*
X146784393Y-99336069D01*
X146774085Y-99302091D01*
X146770000Y-99260610D01*
X146770000Y-98659390D01*
X146774085Y-98617909D01*
X146784393Y-98583931D01*
X146801134Y-98552610D01*
X146823661Y-98525161D01*
X146851110Y-98502634D01*
X146882431Y-98485893D01*
X146916409Y-98475585D01*
X146957890Y-98471500D01*
X147634110Y-98471500D01*
X147675591Y-98475585D01*
G37*
G36*
X172605091Y-98347085D02*
G01*
X172639069Y-98357393D01*
X172670390Y-98374134D01*
X172697839Y-98396661D01*
X172720366Y-98424110D01*
X172737107Y-98455431D01*
X172747415Y-98489409D01*
X172751500Y-98530890D01*
X172751500Y-99207110D01*
X172747415Y-99248591D01*
X172737107Y-99282569D01*
X172720366Y-99313890D01*
X172697839Y-99341339D01*
X172670390Y-99363866D01*
X172639069Y-99380607D01*
X172605091Y-99390915D01*
X172563610Y-99395000D01*
X171962390Y-99395000D01*
X171920909Y-99390915D01*
X171886931Y-99380607D01*
X171855610Y-99363866D01*
X171828161Y-99341339D01*
X171805634Y-99313890D01*
X171788893Y-99282569D01*
X171778585Y-99248591D01*
X171774500Y-99207110D01*
X171774500Y-98530890D01*
X171778585Y-98489409D01*
X171788893Y-98455431D01*
X171805634Y-98424110D01*
X171828161Y-98396661D01*
X171855610Y-98374134D01*
X171886931Y-98357393D01*
X171920909Y-98347085D01*
X171962390Y-98343000D01*
X172563610Y-98343000D01*
X172605091Y-98347085D01*
G37*
G36*
X171030091Y-98347085D02*
G01*
X171064069Y-98357393D01*
X171095390Y-98374134D01*
X171122839Y-98396661D01*
X171145366Y-98424110D01*
X171162107Y-98455431D01*
X171172415Y-98489409D01*
X171176500Y-98530890D01*
X171176500Y-99207110D01*
X171172415Y-99248591D01*
X171162107Y-99282569D01*
X171145366Y-99313890D01*
X171122839Y-99341339D01*
X171095390Y-99363866D01*
X171064069Y-99380607D01*
X171030091Y-99390915D01*
X170988610Y-99395000D01*
X170387390Y-99395000D01*
X170345909Y-99390915D01*
X170311931Y-99380607D01*
X170280610Y-99363866D01*
X170253161Y-99341339D01*
X170230634Y-99313890D01*
X170213893Y-99282569D01*
X170203585Y-99248591D01*
X170199500Y-99207110D01*
X170199500Y-98530890D01*
X170203585Y-98489409D01*
X170213893Y-98455431D01*
X170230634Y-98424110D01*
X170253161Y-98396661D01*
X170280610Y-98374134D01*
X170311931Y-98357393D01*
X170345909Y-98347085D01*
X170387390Y-98343000D01*
X170988610Y-98343000D01*
X171030091Y-98347085D01*
G37*
G36*
X162140091Y-97577085D02*
G01*
X162174069Y-97587393D01*
X162205390Y-97604134D01*
X162232839Y-97626661D01*
X162255366Y-97654110D01*
X162272107Y-97685431D01*
X162282415Y-97719409D01*
X162286500Y-97760890D01*
X162286500Y-98437110D01*
X162282415Y-98478591D01*
X162272107Y-98512569D01*
X162255366Y-98543890D01*
X162232839Y-98571339D01*
X162205390Y-98593866D01*
X162174069Y-98610607D01*
X162140091Y-98620915D01*
X162098610Y-98625000D01*
X161497390Y-98625000D01*
X161455909Y-98620915D01*
X161421931Y-98610607D01*
X161390610Y-98593866D01*
X161363161Y-98571339D01*
X161340634Y-98543890D01*
X161323893Y-98512569D01*
X161313585Y-98478591D01*
X161309500Y-98437110D01*
X161309500Y-97760890D01*
X161313585Y-97719409D01*
X161323893Y-97685431D01*
X161340634Y-97654110D01*
X161363161Y-97626661D01*
X161390610Y-97604134D01*
X161421931Y-97587393D01*
X161455909Y-97577085D01*
X161497390Y-97573000D01*
X162098610Y-97573000D01*
X162140091Y-97577085D01*
G37*
G36*
X163715091Y-97577085D02*
G01*
X163749069Y-97587393D01*
X163780390Y-97604134D01*
X163807839Y-97626661D01*
X163830366Y-97654110D01*
X163847107Y-97685431D01*
X163857415Y-97719409D01*
X163861500Y-97760890D01*
X163861500Y-98437110D01*
X163857415Y-98478591D01*
X163847107Y-98512569D01*
X163830366Y-98543890D01*
X163807839Y-98571339D01*
X163780390Y-98593866D01*
X163749069Y-98610607D01*
X163715091Y-98620915D01*
X163673610Y-98625000D01*
X163072390Y-98625000D01*
X163030909Y-98620915D01*
X162996931Y-98610607D01*
X162965610Y-98593866D01*
X162938161Y-98571339D01*
X162915634Y-98543890D01*
X162898893Y-98512569D01*
X162888585Y-98478591D01*
X162884500Y-98437110D01*
X162884500Y-97760890D01*
X162888585Y-97719409D01*
X162898893Y-97685431D01*
X162915634Y-97654110D01*
X162938161Y-97626661D01*
X162965610Y-97604134D01*
X162996931Y-97587393D01*
X163030909Y-97577085D01*
X163072390Y-97573000D01*
X163673610Y-97573000D01*
X163715091Y-97577085D01*
G37*
G36*
X142498091Y-96301085D02*
G01*
X142532069Y-96311393D01*
X142563390Y-96328134D01*
X142590839Y-96350661D01*
X142613366Y-96378110D01*
X142630107Y-96409431D01*
X142640415Y-96443409D01*
X142644500Y-96484890D01*
X142644500Y-97161110D01*
X142640415Y-97202591D01*
X142630107Y-97236569D01*
X142613366Y-97267890D01*
X142590839Y-97295339D01*
X142563390Y-97317866D01*
X142532069Y-97334607D01*
X142498091Y-97344915D01*
X142456610Y-97349000D01*
X141855390Y-97349000D01*
X141813909Y-97344915D01*
X141779931Y-97334607D01*
X141748610Y-97317866D01*
X141721161Y-97295339D01*
X141698634Y-97267890D01*
X141681893Y-97236569D01*
X141671585Y-97202591D01*
X141667500Y-97161110D01*
X141667500Y-96484890D01*
X141671585Y-96443409D01*
X141681893Y-96409431D01*
X141698634Y-96378110D01*
X141721161Y-96350661D01*
X141748610Y-96328134D01*
X141779931Y-96311393D01*
X141813909Y-96301085D01*
X141855390Y-96297000D01*
X142456610Y-96297000D01*
X142498091Y-96301085D01*
G37*
G36*
X140923091Y-96301085D02*
G01*
X140957069Y-96311393D01*
X140988390Y-96328134D01*
X141015839Y-96350661D01*
X141038366Y-96378110D01*
X141055107Y-96409431D01*
X141065415Y-96443409D01*
X141069500Y-96484890D01*
X141069500Y-97161110D01*
X141065415Y-97202591D01*
X141055107Y-97236569D01*
X141038366Y-97267890D01*
X141015839Y-97295339D01*
X140988390Y-97317866D01*
X140957069Y-97334607D01*
X140923091Y-97344915D01*
X140881610Y-97349000D01*
X140280390Y-97349000D01*
X140238909Y-97344915D01*
X140204931Y-97334607D01*
X140173610Y-97317866D01*
X140146161Y-97295339D01*
X140123634Y-97267890D01*
X140106893Y-97236569D01*
X140096585Y-97202591D01*
X140092500Y-97161110D01*
X140092500Y-96484890D01*
X140096585Y-96443409D01*
X140106893Y-96409431D01*
X140123634Y-96378110D01*
X140146161Y-96350661D01*
X140173610Y-96328134D01*
X140204931Y-96311393D01*
X140238909Y-96301085D01*
X140280390Y-96297000D01*
X140881610Y-96297000D01*
X140923091Y-96301085D01*
G37*
G36*
X161588642Y-94461781D02*
G01*
X161734414Y-94522162D01*
X161734416Y-94522163D01*
X161865608Y-94609822D01*
X161977178Y-94721392D01*
X162064837Y-94852584D01*
X162064838Y-94852586D01*
X162125219Y-94998358D01*
X162156000Y-95153107D01*
X162156000Y-95310893D01*
X162125219Y-95465642D01*
X162064838Y-95611414D01*
X162064837Y-95611416D01*
X161977178Y-95742608D01*
X161865608Y-95854178D01*
X161734416Y-95941837D01*
X161734415Y-95941838D01*
X161734414Y-95941838D01*
X161588642Y-96002219D01*
X161433893Y-96033000D01*
X161276107Y-96033000D01*
X161121358Y-96002219D01*
X160975586Y-95941838D01*
X160975585Y-95941838D01*
X160975584Y-95941837D01*
X160844392Y-95854178D01*
X160732822Y-95742608D01*
X160645163Y-95611416D01*
X160645162Y-95611414D01*
X160584781Y-95465642D01*
X160554000Y-95310893D01*
X160554000Y-95153107D01*
X160584781Y-94998358D01*
X160645162Y-94852586D01*
X160645163Y-94852584D01*
X160732822Y-94721392D01*
X160844392Y-94609822D01*
X160975584Y-94522163D01*
X160975586Y-94522162D01*
X161121358Y-94461781D01*
X161276107Y-94431000D01*
X161433893Y-94431000D01*
X161588642Y-94461781D01*
G37*
G36*
X166033642Y-94461781D02*
G01*
X166179414Y-94522162D01*
X166179416Y-94522163D01*
X166310608Y-94609822D01*
X166422178Y-94721392D01*
X166509837Y-94852584D01*
X166509838Y-94852586D01*
X166570219Y-94998358D01*
X166601000Y-95153107D01*
X166601000Y-95310893D01*
X166570219Y-95465642D01*
X166509838Y-95611414D01*
X166509837Y-95611416D01*
X166422178Y-95742608D01*
X166310608Y-95854178D01*
X166179416Y-95941837D01*
X166179415Y-95941838D01*
X166179414Y-95941838D01*
X166033642Y-96002219D01*
X165878893Y-96033000D01*
X165721107Y-96033000D01*
X165566358Y-96002219D01*
X165420586Y-95941838D01*
X165420585Y-95941838D01*
X165420584Y-95941837D01*
X165289392Y-95854178D01*
X165177822Y-95742608D01*
X165090163Y-95611416D01*
X165090162Y-95611414D01*
X165029781Y-95465642D01*
X164999000Y-95310893D01*
X164999000Y-95153107D01*
X165029781Y-94998358D01*
X165090162Y-94852586D01*
X165090163Y-94852584D01*
X165177822Y-94721392D01*
X165289392Y-94609822D01*
X165420584Y-94522163D01*
X165420586Y-94522162D01*
X165566358Y-94461781D01*
X165721107Y-94431000D01*
X165878893Y-94431000D01*
X166033642Y-94461781D01*
G37*
G36*
X170066642Y-94461781D02*
G01*
X170212414Y-94522162D01*
X170212416Y-94522163D01*
X170343608Y-94609822D01*
X170455178Y-94721392D01*
X170542837Y-94852584D01*
X170542838Y-94852586D01*
X170603219Y-94998358D01*
X170634000Y-95153107D01*
X170634000Y-95310893D01*
X170603219Y-95465642D01*
X170542838Y-95611414D01*
X170542837Y-95611416D01*
X170455178Y-95742608D01*
X170343608Y-95854178D01*
X170212416Y-95941837D01*
X170212415Y-95941838D01*
X170212414Y-95941838D01*
X170066642Y-96002219D01*
X169911893Y-96033000D01*
X169754107Y-96033000D01*
X169599358Y-96002219D01*
X169453586Y-95941838D01*
X169453585Y-95941838D01*
X169453584Y-95941837D01*
X169322392Y-95854178D01*
X169210822Y-95742608D01*
X169123163Y-95611416D01*
X169123162Y-95611414D01*
X169062781Y-95465642D01*
X169032000Y-95310893D01*
X169032000Y-95153107D01*
X169062781Y-94998358D01*
X169123162Y-94852586D01*
X169123163Y-94852584D01*
X169210822Y-94721392D01*
X169322392Y-94609822D01*
X169453584Y-94522163D01*
X169453586Y-94522162D01*
X169599358Y-94461781D01*
X169754107Y-94431000D01*
X169911893Y-94431000D01*
X170066642Y-94461781D01*
G37*
G36*
X168066642Y-91921781D02*
G01*
X168212414Y-91982162D01*
X168212416Y-91982163D01*
X168343608Y-92069822D01*
X168455178Y-92181392D01*
X168542837Y-92312584D01*
X168542838Y-92312586D01*
X168603219Y-92458358D01*
X168634000Y-92613107D01*
X168634000Y-92770893D01*
X168603219Y-92925642D01*
X168542838Y-93071414D01*
X168542837Y-93071416D01*
X168455178Y-93202608D01*
X168343608Y-93314178D01*
X168212416Y-93401837D01*
X168212415Y-93401838D01*
X168212414Y-93401838D01*
X168066642Y-93462219D01*
X167911893Y-93493000D01*
X167754107Y-93493000D01*
X167599358Y-93462219D01*
X167453586Y-93401838D01*
X167453585Y-93401838D01*
X167453584Y-93401837D01*
X167322392Y-93314178D01*
X167210822Y-93202608D01*
X167123163Y-93071416D01*
X167123162Y-93071414D01*
X167062781Y-92925642D01*
X167032000Y-92770893D01*
X167032000Y-92613107D01*
X167062781Y-92458358D01*
X167123162Y-92312586D01*
X167123163Y-92312584D01*
X167210822Y-92181392D01*
X167322392Y-92069822D01*
X167453584Y-91982163D01*
X167453586Y-91982162D01*
X167599358Y-91921781D01*
X167754107Y-91891000D01*
X167911893Y-91891000D01*
X168066642Y-91921781D01*
G37*
G36*
X172383642Y-91921781D02*
G01*
X172529414Y-91982162D01*
X172529416Y-91982163D01*
X172660608Y-92069822D01*
X172772178Y-92181392D01*
X172859837Y-92312584D01*
X172859838Y-92312586D01*
X172920219Y-92458358D01*
X172951000Y-92613107D01*
X172951000Y-92770893D01*
X172920219Y-92925642D01*
X172859838Y-93071414D01*
X172859837Y-93071416D01*
X172772178Y-93202608D01*
X172660608Y-93314178D01*
X172529416Y-93401837D01*
X172529415Y-93401838D01*
X172529414Y-93401838D01*
X172383642Y-93462219D01*
X172228893Y-93493000D01*
X172071107Y-93493000D01*
X171916358Y-93462219D01*
X171770586Y-93401838D01*
X171770585Y-93401838D01*
X171770584Y-93401837D01*
X171639392Y-93314178D01*
X171527822Y-93202608D01*
X171440163Y-93071416D01*
X171440162Y-93071414D01*
X171379781Y-92925642D01*
X171349000Y-92770893D01*
X171349000Y-92613107D01*
X171379781Y-92458358D01*
X171440162Y-92312586D01*
X171440163Y-92312584D01*
X171527822Y-92181392D01*
X171639392Y-92069822D01*
X171770584Y-91982163D01*
X171770586Y-91982162D01*
X171916358Y-91921781D01*
X172071107Y-91891000D01*
X172228893Y-91891000D01*
X172383642Y-91921781D01*
G37*
G36*
X164128642Y-91921781D02*
G01*
X164274414Y-91982162D01*
X164274416Y-91982163D01*
X164405608Y-92069822D01*
X164517178Y-92181392D01*
X164604837Y-92312584D01*
X164604838Y-92312586D01*
X164665219Y-92458358D01*
X164696000Y-92613107D01*
X164696000Y-92770893D01*
X164665219Y-92925642D01*
X164604838Y-93071414D01*
X164604837Y-93071416D01*
X164517178Y-93202608D01*
X164405608Y-93314178D01*
X164274416Y-93401837D01*
X164274415Y-93401838D01*
X164274414Y-93401838D01*
X164128642Y-93462219D01*
X163973893Y-93493000D01*
X163816107Y-93493000D01*
X163661358Y-93462219D01*
X163515586Y-93401838D01*
X163515585Y-93401838D01*
X163515584Y-93401837D01*
X163384392Y-93314178D01*
X163272822Y-93202608D01*
X163185163Y-93071416D01*
X163185162Y-93071414D01*
X163124781Y-92925642D01*
X163094000Y-92770893D01*
X163094000Y-92613107D01*
X163124781Y-92458358D01*
X163185162Y-92312586D01*
X163185163Y-92312584D01*
X163272822Y-92181392D01*
X163384392Y-92069822D01*
X163515584Y-91982163D01*
X163515586Y-91982162D01*
X163661358Y-91921781D01*
X163816107Y-91891000D01*
X163973893Y-91891000D01*
X164128642Y-91921781D01*
G37*
G36*
X146724549Y-88871116D02*
G01*
X146835734Y-88893232D01*
X147045203Y-88979997D01*
X147233720Y-89105960D01*
X147394040Y-89266280D01*
X147520003Y-89454797D01*
X147606768Y-89664266D01*
X147651000Y-89886636D01*
X147651000Y-90113364D01*
X147606768Y-90335734D01*
X147520003Y-90545203D01*
X147394040Y-90733720D01*
X147233720Y-90894040D01*
X147045203Y-91020003D01*
X146835734Y-91106768D01*
X146724549Y-91128884D01*
X146613365Y-91151000D01*
X146386635Y-91151000D01*
X146275451Y-91128884D01*
X146164266Y-91106768D01*
X145954797Y-91020003D01*
X145766280Y-90894040D01*
X145605960Y-90733720D01*
X145479997Y-90545203D01*
X145393232Y-90335734D01*
X145349000Y-90113364D01*
X145349000Y-89886636D01*
X145393232Y-89664266D01*
X145479997Y-89454797D01*
X145605960Y-89266280D01*
X145766280Y-89105960D01*
X145954797Y-88979997D01*
X146164266Y-88893232D01*
X146275451Y-88871116D01*
X146386635Y-88849000D01*
X146613365Y-88849000D01*
X146724549Y-88871116D01*
G37*
G36*
X138724549Y-88871116D02*
G01*
X138835734Y-88893232D01*
X139045203Y-88979997D01*
X139233720Y-89105960D01*
X139394040Y-89266280D01*
X139520003Y-89454797D01*
X139606768Y-89664266D01*
X139651000Y-89886636D01*
X139651000Y-90113364D01*
X139606768Y-90335734D01*
X139520003Y-90545203D01*
X139394040Y-90733720D01*
X139233720Y-90894040D01*
X139045203Y-91020003D01*
X138835734Y-91106768D01*
X138724549Y-91128884D01*
X138613365Y-91151000D01*
X138386635Y-91151000D01*
X138275451Y-91128884D01*
X138164266Y-91106768D01*
X137954797Y-91020003D01*
X137766280Y-90894040D01*
X137605960Y-90733720D01*
X137479997Y-90545203D01*
X137393232Y-90335734D01*
X137349000Y-90113364D01*
X137349000Y-89886636D01*
X137393232Y-89664266D01*
X137479997Y-89454797D01*
X137605960Y-89266280D01*
X137766280Y-89105960D01*
X137954797Y-88979997D01*
X138164266Y-88893232D01*
X138275451Y-88871116D01*
X138386635Y-88849000D01*
X138613365Y-88849000D01*
X138724549Y-88871116D01*
G37*
G36*
X172979766Y-88170899D02*
G01*
X173111888Y-88225626D01*
X173111890Y-88225627D01*
X173230798Y-88305079D01*
X173331921Y-88406202D01*
X173331922Y-88406204D01*
X173411374Y-88525112D01*
X173466101Y-88657234D01*
X173494000Y-88797494D01*
X173494000Y-88940506D01*
X173466101Y-89080766D01*
X173411374Y-89212888D01*
X173411373Y-89212890D01*
X173331921Y-89331798D01*
X173230798Y-89432921D01*
X173111890Y-89512373D01*
X173111889Y-89512374D01*
X173111888Y-89512374D01*
X172979766Y-89567101D01*
X172839506Y-89595000D01*
X172696494Y-89595000D01*
X172556234Y-89567101D01*
X172424112Y-89512374D01*
X172424111Y-89512374D01*
X172424110Y-89512373D01*
X172305202Y-89432921D01*
X172204079Y-89331798D01*
X172124627Y-89212890D01*
X172124626Y-89212888D01*
X172069899Y-89080766D01*
X172042000Y-88940506D01*
X172042000Y-88797494D01*
X172069899Y-88657234D01*
X172124626Y-88525112D01*
X172204078Y-88406204D01*
X172204079Y-88406202D01*
X172305202Y-88305079D01*
X172424110Y-88225627D01*
X172424112Y-88225626D01*
X172556234Y-88170899D01*
X172696494Y-88143000D01*
X172839506Y-88143000D01*
X172979766Y-88170899D01*
G37*
G36*
X161109766Y-88170899D02*
G01*
X161241888Y-88225626D01*
X161241890Y-88225627D01*
X161360798Y-88305079D01*
X161461921Y-88406202D01*
X161461922Y-88406204D01*
X161541374Y-88525112D01*
X161596101Y-88657234D01*
X161624000Y-88797494D01*
X161624000Y-88940506D01*
X161596101Y-89080766D01*
X161541374Y-89212888D01*
X161541373Y-89212890D01*
X161461921Y-89331798D01*
X161360798Y-89432921D01*
X161241890Y-89512373D01*
X161241889Y-89512374D01*
X161241888Y-89512374D01*
X161109766Y-89567101D01*
X160969506Y-89595000D01*
X160826494Y-89595000D01*
X160686234Y-89567101D01*
X160554112Y-89512374D01*
X160554111Y-89512374D01*
X160554110Y-89512373D01*
X160435202Y-89432921D01*
X160334079Y-89331798D01*
X160254627Y-89212890D01*
X160254626Y-89212888D01*
X160199899Y-89080766D01*
X160172000Y-88940506D01*
X160172000Y-88797494D01*
X160199899Y-88657234D01*
X160254626Y-88525112D01*
X160334078Y-88406204D01*
X160334079Y-88406202D01*
X160435202Y-88305079D01*
X160554110Y-88225627D01*
X160554112Y-88225626D01*
X160686234Y-88170899D01*
X160826494Y-88143000D01*
X160969506Y-88143000D01*
X161109766Y-88170899D01*
G37*
G36*
X170459000Y-89470000D02*
G01*
X169557000Y-89470000D01*
X169557000Y-88268000D01*
X170459000Y-88268000D01*
X170459000Y-89470000D01*
G37*
G36*
X169189000Y-89470000D02*
G01*
X168287000Y-89470000D01*
X168287000Y-88268000D01*
X169189000Y-88268000D01*
X169189000Y-89470000D01*
G37*
G36*
X167919000Y-89470000D02*
G01*
X167017000Y-89470000D01*
X167017000Y-88268000D01*
X167919000Y-88268000D01*
X167919000Y-89470000D01*
G37*
G36*
X166649000Y-89470000D02*
G01*
X165747000Y-89470000D01*
X165747000Y-88268000D01*
X166649000Y-88268000D01*
X166649000Y-89470000D01*
G37*
G36*
X165379000Y-89470000D02*
G01*
X164477000Y-89470000D01*
X164477000Y-88268000D01*
X165379000Y-88268000D01*
X165379000Y-89470000D01*
G37*
G36*
X164109000Y-89470000D02*
G01*
X163207000Y-89470000D01*
X163207000Y-88268000D01*
X164109000Y-88268000D01*
X164109000Y-89470000D01*
G37*
G36*
X120634239Y-81811467D02*
G01*
X120948282Y-81873934D01*
X121539926Y-82119001D01*
X122072392Y-82474784D01*
X122525216Y-82927608D01*
X122880999Y-83460074D01*
X123126066Y-84051718D01*
X123129126Y-84067101D01*
X123251000Y-84679803D01*
X123251000Y-85320197D01*
X123242117Y-85364853D01*
X123126066Y-85948282D01*
X122880999Y-86539926D01*
X122525216Y-87072392D01*
X122072392Y-87525216D01*
X121539926Y-87880999D01*
X120948282Y-88126066D01*
X120722891Y-88170899D01*
X120320197Y-88251000D01*
X119679803Y-88251000D01*
X119277109Y-88170899D01*
X119051718Y-88126066D01*
X118460074Y-87880999D01*
X117927608Y-87525216D01*
X117474784Y-87072392D01*
X117119001Y-86539926D01*
X116873934Y-85948282D01*
X116757883Y-85364853D01*
X116749000Y-85320197D01*
X116749000Y-84679803D01*
X116870874Y-84067101D01*
X116873934Y-84051718D01*
X117119001Y-83460074D01*
X117474784Y-82927608D01*
X117927608Y-82474784D01*
X118460074Y-82119001D01*
X119051718Y-81873934D01*
X119365761Y-81811467D01*
X119679803Y-81749000D01*
X120320197Y-81749000D01*
X120634239Y-81811467D01*
G37*
G36*
X161696228Y-85300703D02*
G01*
X161851100Y-85364853D01*
X161990481Y-85457985D01*
X162109015Y-85576519D01*
X162202147Y-85715900D01*
X162266297Y-85870772D01*
X162299000Y-86035184D01*
X162299000Y-86202816D01*
X162266297Y-86367228D01*
X162202147Y-86522100D01*
X162109015Y-86661481D01*
X161990481Y-86780015D01*
X161851100Y-86873147D01*
X161696228Y-86937297D01*
X161531816Y-86970000D01*
X161364184Y-86970000D01*
X161199772Y-86937297D01*
X161044900Y-86873147D01*
X160905519Y-86780015D01*
X160786985Y-86661481D01*
X160693853Y-86522100D01*
X160629703Y-86367228D01*
X160597000Y-86202816D01*
X160597000Y-86035184D01*
X160629703Y-85870772D01*
X160693853Y-85715900D01*
X160786985Y-85576519D01*
X160905519Y-85457985D01*
X161044900Y-85364853D01*
X161199772Y-85300703D01*
X161364184Y-85268000D01*
X161531816Y-85268000D01*
X161696228Y-85300703D01*
G37*
G36*
X172466228Y-85300703D02*
G01*
X172621100Y-85364853D01*
X172760481Y-85457985D01*
X172879015Y-85576519D01*
X172972147Y-85715900D01*
X173036297Y-85870772D01*
X173069000Y-86035184D01*
X173069000Y-86202816D01*
X173036297Y-86367228D01*
X172972147Y-86522100D01*
X172879015Y-86661481D01*
X172760481Y-86780015D01*
X172621100Y-86873147D01*
X172466228Y-86937297D01*
X172301816Y-86970000D01*
X172134184Y-86970000D01*
X171969772Y-86937297D01*
X171814900Y-86873147D01*
X171675519Y-86780015D01*
X171556985Y-86661481D01*
X171463853Y-86522100D01*
X171399703Y-86367228D01*
X171367000Y-86202816D01*
X171367000Y-86035184D01*
X171399703Y-85870772D01*
X171463853Y-85715900D01*
X171556985Y-85576519D01*
X171675519Y-85457985D01*
X171814900Y-85364853D01*
X171969772Y-85300703D01*
X172134184Y-85268000D01*
X172301816Y-85268000D01*
X172466228Y-85300703D01*
G37*
G36*
X133879487Y-83748996D02*
G01*
X134079383Y-83831796D01*
X134116255Y-83847069D01*
X134244742Y-83932921D01*
X134329339Y-83989447D01*
X134510553Y-84170661D01*
X134652932Y-84383747D01*
X134751004Y-84620513D01*
X134801000Y-84871861D01*
X134801000Y-85128139D01*
X134751004Y-85379487D01*
X134718489Y-85457985D01*
X134652931Y-85616255D01*
X134510553Y-85829339D01*
X134329339Y-86010553D01*
X134116255Y-86152931D01*
X134116254Y-86152932D01*
X134116253Y-86152932D01*
X133879487Y-86251004D01*
X133628139Y-86301000D01*
X133371861Y-86301000D01*
X133120513Y-86251004D01*
X132883747Y-86152932D01*
X132883746Y-86152932D01*
X132883745Y-86152931D01*
X132670661Y-86010553D01*
X132489447Y-85829339D01*
X132347069Y-85616255D01*
X132281511Y-85457985D01*
X132248996Y-85379487D01*
X132199000Y-85128139D01*
X132199000Y-84871861D01*
X132248996Y-84620513D01*
X132347068Y-84383747D01*
X132489447Y-84170661D01*
X132670661Y-83989447D01*
X132755258Y-83932921D01*
X132883745Y-83847069D01*
X132920617Y-83831796D01*
X133120513Y-83748996D01*
X133371861Y-83699000D01*
X133628139Y-83699000D01*
X133879487Y-83748996D01*
G37*
G36*
X151879487Y-83748996D02*
G01*
X152079383Y-83831796D01*
X152116255Y-83847069D01*
X152244742Y-83932921D01*
X152329339Y-83989447D01*
X152510553Y-84170661D01*
X152652932Y-84383747D01*
X152751004Y-84620513D01*
X152801000Y-84871861D01*
X152801000Y-85128139D01*
X152751004Y-85379487D01*
X152718489Y-85457985D01*
X152652931Y-85616255D01*
X152510553Y-85829339D01*
X152329339Y-86010553D01*
X152116255Y-86152931D01*
X152116254Y-86152932D01*
X152116253Y-86152932D01*
X151879487Y-86251004D01*
X151628139Y-86301000D01*
X151371861Y-86301000D01*
X151120513Y-86251004D01*
X150883747Y-86152932D01*
X150883746Y-86152932D01*
X150883745Y-86152931D01*
X150670661Y-86010553D01*
X150489447Y-85829339D01*
X150347069Y-85616255D01*
X150281511Y-85457985D01*
X150248996Y-85379487D01*
X150199000Y-85128139D01*
X150199000Y-84871861D01*
X150248996Y-84620513D01*
X150347068Y-84383747D01*
X150489447Y-84170661D01*
X150670661Y-83989447D01*
X150755258Y-83932921D01*
X150883745Y-83847069D01*
X150920617Y-83831796D01*
X151120513Y-83748996D01*
X151371861Y-83699000D01*
X151628139Y-83699000D01*
X151879487Y-83748996D01*
G37*
G36*
X161109766Y-82670899D02*
G01*
X161241888Y-82725626D01*
X161241890Y-82725627D01*
X161360798Y-82805079D01*
X161461921Y-82906202D01*
X161541373Y-83025110D01*
X161541374Y-83025112D01*
X161596101Y-83157234D01*
X161624000Y-83297494D01*
X161624000Y-83440506D01*
X161596101Y-83580766D01*
X161541374Y-83712888D01*
X161541373Y-83712890D01*
X161461921Y-83831798D01*
X161360798Y-83932921D01*
X161241890Y-84012373D01*
X161241889Y-84012374D01*
X161241888Y-84012374D01*
X161109766Y-84067101D01*
X160969506Y-84095000D01*
X160826494Y-84095000D01*
X160686234Y-84067101D01*
X160554112Y-84012374D01*
X160554111Y-84012374D01*
X160554110Y-84012373D01*
X160435202Y-83932921D01*
X160334079Y-83831798D01*
X160254627Y-83712890D01*
X160254626Y-83712888D01*
X160199899Y-83580766D01*
X160172000Y-83440506D01*
X160172000Y-83297494D01*
X160199899Y-83157234D01*
X160254626Y-83025112D01*
X160254627Y-83025110D01*
X160334079Y-82906202D01*
X160435202Y-82805079D01*
X160554110Y-82725627D01*
X160554112Y-82725626D01*
X160686234Y-82670899D01*
X160826494Y-82643000D01*
X160969506Y-82643000D01*
X161109766Y-82670899D01*
G37*
G36*
X172979766Y-82670899D02*
G01*
X173111888Y-82725626D01*
X173111890Y-82725627D01*
X173230798Y-82805079D01*
X173331921Y-82906202D01*
X173411373Y-83025110D01*
X173411374Y-83025112D01*
X173466101Y-83157234D01*
X173494000Y-83297494D01*
X173494000Y-83440506D01*
X173466101Y-83580766D01*
X173411374Y-83712888D01*
X173411373Y-83712890D01*
X173331921Y-83831798D01*
X173230798Y-83932921D01*
X173111890Y-84012373D01*
X173111889Y-84012374D01*
X173111888Y-84012374D01*
X172979766Y-84067101D01*
X172839506Y-84095000D01*
X172696494Y-84095000D01*
X172556234Y-84067101D01*
X172424112Y-84012374D01*
X172424111Y-84012374D01*
X172424110Y-84012373D01*
X172305202Y-83932921D01*
X172204079Y-83831798D01*
X172124627Y-83712890D01*
X172124626Y-83712888D01*
X172069899Y-83580766D01*
X172042000Y-83440506D01*
X172042000Y-83297494D01*
X172069899Y-83157234D01*
X172124626Y-83025112D01*
X172124627Y-83025110D01*
X172204079Y-82906202D01*
X172305202Y-82805079D01*
X172424110Y-82725627D01*
X172424112Y-82725626D01*
X172556234Y-82670899D01*
X172696494Y-82643000D01*
X172839506Y-82643000D01*
X172979766Y-82670899D01*
G37*
G36*
X170459000Y-83970000D02*
G01*
X169557000Y-83970000D01*
X169557000Y-82768000D01*
X170459000Y-82768000D01*
X170459000Y-83970000D01*
G37*
G36*
X169189000Y-83970000D02*
G01*
X168287000Y-83970000D01*
X168287000Y-82768000D01*
X169189000Y-82768000D01*
X169189000Y-83970000D01*
G37*
G36*
X167919000Y-83970000D02*
G01*
X167017000Y-83970000D01*
X167017000Y-82768000D01*
X167919000Y-82768000D01*
X167919000Y-83970000D01*
G37*
G36*
X166649000Y-83970000D02*
G01*
X165747000Y-83970000D01*
X165747000Y-82768000D01*
X166649000Y-82768000D01*
X166649000Y-83970000D01*
G37*
G36*
X165379000Y-83970000D02*
G01*
X164477000Y-83970000D01*
X164477000Y-82768000D01*
X165379000Y-82768000D01*
X165379000Y-83970000D01*
G37*
G36*
X164109000Y-83970000D02*
G01*
X163207000Y-83970000D01*
X163207000Y-82768000D01*
X164109000Y-82768000D01*
X164109000Y-83970000D01*
G37*
M02*
