G04 #@! TF.GenerationSoftware,KiCad,Pcbnew,(5.1.9-0-10_14)*
G04 #@! TF.CreationDate,2021-05-06T17:31:37-07:00*
G04 #@! TF.ProjectId,Luminometer_ADC,4c756d69-6e6f-46d6-9574-65725f414443,rev?*
G04 #@! TF.SameCoordinates,Original*
G04 #@! TF.FileFunction,Copper,L4,Bot*
G04 #@! TF.FilePolarity,Positive*
%FSLAX46Y46*%
G04 Gerber Fmt 4.6, Leading zero omitted, Abs format (unit mm)*
G04 Created by KiCad (PCBNEW (5.1.9-0-10_14)) date 2021-05-06 17:31:37*
%MOMM*%
%LPD*%
G01*
G04 APERTURE LIST*
G04 #@! TA.AperFunction,ComponentPad*
%ADD10C,1.350000*%
G04 #@! TD*
G04 #@! TA.AperFunction,ComponentPad*
%ADD11C,5.000000*%
G04 #@! TD*
G04 #@! TA.AperFunction,ComponentPad*
%ADD12C,4.500000*%
G04 #@! TD*
G04 #@! TA.AperFunction,ComponentPad*
%ADD13C,3.800000*%
G04 #@! TD*
G04 #@! TA.AperFunction,SMDPad,CuDef*
%ADD14R,1.000000X1.000000*%
G04 #@! TD*
G04 #@! TA.AperFunction,SMDPad,CuDef*
%ADD15C,1.500000*%
G04 #@! TD*
G04 #@! TA.AperFunction,ViaPad*
%ADD16C,0.800000*%
G04 #@! TD*
G04 #@! TA.AperFunction,Conductor*
%ADD17C,0.250000*%
G04 #@! TD*
G04 #@! TA.AperFunction,Conductor*
%ADD18C,0.500000*%
G04 #@! TD*
G04 APERTURE END LIST*
D10*
X162065000Y-88750000D03*
X173935000Y-88750000D03*
X173935000Y-83250000D03*
X162065000Y-83250000D03*
G04 #@! TA.AperFunction,SMDPad,CuDef*
G36*
G01*
X138111091Y-110934136D02*
X138676777Y-110368450D01*
G75*
G02*
X138888909Y-110368450I106066J-106066D01*
G01*
X139101041Y-110580582D01*
G75*
G02*
X139101041Y-110792714I-106066J-106066D01*
G01*
X138535355Y-111358400D01*
G75*
G02*
X138323223Y-111358400I-106066J106066D01*
G01*
X138111091Y-111146268D01*
G75*
G02*
X138111091Y-110934136I106066J106066D01*
G01*
G37*
G04 #@! TD.AperFunction*
G04 #@! TA.AperFunction,SMDPad,CuDef*
G36*
G01*
X142565864Y-114611091D02*
X143131550Y-115176777D01*
G75*
G02*
X143131550Y-115388909I-106066J-106066D01*
G01*
X142919418Y-115601041D01*
G75*
G02*
X142707286Y-115601041I-106066J106066D01*
G01*
X142141600Y-115035355D01*
G75*
G02*
X142141600Y-114823223I106066J106066D01*
G01*
X142353732Y-114611091D01*
G75*
G02*
X142565864Y-114611091I106066J-106066D01*
G01*
G37*
G04 #@! TD.AperFunction*
G04 #@! TA.AperFunction,SMDPad,CuDef*
G36*
G01*
X137898959Y-119207286D02*
X138464645Y-118641600D01*
G75*
G02*
X138676777Y-118641600I106066J-106066D01*
G01*
X138888909Y-118853732D01*
G75*
G02*
X138888909Y-119065864I-106066J-106066D01*
G01*
X138323223Y-119631550D01*
G75*
G02*
X138111091Y-119631550I-106066J106066D01*
G01*
X137898959Y-119419418D01*
G75*
G02*
X137898959Y-119207286I106066J106066D01*
G01*
G37*
G04 #@! TD.AperFunction*
G04 #@! TA.AperFunction,SMDPad,CuDef*
G36*
G01*
X134292714Y-114398959D02*
X134858400Y-114964645D01*
G75*
G02*
X134858400Y-115176777I-106066J-106066D01*
G01*
X134646268Y-115388909D01*
G75*
G02*
X134434136Y-115388909I-106066J106066D01*
G01*
X133868450Y-114823223D01*
G75*
G02*
X133868450Y-114611091I106066J106066D01*
G01*
X134080582Y-114398959D01*
G75*
G02*
X134292714Y-114398959I106066J-106066D01*
G01*
G37*
G04 #@! TD.AperFunction*
G04 #@! TA.AperFunction,SMDPad,CuDef*
G36*
G01*
X156111091Y-110934136D02*
X156676777Y-110368450D01*
G75*
G02*
X156888909Y-110368450I106066J-106066D01*
G01*
X157101041Y-110580582D01*
G75*
G02*
X157101041Y-110792714I-106066J-106066D01*
G01*
X156535355Y-111358400D01*
G75*
G02*
X156323223Y-111358400I-106066J106066D01*
G01*
X156111091Y-111146268D01*
G75*
G02*
X156111091Y-110934136I106066J106066D01*
G01*
G37*
G04 #@! TD.AperFunction*
G04 #@! TA.AperFunction,SMDPad,CuDef*
G36*
G01*
X160565864Y-114611091D02*
X161131550Y-115176777D01*
G75*
G02*
X161131550Y-115388909I-106066J-106066D01*
G01*
X160919418Y-115601041D01*
G75*
G02*
X160707286Y-115601041I-106066J106066D01*
G01*
X160141600Y-115035355D01*
G75*
G02*
X160141600Y-114823223I106066J106066D01*
G01*
X160353732Y-114611091D01*
G75*
G02*
X160565864Y-114611091I106066J-106066D01*
G01*
G37*
G04 #@! TD.AperFunction*
G04 #@! TA.AperFunction,SMDPad,CuDef*
G36*
G01*
X155898959Y-119207286D02*
X156464645Y-118641600D01*
G75*
G02*
X156676777Y-118641600I106066J-106066D01*
G01*
X156888909Y-118853732D01*
G75*
G02*
X156888909Y-119065864I-106066J-106066D01*
G01*
X156323223Y-119631550D01*
G75*
G02*
X156111091Y-119631550I-106066J106066D01*
G01*
X155898959Y-119419418D01*
G75*
G02*
X155898959Y-119207286I106066J106066D01*
G01*
G37*
G04 #@! TD.AperFunction*
G04 #@! TA.AperFunction,SMDPad,CuDef*
G36*
G01*
X152292714Y-114398959D02*
X152858400Y-114964645D01*
G75*
G02*
X152858400Y-115176777I-106066J-106066D01*
G01*
X152646268Y-115388909D01*
G75*
G02*
X152434136Y-115388909I-106066J106066D01*
G01*
X151868450Y-114823223D01*
G75*
G02*
X151868450Y-114611091I106066J106066D01*
G01*
X152080582Y-114398959D01*
G75*
G02*
X152292714Y-114398959I106066J-106066D01*
G01*
G37*
G04 #@! TD.AperFunction*
D11*
X147500000Y-115000000D03*
X176500000Y-126500000D03*
D12*
X138500000Y-93000000D03*
D13*
X151500000Y-88000000D03*
D11*
X118500000Y-126500000D03*
D12*
X156500000Y-93000000D03*
D13*
X143500000Y-88000000D03*
D11*
X118500000Y-83500000D03*
D14*
X156500000Y-103200000D03*
X153700000Y-98300000D03*
X156600000Y-98300000D03*
X153750000Y-103250000D03*
D15*
X137500000Y-124250000D03*
X147750000Y-119737000D03*
D16*
X163450000Y-121900000D03*
X173300000Y-110200000D03*
X169628000Y-99128000D03*
X173563000Y-116834000D03*
X176359000Y-96334000D03*
X155278000Y-121177000D03*
X141562000Y-122447000D03*
X149182000Y-127273000D03*
X123700000Y-97850000D03*
X140300000Y-104600000D03*
X151296000Y-103497000D03*
X167723000Y-98239000D03*
X133750000Y-114000000D03*
X151500000Y-114000000D03*
X162800000Y-127650000D03*
X119950000Y-98750000D03*
X157250000Y-124250000D03*
X158750000Y-121500000D03*
X165500000Y-84750000D03*
X166750000Y-84750000D03*
X121000000Y-98750000D03*
X122100000Y-98750000D03*
X118800000Y-97950000D03*
X168000000Y-84750000D03*
X164500000Y-113250000D03*
X169750000Y-114500000D03*
X119700000Y-100150000D03*
X137210000Y-103060000D03*
X119050000Y-93450000D03*
X178770000Y-112135000D03*
X171250000Y-82038000D03*
X175000000Y-97750000D03*
X178250000Y-114750000D03*
X176359000Y-94556000D03*
X170156000Y-85721000D03*
X160992000Y-96461000D03*
X150000000Y-98250000D03*
X154250000Y-100250000D03*
X154000000Y-106500000D03*
X151750000Y-106500000D03*
X160500000Y-118250000D03*
X145500000Y-119750000D03*
X173000000Y-108750000D03*
X169350000Y-97850000D03*
X147486000Y-103497000D03*
X160750000Y-122650000D03*
X155300000Y-122350000D03*
X163750000Y-110750000D03*
X150071000Y-123717000D03*
X122450000Y-105100000D03*
X171500000Y-115500000D03*
X141898000Y-106037000D03*
X142406000Y-100957000D03*
X161500000Y-110500000D03*
X161850000Y-119950000D03*
X146250000Y-104750000D03*
D17*
X152500000Y-114944359D02*
X152558425Y-114885934D01*
X134558425Y-114808425D02*
X133750000Y-114000000D01*
X134558425Y-114885934D02*
X134558425Y-114808425D01*
X152385934Y-114885934D02*
X151500000Y-114000000D01*
X152558425Y-114885934D02*
X152385934Y-114885934D01*
X139759000Y-124250000D02*
X141562000Y-122447000D01*
X137500000Y-124250000D02*
X139759000Y-124250000D01*
X150050000Y-98300000D02*
X150000000Y-98250000D01*
X153700000Y-98300000D02*
X150050000Y-98300000D01*
X156200000Y-98300000D02*
X156600000Y-98300000D01*
X154250000Y-100250000D02*
X156200000Y-98300000D01*
X156500000Y-104000000D02*
X156500000Y-103500000D01*
X154000000Y-106500000D02*
X156500000Y-104000000D01*
X153750000Y-104500000D02*
X151750000Y-106500000D01*
X153750000Y-103250000D02*
X153750000Y-104500000D01*
D18*
X138994359Y-119737000D02*
X138393934Y-119136575D01*
X147750000Y-119737000D02*
X138994359Y-119737000D01*
X156588934Y-119552839D02*
X156588934Y-119128575D01*
X156404773Y-119737000D02*
X156588934Y-119552839D01*
X147750000Y-119737000D02*
X156404773Y-119737000D01*
D17*
X159613425Y-119136575D02*
X160500000Y-118250000D01*
X156393934Y-119136575D02*
X159613425Y-119136575D01*
X141898000Y-106037000D02*
X143037000Y-106037000D01*
X147863425Y-110863425D02*
X156606066Y-110863425D01*
X143037000Y-106037000D02*
X147863425Y-110863425D01*
X138801066Y-110431161D02*
X138801066Y-110855425D01*
X138606066Y-110863425D02*
X138702001Y-110767490D01*
X138606066Y-104756934D02*
X138606066Y-110863425D01*
X142406000Y-100957000D02*
X138606066Y-104756934D01*
M02*
