G04 #@! TF.GenerationSoftware,KiCad,Pcbnew,(5.1.5-0)*
G04 #@! TF.CreationDate,2020-09-22T17:23:07-07:00*
G04 #@! TF.ProjectId,Luminometer_ADC,4c756d69-6e6f-46d6-9574-65725f414443,rev?*
G04 #@! TF.SameCoordinates,Original*
G04 #@! TF.FileFunction,Copper,L2,Inr*
G04 #@! TF.FilePolarity,Positive*
%FSLAX46Y46*%
G04 Gerber Fmt 4.6, Leading zero omitted, Abs format (unit mm)*
G04 Created by KiCad (PCBNEW (5.1.5-0)) date 2020-09-22 17:23:07*
%MOMM*%
%LPD*%
G04 APERTURE LIST*
%ADD10C,6.400000*%
%ADD11C,1.350000*%
%ADD12C,0.800000*%
%ADD13C,2.200000*%
%ADD14C,1.000000*%
%ADD15C,0.500000*%
G04 APERTURE END LIST*
D10*
X175000000Y-125000000D03*
X120000000Y-125000000D03*
D11*
X160898000Y-88869000D03*
X172768000Y-88869000D03*
X172768000Y-83369000D03*
X160898000Y-83369000D03*
D10*
X120000000Y-85000000D03*
D12*
X170180000Y-111760000D03*
X166243000Y-120015000D03*
X134239000Y-95631000D03*
X143383000Y-95631000D03*
X172085000Y-106680000D03*
X136525000Y-101854000D03*
X170053000Y-81788000D03*
X166878000Y-103378000D03*
D13*
X165354000Y-85979000D03*
D12*
X126619000Y-104267000D03*
X173609000Y-98806000D03*
X168656000Y-85471000D03*
X176784000Y-111887000D03*
X173609000Y-100584000D03*
X167767000Y-117094000D03*
X163322000Y-112268000D03*
X137160000Y-100330000D03*
X158242000Y-100711000D03*
X152908000Y-121158000D03*
X138176000Y-123825000D03*
X153543000Y-126619000D03*
X143383000Y-121285000D03*
X129667000Y-122555000D03*
X137287000Y-127381000D03*
X132969000Y-118872000D03*
X161925000Y-125730000D03*
X156718000Y-124333000D03*
X155829000Y-115951000D03*
X138176000Y-101854000D03*
X138303000Y-116459000D03*
X132588000Y-104394000D03*
X130810000Y-102743000D03*
X141986000Y-101854000D03*
X133096000Y-99314000D03*
X164973000Y-102489000D03*
D14*
X156337000Y-81788000D02*
X170053000Y-81788000D01*
X172484999Y-106280001D02*
X172085000Y-106680000D01*
X174809009Y-103955991D02*
X172484999Y-106280001D01*
X173222002Y-81788000D02*
X174809009Y-83375007D01*
X174809009Y-83375007D02*
X174809009Y-103955991D01*
X170053000Y-81788000D02*
X173222002Y-81788000D01*
D15*
X136125001Y-101454001D02*
X136525000Y-101854000D01*
D14*
X166243000Y-112522000D02*
X166243000Y-120015000D01*
X172085000Y-106680000D02*
X166243000Y-112522000D01*
X156337000Y-81788000D02*
X153035000Y-81788000D01*
X153035000Y-81788000D02*
X136779000Y-98044000D01*
D15*
X136779000Y-98044000D02*
X136144000Y-98679000D01*
X136144000Y-98679000D02*
X136144000Y-100584000D01*
X136144000Y-100584000D02*
X136125001Y-101454001D01*
X136125001Y-100106997D02*
X136144000Y-100584000D01*
D14*
X168656000Y-93853000D02*
X173609000Y-98806000D01*
X168656000Y-85471000D02*
X168656000Y-93853000D01*
X165100000Y-93853000D02*
X158242000Y-100711000D01*
X168656000Y-93853000D02*
X165100000Y-93853000D01*
D15*
X137910002Y-100330000D02*
X137725685Y-100330000D01*
D14*
X138833998Y-100330000D02*
X137725685Y-100330000D01*
X137725685Y-100330000D02*
X137160000Y-100330000D01*
X150771998Y-112268000D02*
X138833998Y-100330000D01*
X163322000Y-112268000D02*
X150771998Y-112268000D01*
D15*
X138303000Y-101981000D02*
X138176000Y-101854000D01*
D14*
X138303000Y-115893315D02*
X138176000Y-115766315D01*
X138176000Y-101939514D02*
X138133243Y-101896757D01*
X138176000Y-115766315D02*
X138176000Y-101939514D01*
X138303000Y-116459000D02*
X138303000Y-115893315D01*
D15*
X138176000Y-125984000D02*
X138176000Y-123825000D01*
X138811000Y-126619000D02*
X138176000Y-125984000D01*
X153543000Y-126619000D02*
X138811000Y-126619000D01*
M02*
