G04 #@! TF.GenerationSoftware,KiCad,Pcbnew,(5.1.5-0)*
G04 #@! TF.CreationDate,2020-09-22T17:23:07-07:00*
G04 #@! TF.ProjectId,Luminometer_ADC,4c756d69-6e6f-46d6-9574-65725f414443,rev?*
G04 #@! TF.SameCoordinates,Original*
G04 #@! TF.FileFunction,Legend,Top*
G04 #@! TF.FilePolarity,Positive*
%FSLAX46Y46*%
G04 Gerber Fmt 4.6, Leading zero omitted, Abs format (unit mm)*
G04 Created by KiCad (PCBNEW (5.1.5-0)) date 2020-09-22 17:23:07*
%MOMM*%
%LPD*%
G04 APERTURE LIST*
%ADD10C,0.300000*%
%ADD11C,0.120000*%
%ADD12C,0.150000*%
%ADD13C,0.100000*%
G04 APERTURE END LIST*
D10*
X190865238Y-99671666D02*
X190865238Y-98719285D01*
X189912857Y-98624047D01*
X190008095Y-98719285D01*
X190103333Y-98909761D01*
X190103333Y-99385952D01*
X190008095Y-99576428D01*
X189912857Y-99671666D01*
X189722380Y-99766904D01*
X189246190Y-99766904D01*
X189055714Y-99671666D01*
X188960476Y-99576428D01*
X188865238Y-99385952D01*
X188865238Y-98909761D01*
X188960476Y-98719285D01*
X189055714Y-98624047D01*
X190865238Y-101005000D02*
X190865238Y-101195476D01*
X190770000Y-101385952D01*
X190674761Y-101481190D01*
X190484285Y-101576428D01*
X190103333Y-101671666D01*
X189627142Y-101671666D01*
X189246190Y-101576428D01*
X189055714Y-101481190D01*
X188960476Y-101385952D01*
X188865238Y-101195476D01*
X188865238Y-101005000D01*
X188960476Y-100814523D01*
X189055714Y-100719285D01*
X189246190Y-100624047D01*
X189627142Y-100528809D01*
X190103333Y-100528809D01*
X190484285Y-100624047D01*
X190674761Y-100719285D01*
X190770000Y-100814523D01*
X190865238Y-101005000D01*
X189055714Y-102528809D02*
X188960476Y-102624047D01*
X188865238Y-102528809D01*
X188960476Y-102433571D01*
X189055714Y-102528809D01*
X188865238Y-102528809D01*
X190865238Y-103862142D02*
X190865238Y-104052619D01*
X190770000Y-104243095D01*
X190674761Y-104338333D01*
X190484285Y-104433571D01*
X190103333Y-104528809D01*
X189627142Y-104528809D01*
X189246190Y-104433571D01*
X189055714Y-104338333D01*
X188960476Y-104243095D01*
X188865238Y-104052619D01*
X188865238Y-103862142D01*
X188960476Y-103671666D01*
X189055714Y-103576428D01*
X189246190Y-103481190D01*
X189627142Y-103385952D01*
X190103333Y-103385952D01*
X190484285Y-103481190D01*
X190674761Y-103576428D01*
X190770000Y-103671666D01*
X190865238Y-103862142D01*
X188865238Y-106909761D02*
X190198571Y-106909761D01*
X190008095Y-106909761D02*
X190103333Y-107005000D01*
X190198571Y-107195476D01*
X190198571Y-107481190D01*
X190103333Y-107671666D01*
X189912857Y-107766904D01*
X188865238Y-107766904D01*
X189912857Y-107766904D02*
X190103333Y-107862142D01*
X190198571Y-108052619D01*
X190198571Y-108338333D01*
X190103333Y-108528809D01*
X189912857Y-108624047D01*
X188865238Y-108624047D01*
X188865238Y-109576428D02*
X190198571Y-109576428D01*
X190008095Y-109576428D02*
X190103333Y-109671666D01*
X190198571Y-109862142D01*
X190198571Y-110147857D01*
X190103333Y-110338333D01*
X189912857Y-110433571D01*
X188865238Y-110433571D01*
X189912857Y-110433571D02*
X190103333Y-110528809D01*
X190198571Y-110719285D01*
X190198571Y-111005000D01*
X190103333Y-111195476D01*
X189912857Y-111290714D01*
X188865238Y-111290714D01*
D11*
X188500000Y-80010000D02*
X188500000Y-130000000D01*
X180000000Y-80010000D02*
X189086421Y-80010000D01*
X180000000Y-130000000D02*
X189086421Y-130000000D01*
X188500000Y-130000000D02*
X187913579Y-128873496D01*
X188500000Y-130000000D02*
X189086421Y-128873496D01*
X188500000Y-80010000D02*
X187913579Y-81136504D01*
X188500000Y-80010000D02*
X189086421Y-81136504D01*
D12*
X144821044Y-134802617D02*
X144630572Y-134803947D01*
X144535669Y-134852229D01*
X144488384Y-134900180D01*
X144394145Y-135043698D01*
X144347857Y-135234502D01*
X144350516Y-135615445D01*
X144398799Y-135710349D01*
X144446750Y-135757634D01*
X144542318Y-135804587D01*
X144732789Y-135803257D01*
X144827693Y-135754975D01*
X144874978Y-135707024D01*
X144921931Y-135611456D01*
X144920269Y-135373367D01*
X144871986Y-135278463D01*
X144824036Y-135231178D01*
X144728468Y-135184225D01*
X144537996Y-135185555D01*
X144443093Y-135233837D01*
X144395807Y-135281788D01*
X144348854Y-135377356D01*
X145821019Y-134795636D02*
X145344841Y-134798960D01*
X145300547Y-135275471D01*
X145347833Y-135227521D01*
X145442736Y-135179238D01*
X145680825Y-135177576D01*
X145776394Y-135224529D01*
X145824344Y-135271815D01*
X145872627Y-135366718D01*
X145874289Y-135604807D01*
X145827336Y-135700376D01*
X145780050Y-135748326D01*
X145685147Y-135796609D01*
X145447058Y-135798271D01*
X145351489Y-135751318D01*
X145303539Y-135704032D01*
X146303515Y-135697051D02*
X146351465Y-135744337D01*
X146304180Y-135792287D01*
X146256229Y-135745001D01*
X146303515Y-135697051D01*
X146304180Y-135792287D01*
X146963849Y-134787657D02*
X147059085Y-134786992D01*
X147154653Y-134833945D01*
X147202603Y-134881231D01*
X147250886Y-134976134D01*
X147299834Y-135166273D01*
X147301496Y-135404363D01*
X147255208Y-135595167D01*
X147208255Y-135690735D01*
X147160969Y-135738685D01*
X147066066Y-135786968D01*
X146970830Y-135787633D01*
X146875262Y-135740680D01*
X146827311Y-135693394D01*
X146779029Y-135598491D01*
X146730081Y-135408352D01*
X146728419Y-135170262D01*
X146774707Y-134979458D01*
X146821660Y-134883890D01*
X146868945Y-134835940D01*
X146963849Y-134787657D01*
X148494602Y-135776995D02*
X148489948Y-135110344D01*
X148490613Y-135205580D02*
X148537899Y-135157630D01*
X148632802Y-135109347D01*
X148775656Y-135108350D01*
X148871224Y-135155303D01*
X148919507Y-135250206D01*
X148923163Y-135774003D01*
X148919507Y-135250206D02*
X148966460Y-135154638D01*
X149061363Y-135106355D01*
X149204217Y-135105358D01*
X149299785Y-135152311D01*
X149348068Y-135247214D01*
X149351724Y-135771011D01*
X149827903Y-135767686D02*
X149823249Y-135101036D01*
X149823914Y-135196272D02*
X149871199Y-135148321D01*
X149966103Y-135100039D01*
X150108956Y-135099041D01*
X150204525Y-135145994D01*
X150252807Y-135240898D01*
X150256464Y-135764694D01*
X150252807Y-135240898D02*
X150299760Y-135145329D01*
X150394664Y-135097047D01*
X150537517Y-135096049D01*
X150633086Y-135143002D01*
X150681368Y-135237906D01*
X150685025Y-135761702D01*
D11*
X115029318Y-134311312D02*
X180029318Y-133811312D01*
X115000000Y-130500000D02*
X115033829Y-134897716D01*
X180000000Y-130000000D02*
X180033829Y-134397716D01*
X180029318Y-133811312D02*
X178907358Y-134406381D01*
X180029318Y-133811312D02*
X178898337Y-133233574D01*
X115029318Y-134311312D02*
X116160299Y-134889050D01*
X115029318Y-134311312D02*
X116151278Y-133716243D01*
X160776000Y-101081279D02*
X160776000Y-100755721D01*
X159756000Y-101081279D02*
X159756000Y-100755721D01*
X167513000Y-93119000D02*
G75*
G03X167513000Y-93119000I-950000J0D01*
G01*
X131891721Y-123065000D02*
X132217279Y-123065000D01*
X131891721Y-122045000D02*
X132217279Y-122045000D01*
X156382721Y-126129000D02*
X156708279Y-126129000D01*
X156382721Y-125109000D02*
X156708279Y-125109000D01*
X134838221Y-127891000D02*
X135163779Y-127891000D01*
X134838221Y-126871000D02*
X135163779Y-126871000D01*
X133352000Y-125283279D02*
X133352000Y-124957721D01*
X132332000Y-125283279D02*
X132332000Y-124957721D01*
X160882721Y-120629000D02*
X161208279Y-120629000D01*
X160882721Y-119609000D02*
X161208279Y-119609000D01*
X170838279Y-113199000D02*
X170512721Y-113199000D01*
X170838279Y-114219000D02*
X170512721Y-114219000D01*
X155208279Y-122609000D02*
X154882721Y-122609000D01*
X155208279Y-123629000D02*
X154882721Y-123629000D01*
X155208279Y-120609000D02*
X154882721Y-120609000D01*
X155208279Y-121629000D02*
X154882721Y-121629000D01*
X159670221Y-126129000D02*
X159995779Y-126129000D01*
X159670221Y-125109000D02*
X159995779Y-125109000D01*
X167143000Y-114540721D02*
X167143000Y-114866279D01*
X168163000Y-114540721D02*
X168163000Y-114866279D01*
X160908000Y-115517721D02*
X160908000Y-115843279D01*
X161928000Y-115517721D02*
X161928000Y-115843279D01*
X165433000Y-122169000D02*
X165433000Y-123969000D01*
X162233000Y-122169000D02*
X162233000Y-123969000D01*
D13*
X135106000Y-97603000D02*
X134206000Y-97603000D01*
X135106000Y-97203000D02*
X135106000Y-97603000D01*
X135706000Y-97203000D02*
X135106000Y-97203000D01*
X139706000Y-97203000D02*
X139306000Y-97203000D01*
X139706000Y-97603000D02*
X139706000Y-97203000D01*
X139806000Y-106603000D02*
X139306000Y-106603000D01*
X139806000Y-106203000D02*
X139806000Y-106603000D01*
X135106000Y-106503000D02*
X135506000Y-106503000D01*
X135106000Y-106203000D02*
X135106000Y-106503000D01*
D11*
X131824000Y-101919721D02*
X131824000Y-102245279D01*
X132844000Y-101919721D02*
X132844000Y-102245279D01*
X129476000Y-98767279D02*
X129476000Y-98441721D01*
X128456000Y-98767279D02*
X128456000Y-98441721D01*
X165513000Y-95119000D02*
G75*
G03X165513000Y-95119000I-950000J0D01*
G01*
X169513000Y-95119000D02*
G75*
G03X169513000Y-95119000I-950000J0D01*
G01*
X163013000Y-93119000D02*
G75*
G03X163013000Y-93119000I-950000J0D01*
G01*
X172013000Y-93119000D02*
G75*
G03X172013000Y-93119000I-950000J0D01*
G01*
X159928000Y-121089000D02*
X157478000Y-121089000D01*
X158128000Y-124309000D02*
X159928000Y-124309000D01*
X163988000Y-113233000D02*
X165448000Y-113233000D01*
X163988000Y-116393000D02*
X166148000Y-116393000D01*
X163988000Y-116393000D02*
X163988000Y-115463000D01*
X163988000Y-113233000D02*
X163988000Y-114163000D01*
X157828000Y-114349000D02*
X159288000Y-114349000D01*
X157828000Y-117509000D02*
X159988000Y-117509000D01*
X157828000Y-117509000D02*
X157828000Y-116579000D01*
X157828000Y-114349000D02*
X157828000Y-115279000D01*
X174374000Y-108054000D02*
X171924000Y-108054000D01*
X172574000Y-111274000D02*
X174374000Y-111274000D01*
X163313000Y-105789000D02*
X163313000Y-107104000D01*
X162863000Y-105789000D02*
X163313000Y-105789000D01*
X162863000Y-105339000D02*
X162863000Y-105789000D01*
X162863000Y-100569000D02*
X163313000Y-100569000D01*
X162863000Y-101019000D02*
X162863000Y-100569000D01*
X168083000Y-105789000D02*
X167633000Y-105789000D01*
X168083000Y-105339000D02*
X168083000Y-105789000D01*
X168083000Y-100569000D02*
X167633000Y-100569000D01*
X168083000Y-101019000D02*
X168083000Y-100569000D01*
X131476000Y-98767279D02*
X131476000Y-98441721D01*
X130456000Y-98767279D02*
X130456000Y-98441721D01*
X130456000Y-104925721D02*
X130456000Y-105251279D01*
X131476000Y-104925721D02*
X131476000Y-105251279D01*
X137395721Y-96190000D02*
X137721279Y-96190000D01*
X137395721Y-95170000D02*
X137721279Y-95170000D01*
X137360721Y-108902000D02*
X137686279Y-108902000D01*
X137360721Y-107882000D02*
X137686279Y-107882000D01*
X143996000Y-98767279D02*
X143996000Y-98441721D01*
X142976000Y-98767279D02*
X142976000Y-98441721D01*
X154696279Y-102995000D02*
X154370721Y-102995000D01*
X154696279Y-104015000D02*
X154370721Y-104015000D01*
X154696279Y-100963000D02*
X154370721Y-100963000D01*
X154696279Y-101983000D02*
X154370721Y-101983000D01*
X154688279Y-105209000D02*
X154362721Y-105209000D01*
X154688279Y-106229000D02*
X154362721Y-106229000D01*
X138389000Y-125749000D02*
X141839000Y-125749000D01*
X138389000Y-125749000D02*
X136439000Y-125749000D01*
X138389000Y-120629000D02*
X140339000Y-120629000D01*
X138389000Y-120629000D02*
X136439000Y-120629000D01*
X154688279Y-107749000D02*
X154362721Y-107749000D01*
X154688279Y-108769000D02*
X154362721Y-108769000D01*
X171638279Y-98359000D02*
X171312721Y-98359000D01*
X171638279Y-99379000D02*
X171312721Y-99379000D01*
X150283000Y-100619000D02*
G75*
G03X150283000Y-100619000I-950000J0D01*
G01*
X150283000Y-103619000D02*
G75*
G03X150283000Y-103619000I-950000J0D01*
G01*
X150283000Y-97619000D02*
G75*
G03X150283000Y-97619000I-950000J0D01*
G01*
X150283000Y-106619000D02*
G75*
G03X150283000Y-106619000I-950000J0D01*
G01*
X128456000Y-104925721D02*
X128456000Y-105251279D01*
X129476000Y-104925721D02*
X129476000Y-105251279D01*
X169744000Y-109608721D02*
X169744000Y-109934279D01*
X170764000Y-109608721D02*
X170764000Y-109934279D01*
X176274000Y-109598721D02*
X176274000Y-109924279D01*
X177294000Y-109598721D02*
X177294000Y-109924279D01*
X158363000Y-103569279D02*
X158363000Y-103243721D01*
X157343000Y-103569279D02*
X157343000Y-103243721D01*
X157343000Y-106978721D02*
X157343000Y-107304279D01*
X158363000Y-106978721D02*
X158363000Y-107304279D01*
X170495500Y-103367721D02*
X170495500Y-103693279D01*
X171515500Y-103367721D02*
X171515500Y-103693279D01*
X162422721Y-98609000D02*
X162748279Y-98609000D01*
X162422721Y-97589000D02*
X162748279Y-97589000D01*
X171312721Y-101094000D02*
X171638279Y-101094000D01*
X171312721Y-100074000D02*
X171638279Y-100074000D01*
X140860721Y-108902000D02*
X141186279Y-108902000D01*
X140860721Y-107882000D02*
X141186279Y-107882000D01*
D12*
X159193142Y-101561357D02*
X159240761Y-101608976D01*
X159288380Y-101751833D01*
X159288380Y-101847071D01*
X159240761Y-101989928D01*
X159145523Y-102085166D01*
X159050285Y-102132785D01*
X158859809Y-102180404D01*
X158716952Y-102180404D01*
X158526476Y-102132785D01*
X158431238Y-102085166D01*
X158336000Y-101989928D01*
X158288380Y-101847071D01*
X158288380Y-101751833D01*
X158336000Y-101608976D01*
X158383619Y-101561357D01*
X159288380Y-100608976D02*
X159288380Y-101180404D01*
X159288380Y-100894690D02*
X158288380Y-100894690D01*
X158431238Y-100989928D01*
X158526476Y-101085166D01*
X158574095Y-101180404D01*
X158621714Y-99751833D02*
X159288380Y-99751833D01*
X158240761Y-99989928D02*
X158955047Y-100228023D01*
X158955047Y-99608976D01*
X174238095Y-121252380D02*
X174238095Y-120252380D01*
X174238095Y-120728571D02*
X174809523Y-120728571D01*
X174809523Y-121252380D02*
X174809523Y-120252380D01*
X175190476Y-120252380D02*
X175809523Y-120252380D01*
X175476190Y-120633333D01*
X175619047Y-120633333D01*
X175714285Y-120680952D01*
X175761904Y-120728571D01*
X175809523Y-120823809D01*
X175809523Y-121061904D01*
X175761904Y-121157142D01*
X175714285Y-121204761D01*
X175619047Y-121252380D01*
X175333333Y-121252380D01*
X175238095Y-121204761D01*
X175190476Y-121157142D01*
X119238095Y-121252380D02*
X119238095Y-120252380D01*
X119238095Y-120728571D02*
X119809523Y-120728571D01*
X119809523Y-121252380D02*
X119809523Y-120252380D01*
X120238095Y-120347619D02*
X120285714Y-120300000D01*
X120380952Y-120252380D01*
X120619047Y-120252380D01*
X120714285Y-120300000D01*
X120761904Y-120347619D01*
X120809523Y-120442857D01*
X120809523Y-120538095D01*
X120761904Y-120680952D01*
X120190476Y-121252380D01*
X120809523Y-121252380D01*
X166094904Y-96571380D02*
X166666333Y-96571380D01*
X166380619Y-97571380D02*
X166380619Y-96571380D01*
X166999666Y-97571380D02*
X166999666Y-96571380D01*
X167380619Y-96571380D01*
X167475857Y-96619000D01*
X167523476Y-96666619D01*
X167571095Y-96761857D01*
X167571095Y-96904714D01*
X167523476Y-96999952D01*
X167475857Y-97047571D01*
X167380619Y-97095190D01*
X166999666Y-97095190D01*
X168523476Y-97571380D02*
X167952047Y-97571380D01*
X168237761Y-97571380D02*
X168237761Y-96571380D01*
X168142523Y-96714238D01*
X168047285Y-96809476D01*
X167952047Y-96857095D01*
X169142523Y-96571380D02*
X169237761Y-96571380D01*
X169333000Y-96619000D01*
X169380619Y-96666619D01*
X169428238Y-96761857D01*
X169475857Y-96952333D01*
X169475857Y-97190428D01*
X169428238Y-97380904D01*
X169380619Y-97476142D01*
X169333000Y-97523761D01*
X169237761Y-97571380D01*
X169142523Y-97571380D01*
X169047285Y-97523761D01*
X168999666Y-97476142D01*
X168952047Y-97380904D01*
X168904428Y-97190428D01*
X168904428Y-96952333D01*
X168952047Y-96761857D01*
X168999666Y-96666619D01*
X169047285Y-96619000D01*
X169142523Y-96571380D01*
X158162666Y-85685380D02*
X158162666Y-86399666D01*
X158115047Y-86542523D01*
X158019809Y-86637761D01*
X157876952Y-86685380D01*
X157781714Y-86685380D01*
X159162666Y-86685380D02*
X158591238Y-86685380D01*
X158876952Y-86685380D02*
X158876952Y-85685380D01*
X158781714Y-85828238D01*
X158686476Y-85923476D01*
X158591238Y-85971095D01*
X131887833Y-121482142D02*
X131840214Y-121529761D01*
X131697357Y-121577380D01*
X131602119Y-121577380D01*
X131459261Y-121529761D01*
X131364023Y-121434523D01*
X131316404Y-121339285D01*
X131268785Y-121148809D01*
X131268785Y-121005952D01*
X131316404Y-120815476D01*
X131364023Y-120720238D01*
X131459261Y-120625000D01*
X131602119Y-120577380D01*
X131697357Y-120577380D01*
X131840214Y-120625000D01*
X131887833Y-120672619D01*
X132268785Y-120672619D02*
X132316404Y-120625000D01*
X132411642Y-120577380D01*
X132649738Y-120577380D01*
X132744976Y-120625000D01*
X132792595Y-120672619D01*
X132840214Y-120767857D01*
X132840214Y-120863095D01*
X132792595Y-121005952D01*
X132221166Y-121577380D01*
X132840214Y-121577380D01*
X156378833Y-127476142D02*
X156331214Y-127523761D01*
X156188357Y-127571380D01*
X156093119Y-127571380D01*
X155950261Y-127523761D01*
X155855023Y-127428523D01*
X155807404Y-127333285D01*
X155759785Y-127142809D01*
X155759785Y-126999952D01*
X155807404Y-126809476D01*
X155855023Y-126714238D01*
X155950261Y-126619000D01*
X156093119Y-126571380D01*
X156188357Y-126571380D01*
X156331214Y-126619000D01*
X156378833Y-126666619D01*
X156712166Y-126571380D02*
X157331214Y-126571380D01*
X156997880Y-126952333D01*
X157140738Y-126952333D01*
X157235976Y-126999952D01*
X157283595Y-127047571D01*
X157331214Y-127142809D01*
X157331214Y-127380904D01*
X157283595Y-127476142D01*
X157235976Y-127523761D01*
X157140738Y-127571380D01*
X156855023Y-127571380D01*
X156759785Y-127523761D01*
X156712166Y-127476142D01*
X134834333Y-126403380D02*
X134501000Y-125927190D01*
X134262904Y-126403380D02*
X134262904Y-125403380D01*
X134643857Y-125403380D01*
X134739095Y-125451000D01*
X134786714Y-125498619D01*
X134834333Y-125593857D01*
X134834333Y-125736714D01*
X134786714Y-125831952D01*
X134739095Y-125879571D01*
X134643857Y-125927190D01*
X134262904Y-125927190D01*
X135786714Y-126403380D02*
X135215285Y-126403380D01*
X135501000Y-126403380D02*
X135501000Y-125403380D01*
X135405761Y-125546238D01*
X135310523Y-125641476D01*
X135215285Y-125689095D01*
X131864380Y-125287166D02*
X131388190Y-125620500D01*
X131864380Y-125858595D02*
X130864380Y-125858595D01*
X130864380Y-125477642D01*
X130912000Y-125382404D01*
X130959619Y-125334785D01*
X131054857Y-125287166D01*
X131197714Y-125287166D01*
X131292952Y-125334785D01*
X131340571Y-125382404D01*
X131388190Y-125477642D01*
X131388190Y-125858595D01*
X130959619Y-124906214D02*
X130912000Y-124858595D01*
X130864380Y-124763357D01*
X130864380Y-124525261D01*
X130912000Y-124430023D01*
X130959619Y-124382404D01*
X131054857Y-124334785D01*
X131150095Y-124334785D01*
X131292952Y-124382404D01*
X131864380Y-124953833D01*
X131864380Y-124334785D01*
X160878833Y-119046142D02*
X160831214Y-119093761D01*
X160688357Y-119141380D01*
X160593119Y-119141380D01*
X160450261Y-119093761D01*
X160355023Y-118998523D01*
X160307404Y-118903285D01*
X160259785Y-118712809D01*
X160259785Y-118569952D01*
X160307404Y-118379476D01*
X160355023Y-118284238D01*
X160450261Y-118189000D01*
X160593119Y-118141380D01*
X160688357Y-118141380D01*
X160831214Y-118189000D01*
X160878833Y-118236619D01*
X161831214Y-119141380D02*
X161259785Y-119141380D01*
X161545500Y-119141380D02*
X161545500Y-118141380D01*
X161450261Y-118284238D01*
X161355023Y-118379476D01*
X161259785Y-118427095D01*
X170508833Y-115591380D02*
X170175500Y-115115190D01*
X169937404Y-115591380D02*
X169937404Y-114591380D01*
X170318357Y-114591380D01*
X170413595Y-114639000D01*
X170461214Y-114686619D01*
X170508833Y-114781857D01*
X170508833Y-114924714D01*
X170461214Y-115019952D01*
X170413595Y-115067571D01*
X170318357Y-115115190D01*
X169937404Y-115115190D01*
X171413595Y-114591380D02*
X170937404Y-114591380D01*
X170889785Y-115067571D01*
X170937404Y-115019952D01*
X171032642Y-114972333D01*
X171270738Y-114972333D01*
X171365976Y-115019952D01*
X171413595Y-115067571D01*
X171461214Y-115162809D01*
X171461214Y-115400904D01*
X171413595Y-115496142D01*
X171365976Y-115543761D01*
X171270738Y-115591380D01*
X171032642Y-115591380D01*
X170937404Y-115543761D01*
X170889785Y-115496142D01*
X154091333Y-125001380D02*
X153758000Y-124525190D01*
X153519904Y-125001380D02*
X153519904Y-124001380D01*
X153900857Y-124001380D01*
X153996095Y-124049000D01*
X154043714Y-124096619D01*
X154091333Y-124191857D01*
X154091333Y-124334714D01*
X154043714Y-124429952D01*
X153996095Y-124477571D01*
X153900857Y-124525190D01*
X153519904Y-124525190D01*
X154424666Y-124001380D02*
X155043714Y-124001380D01*
X154710380Y-124382333D01*
X154853238Y-124382333D01*
X154948476Y-124429952D01*
X154996095Y-124477571D01*
X155043714Y-124572809D01*
X155043714Y-124810904D01*
X154996095Y-124906142D01*
X154948476Y-124953761D01*
X154853238Y-125001380D01*
X154567523Y-125001380D01*
X154472285Y-124953761D01*
X154424666Y-124906142D01*
X153378833Y-123001380D02*
X153045500Y-122525190D01*
X152807404Y-123001380D02*
X152807404Y-122001380D01*
X153188357Y-122001380D01*
X153283595Y-122049000D01*
X153331214Y-122096619D01*
X153378833Y-122191857D01*
X153378833Y-122334714D01*
X153331214Y-122429952D01*
X153283595Y-122477571D01*
X153188357Y-122525190D01*
X152807404Y-122525190D01*
X154235976Y-122334714D02*
X154235976Y-123001380D01*
X153997880Y-121953761D02*
X153759785Y-122668047D01*
X154378833Y-122668047D01*
X159666333Y-127476142D02*
X159618714Y-127523761D01*
X159475857Y-127571380D01*
X159380619Y-127571380D01*
X159237761Y-127523761D01*
X159142523Y-127428523D01*
X159094904Y-127333285D01*
X159047285Y-127142809D01*
X159047285Y-126999952D01*
X159094904Y-126809476D01*
X159142523Y-126714238D01*
X159237761Y-126619000D01*
X159380619Y-126571380D01*
X159475857Y-126571380D01*
X159618714Y-126619000D01*
X159666333Y-126666619D01*
X160523476Y-126904714D02*
X160523476Y-127571380D01*
X160285380Y-126523761D02*
X160047285Y-127238047D01*
X160666333Y-127238047D01*
X169440142Y-114870166D02*
X169487761Y-114917785D01*
X169535380Y-115060642D01*
X169535380Y-115155880D01*
X169487761Y-115298738D01*
X169392523Y-115393976D01*
X169297285Y-115441595D01*
X169106809Y-115489214D01*
X168963952Y-115489214D01*
X168773476Y-115441595D01*
X168678238Y-115393976D01*
X168583000Y-115298738D01*
X168535380Y-115155880D01*
X168535380Y-115060642D01*
X168583000Y-114917785D01*
X168630619Y-114870166D01*
X168535380Y-113965404D02*
X168535380Y-114441595D01*
X169011571Y-114489214D01*
X168963952Y-114441595D01*
X168916333Y-114346357D01*
X168916333Y-114108261D01*
X168963952Y-114013023D01*
X169011571Y-113965404D01*
X169106809Y-113917785D01*
X169344904Y-113917785D01*
X169440142Y-113965404D01*
X169487761Y-114013023D01*
X169535380Y-114108261D01*
X169535380Y-114346357D01*
X169487761Y-114441595D01*
X169440142Y-114489214D01*
X159219333Y-116037642D02*
X159171714Y-116085261D01*
X159028857Y-116132880D01*
X158933619Y-116132880D01*
X158790761Y-116085261D01*
X158695523Y-115990023D01*
X158647904Y-115894785D01*
X158600285Y-115704309D01*
X158600285Y-115561452D01*
X158647904Y-115370976D01*
X158695523Y-115275738D01*
X158790761Y-115180500D01*
X158933619Y-115132880D01*
X159028857Y-115132880D01*
X159171714Y-115180500D01*
X159219333Y-115228119D01*
X160076476Y-115132880D02*
X159886000Y-115132880D01*
X159790761Y-115180500D01*
X159743142Y-115228119D01*
X159647904Y-115370976D01*
X159600285Y-115561452D01*
X159600285Y-115942404D01*
X159647904Y-116037642D01*
X159695523Y-116085261D01*
X159790761Y-116132880D01*
X159981238Y-116132880D01*
X160076476Y-116085261D01*
X160124095Y-116037642D01*
X160171714Y-115942404D01*
X160171714Y-115704309D01*
X160124095Y-115609071D01*
X160076476Y-115561452D01*
X159981238Y-115513833D01*
X159790761Y-115513833D01*
X159695523Y-115561452D01*
X159647904Y-115609071D01*
X159600285Y-115704309D01*
X167235380Y-123235666D02*
X167235380Y-123711857D01*
X166235380Y-123711857D01*
X167235380Y-122378523D02*
X167235380Y-122949952D01*
X167235380Y-122664238D02*
X166235380Y-122664238D01*
X166378238Y-122759476D01*
X166473476Y-122854714D01*
X166521095Y-122949952D01*
X139573095Y-95591380D02*
X139573095Y-96400904D01*
X139620714Y-96496142D01*
X139668333Y-96543761D01*
X139763571Y-96591380D01*
X139954047Y-96591380D01*
X140049285Y-96543761D01*
X140096904Y-96496142D01*
X140144523Y-96400904D01*
X140144523Y-95591380D01*
X141096904Y-95591380D02*
X140620714Y-95591380D01*
X140573095Y-96067571D01*
X140620714Y-96019952D01*
X140715952Y-95972333D01*
X140954047Y-95972333D01*
X141049285Y-96019952D01*
X141096904Y-96067571D01*
X141144523Y-96162809D01*
X141144523Y-96400904D01*
X141096904Y-96496142D01*
X141049285Y-96543761D01*
X140954047Y-96591380D01*
X140715952Y-96591380D01*
X140620714Y-96543761D01*
X140573095Y-96496142D01*
X131278142Y-101971166D02*
X131325761Y-102018785D01*
X131373380Y-102161642D01*
X131373380Y-102256880D01*
X131325761Y-102399738D01*
X131230523Y-102494976D01*
X131135285Y-102542595D01*
X130944809Y-102590214D01*
X130801952Y-102590214D01*
X130611476Y-102542595D01*
X130516238Y-102494976D01*
X130421000Y-102399738D01*
X130373380Y-102256880D01*
X130373380Y-102161642D01*
X130421000Y-102018785D01*
X130468619Y-101971166D01*
X130373380Y-101637833D02*
X130373380Y-100971166D01*
X131373380Y-101399738D01*
X127893142Y-98771166D02*
X127940761Y-98818785D01*
X127988380Y-98961642D01*
X127988380Y-99056880D01*
X127940761Y-99199738D01*
X127845523Y-99294976D01*
X127750285Y-99342595D01*
X127559809Y-99390214D01*
X127416952Y-99390214D01*
X127226476Y-99342595D01*
X127131238Y-99294976D01*
X127036000Y-99199738D01*
X126988380Y-99056880D01*
X126988380Y-98961642D01*
X127036000Y-98818785D01*
X127083619Y-98771166D01*
X127416952Y-98199738D02*
X127369333Y-98294976D01*
X127321714Y-98342595D01*
X127226476Y-98390214D01*
X127178857Y-98390214D01*
X127083619Y-98342595D01*
X127036000Y-98294976D01*
X126988380Y-98199738D01*
X126988380Y-98009261D01*
X127036000Y-97914023D01*
X127083619Y-97866404D01*
X127178857Y-97818785D01*
X127226476Y-97818785D01*
X127321714Y-97866404D01*
X127369333Y-97914023D01*
X127416952Y-98009261D01*
X127416952Y-98199738D01*
X127464571Y-98294976D01*
X127512190Y-98342595D01*
X127607428Y-98390214D01*
X127797904Y-98390214D01*
X127893142Y-98342595D01*
X127940761Y-98294976D01*
X127988380Y-98199738D01*
X127988380Y-98009261D01*
X127940761Y-97914023D01*
X127893142Y-97866404D01*
X127797904Y-97818785D01*
X127607428Y-97818785D01*
X127512190Y-97866404D01*
X127464571Y-97914023D01*
X127416952Y-98009261D01*
X161071095Y-95071380D02*
X161642523Y-95071380D01*
X161356809Y-96071380D02*
X161356809Y-95071380D01*
X161975857Y-96071380D02*
X161975857Y-95071380D01*
X162356809Y-95071380D01*
X162452047Y-95119000D01*
X162499666Y-95166619D01*
X162547285Y-95261857D01*
X162547285Y-95404714D01*
X162499666Y-95499952D01*
X162452047Y-95547571D01*
X162356809Y-95595190D01*
X161975857Y-95595190D01*
X163118714Y-95499952D02*
X163023476Y-95452333D01*
X162975857Y-95404714D01*
X162928238Y-95309476D01*
X162928238Y-95261857D01*
X162975857Y-95166619D01*
X163023476Y-95119000D01*
X163118714Y-95071380D01*
X163309190Y-95071380D01*
X163404428Y-95119000D01*
X163452047Y-95166619D01*
X163499666Y-95261857D01*
X163499666Y-95309476D01*
X163452047Y-95404714D01*
X163404428Y-95452333D01*
X163309190Y-95499952D01*
X163118714Y-95499952D01*
X163023476Y-95547571D01*
X162975857Y-95595190D01*
X162928238Y-95690428D01*
X162928238Y-95880904D01*
X162975857Y-95976142D01*
X163023476Y-96023761D01*
X163118714Y-96071380D01*
X163309190Y-96071380D01*
X163404428Y-96023761D01*
X163452047Y-95976142D01*
X163499666Y-95880904D01*
X163499666Y-95690428D01*
X163452047Y-95595190D01*
X163404428Y-95547571D01*
X163309190Y-95499952D01*
X165571095Y-91071380D02*
X166142523Y-91071380D01*
X165856809Y-92071380D02*
X165856809Y-91071380D01*
X166475857Y-92071380D02*
X166475857Y-91071380D01*
X166856809Y-91071380D01*
X166952047Y-91119000D01*
X166999666Y-91166619D01*
X167047285Y-91261857D01*
X167047285Y-91404714D01*
X166999666Y-91499952D01*
X166952047Y-91547571D01*
X166856809Y-91595190D01*
X166475857Y-91595190D01*
X167904428Y-91071380D02*
X167713952Y-91071380D01*
X167618714Y-91119000D01*
X167571095Y-91166619D01*
X167475857Y-91309476D01*
X167428238Y-91499952D01*
X167428238Y-91880904D01*
X167475857Y-91976142D01*
X167523476Y-92023761D01*
X167618714Y-92071380D01*
X167809190Y-92071380D01*
X167904428Y-92023761D01*
X167952047Y-91976142D01*
X167999666Y-91880904D01*
X167999666Y-91642809D01*
X167952047Y-91547571D01*
X167904428Y-91499952D01*
X167809190Y-91452333D01*
X167618714Y-91452333D01*
X167523476Y-91499952D01*
X167475857Y-91547571D01*
X167428238Y-91642809D01*
X158071095Y-93571380D02*
X158642523Y-93571380D01*
X158356809Y-94571380D02*
X158356809Y-93571380D01*
X158975857Y-94571380D02*
X158975857Y-93571380D01*
X159356809Y-93571380D01*
X159452047Y-93619000D01*
X159499666Y-93666619D01*
X159547285Y-93761857D01*
X159547285Y-93904714D01*
X159499666Y-93999952D01*
X159452047Y-94047571D01*
X159356809Y-94095190D01*
X158975857Y-94095190D01*
X159880619Y-93571380D02*
X160547285Y-93571380D01*
X160118714Y-94571380D01*
X172571095Y-92571380D02*
X173142523Y-92571380D01*
X172856809Y-93571380D02*
X172856809Y-92571380D01*
X173475857Y-93571380D02*
X173475857Y-92571380D01*
X173856809Y-92571380D01*
X173952047Y-92619000D01*
X173999666Y-92666619D01*
X174047285Y-92761857D01*
X174047285Y-92904714D01*
X173999666Y-92999952D01*
X173952047Y-93047571D01*
X173856809Y-93095190D01*
X173475857Y-93095190D01*
X174523476Y-93571380D02*
X174713952Y-93571380D01*
X174809190Y-93523761D01*
X174856809Y-93476142D01*
X174952047Y-93333285D01*
X174999666Y-93142809D01*
X174999666Y-92761857D01*
X174952047Y-92666619D01*
X174904428Y-92619000D01*
X174809190Y-92571380D01*
X174618714Y-92571380D01*
X174523476Y-92619000D01*
X174475857Y-92666619D01*
X174428238Y-92761857D01*
X174428238Y-92999952D01*
X174475857Y-93095190D01*
X174523476Y-93142809D01*
X174618714Y-93190428D01*
X174809190Y-93190428D01*
X174904428Y-93142809D01*
X174952047Y-93095190D01*
X174999666Y-92999952D01*
X158266095Y-119651380D02*
X158266095Y-120460904D01*
X158313714Y-120556142D01*
X158361333Y-120603761D01*
X158456571Y-120651380D01*
X158647047Y-120651380D01*
X158742285Y-120603761D01*
X158789904Y-120556142D01*
X158837523Y-120460904D01*
X158837523Y-119651380D01*
X159837523Y-120651380D02*
X159266095Y-120651380D01*
X159551809Y-120651380D02*
X159551809Y-119651380D01*
X159456571Y-119794238D01*
X159361333Y-119889476D01*
X159266095Y-119937095D01*
X163986095Y-116765380D02*
X163986095Y-117574904D01*
X164033714Y-117670142D01*
X164081333Y-117717761D01*
X164176571Y-117765380D01*
X164367047Y-117765380D01*
X164462285Y-117717761D01*
X164509904Y-117670142D01*
X164557523Y-117574904D01*
X164557523Y-116765380D01*
X164938476Y-116765380D02*
X165557523Y-116765380D01*
X165224190Y-117146333D01*
X165367047Y-117146333D01*
X165462285Y-117193952D01*
X165509904Y-117241571D01*
X165557523Y-117336809D01*
X165557523Y-117574904D01*
X165509904Y-117670142D01*
X165462285Y-117717761D01*
X165367047Y-117765380D01*
X165081333Y-117765380D01*
X164986095Y-117717761D01*
X164938476Y-117670142D01*
X157826095Y-117881380D02*
X157826095Y-118690904D01*
X157873714Y-118786142D01*
X157921333Y-118833761D01*
X158016571Y-118881380D01*
X158207047Y-118881380D01*
X158302285Y-118833761D01*
X158349904Y-118786142D01*
X158397523Y-118690904D01*
X158397523Y-117881380D01*
X159302285Y-118214714D02*
X159302285Y-118881380D01*
X159064190Y-117833761D02*
X158826095Y-118548047D01*
X159445142Y-118548047D01*
X172712095Y-106216380D02*
X172712095Y-107025904D01*
X172759714Y-107121142D01*
X172807333Y-107168761D01*
X172902571Y-107216380D01*
X173093047Y-107216380D01*
X173188285Y-107168761D01*
X173235904Y-107121142D01*
X173283523Y-107025904D01*
X173283523Y-106216380D01*
X174188285Y-106216380D02*
X173997809Y-106216380D01*
X173902571Y-106264000D01*
X173854952Y-106311619D01*
X173759714Y-106454476D01*
X173712095Y-106644952D01*
X173712095Y-107025904D01*
X173759714Y-107121142D01*
X173807333Y-107168761D01*
X173902571Y-107216380D01*
X174093047Y-107216380D01*
X174188285Y-107168761D01*
X174235904Y-107121142D01*
X174283523Y-107025904D01*
X174283523Y-106787809D01*
X174235904Y-106692571D01*
X174188285Y-106644952D01*
X174093047Y-106597333D01*
X173902571Y-106597333D01*
X173807333Y-106644952D01*
X173759714Y-106692571D01*
X173712095Y-106787809D01*
X160045380Y-103940904D02*
X160854904Y-103940904D01*
X160950142Y-103893285D01*
X160997761Y-103845666D01*
X161045380Y-103750428D01*
X161045380Y-103559952D01*
X160997761Y-103464714D01*
X160950142Y-103417095D01*
X160854904Y-103369476D01*
X160045380Y-103369476D01*
X160045380Y-102988523D02*
X160045380Y-102321857D01*
X161045380Y-102750428D01*
X129988380Y-98771166D02*
X129512190Y-99104500D01*
X129988380Y-99342595D02*
X128988380Y-99342595D01*
X128988380Y-98961642D01*
X129036000Y-98866404D01*
X129083619Y-98818785D01*
X129178857Y-98771166D01*
X129321714Y-98771166D01*
X129416952Y-98818785D01*
X129464571Y-98866404D01*
X129512190Y-98961642D01*
X129512190Y-99342595D01*
X128988380Y-97914023D02*
X128988380Y-98104500D01*
X129036000Y-98199738D01*
X129083619Y-98247357D01*
X129226476Y-98342595D01*
X129416952Y-98390214D01*
X129797904Y-98390214D01*
X129893142Y-98342595D01*
X129940761Y-98294976D01*
X129988380Y-98199738D01*
X129988380Y-98009261D01*
X129940761Y-97914023D01*
X129893142Y-97866404D01*
X129797904Y-97818785D01*
X129559809Y-97818785D01*
X129464571Y-97866404D01*
X129416952Y-97914023D01*
X129369333Y-98009261D01*
X129369333Y-98199738D01*
X129416952Y-98294976D01*
X129464571Y-98342595D01*
X129559809Y-98390214D01*
X132848380Y-105255166D02*
X132372190Y-105588500D01*
X132848380Y-105826595D02*
X131848380Y-105826595D01*
X131848380Y-105445642D01*
X131896000Y-105350404D01*
X131943619Y-105302785D01*
X132038857Y-105255166D01*
X132181714Y-105255166D01*
X132276952Y-105302785D01*
X132324571Y-105350404D01*
X132372190Y-105445642D01*
X132372190Y-105826595D01*
X131848380Y-104921833D02*
X131848380Y-104255166D01*
X132848380Y-104683738D01*
X137391833Y-94702380D02*
X137058500Y-94226190D01*
X136820404Y-94702380D02*
X136820404Y-93702380D01*
X137201357Y-93702380D01*
X137296595Y-93750000D01*
X137344214Y-93797619D01*
X137391833Y-93892857D01*
X137391833Y-94035714D01*
X137344214Y-94130952D01*
X137296595Y-94178571D01*
X137201357Y-94226190D01*
X136820404Y-94226190D01*
X137963261Y-94130952D02*
X137868023Y-94083333D01*
X137820404Y-94035714D01*
X137772785Y-93940476D01*
X137772785Y-93892857D01*
X137820404Y-93797619D01*
X137868023Y-93750000D01*
X137963261Y-93702380D01*
X138153738Y-93702380D01*
X138248976Y-93750000D01*
X138296595Y-93797619D01*
X138344214Y-93892857D01*
X138344214Y-93940476D01*
X138296595Y-94035714D01*
X138248976Y-94083333D01*
X138153738Y-94130952D01*
X137963261Y-94130952D01*
X137868023Y-94178571D01*
X137820404Y-94226190D01*
X137772785Y-94321428D01*
X137772785Y-94511904D01*
X137820404Y-94607142D01*
X137868023Y-94654761D01*
X137963261Y-94702380D01*
X138153738Y-94702380D01*
X138248976Y-94654761D01*
X138296595Y-94607142D01*
X138344214Y-94511904D01*
X138344214Y-94321428D01*
X138296595Y-94226190D01*
X138248976Y-94178571D01*
X138153738Y-94130952D01*
X135688380Y-108558666D02*
X135212190Y-108892000D01*
X135688380Y-109130095D02*
X134688380Y-109130095D01*
X134688380Y-108749142D01*
X134736000Y-108653904D01*
X134783619Y-108606285D01*
X134878857Y-108558666D01*
X135021714Y-108558666D01*
X135116952Y-108606285D01*
X135164571Y-108653904D01*
X135212190Y-108749142D01*
X135212190Y-109130095D01*
X135688380Y-108082476D02*
X135688380Y-107892000D01*
X135640761Y-107796761D01*
X135593142Y-107749142D01*
X135450285Y-107653904D01*
X135259809Y-107606285D01*
X134878857Y-107606285D01*
X134783619Y-107653904D01*
X134736000Y-107701523D01*
X134688380Y-107796761D01*
X134688380Y-107987238D01*
X134736000Y-108082476D01*
X134783619Y-108130095D01*
X134878857Y-108177714D01*
X135116952Y-108177714D01*
X135212190Y-108130095D01*
X135259809Y-108082476D01*
X135307428Y-107987238D01*
X135307428Y-107796761D01*
X135259809Y-107701523D01*
X135212190Y-107653904D01*
X135116952Y-107606285D01*
X142508380Y-99247357D02*
X142032190Y-99580690D01*
X142508380Y-99818785D02*
X141508380Y-99818785D01*
X141508380Y-99437833D01*
X141556000Y-99342595D01*
X141603619Y-99294976D01*
X141698857Y-99247357D01*
X141841714Y-99247357D01*
X141936952Y-99294976D01*
X141984571Y-99342595D01*
X142032190Y-99437833D01*
X142032190Y-99818785D01*
X142508380Y-98294976D02*
X142508380Y-98866404D01*
X142508380Y-98580690D02*
X141508380Y-98580690D01*
X141651238Y-98675928D01*
X141746476Y-98771166D01*
X141794095Y-98866404D01*
X141508380Y-97675928D02*
X141508380Y-97580690D01*
X141556000Y-97485452D01*
X141603619Y-97437833D01*
X141698857Y-97390214D01*
X141889333Y-97342595D01*
X142127428Y-97342595D01*
X142317904Y-97390214D01*
X142413142Y-97437833D01*
X142460761Y-97485452D01*
X142508380Y-97580690D01*
X142508380Y-97675928D01*
X142460761Y-97771166D01*
X142413142Y-97818785D01*
X142317904Y-97866404D01*
X142127428Y-97914023D01*
X141889333Y-97914023D01*
X141698857Y-97866404D01*
X141603619Y-97818785D01*
X141556000Y-97771166D01*
X141508380Y-97675928D01*
X153890642Y-105387380D02*
X153557309Y-104911190D01*
X153319214Y-105387380D02*
X153319214Y-104387380D01*
X153700166Y-104387380D01*
X153795404Y-104435000D01*
X153843023Y-104482619D01*
X153890642Y-104577857D01*
X153890642Y-104720714D01*
X153843023Y-104815952D01*
X153795404Y-104863571D01*
X153700166Y-104911190D01*
X153319214Y-104911190D01*
X154843023Y-105387380D02*
X154271595Y-105387380D01*
X154557309Y-105387380D02*
X154557309Y-104387380D01*
X154462071Y-104530238D01*
X154366833Y-104625476D01*
X154271595Y-104673095D01*
X155223976Y-104482619D02*
X155271595Y-104435000D01*
X155366833Y-104387380D01*
X155604928Y-104387380D01*
X155700166Y-104435000D01*
X155747785Y-104482619D01*
X155795404Y-104577857D01*
X155795404Y-104673095D01*
X155747785Y-104815952D01*
X155176357Y-105387380D01*
X155795404Y-105387380D01*
X153890642Y-100528380D02*
X153557309Y-100052190D01*
X153319214Y-100528380D02*
X153319214Y-99528380D01*
X153700166Y-99528380D01*
X153795404Y-99576000D01*
X153843023Y-99623619D01*
X153890642Y-99718857D01*
X153890642Y-99861714D01*
X153843023Y-99956952D01*
X153795404Y-100004571D01*
X153700166Y-100052190D01*
X153319214Y-100052190D01*
X154843023Y-100528380D02*
X154271595Y-100528380D01*
X154557309Y-100528380D02*
X154557309Y-99528380D01*
X154462071Y-99671238D01*
X154366833Y-99766476D01*
X154271595Y-99814095D01*
X155176357Y-99528380D02*
X155795404Y-99528380D01*
X155462071Y-99909333D01*
X155604928Y-99909333D01*
X155700166Y-99956952D01*
X155747785Y-100004571D01*
X155795404Y-100099809D01*
X155795404Y-100337904D01*
X155747785Y-100433142D01*
X155700166Y-100480761D01*
X155604928Y-100528380D01*
X155319214Y-100528380D01*
X155223976Y-100480761D01*
X155176357Y-100433142D01*
X153882642Y-107601380D02*
X153549309Y-107125190D01*
X153311214Y-107601380D02*
X153311214Y-106601380D01*
X153692166Y-106601380D01*
X153787404Y-106649000D01*
X153835023Y-106696619D01*
X153882642Y-106791857D01*
X153882642Y-106934714D01*
X153835023Y-107029952D01*
X153787404Y-107077571D01*
X153692166Y-107125190D01*
X153311214Y-107125190D01*
X154835023Y-107601380D02*
X154263595Y-107601380D01*
X154549309Y-107601380D02*
X154549309Y-106601380D01*
X154454071Y-106744238D01*
X154358833Y-106839476D01*
X154263595Y-106887095D01*
X155692166Y-106934714D02*
X155692166Y-107601380D01*
X155454071Y-106553761D02*
X155215976Y-107268047D01*
X155835023Y-107268047D01*
X137627095Y-126041380D02*
X137627095Y-126850904D01*
X137674714Y-126946142D01*
X137722333Y-126993761D01*
X137817571Y-127041380D01*
X138008047Y-127041380D01*
X138103285Y-126993761D01*
X138150904Y-126946142D01*
X138198523Y-126850904D01*
X138198523Y-126041380D01*
X138627095Y-126136619D02*
X138674714Y-126089000D01*
X138769952Y-126041380D01*
X139008047Y-126041380D01*
X139103285Y-126089000D01*
X139150904Y-126136619D01*
X139198523Y-126231857D01*
X139198523Y-126327095D01*
X139150904Y-126469952D01*
X138579476Y-127041380D01*
X139198523Y-127041380D01*
X153882642Y-110141380D02*
X153549309Y-109665190D01*
X153311214Y-110141380D02*
X153311214Y-109141380D01*
X153692166Y-109141380D01*
X153787404Y-109189000D01*
X153835023Y-109236619D01*
X153882642Y-109331857D01*
X153882642Y-109474714D01*
X153835023Y-109569952D01*
X153787404Y-109617571D01*
X153692166Y-109665190D01*
X153311214Y-109665190D01*
X154835023Y-110141380D02*
X154263595Y-110141380D01*
X154549309Y-110141380D02*
X154549309Y-109141380D01*
X154454071Y-109284238D01*
X154358833Y-109379476D01*
X154263595Y-109427095D01*
X155739785Y-109141380D02*
X155263595Y-109141380D01*
X155215976Y-109617571D01*
X155263595Y-109569952D01*
X155358833Y-109522333D01*
X155596928Y-109522333D01*
X155692166Y-109569952D01*
X155739785Y-109617571D01*
X155787404Y-109712809D01*
X155787404Y-109950904D01*
X155739785Y-110046142D01*
X155692166Y-110093761D01*
X155596928Y-110141380D01*
X155358833Y-110141380D01*
X155263595Y-110093761D01*
X155215976Y-110046142D01*
X170832642Y-97821380D02*
X170499309Y-97345190D01*
X170261214Y-97821380D02*
X170261214Y-96821380D01*
X170642166Y-96821380D01*
X170737404Y-96869000D01*
X170785023Y-96916619D01*
X170832642Y-97011857D01*
X170832642Y-97154714D01*
X170785023Y-97249952D01*
X170737404Y-97297571D01*
X170642166Y-97345190D01*
X170261214Y-97345190D01*
X171785023Y-97821380D02*
X171213595Y-97821380D01*
X171499309Y-97821380D02*
X171499309Y-96821380D01*
X171404071Y-96964238D01*
X171308833Y-97059476D01*
X171213595Y-97107095D01*
X172642166Y-96821380D02*
X172451690Y-96821380D01*
X172356452Y-96869000D01*
X172308833Y-96916619D01*
X172213595Y-97059476D01*
X172165976Y-97249952D01*
X172165976Y-97630904D01*
X172213595Y-97726142D01*
X172261214Y-97773761D01*
X172356452Y-97821380D01*
X172546928Y-97821380D01*
X172642166Y-97773761D01*
X172689785Y-97726142D01*
X172737404Y-97630904D01*
X172737404Y-97392809D01*
X172689785Y-97297571D01*
X172642166Y-97249952D01*
X172546928Y-97202333D01*
X172356452Y-97202333D01*
X172261214Y-97249952D01*
X172213595Y-97297571D01*
X172165976Y-97392809D01*
X150433380Y-101880904D02*
X150433380Y-101309476D01*
X151433380Y-101595190D02*
X150433380Y-101595190D01*
X151433380Y-100976142D02*
X150433380Y-100976142D01*
X150433380Y-100595190D01*
X150481000Y-100499952D01*
X150528619Y-100452333D01*
X150623857Y-100404714D01*
X150766714Y-100404714D01*
X150861952Y-100452333D01*
X150909571Y-100499952D01*
X150957190Y-100595190D01*
X150957190Y-100976142D01*
X150528619Y-100023761D02*
X150481000Y-99976142D01*
X150433380Y-99880904D01*
X150433380Y-99642809D01*
X150481000Y-99547571D01*
X150528619Y-99499952D01*
X150623857Y-99452333D01*
X150719095Y-99452333D01*
X150861952Y-99499952D01*
X151433380Y-100071380D01*
X151433380Y-99452333D01*
X150433380Y-104880904D02*
X150433380Y-104309476D01*
X151433380Y-104595190D02*
X150433380Y-104595190D01*
X151433380Y-103976142D02*
X150433380Y-103976142D01*
X150433380Y-103595190D01*
X150481000Y-103499952D01*
X150528619Y-103452333D01*
X150623857Y-103404714D01*
X150766714Y-103404714D01*
X150861952Y-103452333D01*
X150909571Y-103499952D01*
X150957190Y-103595190D01*
X150957190Y-103976142D01*
X150433380Y-103071380D02*
X150433380Y-102452333D01*
X150814333Y-102785666D01*
X150814333Y-102642809D01*
X150861952Y-102547571D01*
X150909571Y-102499952D01*
X151004809Y-102452333D01*
X151242904Y-102452333D01*
X151338142Y-102499952D01*
X151385761Y-102547571D01*
X151433380Y-102642809D01*
X151433380Y-102928523D01*
X151385761Y-103023761D01*
X151338142Y-103071380D01*
X147137380Y-98880904D02*
X147137380Y-98309476D01*
X148137380Y-98595190D02*
X147137380Y-98595190D01*
X148137380Y-97976142D02*
X147137380Y-97976142D01*
X147137380Y-97595190D01*
X147185000Y-97499952D01*
X147232619Y-97452333D01*
X147327857Y-97404714D01*
X147470714Y-97404714D01*
X147565952Y-97452333D01*
X147613571Y-97499952D01*
X147661190Y-97595190D01*
X147661190Y-97976142D01*
X147470714Y-96547571D02*
X148137380Y-96547571D01*
X147089761Y-96785666D02*
X147804047Y-97023761D01*
X147804047Y-96404714D01*
X147137380Y-107880904D02*
X147137380Y-107309476D01*
X148137380Y-107595190D02*
X147137380Y-107595190D01*
X148137380Y-106976142D02*
X147137380Y-106976142D01*
X147137380Y-106595190D01*
X147185000Y-106499952D01*
X147232619Y-106452333D01*
X147327857Y-106404714D01*
X147470714Y-106404714D01*
X147565952Y-106452333D01*
X147613571Y-106499952D01*
X147661190Y-106595190D01*
X147661190Y-106976142D01*
X147137380Y-105499952D02*
X147137380Y-105976142D01*
X147613571Y-106023761D01*
X147565952Y-105976142D01*
X147518333Y-105880904D01*
X147518333Y-105642809D01*
X147565952Y-105547571D01*
X147613571Y-105499952D01*
X147708809Y-105452333D01*
X147946904Y-105452333D01*
X148042142Y-105499952D01*
X148089761Y-105547571D01*
X148137380Y-105642809D01*
X148137380Y-105880904D01*
X148089761Y-105976142D01*
X148042142Y-106023761D01*
X130753142Y-105255166D02*
X130800761Y-105302785D01*
X130848380Y-105445642D01*
X130848380Y-105540880D01*
X130800761Y-105683738D01*
X130705523Y-105778976D01*
X130610285Y-105826595D01*
X130419809Y-105874214D01*
X130276952Y-105874214D01*
X130086476Y-105826595D01*
X129991238Y-105778976D01*
X129896000Y-105683738D01*
X129848380Y-105540880D01*
X129848380Y-105445642D01*
X129896000Y-105302785D01*
X129943619Y-105255166D01*
X130848380Y-104778976D02*
X130848380Y-104588500D01*
X130800761Y-104493261D01*
X130753142Y-104445642D01*
X130610285Y-104350404D01*
X130419809Y-104302785D01*
X130038857Y-104302785D01*
X129943619Y-104350404D01*
X129896000Y-104398023D01*
X129848380Y-104493261D01*
X129848380Y-104683738D01*
X129896000Y-104778976D01*
X129943619Y-104826595D01*
X130038857Y-104874214D01*
X130276952Y-104874214D01*
X130372190Y-104826595D01*
X130419809Y-104778976D01*
X130467428Y-104683738D01*
X130467428Y-104493261D01*
X130419809Y-104398023D01*
X130372190Y-104350404D01*
X130276952Y-104302785D01*
X169111142Y-110414357D02*
X169158761Y-110461976D01*
X169206380Y-110604833D01*
X169206380Y-110700071D01*
X169158761Y-110842928D01*
X169063523Y-110938166D01*
X168968285Y-110985785D01*
X168777809Y-111033404D01*
X168634952Y-111033404D01*
X168444476Y-110985785D01*
X168349238Y-110938166D01*
X168254000Y-110842928D01*
X168206380Y-110700071D01*
X168206380Y-110604833D01*
X168254000Y-110461976D01*
X168301619Y-110414357D01*
X169206380Y-109461976D02*
X169206380Y-110033404D01*
X169206380Y-109747690D02*
X168206380Y-109747690D01*
X168349238Y-109842928D01*
X168444476Y-109938166D01*
X168492095Y-110033404D01*
X168206380Y-108842928D02*
X168206380Y-108747690D01*
X168254000Y-108652452D01*
X168301619Y-108604833D01*
X168396857Y-108557214D01*
X168587333Y-108509595D01*
X168825428Y-108509595D01*
X169015904Y-108557214D01*
X169111142Y-108604833D01*
X169158761Y-108652452D01*
X169206380Y-108747690D01*
X169206380Y-108842928D01*
X169158761Y-108938166D01*
X169111142Y-108985785D01*
X169015904Y-109033404D01*
X168825428Y-109081023D01*
X168587333Y-109081023D01*
X168396857Y-109033404D01*
X168301619Y-108985785D01*
X168254000Y-108938166D01*
X168206380Y-108842928D01*
X178571142Y-110404357D02*
X178618761Y-110451976D01*
X178666380Y-110594833D01*
X178666380Y-110690071D01*
X178618761Y-110832928D01*
X178523523Y-110928166D01*
X178428285Y-110975785D01*
X178237809Y-111023404D01*
X178094952Y-111023404D01*
X177904476Y-110975785D01*
X177809238Y-110928166D01*
X177714000Y-110832928D01*
X177666380Y-110690071D01*
X177666380Y-110594833D01*
X177714000Y-110451976D01*
X177761619Y-110404357D01*
X178666380Y-109451976D02*
X178666380Y-110023404D01*
X178666380Y-109737690D02*
X177666380Y-109737690D01*
X177809238Y-109832928D01*
X177904476Y-109928166D01*
X177952095Y-110023404D01*
X178666380Y-108499595D02*
X178666380Y-109071023D01*
X178666380Y-108785309D02*
X177666380Y-108785309D01*
X177809238Y-108880547D01*
X177904476Y-108975785D01*
X177952095Y-109071023D01*
X156780142Y-104049357D02*
X156827761Y-104096976D01*
X156875380Y-104239833D01*
X156875380Y-104335071D01*
X156827761Y-104477928D01*
X156732523Y-104573166D01*
X156637285Y-104620785D01*
X156446809Y-104668404D01*
X156303952Y-104668404D01*
X156113476Y-104620785D01*
X156018238Y-104573166D01*
X155923000Y-104477928D01*
X155875380Y-104335071D01*
X155875380Y-104239833D01*
X155923000Y-104096976D01*
X155970619Y-104049357D01*
X156875380Y-103096976D02*
X156875380Y-103668404D01*
X156875380Y-103382690D02*
X155875380Y-103382690D01*
X156018238Y-103477928D01*
X156113476Y-103573166D01*
X156161095Y-103668404D01*
X155970619Y-102716023D02*
X155923000Y-102668404D01*
X155875380Y-102573166D01*
X155875380Y-102335071D01*
X155923000Y-102239833D01*
X155970619Y-102192214D01*
X156065857Y-102144595D01*
X156161095Y-102144595D01*
X156303952Y-102192214D01*
X156875380Y-102763642D01*
X156875380Y-102144595D01*
X159640142Y-107784357D02*
X159687761Y-107831976D01*
X159735380Y-107974833D01*
X159735380Y-108070071D01*
X159687761Y-108212928D01*
X159592523Y-108308166D01*
X159497285Y-108355785D01*
X159306809Y-108403404D01*
X159163952Y-108403404D01*
X158973476Y-108355785D01*
X158878238Y-108308166D01*
X158783000Y-108212928D01*
X158735380Y-108070071D01*
X158735380Y-107974833D01*
X158783000Y-107831976D01*
X158830619Y-107784357D01*
X159735380Y-106831976D02*
X159735380Y-107403404D01*
X159735380Y-107117690D02*
X158735380Y-107117690D01*
X158878238Y-107212928D01*
X158973476Y-107308166D01*
X159021095Y-107403404D01*
X158735380Y-106498642D02*
X158735380Y-105879595D01*
X159116333Y-106212928D01*
X159116333Y-106070071D01*
X159163952Y-105974833D01*
X159211571Y-105927214D01*
X159306809Y-105879595D01*
X159544904Y-105879595D01*
X159640142Y-105927214D01*
X159687761Y-105974833D01*
X159735380Y-106070071D01*
X159735380Y-106355785D01*
X159687761Y-106451023D01*
X159640142Y-106498642D01*
X170092642Y-104173357D02*
X170140261Y-104220976D01*
X170187880Y-104363833D01*
X170187880Y-104459071D01*
X170140261Y-104601928D01*
X170045023Y-104697166D01*
X169949785Y-104744785D01*
X169759309Y-104792404D01*
X169616452Y-104792404D01*
X169425976Y-104744785D01*
X169330738Y-104697166D01*
X169235500Y-104601928D01*
X169187880Y-104459071D01*
X169187880Y-104363833D01*
X169235500Y-104220976D01*
X169283119Y-104173357D01*
X170187880Y-103220976D02*
X170187880Y-103792404D01*
X170187880Y-103506690D02*
X169187880Y-103506690D01*
X169330738Y-103601928D01*
X169425976Y-103697166D01*
X169473595Y-103792404D01*
X169187880Y-102316214D02*
X169187880Y-102792404D01*
X169664071Y-102840023D01*
X169616452Y-102792404D01*
X169568833Y-102697166D01*
X169568833Y-102459071D01*
X169616452Y-102363833D01*
X169664071Y-102316214D01*
X169759309Y-102268595D01*
X169997404Y-102268595D01*
X170092642Y-102316214D01*
X170140261Y-102363833D01*
X170187880Y-102459071D01*
X170187880Y-102697166D01*
X170140261Y-102792404D01*
X170092642Y-102840023D01*
X158690142Y-98476142D02*
X158642523Y-98523761D01*
X158499666Y-98571380D01*
X158404428Y-98571380D01*
X158261571Y-98523761D01*
X158166333Y-98428523D01*
X158118714Y-98333285D01*
X158071095Y-98142809D01*
X158071095Y-97999952D01*
X158118714Y-97809476D01*
X158166333Y-97714238D01*
X158261571Y-97619000D01*
X158404428Y-97571380D01*
X158499666Y-97571380D01*
X158642523Y-97619000D01*
X158690142Y-97666619D01*
X159642523Y-98571380D02*
X159071095Y-98571380D01*
X159356809Y-98571380D02*
X159356809Y-97571380D01*
X159261571Y-97714238D01*
X159166333Y-97809476D01*
X159071095Y-97857095D01*
X160499666Y-97571380D02*
X160309190Y-97571380D01*
X160213952Y-97619000D01*
X160166333Y-97666619D01*
X160071095Y-97809476D01*
X160023476Y-97999952D01*
X160023476Y-98380904D01*
X160071095Y-98476142D01*
X160118714Y-98523761D01*
X160213952Y-98571380D01*
X160404428Y-98571380D01*
X160499666Y-98523761D01*
X160547285Y-98476142D01*
X160594904Y-98380904D01*
X160594904Y-98142809D01*
X160547285Y-98047571D01*
X160499666Y-97999952D01*
X160404428Y-97952333D01*
X160213952Y-97952333D01*
X160118714Y-97999952D01*
X160071095Y-98047571D01*
X160023476Y-98142809D01*
X173690142Y-100976142D02*
X173642523Y-101023761D01*
X173499666Y-101071380D01*
X173404428Y-101071380D01*
X173261571Y-101023761D01*
X173166333Y-100928523D01*
X173118714Y-100833285D01*
X173071095Y-100642809D01*
X173071095Y-100499952D01*
X173118714Y-100309476D01*
X173166333Y-100214238D01*
X173261571Y-100119000D01*
X173404428Y-100071380D01*
X173499666Y-100071380D01*
X173642523Y-100119000D01*
X173690142Y-100166619D01*
X174642523Y-101071380D02*
X174071095Y-101071380D01*
X174356809Y-101071380D02*
X174356809Y-100071380D01*
X174261571Y-100214238D01*
X174166333Y-100309476D01*
X174071095Y-100357095D01*
X174975857Y-100071380D02*
X175642523Y-100071380D01*
X175213952Y-101071380D01*
X119238095Y-81252380D02*
X119238095Y-80252380D01*
X119238095Y-80728571D02*
X119809523Y-80728571D01*
X119809523Y-81252380D02*
X119809523Y-80252380D01*
X120809523Y-81252380D02*
X120238095Y-81252380D01*
X120523809Y-81252380D02*
X120523809Y-80252380D01*
X120428571Y-80395238D01*
X120333333Y-80490476D01*
X120238095Y-80538095D01*
X140380642Y-107414380D02*
X140047309Y-106938190D01*
X139809214Y-107414380D02*
X139809214Y-106414380D01*
X140190166Y-106414380D01*
X140285404Y-106462000D01*
X140333023Y-106509619D01*
X140380642Y-106604857D01*
X140380642Y-106747714D01*
X140333023Y-106842952D01*
X140285404Y-106890571D01*
X140190166Y-106938190D01*
X139809214Y-106938190D01*
X141333023Y-107414380D02*
X140761595Y-107414380D01*
X141047309Y-107414380D02*
X141047309Y-106414380D01*
X140952071Y-106557238D01*
X140856833Y-106652476D01*
X140761595Y-106700095D01*
X142285404Y-107414380D02*
X141713976Y-107414380D01*
X141999690Y-107414380D02*
X141999690Y-106414380D01*
X141904452Y-106557238D01*
X141809214Y-106652476D01*
X141713976Y-106700095D01*
M02*
