M48
; DRILL file {KiCad (5.1.5-0)} date Thursday, December 17, 2020 at 08:30:54 PM
; FORMAT={-:-/ absolute / inch / decimal}
; #@! TF.CreationDate,2020-12-17T20:30:54-08:00
; #@! TF.GenerationSoftware,Kicad,Pcbnew,(5.1.5-0)
; #@! TF.FileFunction,Plated,1,4,PTH
FMAT,2
INCH
T1C0.0100
T2C0.0157
T3C0.0354
%
G90
G05
T1
X6.8898Y-3.8484
X6.9094Y-4.4193
T2
X4.6772Y-3.8563
X4.687Y-3.6791
X4.7126Y-3.9429
X4.7224Y-3.8878
X4.7638Y-3.8878
X4.8071Y-3.8878
X4.8209Y-4.1378
X4.8701Y-3.8524
X5.2657Y-4.4882
X5.4118Y-3.9591
X5.5335Y-4.0197
X5.5733Y-4.8207
X5.5964Y-4.0763
X5.6164Y-3.8763
X5.7283Y-4.7146
X5.7764Y-3.9163
X5.8164Y-3.9763
X5.8733Y-5.0107
X5.9083Y-4.8707
X5.9646Y-4.4882
X5.9664Y-3.9763
X6.1133Y-4.7707
X6.1142Y-4.8169
X6.1909Y-4.8917
X6.25Y-4.7835
X6.3287Y-4.8287
X6.3383Y-3.7977
X6.372Y-4.7224
X6.4094Y-5.0256
X6.435Y-4.7992
X6.5157Y-3.3366
X6.565Y-3.3366
X6.6033Y-3.8677
X6.6142Y-3.3366
X6.6673Y-3.8524
X6.6783Y-3.9027
X6.6991Y-3.3748
X6.7146Y-4.2402
X6.7249Y-4.5013
X6.7421Y-3.2298
X6.9299Y-4.3163
X6.9433Y-3.7227
X6.9433Y-3.7927
T3
X6.3805Y-3.2776
X6.3805Y-3.4941
X6.8478Y-3.2776
X6.8478Y-3.4941
T0
M30
