G04 #@! TF.GenerationSoftware,KiCad,Pcbnew,(5.1.9-0-10_14)*
G04 #@! TF.CreationDate,2021-05-06T17:38:12-07:00*
G04 #@! TF.ProjectId,Luminometer_ADC,4c756d69-6e6f-46d6-9574-65725f414443,rev?*
G04 #@! TF.SameCoordinates,Original*
G04 #@! TF.FileFunction,Soldermask,Top*
G04 #@! TF.FilePolarity,Negative*
%FSLAX46Y46*%
G04 Gerber Fmt 4.6, Leading zero omitted, Abs format (unit mm)*
G04 Created by KiCad (PCBNEW (5.1.9-0-10_14)) date 2021-05-06 17:38:12*
%MOMM*%
%LPD*%
G01*
G04 APERTURE LIST*
%ADD10C,1.701600*%
%ADD11C,1.451600*%
%ADD12C,5.101600*%
%ADD13C,4.601600*%
%ADD14C,3.901600*%
%ADD15C,0.100000*%
G04 APERTURE END LIST*
D10*
X173385000Y-86000000D03*
X162615000Y-86000000D03*
D11*
X162065000Y-88750000D03*
X173935000Y-88750000D03*
X173935000Y-83250000D03*
X162065000Y-83250000D03*
G36*
G01*
X164374200Y-89300000D02*
X164374200Y-88200000D01*
G75*
G02*
X164425000Y-88149200I50800J0D01*
G01*
X165225000Y-88149200D01*
G75*
G02*
X165275800Y-88200000I0J-50800D01*
G01*
X165275800Y-89300000D01*
G75*
G02*
X165225000Y-89350800I-50800J0D01*
G01*
X164425000Y-89350800D01*
G75*
G02*
X164374200Y-89300000I0J50800D01*
G01*
G37*
G36*
G01*
X165644200Y-89300000D02*
X165644200Y-88200000D01*
G75*
G02*
X165695000Y-88149200I50800J0D01*
G01*
X166495000Y-88149200D01*
G75*
G02*
X166545800Y-88200000I0J-50800D01*
G01*
X166545800Y-89300000D01*
G75*
G02*
X166495000Y-89350800I-50800J0D01*
G01*
X165695000Y-89350800D01*
G75*
G02*
X165644200Y-89300000I0J50800D01*
G01*
G37*
G36*
G01*
X166914200Y-89300000D02*
X166914200Y-88200000D01*
G75*
G02*
X166965000Y-88149200I50800J0D01*
G01*
X167765000Y-88149200D01*
G75*
G02*
X167815800Y-88200000I0J-50800D01*
G01*
X167815800Y-89300000D01*
G75*
G02*
X167765000Y-89350800I-50800J0D01*
G01*
X166965000Y-89350800D01*
G75*
G02*
X166914200Y-89300000I0J50800D01*
G01*
G37*
G36*
G01*
X170724200Y-83800000D02*
X170724200Y-82700000D01*
G75*
G02*
X170775000Y-82649200I50800J0D01*
G01*
X171575000Y-82649200D01*
G75*
G02*
X171625800Y-82700000I0J-50800D01*
G01*
X171625800Y-83800000D01*
G75*
G02*
X171575000Y-83850800I-50800J0D01*
G01*
X170775000Y-83850800D01*
G75*
G02*
X170724200Y-83800000I0J50800D01*
G01*
G37*
G36*
G01*
X169454200Y-83800000D02*
X169454200Y-82700000D01*
G75*
G02*
X169505000Y-82649200I50800J0D01*
G01*
X170305000Y-82649200D01*
G75*
G02*
X170355800Y-82700000I0J-50800D01*
G01*
X170355800Y-83800000D01*
G75*
G02*
X170305000Y-83850800I-50800J0D01*
G01*
X169505000Y-83850800D01*
G75*
G02*
X169454200Y-83800000I0J50800D01*
G01*
G37*
G36*
G01*
X164374200Y-83800000D02*
X164374200Y-82700000D01*
G75*
G02*
X164425000Y-82649200I50800J0D01*
G01*
X165225000Y-82649200D01*
G75*
G02*
X165275800Y-82700000I0J-50800D01*
G01*
X165275800Y-83800000D01*
G75*
G02*
X165225000Y-83850800I-50800J0D01*
G01*
X164425000Y-83850800D01*
G75*
G02*
X164374200Y-83800000I0J50800D01*
G01*
G37*
G36*
G01*
X168184200Y-89300000D02*
X168184200Y-88200000D01*
G75*
G02*
X168235000Y-88149200I50800J0D01*
G01*
X169035000Y-88149200D01*
G75*
G02*
X169085800Y-88200000I0J-50800D01*
G01*
X169085800Y-89300000D01*
G75*
G02*
X169035000Y-89350800I-50800J0D01*
G01*
X168235000Y-89350800D01*
G75*
G02*
X168184200Y-89300000I0J50800D01*
G01*
G37*
G36*
G01*
X169454200Y-89300000D02*
X169454200Y-88200000D01*
G75*
G02*
X169505000Y-88149200I50800J0D01*
G01*
X170305000Y-88149200D01*
G75*
G02*
X170355800Y-88200000I0J-50800D01*
G01*
X170355800Y-89300000D01*
G75*
G02*
X170305000Y-89350800I-50800J0D01*
G01*
X169505000Y-89350800D01*
G75*
G02*
X169454200Y-89300000I0J50800D01*
G01*
G37*
G36*
G01*
X170724200Y-89300000D02*
X170724200Y-88200000D01*
G75*
G02*
X170775000Y-88149200I50800J0D01*
G01*
X171575000Y-88149200D01*
G75*
G02*
X171625800Y-88200000I0J-50800D01*
G01*
X171625800Y-89300000D01*
G75*
G02*
X171575000Y-89350800I-50800J0D01*
G01*
X170775000Y-89350800D01*
G75*
G02*
X170724200Y-89300000I0J50800D01*
G01*
G37*
G36*
G01*
X165644200Y-83800000D02*
X165644200Y-82700000D01*
G75*
G02*
X165695000Y-82649200I50800J0D01*
G01*
X166495000Y-82649200D01*
G75*
G02*
X166545800Y-82700000I0J-50800D01*
G01*
X166545800Y-83800000D01*
G75*
G02*
X166495000Y-83850800I-50800J0D01*
G01*
X165695000Y-83850800D01*
G75*
G02*
X165644200Y-83800000I0J50800D01*
G01*
G37*
G36*
G01*
X166914200Y-83800000D02*
X166914200Y-82700000D01*
G75*
G02*
X166965000Y-82649200I50800J0D01*
G01*
X167765000Y-82649200D01*
G75*
G02*
X167815800Y-82700000I0J-50800D01*
G01*
X167815800Y-83800000D01*
G75*
G02*
X167765000Y-83850800I-50800J0D01*
G01*
X166965000Y-83850800D01*
G75*
G02*
X166914200Y-83800000I0J50800D01*
G01*
G37*
G36*
G01*
X168184200Y-83800000D02*
X168184200Y-82700000D01*
G75*
G02*
X168235000Y-82649200I50800J0D01*
G01*
X169035000Y-82649200D01*
G75*
G02*
X169085800Y-82700000I0J-50800D01*
G01*
X169085800Y-83800000D01*
G75*
G02*
X169035000Y-83850800I-50800J0D01*
G01*
X168235000Y-83850800D01*
G75*
G02*
X168184200Y-83800000I0J50800D01*
G01*
G37*
G36*
G01*
X148666000Y-99391000D02*
X150166000Y-99391000D01*
G75*
G02*
X150236000Y-99461000I0J-70000D01*
G01*
X150236000Y-100011000D01*
G75*
G02*
X150166000Y-100081000I-70000J0D01*
G01*
X148666000Y-100081000D01*
G75*
G02*
X148596000Y-100011000I0J70000D01*
G01*
X148596000Y-99461000D01*
G75*
G02*
X148666000Y-99391000I70000J0D01*
G01*
G37*
G36*
G01*
X148666000Y-100661000D02*
X150166000Y-100661000D01*
G75*
G02*
X150236000Y-100731000I0J-70000D01*
G01*
X150236000Y-101281000D01*
G75*
G02*
X150166000Y-101351000I-70000J0D01*
G01*
X148666000Y-101351000D01*
G75*
G02*
X148596000Y-101281000I0J70000D01*
G01*
X148596000Y-100731000D01*
G75*
G02*
X148666000Y-100661000I70000J0D01*
G01*
G37*
G36*
G01*
X148666000Y-101931000D02*
X150166000Y-101931000D01*
G75*
G02*
X150236000Y-102001000I0J-70000D01*
G01*
X150236000Y-102551000D01*
G75*
G02*
X150166000Y-102621000I-70000J0D01*
G01*
X148666000Y-102621000D01*
G75*
G02*
X148596000Y-102551000I0J70000D01*
G01*
X148596000Y-102001000D01*
G75*
G02*
X148666000Y-101931000I70000J0D01*
G01*
G37*
G36*
G01*
X148666000Y-103201000D02*
X150166000Y-103201000D01*
G75*
G02*
X150236000Y-103271000I0J-70000D01*
G01*
X150236000Y-103821000D01*
G75*
G02*
X150166000Y-103891000I-70000J0D01*
G01*
X148666000Y-103891000D01*
G75*
G02*
X148596000Y-103821000I0J70000D01*
G01*
X148596000Y-103271000D01*
G75*
G02*
X148666000Y-103201000I70000J0D01*
G01*
G37*
G36*
G01*
X148666000Y-104471000D02*
X150166000Y-104471000D01*
G75*
G02*
X150236000Y-104541000I0J-70000D01*
G01*
X150236000Y-105091000D01*
G75*
G02*
X150166000Y-105161000I-70000J0D01*
G01*
X148666000Y-105161000D01*
G75*
G02*
X148596000Y-105091000I0J70000D01*
G01*
X148596000Y-104541000D01*
G75*
G02*
X148666000Y-104471000I70000J0D01*
G01*
G37*
G36*
G01*
X148666000Y-105741000D02*
X150166000Y-105741000D01*
G75*
G02*
X150236000Y-105811000I0J-70000D01*
G01*
X150236000Y-106361000D01*
G75*
G02*
X150166000Y-106431000I-70000J0D01*
G01*
X148666000Y-106431000D01*
G75*
G02*
X148596000Y-106361000I0J70000D01*
G01*
X148596000Y-105811000D01*
G75*
G02*
X148666000Y-105741000I70000J0D01*
G01*
G37*
G36*
G01*
X148666000Y-107011000D02*
X150166000Y-107011000D01*
G75*
G02*
X150236000Y-107081000I0J-70000D01*
G01*
X150236000Y-107631000D01*
G75*
G02*
X150166000Y-107701000I-70000J0D01*
G01*
X148666000Y-107701000D01*
G75*
G02*
X148596000Y-107631000I0J70000D01*
G01*
X148596000Y-107081000D01*
G75*
G02*
X148666000Y-107011000I70000J0D01*
G01*
G37*
G36*
G01*
X143266000Y-107011000D02*
X144766000Y-107011000D01*
G75*
G02*
X144836000Y-107081000I0J-70000D01*
G01*
X144836000Y-107631000D01*
G75*
G02*
X144766000Y-107701000I-70000J0D01*
G01*
X143266000Y-107701000D01*
G75*
G02*
X143196000Y-107631000I0J70000D01*
G01*
X143196000Y-107081000D01*
G75*
G02*
X143266000Y-107011000I70000J0D01*
G01*
G37*
G36*
G01*
X143266000Y-105741000D02*
X144766000Y-105741000D01*
G75*
G02*
X144836000Y-105811000I0J-70000D01*
G01*
X144836000Y-106361000D01*
G75*
G02*
X144766000Y-106431000I-70000J0D01*
G01*
X143266000Y-106431000D01*
G75*
G02*
X143196000Y-106361000I0J70000D01*
G01*
X143196000Y-105811000D01*
G75*
G02*
X143266000Y-105741000I70000J0D01*
G01*
G37*
G36*
G01*
X143266000Y-104471000D02*
X144766000Y-104471000D01*
G75*
G02*
X144836000Y-104541000I0J-70000D01*
G01*
X144836000Y-105091000D01*
G75*
G02*
X144766000Y-105161000I-70000J0D01*
G01*
X143266000Y-105161000D01*
G75*
G02*
X143196000Y-105091000I0J70000D01*
G01*
X143196000Y-104541000D01*
G75*
G02*
X143266000Y-104471000I70000J0D01*
G01*
G37*
G36*
G01*
X143266000Y-103201000D02*
X144766000Y-103201000D01*
G75*
G02*
X144836000Y-103271000I0J-70000D01*
G01*
X144836000Y-103821000D01*
G75*
G02*
X144766000Y-103891000I-70000J0D01*
G01*
X143266000Y-103891000D01*
G75*
G02*
X143196000Y-103821000I0J70000D01*
G01*
X143196000Y-103271000D01*
G75*
G02*
X143266000Y-103201000I70000J0D01*
G01*
G37*
G36*
G01*
X143266000Y-101931000D02*
X144766000Y-101931000D01*
G75*
G02*
X144836000Y-102001000I0J-70000D01*
G01*
X144836000Y-102551000D01*
G75*
G02*
X144766000Y-102621000I-70000J0D01*
G01*
X143266000Y-102621000D01*
G75*
G02*
X143196000Y-102551000I0J70000D01*
G01*
X143196000Y-102001000D01*
G75*
G02*
X143266000Y-101931000I70000J0D01*
G01*
G37*
G36*
G01*
X143266000Y-100661000D02*
X144766000Y-100661000D01*
G75*
G02*
X144836000Y-100731000I0J-70000D01*
G01*
X144836000Y-101281000D01*
G75*
G02*
X144766000Y-101351000I-70000J0D01*
G01*
X143266000Y-101351000D01*
G75*
G02*
X143196000Y-101281000I0J70000D01*
G01*
X143196000Y-100731000D01*
G75*
G02*
X143266000Y-100661000I70000J0D01*
G01*
G37*
G36*
G01*
X143266000Y-99391000D02*
X144766000Y-99391000D01*
G75*
G02*
X144836000Y-99461000I0J-70000D01*
G01*
X144836000Y-100011000D01*
G75*
G02*
X144766000Y-100081000I-70000J0D01*
G01*
X143266000Y-100081000D01*
G75*
G02*
X143196000Y-100011000I0J70000D01*
G01*
X143196000Y-99461000D01*
G75*
G02*
X143266000Y-99391000I70000J0D01*
G01*
G37*
D12*
X147500000Y-115000000D03*
X176500000Y-126500000D03*
D13*
X138500000Y-93000000D03*
D14*
X151500000Y-88000000D03*
D12*
X118500000Y-126500000D03*
D13*
X156500000Y-93000000D03*
D14*
X143500000Y-88000000D03*
D12*
X118500000Y-83500000D03*
G36*
G01*
X169449600Y-108874200D02*
X170050400Y-108874200D01*
G75*
G02*
X170275800Y-109099600I0J-225400D01*
G01*
X170275800Y-109550400D01*
G75*
G02*
X170050400Y-109775800I-225400J0D01*
G01*
X169449600Y-109775800D01*
G75*
G02*
X169224200Y-109550400I0J225400D01*
G01*
X169224200Y-109099600D01*
G75*
G02*
X169449600Y-108874200I225400J0D01*
G01*
G37*
G36*
G01*
X169449600Y-107224200D02*
X170050400Y-107224200D01*
G75*
G02*
X170275800Y-107449600I0J-225400D01*
G01*
X170275800Y-107900400D01*
G75*
G02*
X170050400Y-108125800I-225400J0D01*
G01*
X169449600Y-108125800D01*
G75*
G02*
X169224200Y-107900400I0J225400D01*
G01*
X169224200Y-107449600D01*
G75*
G02*
X169449600Y-107224200I225400J0D01*
G01*
G37*
G36*
G01*
X171199600Y-108874200D02*
X171800400Y-108874200D01*
G75*
G02*
X172025800Y-109099600I0J-225400D01*
G01*
X172025800Y-109550400D01*
G75*
G02*
X171800400Y-109775800I-225400J0D01*
G01*
X171199600Y-109775800D01*
G75*
G02*
X170974200Y-109550400I0J225400D01*
G01*
X170974200Y-109099600D01*
G75*
G02*
X171199600Y-108874200I225400J0D01*
G01*
G37*
G36*
G01*
X171199600Y-107224200D02*
X171800400Y-107224200D01*
G75*
G02*
X172025800Y-107449600I0J-225400D01*
G01*
X172025800Y-107900400D01*
G75*
G02*
X171800400Y-108125800I-225400J0D01*
G01*
X171199600Y-108125800D01*
G75*
G02*
X170974200Y-107900400I0J225400D01*
G01*
X170974200Y-107449600D01*
G75*
G02*
X171199600Y-107224200I225400J0D01*
G01*
G37*
G36*
G01*
X167449600Y-108874200D02*
X168050400Y-108874200D01*
G75*
G02*
X168275800Y-109099600I0J-225400D01*
G01*
X168275800Y-109550400D01*
G75*
G02*
X168050400Y-109775800I-225400J0D01*
G01*
X167449600Y-109775800D01*
G75*
G02*
X167224200Y-109550400I0J225400D01*
G01*
X167224200Y-109099600D01*
G75*
G02*
X167449600Y-108874200I225400J0D01*
G01*
G37*
G36*
G01*
X167449600Y-107224200D02*
X168050400Y-107224200D01*
G75*
G02*
X168275800Y-107449600I0J-225400D01*
G01*
X168275800Y-107900400D01*
G75*
G02*
X168050400Y-108125800I-225400J0D01*
G01*
X167449600Y-108125800D01*
G75*
G02*
X167224200Y-107900400I0J225400D01*
G01*
X167224200Y-107449600D01*
G75*
G02*
X167449600Y-107224200I225400J0D01*
G01*
G37*
G36*
G01*
X165699600Y-108874200D02*
X166300400Y-108874200D01*
G75*
G02*
X166525800Y-109099600I0J-225400D01*
G01*
X166525800Y-109550400D01*
G75*
G02*
X166300400Y-109775800I-225400J0D01*
G01*
X165699600Y-109775800D01*
G75*
G02*
X165474200Y-109550400I0J225400D01*
G01*
X165474200Y-109099600D01*
G75*
G02*
X165699600Y-108874200I225400J0D01*
G01*
G37*
G36*
G01*
X165699600Y-107224200D02*
X166300400Y-107224200D01*
G75*
G02*
X166525800Y-107449600I0J-225400D01*
G01*
X166525800Y-107900400D01*
G75*
G02*
X166300400Y-108125800I-225400J0D01*
G01*
X165699600Y-108125800D01*
G75*
G02*
X165474200Y-107900400I0J225400D01*
G01*
X165474200Y-107449600D01*
G75*
G02*
X165699600Y-107224200I225400J0D01*
G01*
G37*
G36*
G01*
X161199600Y-108374200D02*
X161800400Y-108374200D01*
G75*
G02*
X162025800Y-108599600I0J-225400D01*
G01*
X162025800Y-109050400D01*
G75*
G02*
X161800400Y-109275800I-225400J0D01*
G01*
X161199600Y-109275800D01*
G75*
G02*
X160974200Y-109050400I0J225400D01*
G01*
X160974200Y-108599600D01*
G75*
G02*
X161199600Y-108374200I225400J0D01*
G01*
G37*
G36*
G01*
X161199600Y-106724200D02*
X161800400Y-106724200D01*
G75*
G02*
X162025800Y-106949600I0J-225400D01*
G01*
X162025800Y-107400400D01*
G75*
G02*
X161800400Y-107625800I-225400J0D01*
G01*
X161199600Y-107625800D01*
G75*
G02*
X160974200Y-107400400I0J225400D01*
G01*
X160974200Y-106949600D01*
G75*
G02*
X161199600Y-106724200I225400J0D01*
G01*
G37*
G36*
G01*
X163699600Y-108874200D02*
X164300400Y-108874200D01*
G75*
G02*
X164525800Y-109099600I0J-225400D01*
G01*
X164525800Y-109550400D01*
G75*
G02*
X164300400Y-109775800I-225400J0D01*
G01*
X163699600Y-109775800D01*
G75*
G02*
X163474200Y-109550400I0J225400D01*
G01*
X163474200Y-109099600D01*
G75*
G02*
X163699600Y-108874200I225400J0D01*
G01*
G37*
G36*
G01*
X163699600Y-107224200D02*
X164300400Y-107224200D01*
G75*
G02*
X164525800Y-107449600I0J-225400D01*
G01*
X164525800Y-107900400D01*
G75*
G02*
X164300400Y-108125800I-225400J0D01*
G01*
X163699600Y-108125800D01*
G75*
G02*
X163474200Y-107900400I0J225400D01*
G01*
X163474200Y-107449600D01*
G75*
G02*
X163699600Y-107224200I225400J0D01*
G01*
G37*
G36*
G01*
X169449600Y-112624200D02*
X170050400Y-112624200D01*
G75*
G02*
X170275800Y-112849600I0J-225400D01*
G01*
X170275800Y-113300400D01*
G75*
G02*
X170050400Y-113525800I-225400J0D01*
G01*
X169449600Y-113525800D01*
G75*
G02*
X169224200Y-113300400I0J225400D01*
G01*
X169224200Y-112849600D01*
G75*
G02*
X169449600Y-112624200I225400J0D01*
G01*
G37*
G36*
G01*
X169449600Y-110974200D02*
X170050400Y-110974200D01*
G75*
G02*
X170275800Y-111199600I0J-225400D01*
G01*
X170275800Y-111650400D01*
G75*
G02*
X170050400Y-111875800I-225400J0D01*
G01*
X169449600Y-111875800D01*
G75*
G02*
X169224200Y-111650400I0J225400D01*
G01*
X169224200Y-111199600D01*
G75*
G02*
X169449600Y-110974200I225400J0D01*
G01*
G37*
G36*
G01*
X171800400Y-111875800D02*
X171199600Y-111875800D01*
G75*
G02*
X170974200Y-111650400I0J225400D01*
G01*
X170974200Y-111199600D01*
G75*
G02*
X171199600Y-110974200I225400J0D01*
G01*
X171800400Y-110974200D01*
G75*
G02*
X172025800Y-111199600I0J-225400D01*
G01*
X172025800Y-111650400D01*
G75*
G02*
X171800400Y-111875800I-225400J0D01*
G01*
G37*
G36*
G01*
X171800400Y-113525800D02*
X171199600Y-113525800D01*
G75*
G02*
X170974200Y-113300400I0J225400D01*
G01*
X170974200Y-112849600D01*
G75*
G02*
X171199600Y-112624200I225400J0D01*
G01*
X171800400Y-112624200D01*
G75*
G02*
X172025800Y-112849600I0J-225400D01*
G01*
X172025800Y-113300400D01*
G75*
G02*
X171800400Y-113525800I-225400J0D01*
G01*
G37*
G36*
G01*
X165699600Y-112624200D02*
X166300400Y-112624200D01*
G75*
G02*
X166525800Y-112849600I0J-225400D01*
G01*
X166525800Y-113300400D01*
G75*
G02*
X166300400Y-113525800I-225400J0D01*
G01*
X165699600Y-113525800D01*
G75*
G02*
X165474200Y-113300400I0J225400D01*
G01*
X165474200Y-112849600D01*
G75*
G02*
X165699600Y-112624200I225400J0D01*
G01*
G37*
G36*
G01*
X165699600Y-110974200D02*
X166300400Y-110974200D01*
G75*
G02*
X166525800Y-111199600I0J-225400D01*
G01*
X166525800Y-111650400D01*
G75*
G02*
X166300400Y-111875800I-225400J0D01*
G01*
X165699600Y-111875800D01*
G75*
G02*
X165474200Y-111650400I0J225400D01*
G01*
X165474200Y-111199600D01*
G75*
G02*
X165699600Y-110974200I225400J0D01*
G01*
G37*
G36*
G01*
X168050400Y-111875800D02*
X167449600Y-111875800D01*
G75*
G02*
X167224200Y-111650400I0J225400D01*
G01*
X167224200Y-111199600D01*
G75*
G02*
X167449600Y-110974200I225400J0D01*
G01*
X168050400Y-110974200D01*
G75*
G02*
X168275800Y-111199600I0J-225400D01*
G01*
X168275800Y-111650400D01*
G75*
G02*
X168050400Y-111875800I-225400J0D01*
G01*
G37*
G36*
G01*
X168050400Y-113525800D02*
X167449600Y-113525800D01*
G75*
G02*
X167224200Y-113300400I0J225400D01*
G01*
X167224200Y-112849600D01*
G75*
G02*
X167449600Y-112624200I225400J0D01*
G01*
X168050400Y-112624200D01*
G75*
G02*
X168275800Y-112849600I0J-225400D01*
G01*
X168275800Y-113300400D01*
G75*
G02*
X168050400Y-113525800I-225400J0D01*
G01*
G37*
G36*
G01*
X168449600Y-123624200D02*
X169050400Y-123624200D01*
G75*
G02*
X169275800Y-123849600I0J-225400D01*
G01*
X169275800Y-124300400D01*
G75*
G02*
X169050400Y-124525800I-225400J0D01*
G01*
X168449600Y-124525800D01*
G75*
G02*
X168224200Y-124300400I0J225400D01*
G01*
X168224200Y-123849600D01*
G75*
G02*
X168449600Y-123624200I225400J0D01*
G01*
G37*
G36*
G01*
X168449600Y-121974200D02*
X169050400Y-121974200D01*
G75*
G02*
X169275800Y-122199600I0J-225400D01*
G01*
X169275800Y-122650400D01*
G75*
G02*
X169050400Y-122875800I-225400J0D01*
G01*
X168449600Y-122875800D01*
G75*
G02*
X168224200Y-122650400I0J225400D01*
G01*
X168224200Y-122199600D01*
G75*
G02*
X168449600Y-121974200I225400J0D01*
G01*
G37*
G36*
G01*
X170475800Y-105474600D02*
X170475800Y-106025400D01*
G75*
G02*
X170225400Y-106275800I-250400J0D01*
G01*
X169724600Y-106275800D01*
G75*
G02*
X169474200Y-106025400I0J250400D01*
G01*
X169474200Y-105474600D01*
G75*
G02*
X169724600Y-105224200I250400J0D01*
G01*
X170225400Y-105224200D01*
G75*
G02*
X170475800Y-105474600I0J-250400D01*
G01*
G37*
G36*
G01*
X172025800Y-105474600D02*
X172025800Y-106025400D01*
G75*
G02*
X171775400Y-106275800I-250400J0D01*
G01*
X171274600Y-106275800D01*
G75*
G02*
X171024200Y-106025400I0J250400D01*
G01*
X171024200Y-105474600D01*
G75*
G02*
X171274600Y-105224200I250400J0D01*
G01*
X171775400Y-105224200D01*
G75*
G02*
X172025800Y-105474600I0J-250400D01*
G01*
G37*
G36*
G01*
X167274200Y-106025400D02*
X167274200Y-105474600D01*
G75*
G02*
X167524600Y-105224200I250400J0D01*
G01*
X168025400Y-105224200D01*
G75*
G02*
X168275800Y-105474600I0J-250400D01*
G01*
X168275800Y-106025400D01*
G75*
G02*
X168025400Y-106275800I-250400J0D01*
G01*
X167524600Y-106275800D01*
G75*
G02*
X167274200Y-106025400I0J250400D01*
G01*
G37*
G36*
G01*
X165724200Y-106025400D02*
X165724200Y-105474600D01*
G75*
G02*
X165974600Y-105224200I250400J0D01*
G01*
X166475400Y-105224200D01*
G75*
G02*
X166725800Y-105474600I0J-250400D01*
G01*
X166725800Y-106025400D01*
G75*
G02*
X166475400Y-106275800I-250400J0D01*
G01*
X165974600Y-106275800D01*
G75*
G02*
X165724200Y-106025400I0J250400D01*
G01*
G37*
G36*
G01*
X164525400Y-104725800D02*
X163974600Y-104725800D01*
G75*
G02*
X163724200Y-104475400I0J250400D01*
G01*
X163724200Y-103974600D01*
G75*
G02*
X163974600Y-103724200I250400J0D01*
G01*
X164525400Y-103724200D01*
G75*
G02*
X164775800Y-103974600I0J-250400D01*
G01*
X164775800Y-104475400D01*
G75*
G02*
X164525400Y-104725800I-250400J0D01*
G01*
G37*
G36*
G01*
X164525400Y-106275800D02*
X163974600Y-106275800D01*
G75*
G02*
X163724200Y-106025400I0J250400D01*
G01*
X163724200Y-105524600D01*
G75*
G02*
X163974600Y-105274200I250400J0D01*
G01*
X164525400Y-105274200D01*
G75*
G02*
X164775800Y-105524600I0J-250400D01*
G01*
X164775800Y-106025400D01*
G75*
G02*
X164525400Y-106275800I-250400J0D01*
G01*
G37*
G36*
G01*
X159175800Y-119699600D02*
X159175800Y-120300400D01*
G75*
G02*
X158950400Y-120525800I-225400J0D01*
G01*
X158499600Y-120525800D01*
G75*
G02*
X158274200Y-120300400I0J225400D01*
G01*
X158274200Y-119699600D01*
G75*
G02*
X158499600Y-119474200I225400J0D01*
G01*
X158950400Y-119474200D01*
G75*
G02*
X159175800Y-119699600I0J-225400D01*
G01*
G37*
G36*
G01*
X160825800Y-119699600D02*
X160825800Y-120300400D01*
G75*
G02*
X160600400Y-120525800I-225400J0D01*
G01*
X160149600Y-120525800D01*
G75*
G02*
X159924200Y-120300400I0J225400D01*
G01*
X159924200Y-119699600D01*
G75*
G02*
X160149600Y-119474200I225400J0D01*
G01*
X160600400Y-119474200D01*
G75*
G02*
X160825800Y-119699600I0J-225400D01*
G01*
G37*
G36*
G01*
X165375800Y-119649600D02*
X165375800Y-120250400D01*
G75*
G02*
X165150400Y-120475800I-225400J0D01*
G01*
X164699600Y-120475800D01*
G75*
G02*
X164474200Y-120250400I0J225400D01*
G01*
X164474200Y-119649600D01*
G75*
G02*
X164699600Y-119424200I225400J0D01*
G01*
X165150400Y-119424200D01*
G75*
G02*
X165375800Y-119649600I0J-225400D01*
G01*
G37*
G36*
G01*
X167025800Y-119649600D02*
X167025800Y-120250400D01*
G75*
G02*
X166800400Y-120475800I-225400J0D01*
G01*
X166349600Y-120475800D01*
G75*
G02*
X166124200Y-120250400I0J225400D01*
G01*
X166124200Y-119649600D01*
G75*
G02*
X166349600Y-119424200I225400J0D01*
G01*
X166800400Y-119424200D01*
G75*
G02*
X167025800Y-119649600I0J-225400D01*
G01*
G37*
G36*
G01*
X163291400Y-96394300D02*
X162740600Y-96394300D01*
G75*
G02*
X162490200Y-96143900I0J250400D01*
G01*
X162490200Y-95643100D01*
G75*
G02*
X162740600Y-95392700I250400J0D01*
G01*
X163291400Y-95392700D01*
G75*
G02*
X163541800Y-95643100I0J-250400D01*
G01*
X163541800Y-96143900D01*
G75*
G02*
X163291400Y-96394300I-250400J0D01*
G01*
G37*
G36*
G01*
X163291400Y-97944300D02*
X162740600Y-97944300D01*
G75*
G02*
X162490200Y-97693900I0J250400D01*
G01*
X162490200Y-97193100D01*
G75*
G02*
X162740600Y-96942700I250400J0D01*
G01*
X163291400Y-96942700D01*
G75*
G02*
X163541800Y-97193100I0J-250400D01*
G01*
X163541800Y-97693900D01*
G75*
G02*
X163291400Y-97944300I-250400J0D01*
G01*
G37*
G36*
G01*
X125874200Y-100975400D02*
X125874200Y-100424600D01*
G75*
G02*
X126124600Y-100174200I250400J0D01*
G01*
X126625400Y-100174200D01*
G75*
G02*
X126875800Y-100424600I0J-250400D01*
G01*
X126875800Y-100975400D01*
G75*
G02*
X126625400Y-101225800I-250400J0D01*
G01*
X126124600Y-101225800D01*
G75*
G02*
X125874200Y-100975400I0J250400D01*
G01*
G37*
G36*
G01*
X124324200Y-100975400D02*
X124324200Y-100424600D01*
G75*
G02*
X124574600Y-100174200I250400J0D01*
G01*
X125075400Y-100174200D01*
G75*
G02*
X125325800Y-100424600I0J-250400D01*
G01*
X125325800Y-100975400D01*
G75*
G02*
X125075400Y-101225800I-250400J0D01*
G01*
X124574600Y-101225800D01*
G75*
G02*
X124324200Y-100975400I0J250400D01*
G01*
G37*
G36*
G01*
X118524600Y-96324200D02*
X119075400Y-96324200D01*
G75*
G02*
X119325800Y-96574600I0J-250400D01*
G01*
X119325800Y-97075400D01*
G75*
G02*
X119075400Y-97325800I-250400J0D01*
G01*
X118524600Y-97325800D01*
G75*
G02*
X118274200Y-97075400I0J250400D01*
G01*
X118274200Y-96574600D01*
G75*
G02*
X118524600Y-96324200I250400J0D01*
G01*
G37*
G36*
G01*
X118524600Y-94774200D02*
X119075400Y-94774200D01*
G75*
G02*
X119325800Y-95024600I0J-250400D01*
G01*
X119325800Y-95525400D01*
G75*
G02*
X119075400Y-95775800I-250400J0D01*
G01*
X118524600Y-95775800D01*
G75*
G02*
X118274200Y-95525400I0J250400D01*
G01*
X118274200Y-95024600D01*
G75*
G02*
X118524600Y-94774200I250400J0D01*
G01*
G37*
G36*
G01*
X165525800Y-121674600D02*
X165525800Y-122225400D01*
G75*
G02*
X165275400Y-122475800I-250400J0D01*
G01*
X164774600Y-122475800D01*
G75*
G02*
X164524200Y-122225400I0J250400D01*
G01*
X164524200Y-121674600D01*
G75*
G02*
X164774600Y-121424200I250400J0D01*
G01*
X165275400Y-121424200D01*
G75*
G02*
X165525800Y-121674600I0J-250400D01*
G01*
G37*
G36*
G01*
X167075800Y-121674600D02*
X167075800Y-122225400D01*
G75*
G02*
X166825400Y-122475800I-250400J0D01*
G01*
X166324600Y-122475800D01*
G75*
G02*
X166074200Y-122225400I0J250400D01*
G01*
X166074200Y-121674600D01*
G75*
G02*
X166324600Y-121424200I250400J0D01*
G01*
X166825400Y-121424200D01*
G75*
G02*
X167075800Y-121674600I0J-250400D01*
G01*
G37*
G36*
G01*
X162574600Y-125274200D02*
X163125400Y-125274200D01*
G75*
G02*
X163375800Y-125524600I0J-250400D01*
G01*
X163375800Y-126025400D01*
G75*
G02*
X163125400Y-126275800I-250400J0D01*
G01*
X162574600Y-126275800D01*
G75*
G02*
X162324200Y-126025400I0J250400D01*
G01*
X162324200Y-125524600D01*
G75*
G02*
X162574600Y-125274200I250400J0D01*
G01*
G37*
G36*
G01*
X162574600Y-123724200D02*
X163125400Y-123724200D01*
G75*
G02*
X163375800Y-123974600I0J-250400D01*
G01*
X163375800Y-124475400D01*
G75*
G02*
X163125400Y-124725800I-250400J0D01*
G01*
X162574600Y-124725800D01*
G75*
G02*
X162324200Y-124475400I0J250400D01*
G01*
X162324200Y-123974600D01*
G75*
G02*
X162574600Y-123724200I250400J0D01*
G01*
G37*
G36*
G01*
X138000600Y-100521700D02*
X138551400Y-100521700D01*
G75*
G02*
X138801800Y-100772100I0J-250400D01*
G01*
X138801800Y-101272900D01*
G75*
G02*
X138551400Y-101523300I-250400J0D01*
G01*
X138000600Y-101523300D01*
G75*
G02*
X137750200Y-101272900I0J250400D01*
G01*
X137750200Y-100772100D01*
G75*
G02*
X138000600Y-100521700I250400J0D01*
G01*
G37*
G36*
G01*
X138000600Y-98971700D02*
X138551400Y-98971700D01*
G75*
G02*
X138801800Y-99222100I0J-250400D01*
G01*
X138801800Y-99722900D01*
G75*
G02*
X138551400Y-99973300I-250400J0D01*
G01*
X138000600Y-99973300D01*
G75*
G02*
X137750200Y-99722900I0J250400D01*
G01*
X137750200Y-99222100D01*
G75*
G02*
X138000600Y-98971700I250400J0D01*
G01*
G37*
G36*
G01*
X159400000Y-125749200D02*
X160200000Y-125749200D01*
G75*
G02*
X160250800Y-125800000I0J-50800D01*
G01*
X160250800Y-126700000D01*
G75*
G02*
X160200000Y-126750800I-50800J0D01*
G01*
X159400000Y-126750800D01*
G75*
G02*
X159349200Y-126700000I0J50800D01*
G01*
X159349200Y-125800000D01*
G75*
G02*
X159400000Y-125749200I50800J0D01*
G01*
G37*
G36*
G01*
X158450000Y-123749200D02*
X159250000Y-123749200D01*
G75*
G02*
X159300800Y-123800000I0J-50800D01*
G01*
X159300800Y-124700000D01*
G75*
G02*
X159250000Y-124750800I-50800J0D01*
G01*
X158450000Y-124750800D01*
G75*
G02*
X158399200Y-124700000I0J50800D01*
G01*
X158399200Y-123800000D01*
G75*
G02*
X158450000Y-123749200I50800J0D01*
G01*
G37*
G36*
G01*
X160350000Y-123749200D02*
X161150000Y-123749200D01*
G75*
G02*
X161200800Y-123800000I0J-50800D01*
G01*
X161200800Y-124700000D01*
G75*
G02*
X161150000Y-124750800I-50800J0D01*
G01*
X160350000Y-124750800D01*
G75*
G02*
X160299200Y-124700000I0J50800D01*
G01*
X160299200Y-123800000D01*
G75*
G02*
X160350000Y-123749200I50800J0D01*
G01*
G37*
G36*
G01*
X147207700Y-110335400D02*
X147207700Y-109734600D01*
G75*
G02*
X147433100Y-109509200I225400J0D01*
G01*
X147883900Y-109509200D01*
G75*
G02*
X148109300Y-109734600I0J-225400D01*
G01*
X148109300Y-110335400D01*
G75*
G02*
X147883900Y-110560800I-225400J0D01*
G01*
X147433100Y-110560800D01*
G75*
G02*
X147207700Y-110335400I0J225400D01*
G01*
G37*
G36*
G01*
X145557700Y-110335400D02*
X145557700Y-109734600D01*
G75*
G02*
X145783100Y-109509200I225400J0D01*
G01*
X146233900Y-109509200D01*
G75*
G02*
X146459300Y-109734600I0J-225400D01*
G01*
X146459300Y-110335400D01*
G75*
G02*
X146233900Y-110560800I-225400J0D01*
G01*
X145783100Y-110560800D01*
G75*
G02*
X145557700Y-110335400I0J225400D01*
G01*
G37*
G36*
G01*
X153096400Y-99873300D02*
X152495600Y-99873300D01*
G75*
G02*
X152270200Y-99647900I0J225400D01*
G01*
X152270200Y-99197100D01*
G75*
G02*
X152495600Y-98971700I225400J0D01*
G01*
X153096400Y-98971700D01*
G75*
G02*
X153321800Y-99197100I0J-225400D01*
G01*
X153321800Y-99647900D01*
G75*
G02*
X153096400Y-99873300I-225400J0D01*
G01*
G37*
G36*
G01*
X153096400Y-101523300D02*
X152495600Y-101523300D01*
G75*
G02*
X152270200Y-101297900I0J225400D01*
G01*
X152270200Y-100847100D01*
G75*
G02*
X152495600Y-100621700I225400J0D01*
G01*
X153096400Y-100621700D01*
G75*
G02*
X153321800Y-100847100I0J-225400D01*
G01*
X153321800Y-101297900D01*
G75*
G02*
X153096400Y-101523300I-225400J0D01*
G01*
G37*
G36*
G01*
X156659300Y-98922600D02*
X156659300Y-99523400D01*
G75*
G02*
X156433900Y-99748800I-225400J0D01*
G01*
X155983100Y-99748800D01*
G75*
G02*
X155757700Y-99523400I0J225400D01*
G01*
X155757700Y-98922600D01*
G75*
G02*
X155983100Y-98697200I225400J0D01*
G01*
X156433900Y-98697200D01*
G75*
G02*
X156659300Y-98922600I0J-225400D01*
G01*
G37*
G36*
G01*
X158309300Y-98922600D02*
X158309300Y-99523400D01*
G75*
G02*
X158083900Y-99748800I-225400J0D01*
G01*
X157633100Y-99748800D01*
G75*
G02*
X157407700Y-99523400I0J225400D01*
G01*
X157407700Y-98922600D01*
G75*
G02*
X157633100Y-98697200I225400J0D01*
G01*
X158083900Y-98697200D01*
G75*
G02*
X158309300Y-98922600I0J-225400D01*
G01*
G37*
G36*
G01*
X156651300Y-103168600D02*
X156651300Y-103769400D01*
G75*
G02*
X156425900Y-103994800I-225400J0D01*
G01*
X155975100Y-103994800D01*
G75*
G02*
X155749700Y-103769400I0J225400D01*
G01*
X155749700Y-103168600D01*
G75*
G02*
X155975100Y-102943200I225400J0D01*
G01*
X156425900Y-102943200D01*
G75*
G02*
X156651300Y-103168600I0J-225400D01*
G01*
G37*
G36*
G01*
X158301300Y-103168600D02*
X158301300Y-103769400D01*
G75*
G02*
X158075900Y-103994800I-225400J0D01*
G01*
X157625100Y-103994800D01*
G75*
G02*
X157399700Y-103769400I0J225400D01*
G01*
X157399700Y-103168600D01*
G75*
G02*
X157625100Y-102943200I225400J0D01*
G01*
X158075900Y-102943200D01*
G75*
G02*
X158301300Y-103168600I0J-225400D01*
G01*
G37*
G36*
G01*
X156651300Y-105708600D02*
X156651300Y-106309400D01*
G75*
G02*
X156425900Y-106534800I-225400J0D01*
G01*
X155975100Y-106534800D01*
G75*
G02*
X155749700Y-106309400I0J225400D01*
G01*
X155749700Y-105708600D01*
G75*
G02*
X155975100Y-105483200I225400J0D01*
G01*
X156425900Y-105483200D01*
G75*
G02*
X156651300Y-105708600I0J-225400D01*
G01*
G37*
G36*
G01*
X158301300Y-105708600D02*
X158301300Y-106309400D01*
G75*
G02*
X158075900Y-106534800I-225400J0D01*
G01*
X157625100Y-106534800D01*
G75*
G02*
X157399700Y-106309400I0J225400D01*
G01*
X157399700Y-105708600D01*
G75*
G02*
X157625100Y-105483200I225400J0D01*
G01*
X158075900Y-105483200D01*
G75*
G02*
X158301300Y-105708600I0J-225400D01*
G01*
G37*
G36*
G01*
X138000600Y-107005700D02*
X138551400Y-107005700D01*
G75*
G02*
X138801800Y-107256100I0J-250400D01*
G01*
X138801800Y-107756900D01*
G75*
G02*
X138551400Y-108007300I-250400J0D01*
G01*
X138000600Y-108007300D01*
G75*
G02*
X137750200Y-107756900I0J250400D01*
G01*
X137750200Y-107256100D01*
G75*
G02*
X138000600Y-107005700I250400J0D01*
G01*
G37*
G36*
G01*
X138000600Y-105455700D02*
X138551400Y-105455700D01*
G75*
G02*
X138801800Y-105706100I0J-250400D01*
G01*
X138801800Y-106206900D01*
G75*
G02*
X138551400Y-106457300I-250400J0D01*
G01*
X138000600Y-106457300D01*
G75*
G02*
X137750200Y-106206900I0J250400D01*
G01*
X137750200Y-105706100D01*
G75*
G02*
X138000600Y-105455700I250400J0D01*
G01*
G37*
G36*
G01*
X175404300Y-110028600D02*
X175404300Y-110579400D01*
G75*
G02*
X175153900Y-110829800I-250400J0D01*
G01*
X174653100Y-110829800D01*
G75*
G02*
X174402700Y-110579400I0J250400D01*
G01*
X174402700Y-110028600D01*
G75*
G02*
X174653100Y-109778200I250400J0D01*
G01*
X175153900Y-109778200D01*
G75*
G02*
X175404300Y-110028600I0J-250400D01*
G01*
G37*
G36*
G01*
X176954300Y-110028600D02*
X176954300Y-110579400D01*
G75*
G02*
X176703900Y-110829800I-250400J0D01*
G01*
X176203100Y-110829800D01*
G75*
G02*
X175952700Y-110579400I0J250400D01*
G01*
X175952700Y-110028600D01*
G75*
G02*
X176203100Y-109778200I250400J0D01*
G01*
X176703900Y-109778200D01*
G75*
G02*
X176954300Y-110028600I0J-250400D01*
G01*
G37*
G36*
G01*
X175414300Y-116558600D02*
X175414300Y-117109400D01*
G75*
G02*
X175163900Y-117359800I-250400J0D01*
G01*
X174663100Y-117359800D01*
G75*
G02*
X174412700Y-117109400I0J250400D01*
G01*
X174412700Y-116558600D01*
G75*
G02*
X174663100Y-116308200I250400J0D01*
G01*
X175163900Y-116308200D01*
G75*
G02*
X175414300Y-116558600I0J-250400D01*
G01*
G37*
G36*
G01*
X176964300Y-116558600D02*
X176964300Y-117109400D01*
G75*
G02*
X176713900Y-117359800I-250400J0D01*
G01*
X176213100Y-117359800D01*
G75*
G02*
X175962700Y-117109400I0J250400D01*
G01*
X175962700Y-116558600D01*
G75*
G02*
X176213100Y-116308200I250400J0D01*
G01*
X176713900Y-116308200D01*
G75*
G02*
X176964300Y-116558600I0J-250400D01*
G01*
G37*
G36*
G01*
X160327600Y-103165700D02*
X160878400Y-103165700D01*
G75*
G02*
X161128800Y-103416100I0J-250400D01*
G01*
X161128800Y-103916900D01*
G75*
G02*
X160878400Y-104167300I-250400J0D01*
G01*
X160327600Y-104167300D01*
G75*
G02*
X160077200Y-103916900I0J250400D01*
G01*
X160077200Y-103416100D01*
G75*
G02*
X160327600Y-103165700I250400J0D01*
G01*
G37*
G36*
G01*
X160327600Y-101615700D02*
X160878400Y-101615700D01*
G75*
G02*
X161128800Y-101866100I0J-250400D01*
G01*
X161128800Y-102366900D01*
G75*
G02*
X160878400Y-102617300I-250400J0D01*
G01*
X160327600Y-102617300D01*
G75*
G02*
X160077200Y-102366900I0J250400D01*
G01*
X160077200Y-101866100D01*
G75*
G02*
X160327600Y-101615700I250400J0D01*
G01*
G37*
G36*
G01*
X173480100Y-99554700D02*
X174030900Y-99554700D01*
G75*
G02*
X174281300Y-99805100I0J-250400D01*
G01*
X174281300Y-100305900D01*
G75*
G02*
X174030900Y-100556300I-250400J0D01*
G01*
X173480100Y-100556300D01*
G75*
G02*
X173229700Y-100305900I0J250400D01*
G01*
X173229700Y-99805100D01*
G75*
G02*
X173480100Y-99554700I250400J0D01*
G01*
G37*
G36*
G01*
X173480100Y-98004700D02*
X174030900Y-98004700D01*
G75*
G02*
X174281300Y-98255100I0J-250400D01*
G01*
X174281300Y-98755900D01*
G75*
G02*
X174030900Y-99006300I-250400J0D01*
G01*
X173480100Y-99006300D01*
G75*
G02*
X173229700Y-98755900I0J250400D01*
G01*
X173229700Y-98255100D01*
G75*
G02*
X173480100Y-98004700I250400J0D01*
G01*
G37*
G36*
G01*
X165061300Y-93573600D02*
X165061300Y-94124400D01*
G75*
G02*
X164810900Y-94374800I-250400J0D01*
G01*
X164310100Y-94374800D01*
G75*
G02*
X164059700Y-94124400I0J250400D01*
G01*
X164059700Y-93573600D01*
G75*
G02*
X164310100Y-93323200I250400J0D01*
G01*
X164810900Y-93323200D01*
G75*
G02*
X165061300Y-93573600I0J-250400D01*
G01*
G37*
G36*
G01*
X166611300Y-93573600D02*
X166611300Y-94124400D01*
G75*
G02*
X166360900Y-94374800I-250400J0D01*
G01*
X165860100Y-94374800D01*
G75*
G02*
X165609700Y-94124400I0J250400D01*
G01*
X165609700Y-93573600D01*
G75*
G02*
X165860100Y-93323200I250400J0D01*
G01*
X166360900Y-93323200D01*
G75*
G02*
X166611300Y-93573600I0J-250400D01*
G01*
G37*
G36*
G01*
X174499700Y-96609400D02*
X174499700Y-96058600D01*
G75*
G02*
X174750100Y-95808200I250400J0D01*
G01*
X175250900Y-95808200D01*
G75*
G02*
X175501300Y-96058600I0J-250400D01*
G01*
X175501300Y-96609400D01*
G75*
G02*
X175250900Y-96859800I-250400J0D01*
G01*
X174750100Y-96859800D01*
G75*
G02*
X174499700Y-96609400I0J250400D01*
G01*
G37*
G36*
G01*
X172949700Y-96609400D02*
X172949700Y-96058600D01*
G75*
G02*
X173200100Y-95808200I250400J0D01*
G01*
X173700900Y-95808200D01*
G75*
G02*
X173951300Y-96058600I0J-250400D01*
G01*
X173951300Y-96609400D01*
G75*
G02*
X173700900Y-96859800I-250400J0D01*
G01*
X173200100Y-96859800D01*
G75*
G02*
X172949700Y-96609400I0J250400D01*
G01*
G37*
G36*
G01*
X150707700Y-110335400D02*
X150707700Y-109734600D01*
G75*
G02*
X150933100Y-109509200I225400J0D01*
G01*
X151383900Y-109509200D01*
G75*
G02*
X151609300Y-109734600I0J-225400D01*
G01*
X151609300Y-110335400D01*
G75*
G02*
X151383900Y-110560800I-225400J0D01*
G01*
X150933100Y-110560800D01*
G75*
G02*
X150707700Y-110335400I0J225400D01*
G01*
G37*
G36*
G01*
X149057700Y-110335400D02*
X149057700Y-109734600D01*
G75*
G02*
X149283100Y-109509200I225400J0D01*
G01*
X149733900Y-109509200D01*
G75*
G02*
X149959300Y-109734600I0J-225400D01*
G01*
X149959300Y-110335400D01*
G75*
G02*
X149733900Y-110560800I-225400J0D01*
G01*
X149283100Y-110560800D01*
G75*
G02*
X149057700Y-110335400I0J225400D01*
G01*
G37*
G36*
G01*
X165748400Y-100879800D02*
X164347600Y-100879800D01*
G75*
G02*
X164247200Y-100779400I0J100400D01*
G01*
X164247200Y-100578600D01*
G75*
G02*
X164347600Y-100478200I100400J0D01*
G01*
X165748400Y-100478200D01*
G75*
G02*
X165848800Y-100578600I0J-100400D01*
G01*
X165848800Y-100779400D01*
G75*
G02*
X165748400Y-100879800I-100400J0D01*
G01*
G37*
G36*
G01*
X165748400Y-100379800D02*
X164347600Y-100379800D01*
G75*
G02*
X164247200Y-100279400I0J100400D01*
G01*
X164247200Y-100078600D01*
G75*
G02*
X164347600Y-99978200I100400J0D01*
G01*
X165748400Y-99978200D01*
G75*
G02*
X165848800Y-100078600I0J-100400D01*
G01*
X165848800Y-100279400D01*
G75*
G02*
X165748400Y-100379800I-100400J0D01*
G01*
G37*
G36*
G01*
X165748400Y-99879800D02*
X164347600Y-99879800D01*
G75*
G02*
X164247200Y-99779400I0J100400D01*
G01*
X164247200Y-99578600D01*
G75*
G02*
X164347600Y-99478200I100400J0D01*
G01*
X165748400Y-99478200D01*
G75*
G02*
X165848800Y-99578600I0J-100400D01*
G01*
X165848800Y-99779400D01*
G75*
G02*
X165748400Y-99879800I-100400J0D01*
G01*
G37*
G36*
G01*
X165748400Y-99379800D02*
X164347600Y-99379800D01*
G75*
G02*
X164247200Y-99279400I0J100400D01*
G01*
X164247200Y-99078600D01*
G75*
G02*
X164347600Y-98978200I100400J0D01*
G01*
X165748400Y-98978200D01*
G75*
G02*
X165848800Y-99078600I0J-100400D01*
G01*
X165848800Y-99279400D01*
G75*
G02*
X165748400Y-99379800I-100400J0D01*
G01*
G37*
G36*
G01*
X165748400Y-98879800D02*
X164347600Y-98879800D01*
G75*
G02*
X164247200Y-98779400I0J100400D01*
G01*
X164247200Y-98578600D01*
G75*
G02*
X164347600Y-98478200I100400J0D01*
G01*
X165748400Y-98478200D01*
G75*
G02*
X165848800Y-98578600I0J-100400D01*
G01*
X165848800Y-98779400D01*
G75*
G02*
X165748400Y-98879800I-100400J0D01*
G01*
G37*
G36*
G01*
X165748400Y-98379800D02*
X164347600Y-98379800D01*
G75*
G02*
X164247200Y-98279400I0J100400D01*
G01*
X164247200Y-98078600D01*
G75*
G02*
X164347600Y-97978200I100400J0D01*
G01*
X165748400Y-97978200D01*
G75*
G02*
X165848800Y-98078600I0J-100400D01*
G01*
X165848800Y-98279400D01*
G75*
G02*
X165748400Y-98379800I-100400J0D01*
G01*
G37*
G36*
G01*
X165748400Y-97879800D02*
X164347600Y-97879800D01*
G75*
G02*
X164247200Y-97779400I0J100400D01*
G01*
X164247200Y-97578600D01*
G75*
G02*
X164347600Y-97478200I100400J0D01*
G01*
X165748400Y-97478200D01*
G75*
G02*
X165848800Y-97578600I0J-100400D01*
G01*
X165848800Y-97779400D01*
G75*
G02*
X165748400Y-97879800I-100400J0D01*
G01*
G37*
G36*
G01*
X165748400Y-97379800D02*
X164347600Y-97379800D01*
G75*
G02*
X164247200Y-97279400I0J100400D01*
G01*
X164247200Y-97078600D01*
G75*
G02*
X164347600Y-96978200I100400J0D01*
G01*
X165748400Y-96978200D01*
G75*
G02*
X165848800Y-97078600I0J-100400D01*
G01*
X165848800Y-97279400D01*
G75*
G02*
X165748400Y-97379800I-100400J0D01*
G01*
G37*
G36*
G01*
X166573400Y-96554800D02*
X166372600Y-96554800D01*
G75*
G02*
X166272200Y-96454400I0J100400D01*
G01*
X166272200Y-95053600D01*
G75*
G02*
X166372600Y-94953200I100400J0D01*
G01*
X166573400Y-94953200D01*
G75*
G02*
X166673800Y-95053600I0J-100400D01*
G01*
X166673800Y-96454400D01*
G75*
G02*
X166573400Y-96554800I-100400J0D01*
G01*
G37*
G36*
G01*
X167073400Y-96554800D02*
X166872600Y-96554800D01*
G75*
G02*
X166772200Y-96454400I0J100400D01*
G01*
X166772200Y-95053600D01*
G75*
G02*
X166872600Y-94953200I100400J0D01*
G01*
X167073400Y-94953200D01*
G75*
G02*
X167173800Y-95053600I0J-100400D01*
G01*
X167173800Y-96454400D01*
G75*
G02*
X167073400Y-96554800I-100400J0D01*
G01*
G37*
G36*
G01*
X167573400Y-96554800D02*
X167372600Y-96554800D01*
G75*
G02*
X167272200Y-96454400I0J100400D01*
G01*
X167272200Y-95053600D01*
G75*
G02*
X167372600Y-94953200I100400J0D01*
G01*
X167573400Y-94953200D01*
G75*
G02*
X167673800Y-95053600I0J-100400D01*
G01*
X167673800Y-96454400D01*
G75*
G02*
X167573400Y-96554800I-100400J0D01*
G01*
G37*
G36*
G01*
X168073400Y-96554800D02*
X167872600Y-96554800D01*
G75*
G02*
X167772200Y-96454400I0J100400D01*
G01*
X167772200Y-95053600D01*
G75*
G02*
X167872600Y-94953200I100400J0D01*
G01*
X168073400Y-94953200D01*
G75*
G02*
X168173800Y-95053600I0J-100400D01*
G01*
X168173800Y-96454400D01*
G75*
G02*
X168073400Y-96554800I-100400J0D01*
G01*
G37*
G36*
G01*
X168573400Y-96554800D02*
X168372600Y-96554800D01*
G75*
G02*
X168272200Y-96454400I0J100400D01*
G01*
X168272200Y-95053600D01*
G75*
G02*
X168372600Y-94953200I100400J0D01*
G01*
X168573400Y-94953200D01*
G75*
G02*
X168673800Y-95053600I0J-100400D01*
G01*
X168673800Y-96454400D01*
G75*
G02*
X168573400Y-96554800I-100400J0D01*
G01*
G37*
G36*
G01*
X169073400Y-96554800D02*
X168872600Y-96554800D01*
G75*
G02*
X168772200Y-96454400I0J100400D01*
G01*
X168772200Y-95053600D01*
G75*
G02*
X168872600Y-94953200I100400J0D01*
G01*
X169073400Y-94953200D01*
G75*
G02*
X169173800Y-95053600I0J-100400D01*
G01*
X169173800Y-96454400D01*
G75*
G02*
X169073400Y-96554800I-100400J0D01*
G01*
G37*
G36*
G01*
X169573400Y-96554800D02*
X169372600Y-96554800D01*
G75*
G02*
X169272200Y-96454400I0J100400D01*
G01*
X169272200Y-95053600D01*
G75*
G02*
X169372600Y-94953200I100400J0D01*
G01*
X169573400Y-94953200D01*
G75*
G02*
X169673800Y-95053600I0J-100400D01*
G01*
X169673800Y-96454400D01*
G75*
G02*
X169573400Y-96554800I-100400J0D01*
G01*
G37*
G36*
G01*
X170073400Y-96554800D02*
X169872600Y-96554800D01*
G75*
G02*
X169772200Y-96454400I0J100400D01*
G01*
X169772200Y-95053600D01*
G75*
G02*
X169872600Y-94953200I100400J0D01*
G01*
X170073400Y-94953200D01*
G75*
G02*
X170173800Y-95053600I0J-100400D01*
G01*
X170173800Y-96454400D01*
G75*
G02*
X170073400Y-96554800I-100400J0D01*
G01*
G37*
G36*
G01*
X172098400Y-97379800D02*
X170697600Y-97379800D01*
G75*
G02*
X170597200Y-97279400I0J100400D01*
G01*
X170597200Y-97078600D01*
G75*
G02*
X170697600Y-96978200I100400J0D01*
G01*
X172098400Y-96978200D01*
G75*
G02*
X172198800Y-97078600I0J-100400D01*
G01*
X172198800Y-97279400D01*
G75*
G02*
X172098400Y-97379800I-100400J0D01*
G01*
G37*
G36*
G01*
X172098400Y-97879800D02*
X170697600Y-97879800D01*
G75*
G02*
X170597200Y-97779400I0J100400D01*
G01*
X170597200Y-97578600D01*
G75*
G02*
X170697600Y-97478200I100400J0D01*
G01*
X172098400Y-97478200D01*
G75*
G02*
X172198800Y-97578600I0J-100400D01*
G01*
X172198800Y-97779400D01*
G75*
G02*
X172098400Y-97879800I-100400J0D01*
G01*
G37*
G36*
G01*
X172098400Y-98379800D02*
X170697600Y-98379800D01*
G75*
G02*
X170597200Y-98279400I0J100400D01*
G01*
X170597200Y-98078600D01*
G75*
G02*
X170697600Y-97978200I100400J0D01*
G01*
X172098400Y-97978200D01*
G75*
G02*
X172198800Y-98078600I0J-100400D01*
G01*
X172198800Y-98279400D01*
G75*
G02*
X172098400Y-98379800I-100400J0D01*
G01*
G37*
G36*
G01*
X172098400Y-98879800D02*
X170697600Y-98879800D01*
G75*
G02*
X170597200Y-98779400I0J100400D01*
G01*
X170597200Y-98578600D01*
G75*
G02*
X170697600Y-98478200I100400J0D01*
G01*
X172098400Y-98478200D01*
G75*
G02*
X172198800Y-98578600I0J-100400D01*
G01*
X172198800Y-98779400D01*
G75*
G02*
X172098400Y-98879800I-100400J0D01*
G01*
G37*
G36*
G01*
X172098400Y-99379800D02*
X170697600Y-99379800D01*
G75*
G02*
X170597200Y-99279400I0J100400D01*
G01*
X170597200Y-99078600D01*
G75*
G02*
X170697600Y-98978200I100400J0D01*
G01*
X172098400Y-98978200D01*
G75*
G02*
X172198800Y-99078600I0J-100400D01*
G01*
X172198800Y-99279400D01*
G75*
G02*
X172098400Y-99379800I-100400J0D01*
G01*
G37*
G36*
G01*
X172098400Y-99879800D02*
X170697600Y-99879800D01*
G75*
G02*
X170597200Y-99779400I0J100400D01*
G01*
X170597200Y-99578600D01*
G75*
G02*
X170697600Y-99478200I100400J0D01*
G01*
X172098400Y-99478200D01*
G75*
G02*
X172198800Y-99578600I0J-100400D01*
G01*
X172198800Y-99779400D01*
G75*
G02*
X172098400Y-99879800I-100400J0D01*
G01*
G37*
G36*
G01*
X172098400Y-100379800D02*
X170697600Y-100379800D01*
G75*
G02*
X170597200Y-100279400I0J100400D01*
G01*
X170597200Y-100078600D01*
G75*
G02*
X170697600Y-99978200I100400J0D01*
G01*
X172098400Y-99978200D01*
G75*
G02*
X172198800Y-100078600I0J-100400D01*
G01*
X172198800Y-100279400D01*
G75*
G02*
X172098400Y-100379800I-100400J0D01*
G01*
G37*
G36*
G01*
X172098400Y-100879800D02*
X170697600Y-100879800D01*
G75*
G02*
X170597200Y-100779400I0J100400D01*
G01*
X170597200Y-100578600D01*
G75*
G02*
X170697600Y-100478200I100400J0D01*
G01*
X172098400Y-100478200D01*
G75*
G02*
X172198800Y-100578600I0J-100400D01*
G01*
X172198800Y-100779400D01*
G75*
G02*
X172098400Y-100879800I-100400J0D01*
G01*
G37*
G36*
G01*
X170073400Y-102904800D02*
X169872600Y-102904800D01*
G75*
G02*
X169772200Y-102804400I0J100400D01*
G01*
X169772200Y-101403600D01*
G75*
G02*
X169872600Y-101303200I100400J0D01*
G01*
X170073400Y-101303200D01*
G75*
G02*
X170173800Y-101403600I0J-100400D01*
G01*
X170173800Y-102804400D01*
G75*
G02*
X170073400Y-102904800I-100400J0D01*
G01*
G37*
G36*
G01*
X169573400Y-102904800D02*
X169372600Y-102904800D01*
G75*
G02*
X169272200Y-102804400I0J100400D01*
G01*
X169272200Y-101403600D01*
G75*
G02*
X169372600Y-101303200I100400J0D01*
G01*
X169573400Y-101303200D01*
G75*
G02*
X169673800Y-101403600I0J-100400D01*
G01*
X169673800Y-102804400D01*
G75*
G02*
X169573400Y-102904800I-100400J0D01*
G01*
G37*
G36*
G01*
X169073400Y-102904800D02*
X168872600Y-102904800D01*
G75*
G02*
X168772200Y-102804400I0J100400D01*
G01*
X168772200Y-101403600D01*
G75*
G02*
X168872600Y-101303200I100400J0D01*
G01*
X169073400Y-101303200D01*
G75*
G02*
X169173800Y-101403600I0J-100400D01*
G01*
X169173800Y-102804400D01*
G75*
G02*
X169073400Y-102904800I-100400J0D01*
G01*
G37*
G36*
G01*
X168573400Y-102904800D02*
X168372600Y-102904800D01*
G75*
G02*
X168272200Y-102804400I0J100400D01*
G01*
X168272200Y-101403600D01*
G75*
G02*
X168372600Y-101303200I100400J0D01*
G01*
X168573400Y-101303200D01*
G75*
G02*
X168673800Y-101403600I0J-100400D01*
G01*
X168673800Y-102804400D01*
G75*
G02*
X168573400Y-102904800I-100400J0D01*
G01*
G37*
G36*
G01*
X168073400Y-102904800D02*
X167872600Y-102904800D01*
G75*
G02*
X167772200Y-102804400I0J100400D01*
G01*
X167772200Y-101403600D01*
G75*
G02*
X167872600Y-101303200I100400J0D01*
G01*
X168073400Y-101303200D01*
G75*
G02*
X168173800Y-101403600I0J-100400D01*
G01*
X168173800Y-102804400D01*
G75*
G02*
X168073400Y-102904800I-100400J0D01*
G01*
G37*
G36*
G01*
X167573400Y-102904800D02*
X167372600Y-102904800D01*
G75*
G02*
X167272200Y-102804400I0J100400D01*
G01*
X167272200Y-101403600D01*
G75*
G02*
X167372600Y-101303200I100400J0D01*
G01*
X167573400Y-101303200D01*
G75*
G02*
X167673800Y-101403600I0J-100400D01*
G01*
X167673800Y-102804400D01*
G75*
G02*
X167573400Y-102904800I-100400J0D01*
G01*
G37*
G36*
G01*
X167073400Y-102904800D02*
X166872600Y-102904800D01*
G75*
G02*
X166772200Y-102804400I0J100400D01*
G01*
X166772200Y-101403600D01*
G75*
G02*
X166872600Y-101303200I100400J0D01*
G01*
X167073400Y-101303200D01*
G75*
G02*
X167173800Y-101403600I0J-100400D01*
G01*
X167173800Y-102804400D01*
G75*
G02*
X167073400Y-102904800I-100400J0D01*
G01*
G37*
G36*
G01*
X166573400Y-102904800D02*
X166372600Y-102904800D01*
G75*
G02*
X166272200Y-102804400I0J100400D01*
G01*
X166272200Y-101403600D01*
G75*
G02*
X166372600Y-101303200I100400J0D01*
G01*
X166573400Y-101303200D01*
G75*
G02*
X166673800Y-101403600I0J-100400D01*
G01*
X166673800Y-102804400D01*
G75*
G02*
X166573400Y-102904800I-100400J0D01*
G01*
G37*
G36*
G01*
X144223700Y-122722400D02*
X144223700Y-122171600D01*
G75*
G02*
X144474100Y-121921200I250400J0D01*
G01*
X144974900Y-121921200D01*
G75*
G02*
X145225300Y-122171600I0J-250400D01*
G01*
X145225300Y-122722400D01*
G75*
G02*
X144974900Y-122972800I-250400J0D01*
G01*
X144474100Y-122972800D01*
G75*
G02*
X144223700Y-122722400I0J250400D01*
G01*
G37*
G36*
G01*
X142673700Y-122722400D02*
X142673700Y-122171600D01*
G75*
G02*
X142924100Y-121921200I250400J0D01*
G01*
X143424900Y-121921200D01*
G75*
G02*
X143675300Y-122171600I0J-250400D01*
G01*
X143675300Y-122722400D01*
G75*
G02*
X143424900Y-122972800I-250400J0D01*
G01*
X142924100Y-122972800D01*
G75*
G02*
X142673700Y-122722400I0J250400D01*
G01*
G37*
G36*
G01*
X147270200Y-127573400D02*
X147270200Y-126972600D01*
G75*
G02*
X147495600Y-126747200I225400J0D01*
G01*
X147946400Y-126747200D01*
G75*
G02*
X148171800Y-126972600I0J-225400D01*
G01*
X148171800Y-127573400D01*
G75*
G02*
X147946400Y-127798800I-225400J0D01*
G01*
X147495600Y-127798800D01*
G75*
G02*
X147270200Y-127573400I0J225400D01*
G01*
G37*
G36*
G01*
X145620200Y-127573400D02*
X145620200Y-126972600D01*
G75*
G02*
X145845600Y-126747200I225400J0D01*
G01*
X146296400Y-126747200D01*
G75*
G02*
X146521800Y-126972600I0J-225400D01*
G01*
X146521800Y-127573400D01*
G75*
G02*
X146296400Y-127798800I-225400J0D01*
G01*
X145845600Y-127798800D01*
G75*
G02*
X145620200Y-127573400I0J225400D01*
G01*
G37*
G36*
G01*
X121275800Y-103399600D02*
X121275800Y-104000400D01*
G75*
G02*
X121050400Y-104225800I-225400J0D01*
G01*
X120599600Y-104225800D01*
G75*
G02*
X120374200Y-104000400I0J225400D01*
G01*
X120374200Y-103399600D01*
G75*
G02*
X120599600Y-103174200I225400J0D01*
G01*
X121050400Y-103174200D01*
G75*
G02*
X121275800Y-103399600I0J-225400D01*
G01*
G37*
G36*
G01*
X122925800Y-103399600D02*
X122925800Y-104000400D01*
G75*
G02*
X122700400Y-104225800I-225400J0D01*
G01*
X122249600Y-104225800D01*
G75*
G02*
X122024200Y-104000400I0J225400D01*
G01*
X122024200Y-103399600D01*
G75*
G02*
X122249600Y-103174200I225400J0D01*
G01*
X122700400Y-103174200D01*
G75*
G02*
X122925800Y-103399600I0J-225400D01*
G01*
G37*
G36*
G01*
X119675800Y-101749600D02*
X119675800Y-102350400D01*
G75*
G02*
X119450400Y-102575800I-225400J0D01*
G01*
X118999600Y-102575800D01*
G75*
G02*
X118774200Y-102350400I0J225400D01*
G01*
X118774200Y-101749600D01*
G75*
G02*
X118999600Y-101524200I225400J0D01*
G01*
X119450400Y-101524200D01*
G75*
G02*
X119675800Y-101749600I0J-225400D01*
G01*
G37*
G36*
G01*
X121325800Y-101749600D02*
X121325800Y-102350400D01*
G75*
G02*
X121100400Y-102575800I-225400J0D01*
G01*
X120649600Y-102575800D01*
G75*
G02*
X120424200Y-102350400I0J225400D01*
G01*
X120424200Y-101749600D01*
G75*
G02*
X120649600Y-101524200I225400J0D01*
G01*
X121100400Y-101524200D01*
G75*
G02*
X121325800Y-101749600I0J-225400D01*
G01*
G37*
G36*
G01*
X125375800Y-97774600D02*
X125375800Y-98325400D01*
G75*
G02*
X125125400Y-98575800I-250400J0D01*
G01*
X124624600Y-98575800D01*
G75*
G02*
X124374200Y-98325400I0J250400D01*
G01*
X124374200Y-97774600D01*
G75*
G02*
X124624600Y-97524200I250400J0D01*
G01*
X125125400Y-97524200D01*
G75*
G02*
X125375800Y-97774600I0J-250400D01*
G01*
G37*
G36*
G01*
X126925800Y-97774600D02*
X126925800Y-98325400D01*
G75*
G02*
X126675400Y-98575800I-250400J0D01*
G01*
X126174600Y-98575800D01*
G75*
G02*
X125924200Y-98325400I0J250400D01*
G01*
X125924200Y-97774600D01*
G75*
G02*
X126174600Y-97524200I250400J0D01*
G01*
X126675400Y-97524200D01*
G75*
G02*
X126925800Y-97774600I0J-250400D01*
G01*
G37*
G36*
G01*
X120168200Y-95667000D02*
X120168200Y-92267000D01*
G75*
G02*
X120219000Y-92216200I50800J0D01*
G01*
X121519000Y-92216200D01*
G75*
G02*
X121569800Y-92267000I0J-50800D01*
G01*
X121569800Y-95667000D01*
G75*
G02*
X121519000Y-95717800I-50800J0D01*
G01*
X120219000Y-95717800D01*
G75*
G02*
X120168200Y-95667000I0J50800D01*
G01*
G37*
G36*
G01*
X122268200Y-95667000D02*
X122268200Y-92267000D01*
G75*
G02*
X122319000Y-92216200I50800J0D01*
G01*
X123619000Y-92216200D01*
G75*
G02*
X123669800Y-92267000I0J-50800D01*
G01*
X123669800Y-95667000D01*
G75*
G02*
X123619000Y-95717800I-50800J0D01*
G01*
X122319000Y-95717800D01*
G75*
G02*
X122268200Y-95667000I0J50800D01*
G01*
G37*
G36*
G01*
X141368600Y-103999700D02*
X141919400Y-103999700D01*
G75*
G02*
X142169800Y-104250100I0J-250400D01*
G01*
X142169800Y-104750900D01*
G75*
G02*
X141919400Y-105001300I-250400J0D01*
G01*
X141368600Y-105001300D01*
G75*
G02*
X141118200Y-104750900I0J250400D01*
G01*
X141118200Y-104250100D01*
G75*
G02*
X141368600Y-103999700I250400J0D01*
G01*
G37*
G36*
G01*
X141368600Y-102449700D02*
X141919400Y-102449700D01*
G75*
G02*
X142169800Y-102700100I0J-250400D01*
G01*
X142169800Y-103200900D01*
G75*
G02*
X141919400Y-103451300I-250400J0D01*
G01*
X141368600Y-103451300D01*
G75*
G02*
X141118200Y-103200900I0J250400D01*
G01*
X141118200Y-102700100D01*
G75*
G02*
X141368600Y-102449700I250400J0D01*
G01*
G37*
G36*
G01*
X120769000Y-98252800D02*
X120369000Y-98252800D01*
G75*
G02*
X120318200Y-98202000I0J50800D01*
G01*
X120318200Y-97142000D01*
G75*
G02*
X120369000Y-97091200I50800J0D01*
G01*
X120769000Y-97091200D01*
G75*
G02*
X120819800Y-97142000I0J-50800D01*
G01*
X120819800Y-98202000D01*
G75*
G02*
X120769000Y-98252800I-50800J0D01*
G01*
G37*
G36*
G01*
X121419000Y-98252800D02*
X121019000Y-98252800D01*
G75*
G02*
X120968200Y-98202000I0J50800D01*
G01*
X120968200Y-97142000D01*
G75*
G02*
X121019000Y-97091200I50800J0D01*
G01*
X121419000Y-97091200D01*
G75*
G02*
X121469800Y-97142000I0J-50800D01*
G01*
X121469800Y-98202000D01*
G75*
G02*
X121419000Y-98252800I-50800J0D01*
G01*
G37*
G36*
G01*
X122079000Y-98252800D02*
X121679000Y-98252800D01*
G75*
G02*
X121628200Y-98202000I0J50800D01*
G01*
X121628200Y-97142000D01*
G75*
G02*
X121679000Y-97091200I50800J0D01*
G01*
X122079000Y-97091200D01*
G75*
G02*
X122129800Y-97142000I0J-50800D01*
G01*
X122129800Y-98202000D01*
G75*
G02*
X122079000Y-98252800I-50800J0D01*
G01*
G37*
G36*
G01*
X122729000Y-98252800D02*
X122329000Y-98252800D01*
G75*
G02*
X122278200Y-98202000I0J50800D01*
G01*
X122278200Y-97142000D01*
G75*
G02*
X122329000Y-97091200I50800J0D01*
G01*
X122729000Y-97091200D01*
G75*
G02*
X122779800Y-97142000I0J-50800D01*
G01*
X122779800Y-98202000D01*
G75*
G02*
X122729000Y-98252800I-50800J0D01*
G01*
G37*
G36*
G01*
X122729000Y-100452800D02*
X122329000Y-100452800D01*
G75*
G02*
X122278200Y-100402000I0J50800D01*
G01*
X122278200Y-99342000D01*
G75*
G02*
X122329000Y-99291200I50800J0D01*
G01*
X122729000Y-99291200D01*
G75*
G02*
X122779800Y-99342000I0J-50800D01*
G01*
X122779800Y-100402000D01*
G75*
G02*
X122729000Y-100452800I-50800J0D01*
G01*
G37*
G36*
G01*
X122079000Y-100452800D02*
X121679000Y-100452800D01*
G75*
G02*
X121628200Y-100402000I0J50800D01*
G01*
X121628200Y-99342000D01*
G75*
G02*
X121679000Y-99291200I50800J0D01*
G01*
X122079000Y-99291200D01*
G75*
G02*
X122129800Y-99342000I0J-50800D01*
G01*
X122129800Y-100402000D01*
G75*
G02*
X122079000Y-100452800I-50800J0D01*
G01*
G37*
G36*
G01*
X121419000Y-100452800D02*
X121019000Y-100452800D01*
G75*
G02*
X120968200Y-100402000I0J50800D01*
G01*
X120968200Y-99342000D01*
G75*
G02*
X121019000Y-99291200I50800J0D01*
G01*
X121419000Y-99291200D01*
G75*
G02*
X121469800Y-99342000I0J-50800D01*
G01*
X121469800Y-100402000D01*
G75*
G02*
X121419000Y-100452800I-50800J0D01*
G01*
G37*
G36*
G01*
X120769000Y-100452800D02*
X120369000Y-100452800D01*
G75*
G02*
X120318200Y-100402000I0J50800D01*
G01*
X120318200Y-99342000D01*
G75*
G02*
X120369000Y-99291200I50800J0D01*
G01*
X120769000Y-99291200D01*
G75*
G02*
X120819800Y-99342000I0J-50800D01*
G01*
X120819800Y-100402000D01*
G75*
G02*
X120769000Y-100452800I-50800J0D01*
G01*
G37*
G36*
G01*
X165350000Y-125699200D02*
X166150000Y-125699200D01*
G75*
G02*
X166200800Y-125750000I0J-50800D01*
G01*
X166200800Y-126650000D01*
G75*
G02*
X166150000Y-126700800I-50800J0D01*
G01*
X165350000Y-126700800D01*
G75*
G02*
X165299200Y-126650000I0J50800D01*
G01*
X165299200Y-125750000D01*
G75*
G02*
X165350000Y-125699200I50800J0D01*
G01*
G37*
G36*
G01*
X164400000Y-123699200D02*
X165200000Y-123699200D01*
G75*
G02*
X165250800Y-123750000I0J-50800D01*
G01*
X165250800Y-124650000D01*
G75*
G02*
X165200000Y-124700800I-50800J0D01*
G01*
X164400000Y-124700800D01*
G75*
G02*
X164349200Y-124650000I0J50800D01*
G01*
X164349200Y-123750000D01*
G75*
G02*
X164400000Y-123699200I50800J0D01*
G01*
G37*
G36*
G01*
X166300000Y-123699200D02*
X167100000Y-123699200D01*
G75*
G02*
X167150800Y-123750000I0J-50800D01*
G01*
X167150800Y-124650000D01*
G75*
G02*
X167100000Y-124700800I-50800J0D01*
G01*
X166300000Y-124700800D01*
G75*
G02*
X166249200Y-124650000I0J50800D01*
G01*
X166249200Y-123750000D01*
G75*
G02*
X166300000Y-123699200I50800J0D01*
G01*
G37*
G36*
G01*
X176411000Y-114043200D02*
X177061000Y-114043200D01*
G75*
G02*
X177111800Y-114094000I0J-50800D01*
G01*
X177111800Y-115154000D01*
G75*
G02*
X177061000Y-115204800I-50800J0D01*
G01*
X176411000Y-115204800D01*
G75*
G02*
X176360200Y-115154000I0J50800D01*
G01*
X176360200Y-114094000D01*
G75*
G02*
X176411000Y-114043200I50800J0D01*
G01*
G37*
G36*
G01*
X174511000Y-114043200D02*
X175161000Y-114043200D01*
G75*
G02*
X175211800Y-114094000I0J-50800D01*
G01*
X175211800Y-115154000D01*
G75*
G02*
X175161000Y-115204800I-50800J0D01*
G01*
X174511000Y-115204800D01*
G75*
G02*
X174460200Y-115154000I0J50800D01*
G01*
X174460200Y-114094000D01*
G75*
G02*
X174511000Y-114043200I50800J0D01*
G01*
G37*
G36*
G01*
X174511000Y-111843200D02*
X175161000Y-111843200D01*
G75*
G02*
X175211800Y-111894000I0J-50800D01*
G01*
X175211800Y-112954000D01*
G75*
G02*
X175161000Y-113004800I-50800J0D01*
G01*
X174511000Y-113004800D01*
G75*
G02*
X174460200Y-112954000I0J50800D01*
G01*
X174460200Y-111894000D01*
G75*
G02*
X174511000Y-111843200I50800J0D01*
G01*
G37*
G36*
G01*
X175461000Y-111843200D02*
X176111000Y-111843200D01*
G75*
G02*
X176161800Y-111894000I0J-50800D01*
G01*
X176161800Y-112954000D01*
G75*
G02*
X176111000Y-113004800I-50800J0D01*
G01*
X175461000Y-113004800D01*
G75*
G02*
X175410200Y-112954000I0J50800D01*
G01*
X175410200Y-111894000D01*
G75*
G02*
X175461000Y-111843200I50800J0D01*
G01*
G37*
G36*
G01*
X176411000Y-111843200D02*
X177061000Y-111843200D01*
G75*
G02*
X177111800Y-111894000I0J-50800D01*
G01*
X177111800Y-112954000D01*
G75*
G02*
X177061000Y-113004800I-50800J0D01*
G01*
X176411000Y-113004800D01*
G75*
G02*
X176360200Y-112954000I0J50800D01*
G01*
X176360200Y-111894000D01*
G75*
G02*
X176411000Y-111843200I50800J0D01*
G01*
G37*
G36*
G01*
X140576400Y-99873300D02*
X139975600Y-99873300D01*
G75*
G02*
X139750200Y-99647900I0J225400D01*
G01*
X139750200Y-99197100D01*
G75*
G02*
X139975600Y-98971700I225400J0D01*
G01*
X140576400Y-98971700D01*
G75*
G02*
X140801800Y-99197100I0J-225400D01*
G01*
X140801800Y-99647900D01*
G75*
G02*
X140576400Y-99873300I-225400J0D01*
G01*
G37*
G36*
G01*
X140576400Y-101523300D02*
X139975600Y-101523300D01*
G75*
G02*
X139750200Y-101297900I0J225400D01*
G01*
X139750200Y-100847100D01*
G75*
G02*
X139975600Y-100621700I225400J0D01*
G01*
X140576400Y-100621700D01*
G75*
G02*
X140801800Y-100847100I0J-225400D01*
G01*
X140801800Y-101297900D01*
G75*
G02*
X140576400Y-101523300I-225400J0D01*
G01*
G37*
G36*
G01*
X147242700Y-97623400D02*
X147242700Y-97022600D01*
G75*
G02*
X147468100Y-96797200I225400J0D01*
G01*
X147918900Y-96797200D01*
G75*
G02*
X148144300Y-97022600I0J-225400D01*
G01*
X148144300Y-97623400D01*
G75*
G02*
X147918900Y-97848800I-225400J0D01*
G01*
X147468100Y-97848800D01*
G75*
G02*
X147242700Y-97623400I0J225400D01*
G01*
G37*
G36*
G01*
X145592700Y-97623400D02*
X145592700Y-97022600D01*
G75*
G02*
X145818100Y-96797200I225400J0D01*
G01*
X146268900Y-96797200D01*
G75*
G02*
X146494300Y-97022600I0J-225400D01*
G01*
X146494300Y-97623400D01*
G75*
G02*
X146268900Y-97848800I-225400J0D01*
G01*
X145818100Y-97848800D01*
G75*
G02*
X145592700Y-97623400I0J225400D01*
G01*
G37*
G36*
G01*
X156659300Y-100954600D02*
X156659300Y-101555400D01*
G75*
G02*
X156433900Y-101780800I-225400J0D01*
G01*
X155983100Y-101780800D01*
G75*
G02*
X155757700Y-101555400I0J225400D01*
G01*
X155757700Y-100954600D01*
G75*
G02*
X155983100Y-100729200I225400J0D01*
G01*
X156433900Y-100729200D01*
G75*
G02*
X156659300Y-100954600I0J-225400D01*
G01*
G37*
G36*
G01*
X158309300Y-100954600D02*
X158309300Y-101555400D01*
G75*
G02*
X158083900Y-101780800I-225400J0D01*
G01*
X157633100Y-101780800D01*
G75*
G02*
X157407700Y-101555400I0J225400D01*
G01*
X157407700Y-100954600D01*
G75*
G02*
X157633100Y-100729200I225400J0D01*
G01*
X158083900Y-100729200D01*
G75*
G02*
X158309300Y-100954600I0J-225400D01*
G01*
G37*
G36*
G01*
X148834800Y-124810600D02*
X148834800Y-125161400D01*
G75*
G02*
X148659400Y-125336800I-175400J0D01*
G01*
X146958600Y-125336800D01*
G75*
G02*
X146783200Y-125161400I0J175400D01*
G01*
X146783200Y-124810600D01*
G75*
G02*
X146958600Y-124635200I175400J0D01*
G01*
X148659400Y-124635200D01*
G75*
G02*
X148834800Y-124810600I0J-175400D01*
G01*
G37*
G36*
G01*
X148834800Y-123540600D02*
X148834800Y-123891400D01*
G75*
G02*
X148659400Y-124066800I-175400J0D01*
G01*
X146958600Y-124066800D01*
G75*
G02*
X146783200Y-123891400I0J175400D01*
G01*
X146783200Y-123540600D01*
G75*
G02*
X146958600Y-123365200I175400J0D01*
G01*
X148659400Y-123365200D01*
G75*
G02*
X148834800Y-123540600I0J-175400D01*
G01*
G37*
G36*
G01*
X148834800Y-122270600D02*
X148834800Y-122621400D01*
G75*
G02*
X148659400Y-122796800I-175400J0D01*
G01*
X146958600Y-122796800D01*
G75*
G02*
X146783200Y-122621400I0J175400D01*
G01*
X146783200Y-122270600D01*
G75*
G02*
X146958600Y-122095200I175400J0D01*
G01*
X148659400Y-122095200D01*
G75*
G02*
X148834800Y-122270600I0J-175400D01*
G01*
G37*
G36*
G01*
X148834800Y-121000600D02*
X148834800Y-121351400D01*
G75*
G02*
X148659400Y-121526800I-175400J0D01*
G01*
X146958600Y-121526800D01*
G75*
G02*
X146783200Y-121351400I0J175400D01*
G01*
X146783200Y-121000600D01*
G75*
G02*
X146958600Y-120825200I175400J0D01*
G01*
X148659400Y-120825200D01*
G75*
G02*
X148834800Y-121000600I0J-175400D01*
G01*
G37*
G36*
G01*
X153784800Y-121000600D02*
X153784800Y-121351400D01*
G75*
G02*
X153609400Y-121526800I-175400J0D01*
G01*
X151908600Y-121526800D01*
G75*
G02*
X151733200Y-121351400I0J175400D01*
G01*
X151733200Y-121000600D01*
G75*
G02*
X151908600Y-120825200I175400J0D01*
G01*
X153609400Y-120825200D01*
G75*
G02*
X153784800Y-121000600I0J-175400D01*
G01*
G37*
G36*
G01*
X153784800Y-122270600D02*
X153784800Y-122621400D01*
G75*
G02*
X153609400Y-122796800I-175400J0D01*
G01*
X151908600Y-122796800D01*
G75*
G02*
X151733200Y-122621400I0J175400D01*
G01*
X151733200Y-122270600D01*
G75*
G02*
X151908600Y-122095200I175400J0D01*
G01*
X153609400Y-122095200D01*
G75*
G02*
X153784800Y-122270600I0J-175400D01*
G01*
G37*
G36*
G01*
X153784800Y-123540600D02*
X153784800Y-123891400D01*
G75*
G02*
X153609400Y-124066800I-175400J0D01*
G01*
X151908600Y-124066800D01*
G75*
G02*
X151733200Y-123891400I0J175400D01*
G01*
X151733200Y-123540600D01*
G75*
G02*
X151908600Y-123365200I175400J0D01*
G01*
X153609400Y-123365200D01*
G75*
G02*
X153784800Y-123540600I0J-175400D01*
G01*
G37*
G36*
G01*
X153784800Y-124810600D02*
X153784800Y-125161400D01*
G75*
G02*
X153609400Y-125336800I-175400J0D01*
G01*
X151908600Y-125336800D01*
G75*
G02*
X151733200Y-125161400I0J175400D01*
G01*
X151733200Y-124810600D01*
G75*
G02*
X151908600Y-124635200I175400J0D01*
G01*
X153609400Y-124635200D01*
G75*
G02*
X153784800Y-124810600I0J-175400D01*
G01*
G37*
G36*
G01*
X173851300Y-94318600D02*
X173851300Y-94919400D01*
G75*
G02*
X173625900Y-95144800I-225400J0D01*
G01*
X173175100Y-95144800D01*
G75*
G02*
X172949700Y-94919400I0J225400D01*
G01*
X172949700Y-94318600D01*
G75*
G02*
X173175100Y-94093200I225400J0D01*
G01*
X173625900Y-94093200D01*
G75*
G02*
X173851300Y-94318600I0J-225400D01*
G01*
G37*
G36*
G01*
X175501300Y-94318600D02*
X175501300Y-94919400D01*
G75*
G02*
X175275900Y-95144800I-225400J0D01*
G01*
X174825100Y-95144800D01*
G75*
G02*
X174599700Y-94919400I0J225400D01*
G01*
X174599700Y-94318600D01*
G75*
G02*
X174825100Y-94093200I225400J0D01*
G01*
X175275900Y-94093200D01*
G75*
G02*
X175501300Y-94318600I0J-225400D01*
G01*
G37*
G36*
G01*
X160878400Y-98882300D02*
X160327600Y-98882300D01*
G75*
G02*
X160077200Y-98631900I0J250400D01*
G01*
X160077200Y-98131100D01*
G75*
G02*
X160327600Y-97880700I250400J0D01*
G01*
X160878400Y-97880700D01*
G75*
G02*
X161128800Y-98131100I0J-250400D01*
G01*
X161128800Y-98631900D01*
G75*
G02*
X160878400Y-98882300I-250400J0D01*
G01*
G37*
G36*
G01*
X160878400Y-100432300D02*
X160327600Y-100432300D01*
G75*
G02*
X160077200Y-100181900I0J250400D01*
G01*
X160077200Y-99681100D01*
G75*
G02*
X160327600Y-99430700I250400J0D01*
G01*
X160878400Y-99430700D01*
G75*
G02*
X161128800Y-99681100I0J-250400D01*
G01*
X161128800Y-100181900D01*
G75*
G02*
X160878400Y-100432300I-250400J0D01*
G01*
G37*
G36*
G01*
X144625400Y-124850800D02*
X144024600Y-124850800D01*
G75*
G02*
X143799200Y-124625400I0J225400D01*
G01*
X143799200Y-124174600D01*
G75*
G02*
X144024600Y-123949200I225400J0D01*
G01*
X144625400Y-123949200D01*
G75*
G02*
X144850800Y-124174600I0J-225400D01*
G01*
X144850800Y-124625400D01*
G75*
G02*
X144625400Y-124850800I-225400J0D01*
G01*
G37*
G36*
G01*
X144625400Y-126500800D02*
X144024600Y-126500800D01*
G75*
G02*
X143799200Y-126275400I0J225400D01*
G01*
X143799200Y-125824600D01*
G75*
G02*
X144024600Y-125599200I225400J0D01*
G01*
X144625400Y-125599200D01*
G75*
G02*
X144850800Y-125824600I0J-225400D01*
G01*
X144850800Y-126275400D01*
G75*
G02*
X144625400Y-126500800I-225400J0D01*
G01*
G37*
G36*
G01*
X139899600Y-107124200D02*
X140500400Y-107124200D01*
G75*
G02*
X140725800Y-107349600I0J-225400D01*
G01*
X140725800Y-107800400D01*
G75*
G02*
X140500400Y-108025800I-225400J0D01*
G01*
X139899600Y-108025800D01*
G75*
G02*
X139674200Y-107800400I0J225400D01*
G01*
X139674200Y-107349600D01*
G75*
G02*
X139899600Y-107124200I225400J0D01*
G01*
G37*
G36*
G01*
X139899600Y-105474200D02*
X140500400Y-105474200D01*
G75*
G02*
X140725800Y-105699600I0J-225400D01*
G01*
X140725800Y-106150400D01*
G75*
G02*
X140500400Y-106375800I-225400J0D01*
G01*
X139899600Y-106375800D01*
G75*
G02*
X139674200Y-106150400I0J225400D01*
G01*
X139674200Y-105699600D01*
G75*
G02*
X139899600Y-105474200I225400J0D01*
G01*
G37*
D15*
G36*
X168596505Y-101301210D02*
G01*
X168613579Y-101302892D01*
X168613964Y-101302968D01*
X168627986Y-101307221D01*
X168628348Y-101307371D01*
X168641273Y-101314280D01*
X168641599Y-101314498D01*
X168652928Y-101323795D01*
X168653205Y-101324072D01*
X168662502Y-101335401D01*
X168662720Y-101335727D01*
X168669629Y-101348652D01*
X168669779Y-101349014D01*
X168674032Y-101363036D01*
X168674108Y-101363421D01*
X168674426Y-101366641D01*
X168676312Y-101376128D01*
X168679972Y-101384963D01*
X168685286Y-101392916D01*
X168692047Y-101399678D01*
X168700000Y-101404992D01*
X168708835Y-101408651D01*
X168718219Y-101410518D01*
X168727780Y-101410518D01*
X168737164Y-101408652D01*
X168745999Y-101404992D01*
X168753952Y-101399678D01*
X168760714Y-101392917D01*
X168766028Y-101384964D01*
X168769687Y-101376129D01*
X168771574Y-101366641D01*
X168771892Y-101363421D01*
X168771968Y-101363036D01*
X168776221Y-101349014D01*
X168776371Y-101348652D01*
X168783280Y-101335727D01*
X168783498Y-101335401D01*
X168792795Y-101324072D01*
X168793072Y-101323795D01*
X168804401Y-101314498D01*
X168804727Y-101314280D01*
X168817652Y-101307371D01*
X168818014Y-101307221D01*
X168832036Y-101302968D01*
X168832421Y-101302892D01*
X168849495Y-101301210D01*
X168849691Y-101301200D01*
X168872600Y-101301200D01*
X168874332Y-101302200D01*
X168874332Y-101304200D01*
X168872796Y-101305190D01*
X168853408Y-101307099D01*
X168834948Y-101312699D01*
X168817937Y-101321791D01*
X168803027Y-101334027D01*
X168790791Y-101348937D01*
X168781699Y-101365948D01*
X168776099Y-101384408D01*
X168774200Y-101403694D01*
X168774200Y-102804306D01*
X168776099Y-102823592D01*
X168781699Y-102842052D01*
X168790791Y-102859063D01*
X168803027Y-102873973D01*
X168817937Y-102886209D01*
X168834948Y-102895301D01*
X168853408Y-102900901D01*
X168872796Y-102902810D01*
X168874422Y-102903975D01*
X168874226Y-102905965D01*
X168872600Y-102906800D01*
X168849691Y-102906800D01*
X168849495Y-102906790D01*
X168832421Y-102905108D01*
X168832036Y-102905032D01*
X168818014Y-102900779D01*
X168817652Y-102900629D01*
X168804727Y-102893720D01*
X168804401Y-102893502D01*
X168793072Y-102884205D01*
X168792795Y-102883928D01*
X168783498Y-102872599D01*
X168783280Y-102872273D01*
X168776371Y-102859348D01*
X168776221Y-102858986D01*
X168771968Y-102844964D01*
X168771892Y-102844579D01*
X168771574Y-102841359D01*
X168769688Y-102831872D01*
X168766028Y-102823037D01*
X168760714Y-102815084D01*
X168753953Y-102808322D01*
X168746000Y-102803008D01*
X168737165Y-102799349D01*
X168727781Y-102797482D01*
X168718220Y-102797482D01*
X168708836Y-102799348D01*
X168700001Y-102803008D01*
X168692048Y-102808322D01*
X168685286Y-102815083D01*
X168679972Y-102823036D01*
X168676313Y-102831871D01*
X168674426Y-102841359D01*
X168674108Y-102844579D01*
X168674032Y-102844964D01*
X168669779Y-102858986D01*
X168669629Y-102859348D01*
X168662720Y-102872273D01*
X168662502Y-102872599D01*
X168653205Y-102883928D01*
X168652928Y-102884205D01*
X168641599Y-102893502D01*
X168641273Y-102893720D01*
X168628348Y-102900629D01*
X168627986Y-102900779D01*
X168613964Y-102905032D01*
X168613579Y-102905108D01*
X168596505Y-102906790D01*
X168596309Y-102906800D01*
X168573400Y-102906800D01*
X168571668Y-102905800D01*
X168571668Y-102903800D01*
X168573204Y-102902810D01*
X168592592Y-102900901D01*
X168611052Y-102895301D01*
X168628063Y-102886209D01*
X168642973Y-102873973D01*
X168655209Y-102859063D01*
X168664301Y-102842052D01*
X168669901Y-102823592D01*
X168671800Y-102804306D01*
X168671800Y-101403694D01*
X168669901Y-101384408D01*
X168664301Y-101365948D01*
X168655209Y-101348937D01*
X168642973Y-101334027D01*
X168628063Y-101321791D01*
X168611052Y-101312699D01*
X168592592Y-101307099D01*
X168573204Y-101305190D01*
X168571578Y-101304025D01*
X168571774Y-101302035D01*
X168573400Y-101301200D01*
X168596309Y-101301200D01*
X168596505Y-101301210D01*
G37*
G36*
X166596505Y-101301210D02*
G01*
X166613579Y-101302892D01*
X166613964Y-101302968D01*
X166627986Y-101307221D01*
X166628348Y-101307371D01*
X166641273Y-101314280D01*
X166641599Y-101314498D01*
X166652928Y-101323795D01*
X166653205Y-101324072D01*
X166662502Y-101335401D01*
X166662720Y-101335727D01*
X166669629Y-101348652D01*
X166669779Y-101349014D01*
X166674032Y-101363036D01*
X166674108Y-101363421D01*
X166674426Y-101366641D01*
X166676312Y-101376128D01*
X166679972Y-101384963D01*
X166685286Y-101392916D01*
X166692047Y-101399678D01*
X166700000Y-101404992D01*
X166708835Y-101408651D01*
X166718219Y-101410518D01*
X166727780Y-101410518D01*
X166737164Y-101408652D01*
X166745999Y-101404992D01*
X166753952Y-101399678D01*
X166760714Y-101392917D01*
X166766028Y-101384964D01*
X166769687Y-101376129D01*
X166771574Y-101366641D01*
X166771892Y-101363421D01*
X166771968Y-101363036D01*
X166776221Y-101349014D01*
X166776371Y-101348652D01*
X166783280Y-101335727D01*
X166783498Y-101335401D01*
X166792795Y-101324072D01*
X166793072Y-101323795D01*
X166804401Y-101314498D01*
X166804727Y-101314280D01*
X166817652Y-101307371D01*
X166818014Y-101307221D01*
X166832036Y-101302968D01*
X166832421Y-101302892D01*
X166849495Y-101301210D01*
X166849691Y-101301200D01*
X166872600Y-101301200D01*
X166874332Y-101302200D01*
X166874332Y-101304200D01*
X166872796Y-101305190D01*
X166853408Y-101307099D01*
X166834948Y-101312699D01*
X166817937Y-101321791D01*
X166803027Y-101334027D01*
X166790791Y-101348937D01*
X166781699Y-101365948D01*
X166776099Y-101384408D01*
X166774200Y-101403694D01*
X166774200Y-102804306D01*
X166776099Y-102823592D01*
X166781699Y-102842052D01*
X166790791Y-102859063D01*
X166803027Y-102873973D01*
X166817937Y-102886209D01*
X166834948Y-102895301D01*
X166853408Y-102900901D01*
X166872796Y-102902810D01*
X166874422Y-102903975D01*
X166874226Y-102905965D01*
X166872600Y-102906800D01*
X166849691Y-102906800D01*
X166849495Y-102906790D01*
X166832421Y-102905108D01*
X166832036Y-102905032D01*
X166818014Y-102900779D01*
X166817652Y-102900629D01*
X166804727Y-102893720D01*
X166804401Y-102893502D01*
X166793072Y-102884205D01*
X166792795Y-102883928D01*
X166783498Y-102872599D01*
X166783280Y-102872273D01*
X166776371Y-102859348D01*
X166776221Y-102858986D01*
X166771968Y-102844964D01*
X166771892Y-102844579D01*
X166771574Y-102841359D01*
X166769688Y-102831872D01*
X166766028Y-102823037D01*
X166760714Y-102815084D01*
X166753953Y-102808322D01*
X166746000Y-102803008D01*
X166737165Y-102799349D01*
X166727781Y-102797482D01*
X166718220Y-102797482D01*
X166708836Y-102799348D01*
X166700001Y-102803008D01*
X166692048Y-102808322D01*
X166685286Y-102815083D01*
X166679972Y-102823036D01*
X166676313Y-102831871D01*
X166674426Y-102841359D01*
X166674108Y-102844579D01*
X166674032Y-102844964D01*
X166669779Y-102858986D01*
X166669629Y-102859348D01*
X166662720Y-102872273D01*
X166662502Y-102872599D01*
X166653205Y-102883928D01*
X166652928Y-102884205D01*
X166641599Y-102893502D01*
X166641273Y-102893720D01*
X166628348Y-102900629D01*
X166627986Y-102900779D01*
X166613964Y-102905032D01*
X166613579Y-102905108D01*
X166596505Y-102906790D01*
X166596309Y-102906800D01*
X166573400Y-102906800D01*
X166571668Y-102905800D01*
X166571668Y-102903800D01*
X166573204Y-102902810D01*
X166592592Y-102900901D01*
X166611052Y-102895301D01*
X166628063Y-102886209D01*
X166642973Y-102873973D01*
X166655209Y-102859063D01*
X166664301Y-102842052D01*
X166669901Y-102823592D01*
X166671800Y-102804306D01*
X166671800Y-101403694D01*
X166669901Y-101384408D01*
X166664301Y-101365948D01*
X166655209Y-101348937D01*
X166642973Y-101334027D01*
X166628063Y-101321791D01*
X166611052Y-101312699D01*
X166592592Y-101307099D01*
X166573204Y-101305190D01*
X166571578Y-101304025D01*
X166571774Y-101302035D01*
X166573400Y-101301200D01*
X166596309Y-101301200D01*
X166596505Y-101301210D01*
G37*
G36*
X168096505Y-101301210D02*
G01*
X168113579Y-101302892D01*
X168113964Y-101302968D01*
X168127986Y-101307221D01*
X168128348Y-101307371D01*
X168141273Y-101314280D01*
X168141599Y-101314498D01*
X168152928Y-101323795D01*
X168153205Y-101324072D01*
X168162502Y-101335401D01*
X168162720Y-101335727D01*
X168169629Y-101348652D01*
X168169779Y-101349014D01*
X168174032Y-101363036D01*
X168174108Y-101363421D01*
X168174426Y-101366641D01*
X168176312Y-101376128D01*
X168179972Y-101384963D01*
X168185286Y-101392916D01*
X168192047Y-101399678D01*
X168200000Y-101404992D01*
X168208835Y-101408651D01*
X168218219Y-101410518D01*
X168227780Y-101410518D01*
X168237164Y-101408652D01*
X168245999Y-101404992D01*
X168253952Y-101399678D01*
X168260714Y-101392917D01*
X168266028Y-101384964D01*
X168269687Y-101376129D01*
X168271574Y-101366641D01*
X168271892Y-101363421D01*
X168271968Y-101363036D01*
X168276221Y-101349014D01*
X168276371Y-101348652D01*
X168283280Y-101335727D01*
X168283498Y-101335401D01*
X168292795Y-101324072D01*
X168293072Y-101323795D01*
X168304401Y-101314498D01*
X168304727Y-101314280D01*
X168317652Y-101307371D01*
X168318014Y-101307221D01*
X168332036Y-101302968D01*
X168332421Y-101302892D01*
X168349495Y-101301210D01*
X168349691Y-101301200D01*
X168372600Y-101301200D01*
X168374332Y-101302200D01*
X168374332Y-101304200D01*
X168372796Y-101305190D01*
X168353408Y-101307099D01*
X168334948Y-101312699D01*
X168317937Y-101321791D01*
X168303027Y-101334027D01*
X168290791Y-101348937D01*
X168281699Y-101365948D01*
X168276099Y-101384408D01*
X168274200Y-101403694D01*
X168274200Y-102804306D01*
X168276099Y-102823592D01*
X168281699Y-102842052D01*
X168290791Y-102859063D01*
X168303027Y-102873973D01*
X168317937Y-102886209D01*
X168334948Y-102895301D01*
X168353408Y-102900901D01*
X168372796Y-102902810D01*
X168374422Y-102903975D01*
X168374226Y-102905965D01*
X168372600Y-102906800D01*
X168349691Y-102906800D01*
X168349495Y-102906790D01*
X168332421Y-102905108D01*
X168332036Y-102905032D01*
X168318014Y-102900779D01*
X168317652Y-102900629D01*
X168304727Y-102893720D01*
X168304401Y-102893502D01*
X168293072Y-102884205D01*
X168292795Y-102883928D01*
X168283498Y-102872599D01*
X168283280Y-102872273D01*
X168276371Y-102859348D01*
X168276221Y-102858986D01*
X168271968Y-102844964D01*
X168271892Y-102844579D01*
X168271574Y-102841359D01*
X168269688Y-102831872D01*
X168266028Y-102823037D01*
X168260714Y-102815084D01*
X168253953Y-102808322D01*
X168246000Y-102803008D01*
X168237165Y-102799349D01*
X168227781Y-102797482D01*
X168218220Y-102797482D01*
X168208836Y-102799348D01*
X168200001Y-102803008D01*
X168192048Y-102808322D01*
X168185286Y-102815083D01*
X168179972Y-102823036D01*
X168176313Y-102831871D01*
X168174426Y-102841359D01*
X168174108Y-102844579D01*
X168174032Y-102844964D01*
X168169779Y-102858986D01*
X168169629Y-102859348D01*
X168162720Y-102872273D01*
X168162502Y-102872599D01*
X168153205Y-102883928D01*
X168152928Y-102884205D01*
X168141599Y-102893502D01*
X168141273Y-102893720D01*
X168128348Y-102900629D01*
X168127986Y-102900779D01*
X168113964Y-102905032D01*
X168113579Y-102905108D01*
X168096505Y-102906790D01*
X168096309Y-102906800D01*
X168073400Y-102906800D01*
X168071668Y-102905800D01*
X168071668Y-102903800D01*
X168073204Y-102902810D01*
X168092592Y-102900901D01*
X168111052Y-102895301D01*
X168128063Y-102886209D01*
X168142973Y-102873973D01*
X168155209Y-102859063D01*
X168164301Y-102842052D01*
X168169901Y-102823592D01*
X168171800Y-102804306D01*
X168171800Y-101403694D01*
X168169901Y-101384408D01*
X168164301Y-101365948D01*
X168155209Y-101348937D01*
X168142973Y-101334027D01*
X168128063Y-101321791D01*
X168111052Y-101312699D01*
X168092592Y-101307099D01*
X168073204Y-101305190D01*
X168071578Y-101304025D01*
X168071774Y-101302035D01*
X168073400Y-101301200D01*
X168096309Y-101301200D01*
X168096505Y-101301210D01*
G37*
G36*
X169596505Y-101301210D02*
G01*
X169613579Y-101302892D01*
X169613964Y-101302968D01*
X169627986Y-101307221D01*
X169628348Y-101307371D01*
X169641273Y-101314280D01*
X169641599Y-101314498D01*
X169652928Y-101323795D01*
X169653205Y-101324072D01*
X169662502Y-101335401D01*
X169662720Y-101335727D01*
X169669629Y-101348652D01*
X169669779Y-101349014D01*
X169674032Y-101363036D01*
X169674108Y-101363421D01*
X169674426Y-101366641D01*
X169676312Y-101376128D01*
X169679972Y-101384963D01*
X169685286Y-101392916D01*
X169692047Y-101399678D01*
X169700000Y-101404992D01*
X169708835Y-101408651D01*
X169718219Y-101410518D01*
X169727780Y-101410518D01*
X169737164Y-101408652D01*
X169745999Y-101404992D01*
X169753952Y-101399678D01*
X169760714Y-101392917D01*
X169766028Y-101384964D01*
X169769687Y-101376129D01*
X169771574Y-101366641D01*
X169771892Y-101363421D01*
X169771968Y-101363036D01*
X169776221Y-101349014D01*
X169776371Y-101348652D01*
X169783280Y-101335727D01*
X169783498Y-101335401D01*
X169792795Y-101324072D01*
X169793072Y-101323795D01*
X169804401Y-101314498D01*
X169804727Y-101314280D01*
X169817652Y-101307371D01*
X169818014Y-101307221D01*
X169832036Y-101302968D01*
X169832421Y-101302892D01*
X169849495Y-101301210D01*
X169849691Y-101301200D01*
X169872600Y-101301200D01*
X169874332Y-101302200D01*
X169874332Y-101304200D01*
X169872796Y-101305190D01*
X169853408Y-101307099D01*
X169834948Y-101312699D01*
X169817937Y-101321791D01*
X169803027Y-101334027D01*
X169790791Y-101348937D01*
X169781699Y-101365948D01*
X169776099Y-101384408D01*
X169774200Y-101403694D01*
X169774200Y-102804306D01*
X169776099Y-102823592D01*
X169781699Y-102842052D01*
X169790791Y-102859063D01*
X169803027Y-102873973D01*
X169817937Y-102886209D01*
X169834948Y-102895301D01*
X169853408Y-102900901D01*
X169872796Y-102902810D01*
X169874422Y-102903975D01*
X169874226Y-102905965D01*
X169872600Y-102906800D01*
X169849691Y-102906800D01*
X169849495Y-102906790D01*
X169832421Y-102905108D01*
X169832036Y-102905032D01*
X169818014Y-102900779D01*
X169817652Y-102900629D01*
X169804727Y-102893720D01*
X169804401Y-102893502D01*
X169793072Y-102884205D01*
X169792795Y-102883928D01*
X169783498Y-102872599D01*
X169783280Y-102872273D01*
X169776371Y-102859348D01*
X169776221Y-102858986D01*
X169771968Y-102844964D01*
X169771892Y-102844579D01*
X169771574Y-102841359D01*
X169769688Y-102831872D01*
X169766028Y-102823037D01*
X169760714Y-102815084D01*
X169753953Y-102808322D01*
X169746000Y-102803008D01*
X169737165Y-102799349D01*
X169727781Y-102797482D01*
X169718220Y-102797482D01*
X169708836Y-102799348D01*
X169700001Y-102803008D01*
X169692048Y-102808322D01*
X169685286Y-102815083D01*
X169679972Y-102823036D01*
X169676313Y-102831871D01*
X169674426Y-102841359D01*
X169674108Y-102844579D01*
X169674032Y-102844964D01*
X169669779Y-102858986D01*
X169669629Y-102859348D01*
X169662720Y-102872273D01*
X169662502Y-102872599D01*
X169653205Y-102883928D01*
X169652928Y-102884205D01*
X169641599Y-102893502D01*
X169641273Y-102893720D01*
X169628348Y-102900629D01*
X169627986Y-102900779D01*
X169613964Y-102905032D01*
X169613579Y-102905108D01*
X169596505Y-102906790D01*
X169596309Y-102906800D01*
X169573400Y-102906800D01*
X169571668Y-102905800D01*
X169571668Y-102903800D01*
X169573204Y-102902810D01*
X169592592Y-102900901D01*
X169611052Y-102895301D01*
X169628063Y-102886209D01*
X169642973Y-102873973D01*
X169655209Y-102859063D01*
X169664301Y-102842052D01*
X169669901Y-102823592D01*
X169671800Y-102804306D01*
X169671800Y-101403694D01*
X169669901Y-101384408D01*
X169664301Y-101365948D01*
X169655209Y-101348937D01*
X169642973Y-101334027D01*
X169628063Y-101321791D01*
X169611052Y-101312699D01*
X169592592Y-101307099D01*
X169573204Y-101305190D01*
X169571578Y-101304025D01*
X169571774Y-101302035D01*
X169573400Y-101301200D01*
X169596309Y-101301200D01*
X169596505Y-101301210D01*
G37*
G36*
X167096505Y-101301210D02*
G01*
X167113579Y-101302892D01*
X167113964Y-101302968D01*
X167127986Y-101307221D01*
X167128348Y-101307371D01*
X167141273Y-101314280D01*
X167141599Y-101314498D01*
X167152928Y-101323795D01*
X167153205Y-101324072D01*
X167162502Y-101335401D01*
X167162720Y-101335727D01*
X167169629Y-101348652D01*
X167169779Y-101349014D01*
X167174032Y-101363036D01*
X167174108Y-101363421D01*
X167174426Y-101366641D01*
X167176312Y-101376128D01*
X167179972Y-101384963D01*
X167185286Y-101392916D01*
X167192047Y-101399678D01*
X167200000Y-101404992D01*
X167208835Y-101408651D01*
X167218219Y-101410518D01*
X167227780Y-101410518D01*
X167237164Y-101408652D01*
X167245999Y-101404992D01*
X167253952Y-101399678D01*
X167260714Y-101392917D01*
X167266028Y-101384964D01*
X167269687Y-101376129D01*
X167271574Y-101366641D01*
X167271892Y-101363421D01*
X167271968Y-101363036D01*
X167276221Y-101349014D01*
X167276371Y-101348652D01*
X167283280Y-101335727D01*
X167283498Y-101335401D01*
X167292795Y-101324072D01*
X167293072Y-101323795D01*
X167304401Y-101314498D01*
X167304727Y-101314280D01*
X167317652Y-101307371D01*
X167318014Y-101307221D01*
X167332036Y-101302968D01*
X167332421Y-101302892D01*
X167349495Y-101301210D01*
X167349691Y-101301200D01*
X167372600Y-101301200D01*
X167374332Y-101302200D01*
X167374332Y-101304200D01*
X167372796Y-101305190D01*
X167353408Y-101307099D01*
X167334948Y-101312699D01*
X167317937Y-101321791D01*
X167303027Y-101334027D01*
X167290791Y-101348937D01*
X167281699Y-101365948D01*
X167276099Y-101384408D01*
X167274200Y-101403694D01*
X167274200Y-102804306D01*
X167276099Y-102823592D01*
X167281699Y-102842052D01*
X167290791Y-102859063D01*
X167303027Y-102873973D01*
X167317937Y-102886209D01*
X167334948Y-102895301D01*
X167353408Y-102900901D01*
X167372796Y-102902810D01*
X167374422Y-102903975D01*
X167374226Y-102905965D01*
X167372600Y-102906800D01*
X167349691Y-102906800D01*
X167349495Y-102906790D01*
X167332421Y-102905108D01*
X167332036Y-102905032D01*
X167318014Y-102900779D01*
X167317652Y-102900629D01*
X167304727Y-102893720D01*
X167304401Y-102893502D01*
X167293072Y-102884205D01*
X167292795Y-102883928D01*
X167283498Y-102872599D01*
X167283280Y-102872273D01*
X167276371Y-102859348D01*
X167276221Y-102858986D01*
X167271968Y-102844964D01*
X167271892Y-102844579D01*
X167271574Y-102841359D01*
X167269688Y-102831872D01*
X167266028Y-102823037D01*
X167260714Y-102815084D01*
X167253953Y-102808322D01*
X167246000Y-102803008D01*
X167237165Y-102799349D01*
X167227781Y-102797482D01*
X167218220Y-102797482D01*
X167208836Y-102799348D01*
X167200001Y-102803008D01*
X167192048Y-102808322D01*
X167185286Y-102815083D01*
X167179972Y-102823036D01*
X167176313Y-102831871D01*
X167174426Y-102841359D01*
X167174108Y-102844579D01*
X167174032Y-102844964D01*
X167169779Y-102858986D01*
X167169629Y-102859348D01*
X167162720Y-102872273D01*
X167162502Y-102872599D01*
X167153205Y-102883928D01*
X167152928Y-102884205D01*
X167141599Y-102893502D01*
X167141273Y-102893720D01*
X167128348Y-102900629D01*
X167127986Y-102900779D01*
X167113964Y-102905032D01*
X167113579Y-102905108D01*
X167096505Y-102906790D01*
X167096309Y-102906800D01*
X167073400Y-102906800D01*
X167071668Y-102905800D01*
X167071668Y-102903800D01*
X167073204Y-102902810D01*
X167092592Y-102900901D01*
X167111052Y-102895301D01*
X167128063Y-102886209D01*
X167142973Y-102873973D01*
X167155209Y-102859063D01*
X167164301Y-102842052D01*
X167169901Y-102823592D01*
X167171800Y-102804306D01*
X167171800Y-101403694D01*
X167169901Y-101384408D01*
X167164301Y-101365948D01*
X167155209Y-101348937D01*
X167142973Y-101334027D01*
X167128063Y-101321791D01*
X167111052Y-101312699D01*
X167092592Y-101307099D01*
X167073204Y-101305190D01*
X167071578Y-101304025D01*
X167071774Y-101302035D01*
X167073400Y-101301200D01*
X167096309Y-101301200D01*
X167096505Y-101301210D01*
G37*
G36*
X169096505Y-101301210D02*
G01*
X169113579Y-101302892D01*
X169113964Y-101302968D01*
X169127986Y-101307221D01*
X169128348Y-101307371D01*
X169141273Y-101314280D01*
X169141599Y-101314498D01*
X169152928Y-101323795D01*
X169153205Y-101324072D01*
X169162502Y-101335401D01*
X169162720Y-101335727D01*
X169169629Y-101348652D01*
X169169779Y-101349014D01*
X169174032Y-101363036D01*
X169174108Y-101363421D01*
X169174426Y-101366641D01*
X169176312Y-101376128D01*
X169179972Y-101384963D01*
X169185286Y-101392916D01*
X169192047Y-101399678D01*
X169200000Y-101404992D01*
X169208835Y-101408651D01*
X169218219Y-101410518D01*
X169227780Y-101410518D01*
X169237164Y-101408652D01*
X169245999Y-101404992D01*
X169253952Y-101399678D01*
X169260714Y-101392917D01*
X169266028Y-101384964D01*
X169269687Y-101376129D01*
X169271574Y-101366641D01*
X169271892Y-101363421D01*
X169271968Y-101363036D01*
X169276221Y-101349014D01*
X169276371Y-101348652D01*
X169283280Y-101335727D01*
X169283498Y-101335401D01*
X169292795Y-101324072D01*
X169293072Y-101323795D01*
X169304401Y-101314498D01*
X169304727Y-101314280D01*
X169317652Y-101307371D01*
X169318014Y-101307221D01*
X169332036Y-101302968D01*
X169332421Y-101302892D01*
X169349495Y-101301210D01*
X169349691Y-101301200D01*
X169372600Y-101301200D01*
X169374332Y-101302200D01*
X169374332Y-101304200D01*
X169372796Y-101305190D01*
X169353408Y-101307099D01*
X169334948Y-101312699D01*
X169317937Y-101321791D01*
X169303027Y-101334027D01*
X169290791Y-101348937D01*
X169281699Y-101365948D01*
X169276099Y-101384408D01*
X169274200Y-101403694D01*
X169274200Y-102804306D01*
X169276099Y-102823592D01*
X169281699Y-102842052D01*
X169290791Y-102859063D01*
X169303027Y-102873973D01*
X169317937Y-102886209D01*
X169334948Y-102895301D01*
X169353408Y-102900901D01*
X169372796Y-102902810D01*
X169374422Y-102903975D01*
X169374226Y-102905965D01*
X169372600Y-102906800D01*
X169349691Y-102906800D01*
X169349495Y-102906790D01*
X169332421Y-102905108D01*
X169332036Y-102905032D01*
X169318014Y-102900779D01*
X169317652Y-102900629D01*
X169304727Y-102893720D01*
X169304401Y-102893502D01*
X169293072Y-102884205D01*
X169292795Y-102883928D01*
X169283498Y-102872599D01*
X169283280Y-102872273D01*
X169276371Y-102859348D01*
X169276221Y-102858986D01*
X169271968Y-102844964D01*
X169271892Y-102844579D01*
X169271574Y-102841359D01*
X169269688Y-102831872D01*
X169266028Y-102823037D01*
X169260714Y-102815084D01*
X169253953Y-102808322D01*
X169246000Y-102803008D01*
X169237165Y-102799349D01*
X169227781Y-102797482D01*
X169218220Y-102797482D01*
X169208836Y-102799348D01*
X169200001Y-102803008D01*
X169192048Y-102808322D01*
X169185286Y-102815083D01*
X169179972Y-102823036D01*
X169176313Y-102831871D01*
X169174426Y-102841359D01*
X169174108Y-102844579D01*
X169174032Y-102844964D01*
X169169779Y-102858986D01*
X169169629Y-102859348D01*
X169162720Y-102872273D01*
X169162502Y-102872599D01*
X169153205Y-102883928D01*
X169152928Y-102884205D01*
X169141599Y-102893502D01*
X169141273Y-102893720D01*
X169128348Y-102900629D01*
X169127986Y-102900779D01*
X169113964Y-102905032D01*
X169113579Y-102905108D01*
X169096505Y-102906790D01*
X169096309Y-102906800D01*
X169073400Y-102906800D01*
X169071668Y-102905800D01*
X169071668Y-102903800D01*
X169073204Y-102902810D01*
X169092592Y-102900901D01*
X169111052Y-102895301D01*
X169128063Y-102886209D01*
X169142973Y-102873973D01*
X169155209Y-102859063D01*
X169164301Y-102842052D01*
X169169901Y-102823592D01*
X169171800Y-102804306D01*
X169171800Y-101403694D01*
X169169901Y-101384408D01*
X169164301Y-101365948D01*
X169155209Y-101348937D01*
X169142973Y-101334027D01*
X169128063Y-101321791D01*
X169111052Y-101312699D01*
X169092592Y-101307099D01*
X169073204Y-101305190D01*
X169071578Y-101304025D01*
X169071774Y-101302035D01*
X169073400Y-101301200D01*
X169096309Y-101301200D01*
X169096505Y-101301210D01*
G37*
G36*
X167596505Y-101301210D02*
G01*
X167613579Y-101302892D01*
X167613964Y-101302968D01*
X167627986Y-101307221D01*
X167628348Y-101307371D01*
X167641273Y-101314280D01*
X167641599Y-101314498D01*
X167652928Y-101323795D01*
X167653205Y-101324072D01*
X167662502Y-101335401D01*
X167662720Y-101335727D01*
X167669629Y-101348652D01*
X167669779Y-101349014D01*
X167674032Y-101363036D01*
X167674108Y-101363421D01*
X167674426Y-101366641D01*
X167676312Y-101376128D01*
X167679972Y-101384963D01*
X167685286Y-101392916D01*
X167692047Y-101399678D01*
X167700000Y-101404992D01*
X167708835Y-101408651D01*
X167718219Y-101410518D01*
X167727780Y-101410518D01*
X167737164Y-101408652D01*
X167745999Y-101404992D01*
X167753952Y-101399678D01*
X167760714Y-101392917D01*
X167766028Y-101384964D01*
X167769687Y-101376129D01*
X167771574Y-101366641D01*
X167771892Y-101363421D01*
X167771968Y-101363036D01*
X167776221Y-101349014D01*
X167776371Y-101348652D01*
X167783280Y-101335727D01*
X167783498Y-101335401D01*
X167792795Y-101324072D01*
X167793072Y-101323795D01*
X167804401Y-101314498D01*
X167804727Y-101314280D01*
X167817652Y-101307371D01*
X167818014Y-101307221D01*
X167832036Y-101302968D01*
X167832421Y-101302892D01*
X167849495Y-101301210D01*
X167849691Y-101301200D01*
X167872600Y-101301200D01*
X167874332Y-101302200D01*
X167874332Y-101304200D01*
X167872796Y-101305190D01*
X167853408Y-101307099D01*
X167834948Y-101312699D01*
X167817937Y-101321791D01*
X167803027Y-101334027D01*
X167790791Y-101348937D01*
X167781699Y-101365948D01*
X167776099Y-101384408D01*
X167774200Y-101403694D01*
X167774200Y-102804306D01*
X167776099Y-102823592D01*
X167781699Y-102842052D01*
X167790791Y-102859063D01*
X167803027Y-102873973D01*
X167817937Y-102886209D01*
X167834948Y-102895301D01*
X167853408Y-102900901D01*
X167872796Y-102902810D01*
X167874422Y-102903975D01*
X167874226Y-102905965D01*
X167872600Y-102906800D01*
X167849691Y-102906800D01*
X167849495Y-102906790D01*
X167832421Y-102905108D01*
X167832036Y-102905032D01*
X167818014Y-102900779D01*
X167817652Y-102900629D01*
X167804727Y-102893720D01*
X167804401Y-102893502D01*
X167793072Y-102884205D01*
X167792795Y-102883928D01*
X167783498Y-102872599D01*
X167783280Y-102872273D01*
X167776371Y-102859348D01*
X167776221Y-102858986D01*
X167771968Y-102844964D01*
X167771892Y-102844579D01*
X167771574Y-102841359D01*
X167769688Y-102831872D01*
X167766028Y-102823037D01*
X167760714Y-102815084D01*
X167753953Y-102808322D01*
X167746000Y-102803008D01*
X167737165Y-102799349D01*
X167727781Y-102797482D01*
X167718220Y-102797482D01*
X167708836Y-102799348D01*
X167700001Y-102803008D01*
X167692048Y-102808322D01*
X167685286Y-102815083D01*
X167679972Y-102823036D01*
X167676313Y-102831871D01*
X167674426Y-102841359D01*
X167674108Y-102844579D01*
X167674032Y-102844964D01*
X167669779Y-102858986D01*
X167669629Y-102859348D01*
X167662720Y-102872273D01*
X167662502Y-102872599D01*
X167653205Y-102883928D01*
X167652928Y-102884205D01*
X167641599Y-102893502D01*
X167641273Y-102893720D01*
X167628348Y-102900629D01*
X167627986Y-102900779D01*
X167613964Y-102905032D01*
X167613579Y-102905108D01*
X167596505Y-102906790D01*
X167596309Y-102906800D01*
X167573400Y-102906800D01*
X167571668Y-102905800D01*
X167571668Y-102903800D01*
X167573204Y-102902810D01*
X167592592Y-102900901D01*
X167611052Y-102895301D01*
X167628063Y-102886209D01*
X167642973Y-102873973D01*
X167655209Y-102859063D01*
X167664301Y-102842052D01*
X167669901Y-102823592D01*
X167671800Y-102804306D01*
X167671800Y-101403694D01*
X167669901Y-101384408D01*
X167664301Y-101365948D01*
X167655209Y-101348937D01*
X167642973Y-101334027D01*
X167628063Y-101321791D01*
X167611052Y-101312699D01*
X167592592Y-101307099D01*
X167573204Y-101305190D01*
X167571578Y-101304025D01*
X167571774Y-101302035D01*
X167573400Y-101301200D01*
X167596309Y-101301200D01*
X167596505Y-101301210D01*
G37*
G36*
X172199965Y-100277774D02*
G01*
X172200800Y-100279400D01*
X172200800Y-100302309D01*
X172200790Y-100302505D01*
X172199108Y-100319579D01*
X172199032Y-100319964D01*
X172194779Y-100333986D01*
X172194629Y-100334348D01*
X172187720Y-100347273D01*
X172187502Y-100347599D01*
X172178205Y-100358928D01*
X172177928Y-100359205D01*
X172166599Y-100368502D01*
X172166273Y-100368720D01*
X172153348Y-100375629D01*
X172152986Y-100375779D01*
X172138964Y-100380032D01*
X172138579Y-100380108D01*
X172135359Y-100380426D01*
X172125872Y-100382312D01*
X172117037Y-100385972D01*
X172109084Y-100391286D01*
X172102322Y-100398047D01*
X172097008Y-100406000D01*
X172093349Y-100414835D01*
X172091482Y-100424219D01*
X172091482Y-100433780D01*
X172093348Y-100443164D01*
X172097008Y-100451999D01*
X172102322Y-100459952D01*
X172109083Y-100466714D01*
X172117036Y-100472028D01*
X172125871Y-100475687D01*
X172135359Y-100477574D01*
X172138579Y-100477892D01*
X172138964Y-100477968D01*
X172152986Y-100482221D01*
X172153348Y-100482371D01*
X172166273Y-100489280D01*
X172166599Y-100489498D01*
X172177928Y-100498795D01*
X172178205Y-100499072D01*
X172187502Y-100510401D01*
X172187720Y-100510727D01*
X172194629Y-100523652D01*
X172194779Y-100524014D01*
X172199032Y-100538036D01*
X172199108Y-100538421D01*
X172200790Y-100555495D01*
X172200800Y-100555691D01*
X172200800Y-100578600D01*
X172199800Y-100580332D01*
X172197800Y-100580332D01*
X172196810Y-100578796D01*
X172194901Y-100559408D01*
X172189301Y-100540948D01*
X172180209Y-100523937D01*
X172167973Y-100509027D01*
X172153063Y-100496791D01*
X172136052Y-100487699D01*
X172117592Y-100482099D01*
X172098306Y-100480200D01*
X170697694Y-100480200D01*
X170678408Y-100482099D01*
X170659948Y-100487699D01*
X170642937Y-100496791D01*
X170628027Y-100509027D01*
X170615791Y-100523937D01*
X170606699Y-100540948D01*
X170601099Y-100559408D01*
X170599190Y-100578796D01*
X170598025Y-100580422D01*
X170596035Y-100580226D01*
X170595200Y-100578600D01*
X170595200Y-100555691D01*
X170595210Y-100555495D01*
X170596892Y-100538421D01*
X170596968Y-100538036D01*
X170601221Y-100524014D01*
X170601371Y-100523652D01*
X170608280Y-100510727D01*
X170608498Y-100510401D01*
X170617795Y-100499072D01*
X170618072Y-100498795D01*
X170629401Y-100489498D01*
X170629727Y-100489280D01*
X170642652Y-100482371D01*
X170643014Y-100482221D01*
X170657036Y-100477968D01*
X170657421Y-100477892D01*
X170660641Y-100477574D01*
X170670128Y-100475688D01*
X170678963Y-100472028D01*
X170686916Y-100466714D01*
X170693678Y-100459953D01*
X170698992Y-100452000D01*
X170702651Y-100443165D01*
X170704518Y-100433781D01*
X170704518Y-100424220D01*
X170702652Y-100414836D01*
X170698992Y-100406001D01*
X170693678Y-100398048D01*
X170686917Y-100391286D01*
X170678964Y-100385972D01*
X170670129Y-100382313D01*
X170660641Y-100380426D01*
X170657421Y-100380108D01*
X170657036Y-100380032D01*
X170643014Y-100375779D01*
X170642652Y-100375629D01*
X170629727Y-100368720D01*
X170629401Y-100368502D01*
X170618072Y-100359205D01*
X170617795Y-100358928D01*
X170608498Y-100347599D01*
X170608280Y-100347273D01*
X170601371Y-100334348D01*
X170601221Y-100333986D01*
X170596968Y-100319964D01*
X170596892Y-100319579D01*
X170595210Y-100302505D01*
X170595200Y-100302309D01*
X170595200Y-100279400D01*
X170596200Y-100277668D01*
X170598200Y-100277668D01*
X170599190Y-100279204D01*
X170601099Y-100298592D01*
X170606699Y-100317052D01*
X170615791Y-100334063D01*
X170628027Y-100348973D01*
X170642937Y-100361209D01*
X170659948Y-100370301D01*
X170678408Y-100375901D01*
X170697694Y-100377800D01*
X172098306Y-100377800D01*
X172117592Y-100375901D01*
X172136052Y-100370301D01*
X172153063Y-100361209D01*
X172167973Y-100348973D01*
X172180209Y-100334063D01*
X172189301Y-100317052D01*
X172194901Y-100298592D01*
X172196810Y-100279204D01*
X172197975Y-100277578D01*
X172199965Y-100277774D01*
G37*
G36*
X165849965Y-100277774D02*
G01*
X165850800Y-100279400D01*
X165850800Y-100302309D01*
X165850790Y-100302505D01*
X165849108Y-100319579D01*
X165849032Y-100319964D01*
X165844779Y-100333986D01*
X165844629Y-100334348D01*
X165837720Y-100347273D01*
X165837502Y-100347599D01*
X165828205Y-100358928D01*
X165827928Y-100359205D01*
X165816599Y-100368502D01*
X165816273Y-100368720D01*
X165803348Y-100375629D01*
X165802986Y-100375779D01*
X165788964Y-100380032D01*
X165788579Y-100380108D01*
X165785359Y-100380426D01*
X165775872Y-100382312D01*
X165767037Y-100385972D01*
X165759084Y-100391286D01*
X165752322Y-100398047D01*
X165747008Y-100406000D01*
X165743349Y-100414835D01*
X165741482Y-100424219D01*
X165741482Y-100433780D01*
X165743348Y-100443164D01*
X165747008Y-100451999D01*
X165752322Y-100459952D01*
X165759083Y-100466714D01*
X165767036Y-100472028D01*
X165775871Y-100475687D01*
X165785359Y-100477574D01*
X165788579Y-100477892D01*
X165788964Y-100477968D01*
X165802986Y-100482221D01*
X165803348Y-100482371D01*
X165816273Y-100489280D01*
X165816599Y-100489498D01*
X165827928Y-100498795D01*
X165828205Y-100499072D01*
X165837502Y-100510401D01*
X165837720Y-100510727D01*
X165844629Y-100523652D01*
X165844779Y-100524014D01*
X165849032Y-100538036D01*
X165849108Y-100538421D01*
X165850790Y-100555495D01*
X165850800Y-100555691D01*
X165850800Y-100578600D01*
X165849800Y-100580332D01*
X165847800Y-100580332D01*
X165846810Y-100578796D01*
X165844901Y-100559408D01*
X165839301Y-100540948D01*
X165830209Y-100523937D01*
X165817973Y-100509027D01*
X165803063Y-100496791D01*
X165786052Y-100487699D01*
X165767592Y-100482099D01*
X165748306Y-100480200D01*
X164347694Y-100480200D01*
X164328408Y-100482099D01*
X164309948Y-100487699D01*
X164292937Y-100496791D01*
X164278027Y-100509027D01*
X164265791Y-100523937D01*
X164256699Y-100540948D01*
X164251099Y-100559408D01*
X164249190Y-100578796D01*
X164248025Y-100580422D01*
X164246035Y-100580226D01*
X164245200Y-100578600D01*
X164245200Y-100555691D01*
X164245210Y-100555495D01*
X164246892Y-100538421D01*
X164246968Y-100538036D01*
X164251221Y-100524014D01*
X164251371Y-100523652D01*
X164258280Y-100510727D01*
X164258498Y-100510401D01*
X164267795Y-100499072D01*
X164268072Y-100498795D01*
X164279401Y-100489498D01*
X164279727Y-100489280D01*
X164292652Y-100482371D01*
X164293014Y-100482221D01*
X164307036Y-100477968D01*
X164307421Y-100477892D01*
X164310641Y-100477574D01*
X164320128Y-100475688D01*
X164328963Y-100472028D01*
X164336916Y-100466714D01*
X164343678Y-100459953D01*
X164348992Y-100452000D01*
X164352651Y-100443165D01*
X164354518Y-100433781D01*
X164354518Y-100424220D01*
X164352652Y-100414836D01*
X164348992Y-100406001D01*
X164343678Y-100398048D01*
X164336917Y-100391286D01*
X164328964Y-100385972D01*
X164320129Y-100382313D01*
X164310641Y-100380426D01*
X164307421Y-100380108D01*
X164307036Y-100380032D01*
X164293014Y-100375779D01*
X164292652Y-100375629D01*
X164279727Y-100368720D01*
X164279401Y-100368502D01*
X164268072Y-100359205D01*
X164267795Y-100358928D01*
X164258498Y-100347599D01*
X164258280Y-100347273D01*
X164251371Y-100334348D01*
X164251221Y-100333986D01*
X164246968Y-100319964D01*
X164246892Y-100319579D01*
X164245210Y-100302505D01*
X164245200Y-100302309D01*
X164245200Y-100279400D01*
X164246200Y-100277668D01*
X164248200Y-100277668D01*
X164249190Y-100279204D01*
X164251099Y-100298592D01*
X164256699Y-100317052D01*
X164265791Y-100334063D01*
X164278027Y-100348973D01*
X164292937Y-100361209D01*
X164309948Y-100370301D01*
X164328408Y-100375901D01*
X164347694Y-100377800D01*
X165748306Y-100377800D01*
X165767592Y-100375901D01*
X165786052Y-100370301D01*
X165803063Y-100361209D01*
X165817973Y-100348973D01*
X165830209Y-100334063D01*
X165839301Y-100317052D01*
X165844901Y-100298592D01*
X165846810Y-100279204D01*
X165847975Y-100277578D01*
X165849965Y-100277774D01*
G37*
G36*
X165849965Y-99777774D02*
G01*
X165850800Y-99779400D01*
X165850800Y-99802309D01*
X165850790Y-99802505D01*
X165849108Y-99819579D01*
X165849032Y-99819964D01*
X165844779Y-99833986D01*
X165844629Y-99834348D01*
X165837720Y-99847273D01*
X165837502Y-99847599D01*
X165828205Y-99858928D01*
X165827928Y-99859205D01*
X165816599Y-99868502D01*
X165816273Y-99868720D01*
X165803348Y-99875629D01*
X165802986Y-99875779D01*
X165788964Y-99880032D01*
X165788579Y-99880108D01*
X165785359Y-99880426D01*
X165775872Y-99882312D01*
X165767037Y-99885972D01*
X165759084Y-99891286D01*
X165752322Y-99898047D01*
X165747008Y-99906000D01*
X165743349Y-99914835D01*
X165741482Y-99924219D01*
X165741482Y-99933780D01*
X165743348Y-99943164D01*
X165747008Y-99951999D01*
X165752322Y-99959952D01*
X165759083Y-99966714D01*
X165767036Y-99972028D01*
X165775871Y-99975687D01*
X165785359Y-99977574D01*
X165788579Y-99977892D01*
X165788964Y-99977968D01*
X165802986Y-99982221D01*
X165803348Y-99982371D01*
X165816273Y-99989280D01*
X165816599Y-99989498D01*
X165827928Y-99998795D01*
X165828205Y-99999072D01*
X165837502Y-100010401D01*
X165837720Y-100010727D01*
X165844629Y-100023652D01*
X165844779Y-100024014D01*
X165849032Y-100038036D01*
X165849108Y-100038421D01*
X165850790Y-100055495D01*
X165850800Y-100055691D01*
X165850800Y-100078600D01*
X165849800Y-100080332D01*
X165847800Y-100080332D01*
X165846810Y-100078796D01*
X165844901Y-100059408D01*
X165839301Y-100040948D01*
X165830209Y-100023937D01*
X165817973Y-100009027D01*
X165803063Y-99996791D01*
X165786052Y-99987699D01*
X165767592Y-99982099D01*
X165748306Y-99980200D01*
X164347694Y-99980200D01*
X164328408Y-99982099D01*
X164309948Y-99987699D01*
X164292937Y-99996791D01*
X164278027Y-100009027D01*
X164265791Y-100023937D01*
X164256699Y-100040948D01*
X164251099Y-100059408D01*
X164249190Y-100078796D01*
X164248025Y-100080422D01*
X164246035Y-100080226D01*
X164245200Y-100078600D01*
X164245200Y-100055691D01*
X164245210Y-100055495D01*
X164246892Y-100038421D01*
X164246968Y-100038036D01*
X164251221Y-100024014D01*
X164251371Y-100023652D01*
X164258280Y-100010727D01*
X164258498Y-100010401D01*
X164267795Y-99999072D01*
X164268072Y-99998795D01*
X164279401Y-99989498D01*
X164279727Y-99989280D01*
X164292652Y-99982371D01*
X164293014Y-99982221D01*
X164307036Y-99977968D01*
X164307421Y-99977892D01*
X164310641Y-99977574D01*
X164320128Y-99975688D01*
X164328963Y-99972028D01*
X164336916Y-99966714D01*
X164343678Y-99959953D01*
X164348992Y-99952000D01*
X164352651Y-99943165D01*
X164354518Y-99933781D01*
X164354518Y-99924220D01*
X164352652Y-99914836D01*
X164348992Y-99906001D01*
X164343678Y-99898048D01*
X164336917Y-99891286D01*
X164328964Y-99885972D01*
X164320129Y-99882313D01*
X164310641Y-99880426D01*
X164307421Y-99880108D01*
X164307036Y-99880032D01*
X164293014Y-99875779D01*
X164292652Y-99875629D01*
X164279727Y-99868720D01*
X164279401Y-99868502D01*
X164268072Y-99859205D01*
X164267795Y-99858928D01*
X164258498Y-99847599D01*
X164258280Y-99847273D01*
X164251371Y-99834348D01*
X164251221Y-99833986D01*
X164246968Y-99819964D01*
X164246892Y-99819579D01*
X164245210Y-99802505D01*
X164245200Y-99802309D01*
X164245200Y-99779400D01*
X164246200Y-99777668D01*
X164248200Y-99777668D01*
X164249190Y-99779204D01*
X164251099Y-99798592D01*
X164256699Y-99817052D01*
X164265791Y-99834063D01*
X164278027Y-99848973D01*
X164292937Y-99861209D01*
X164309948Y-99870301D01*
X164328408Y-99875901D01*
X164347694Y-99877800D01*
X165748306Y-99877800D01*
X165767592Y-99875901D01*
X165786052Y-99870301D01*
X165803063Y-99861209D01*
X165817973Y-99848973D01*
X165830209Y-99834063D01*
X165839301Y-99817052D01*
X165844901Y-99798592D01*
X165846810Y-99779204D01*
X165847975Y-99777578D01*
X165849965Y-99777774D01*
G37*
G36*
X172199965Y-99777774D02*
G01*
X172200800Y-99779400D01*
X172200800Y-99802309D01*
X172200790Y-99802505D01*
X172199108Y-99819579D01*
X172199032Y-99819964D01*
X172194779Y-99833986D01*
X172194629Y-99834348D01*
X172187720Y-99847273D01*
X172187502Y-99847599D01*
X172178205Y-99858928D01*
X172177928Y-99859205D01*
X172166599Y-99868502D01*
X172166273Y-99868720D01*
X172153348Y-99875629D01*
X172152986Y-99875779D01*
X172138964Y-99880032D01*
X172138579Y-99880108D01*
X172135359Y-99880426D01*
X172125872Y-99882312D01*
X172117037Y-99885972D01*
X172109084Y-99891286D01*
X172102322Y-99898047D01*
X172097008Y-99906000D01*
X172093349Y-99914835D01*
X172091482Y-99924219D01*
X172091482Y-99933780D01*
X172093348Y-99943164D01*
X172097008Y-99951999D01*
X172102322Y-99959952D01*
X172109083Y-99966714D01*
X172117036Y-99972028D01*
X172125871Y-99975687D01*
X172135359Y-99977574D01*
X172138579Y-99977892D01*
X172138964Y-99977968D01*
X172152986Y-99982221D01*
X172153348Y-99982371D01*
X172166273Y-99989280D01*
X172166599Y-99989498D01*
X172177928Y-99998795D01*
X172178205Y-99999072D01*
X172187502Y-100010401D01*
X172187720Y-100010727D01*
X172194629Y-100023652D01*
X172194779Y-100024014D01*
X172199032Y-100038036D01*
X172199108Y-100038421D01*
X172200790Y-100055495D01*
X172200800Y-100055691D01*
X172200800Y-100078600D01*
X172199800Y-100080332D01*
X172197800Y-100080332D01*
X172196810Y-100078796D01*
X172194901Y-100059408D01*
X172189301Y-100040948D01*
X172180209Y-100023937D01*
X172167973Y-100009027D01*
X172153063Y-99996791D01*
X172136052Y-99987699D01*
X172117592Y-99982099D01*
X172098306Y-99980200D01*
X170697694Y-99980200D01*
X170678408Y-99982099D01*
X170659948Y-99987699D01*
X170642937Y-99996791D01*
X170628027Y-100009027D01*
X170615791Y-100023937D01*
X170606699Y-100040948D01*
X170601099Y-100059408D01*
X170599190Y-100078796D01*
X170598025Y-100080422D01*
X170596035Y-100080226D01*
X170595200Y-100078600D01*
X170595200Y-100055691D01*
X170595210Y-100055495D01*
X170596892Y-100038421D01*
X170596968Y-100038036D01*
X170601221Y-100024014D01*
X170601371Y-100023652D01*
X170608280Y-100010727D01*
X170608498Y-100010401D01*
X170617795Y-99999072D01*
X170618072Y-99998795D01*
X170629401Y-99989498D01*
X170629727Y-99989280D01*
X170642652Y-99982371D01*
X170643014Y-99982221D01*
X170657036Y-99977968D01*
X170657421Y-99977892D01*
X170660641Y-99977574D01*
X170670128Y-99975688D01*
X170678963Y-99972028D01*
X170686916Y-99966714D01*
X170693678Y-99959953D01*
X170698992Y-99952000D01*
X170702651Y-99943165D01*
X170704518Y-99933781D01*
X170704518Y-99924220D01*
X170702652Y-99914836D01*
X170698992Y-99906001D01*
X170693678Y-99898048D01*
X170686917Y-99891286D01*
X170678964Y-99885972D01*
X170670129Y-99882313D01*
X170660641Y-99880426D01*
X170657421Y-99880108D01*
X170657036Y-99880032D01*
X170643014Y-99875779D01*
X170642652Y-99875629D01*
X170629727Y-99868720D01*
X170629401Y-99868502D01*
X170618072Y-99859205D01*
X170617795Y-99858928D01*
X170608498Y-99847599D01*
X170608280Y-99847273D01*
X170601371Y-99834348D01*
X170601221Y-99833986D01*
X170596968Y-99819964D01*
X170596892Y-99819579D01*
X170595210Y-99802505D01*
X170595200Y-99802309D01*
X170595200Y-99779400D01*
X170596200Y-99777668D01*
X170598200Y-99777668D01*
X170599190Y-99779204D01*
X170601099Y-99798592D01*
X170606699Y-99817052D01*
X170615791Y-99834063D01*
X170628027Y-99848973D01*
X170642937Y-99861209D01*
X170659948Y-99870301D01*
X170678408Y-99875901D01*
X170697694Y-99877800D01*
X172098306Y-99877800D01*
X172117592Y-99875901D01*
X172136052Y-99870301D01*
X172153063Y-99861209D01*
X172167973Y-99848973D01*
X172180209Y-99834063D01*
X172189301Y-99817052D01*
X172194901Y-99798592D01*
X172196810Y-99779204D01*
X172197975Y-99777578D01*
X172199965Y-99777774D01*
G37*
G36*
X165849965Y-99277774D02*
G01*
X165850800Y-99279400D01*
X165850800Y-99302309D01*
X165850790Y-99302505D01*
X165849108Y-99319579D01*
X165849032Y-99319964D01*
X165844779Y-99333986D01*
X165844629Y-99334348D01*
X165837720Y-99347273D01*
X165837502Y-99347599D01*
X165828205Y-99358928D01*
X165827928Y-99359205D01*
X165816599Y-99368502D01*
X165816273Y-99368720D01*
X165803348Y-99375629D01*
X165802986Y-99375779D01*
X165788964Y-99380032D01*
X165788579Y-99380108D01*
X165785359Y-99380426D01*
X165775872Y-99382312D01*
X165767037Y-99385972D01*
X165759084Y-99391286D01*
X165752322Y-99398047D01*
X165747008Y-99406000D01*
X165743349Y-99414835D01*
X165741482Y-99424219D01*
X165741482Y-99433780D01*
X165743348Y-99443164D01*
X165747008Y-99451999D01*
X165752322Y-99459952D01*
X165759083Y-99466714D01*
X165767036Y-99472028D01*
X165775871Y-99475687D01*
X165785359Y-99477574D01*
X165788579Y-99477892D01*
X165788964Y-99477968D01*
X165802986Y-99482221D01*
X165803348Y-99482371D01*
X165816273Y-99489280D01*
X165816599Y-99489498D01*
X165827928Y-99498795D01*
X165828205Y-99499072D01*
X165837502Y-99510401D01*
X165837720Y-99510727D01*
X165844629Y-99523652D01*
X165844779Y-99524014D01*
X165849032Y-99538036D01*
X165849108Y-99538421D01*
X165850790Y-99555495D01*
X165850800Y-99555691D01*
X165850800Y-99578600D01*
X165849800Y-99580332D01*
X165847800Y-99580332D01*
X165846810Y-99578796D01*
X165844901Y-99559408D01*
X165839301Y-99540948D01*
X165830209Y-99523937D01*
X165817973Y-99509027D01*
X165803063Y-99496791D01*
X165786052Y-99487699D01*
X165767592Y-99482099D01*
X165748306Y-99480200D01*
X164347694Y-99480200D01*
X164328408Y-99482099D01*
X164309948Y-99487699D01*
X164292937Y-99496791D01*
X164278027Y-99509027D01*
X164265791Y-99523937D01*
X164256699Y-99540948D01*
X164251099Y-99559408D01*
X164249190Y-99578796D01*
X164248025Y-99580422D01*
X164246035Y-99580226D01*
X164245200Y-99578600D01*
X164245200Y-99555691D01*
X164245210Y-99555495D01*
X164246892Y-99538421D01*
X164246968Y-99538036D01*
X164251221Y-99524014D01*
X164251371Y-99523652D01*
X164258280Y-99510727D01*
X164258498Y-99510401D01*
X164267795Y-99499072D01*
X164268072Y-99498795D01*
X164279401Y-99489498D01*
X164279727Y-99489280D01*
X164292652Y-99482371D01*
X164293014Y-99482221D01*
X164307036Y-99477968D01*
X164307421Y-99477892D01*
X164310641Y-99477574D01*
X164320128Y-99475688D01*
X164328963Y-99472028D01*
X164336916Y-99466714D01*
X164343678Y-99459953D01*
X164348992Y-99452000D01*
X164352651Y-99443165D01*
X164354518Y-99433781D01*
X164354518Y-99424220D01*
X164352652Y-99414836D01*
X164348992Y-99406001D01*
X164343678Y-99398048D01*
X164336917Y-99391286D01*
X164328964Y-99385972D01*
X164320129Y-99382313D01*
X164310641Y-99380426D01*
X164307421Y-99380108D01*
X164307036Y-99380032D01*
X164293014Y-99375779D01*
X164292652Y-99375629D01*
X164279727Y-99368720D01*
X164279401Y-99368502D01*
X164268072Y-99359205D01*
X164267795Y-99358928D01*
X164258498Y-99347599D01*
X164258280Y-99347273D01*
X164251371Y-99334348D01*
X164251221Y-99333986D01*
X164246968Y-99319964D01*
X164246892Y-99319579D01*
X164245210Y-99302505D01*
X164245200Y-99302309D01*
X164245200Y-99279400D01*
X164246200Y-99277668D01*
X164248200Y-99277668D01*
X164249190Y-99279204D01*
X164251099Y-99298592D01*
X164256699Y-99317052D01*
X164265791Y-99334063D01*
X164278027Y-99348973D01*
X164292937Y-99361209D01*
X164309948Y-99370301D01*
X164328408Y-99375901D01*
X164347694Y-99377800D01*
X165748306Y-99377800D01*
X165767592Y-99375901D01*
X165786052Y-99370301D01*
X165803063Y-99361209D01*
X165817973Y-99348973D01*
X165830209Y-99334063D01*
X165839301Y-99317052D01*
X165844901Y-99298592D01*
X165846810Y-99279204D01*
X165847975Y-99277578D01*
X165849965Y-99277774D01*
G37*
G36*
X172199965Y-99277774D02*
G01*
X172200800Y-99279400D01*
X172200800Y-99302309D01*
X172200790Y-99302505D01*
X172199108Y-99319579D01*
X172199032Y-99319964D01*
X172194779Y-99333986D01*
X172194629Y-99334348D01*
X172187720Y-99347273D01*
X172187502Y-99347599D01*
X172178205Y-99358928D01*
X172177928Y-99359205D01*
X172166599Y-99368502D01*
X172166273Y-99368720D01*
X172153348Y-99375629D01*
X172152986Y-99375779D01*
X172138964Y-99380032D01*
X172138579Y-99380108D01*
X172135359Y-99380426D01*
X172125872Y-99382312D01*
X172117037Y-99385972D01*
X172109084Y-99391286D01*
X172102322Y-99398047D01*
X172097008Y-99406000D01*
X172093349Y-99414835D01*
X172091482Y-99424219D01*
X172091482Y-99433780D01*
X172093348Y-99443164D01*
X172097008Y-99451999D01*
X172102322Y-99459952D01*
X172109083Y-99466714D01*
X172117036Y-99472028D01*
X172125871Y-99475687D01*
X172135359Y-99477574D01*
X172138579Y-99477892D01*
X172138964Y-99477968D01*
X172152986Y-99482221D01*
X172153348Y-99482371D01*
X172166273Y-99489280D01*
X172166599Y-99489498D01*
X172177928Y-99498795D01*
X172178205Y-99499072D01*
X172187502Y-99510401D01*
X172187720Y-99510727D01*
X172194629Y-99523652D01*
X172194779Y-99524014D01*
X172199032Y-99538036D01*
X172199108Y-99538421D01*
X172200790Y-99555495D01*
X172200800Y-99555691D01*
X172200800Y-99578600D01*
X172199800Y-99580332D01*
X172197800Y-99580332D01*
X172196810Y-99578796D01*
X172194901Y-99559408D01*
X172189301Y-99540948D01*
X172180209Y-99523937D01*
X172167973Y-99509027D01*
X172153063Y-99496791D01*
X172136052Y-99487699D01*
X172117592Y-99482099D01*
X172098306Y-99480200D01*
X170697694Y-99480200D01*
X170678408Y-99482099D01*
X170659948Y-99487699D01*
X170642937Y-99496791D01*
X170628027Y-99509027D01*
X170615791Y-99523937D01*
X170606699Y-99540948D01*
X170601099Y-99559408D01*
X170599190Y-99578796D01*
X170598025Y-99580422D01*
X170596035Y-99580226D01*
X170595200Y-99578600D01*
X170595200Y-99555691D01*
X170595210Y-99555495D01*
X170596892Y-99538421D01*
X170596968Y-99538036D01*
X170601221Y-99524014D01*
X170601371Y-99523652D01*
X170608280Y-99510727D01*
X170608498Y-99510401D01*
X170617795Y-99499072D01*
X170618072Y-99498795D01*
X170629401Y-99489498D01*
X170629727Y-99489280D01*
X170642652Y-99482371D01*
X170643014Y-99482221D01*
X170657036Y-99477968D01*
X170657421Y-99477892D01*
X170660641Y-99477574D01*
X170670128Y-99475688D01*
X170678963Y-99472028D01*
X170686916Y-99466714D01*
X170693678Y-99459953D01*
X170698992Y-99452000D01*
X170702651Y-99443165D01*
X170704518Y-99433781D01*
X170704518Y-99424220D01*
X170702652Y-99414836D01*
X170698992Y-99406001D01*
X170693678Y-99398048D01*
X170686917Y-99391286D01*
X170678964Y-99385972D01*
X170670129Y-99382313D01*
X170660641Y-99380426D01*
X170657421Y-99380108D01*
X170657036Y-99380032D01*
X170643014Y-99375779D01*
X170642652Y-99375629D01*
X170629727Y-99368720D01*
X170629401Y-99368502D01*
X170618072Y-99359205D01*
X170617795Y-99358928D01*
X170608498Y-99347599D01*
X170608280Y-99347273D01*
X170601371Y-99334348D01*
X170601221Y-99333986D01*
X170596968Y-99319964D01*
X170596892Y-99319579D01*
X170595210Y-99302505D01*
X170595200Y-99302309D01*
X170595200Y-99279400D01*
X170596200Y-99277668D01*
X170598200Y-99277668D01*
X170599190Y-99279204D01*
X170601099Y-99298592D01*
X170606699Y-99317052D01*
X170615791Y-99334063D01*
X170628027Y-99348973D01*
X170642937Y-99361209D01*
X170659948Y-99370301D01*
X170678408Y-99375901D01*
X170697694Y-99377800D01*
X172098306Y-99377800D01*
X172117592Y-99375901D01*
X172136052Y-99370301D01*
X172153063Y-99361209D01*
X172167973Y-99348973D01*
X172180209Y-99334063D01*
X172189301Y-99317052D01*
X172194901Y-99298592D01*
X172196810Y-99279204D01*
X172197975Y-99277578D01*
X172199965Y-99277774D01*
G37*
G36*
X172199965Y-98777774D02*
G01*
X172200800Y-98779400D01*
X172200800Y-98802309D01*
X172200790Y-98802505D01*
X172199108Y-98819579D01*
X172199032Y-98819964D01*
X172194779Y-98833986D01*
X172194629Y-98834348D01*
X172187720Y-98847273D01*
X172187502Y-98847599D01*
X172178205Y-98858928D01*
X172177928Y-98859205D01*
X172166599Y-98868502D01*
X172166273Y-98868720D01*
X172153348Y-98875629D01*
X172152986Y-98875779D01*
X172138964Y-98880032D01*
X172138579Y-98880108D01*
X172135359Y-98880426D01*
X172125872Y-98882312D01*
X172117037Y-98885972D01*
X172109084Y-98891286D01*
X172102322Y-98898047D01*
X172097008Y-98906000D01*
X172093349Y-98914835D01*
X172091482Y-98924219D01*
X172091482Y-98933780D01*
X172093348Y-98943164D01*
X172097008Y-98951999D01*
X172102322Y-98959952D01*
X172109083Y-98966714D01*
X172117036Y-98972028D01*
X172125871Y-98975687D01*
X172135359Y-98977574D01*
X172138579Y-98977892D01*
X172138964Y-98977968D01*
X172152986Y-98982221D01*
X172153348Y-98982371D01*
X172166273Y-98989280D01*
X172166599Y-98989498D01*
X172177928Y-98998795D01*
X172178205Y-98999072D01*
X172187502Y-99010401D01*
X172187720Y-99010727D01*
X172194629Y-99023652D01*
X172194779Y-99024014D01*
X172199032Y-99038036D01*
X172199108Y-99038421D01*
X172200790Y-99055495D01*
X172200800Y-99055691D01*
X172200800Y-99078600D01*
X172199800Y-99080332D01*
X172197800Y-99080332D01*
X172196810Y-99078796D01*
X172194901Y-99059408D01*
X172189301Y-99040948D01*
X172180209Y-99023937D01*
X172167973Y-99009027D01*
X172153063Y-98996791D01*
X172136052Y-98987699D01*
X172117592Y-98982099D01*
X172098306Y-98980200D01*
X170697694Y-98980200D01*
X170678408Y-98982099D01*
X170659948Y-98987699D01*
X170642937Y-98996791D01*
X170628027Y-99009027D01*
X170615791Y-99023937D01*
X170606699Y-99040948D01*
X170601099Y-99059408D01*
X170599190Y-99078796D01*
X170598025Y-99080422D01*
X170596035Y-99080226D01*
X170595200Y-99078600D01*
X170595200Y-99055691D01*
X170595210Y-99055495D01*
X170596892Y-99038421D01*
X170596968Y-99038036D01*
X170601221Y-99024014D01*
X170601371Y-99023652D01*
X170608280Y-99010727D01*
X170608498Y-99010401D01*
X170617795Y-98999072D01*
X170618072Y-98998795D01*
X170629401Y-98989498D01*
X170629727Y-98989280D01*
X170642652Y-98982371D01*
X170643014Y-98982221D01*
X170657036Y-98977968D01*
X170657421Y-98977892D01*
X170660641Y-98977574D01*
X170670128Y-98975688D01*
X170678963Y-98972028D01*
X170686916Y-98966714D01*
X170693678Y-98959953D01*
X170698992Y-98952000D01*
X170702651Y-98943165D01*
X170704518Y-98933781D01*
X170704518Y-98924220D01*
X170702652Y-98914836D01*
X170698992Y-98906001D01*
X170693678Y-98898048D01*
X170686917Y-98891286D01*
X170678964Y-98885972D01*
X170670129Y-98882313D01*
X170660641Y-98880426D01*
X170657421Y-98880108D01*
X170657036Y-98880032D01*
X170643014Y-98875779D01*
X170642652Y-98875629D01*
X170629727Y-98868720D01*
X170629401Y-98868502D01*
X170618072Y-98859205D01*
X170617795Y-98858928D01*
X170608498Y-98847599D01*
X170608280Y-98847273D01*
X170601371Y-98834348D01*
X170601221Y-98833986D01*
X170596968Y-98819964D01*
X170596892Y-98819579D01*
X170595210Y-98802505D01*
X170595200Y-98802309D01*
X170595200Y-98779400D01*
X170596200Y-98777668D01*
X170598200Y-98777668D01*
X170599190Y-98779204D01*
X170601099Y-98798592D01*
X170606699Y-98817052D01*
X170615791Y-98834063D01*
X170628027Y-98848973D01*
X170642937Y-98861209D01*
X170659948Y-98870301D01*
X170678408Y-98875901D01*
X170697694Y-98877800D01*
X172098306Y-98877800D01*
X172117592Y-98875901D01*
X172136052Y-98870301D01*
X172153063Y-98861209D01*
X172167973Y-98848973D01*
X172180209Y-98834063D01*
X172189301Y-98817052D01*
X172194901Y-98798592D01*
X172196810Y-98779204D01*
X172197975Y-98777578D01*
X172199965Y-98777774D01*
G37*
G36*
X165849965Y-98777774D02*
G01*
X165850800Y-98779400D01*
X165850800Y-98802309D01*
X165850790Y-98802505D01*
X165849108Y-98819579D01*
X165849032Y-98819964D01*
X165844779Y-98833986D01*
X165844629Y-98834348D01*
X165837720Y-98847273D01*
X165837502Y-98847599D01*
X165828205Y-98858928D01*
X165827928Y-98859205D01*
X165816599Y-98868502D01*
X165816273Y-98868720D01*
X165803348Y-98875629D01*
X165802986Y-98875779D01*
X165788964Y-98880032D01*
X165788579Y-98880108D01*
X165785359Y-98880426D01*
X165775872Y-98882312D01*
X165767037Y-98885972D01*
X165759084Y-98891286D01*
X165752322Y-98898047D01*
X165747008Y-98906000D01*
X165743349Y-98914835D01*
X165741482Y-98924219D01*
X165741482Y-98933780D01*
X165743348Y-98943164D01*
X165747008Y-98951999D01*
X165752322Y-98959952D01*
X165759083Y-98966714D01*
X165767036Y-98972028D01*
X165775871Y-98975687D01*
X165785359Y-98977574D01*
X165788579Y-98977892D01*
X165788964Y-98977968D01*
X165802986Y-98982221D01*
X165803348Y-98982371D01*
X165816273Y-98989280D01*
X165816599Y-98989498D01*
X165827928Y-98998795D01*
X165828205Y-98999072D01*
X165837502Y-99010401D01*
X165837720Y-99010727D01*
X165844629Y-99023652D01*
X165844779Y-99024014D01*
X165849032Y-99038036D01*
X165849108Y-99038421D01*
X165850790Y-99055495D01*
X165850800Y-99055691D01*
X165850800Y-99078600D01*
X165849800Y-99080332D01*
X165847800Y-99080332D01*
X165846810Y-99078796D01*
X165844901Y-99059408D01*
X165839301Y-99040948D01*
X165830209Y-99023937D01*
X165817973Y-99009027D01*
X165803063Y-98996791D01*
X165786052Y-98987699D01*
X165767592Y-98982099D01*
X165748306Y-98980200D01*
X164347694Y-98980200D01*
X164328408Y-98982099D01*
X164309948Y-98987699D01*
X164292937Y-98996791D01*
X164278027Y-99009027D01*
X164265791Y-99023937D01*
X164256699Y-99040948D01*
X164251099Y-99059408D01*
X164249190Y-99078796D01*
X164248025Y-99080422D01*
X164246035Y-99080226D01*
X164245200Y-99078600D01*
X164245200Y-99055691D01*
X164245210Y-99055495D01*
X164246892Y-99038421D01*
X164246968Y-99038036D01*
X164251221Y-99024014D01*
X164251371Y-99023652D01*
X164258280Y-99010727D01*
X164258498Y-99010401D01*
X164267795Y-98999072D01*
X164268072Y-98998795D01*
X164279401Y-98989498D01*
X164279727Y-98989280D01*
X164292652Y-98982371D01*
X164293014Y-98982221D01*
X164307036Y-98977968D01*
X164307421Y-98977892D01*
X164310641Y-98977574D01*
X164320128Y-98975688D01*
X164328963Y-98972028D01*
X164336916Y-98966714D01*
X164343678Y-98959953D01*
X164348992Y-98952000D01*
X164352651Y-98943165D01*
X164354518Y-98933781D01*
X164354518Y-98924220D01*
X164352652Y-98914836D01*
X164348992Y-98906001D01*
X164343678Y-98898048D01*
X164336917Y-98891286D01*
X164328964Y-98885972D01*
X164320129Y-98882313D01*
X164310641Y-98880426D01*
X164307421Y-98880108D01*
X164307036Y-98880032D01*
X164293014Y-98875779D01*
X164292652Y-98875629D01*
X164279727Y-98868720D01*
X164279401Y-98868502D01*
X164268072Y-98859205D01*
X164267795Y-98858928D01*
X164258498Y-98847599D01*
X164258280Y-98847273D01*
X164251371Y-98834348D01*
X164251221Y-98833986D01*
X164246968Y-98819964D01*
X164246892Y-98819579D01*
X164245210Y-98802505D01*
X164245200Y-98802309D01*
X164245200Y-98779400D01*
X164246200Y-98777668D01*
X164248200Y-98777668D01*
X164249190Y-98779204D01*
X164251099Y-98798592D01*
X164256699Y-98817052D01*
X164265791Y-98834063D01*
X164278027Y-98848973D01*
X164292937Y-98861209D01*
X164309948Y-98870301D01*
X164328408Y-98875901D01*
X164347694Y-98877800D01*
X165748306Y-98877800D01*
X165767592Y-98875901D01*
X165786052Y-98870301D01*
X165803063Y-98861209D01*
X165817973Y-98848973D01*
X165830209Y-98834063D01*
X165839301Y-98817052D01*
X165844901Y-98798592D01*
X165846810Y-98779204D01*
X165847975Y-98777578D01*
X165849965Y-98777774D01*
G37*
G36*
X165849965Y-98277774D02*
G01*
X165850800Y-98279400D01*
X165850800Y-98302309D01*
X165850790Y-98302505D01*
X165849108Y-98319579D01*
X165849032Y-98319964D01*
X165844779Y-98333986D01*
X165844629Y-98334348D01*
X165837720Y-98347273D01*
X165837502Y-98347599D01*
X165828205Y-98358928D01*
X165827928Y-98359205D01*
X165816599Y-98368502D01*
X165816273Y-98368720D01*
X165803348Y-98375629D01*
X165802986Y-98375779D01*
X165788964Y-98380032D01*
X165788579Y-98380108D01*
X165785359Y-98380426D01*
X165775872Y-98382312D01*
X165767037Y-98385972D01*
X165759084Y-98391286D01*
X165752322Y-98398047D01*
X165747008Y-98406000D01*
X165743349Y-98414835D01*
X165741482Y-98424219D01*
X165741482Y-98433780D01*
X165743348Y-98443164D01*
X165747008Y-98451999D01*
X165752322Y-98459952D01*
X165759083Y-98466714D01*
X165767036Y-98472028D01*
X165775871Y-98475687D01*
X165785359Y-98477574D01*
X165788579Y-98477892D01*
X165788964Y-98477968D01*
X165802986Y-98482221D01*
X165803348Y-98482371D01*
X165816273Y-98489280D01*
X165816599Y-98489498D01*
X165827928Y-98498795D01*
X165828205Y-98499072D01*
X165837502Y-98510401D01*
X165837720Y-98510727D01*
X165844629Y-98523652D01*
X165844779Y-98524014D01*
X165849032Y-98538036D01*
X165849108Y-98538421D01*
X165850790Y-98555495D01*
X165850800Y-98555691D01*
X165850800Y-98578600D01*
X165849800Y-98580332D01*
X165847800Y-98580332D01*
X165846810Y-98578796D01*
X165844901Y-98559408D01*
X165839301Y-98540948D01*
X165830209Y-98523937D01*
X165817973Y-98509027D01*
X165803063Y-98496791D01*
X165786052Y-98487699D01*
X165767592Y-98482099D01*
X165748306Y-98480200D01*
X164347694Y-98480200D01*
X164328408Y-98482099D01*
X164309948Y-98487699D01*
X164292937Y-98496791D01*
X164278027Y-98509027D01*
X164265791Y-98523937D01*
X164256699Y-98540948D01*
X164251099Y-98559408D01*
X164249190Y-98578796D01*
X164248025Y-98580422D01*
X164246035Y-98580226D01*
X164245200Y-98578600D01*
X164245200Y-98555691D01*
X164245210Y-98555495D01*
X164246892Y-98538421D01*
X164246968Y-98538036D01*
X164251221Y-98524014D01*
X164251371Y-98523652D01*
X164258280Y-98510727D01*
X164258498Y-98510401D01*
X164267795Y-98499072D01*
X164268072Y-98498795D01*
X164279401Y-98489498D01*
X164279727Y-98489280D01*
X164292652Y-98482371D01*
X164293014Y-98482221D01*
X164307036Y-98477968D01*
X164307421Y-98477892D01*
X164310641Y-98477574D01*
X164320128Y-98475688D01*
X164328963Y-98472028D01*
X164336916Y-98466714D01*
X164343678Y-98459953D01*
X164348992Y-98452000D01*
X164352651Y-98443165D01*
X164354518Y-98433781D01*
X164354518Y-98424220D01*
X164352652Y-98414836D01*
X164348992Y-98406001D01*
X164343678Y-98398048D01*
X164336917Y-98391286D01*
X164328964Y-98385972D01*
X164320129Y-98382313D01*
X164310641Y-98380426D01*
X164307421Y-98380108D01*
X164307036Y-98380032D01*
X164293014Y-98375779D01*
X164292652Y-98375629D01*
X164279727Y-98368720D01*
X164279401Y-98368502D01*
X164268072Y-98359205D01*
X164267795Y-98358928D01*
X164258498Y-98347599D01*
X164258280Y-98347273D01*
X164251371Y-98334348D01*
X164251221Y-98333986D01*
X164246968Y-98319964D01*
X164246892Y-98319579D01*
X164245210Y-98302505D01*
X164245200Y-98302309D01*
X164245200Y-98279400D01*
X164246200Y-98277668D01*
X164248200Y-98277668D01*
X164249190Y-98279204D01*
X164251099Y-98298592D01*
X164256699Y-98317052D01*
X164265791Y-98334063D01*
X164278027Y-98348973D01*
X164292937Y-98361209D01*
X164309948Y-98370301D01*
X164328408Y-98375901D01*
X164347694Y-98377800D01*
X165748306Y-98377800D01*
X165767592Y-98375901D01*
X165786052Y-98370301D01*
X165803063Y-98361209D01*
X165817973Y-98348973D01*
X165830209Y-98334063D01*
X165839301Y-98317052D01*
X165844901Y-98298592D01*
X165846810Y-98279204D01*
X165847975Y-98277578D01*
X165849965Y-98277774D01*
G37*
G36*
X172199965Y-98277774D02*
G01*
X172200800Y-98279400D01*
X172200800Y-98302309D01*
X172200790Y-98302505D01*
X172199108Y-98319579D01*
X172199032Y-98319964D01*
X172194779Y-98333986D01*
X172194629Y-98334348D01*
X172187720Y-98347273D01*
X172187502Y-98347599D01*
X172178205Y-98358928D01*
X172177928Y-98359205D01*
X172166599Y-98368502D01*
X172166273Y-98368720D01*
X172153348Y-98375629D01*
X172152986Y-98375779D01*
X172138964Y-98380032D01*
X172138579Y-98380108D01*
X172135359Y-98380426D01*
X172125872Y-98382312D01*
X172117037Y-98385972D01*
X172109084Y-98391286D01*
X172102322Y-98398047D01*
X172097008Y-98406000D01*
X172093349Y-98414835D01*
X172091482Y-98424219D01*
X172091482Y-98433780D01*
X172093348Y-98443164D01*
X172097008Y-98451999D01*
X172102322Y-98459952D01*
X172109083Y-98466714D01*
X172117036Y-98472028D01*
X172125871Y-98475687D01*
X172135359Y-98477574D01*
X172138579Y-98477892D01*
X172138964Y-98477968D01*
X172152986Y-98482221D01*
X172153348Y-98482371D01*
X172166273Y-98489280D01*
X172166599Y-98489498D01*
X172177928Y-98498795D01*
X172178205Y-98499072D01*
X172187502Y-98510401D01*
X172187720Y-98510727D01*
X172194629Y-98523652D01*
X172194779Y-98524014D01*
X172199032Y-98538036D01*
X172199108Y-98538421D01*
X172200790Y-98555495D01*
X172200800Y-98555691D01*
X172200800Y-98578600D01*
X172199800Y-98580332D01*
X172197800Y-98580332D01*
X172196810Y-98578796D01*
X172194901Y-98559408D01*
X172189301Y-98540948D01*
X172180209Y-98523937D01*
X172167973Y-98509027D01*
X172153063Y-98496791D01*
X172136052Y-98487699D01*
X172117592Y-98482099D01*
X172098306Y-98480200D01*
X170697694Y-98480200D01*
X170678408Y-98482099D01*
X170659948Y-98487699D01*
X170642937Y-98496791D01*
X170628027Y-98509027D01*
X170615791Y-98523937D01*
X170606699Y-98540948D01*
X170601099Y-98559408D01*
X170599190Y-98578796D01*
X170598025Y-98580422D01*
X170596035Y-98580226D01*
X170595200Y-98578600D01*
X170595200Y-98555691D01*
X170595210Y-98555495D01*
X170596892Y-98538421D01*
X170596968Y-98538036D01*
X170601221Y-98524014D01*
X170601371Y-98523652D01*
X170608280Y-98510727D01*
X170608498Y-98510401D01*
X170617795Y-98499072D01*
X170618072Y-98498795D01*
X170629401Y-98489498D01*
X170629727Y-98489280D01*
X170642652Y-98482371D01*
X170643014Y-98482221D01*
X170657036Y-98477968D01*
X170657421Y-98477892D01*
X170660641Y-98477574D01*
X170670128Y-98475688D01*
X170678963Y-98472028D01*
X170686916Y-98466714D01*
X170693678Y-98459953D01*
X170698992Y-98452000D01*
X170702651Y-98443165D01*
X170704518Y-98433781D01*
X170704518Y-98424220D01*
X170702652Y-98414836D01*
X170698992Y-98406001D01*
X170693678Y-98398048D01*
X170686917Y-98391286D01*
X170678964Y-98385972D01*
X170670129Y-98382313D01*
X170660641Y-98380426D01*
X170657421Y-98380108D01*
X170657036Y-98380032D01*
X170643014Y-98375779D01*
X170642652Y-98375629D01*
X170629727Y-98368720D01*
X170629401Y-98368502D01*
X170618072Y-98359205D01*
X170617795Y-98358928D01*
X170608498Y-98347599D01*
X170608280Y-98347273D01*
X170601371Y-98334348D01*
X170601221Y-98333986D01*
X170596968Y-98319964D01*
X170596892Y-98319579D01*
X170595210Y-98302505D01*
X170595200Y-98302309D01*
X170595200Y-98279400D01*
X170596200Y-98277668D01*
X170598200Y-98277668D01*
X170599190Y-98279204D01*
X170601099Y-98298592D01*
X170606699Y-98317052D01*
X170615791Y-98334063D01*
X170628027Y-98348973D01*
X170642937Y-98361209D01*
X170659948Y-98370301D01*
X170678408Y-98375901D01*
X170697694Y-98377800D01*
X172098306Y-98377800D01*
X172117592Y-98375901D01*
X172136052Y-98370301D01*
X172153063Y-98361209D01*
X172167973Y-98348973D01*
X172180209Y-98334063D01*
X172189301Y-98317052D01*
X172194901Y-98298592D01*
X172196810Y-98279204D01*
X172197975Y-98277578D01*
X172199965Y-98277774D01*
G37*
G36*
X172199965Y-97777774D02*
G01*
X172200800Y-97779400D01*
X172200800Y-97802309D01*
X172200790Y-97802505D01*
X172199108Y-97819579D01*
X172199032Y-97819964D01*
X172194779Y-97833986D01*
X172194629Y-97834348D01*
X172187720Y-97847273D01*
X172187502Y-97847599D01*
X172178205Y-97858928D01*
X172177928Y-97859205D01*
X172166599Y-97868502D01*
X172166273Y-97868720D01*
X172153348Y-97875629D01*
X172152986Y-97875779D01*
X172138964Y-97880032D01*
X172138579Y-97880108D01*
X172135359Y-97880426D01*
X172125872Y-97882312D01*
X172117037Y-97885972D01*
X172109084Y-97891286D01*
X172102322Y-97898047D01*
X172097008Y-97906000D01*
X172093349Y-97914835D01*
X172091482Y-97924219D01*
X172091482Y-97933780D01*
X172093348Y-97943164D01*
X172097008Y-97951999D01*
X172102322Y-97959952D01*
X172109083Y-97966714D01*
X172117036Y-97972028D01*
X172125871Y-97975687D01*
X172135359Y-97977574D01*
X172138579Y-97977892D01*
X172138964Y-97977968D01*
X172152986Y-97982221D01*
X172153348Y-97982371D01*
X172166273Y-97989280D01*
X172166599Y-97989498D01*
X172177928Y-97998795D01*
X172178205Y-97999072D01*
X172187502Y-98010401D01*
X172187720Y-98010727D01*
X172194629Y-98023652D01*
X172194779Y-98024014D01*
X172199032Y-98038036D01*
X172199108Y-98038421D01*
X172200790Y-98055495D01*
X172200800Y-98055691D01*
X172200800Y-98078600D01*
X172199800Y-98080332D01*
X172197800Y-98080332D01*
X172196810Y-98078796D01*
X172194901Y-98059408D01*
X172189301Y-98040948D01*
X172180209Y-98023937D01*
X172167973Y-98009027D01*
X172153063Y-97996791D01*
X172136052Y-97987699D01*
X172117592Y-97982099D01*
X172098306Y-97980200D01*
X170697694Y-97980200D01*
X170678408Y-97982099D01*
X170659948Y-97987699D01*
X170642937Y-97996791D01*
X170628027Y-98009027D01*
X170615791Y-98023937D01*
X170606699Y-98040948D01*
X170601099Y-98059408D01*
X170599190Y-98078796D01*
X170598025Y-98080422D01*
X170596035Y-98080226D01*
X170595200Y-98078600D01*
X170595200Y-98055691D01*
X170595210Y-98055495D01*
X170596892Y-98038421D01*
X170596968Y-98038036D01*
X170601221Y-98024014D01*
X170601371Y-98023652D01*
X170608280Y-98010727D01*
X170608498Y-98010401D01*
X170617795Y-97999072D01*
X170618072Y-97998795D01*
X170629401Y-97989498D01*
X170629727Y-97989280D01*
X170642652Y-97982371D01*
X170643014Y-97982221D01*
X170657036Y-97977968D01*
X170657421Y-97977892D01*
X170660641Y-97977574D01*
X170670128Y-97975688D01*
X170678963Y-97972028D01*
X170686916Y-97966714D01*
X170693678Y-97959953D01*
X170698992Y-97952000D01*
X170702651Y-97943165D01*
X170704518Y-97933781D01*
X170704518Y-97924220D01*
X170702652Y-97914836D01*
X170698992Y-97906001D01*
X170693678Y-97898048D01*
X170686917Y-97891286D01*
X170678964Y-97885972D01*
X170670129Y-97882313D01*
X170660641Y-97880426D01*
X170657421Y-97880108D01*
X170657036Y-97880032D01*
X170643014Y-97875779D01*
X170642652Y-97875629D01*
X170629727Y-97868720D01*
X170629401Y-97868502D01*
X170618072Y-97859205D01*
X170617795Y-97858928D01*
X170608498Y-97847599D01*
X170608280Y-97847273D01*
X170601371Y-97834348D01*
X170601221Y-97833986D01*
X170596968Y-97819964D01*
X170596892Y-97819579D01*
X170595210Y-97802505D01*
X170595200Y-97802309D01*
X170595200Y-97779400D01*
X170596200Y-97777668D01*
X170598200Y-97777668D01*
X170599190Y-97779204D01*
X170601099Y-97798592D01*
X170606699Y-97817052D01*
X170615791Y-97834063D01*
X170628027Y-97848973D01*
X170642937Y-97861209D01*
X170659948Y-97870301D01*
X170678408Y-97875901D01*
X170697694Y-97877800D01*
X172098306Y-97877800D01*
X172117592Y-97875901D01*
X172136052Y-97870301D01*
X172153063Y-97861209D01*
X172167973Y-97848973D01*
X172180209Y-97834063D01*
X172189301Y-97817052D01*
X172194901Y-97798592D01*
X172196810Y-97779204D01*
X172197975Y-97777578D01*
X172199965Y-97777774D01*
G37*
G36*
X165849965Y-97777774D02*
G01*
X165850800Y-97779400D01*
X165850800Y-97802309D01*
X165850790Y-97802505D01*
X165849108Y-97819579D01*
X165849032Y-97819964D01*
X165844779Y-97833986D01*
X165844629Y-97834348D01*
X165837720Y-97847273D01*
X165837502Y-97847599D01*
X165828205Y-97858928D01*
X165827928Y-97859205D01*
X165816599Y-97868502D01*
X165816273Y-97868720D01*
X165803348Y-97875629D01*
X165802986Y-97875779D01*
X165788964Y-97880032D01*
X165788579Y-97880108D01*
X165785359Y-97880426D01*
X165775872Y-97882312D01*
X165767037Y-97885972D01*
X165759084Y-97891286D01*
X165752322Y-97898047D01*
X165747008Y-97906000D01*
X165743349Y-97914835D01*
X165741482Y-97924219D01*
X165741482Y-97933780D01*
X165743348Y-97943164D01*
X165747008Y-97951999D01*
X165752322Y-97959952D01*
X165759083Y-97966714D01*
X165767036Y-97972028D01*
X165775871Y-97975687D01*
X165785359Y-97977574D01*
X165788579Y-97977892D01*
X165788964Y-97977968D01*
X165802986Y-97982221D01*
X165803348Y-97982371D01*
X165816273Y-97989280D01*
X165816599Y-97989498D01*
X165827928Y-97998795D01*
X165828205Y-97999072D01*
X165837502Y-98010401D01*
X165837720Y-98010727D01*
X165844629Y-98023652D01*
X165844779Y-98024014D01*
X165849032Y-98038036D01*
X165849108Y-98038421D01*
X165850790Y-98055495D01*
X165850800Y-98055691D01*
X165850800Y-98078600D01*
X165849800Y-98080332D01*
X165847800Y-98080332D01*
X165846810Y-98078796D01*
X165844901Y-98059408D01*
X165839301Y-98040948D01*
X165830209Y-98023937D01*
X165817973Y-98009027D01*
X165803063Y-97996791D01*
X165786052Y-97987699D01*
X165767592Y-97982099D01*
X165748306Y-97980200D01*
X164347694Y-97980200D01*
X164328408Y-97982099D01*
X164309948Y-97987699D01*
X164292937Y-97996791D01*
X164278027Y-98009027D01*
X164265791Y-98023937D01*
X164256699Y-98040948D01*
X164251099Y-98059408D01*
X164249190Y-98078796D01*
X164248025Y-98080422D01*
X164246035Y-98080226D01*
X164245200Y-98078600D01*
X164245200Y-98055691D01*
X164245210Y-98055495D01*
X164246892Y-98038421D01*
X164246968Y-98038036D01*
X164251221Y-98024014D01*
X164251371Y-98023652D01*
X164258280Y-98010727D01*
X164258498Y-98010401D01*
X164267795Y-97999072D01*
X164268072Y-97998795D01*
X164279401Y-97989498D01*
X164279727Y-97989280D01*
X164292652Y-97982371D01*
X164293014Y-97982221D01*
X164307036Y-97977968D01*
X164307421Y-97977892D01*
X164310641Y-97977574D01*
X164320128Y-97975688D01*
X164328963Y-97972028D01*
X164336916Y-97966714D01*
X164343678Y-97959953D01*
X164348992Y-97952000D01*
X164352651Y-97943165D01*
X164354518Y-97933781D01*
X164354518Y-97924220D01*
X164352652Y-97914836D01*
X164348992Y-97906001D01*
X164343678Y-97898048D01*
X164336917Y-97891286D01*
X164328964Y-97885972D01*
X164320129Y-97882313D01*
X164310641Y-97880426D01*
X164307421Y-97880108D01*
X164307036Y-97880032D01*
X164293014Y-97875779D01*
X164292652Y-97875629D01*
X164279727Y-97868720D01*
X164279401Y-97868502D01*
X164268072Y-97859205D01*
X164267795Y-97858928D01*
X164258498Y-97847599D01*
X164258280Y-97847273D01*
X164251371Y-97834348D01*
X164251221Y-97833986D01*
X164246968Y-97819964D01*
X164246892Y-97819579D01*
X164245210Y-97802505D01*
X164245200Y-97802309D01*
X164245200Y-97779400D01*
X164246200Y-97777668D01*
X164248200Y-97777668D01*
X164249190Y-97779204D01*
X164251099Y-97798592D01*
X164256699Y-97817052D01*
X164265791Y-97834063D01*
X164278027Y-97848973D01*
X164292937Y-97861209D01*
X164309948Y-97870301D01*
X164328408Y-97875901D01*
X164347694Y-97877800D01*
X165748306Y-97877800D01*
X165767592Y-97875901D01*
X165786052Y-97870301D01*
X165803063Y-97861209D01*
X165817973Y-97848973D01*
X165830209Y-97834063D01*
X165839301Y-97817052D01*
X165844901Y-97798592D01*
X165846810Y-97779204D01*
X165847975Y-97777578D01*
X165849965Y-97777774D01*
G37*
G36*
X172199965Y-97277774D02*
G01*
X172200800Y-97279400D01*
X172200800Y-97302309D01*
X172200790Y-97302505D01*
X172199108Y-97319579D01*
X172199032Y-97319964D01*
X172194779Y-97333986D01*
X172194629Y-97334348D01*
X172187720Y-97347273D01*
X172187502Y-97347599D01*
X172178205Y-97358928D01*
X172177928Y-97359205D01*
X172166599Y-97368502D01*
X172166273Y-97368720D01*
X172153348Y-97375629D01*
X172152986Y-97375779D01*
X172138964Y-97380032D01*
X172138579Y-97380108D01*
X172135359Y-97380426D01*
X172125872Y-97382312D01*
X172117037Y-97385972D01*
X172109084Y-97391286D01*
X172102322Y-97398047D01*
X172097008Y-97406000D01*
X172093349Y-97414835D01*
X172091482Y-97424219D01*
X172091482Y-97433780D01*
X172093348Y-97443164D01*
X172097008Y-97451999D01*
X172102322Y-97459952D01*
X172109083Y-97466714D01*
X172117036Y-97472028D01*
X172125871Y-97475687D01*
X172135359Y-97477574D01*
X172138579Y-97477892D01*
X172138964Y-97477968D01*
X172152986Y-97482221D01*
X172153348Y-97482371D01*
X172166273Y-97489280D01*
X172166599Y-97489498D01*
X172177928Y-97498795D01*
X172178205Y-97499072D01*
X172187502Y-97510401D01*
X172187720Y-97510727D01*
X172194629Y-97523652D01*
X172194779Y-97524014D01*
X172199032Y-97538036D01*
X172199108Y-97538421D01*
X172200790Y-97555495D01*
X172200800Y-97555691D01*
X172200800Y-97578600D01*
X172199800Y-97580332D01*
X172197800Y-97580332D01*
X172196810Y-97578796D01*
X172194901Y-97559408D01*
X172189301Y-97540948D01*
X172180209Y-97523937D01*
X172167973Y-97509027D01*
X172153063Y-97496791D01*
X172136052Y-97487699D01*
X172117592Y-97482099D01*
X172098306Y-97480200D01*
X170697694Y-97480200D01*
X170678408Y-97482099D01*
X170659948Y-97487699D01*
X170642937Y-97496791D01*
X170628027Y-97509027D01*
X170615791Y-97523937D01*
X170606699Y-97540948D01*
X170601099Y-97559408D01*
X170599190Y-97578796D01*
X170598025Y-97580422D01*
X170596035Y-97580226D01*
X170595200Y-97578600D01*
X170595200Y-97555691D01*
X170595210Y-97555495D01*
X170596892Y-97538421D01*
X170596968Y-97538036D01*
X170601221Y-97524014D01*
X170601371Y-97523652D01*
X170608280Y-97510727D01*
X170608498Y-97510401D01*
X170617795Y-97499072D01*
X170618072Y-97498795D01*
X170629401Y-97489498D01*
X170629727Y-97489280D01*
X170642652Y-97482371D01*
X170643014Y-97482221D01*
X170657036Y-97477968D01*
X170657421Y-97477892D01*
X170660641Y-97477574D01*
X170670128Y-97475688D01*
X170678963Y-97472028D01*
X170686916Y-97466714D01*
X170693678Y-97459953D01*
X170698992Y-97452000D01*
X170702651Y-97443165D01*
X170704518Y-97433781D01*
X170704518Y-97424220D01*
X170702652Y-97414836D01*
X170698992Y-97406001D01*
X170693678Y-97398048D01*
X170686917Y-97391286D01*
X170678964Y-97385972D01*
X170670129Y-97382313D01*
X170660641Y-97380426D01*
X170657421Y-97380108D01*
X170657036Y-97380032D01*
X170643014Y-97375779D01*
X170642652Y-97375629D01*
X170629727Y-97368720D01*
X170629401Y-97368502D01*
X170618072Y-97359205D01*
X170617795Y-97358928D01*
X170608498Y-97347599D01*
X170608280Y-97347273D01*
X170601371Y-97334348D01*
X170601221Y-97333986D01*
X170596968Y-97319964D01*
X170596892Y-97319579D01*
X170595210Y-97302505D01*
X170595200Y-97302309D01*
X170595200Y-97279400D01*
X170596200Y-97277668D01*
X170598200Y-97277668D01*
X170599190Y-97279204D01*
X170601099Y-97298592D01*
X170606699Y-97317052D01*
X170615791Y-97334063D01*
X170628027Y-97348973D01*
X170642937Y-97361209D01*
X170659948Y-97370301D01*
X170678408Y-97375901D01*
X170697694Y-97377800D01*
X172098306Y-97377800D01*
X172117592Y-97375901D01*
X172136052Y-97370301D01*
X172153063Y-97361209D01*
X172167973Y-97348973D01*
X172180209Y-97334063D01*
X172189301Y-97317052D01*
X172194901Y-97298592D01*
X172196810Y-97279204D01*
X172197975Y-97277578D01*
X172199965Y-97277774D01*
G37*
G36*
X165849965Y-97277774D02*
G01*
X165850800Y-97279400D01*
X165850800Y-97302309D01*
X165850790Y-97302505D01*
X165849108Y-97319579D01*
X165849032Y-97319964D01*
X165844779Y-97333986D01*
X165844629Y-97334348D01*
X165837720Y-97347273D01*
X165837502Y-97347599D01*
X165828205Y-97358928D01*
X165827928Y-97359205D01*
X165816599Y-97368502D01*
X165816273Y-97368720D01*
X165803348Y-97375629D01*
X165802986Y-97375779D01*
X165788964Y-97380032D01*
X165788579Y-97380108D01*
X165785359Y-97380426D01*
X165775872Y-97382312D01*
X165767037Y-97385972D01*
X165759084Y-97391286D01*
X165752322Y-97398047D01*
X165747008Y-97406000D01*
X165743349Y-97414835D01*
X165741482Y-97424219D01*
X165741482Y-97433780D01*
X165743348Y-97443164D01*
X165747008Y-97451999D01*
X165752322Y-97459952D01*
X165759083Y-97466714D01*
X165767036Y-97472028D01*
X165775871Y-97475687D01*
X165785359Y-97477574D01*
X165788579Y-97477892D01*
X165788964Y-97477968D01*
X165802986Y-97482221D01*
X165803348Y-97482371D01*
X165816273Y-97489280D01*
X165816599Y-97489498D01*
X165827928Y-97498795D01*
X165828205Y-97499072D01*
X165837502Y-97510401D01*
X165837720Y-97510727D01*
X165844629Y-97523652D01*
X165844779Y-97524014D01*
X165849032Y-97538036D01*
X165849108Y-97538421D01*
X165850790Y-97555495D01*
X165850800Y-97555691D01*
X165850800Y-97578600D01*
X165849800Y-97580332D01*
X165847800Y-97580332D01*
X165846810Y-97578796D01*
X165844901Y-97559408D01*
X165839301Y-97540948D01*
X165830209Y-97523937D01*
X165817973Y-97509027D01*
X165803063Y-97496791D01*
X165786052Y-97487699D01*
X165767592Y-97482099D01*
X165748306Y-97480200D01*
X164347694Y-97480200D01*
X164328408Y-97482099D01*
X164309948Y-97487699D01*
X164292937Y-97496791D01*
X164278027Y-97509027D01*
X164265791Y-97523937D01*
X164256699Y-97540948D01*
X164251099Y-97559408D01*
X164249190Y-97578796D01*
X164248025Y-97580422D01*
X164246035Y-97580226D01*
X164245200Y-97578600D01*
X164245200Y-97555691D01*
X164245210Y-97555495D01*
X164246892Y-97538421D01*
X164246968Y-97538036D01*
X164251221Y-97524014D01*
X164251371Y-97523652D01*
X164258280Y-97510727D01*
X164258498Y-97510401D01*
X164267795Y-97499072D01*
X164268072Y-97498795D01*
X164279401Y-97489498D01*
X164279727Y-97489280D01*
X164292652Y-97482371D01*
X164293014Y-97482221D01*
X164307036Y-97477968D01*
X164307421Y-97477892D01*
X164310641Y-97477574D01*
X164320128Y-97475688D01*
X164328963Y-97472028D01*
X164336916Y-97466714D01*
X164343678Y-97459953D01*
X164348992Y-97452000D01*
X164352651Y-97443165D01*
X164354518Y-97433781D01*
X164354518Y-97424220D01*
X164352652Y-97414836D01*
X164348992Y-97406001D01*
X164343678Y-97398048D01*
X164336917Y-97391286D01*
X164328964Y-97385972D01*
X164320129Y-97382313D01*
X164310641Y-97380426D01*
X164307421Y-97380108D01*
X164307036Y-97380032D01*
X164293014Y-97375779D01*
X164292652Y-97375629D01*
X164279727Y-97368720D01*
X164279401Y-97368502D01*
X164268072Y-97359205D01*
X164267795Y-97358928D01*
X164258498Y-97347599D01*
X164258280Y-97347273D01*
X164251371Y-97334348D01*
X164251221Y-97333986D01*
X164246968Y-97319964D01*
X164246892Y-97319579D01*
X164245210Y-97302505D01*
X164245200Y-97302309D01*
X164245200Y-97279400D01*
X164246200Y-97277668D01*
X164248200Y-97277668D01*
X164249190Y-97279204D01*
X164251099Y-97298592D01*
X164256699Y-97317052D01*
X164265791Y-97334063D01*
X164278027Y-97348973D01*
X164292937Y-97361209D01*
X164309948Y-97370301D01*
X164328408Y-97375901D01*
X164347694Y-97377800D01*
X165748306Y-97377800D01*
X165767592Y-97375901D01*
X165786052Y-97370301D01*
X165803063Y-97361209D01*
X165817973Y-97348973D01*
X165830209Y-97334063D01*
X165839301Y-97317052D01*
X165844901Y-97298592D01*
X165846810Y-97279204D01*
X165847975Y-97277578D01*
X165849965Y-97277774D01*
G37*
G36*
X168096505Y-94951210D02*
G01*
X168113579Y-94952892D01*
X168113964Y-94952968D01*
X168127986Y-94957221D01*
X168128348Y-94957371D01*
X168141273Y-94964280D01*
X168141599Y-94964498D01*
X168152928Y-94973795D01*
X168153205Y-94974072D01*
X168162502Y-94985401D01*
X168162720Y-94985727D01*
X168169629Y-94998652D01*
X168169779Y-94999014D01*
X168174032Y-95013036D01*
X168174108Y-95013421D01*
X168174426Y-95016641D01*
X168176312Y-95026128D01*
X168179972Y-95034963D01*
X168185286Y-95042916D01*
X168192047Y-95049678D01*
X168200000Y-95054992D01*
X168208835Y-95058651D01*
X168218219Y-95060518D01*
X168227780Y-95060518D01*
X168237164Y-95058652D01*
X168245999Y-95054992D01*
X168253952Y-95049678D01*
X168260714Y-95042917D01*
X168266028Y-95034964D01*
X168269687Y-95026129D01*
X168271574Y-95016641D01*
X168271892Y-95013421D01*
X168271968Y-95013036D01*
X168276221Y-94999014D01*
X168276371Y-94998652D01*
X168283280Y-94985727D01*
X168283498Y-94985401D01*
X168292795Y-94974072D01*
X168293072Y-94973795D01*
X168304401Y-94964498D01*
X168304727Y-94964280D01*
X168317652Y-94957371D01*
X168318014Y-94957221D01*
X168332036Y-94952968D01*
X168332421Y-94952892D01*
X168349495Y-94951210D01*
X168349691Y-94951200D01*
X168372600Y-94951200D01*
X168374332Y-94952200D01*
X168374332Y-94954200D01*
X168372796Y-94955190D01*
X168353408Y-94957099D01*
X168334948Y-94962699D01*
X168317937Y-94971791D01*
X168303027Y-94984027D01*
X168290791Y-94998937D01*
X168281699Y-95015948D01*
X168276099Y-95034408D01*
X168274200Y-95053694D01*
X168274200Y-96454306D01*
X168276099Y-96473592D01*
X168281699Y-96492052D01*
X168290791Y-96509063D01*
X168303027Y-96523973D01*
X168317937Y-96536209D01*
X168334948Y-96545301D01*
X168353408Y-96550901D01*
X168372796Y-96552810D01*
X168374422Y-96553975D01*
X168374226Y-96555965D01*
X168372600Y-96556800D01*
X168349691Y-96556800D01*
X168349495Y-96556790D01*
X168332421Y-96555108D01*
X168332036Y-96555032D01*
X168318014Y-96550779D01*
X168317652Y-96550629D01*
X168304727Y-96543720D01*
X168304401Y-96543502D01*
X168293072Y-96534205D01*
X168292795Y-96533928D01*
X168283498Y-96522599D01*
X168283280Y-96522273D01*
X168276371Y-96509348D01*
X168276221Y-96508986D01*
X168271968Y-96494964D01*
X168271892Y-96494579D01*
X168271574Y-96491359D01*
X168269688Y-96481872D01*
X168266028Y-96473037D01*
X168260714Y-96465084D01*
X168253953Y-96458322D01*
X168246000Y-96453008D01*
X168237165Y-96449349D01*
X168227781Y-96447482D01*
X168218220Y-96447482D01*
X168208836Y-96449348D01*
X168200001Y-96453008D01*
X168192048Y-96458322D01*
X168185286Y-96465083D01*
X168179972Y-96473036D01*
X168176313Y-96481871D01*
X168174426Y-96491359D01*
X168174108Y-96494579D01*
X168174032Y-96494964D01*
X168169779Y-96508986D01*
X168169629Y-96509348D01*
X168162720Y-96522273D01*
X168162502Y-96522599D01*
X168153205Y-96533928D01*
X168152928Y-96534205D01*
X168141599Y-96543502D01*
X168141273Y-96543720D01*
X168128348Y-96550629D01*
X168127986Y-96550779D01*
X168113964Y-96555032D01*
X168113579Y-96555108D01*
X168096505Y-96556790D01*
X168096309Y-96556800D01*
X168073400Y-96556800D01*
X168071668Y-96555800D01*
X168071668Y-96553800D01*
X168073204Y-96552810D01*
X168092592Y-96550901D01*
X168111052Y-96545301D01*
X168128063Y-96536209D01*
X168142973Y-96523973D01*
X168155209Y-96509063D01*
X168164301Y-96492052D01*
X168169901Y-96473592D01*
X168171800Y-96454306D01*
X168171800Y-95053694D01*
X168169901Y-95034408D01*
X168164301Y-95015948D01*
X168155209Y-94998937D01*
X168142973Y-94984027D01*
X168128063Y-94971791D01*
X168111052Y-94962699D01*
X168092592Y-94957099D01*
X168073204Y-94955190D01*
X168071578Y-94954025D01*
X168071774Y-94952035D01*
X168073400Y-94951200D01*
X168096309Y-94951200D01*
X168096505Y-94951210D01*
G37*
G36*
X169596505Y-94951210D02*
G01*
X169613579Y-94952892D01*
X169613964Y-94952968D01*
X169627986Y-94957221D01*
X169628348Y-94957371D01*
X169641273Y-94964280D01*
X169641599Y-94964498D01*
X169652928Y-94973795D01*
X169653205Y-94974072D01*
X169662502Y-94985401D01*
X169662720Y-94985727D01*
X169669629Y-94998652D01*
X169669779Y-94999014D01*
X169674032Y-95013036D01*
X169674108Y-95013421D01*
X169674426Y-95016641D01*
X169676312Y-95026128D01*
X169679972Y-95034963D01*
X169685286Y-95042916D01*
X169692047Y-95049678D01*
X169700000Y-95054992D01*
X169708835Y-95058651D01*
X169718219Y-95060518D01*
X169727780Y-95060518D01*
X169737164Y-95058652D01*
X169745999Y-95054992D01*
X169753952Y-95049678D01*
X169760714Y-95042917D01*
X169766028Y-95034964D01*
X169769687Y-95026129D01*
X169771574Y-95016641D01*
X169771892Y-95013421D01*
X169771968Y-95013036D01*
X169776221Y-94999014D01*
X169776371Y-94998652D01*
X169783280Y-94985727D01*
X169783498Y-94985401D01*
X169792795Y-94974072D01*
X169793072Y-94973795D01*
X169804401Y-94964498D01*
X169804727Y-94964280D01*
X169817652Y-94957371D01*
X169818014Y-94957221D01*
X169832036Y-94952968D01*
X169832421Y-94952892D01*
X169849495Y-94951210D01*
X169849691Y-94951200D01*
X169872600Y-94951200D01*
X169874332Y-94952200D01*
X169874332Y-94954200D01*
X169872796Y-94955190D01*
X169853408Y-94957099D01*
X169834948Y-94962699D01*
X169817937Y-94971791D01*
X169803027Y-94984027D01*
X169790791Y-94998937D01*
X169781699Y-95015948D01*
X169776099Y-95034408D01*
X169774200Y-95053694D01*
X169774200Y-96454306D01*
X169776099Y-96473592D01*
X169781699Y-96492052D01*
X169790791Y-96509063D01*
X169803027Y-96523973D01*
X169817937Y-96536209D01*
X169834948Y-96545301D01*
X169853408Y-96550901D01*
X169872796Y-96552810D01*
X169874422Y-96553975D01*
X169874226Y-96555965D01*
X169872600Y-96556800D01*
X169849691Y-96556800D01*
X169849495Y-96556790D01*
X169832421Y-96555108D01*
X169832036Y-96555032D01*
X169818014Y-96550779D01*
X169817652Y-96550629D01*
X169804727Y-96543720D01*
X169804401Y-96543502D01*
X169793072Y-96534205D01*
X169792795Y-96533928D01*
X169783498Y-96522599D01*
X169783280Y-96522273D01*
X169776371Y-96509348D01*
X169776221Y-96508986D01*
X169771968Y-96494964D01*
X169771892Y-96494579D01*
X169771574Y-96491359D01*
X169769688Y-96481872D01*
X169766028Y-96473037D01*
X169760714Y-96465084D01*
X169753953Y-96458322D01*
X169746000Y-96453008D01*
X169737165Y-96449349D01*
X169727781Y-96447482D01*
X169718220Y-96447482D01*
X169708836Y-96449348D01*
X169700001Y-96453008D01*
X169692048Y-96458322D01*
X169685286Y-96465083D01*
X169679972Y-96473036D01*
X169676313Y-96481871D01*
X169674426Y-96491359D01*
X169674108Y-96494579D01*
X169674032Y-96494964D01*
X169669779Y-96508986D01*
X169669629Y-96509348D01*
X169662720Y-96522273D01*
X169662502Y-96522599D01*
X169653205Y-96533928D01*
X169652928Y-96534205D01*
X169641599Y-96543502D01*
X169641273Y-96543720D01*
X169628348Y-96550629D01*
X169627986Y-96550779D01*
X169613964Y-96555032D01*
X169613579Y-96555108D01*
X169596505Y-96556790D01*
X169596309Y-96556800D01*
X169573400Y-96556800D01*
X169571668Y-96555800D01*
X169571668Y-96553800D01*
X169573204Y-96552810D01*
X169592592Y-96550901D01*
X169611052Y-96545301D01*
X169628063Y-96536209D01*
X169642973Y-96523973D01*
X169655209Y-96509063D01*
X169664301Y-96492052D01*
X169669901Y-96473592D01*
X169671800Y-96454306D01*
X169671800Y-95053694D01*
X169669901Y-95034408D01*
X169664301Y-95015948D01*
X169655209Y-94998937D01*
X169642973Y-94984027D01*
X169628063Y-94971791D01*
X169611052Y-94962699D01*
X169592592Y-94957099D01*
X169573204Y-94955190D01*
X169571578Y-94954025D01*
X169571774Y-94952035D01*
X169573400Y-94951200D01*
X169596309Y-94951200D01*
X169596505Y-94951210D01*
G37*
G36*
X169096505Y-94951210D02*
G01*
X169113579Y-94952892D01*
X169113964Y-94952968D01*
X169127986Y-94957221D01*
X169128348Y-94957371D01*
X169141273Y-94964280D01*
X169141599Y-94964498D01*
X169152928Y-94973795D01*
X169153205Y-94974072D01*
X169162502Y-94985401D01*
X169162720Y-94985727D01*
X169169629Y-94998652D01*
X169169779Y-94999014D01*
X169174032Y-95013036D01*
X169174108Y-95013421D01*
X169174426Y-95016641D01*
X169176312Y-95026128D01*
X169179972Y-95034963D01*
X169185286Y-95042916D01*
X169192047Y-95049678D01*
X169200000Y-95054992D01*
X169208835Y-95058651D01*
X169218219Y-95060518D01*
X169227780Y-95060518D01*
X169237164Y-95058652D01*
X169245999Y-95054992D01*
X169253952Y-95049678D01*
X169260714Y-95042917D01*
X169266028Y-95034964D01*
X169269687Y-95026129D01*
X169271574Y-95016641D01*
X169271892Y-95013421D01*
X169271968Y-95013036D01*
X169276221Y-94999014D01*
X169276371Y-94998652D01*
X169283280Y-94985727D01*
X169283498Y-94985401D01*
X169292795Y-94974072D01*
X169293072Y-94973795D01*
X169304401Y-94964498D01*
X169304727Y-94964280D01*
X169317652Y-94957371D01*
X169318014Y-94957221D01*
X169332036Y-94952968D01*
X169332421Y-94952892D01*
X169349495Y-94951210D01*
X169349691Y-94951200D01*
X169372600Y-94951200D01*
X169374332Y-94952200D01*
X169374332Y-94954200D01*
X169372796Y-94955190D01*
X169353408Y-94957099D01*
X169334948Y-94962699D01*
X169317937Y-94971791D01*
X169303027Y-94984027D01*
X169290791Y-94998937D01*
X169281699Y-95015948D01*
X169276099Y-95034408D01*
X169274200Y-95053694D01*
X169274200Y-96454306D01*
X169276099Y-96473592D01*
X169281699Y-96492052D01*
X169290791Y-96509063D01*
X169303027Y-96523973D01*
X169317937Y-96536209D01*
X169334948Y-96545301D01*
X169353408Y-96550901D01*
X169372796Y-96552810D01*
X169374422Y-96553975D01*
X169374226Y-96555965D01*
X169372600Y-96556800D01*
X169349691Y-96556800D01*
X169349495Y-96556790D01*
X169332421Y-96555108D01*
X169332036Y-96555032D01*
X169318014Y-96550779D01*
X169317652Y-96550629D01*
X169304727Y-96543720D01*
X169304401Y-96543502D01*
X169293072Y-96534205D01*
X169292795Y-96533928D01*
X169283498Y-96522599D01*
X169283280Y-96522273D01*
X169276371Y-96509348D01*
X169276221Y-96508986D01*
X169271968Y-96494964D01*
X169271892Y-96494579D01*
X169271574Y-96491359D01*
X169269688Y-96481872D01*
X169266028Y-96473037D01*
X169260714Y-96465084D01*
X169253953Y-96458322D01*
X169246000Y-96453008D01*
X169237165Y-96449349D01*
X169227781Y-96447482D01*
X169218220Y-96447482D01*
X169208836Y-96449348D01*
X169200001Y-96453008D01*
X169192048Y-96458322D01*
X169185286Y-96465083D01*
X169179972Y-96473036D01*
X169176313Y-96481871D01*
X169174426Y-96491359D01*
X169174108Y-96494579D01*
X169174032Y-96494964D01*
X169169779Y-96508986D01*
X169169629Y-96509348D01*
X169162720Y-96522273D01*
X169162502Y-96522599D01*
X169153205Y-96533928D01*
X169152928Y-96534205D01*
X169141599Y-96543502D01*
X169141273Y-96543720D01*
X169128348Y-96550629D01*
X169127986Y-96550779D01*
X169113964Y-96555032D01*
X169113579Y-96555108D01*
X169096505Y-96556790D01*
X169096309Y-96556800D01*
X169073400Y-96556800D01*
X169071668Y-96555800D01*
X169071668Y-96553800D01*
X169073204Y-96552810D01*
X169092592Y-96550901D01*
X169111052Y-96545301D01*
X169128063Y-96536209D01*
X169142973Y-96523973D01*
X169155209Y-96509063D01*
X169164301Y-96492052D01*
X169169901Y-96473592D01*
X169171800Y-96454306D01*
X169171800Y-95053694D01*
X169169901Y-95034408D01*
X169164301Y-95015948D01*
X169155209Y-94998937D01*
X169142973Y-94984027D01*
X169128063Y-94971791D01*
X169111052Y-94962699D01*
X169092592Y-94957099D01*
X169073204Y-94955190D01*
X169071578Y-94954025D01*
X169071774Y-94952035D01*
X169073400Y-94951200D01*
X169096309Y-94951200D01*
X169096505Y-94951210D01*
G37*
G36*
X166596505Y-94951210D02*
G01*
X166613579Y-94952892D01*
X166613964Y-94952968D01*
X166627986Y-94957221D01*
X166628348Y-94957371D01*
X166641273Y-94964280D01*
X166641599Y-94964498D01*
X166652928Y-94973795D01*
X166653205Y-94974072D01*
X166662502Y-94985401D01*
X166662720Y-94985727D01*
X166669629Y-94998652D01*
X166669779Y-94999014D01*
X166674032Y-95013036D01*
X166674108Y-95013421D01*
X166674426Y-95016641D01*
X166676312Y-95026128D01*
X166679972Y-95034963D01*
X166685286Y-95042916D01*
X166692047Y-95049678D01*
X166700000Y-95054992D01*
X166708835Y-95058651D01*
X166718219Y-95060518D01*
X166727780Y-95060518D01*
X166737164Y-95058652D01*
X166745999Y-95054992D01*
X166753952Y-95049678D01*
X166760714Y-95042917D01*
X166766028Y-95034964D01*
X166769687Y-95026129D01*
X166771574Y-95016641D01*
X166771892Y-95013421D01*
X166771968Y-95013036D01*
X166776221Y-94999014D01*
X166776371Y-94998652D01*
X166783280Y-94985727D01*
X166783498Y-94985401D01*
X166792795Y-94974072D01*
X166793072Y-94973795D01*
X166804401Y-94964498D01*
X166804727Y-94964280D01*
X166817652Y-94957371D01*
X166818014Y-94957221D01*
X166832036Y-94952968D01*
X166832421Y-94952892D01*
X166849495Y-94951210D01*
X166849691Y-94951200D01*
X166872600Y-94951200D01*
X166874332Y-94952200D01*
X166874332Y-94954200D01*
X166872796Y-94955190D01*
X166853408Y-94957099D01*
X166834948Y-94962699D01*
X166817937Y-94971791D01*
X166803027Y-94984027D01*
X166790791Y-94998937D01*
X166781699Y-95015948D01*
X166776099Y-95034408D01*
X166774200Y-95053694D01*
X166774200Y-96454306D01*
X166776099Y-96473592D01*
X166781699Y-96492052D01*
X166790791Y-96509063D01*
X166803027Y-96523973D01*
X166817937Y-96536209D01*
X166834948Y-96545301D01*
X166853408Y-96550901D01*
X166872796Y-96552810D01*
X166874422Y-96553975D01*
X166874226Y-96555965D01*
X166872600Y-96556800D01*
X166849691Y-96556800D01*
X166849495Y-96556790D01*
X166832421Y-96555108D01*
X166832036Y-96555032D01*
X166818014Y-96550779D01*
X166817652Y-96550629D01*
X166804727Y-96543720D01*
X166804401Y-96543502D01*
X166793072Y-96534205D01*
X166792795Y-96533928D01*
X166783498Y-96522599D01*
X166783280Y-96522273D01*
X166776371Y-96509348D01*
X166776221Y-96508986D01*
X166771968Y-96494964D01*
X166771892Y-96494579D01*
X166771574Y-96491359D01*
X166769688Y-96481872D01*
X166766028Y-96473037D01*
X166760714Y-96465084D01*
X166753953Y-96458322D01*
X166746000Y-96453008D01*
X166737165Y-96449349D01*
X166727781Y-96447482D01*
X166718220Y-96447482D01*
X166708836Y-96449348D01*
X166700001Y-96453008D01*
X166692048Y-96458322D01*
X166685286Y-96465083D01*
X166679972Y-96473036D01*
X166676313Y-96481871D01*
X166674426Y-96491359D01*
X166674108Y-96494579D01*
X166674032Y-96494964D01*
X166669779Y-96508986D01*
X166669629Y-96509348D01*
X166662720Y-96522273D01*
X166662502Y-96522599D01*
X166653205Y-96533928D01*
X166652928Y-96534205D01*
X166641599Y-96543502D01*
X166641273Y-96543720D01*
X166628348Y-96550629D01*
X166627986Y-96550779D01*
X166613964Y-96555032D01*
X166613579Y-96555108D01*
X166596505Y-96556790D01*
X166596309Y-96556800D01*
X166573400Y-96556800D01*
X166571668Y-96555800D01*
X166571668Y-96553800D01*
X166573204Y-96552810D01*
X166592592Y-96550901D01*
X166611052Y-96545301D01*
X166628063Y-96536209D01*
X166642973Y-96523973D01*
X166655209Y-96509063D01*
X166664301Y-96492052D01*
X166669901Y-96473592D01*
X166671800Y-96454306D01*
X166671800Y-95053694D01*
X166669901Y-95034408D01*
X166664301Y-95015948D01*
X166655209Y-94998937D01*
X166642973Y-94984027D01*
X166628063Y-94971791D01*
X166611052Y-94962699D01*
X166592592Y-94957099D01*
X166573204Y-94955190D01*
X166571578Y-94954025D01*
X166571774Y-94952035D01*
X166573400Y-94951200D01*
X166596309Y-94951200D01*
X166596505Y-94951210D01*
G37*
G36*
X168596505Y-94951210D02*
G01*
X168613579Y-94952892D01*
X168613964Y-94952968D01*
X168627986Y-94957221D01*
X168628348Y-94957371D01*
X168641273Y-94964280D01*
X168641599Y-94964498D01*
X168652928Y-94973795D01*
X168653205Y-94974072D01*
X168662502Y-94985401D01*
X168662720Y-94985727D01*
X168669629Y-94998652D01*
X168669779Y-94999014D01*
X168674032Y-95013036D01*
X168674108Y-95013421D01*
X168674426Y-95016641D01*
X168676312Y-95026128D01*
X168679972Y-95034963D01*
X168685286Y-95042916D01*
X168692047Y-95049678D01*
X168700000Y-95054992D01*
X168708835Y-95058651D01*
X168718219Y-95060518D01*
X168727780Y-95060518D01*
X168737164Y-95058652D01*
X168745999Y-95054992D01*
X168753952Y-95049678D01*
X168760714Y-95042917D01*
X168766028Y-95034964D01*
X168769687Y-95026129D01*
X168771574Y-95016641D01*
X168771892Y-95013421D01*
X168771968Y-95013036D01*
X168776221Y-94999014D01*
X168776371Y-94998652D01*
X168783280Y-94985727D01*
X168783498Y-94985401D01*
X168792795Y-94974072D01*
X168793072Y-94973795D01*
X168804401Y-94964498D01*
X168804727Y-94964280D01*
X168817652Y-94957371D01*
X168818014Y-94957221D01*
X168832036Y-94952968D01*
X168832421Y-94952892D01*
X168849495Y-94951210D01*
X168849691Y-94951200D01*
X168872600Y-94951200D01*
X168874332Y-94952200D01*
X168874332Y-94954200D01*
X168872796Y-94955190D01*
X168853408Y-94957099D01*
X168834948Y-94962699D01*
X168817937Y-94971791D01*
X168803027Y-94984027D01*
X168790791Y-94998937D01*
X168781699Y-95015948D01*
X168776099Y-95034408D01*
X168774200Y-95053694D01*
X168774200Y-96454306D01*
X168776099Y-96473592D01*
X168781699Y-96492052D01*
X168790791Y-96509063D01*
X168803027Y-96523973D01*
X168817937Y-96536209D01*
X168834948Y-96545301D01*
X168853408Y-96550901D01*
X168872796Y-96552810D01*
X168874422Y-96553975D01*
X168874226Y-96555965D01*
X168872600Y-96556800D01*
X168849691Y-96556800D01*
X168849495Y-96556790D01*
X168832421Y-96555108D01*
X168832036Y-96555032D01*
X168818014Y-96550779D01*
X168817652Y-96550629D01*
X168804727Y-96543720D01*
X168804401Y-96543502D01*
X168793072Y-96534205D01*
X168792795Y-96533928D01*
X168783498Y-96522599D01*
X168783280Y-96522273D01*
X168776371Y-96509348D01*
X168776221Y-96508986D01*
X168771968Y-96494964D01*
X168771892Y-96494579D01*
X168771574Y-96491359D01*
X168769688Y-96481872D01*
X168766028Y-96473037D01*
X168760714Y-96465084D01*
X168753953Y-96458322D01*
X168746000Y-96453008D01*
X168737165Y-96449349D01*
X168727781Y-96447482D01*
X168718220Y-96447482D01*
X168708836Y-96449348D01*
X168700001Y-96453008D01*
X168692048Y-96458322D01*
X168685286Y-96465083D01*
X168679972Y-96473036D01*
X168676313Y-96481871D01*
X168674426Y-96491359D01*
X168674108Y-96494579D01*
X168674032Y-96494964D01*
X168669779Y-96508986D01*
X168669629Y-96509348D01*
X168662720Y-96522273D01*
X168662502Y-96522599D01*
X168653205Y-96533928D01*
X168652928Y-96534205D01*
X168641599Y-96543502D01*
X168641273Y-96543720D01*
X168628348Y-96550629D01*
X168627986Y-96550779D01*
X168613964Y-96555032D01*
X168613579Y-96555108D01*
X168596505Y-96556790D01*
X168596309Y-96556800D01*
X168573400Y-96556800D01*
X168571668Y-96555800D01*
X168571668Y-96553800D01*
X168573204Y-96552810D01*
X168592592Y-96550901D01*
X168611052Y-96545301D01*
X168628063Y-96536209D01*
X168642973Y-96523973D01*
X168655209Y-96509063D01*
X168664301Y-96492052D01*
X168669901Y-96473592D01*
X168671800Y-96454306D01*
X168671800Y-95053694D01*
X168669901Y-95034408D01*
X168664301Y-95015948D01*
X168655209Y-94998937D01*
X168642973Y-94984027D01*
X168628063Y-94971791D01*
X168611052Y-94962699D01*
X168592592Y-94957099D01*
X168573204Y-94955190D01*
X168571578Y-94954025D01*
X168571774Y-94952035D01*
X168573400Y-94951200D01*
X168596309Y-94951200D01*
X168596505Y-94951210D01*
G37*
G36*
X167096505Y-94951210D02*
G01*
X167113579Y-94952892D01*
X167113964Y-94952968D01*
X167127986Y-94957221D01*
X167128348Y-94957371D01*
X167141273Y-94964280D01*
X167141599Y-94964498D01*
X167152928Y-94973795D01*
X167153205Y-94974072D01*
X167162502Y-94985401D01*
X167162720Y-94985727D01*
X167169629Y-94998652D01*
X167169779Y-94999014D01*
X167174032Y-95013036D01*
X167174108Y-95013421D01*
X167174426Y-95016641D01*
X167176312Y-95026128D01*
X167179972Y-95034963D01*
X167185286Y-95042916D01*
X167192047Y-95049678D01*
X167200000Y-95054992D01*
X167208835Y-95058651D01*
X167218219Y-95060518D01*
X167227780Y-95060518D01*
X167237164Y-95058652D01*
X167245999Y-95054992D01*
X167253952Y-95049678D01*
X167260714Y-95042917D01*
X167266028Y-95034964D01*
X167269687Y-95026129D01*
X167271574Y-95016641D01*
X167271892Y-95013421D01*
X167271968Y-95013036D01*
X167276221Y-94999014D01*
X167276371Y-94998652D01*
X167283280Y-94985727D01*
X167283498Y-94985401D01*
X167292795Y-94974072D01*
X167293072Y-94973795D01*
X167304401Y-94964498D01*
X167304727Y-94964280D01*
X167317652Y-94957371D01*
X167318014Y-94957221D01*
X167332036Y-94952968D01*
X167332421Y-94952892D01*
X167349495Y-94951210D01*
X167349691Y-94951200D01*
X167372600Y-94951200D01*
X167374332Y-94952200D01*
X167374332Y-94954200D01*
X167372796Y-94955190D01*
X167353408Y-94957099D01*
X167334948Y-94962699D01*
X167317937Y-94971791D01*
X167303027Y-94984027D01*
X167290791Y-94998937D01*
X167281699Y-95015948D01*
X167276099Y-95034408D01*
X167274200Y-95053694D01*
X167274200Y-96454306D01*
X167276099Y-96473592D01*
X167281699Y-96492052D01*
X167290791Y-96509063D01*
X167303027Y-96523973D01*
X167317937Y-96536209D01*
X167334948Y-96545301D01*
X167353408Y-96550901D01*
X167372796Y-96552810D01*
X167374422Y-96553975D01*
X167374226Y-96555965D01*
X167372600Y-96556800D01*
X167349691Y-96556800D01*
X167349495Y-96556790D01*
X167332421Y-96555108D01*
X167332036Y-96555032D01*
X167318014Y-96550779D01*
X167317652Y-96550629D01*
X167304727Y-96543720D01*
X167304401Y-96543502D01*
X167293072Y-96534205D01*
X167292795Y-96533928D01*
X167283498Y-96522599D01*
X167283280Y-96522273D01*
X167276371Y-96509348D01*
X167276221Y-96508986D01*
X167271968Y-96494964D01*
X167271892Y-96494579D01*
X167271574Y-96491359D01*
X167269688Y-96481872D01*
X167266028Y-96473037D01*
X167260714Y-96465084D01*
X167253953Y-96458322D01*
X167246000Y-96453008D01*
X167237165Y-96449349D01*
X167227781Y-96447482D01*
X167218220Y-96447482D01*
X167208836Y-96449348D01*
X167200001Y-96453008D01*
X167192048Y-96458322D01*
X167185286Y-96465083D01*
X167179972Y-96473036D01*
X167176313Y-96481871D01*
X167174426Y-96491359D01*
X167174108Y-96494579D01*
X167174032Y-96494964D01*
X167169779Y-96508986D01*
X167169629Y-96509348D01*
X167162720Y-96522273D01*
X167162502Y-96522599D01*
X167153205Y-96533928D01*
X167152928Y-96534205D01*
X167141599Y-96543502D01*
X167141273Y-96543720D01*
X167128348Y-96550629D01*
X167127986Y-96550779D01*
X167113964Y-96555032D01*
X167113579Y-96555108D01*
X167096505Y-96556790D01*
X167096309Y-96556800D01*
X167073400Y-96556800D01*
X167071668Y-96555800D01*
X167071668Y-96553800D01*
X167073204Y-96552810D01*
X167092592Y-96550901D01*
X167111052Y-96545301D01*
X167128063Y-96536209D01*
X167142973Y-96523973D01*
X167155209Y-96509063D01*
X167164301Y-96492052D01*
X167169901Y-96473592D01*
X167171800Y-96454306D01*
X167171800Y-95053694D01*
X167169901Y-95034408D01*
X167164301Y-95015948D01*
X167155209Y-94998937D01*
X167142973Y-94984027D01*
X167128063Y-94971791D01*
X167111052Y-94962699D01*
X167092592Y-94957099D01*
X167073204Y-94955190D01*
X167071578Y-94954025D01*
X167071774Y-94952035D01*
X167073400Y-94951200D01*
X167096309Y-94951200D01*
X167096505Y-94951210D01*
G37*
G36*
X167596505Y-94951210D02*
G01*
X167613579Y-94952892D01*
X167613964Y-94952968D01*
X167627986Y-94957221D01*
X167628348Y-94957371D01*
X167641273Y-94964280D01*
X167641599Y-94964498D01*
X167652928Y-94973795D01*
X167653205Y-94974072D01*
X167662502Y-94985401D01*
X167662720Y-94985727D01*
X167669629Y-94998652D01*
X167669779Y-94999014D01*
X167674032Y-95013036D01*
X167674108Y-95013421D01*
X167674426Y-95016641D01*
X167676312Y-95026128D01*
X167679972Y-95034963D01*
X167685286Y-95042916D01*
X167692047Y-95049678D01*
X167700000Y-95054992D01*
X167708835Y-95058651D01*
X167718219Y-95060518D01*
X167727780Y-95060518D01*
X167737164Y-95058652D01*
X167745999Y-95054992D01*
X167753952Y-95049678D01*
X167760714Y-95042917D01*
X167766028Y-95034964D01*
X167769687Y-95026129D01*
X167771574Y-95016641D01*
X167771892Y-95013421D01*
X167771968Y-95013036D01*
X167776221Y-94999014D01*
X167776371Y-94998652D01*
X167783280Y-94985727D01*
X167783498Y-94985401D01*
X167792795Y-94974072D01*
X167793072Y-94973795D01*
X167804401Y-94964498D01*
X167804727Y-94964280D01*
X167817652Y-94957371D01*
X167818014Y-94957221D01*
X167832036Y-94952968D01*
X167832421Y-94952892D01*
X167849495Y-94951210D01*
X167849691Y-94951200D01*
X167872600Y-94951200D01*
X167874332Y-94952200D01*
X167874332Y-94954200D01*
X167872796Y-94955190D01*
X167853408Y-94957099D01*
X167834948Y-94962699D01*
X167817937Y-94971791D01*
X167803027Y-94984027D01*
X167790791Y-94998937D01*
X167781699Y-95015948D01*
X167776099Y-95034408D01*
X167774200Y-95053694D01*
X167774200Y-96454306D01*
X167776099Y-96473592D01*
X167781699Y-96492052D01*
X167790791Y-96509063D01*
X167803027Y-96523973D01*
X167817937Y-96536209D01*
X167834948Y-96545301D01*
X167853408Y-96550901D01*
X167872796Y-96552810D01*
X167874422Y-96553975D01*
X167874226Y-96555965D01*
X167872600Y-96556800D01*
X167849691Y-96556800D01*
X167849495Y-96556790D01*
X167832421Y-96555108D01*
X167832036Y-96555032D01*
X167818014Y-96550779D01*
X167817652Y-96550629D01*
X167804727Y-96543720D01*
X167804401Y-96543502D01*
X167793072Y-96534205D01*
X167792795Y-96533928D01*
X167783498Y-96522599D01*
X167783280Y-96522273D01*
X167776371Y-96509348D01*
X167776221Y-96508986D01*
X167771968Y-96494964D01*
X167771892Y-96494579D01*
X167771574Y-96491359D01*
X167769688Y-96481872D01*
X167766028Y-96473037D01*
X167760714Y-96465084D01*
X167753953Y-96458322D01*
X167746000Y-96453008D01*
X167737165Y-96449349D01*
X167727781Y-96447482D01*
X167718220Y-96447482D01*
X167708836Y-96449348D01*
X167700001Y-96453008D01*
X167692048Y-96458322D01*
X167685286Y-96465083D01*
X167679972Y-96473036D01*
X167676313Y-96481871D01*
X167674426Y-96491359D01*
X167674108Y-96494579D01*
X167674032Y-96494964D01*
X167669779Y-96508986D01*
X167669629Y-96509348D01*
X167662720Y-96522273D01*
X167662502Y-96522599D01*
X167653205Y-96533928D01*
X167652928Y-96534205D01*
X167641599Y-96543502D01*
X167641273Y-96543720D01*
X167628348Y-96550629D01*
X167627986Y-96550779D01*
X167613964Y-96555032D01*
X167613579Y-96555108D01*
X167596505Y-96556790D01*
X167596309Y-96556800D01*
X167573400Y-96556800D01*
X167571668Y-96555800D01*
X167571668Y-96553800D01*
X167573204Y-96552810D01*
X167592592Y-96550901D01*
X167611052Y-96545301D01*
X167628063Y-96536209D01*
X167642973Y-96523973D01*
X167655209Y-96509063D01*
X167664301Y-96492052D01*
X167669901Y-96473592D01*
X167671800Y-96454306D01*
X167671800Y-95053694D01*
X167669901Y-95034408D01*
X167664301Y-95015948D01*
X167655209Y-94998937D01*
X167642973Y-94984027D01*
X167628063Y-94971791D01*
X167611052Y-94962699D01*
X167592592Y-94957099D01*
X167573204Y-94955190D01*
X167571578Y-94954025D01*
X167571774Y-94952035D01*
X167573400Y-94951200D01*
X167596309Y-94951200D01*
X167596505Y-94951210D01*
G37*
M02*
