G04 #@! TF.GenerationSoftware,KiCad,Pcbnew,(5.1.5-0)*
G04 #@! TF.CreationDate,2021-01-19T14:56:57-08:00*
G04 #@! TF.ProjectId,Luminometer_RPi,4c756d69-6e6f-46d6-9574-65725f525069,rev?*
G04 #@! TF.SameCoordinates,Original*
G04 #@! TF.FileFunction,Paste,Top*
G04 #@! TF.FilePolarity,Positive*
%FSLAX46Y46*%
G04 Gerber Fmt 4.6, Leading zero omitted, Abs format (unit mm)*
G04 Created by KiCad (PCBNEW (5.1.5-0)) date 2021-01-19 14:56:57*
%MOMM*%
%LPD*%
G04 APERTURE LIST*
%ADD10C,0.150000*%
%ADD11R,0.300000X1.600000*%
%ADD12R,2.310000X2.460000*%
%ADD13C,0.100000*%
%ADD14R,5.000000X1.800000*%
G04 APERTURE END LIST*
D10*
X109500000Y-111500000D02*
G75*
G02X106500000Y-108500000I0J3000000D01*
G01*
X171500000Y-108500000D02*
G75*
G02X168500000Y-111500000I-3000000J0D01*
G01*
X168500000Y-61500000D02*
G75*
G02X171500000Y-64500000I0J-3000000D01*
G01*
X106500000Y-64500000D02*
G75*
G02X109500000Y-61500000I3000000J0D01*
G01*
X106500000Y-108500000D02*
X106500000Y-64500000D01*
X168500000Y-111500000D02*
X109500000Y-111500000D01*
X171500000Y-64500000D02*
X171500000Y-108500000D01*
X109500000Y-61500000D02*
X168500000Y-61500000D01*
D11*
X137375000Y-82200000D03*
X138025000Y-82200000D03*
X138675000Y-82200000D03*
X139325000Y-82200000D03*
X139975000Y-82200000D03*
X140625000Y-82200000D03*
X141275000Y-82200000D03*
X141275000Y-87800000D03*
X140625000Y-87800000D03*
X139975000Y-87800000D03*
X139325000Y-87800000D03*
X138675000Y-87800000D03*
X138025000Y-87800000D03*
X137375000Y-87800000D03*
X136725000Y-82200000D03*
D12*
X139000000Y-85000000D03*
D11*
X136725000Y-87800000D03*
D13*
G36*
X132500000Y-86550000D02*
G01*
X127500000Y-86550000D01*
X127500000Y-84750000D01*
X132500000Y-84750000D01*
X132500000Y-86550000D01*
G37*
D14*
X130000000Y-89350000D03*
D13*
G36*
X123247519Y-84788015D02*
G01*
X119711985Y-81252481D01*
X120984777Y-79979689D01*
X124520311Y-83515223D01*
X123247519Y-84788015D01*
G37*
G36*
X117095689Y-83868777D02*
G01*
X118368481Y-82595985D01*
X121904015Y-86131519D01*
X120631223Y-87404311D01*
X117095689Y-83868777D01*
G37*
G36*
X158288015Y-81252481D02*
G01*
X154752481Y-84788015D01*
X153479689Y-83515223D01*
X157015223Y-79979689D01*
X158288015Y-81252481D01*
G37*
G36*
X157368777Y-87404311D02*
G01*
X156095985Y-86131519D01*
X159631519Y-82595985D01*
X160904311Y-83868777D01*
X157368777Y-87404311D01*
G37*
G36*
X150500000Y-86550000D02*
G01*
X145500000Y-86550000D01*
X145500000Y-84750000D01*
X150500000Y-84750000D01*
X150500000Y-86550000D01*
G37*
D14*
X148000000Y-89350000D03*
D13*
G36*
X139702691Y-77776053D02*
G01*
X139723926Y-77779203D01*
X139744750Y-77784419D01*
X139764962Y-77791651D01*
X139784368Y-77800830D01*
X139802781Y-77811866D01*
X139820024Y-77824654D01*
X139835930Y-77839070D01*
X139850346Y-77854976D01*
X139863134Y-77872219D01*
X139874170Y-77890632D01*
X139883349Y-77910038D01*
X139890581Y-77930250D01*
X139895797Y-77951074D01*
X139898947Y-77972309D01*
X139900000Y-77993750D01*
X139900000Y-78506250D01*
X139898947Y-78527691D01*
X139895797Y-78548926D01*
X139890581Y-78569750D01*
X139883349Y-78589962D01*
X139874170Y-78609368D01*
X139863134Y-78627781D01*
X139850346Y-78645024D01*
X139835930Y-78660930D01*
X139820024Y-78675346D01*
X139802781Y-78688134D01*
X139784368Y-78699170D01*
X139764962Y-78708349D01*
X139744750Y-78715581D01*
X139723926Y-78720797D01*
X139702691Y-78723947D01*
X139681250Y-78725000D01*
X139243750Y-78725000D01*
X139222309Y-78723947D01*
X139201074Y-78720797D01*
X139180250Y-78715581D01*
X139160038Y-78708349D01*
X139140632Y-78699170D01*
X139122219Y-78688134D01*
X139104976Y-78675346D01*
X139089070Y-78660930D01*
X139074654Y-78645024D01*
X139061866Y-78627781D01*
X139050830Y-78609368D01*
X139041651Y-78589962D01*
X139034419Y-78569750D01*
X139029203Y-78548926D01*
X139026053Y-78527691D01*
X139025000Y-78506250D01*
X139025000Y-77993750D01*
X139026053Y-77972309D01*
X139029203Y-77951074D01*
X139034419Y-77930250D01*
X139041651Y-77910038D01*
X139050830Y-77890632D01*
X139061866Y-77872219D01*
X139074654Y-77854976D01*
X139089070Y-77839070D01*
X139104976Y-77824654D01*
X139122219Y-77811866D01*
X139140632Y-77800830D01*
X139160038Y-77791651D01*
X139180250Y-77784419D01*
X139201074Y-77779203D01*
X139222309Y-77776053D01*
X139243750Y-77775000D01*
X139681250Y-77775000D01*
X139702691Y-77776053D01*
G37*
G36*
X141277691Y-77776053D02*
G01*
X141298926Y-77779203D01*
X141319750Y-77784419D01*
X141339962Y-77791651D01*
X141359368Y-77800830D01*
X141377781Y-77811866D01*
X141395024Y-77824654D01*
X141410930Y-77839070D01*
X141425346Y-77854976D01*
X141438134Y-77872219D01*
X141449170Y-77890632D01*
X141458349Y-77910038D01*
X141465581Y-77930250D01*
X141470797Y-77951074D01*
X141473947Y-77972309D01*
X141475000Y-77993750D01*
X141475000Y-78506250D01*
X141473947Y-78527691D01*
X141470797Y-78548926D01*
X141465581Y-78569750D01*
X141458349Y-78589962D01*
X141449170Y-78609368D01*
X141438134Y-78627781D01*
X141425346Y-78645024D01*
X141410930Y-78660930D01*
X141395024Y-78675346D01*
X141377781Y-78688134D01*
X141359368Y-78699170D01*
X141339962Y-78708349D01*
X141319750Y-78715581D01*
X141298926Y-78720797D01*
X141277691Y-78723947D01*
X141256250Y-78725000D01*
X140818750Y-78725000D01*
X140797309Y-78723947D01*
X140776074Y-78720797D01*
X140755250Y-78715581D01*
X140735038Y-78708349D01*
X140715632Y-78699170D01*
X140697219Y-78688134D01*
X140679976Y-78675346D01*
X140664070Y-78660930D01*
X140649654Y-78645024D01*
X140636866Y-78627781D01*
X140625830Y-78609368D01*
X140616651Y-78589962D01*
X140609419Y-78569750D01*
X140604203Y-78548926D01*
X140601053Y-78527691D01*
X140600000Y-78506250D01*
X140600000Y-77993750D01*
X140601053Y-77972309D01*
X140604203Y-77951074D01*
X140609419Y-77930250D01*
X140616651Y-77910038D01*
X140625830Y-77890632D01*
X140636866Y-77872219D01*
X140649654Y-77854976D01*
X140664070Y-77839070D01*
X140679976Y-77824654D01*
X140697219Y-77811866D01*
X140715632Y-77800830D01*
X140735038Y-77791651D01*
X140755250Y-77784419D01*
X140776074Y-77779203D01*
X140797309Y-77776053D01*
X140818750Y-77775000D01*
X141256250Y-77775000D01*
X141277691Y-77776053D01*
G37*
G36*
X137277691Y-78776053D02*
G01*
X137298926Y-78779203D01*
X137319750Y-78784419D01*
X137339962Y-78791651D01*
X137359368Y-78800830D01*
X137377781Y-78811866D01*
X137395024Y-78824654D01*
X137410930Y-78839070D01*
X137425346Y-78854976D01*
X137438134Y-78872219D01*
X137449170Y-78890632D01*
X137458349Y-78910038D01*
X137465581Y-78930250D01*
X137470797Y-78951074D01*
X137473947Y-78972309D01*
X137475000Y-78993750D01*
X137475000Y-79506250D01*
X137473947Y-79527691D01*
X137470797Y-79548926D01*
X137465581Y-79569750D01*
X137458349Y-79589962D01*
X137449170Y-79609368D01*
X137438134Y-79627781D01*
X137425346Y-79645024D01*
X137410930Y-79660930D01*
X137395024Y-79675346D01*
X137377781Y-79688134D01*
X137359368Y-79699170D01*
X137339962Y-79708349D01*
X137319750Y-79715581D01*
X137298926Y-79720797D01*
X137277691Y-79723947D01*
X137256250Y-79725000D01*
X136818750Y-79725000D01*
X136797309Y-79723947D01*
X136776074Y-79720797D01*
X136755250Y-79715581D01*
X136735038Y-79708349D01*
X136715632Y-79699170D01*
X136697219Y-79688134D01*
X136679976Y-79675346D01*
X136664070Y-79660930D01*
X136649654Y-79645024D01*
X136636866Y-79627781D01*
X136625830Y-79609368D01*
X136616651Y-79589962D01*
X136609419Y-79569750D01*
X136604203Y-79548926D01*
X136601053Y-79527691D01*
X136600000Y-79506250D01*
X136600000Y-78993750D01*
X136601053Y-78972309D01*
X136604203Y-78951074D01*
X136609419Y-78930250D01*
X136616651Y-78910038D01*
X136625830Y-78890632D01*
X136636866Y-78872219D01*
X136649654Y-78854976D01*
X136664070Y-78839070D01*
X136679976Y-78824654D01*
X136697219Y-78811866D01*
X136715632Y-78800830D01*
X136735038Y-78791651D01*
X136755250Y-78784419D01*
X136776074Y-78779203D01*
X136797309Y-78776053D01*
X136818750Y-78775000D01*
X137256250Y-78775000D01*
X137277691Y-78776053D01*
G37*
G36*
X135702691Y-78776053D02*
G01*
X135723926Y-78779203D01*
X135744750Y-78784419D01*
X135764962Y-78791651D01*
X135784368Y-78800830D01*
X135802781Y-78811866D01*
X135820024Y-78824654D01*
X135835930Y-78839070D01*
X135850346Y-78854976D01*
X135863134Y-78872219D01*
X135874170Y-78890632D01*
X135883349Y-78910038D01*
X135890581Y-78930250D01*
X135895797Y-78951074D01*
X135898947Y-78972309D01*
X135900000Y-78993750D01*
X135900000Y-79506250D01*
X135898947Y-79527691D01*
X135895797Y-79548926D01*
X135890581Y-79569750D01*
X135883349Y-79589962D01*
X135874170Y-79609368D01*
X135863134Y-79627781D01*
X135850346Y-79645024D01*
X135835930Y-79660930D01*
X135820024Y-79675346D01*
X135802781Y-79688134D01*
X135784368Y-79699170D01*
X135764962Y-79708349D01*
X135744750Y-79715581D01*
X135723926Y-79720797D01*
X135702691Y-79723947D01*
X135681250Y-79725000D01*
X135243750Y-79725000D01*
X135222309Y-79723947D01*
X135201074Y-79720797D01*
X135180250Y-79715581D01*
X135160038Y-79708349D01*
X135140632Y-79699170D01*
X135122219Y-79688134D01*
X135104976Y-79675346D01*
X135089070Y-79660930D01*
X135074654Y-79645024D01*
X135061866Y-79627781D01*
X135050830Y-79609368D01*
X135041651Y-79589962D01*
X135034419Y-79569750D01*
X135029203Y-79548926D01*
X135026053Y-79527691D01*
X135025000Y-79506250D01*
X135025000Y-78993750D01*
X135026053Y-78972309D01*
X135029203Y-78951074D01*
X135034419Y-78930250D01*
X135041651Y-78910038D01*
X135050830Y-78890632D01*
X135061866Y-78872219D01*
X135074654Y-78854976D01*
X135089070Y-78839070D01*
X135104976Y-78824654D01*
X135122219Y-78811866D01*
X135140632Y-78800830D01*
X135160038Y-78791651D01*
X135180250Y-78784419D01*
X135201074Y-78779203D01*
X135222309Y-78776053D01*
X135243750Y-78775000D01*
X135681250Y-78775000D01*
X135702691Y-78776053D01*
G37*
G36*
X139702691Y-79776053D02*
G01*
X139723926Y-79779203D01*
X139744750Y-79784419D01*
X139764962Y-79791651D01*
X139784368Y-79800830D01*
X139802781Y-79811866D01*
X139820024Y-79824654D01*
X139835930Y-79839070D01*
X139850346Y-79854976D01*
X139863134Y-79872219D01*
X139874170Y-79890632D01*
X139883349Y-79910038D01*
X139890581Y-79930250D01*
X139895797Y-79951074D01*
X139898947Y-79972309D01*
X139900000Y-79993750D01*
X139900000Y-80506250D01*
X139898947Y-80527691D01*
X139895797Y-80548926D01*
X139890581Y-80569750D01*
X139883349Y-80589962D01*
X139874170Y-80609368D01*
X139863134Y-80627781D01*
X139850346Y-80645024D01*
X139835930Y-80660930D01*
X139820024Y-80675346D01*
X139802781Y-80688134D01*
X139784368Y-80699170D01*
X139764962Y-80708349D01*
X139744750Y-80715581D01*
X139723926Y-80720797D01*
X139702691Y-80723947D01*
X139681250Y-80725000D01*
X139243750Y-80725000D01*
X139222309Y-80723947D01*
X139201074Y-80720797D01*
X139180250Y-80715581D01*
X139160038Y-80708349D01*
X139140632Y-80699170D01*
X139122219Y-80688134D01*
X139104976Y-80675346D01*
X139089070Y-80660930D01*
X139074654Y-80645024D01*
X139061866Y-80627781D01*
X139050830Y-80609368D01*
X139041651Y-80589962D01*
X139034419Y-80569750D01*
X139029203Y-80548926D01*
X139026053Y-80527691D01*
X139025000Y-80506250D01*
X139025000Y-79993750D01*
X139026053Y-79972309D01*
X139029203Y-79951074D01*
X139034419Y-79930250D01*
X139041651Y-79910038D01*
X139050830Y-79890632D01*
X139061866Y-79872219D01*
X139074654Y-79854976D01*
X139089070Y-79839070D01*
X139104976Y-79824654D01*
X139122219Y-79811866D01*
X139140632Y-79800830D01*
X139160038Y-79791651D01*
X139180250Y-79784419D01*
X139201074Y-79779203D01*
X139222309Y-79776053D01*
X139243750Y-79775000D01*
X139681250Y-79775000D01*
X139702691Y-79776053D01*
G37*
G36*
X141277691Y-79776053D02*
G01*
X141298926Y-79779203D01*
X141319750Y-79784419D01*
X141339962Y-79791651D01*
X141359368Y-79800830D01*
X141377781Y-79811866D01*
X141395024Y-79824654D01*
X141410930Y-79839070D01*
X141425346Y-79854976D01*
X141438134Y-79872219D01*
X141449170Y-79890632D01*
X141458349Y-79910038D01*
X141465581Y-79930250D01*
X141470797Y-79951074D01*
X141473947Y-79972309D01*
X141475000Y-79993750D01*
X141475000Y-80506250D01*
X141473947Y-80527691D01*
X141470797Y-80548926D01*
X141465581Y-80569750D01*
X141458349Y-80589962D01*
X141449170Y-80609368D01*
X141438134Y-80627781D01*
X141425346Y-80645024D01*
X141410930Y-80660930D01*
X141395024Y-80675346D01*
X141377781Y-80688134D01*
X141359368Y-80699170D01*
X141339962Y-80708349D01*
X141319750Y-80715581D01*
X141298926Y-80720797D01*
X141277691Y-80723947D01*
X141256250Y-80725000D01*
X140818750Y-80725000D01*
X140797309Y-80723947D01*
X140776074Y-80720797D01*
X140755250Y-80715581D01*
X140735038Y-80708349D01*
X140715632Y-80699170D01*
X140697219Y-80688134D01*
X140679976Y-80675346D01*
X140664070Y-80660930D01*
X140649654Y-80645024D01*
X140636866Y-80627781D01*
X140625830Y-80609368D01*
X140616651Y-80589962D01*
X140609419Y-80569750D01*
X140604203Y-80548926D01*
X140601053Y-80527691D01*
X140600000Y-80506250D01*
X140600000Y-79993750D01*
X140601053Y-79972309D01*
X140604203Y-79951074D01*
X140609419Y-79930250D01*
X140616651Y-79910038D01*
X140625830Y-79890632D01*
X140636866Y-79872219D01*
X140649654Y-79854976D01*
X140664070Y-79839070D01*
X140679976Y-79824654D01*
X140697219Y-79811866D01*
X140715632Y-79800830D01*
X140735038Y-79791651D01*
X140755250Y-79784419D01*
X140776074Y-79779203D01*
X140797309Y-79776053D01*
X140818750Y-79775000D01*
X141256250Y-79775000D01*
X141277691Y-79776053D01*
G37*
M02*
