M48
; DRILL file {KiCad (5.1.5-0)} date Tuesday, January 19, 2021 at 02:56:53 PM
; FORMAT={-:-/ absolute / inch / decimal}
; #@! TF.CreationDate,2021-01-19T14:56:53-08:00
; #@! TF.GenerationSoftware,Kicad,Pcbnew,(5.1.5-0)
; #@! TF.FileFunction,Plated,1,4,PTH
FMAT,2
INCH
T1C0.0079
T2C0.0130
T3C0.0394
T4C0.0400
T5C0.0402
T6C0.0591
%
G90
G05
T1
X4.7933Y-3.435
X5.1378Y-3.6024
X5.374Y-3.189
X5.374Y-3.5138
X5.4035Y-3.189
X5.4134Y-3.5138
X5.4528Y-3.5138
X5.4921Y-3.0315
X5.4921Y-3.5138
X5.5413Y-3.1988
X5.5413Y-3.5138
X5.5709Y-3.1988
X5.5709Y-3.5138
X5.5807Y-3.9173
X5.6496Y-3.8484
X5.7185Y-3.7894
X5.8268Y-3.6024
X5.9154Y-3.7008
X6.1516Y-2.8346
X6.1516Y-3.4449
X6.2402Y-2.6181
X6.2795Y-3.8091
X6.3583Y-2.8839
T2
X5.4134Y-3.3169
X5.4134Y-3.376
X5.4724Y-3.3169
X5.4724Y-3.376
X5.5315Y-3.3169
X5.5315Y-3.376
T3
X4.5223Y-4.0447
X4.5223Y-4.1447
X4.6223Y-4.0447
X4.6223Y-4.1447
X4.7223Y-4.0447
X4.7223Y-4.1447
X4.8223Y-4.0447
X4.8223Y-4.1447
X4.9223Y-4.0447
X4.9223Y-4.1447
X5.0223Y-4.0447
X5.0223Y-4.1447
X5.1223Y-4.0447
X5.1223Y-4.1447
X5.2223Y-4.0447
X5.2223Y-4.1447
X5.3223Y-4.0447
X5.3223Y-4.1447
X5.4223Y-4.0447
X5.4223Y-4.1447
X5.5223Y-4.0447
X5.5223Y-4.1447
X5.6223Y-4.0447
X5.6223Y-4.1447
X5.7223Y-4.0447
X5.7223Y-4.1447
X5.8223Y-4.0447
X5.8223Y-4.1447
X5.9223Y-4.0447
X5.9223Y-4.1447
X6.0223Y-4.0447
X6.0223Y-4.1447
X6.1223Y-4.0447
X6.1223Y-4.1447
X6.2223Y-4.0447
X6.2223Y-4.1447
X6.3223Y-4.0447
X6.3223Y-4.1447
X6.4223Y-4.0447
X6.4223Y-4.1447
T4
X4.3012Y-2.815
X4.3012Y-2.9921
X4.3012Y-3.248
X4.3012Y-3.4252
X4.3012Y-3.6811
X4.3012Y-3.8583
T5
X6.5354Y-3.5531
X6.6354Y-3.5531
T6
X4.3996Y-2.7657
X4.3996Y-3.0413
X4.3996Y-3.1988
X4.3996Y-3.4744
X4.3996Y-3.6319
X4.3996Y-3.9075
T0
M30
