G04 #@! TF.GenerationSoftware,KiCad,Pcbnew,(5.1.5-0)*
G04 #@! TF.CreationDate,2020-10-28T23:32:55-07:00*
G04 #@! TF.ProjectId,Luminometer_RPi,4c756d69-6e6f-46d6-9574-65725f525069,rev?*
G04 #@! TF.SameCoordinates,Original*
G04 #@! TF.FileFunction,Soldermask,Bot*
G04 #@! TF.FilePolarity,Negative*
%FSLAX46Y46*%
G04 Gerber Fmt 4.6, Leading zero omitted, Abs format (unit mm)*
G04 Created by KiCad (PCBNEW (5.1.5-0)) date 2020-10-28 23:32:55*
%MOMM*%
%LPD*%
G04 APERTURE LIST*
%ADD10C,0.150000*%
%ADD11C,2.900000*%
%ADD12C,2.700000*%
%ADD13C,1.800000*%
%ADD14R,1.400000X2.700000*%
%ADD15R,1.000000X1.300000*%
%ADD16O,1.900000X1.900000*%
%ADD17R,1.900000X1.900000*%
%ADD18C,1.100000*%
%ADD19R,2.000000X0.950000*%
%ADD20R,1.100000X1.500000*%
%ADD21R,2.000000X0.800000*%
%ADD22C,3.400000*%
%ADD23C,2.400000*%
G04 APERTURE END LIST*
D10*
X109500000Y-111500000D02*
G75*
G02X106500000Y-108500000I0J3000000D01*
G01*
X171500000Y-108500000D02*
G75*
G02X168500000Y-111500000I-3000000J0D01*
G01*
X168500000Y-61500000D02*
G75*
G02X171500000Y-64500000I0J-3000000D01*
G01*
X106500000Y-64500000D02*
G75*
G02X109500000Y-61500000I3000000J0D01*
G01*
X106500000Y-108500000D02*
X106500000Y-64500000D01*
X168500000Y-111500000D02*
X109500000Y-111500000D01*
X171500000Y-64500000D02*
X171500000Y-108500000D01*
X109500000Y-61500000D02*
X168500000Y-61500000D01*
D11*
X168000000Y-65000000D03*
D12*
X134000000Y-95000000D03*
D13*
X163700000Y-67600000D03*
X152930000Y-67600000D03*
D14*
X152615000Y-64850000D03*
X164015000Y-64850000D03*
X164015000Y-70350000D03*
X152615000Y-70350000D03*
D15*
X155140000Y-64850000D03*
X156410000Y-64850000D03*
X157680000Y-64850000D03*
X161490000Y-70350000D03*
X160220000Y-70350000D03*
X155140000Y-70350000D03*
X158950000Y-64850000D03*
X160220000Y-64850000D03*
X161490000Y-64850000D03*
X156410000Y-70350000D03*
X157680000Y-70350000D03*
X158950000Y-70350000D03*
D16*
X114939900Y-89278000D03*
X114939900Y-86738000D03*
X117479900Y-89278000D03*
X117479900Y-86738000D03*
X120019900Y-89278000D03*
X120019900Y-86738000D03*
X122559900Y-89278000D03*
X122559900Y-86738000D03*
X125099900Y-89278000D03*
X125099900Y-86738000D03*
X127639900Y-89278000D03*
X127639900Y-86738000D03*
X130179900Y-89278000D03*
X130179900Y-86738000D03*
X132719900Y-89278000D03*
X132719900Y-86738000D03*
X135259900Y-89278000D03*
X135259900Y-86738000D03*
X137799900Y-89278000D03*
X137799900Y-86738000D03*
X140339900Y-89278000D03*
X140339900Y-86738000D03*
X142879900Y-89278000D03*
X142879900Y-86738000D03*
X145419900Y-89278000D03*
X145419900Y-86738000D03*
X147959900Y-89278000D03*
X147959900Y-86738000D03*
X150499900Y-89278000D03*
X150499900Y-86738000D03*
X153039900Y-89278000D03*
X153039900Y-86738000D03*
X155579900Y-89278000D03*
X155579900Y-86738000D03*
X158119900Y-89278000D03*
X158119900Y-86738000D03*
X160659900Y-89278000D03*
X160659900Y-86738000D03*
X163199900Y-89278000D03*
D17*
X163199900Y-86738000D03*
D18*
X108180000Y-97900000D03*
D19*
X109080000Y-98800000D03*
D20*
X107130000Y-98175000D03*
D18*
X108180000Y-102150000D03*
D20*
X107130000Y-101875000D03*
D21*
X109080000Y-100025000D03*
D19*
X109080000Y-101250000D03*
D18*
X108180000Y-85900000D03*
D19*
X109080000Y-86800000D03*
D20*
X107130000Y-86175000D03*
D18*
X108180000Y-90150000D03*
D20*
X107130000Y-89875000D03*
D21*
X109080000Y-88025000D03*
D19*
X109080000Y-89250000D03*
D18*
X108180000Y-73900000D03*
D19*
X109080000Y-74800000D03*
D20*
X107130000Y-74175000D03*
D18*
X108180000Y-78150000D03*
D20*
X107130000Y-77875000D03*
D21*
X109080000Y-76025000D03*
D19*
X109080000Y-77250000D03*
D22*
X166500000Y-106500000D03*
D23*
X138000000Y-71500000D03*
D12*
X143000000Y-66500000D03*
D22*
X111500000Y-106500000D03*
D23*
X130000000Y-71500000D03*
D12*
X125000000Y-66500000D03*
D22*
X111500000Y-66500000D03*
M02*
