G04 #@! TF.GenerationSoftware,KiCad,Pcbnew,(5.1.9-0-10_14)*
G04 #@! TF.CreationDate,2021-05-06T16:16:17-07:00*
G04 #@! TF.ProjectId,Luminometer_RPi,4c756d69-6e6f-46d6-9574-65725f525069,rev?*
G04 #@! TF.SameCoordinates,Original*
G04 #@! TF.FileFunction,Paste,Top*
G04 #@! TF.FilePolarity,Positive*
%FSLAX46Y46*%
G04 Gerber Fmt 4.6, Leading zero omitted, Abs format (unit mm)*
G04 Created by KiCad (PCBNEW (5.1.9-0-10_14)) date 2021-05-06 16:16:17*
%MOMM*%
%LPD*%
G01*
G04 APERTURE LIST*
G04 #@! TA.AperFunction,Profile*
%ADD10C,0.150000*%
G04 #@! TD*
%ADD11R,1.600000X0.300000*%
%ADD12R,2.460000X2.310000*%
%ADD13R,1.060000X0.650000*%
%ADD14R,1.300000X0.600000*%
%ADD15R,3.400000X1.300000*%
G04 APERTURE END LIST*
D10*
X178000000Y-71250000D02*
G75*
G02*
X181000000Y-74250000I0J-3000000D01*
G01*
X181000000Y-74250000D02*
X180989637Y-108750000D01*
X174500000Y-71250000D02*
X178000000Y-71250000D01*
X174500000Y-71250000D02*
G75*
G02*
X171500000Y-68250000I0J3000000D01*
G01*
X171500000Y-64500000D02*
X171500000Y-68250000D01*
X168500000Y-61500000D02*
G75*
G02*
X171500000Y-64500000I0J-3000000D01*
G01*
X108750000Y-111500000D02*
G75*
G02*
X105750000Y-108500000I0J3000000D01*
G01*
X180989637Y-108749136D02*
G75*
G02*
X178000000Y-111500000I-2989637J249136D01*
G01*
X105750000Y-64500000D02*
G75*
G02*
X108750000Y-61500000I3000000J0D01*
G01*
X105750000Y-108500000D02*
X105750000Y-64500000D01*
X178000000Y-111500000D02*
X108750000Y-111500000D01*
X108750000Y-61500000D02*
X168500000Y-61500000D01*
G36*
G01*
X131400000Y-95175000D02*
X131900000Y-95175000D01*
G75*
G02*
X132125000Y-95400000I0J-225000D01*
G01*
X132125000Y-95850000D01*
G75*
G02*
X131900000Y-96075000I-225000J0D01*
G01*
X131400000Y-96075000D01*
G75*
G02*
X131175000Y-95850000I0J225000D01*
G01*
X131175000Y-95400000D01*
G75*
G02*
X131400000Y-95175000I225000J0D01*
G01*
G37*
G36*
G01*
X131400000Y-93625000D02*
X131900000Y-93625000D01*
G75*
G02*
X132125000Y-93850000I0J-225000D01*
G01*
X132125000Y-94300000D01*
G75*
G02*
X131900000Y-94525000I-225000J0D01*
G01*
X131400000Y-94525000D01*
G75*
G02*
X131175000Y-94300000I0J225000D01*
G01*
X131175000Y-93850000D01*
G75*
G02*
X131400000Y-93625000I225000J0D01*
G01*
G37*
G36*
G01*
X133275000Y-98475000D02*
X132775000Y-98475000D01*
G75*
G02*
X132550000Y-98250000I0J225000D01*
G01*
X132550000Y-97800000D01*
G75*
G02*
X132775000Y-97575000I225000J0D01*
G01*
X133275000Y-97575000D01*
G75*
G02*
X133500000Y-97800000I0J-225000D01*
G01*
X133500000Y-98250000D01*
G75*
G02*
X133275000Y-98475000I-225000J0D01*
G01*
G37*
G36*
G01*
X133275000Y-100025000D02*
X132775000Y-100025000D01*
G75*
G02*
X132550000Y-99800000I0J225000D01*
G01*
X132550000Y-99350000D01*
G75*
G02*
X132775000Y-99125000I225000J0D01*
G01*
X133275000Y-99125000D01*
G75*
G02*
X133500000Y-99350000I0J-225000D01*
G01*
X133500000Y-99800000D01*
G75*
G02*
X133275000Y-100025000I-225000J0D01*
G01*
G37*
D11*
X129075000Y-95925000D03*
X129075000Y-96575000D03*
X129075000Y-97225000D03*
X129075000Y-97875000D03*
X129075000Y-98525000D03*
X129075000Y-99175000D03*
X129075000Y-99825000D03*
X123475000Y-99825000D03*
X123475000Y-99175000D03*
X123475000Y-98525000D03*
X123475000Y-97875000D03*
X123475000Y-97225000D03*
X123475000Y-96575000D03*
X123475000Y-95925000D03*
X129075000Y-95275000D03*
D12*
X126275000Y-97550000D03*
D11*
X123475000Y-95275000D03*
G36*
G01*
X145775000Y-98500000D02*
X145775000Y-98000000D01*
G75*
G02*
X146000000Y-97775000I225000J0D01*
G01*
X146450000Y-97775000D01*
G75*
G02*
X146675000Y-98000000I0J-225000D01*
G01*
X146675000Y-98500000D01*
G75*
G02*
X146450000Y-98725000I-225000J0D01*
G01*
X146000000Y-98725000D01*
G75*
G02*
X145775000Y-98500000I0J225000D01*
G01*
G37*
G36*
G01*
X144225000Y-98500000D02*
X144225000Y-98000000D01*
G75*
G02*
X144450000Y-97775000I225000J0D01*
G01*
X144900000Y-97775000D01*
G75*
G02*
X145125000Y-98000000I0J-225000D01*
G01*
X145125000Y-98500000D01*
G75*
G02*
X144900000Y-98725000I-225000J0D01*
G01*
X144450000Y-98725000D01*
G75*
G02*
X144225000Y-98500000I0J225000D01*
G01*
G37*
G36*
G01*
X150325000Y-93250000D02*
X150325000Y-92750000D01*
G75*
G02*
X150550000Y-92525000I225000J0D01*
G01*
X151000000Y-92525000D01*
G75*
G02*
X151225000Y-92750000I0J-225000D01*
G01*
X151225000Y-93250000D01*
G75*
G02*
X151000000Y-93475000I-225000J0D01*
G01*
X150550000Y-93475000D01*
G75*
G02*
X150325000Y-93250000I0J225000D01*
G01*
G37*
G36*
G01*
X148775000Y-93250000D02*
X148775000Y-92750000D01*
G75*
G02*
X149000000Y-92525000I225000J0D01*
G01*
X149450000Y-92525000D01*
G75*
G02*
X149675000Y-92750000I0J-225000D01*
G01*
X149675000Y-93250000D01*
G75*
G02*
X149450000Y-93475000I-225000J0D01*
G01*
X149000000Y-93475000D01*
G75*
G02*
X148775000Y-93250000I0J225000D01*
G01*
G37*
G36*
G01*
X162175000Y-66975000D02*
X161625000Y-66975000D01*
G75*
G02*
X161425000Y-66775000I0J200000D01*
G01*
X161425000Y-66375000D01*
G75*
G02*
X161625000Y-66175000I200000J0D01*
G01*
X162175000Y-66175000D01*
G75*
G02*
X162375000Y-66375000I0J-200000D01*
G01*
X162375000Y-66775000D01*
G75*
G02*
X162175000Y-66975000I-200000J0D01*
G01*
G37*
G36*
G01*
X162175000Y-68625000D02*
X161625000Y-68625000D01*
G75*
G02*
X161425000Y-68425000I0J200000D01*
G01*
X161425000Y-68025000D01*
G75*
G02*
X161625000Y-67825000I200000J0D01*
G01*
X162175000Y-67825000D01*
G75*
G02*
X162375000Y-68025000I0J-200000D01*
G01*
X162375000Y-68425000D01*
G75*
G02*
X162175000Y-68625000I-200000J0D01*
G01*
G37*
G36*
G01*
X146700000Y-93675000D02*
X146200000Y-93675000D01*
G75*
G02*
X145975000Y-93450000I0J225000D01*
G01*
X145975000Y-93000000D01*
G75*
G02*
X146200000Y-92775000I225000J0D01*
G01*
X146700000Y-92775000D01*
G75*
G02*
X146925000Y-93000000I0J-225000D01*
G01*
X146925000Y-93450000D01*
G75*
G02*
X146700000Y-93675000I-225000J0D01*
G01*
G37*
G36*
G01*
X146700000Y-95225000D02*
X146200000Y-95225000D01*
G75*
G02*
X145975000Y-95000000I0J225000D01*
G01*
X145975000Y-94550000D01*
G75*
G02*
X146200000Y-94325000I225000J0D01*
G01*
X146700000Y-94325000D01*
G75*
G02*
X146925000Y-94550000I0J-225000D01*
G01*
X146925000Y-95000000D01*
G75*
G02*
X146700000Y-95225000I-225000J0D01*
G01*
G37*
G36*
G01*
X151625000Y-102000000D02*
X151625000Y-102500000D01*
G75*
G02*
X151400000Y-102725000I-225000J0D01*
G01*
X150950000Y-102725000D01*
G75*
G02*
X150725000Y-102500000I0J225000D01*
G01*
X150725000Y-102000000D01*
G75*
G02*
X150950000Y-101775000I225000J0D01*
G01*
X151400000Y-101775000D01*
G75*
G02*
X151625000Y-102000000I0J-225000D01*
G01*
G37*
G36*
G01*
X153175000Y-102000000D02*
X153175000Y-102500000D01*
G75*
G02*
X152950000Y-102725000I-225000J0D01*
G01*
X152500000Y-102725000D01*
G75*
G02*
X152275000Y-102500000I0J225000D01*
G01*
X152275000Y-102000000D01*
G75*
G02*
X152500000Y-101775000I225000J0D01*
G01*
X152950000Y-101775000D01*
G75*
G02*
X153175000Y-102000000I0J-225000D01*
G01*
G37*
G36*
G01*
X144275000Y-95075000D02*
X144275000Y-94525000D01*
G75*
G02*
X144475000Y-94325000I200000J0D01*
G01*
X144875000Y-94325000D01*
G75*
G02*
X145075000Y-94525000I0J-200000D01*
G01*
X145075000Y-95075000D01*
G75*
G02*
X144875000Y-95275000I-200000J0D01*
G01*
X144475000Y-95275000D01*
G75*
G02*
X144275000Y-95075000I0J200000D01*
G01*
G37*
G36*
G01*
X142625000Y-95075000D02*
X142625000Y-94525000D01*
G75*
G02*
X142825000Y-94325000I200000J0D01*
G01*
X143225000Y-94325000D01*
G75*
G02*
X143425000Y-94525000I0J-200000D01*
G01*
X143425000Y-95075000D01*
G75*
G02*
X143225000Y-95275000I-200000J0D01*
G01*
X142825000Y-95275000D01*
G75*
G02*
X142625000Y-95075000I0J200000D01*
G01*
G37*
G36*
G01*
X147925000Y-101675000D02*
X148475000Y-101675000D01*
G75*
G02*
X148675000Y-101875000I0J-200000D01*
G01*
X148675000Y-102275000D01*
G75*
G02*
X148475000Y-102475000I-200000J0D01*
G01*
X147925000Y-102475000D01*
G75*
G02*
X147725000Y-102275000I0J200000D01*
G01*
X147725000Y-101875000D01*
G75*
G02*
X147925000Y-101675000I200000J0D01*
G01*
G37*
G36*
G01*
X147925000Y-100025000D02*
X148475000Y-100025000D01*
G75*
G02*
X148675000Y-100225000I0J-200000D01*
G01*
X148675000Y-100625000D01*
G75*
G02*
X148475000Y-100825000I-200000J0D01*
G01*
X147925000Y-100825000D01*
G75*
G02*
X147725000Y-100625000I0J200000D01*
G01*
X147725000Y-100225000D01*
G75*
G02*
X147925000Y-100025000I200000J0D01*
G01*
G37*
D13*
X148350000Y-95750000D03*
X148350000Y-96700000D03*
X148350000Y-94800000D03*
X150550000Y-94800000D03*
X150550000Y-95750000D03*
X150550000Y-96700000D03*
G36*
G01*
X131600000Y-98475000D02*
X131100000Y-98475000D01*
G75*
G02*
X130875000Y-98250000I0J225000D01*
G01*
X130875000Y-97800000D01*
G75*
G02*
X131100000Y-97575000I225000J0D01*
G01*
X131600000Y-97575000D01*
G75*
G02*
X131825000Y-97800000I0J-225000D01*
G01*
X131825000Y-98250000D01*
G75*
G02*
X131600000Y-98475000I-225000J0D01*
G01*
G37*
G36*
G01*
X131600000Y-100025000D02*
X131100000Y-100025000D01*
G75*
G02*
X130875000Y-99800000I0J225000D01*
G01*
X130875000Y-99350000D01*
G75*
G02*
X131100000Y-99125000I225000J0D01*
G01*
X131600000Y-99125000D01*
G75*
G02*
X131825000Y-99350000I0J-225000D01*
G01*
X131825000Y-99800000D01*
G75*
G02*
X131600000Y-100025000I-225000J0D01*
G01*
G37*
D14*
X159150000Y-68400000D03*
X159150000Y-66500000D03*
X157050000Y-67450000D03*
X126700000Y-107050000D03*
X126700000Y-105150000D03*
X124600000Y-106100000D03*
D15*
X154700000Y-95950000D03*
X154700000Y-98050000D03*
G36*
G01*
X160375000Y-98700000D02*
X160375000Y-98200000D01*
G75*
G02*
X160600000Y-97975000I225000J0D01*
G01*
X161050000Y-97975000D01*
G75*
G02*
X161275000Y-98200000I0J-225000D01*
G01*
X161275000Y-98700000D01*
G75*
G02*
X161050000Y-98925000I-225000J0D01*
G01*
X160600000Y-98925000D01*
G75*
G02*
X160375000Y-98700000I0J225000D01*
G01*
G37*
G36*
G01*
X158825000Y-98700000D02*
X158825000Y-98200000D01*
G75*
G02*
X159050000Y-97975000I225000J0D01*
G01*
X159500000Y-97975000D01*
G75*
G02*
X159725000Y-98200000I0J-225000D01*
G01*
X159725000Y-98700000D01*
G75*
G02*
X159500000Y-98925000I-225000J0D01*
G01*
X159050000Y-98925000D01*
G75*
G02*
X158825000Y-98700000I0J225000D01*
G01*
G37*
G36*
G01*
X161150000Y-93275000D02*
X160650000Y-93275000D01*
G75*
G02*
X160425000Y-93050000I0J225000D01*
G01*
X160425000Y-92600000D01*
G75*
G02*
X160650000Y-92375000I225000J0D01*
G01*
X161150000Y-92375000D01*
G75*
G02*
X161375000Y-92600000I0J-225000D01*
G01*
X161375000Y-93050000D01*
G75*
G02*
X161150000Y-93275000I-225000J0D01*
G01*
G37*
G36*
G01*
X161150000Y-94825000D02*
X160650000Y-94825000D01*
G75*
G02*
X160425000Y-94600000I0J225000D01*
G01*
X160425000Y-94150000D01*
G75*
G02*
X160650000Y-93925000I225000J0D01*
G01*
X161150000Y-93925000D01*
G75*
G02*
X161375000Y-94150000I0J-225000D01*
G01*
X161375000Y-94600000D01*
G75*
G02*
X161150000Y-94825000I-225000J0D01*
G01*
G37*
G36*
G01*
X166425000Y-102300000D02*
X166425000Y-102800000D01*
G75*
G02*
X166200000Y-103025000I-225000J0D01*
G01*
X165750000Y-103025000D01*
G75*
G02*
X165525000Y-102800000I0J225000D01*
G01*
X165525000Y-102300000D01*
G75*
G02*
X165750000Y-102075000I225000J0D01*
G01*
X166200000Y-102075000D01*
G75*
G02*
X166425000Y-102300000I0J-225000D01*
G01*
G37*
G36*
G01*
X167975000Y-102300000D02*
X167975000Y-102800000D01*
G75*
G02*
X167750000Y-103025000I-225000J0D01*
G01*
X167300000Y-103025000D01*
G75*
G02*
X167075000Y-102800000I0J225000D01*
G01*
X167075000Y-102300000D01*
G75*
G02*
X167300000Y-102075000I225000J0D01*
G01*
X167750000Y-102075000D01*
G75*
G02*
X167975000Y-102300000I0J-225000D01*
G01*
G37*
X168750000Y-96000000D03*
X168750000Y-98100000D03*
G36*
G01*
X158875000Y-94625000D02*
X158875000Y-94075000D01*
G75*
G02*
X159075000Y-93875000I200000J0D01*
G01*
X159475000Y-93875000D01*
G75*
G02*
X159675000Y-94075000I0J-200000D01*
G01*
X159675000Y-94625000D01*
G75*
G02*
X159475000Y-94825000I-200000J0D01*
G01*
X159075000Y-94825000D01*
G75*
G02*
X158875000Y-94625000I0J200000D01*
G01*
G37*
G36*
G01*
X157225000Y-94625000D02*
X157225000Y-94075000D01*
G75*
G02*
X157425000Y-93875000I200000J0D01*
G01*
X157825000Y-93875000D01*
G75*
G02*
X158025000Y-94075000I0J-200000D01*
G01*
X158025000Y-94625000D01*
G75*
G02*
X157825000Y-94825000I-200000J0D01*
G01*
X157425000Y-94825000D01*
G75*
G02*
X157225000Y-94625000I0J200000D01*
G01*
G37*
G36*
G01*
X162475000Y-101975000D02*
X163025000Y-101975000D01*
G75*
G02*
X163225000Y-102175000I0J-200000D01*
G01*
X163225000Y-102575000D01*
G75*
G02*
X163025000Y-102775000I-200000J0D01*
G01*
X162475000Y-102775000D01*
G75*
G02*
X162275000Y-102575000I0J200000D01*
G01*
X162275000Y-102175000D01*
G75*
G02*
X162475000Y-101975000I200000J0D01*
G01*
G37*
G36*
G01*
X162475000Y-100325000D02*
X163025000Y-100325000D01*
G75*
G02*
X163225000Y-100525000I0J-200000D01*
G01*
X163225000Y-100925000D01*
G75*
G02*
X163025000Y-101125000I-200000J0D01*
G01*
X162475000Y-101125000D01*
G75*
G02*
X162275000Y-100925000I0J200000D01*
G01*
X162275000Y-100525000D01*
G75*
G02*
X162475000Y-100325000I200000J0D01*
G01*
G37*
D13*
X162750000Y-95650000D03*
X162750000Y-96600000D03*
X162750000Y-94700000D03*
X164950000Y-94700000D03*
X164950000Y-95650000D03*
X164950000Y-96600000D03*
G36*
G01*
X150325000Y-91500000D02*
X150325000Y-91000000D01*
G75*
G02*
X150550000Y-90775000I225000J0D01*
G01*
X151000000Y-90775000D01*
G75*
G02*
X151225000Y-91000000I0J-225000D01*
G01*
X151225000Y-91500000D01*
G75*
G02*
X151000000Y-91725000I-225000J0D01*
G01*
X150550000Y-91725000D01*
G75*
G02*
X150325000Y-91500000I0J225000D01*
G01*
G37*
G36*
G01*
X148775000Y-91500000D02*
X148775000Y-91000000D01*
G75*
G02*
X149000000Y-90775000I225000J0D01*
G01*
X149450000Y-90775000D01*
G75*
G02*
X149675000Y-91000000I0J-225000D01*
G01*
X149675000Y-91500000D01*
G75*
G02*
X149450000Y-91725000I-225000J0D01*
G01*
X149000000Y-91725000D01*
G75*
G02*
X148775000Y-91500000I0J225000D01*
G01*
G37*
G36*
G01*
X164575000Y-91400000D02*
X164575000Y-90900000D01*
G75*
G02*
X164800000Y-90675000I225000J0D01*
G01*
X165250000Y-90675000D01*
G75*
G02*
X165475000Y-90900000I0J-225000D01*
G01*
X165475000Y-91400000D01*
G75*
G02*
X165250000Y-91625000I-225000J0D01*
G01*
X164800000Y-91625000D01*
G75*
G02*
X164575000Y-91400000I0J225000D01*
G01*
G37*
G36*
G01*
X163025000Y-91400000D02*
X163025000Y-90900000D01*
G75*
G02*
X163250000Y-90675000I225000J0D01*
G01*
X163700000Y-90675000D01*
G75*
G02*
X163925000Y-90900000I0J-225000D01*
G01*
X163925000Y-91400000D01*
G75*
G02*
X163700000Y-91625000I-225000J0D01*
G01*
X163250000Y-91625000D01*
G75*
G02*
X163025000Y-91400000I0J225000D01*
G01*
G37*
G36*
G01*
X164575000Y-93150000D02*
X164575000Y-92650000D01*
G75*
G02*
X164800000Y-92425000I225000J0D01*
G01*
X165250000Y-92425000D01*
G75*
G02*
X165475000Y-92650000I0J-225000D01*
G01*
X165475000Y-93150000D01*
G75*
G02*
X165250000Y-93375000I-225000J0D01*
G01*
X164800000Y-93375000D01*
G75*
G02*
X164575000Y-93150000I0J225000D01*
G01*
G37*
G36*
G01*
X163025000Y-93150000D02*
X163025000Y-92650000D01*
G75*
G02*
X163250000Y-92425000I225000J0D01*
G01*
X163700000Y-92425000D01*
G75*
G02*
X163925000Y-92650000I0J-225000D01*
G01*
X163925000Y-93150000D01*
G75*
G02*
X163700000Y-93375000I-225000J0D01*
G01*
X163250000Y-93375000D01*
G75*
G02*
X163025000Y-93150000I0J225000D01*
G01*
G37*
G36*
G01*
X128725000Y-106725000D02*
X129275000Y-106725000D01*
G75*
G02*
X129475000Y-106925000I0J-200000D01*
G01*
X129475000Y-107325000D01*
G75*
G02*
X129275000Y-107525000I-200000J0D01*
G01*
X128725000Y-107525000D01*
G75*
G02*
X128525000Y-107325000I0J200000D01*
G01*
X128525000Y-106925000D01*
G75*
G02*
X128725000Y-106725000I200000J0D01*
G01*
G37*
G36*
G01*
X128725000Y-105075000D02*
X129275000Y-105075000D01*
G75*
G02*
X129475000Y-105275000I0J-200000D01*
G01*
X129475000Y-105675000D01*
G75*
G02*
X129275000Y-105875000I-200000J0D01*
G01*
X128725000Y-105875000D01*
G75*
G02*
X128525000Y-105675000I0J200000D01*
G01*
X128525000Y-105275000D01*
G75*
G02*
X128725000Y-105075000I200000J0D01*
G01*
G37*
G36*
G01*
X157975000Y-89475000D02*
X157425000Y-89475000D01*
G75*
G02*
X157225000Y-89275000I0J200000D01*
G01*
X157225000Y-88875000D01*
G75*
G02*
X157425000Y-88675000I200000J0D01*
G01*
X157975000Y-88675000D01*
G75*
G02*
X158175000Y-88875000I0J-200000D01*
G01*
X158175000Y-89275000D01*
G75*
G02*
X157975000Y-89475000I-200000J0D01*
G01*
G37*
G36*
G01*
X157975000Y-91125000D02*
X157425000Y-91125000D01*
G75*
G02*
X157225000Y-90925000I0J200000D01*
G01*
X157225000Y-90525000D01*
G75*
G02*
X157425000Y-90325000I200000J0D01*
G01*
X157975000Y-90325000D01*
G75*
G02*
X158175000Y-90525000I0J-200000D01*
G01*
X158175000Y-90925000D01*
G75*
G02*
X157975000Y-91125000I-200000J0D01*
G01*
G37*
G36*
G01*
X137825000Y-89875000D02*
X137825000Y-89325000D01*
G75*
G02*
X138025000Y-89125000I200000J0D01*
G01*
X138425000Y-89125000D01*
G75*
G02*
X138625000Y-89325000I0J-200000D01*
G01*
X138625000Y-89875000D01*
G75*
G02*
X138425000Y-90075000I-200000J0D01*
G01*
X138025000Y-90075000D01*
G75*
G02*
X137825000Y-89875000I0J200000D01*
G01*
G37*
G36*
G01*
X136175000Y-89875000D02*
X136175000Y-89325000D01*
G75*
G02*
X136375000Y-89125000I200000J0D01*
G01*
X136775000Y-89125000D01*
G75*
G02*
X136975000Y-89325000I0J-200000D01*
G01*
X136975000Y-89875000D01*
G75*
G02*
X136775000Y-90075000I-200000J0D01*
G01*
X136375000Y-90075000D01*
G75*
G02*
X136175000Y-89875000I0J200000D01*
G01*
G37*
M02*
