M48
; DRILL file {KiCad (5.1.5-0)} date Wednesday, October 28, 2020 at 11:11:21 PM
; FORMAT={-:-/ absolute / inch / decimal}
; #@! TF.CreationDate,2020-10-28T23:11:21-07:00
; #@! TF.GenerationSoftware,Kicad,Pcbnew,(5.1.5-0)
; #@! TF.FileFunction,Plated,1,4,PTH
FMAT,2
INCH
T1C0.0079
T2C0.0394
%
G90
G05
T1
X4.3625Y-3.51
X6.1075Y-2.942
X6.15Y-2.91
X6.2Y-2.86
X6.25Y-2.82
X6.2795Y-2.715
X6.305Y-2.835
X6.31Y-2.62
X6.3583Y-2.6181
T2
X4.5252Y-3.4149
X4.5252Y-3.5149
X4.6252Y-3.4149
X4.6252Y-3.5149
X4.7252Y-3.4149
X4.7252Y-3.5149
X4.8252Y-3.4149
X4.8252Y-3.5149
X4.9252Y-3.4149
X4.9252Y-3.5149
X5.0252Y-3.4149
X5.0252Y-3.5149
X5.1252Y-3.4149
X5.1252Y-3.5149
X5.2252Y-3.4149
X5.2252Y-3.5149
X5.3252Y-3.4149
X5.3252Y-3.5149
X5.4252Y-3.4149
X5.4252Y-3.5149
X5.5252Y-3.4149
X5.5252Y-3.5149
X5.6252Y-3.4149
X5.6252Y-3.5149
X5.7252Y-3.4149
X5.7252Y-3.5149
X5.8252Y-3.4149
X5.8252Y-3.5149
X5.9252Y-3.4149
X5.9252Y-3.5149
X6.0252Y-3.4149
X6.0252Y-3.5149
X6.1252Y-3.4149
X6.1252Y-3.5149
X6.2252Y-3.4149
X6.2252Y-3.5149
X6.3252Y-3.4149
X6.3252Y-3.5149
X6.4252Y-3.4149
X6.4252Y-3.5149
T0
M30
