G04 #@! TF.GenerationSoftware,KiCad,Pcbnew,(5.1.9-0-10_14)*
G04 #@! TF.CreationDate,2021-05-06T16:16:17-07:00*
G04 #@! TF.ProjectId,Luminometer_RPi,4c756d69-6e6f-46d6-9574-65725f525069,rev?*
G04 #@! TF.SameCoordinates,Original*
G04 #@! TF.FileFunction,Legend,Bot*
G04 #@! TF.FilePolarity,Positive*
%FSLAX46Y46*%
G04 Gerber Fmt 4.6, Leading zero omitted, Abs format (unit mm)*
G04 Created by KiCad (PCBNEW (5.1.9-0-10_14)) date 2021-05-06 16:16:17*
%MOMM*%
%LPD*%
G01*
G04 APERTURE LIST*
G04 #@! TA.AperFunction,Profile*
%ADD10C,0.150000*%
G04 #@! TD*
%ADD11C,0.120000*%
%ADD12C,0.100000*%
%ADD13C,0.150000*%
G04 APERTURE END LIST*
D10*
X178000000Y-71250000D02*
G75*
G02*
X181000000Y-74250000I0J-3000000D01*
G01*
X181000000Y-74250000D02*
X180989637Y-108750000D01*
X174500000Y-71250000D02*
X178000000Y-71250000D01*
X174500000Y-71250000D02*
G75*
G02*
X171500000Y-68250000I0J3000000D01*
G01*
X171500000Y-64500000D02*
X171500000Y-68250000D01*
X168500000Y-61500000D02*
G75*
G02*
X171500000Y-64500000I0J-3000000D01*
G01*
X108750000Y-111500000D02*
G75*
G02*
X105750000Y-108500000I0J3000000D01*
G01*
X180989637Y-108749136D02*
G75*
G02*
X178000000Y-111500000I-2989637J249136D01*
G01*
X105750000Y-64500000D02*
G75*
G02*
X108750000Y-61500000I3000000J0D01*
G01*
X105750000Y-108500000D02*
X105750000Y-64500000D01*
X178000000Y-111500000D02*
X108750000Y-111500000D01*
X108750000Y-61500000D02*
X168500000Y-61500000D01*
D11*
X151022500Y-64237258D02*
X151022500Y-63762742D01*
X149977500Y-64237258D02*
X149977500Y-63762742D01*
X175737258Y-84477500D02*
X175262742Y-84477500D01*
X175737258Y-85522500D02*
X175262742Y-85522500D01*
X175262742Y-83772500D02*
X175737258Y-83772500D01*
X175262742Y-82727500D02*
X175737258Y-82727500D01*
X154050000Y-105450000D02*
X154050000Y-109050000D01*
X154050000Y-109050000D02*
X149700000Y-109050000D01*
X149700000Y-109050000D02*
X149700000Y-105450000D01*
X149700000Y-105450000D02*
X154050000Y-105450000D01*
X154360000Y-107450000D02*
X154360000Y-109360000D01*
X154360000Y-109360000D02*
X152450000Y-109360000D01*
X154050000Y-107750000D02*
X153750000Y-107750000D01*
X153750000Y-107750000D02*
X153750000Y-108750000D01*
X153750000Y-108750000D02*
X150000000Y-108750000D01*
X150000000Y-108750000D02*
X150000000Y-107750000D01*
X150000000Y-107750000D02*
X149700000Y-107750000D01*
X154050000Y-107000000D02*
X153750000Y-107000000D01*
X153750000Y-107000000D02*
X153750000Y-105900000D01*
X153750000Y-105900000D02*
X153450000Y-105900000D01*
X153450000Y-105900000D02*
X153450000Y-105450000D01*
X149700000Y-107000000D02*
X150000000Y-107000000D01*
X150000000Y-107000000D02*
X150000000Y-105900000D01*
X150000000Y-105900000D02*
X150300000Y-105900000D01*
X150300000Y-105900000D02*
X150300000Y-105450000D01*
X153450000Y-105900000D02*
X152250000Y-105900000D01*
X152250000Y-105900000D02*
X152250000Y-105600000D01*
X152250000Y-105600000D02*
X151500000Y-105600000D01*
X151500000Y-105600000D02*
X151500000Y-105900000D01*
X151500000Y-105900000D02*
X150300000Y-105900000D01*
D12*
X159825000Y-77650000D02*
X159550000Y-77650000D01*
X159550000Y-77650000D02*
X159175000Y-77375000D01*
X159175000Y-77375000D02*
X159175000Y-77325000D01*
X159175000Y-77325000D02*
X158400000Y-77325000D01*
X159650000Y-74350000D02*
X159175000Y-74350000D01*
X159175000Y-74350000D02*
X159175000Y-74700000D01*
X160825000Y-74575000D02*
X160825000Y-74700000D01*
X160825000Y-74650000D02*
X160825000Y-74350000D01*
X160825000Y-74350000D02*
X160375000Y-74350000D01*
X160450000Y-77650000D02*
X160825000Y-77650000D01*
X160825000Y-77650000D02*
X160825000Y-77350000D01*
D11*
X162800000Y-105450000D02*
X162800000Y-109050000D01*
X162800000Y-109050000D02*
X158450000Y-109050000D01*
X158450000Y-109050000D02*
X158450000Y-105450000D01*
X158450000Y-105450000D02*
X162800000Y-105450000D01*
X163110000Y-107450000D02*
X163110000Y-109360000D01*
X163110000Y-109360000D02*
X161200000Y-109360000D01*
X162800000Y-107750000D02*
X162500000Y-107750000D01*
X162500000Y-107750000D02*
X162500000Y-108750000D01*
X162500000Y-108750000D02*
X158750000Y-108750000D01*
X158750000Y-108750000D02*
X158750000Y-107750000D01*
X158750000Y-107750000D02*
X158450000Y-107750000D01*
X162800000Y-107000000D02*
X162500000Y-107000000D01*
X162500000Y-107000000D02*
X162500000Y-105900000D01*
X162500000Y-105900000D02*
X162200000Y-105900000D01*
X162200000Y-105900000D02*
X162200000Y-105450000D01*
X158450000Y-107000000D02*
X158750000Y-107000000D01*
X158750000Y-107000000D02*
X158750000Y-105900000D01*
X158750000Y-105900000D02*
X159050000Y-105900000D01*
X159050000Y-105900000D02*
X159050000Y-105450000D01*
X162200000Y-105900000D02*
X161000000Y-105900000D01*
X161000000Y-105900000D02*
X161000000Y-105600000D01*
X161000000Y-105600000D02*
X160250000Y-105600000D01*
X160250000Y-105600000D02*
X160250000Y-105900000D01*
X160250000Y-105900000D02*
X159050000Y-105900000D01*
X155977500Y-78262742D02*
X155977500Y-78737258D01*
X157022500Y-78262742D02*
X157022500Y-78737258D01*
D13*
X159833333Y-72667380D02*
X159833333Y-73381666D01*
X159880952Y-73524523D01*
X159976190Y-73619761D01*
X160119047Y-73667380D01*
X160214285Y-73667380D01*
X159452380Y-72667380D02*
X158785714Y-72667380D01*
X159214285Y-73667380D01*
X151858571Y-63166666D02*
X151858571Y-62833333D01*
X152382380Y-62833333D02*
X151382380Y-62833333D01*
X151382380Y-63309523D01*
X151858571Y-64023809D02*
X151906190Y-64166666D01*
X151953809Y-64214285D01*
X152049047Y-64261904D01*
X152191904Y-64261904D01*
X152287142Y-64214285D01*
X152334761Y-64166666D01*
X152382380Y-64071428D01*
X152382380Y-63690476D01*
X151382380Y-63690476D01*
X151382380Y-64023809D01*
X151430000Y-64119047D01*
X151477619Y-64166666D01*
X151572857Y-64214285D01*
X151668095Y-64214285D01*
X151763333Y-64166666D01*
X151810952Y-64119047D01*
X151858571Y-64023809D01*
X151858571Y-63690476D01*
X151477619Y-64642857D02*
X151430000Y-64690476D01*
X151382380Y-64785714D01*
X151382380Y-65023809D01*
X151430000Y-65119047D01*
X151477619Y-65166666D01*
X151572857Y-65214285D01*
X151668095Y-65214285D01*
X151810952Y-65166666D01*
X152382380Y-64595238D01*
X152382380Y-65214285D01*
X176333333Y-83498571D02*
X176666666Y-83498571D01*
X176666666Y-84022380D02*
X176666666Y-83022380D01*
X176190476Y-83022380D01*
X175476190Y-83498571D02*
X175333333Y-83546190D01*
X175285714Y-83593809D01*
X175238095Y-83689047D01*
X175238095Y-83831904D01*
X175285714Y-83927142D01*
X175333333Y-83974761D01*
X175428571Y-84022380D01*
X175809523Y-84022380D01*
X175809523Y-83022380D01*
X175476190Y-83022380D01*
X175380952Y-83070000D01*
X175333333Y-83117619D01*
X175285714Y-83212857D01*
X175285714Y-83308095D01*
X175333333Y-83403333D01*
X175380952Y-83450952D01*
X175476190Y-83498571D01*
X175809523Y-83498571D01*
X174285714Y-84022380D02*
X174857142Y-84022380D01*
X174571428Y-84022380D02*
X174571428Y-83022380D01*
X174666666Y-83165238D01*
X174761904Y-83260476D01*
X174857142Y-83308095D01*
X176333333Y-84608571D02*
X176666666Y-84608571D01*
X176666666Y-85132380D02*
X176666666Y-84132380D01*
X176190476Y-84132380D01*
X175476190Y-84608571D02*
X175333333Y-84656190D01*
X175285714Y-84703809D01*
X175238095Y-84799047D01*
X175238095Y-84941904D01*
X175285714Y-85037142D01*
X175333333Y-85084761D01*
X175428571Y-85132380D01*
X175809523Y-85132380D01*
X175809523Y-84132380D01*
X175476190Y-84132380D01*
X175380952Y-84180000D01*
X175333333Y-84227619D01*
X175285714Y-84322857D01*
X175285714Y-84418095D01*
X175333333Y-84513333D01*
X175380952Y-84560952D01*
X175476190Y-84608571D01*
X175809523Y-84608571D01*
X174904761Y-84132380D02*
X174285714Y-84132380D01*
X174619047Y-84513333D01*
X174476190Y-84513333D01*
X174380952Y-84560952D01*
X174333333Y-84608571D01*
X174285714Y-84703809D01*
X174285714Y-84941904D01*
X174333333Y-85037142D01*
X174380952Y-85084761D01*
X174476190Y-85132380D01*
X174761904Y-85132380D01*
X174857142Y-85084761D01*
X174904761Y-85037142D01*
X152213333Y-103802380D02*
X152213333Y-104516666D01*
X152260952Y-104659523D01*
X152356190Y-104754761D01*
X152499047Y-104802380D01*
X152594285Y-104802380D01*
X151308571Y-103802380D02*
X151499047Y-103802380D01*
X151594285Y-103850000D01*
X151641904Y-103897619D01*
X151737142Y-104040476D01*
X151784761Y-104230952D01*
X151784761Y-104611904D01*
X151737142Y-104707142D01*
X151689523Y-104754761D01*
X151594285Y-104802380D01*
X151403809Y-104802380D01*
X151308571Y-104754761D01*
X151260952Y-104707142D01*
X151213333Y-104611904D01*
X151213333Y-104373809D01*
X151260952Y-104278571D01*
X151308571Y-104230952D01*
X151403809Y-104183333D01*
X151594285Y-104183333D01*
X151689523Y-104230952D01*
X151737142Y-104278571D01*
X151784761Y-104373809D01*
X160120238Y-79922619D02*
X160215476Y-79875000D01*
X160310714Y-79779761D01*
X160453571Y-79636904D01*
X160548809Y-79589285D01*
X160644047Y-79589285D01*
X160596428Y-79827380D02*
X160691666Y-79779761D01*
X160786904Y-79684523D01*
X160834523Y-79494047D01*
X160834523Y-79160714D01*
X160786904Y-78970238D01*
X160691666Y-78875000D01*
X160596428Y-78827380D01*
X160405952Y-78827380D01*
X160310714Y-78875000D01*
X160215476Y-78970238D01*
X160167857Y-79160714D01*
X160167857Y-79494047D01*
X160215476Y-79684523D01*
X160310714Y-79779761D01*
X160405952Y-79827380D01*
X160596428Y-79827380D01*
X159215476Y-79827380D02*
X159786904Y-79827380D01*
X159501190Y-79827380D02*
X159501190Y-78827380D01*
X159596428Y-78970238D01*
X159691666Y-79065476D01*
X159786904Y-79113095D01*
X160963333Y-103802380D02*
X160963333Y-104516666D01*
X161010952Y-104659523D01*
X161106190Y-104754761D01*
X161249047Y-104802380D01*
X161344285Y-104802380D01*
X160344285Y-104230952D02*
X160439523Y-104183333D01*
X160487142Y-104135714D01*
X160534761Y-104040476D01*
X160534761Y-103992857D01*
X160487142Y-103897619D01*
X160439523Y-103850000D01*
X160344285Y-103802380D01*
X160153809Y-103802380D01*
X160058571Y-103850000D01*
X160010952Y-103897619D01*
X159963333Y-103992857D01*
X159963333Y-104040476D01*
X160010952Y-104135714D01*
X160058571Y-104183333D01*
X160153809Y-104230952D01*
X160344285Y-104230952D01*
X160439523Y-104278571D01*
X160487142Y-104326190D01*
X160534761Y-104421428D01*
X160534761Y-104611904D01*
X160487142Y-104707142D01*
X160439523Y-104754761D01*
X160344285Y-104802380D01*
X160153809Y-104802380D01*
X160058571Y-104754761D01*
X160010952Y-104707142D01*
X159963333Y-104611904D01*
X159963333Y-104421428D01*
X160010952Y-104326190D01*
X160058571Y-104278571D01*
X160153809Y-104230952D01*
X126730952Y-100128571D02*
X126588095Y-100176190D01*
X126540476Y-100223809D01*
X126492857Y-100319047D01*
X126492857Y-100461904D01*
X126540476Y-100557142D01*
X126588095Y-100604761D01*
X126683333Y-100652380D01*
X127064285Y-100652380D01*
X127064285Y-99652380D01*
X126730952Y-99652380D01*
X126635714Y-99700000D01*
X126588095Y-99747619D01*
X126540476Y-99842857D01*
X126540476Y-99938095D01*
X126588095Y-100033333D01*
X126635714Y-100080952D01*
X126730952Y-100128571D01*
X127064285Y-100128571D01*
X126159523Y-99652380D02*
X125492857Y-99652380D01*
X126159523Y-100652380D01*
X125492857Y-100652380D01*
X124588095Y-100652380D02*
X125159523Y-100652380D01*
X124873809Y-100652380D02*
X124873809Y-99652380D01*
X124969047Y-99795238D01*
X125064285Y-99890476D01*
X125159523Y-99938095D01*
X155522380Y-77857142D02*
X155046190Y-77523809D01*
X155522380Y-77285714D02*
X154522380Y-77285714D01*
X154522380Y-77666666D01*
X154570000Y-77761904D01*
X154617619Y-77809523D01*
X154712857Y-77857142D01*
X154855714Y-77857142D01*
X154950952Y-77809523D01*
X154998571Y-77761904D01*
X155046190Y-77666666D01*
X155046190Y-77285714D01*
X155522380Y-78809523D02*
X155522380Y-78238095D01*
X155522380Y-78523809D02*
X154522380Y-78523809D01*
X154665238Y-78428571D01*
X154760476Y-78333333D01*
X154808095Y-78238095D01*
X154522380Y-79428571D02*
X154522380Y-79523809D01*
X154570000Y-79619047D01*
X154617619Y-79666666D01*
X154712857Y-79714285D01*
X154903333Y-79761904D01*
X155141428Y-79761904D01*
X155331904Y-79714285D01*
X155427142Y-79666666D01*
X155474761Y-79619047D01*
X155522380Y-79523809D01*
X155522380Y-79428571D01*
X155474761Y-79333333D01*
X155427142Y-79285714D01*
X155331904Y-79238095D01*
X155141428Y-79190476D01*
X154903333Y-79190476D01*
X154712857Y-79238095D01*
X154617619Y-79285714D01*
X154570000Y-79333333D01*
X154522380Y-79428571D01*
M02*
