G04 #@! TF.GenerationSoftware,KiCad,Pcbnew,(5.1.5-0)*
G04 #@! TF.CreationDate,2020-10-28T23:32:55-07:00*
G04 #@! TF.ProjectId,Luminometer_RPi,4c756d69-6e6f-46d6-9574-65725f525069,rev?*
G04 #@! TF.SameCoordinates,Original*
G04 #@! TF.FileFunction,Soldermask,Top*
G04 #@! TF.FilePolarity,Negative*
%FSLAX46Y46*%
G04 Gerber Fmt 4.6, Leading zero omitted, Abs format (unit mm)*
G04 Created by KiCad (PCBNEW (5.1.5-0)) date 2020-10-28 23:32:55*
%MOMM*%
%LPD*%
G04 APERTURE LIST*
%ADD10C,0.150000*%
%ADD11C,2.900000*%
%ADD12C,2.700000*%
%ADD13C,0.100000*%
%ADD14C,1.800000*%
%ADD15O,1.900000X1.900000*%
%ADD16R,1.900000X1.900000*%
%ADD17C,1.100000*%
%ADD18C,3.400000*%
%ADD19C,2.400000*%
G04 APERTURE END LIST*
D10*
X109500000Y-111500000D02*
G75*
G02X106500000Y-108500000I0J3000000D01*
G01*
X171500000Y-108500000D02*
G75*
G02X168500000Y-111500000I-3000000J0D01*
G01*
X168500000Y-61500000D02*
G75*
G02X171500000Y-64500000I0J-3000000D01*
G01*
X106500000Y-64500000D02*
G75*
G02X109500000Y-61500000I3000000J0D01*
G01*
X106500000Y-108500000D02*
X106500000Y-64500000D01*
X168500000Y-111500000D02*
X109500000Y-111500000D01*
X171500000Y-64500000D02*
X171500000Y-108500000D01*
X109500000Y-61500000D02*
X168500000Y-61500000D01*
D11*
X168000000Y-65000000D03*
D12*
X134000000Y-95000000D03*
D13*
G36*
X163654592Y-79981794D02*
G01*
X163680681Y-79985664D01*
X163706264Y-79992072D01*
X163731096Y-80000957D01*
X163754938Y-80012234D01*
X163777560Y-80025793D01*
X163798743Y-80041503D01*
X163818285Y-80059215D01*
X163835997Y-80078757D01*
X163851707Y-80099940D01*
X163865266Y-80122562D01*
X163876543Y-80146404D01*
X163885428Y-80171236D01*
X163891836Y-80196819D01*
X163895706Y-80222908D01*
X163897000Y-80249250D01*
X163897000Y-80786750D01*
X163895706Y-80813092D01*
X163891836Y-80839181D01*
X163885428Y-80864764D01*
X163876543Y-80889596D01*
X163865266Y-80913438D01*
X163851707Y-80936060D01*
X163835997Y-80957243D01*
X163818285Y-80976785D01*
X163798743Y-80994497D01*
X163777560Y-81010207D01*
X163754938Y-81023766D01*
X163731096Y-81035043D01*
X163706264Y-81043928D01*
X163680681Y-81050336D01*
X163654592Y-81054206D01*
X163628250Y-81055500D01*
X163015750Y-81055500D01*
X162989408Y-81054206D01*
X162963319Y-81050336D01*
X162937736Y-81043928D01*
X162912904Y-81035043D01*
X162889062Y-81023766D01*
X162866440Y-81010207D01*
X162845257Y-80994497D01*
X162825715Y-80976785D01*
X162808003Y-80957243D01*
X162792293Y-80936060D01*
X162778734Y-80913438D01*
X162767457Y-80889596D01*
X162758572Y-80864764D01*
X162752164Y-80839181D01*
X162748294Y-80813092D01*
X162747000Y-80786750D01*
X162747000Y-80249250D01*
X162748294Y-80222908D01*
X162752164Y-80196819D01*
X162758572Y-80171236D01*
X162767457Y-80146404D01*
X162778734Y-80122562D01*
X162792293Y-80099940D01*
X162808003Y-80078757D01*
X162825715Y-80059215D01*
X162845257Y-80041503D01*
X162866440Y-80025793D01*
X162889062Y-80012234D01*
X162912904Y-80000957D01*
X162937736Y-79992072D01*
X162963319Y-79985664D01*
X162989408Y-79981794D01*
X163015750Y-79980500D01*
X163628250Y-79980500D01*
X163654592Y-79981794D01*
G37*
G36*
X163654592Y-81556794D02*
G01*
X163680681Y-81560664D01*
X163706264Y-81567072D01*
X163731096Y-81575957D01*
X163754938Y-81587234D01*
X163777560Y-81600793D01*
X163798743Y-81616503D01*
X163818285Y-81634215D01*
X163835997Y-81653757D01*
X163851707Y-81674940D01*
X163865266Y-81697562D01*
X163876543Y-81721404D01*
X163885428Y-81746236D01*
X163891836Y-81771819D01*
X163895706Y-81797908D01*
X163897000Y-81824250D01*
X163897000Y-82361750D01*
X163895706Y-82388092D01*
X163891836Y-82414181D01*
X163885428Y-82439764D01*
X163876543Y-82464596D01*
X163865266Y-82488438D01*
X163851707Y-82511060D01*
X163835997Y-82532243D01*
X163818285Y-82551785D01*
X163798743Y-82569497D01*
X163777560Y-82585207D01*
X163754938Y-82598766D01*
X163731096Y-82610043D01*
X163706264Y-82618928D01*
X163680681Y-82625336D01*
X163654592Y-82629206D01*
X163628250Y-82630500D01*
X163015750Y-82630500D01*
X162989408Y-82629206D01*
X162963319Y-82625336D01*
X162937736Y-82618928D01*
X162912904Y-82610043D01*
X162889062Y-82598766D01*
X162866440Y-82585207D01*
X162845257Y-82569497D01*
X162825715Y-82551785D01*
X162808003Y-82532243D01*
X162792293Y-82511060D01*
X162778734Y-82488438D01*
X162767457Y-82464596D01*
X162758572Y-82439764D01*
X162752164Y-82414181D01*
X162748294Y-82388092D01*
X162747000Y-82361750D01*
X162747000Y-81824250D01*
X162748294Y-81797908D01*
X162752164Y-81771819D01*
X162758572Y-81746236D01*
X162767457Y-81721404D01*
X162778734Y-81697562D01*
X162792293Y-81674940D01*
X162808003Y-81653757D01*
X162825715Y-81634215D01*
X162845257Y-81616503D01*
X162866440Y-81600793D01*
X162889062Y-81587234D01*
X162912904Y-81575957D01*
X162937736Y-81567072D01*
X162963319Y-81560664D01*
X162989408Y-81556794D01*
X163015750Y-81555500D01*
X163628250Y-81555500D01*
X163654592Y-81556794D01*
G37*
G36*
X167972592Y-87093794D02*
G01*
X167998681Y-87097664D01*
X168024264Y-87104072D01*
X168049096Y-87112957D01*
X168072938Y-87124234D01*
X168095560Y-87137793D01*
X168116743Y-87153503D01*
X168136285Y-87171215D01*
X168153997Y-87190757D01*
X168169707Y-87211940D01*
X168183266Y-87234562D01*
X168194543Y-87258404D01*
X168203428Y-87283236D01*
X168209836Y-87308819D01*
X168213706Y-87334908D01*
X168215000Y-87361250D01*
X168215000Y-87898750D01*
X168213706Y-87925092D01*
X168209836Y-87951181D01*
X168203428Y-87976764D01*
X168194543Y-88001596D01*
X168183266Y-88025438D01*
X168169707Y-88048060D01*
X168153997Y-88069243D01*
X168136285Y-88088785D01*
X168116743Y-88106497D01*
X168095560Y-88122207D01*
X168072938Y-88135766D01*
X168049096Y-88147043D01*
X168024264Y-88155928D01*
X167998681Y-88162336D01*
X167972592Y-88166206D01*
X167946250Y-88167500D01*
X167333750Y-88167500D01*
X167307408Y-88166206D01*
X167281319Y-88162336D01*
X167255736Y-88155928D01*
X167230904Y-88147043D01*
X167207062Y-88135766D01*
X167184440Y-88122207D01*
X167163257Y-88106497D01*
X167143715Y-88088785D01*
X167126003Y-88069243D01*
X167110293Y-88048060D01*
X167096734Y-88025438D01*
X167085457Y-88001596D01*
X167076572Y-87976764D01*
X167070164Y-87951181D01*
X167066294Y-87925092D01*
X167065000Y-87898750D01*
X167065000Y-87361250D01*
X167066294Y-87334908D01*
X167070164Y-87308819D01*
X167076572Y-87283236D01*
X167085457Y-87258404D01*
X167096734Y-87234562D01*
X167110293Y-87211940D01*
X167126003Y-87190757D01*
X167143715Y-87171215D01*
X167163257Y-87153503D01*
X167184440Y-87137793D01*
X167207062Y-87124234D01*
X167230904Y-87112957D01*
X167255736Y-87104072D01*
X167281319Y-87097664D01*
X167307408Y-87093794D01*
X167333750Y-87092500D01*
X167946250Y-87092500D01*
X167972592Y-87093794D01*
G37*
G36*
X167972592Y-88668794D02*
G01*
X167998681Y-88672664D01*
X168024264Y-88679072D01*
X168049096Y-88687957D01*
X168072938Y-88699234D01*
X168095560Y-88712793D01*
X168116743Y-88728503D01*
X168136285Y-88746215D01*
X168153997Y-88765757D01*
X168169707Y-88786940D01*
X168183266Y-88809562D01*
X168194543Y-88833404D01*
X168203428Y-88858236D01*
X168209836Y-88883819D01*
X168213706Y-88909908D01*
X168215000Y-88936250D01*
X168215000Y-89473750D01*
X168213706Y-89500092D01*
X168209836Y-89526181D01*
X168203428Y-89551764D01*
X168194543Y-89576596D01*
X168183266Y-89600438D01*
X168169707Y-89623060D01*
X168153997Y-89644243D01*
X168136285Y-89663785D01*
X168116743Y-89681497D01*
X168095560Y-89697207D01*
X168072938Y-89710766D01*
X168049096Y-89722043D01*
X168024264Y-89730928D01*
X167998681Y-89737336D01*
X167972592Y-89741206D01*
X167946250Y-89742500D01*
X167333750Y-89742500D01*
X167307408Y-89741206D01*
X167281319Y-89737336D01*
X167255736Y-89730928D01*
X167230904Y-89722043D01*
X167207062Y-89710766D01*
X167184440Y-89697207D01*
X167163257Y-89681497D01*
X167143715Y-89663785D01*
X167126003Y-89644243D01*
X167110293Y-89623060D01*
X167096734Y-89600438D01*
X167085457Y-89576596D01*
X167076572Y-89551764D01*
X167070164Y-89526181D01*
X167066294Y-89500092D01*
X167065000Y-89473750D01*
X167065000Y-88936250D01*
X167066294Y-88909908D01*
X167070164Y-88883819D01*
X167076572Y-88858236D01*
X167085457Y-88833404D01*
X167096734Y-88809562D01*
X167110293Y-88786940D01*
X167126003Y-88765757D01*
X167143715Y-88746215D01*
X167163257Y-88728503D01*
X167184440Y-88712793D01*
X167207062Y-88699234D01*
X167230904Y-88687957D01*
X167255736Y-88679072D01*
X167281319Y-88672664D01*
X167307408Y-88668794D01*
X167333750Y-88667500D01*
X167946250Y-88667500D01*
X167972592Y-88668794D01*
G37*
D14*
X163700000Y-67600000D03*
X152930000Y-67600000D03*
D15*
X114939900Y-89278000D03*
X114939900Y-86738000D03*
X117479900Y-89278000D03*
X117479900Y-86738000D03*
X120019900Y-89278000D03*
X120019900Y-86738000D03*
X122559900Y-89278000D03*
X122559900Y-86738000D03*
X125099900Y-89278000D03*
X125099900Y-86738000D03*
X127639900Y-89278000D03*
X127639900Y-86738000D03*
X130179900Y-89278000D03*
X130179900Y-86738000D03*
X132719900Y-89278000D03*
X132719900Y-86738000D03*
X135259900Y-89278000D03*
X135259900Y-86738000D03*
X137799900Y-89278000D03*
X137799900Y-86738000D03*
X140339900Y-89278000D03*
X140339900Y-86738000D03*
X142879900Y-89278000D03*
X142879900Y-86738000D03*
X145419900Y-89278000D03*
X145419900Y-86738000D03*
X147959900Y-89278000D03*
X147959900Y-86738000D03*
X150499900Y-89278000D03*
X150499900Y-86738000D03*
X153039900Y-89278000D03*
X153039900Y-86738000D03*
X155579900Y-89278000D03*
X155579900Y-86738000D03*
X158119900Y-89278000D03*
X158119900Y-86738000D03*
X160659900Y-89278000D03*
X160659900Y-86738000D03*
X163199900Y-89278000D03*
D16*
X163199900Y-86738000D03*
D17*
X108180000Y-97900000D03*
X108180000Y-102150000D03*
X108180000Y-85900000D03*
X108180000Y-90150000D03*
X108180000Y-73900000D03*
X108180000Y-78150000D03*
D18*
X166500000Y-106500000D03*
D19*
X138000000Y-71500000D03*
D12*
X143000000Y-66500000D03*
D18*
X111500000Y-106500000D03*
D19*
X130000000Y-71500000D03*
D12*
X125000000Y-66500000D03*
D18*
X111500000Y-66500000D03*
M02*
