G04 #@! TF.GenerationSoftware,KiCad,Pcbnew,(5.1.5-0)*
G04 #@! TF.CreationDate,2020-10-28T23:32:55-07:00*
G04 #@! TF.ProjectId,Luminometer_RPi,4c756d69-6e6f-46d6-9574-65725f525069,rev?*
G04 #@! TF.SameCoordinates,Original*
G04 #@! TF.FileFunction,Copper,L4,Bot*
G04 #@! TF.FilePolarity,Positive*
%FSLAX46Y46*%
G04 Gerber Fmt 4.6, Leading zero omitted, Abs format (unit mm)*
G04 Created by KiCad (PCBNEW (5.1.5-0)) date 2020-10-28 23:32:55*
%MOMM*%
%LPD*%
G04 APERTURE LIST*
%ADD10C,0.150000*%
%ADD11R,1.200000X2.500000*%
%ADD12R,0.800000X1.100000*%
%ADD13O,1.700000X1.700000*%
%ADD14R,1.700000X1.700000*%
%ADD15C,0.900000*%
%ADD16R,1.800000X0.750000*%
%ADD17R,0.900000X1.300000*%
%ADD18R,1.800000X0.600000*%
%ADD19C,0.400000*%
%ADD20C,0.600000*%
%ADD21C,0.250000*%
%ADD22C,0.254000*%
G04 APERTURE END LIST*
D10*
X109500000Y-111500000D02*
G75*
G02X106500000Y-108500000I0J3000000D01*
G01*
X171500000Y-108500000D02*
G75*
G02X168500000Y-111500000I-3000000J0D01*
G01*
X168500000Y-61500000D02*
G75*
G02X171500000Y-64500000I0J-3000000D01*
G01*
X106500000Y-64500000D02*
G75*
G02X109500000Y-61500000I3000000J0D01*
G01*
X106500000Y-108500000D02*
X106500000Y-64500000D01*
X168500000Y-111500000D02*
X109500000Y-111500000D01*
X171500000Y-64500000D02*
X171500000Y-108500000D01*
X109500000Y-61500000D02*
X168500000Y-61500000D01*
D11*
X152615000Y-64850000D03*
X164015000Y-64850000D03*
X164015000Y-70350000D03*
X152615000Y-70350000D03*
D12*
X155140000Y-64850000D03*
X156410000Y-64850000D03*
X157680000Y-64850000D03*
X161490000Y-70350000D03*
X160220000Y-70350000D03*
X155140000Y-70350000D03*
X158950000Y-64850000D03*
X160220000Y-64850000D03*
X161490000Y-64850000D03*
X156410000Y-70350000D03*
X157680000Y-70350000D03*
X158950000Y-70350000D03*
D13*
X114939900Y-89278000D03*
X114939900Y-86738000D03*
X117479900Y-89278000D03*
X117479900Y-86738000D03*
X120019900Y-89278000D03*
X120019900Y-86738000D03*
X122559900Y-89278000D03*
X122559900Y-86738000D03*
X125099900Y-89278000D03*
X125099900Y-86738000D03*
X127639900Y-89278000D03*
X127639900Y-86738000D03*
X130179900Y-89278000D03*
X130179900Y-86738000D03*
X132719900Y-89278000D03*
X132719900Y-86738000D03*
X135259900Y-89278000D03*
X135259900Y-86738000D03*
X137799900Y-89278000D03*
X137799900Y-86738000D03*
X140339900Y-89278000D03*
X140339900Y-86738000D03*
X142879900Y-89278000D03*
X142879900Y-86738000D03*
X145419900Y-89278000D03*
X145419900Y-86738000D03*
X147959900Y-89278000D03*
X147959900Y-86738000D03*
X150499900Y-89278000D03*
X150499900Y-86738000D03*
X153039900Y-89278000D03*
X153039900Y-86738000D03*
X155579900Y-89278000D03*
X155579900Y-86738000D03*
X158119900Y-89278000D03*
X158119900Y-86738000D03*
X160659900Y-89278000D03*
X160659900Y-86738000D03*
X163199900Y-89278000D03*
D14*
X163199900Y-86738000D03*
D15*
X108180000Y-97900000D03*
D16*
X109080000Y-98800000D03*
D17*
X107130000Y-98175000D03*
D15*
X108180000Y-102150000D03*
D17*
X107130000Y-101875000D03*
D18*
X109080000Y-100025000D03*
D16*
X109080000Y-101250000D03*
D15*
X108180000Y-85900000D03*
D16*
X109080000Y-86800000D03*
D17*
X107130000Y-86175000D03*
D15*
X108180000Y-90150000D03*
D17*
X107130000Y-89875000D03*
D18*
X109080000Y-88025000D03*
D16*
X109080000Y-89250000D03*
D15*
X108180000Y-73900000D03*
D16*
X109080000Y-74800000D03*
D17*
X107130000Y-74175000D03*
D15*
X108180000Y-78150000D03*
D17*
X107130000Y-77875000D03*
D18*
X109080000Y-76025000D03*
D16*
X109080000Y-77250000D03*
D19*
X161500000Y-66500000D03*
X155130500Y-74726800D03*
X110807500Y-89154000D03*
X159500000Y-68961000D03*
X160147000Y-72009000D03*
X156210000Y-73914000D03*
X157480000Y-72644000D03*
X158750000Y-71628000D03*
X160274000Y-66548000D03*
D20*
X163272900Y-89205000D02*
X163199900Y-89278000D01*
D21*
X161490000Y-70350000D02*
X161490000Y-68970500D01*
X161480500Y-68961000D02*
X159500000Y-68961000D01*
X161490000Y-68970500D02*
X161480500Y-68961000D01*
D20*
X163576000Y-86361900D02*
X163199900Y-86738000D01*
D21*
X160147000Y-70423000D02*
X160220000Y-70350000D01*
X160220000Y-71936000D02*
X160147000Y-72009000D01*
X160220000Y-70350000D02*
X160220000Y-71936000D01*
X156409999Y-73714001D02*
X156210000Y-73914000D01*
X156410000Y-70350000D02*
X156409999Y-73714001D01*
X158950000Y-71428000D02*
X158750000Y-71628000D01*
X158950000Y-70350000D02*
X158950000Y-71428000D01*
X157680000Y-72444000D02*
X157480000Y-72644000D01*
X157680000Y-70350000D02*
X157680000Y-72444000D01*
X155140000Y-74717300D02*
X155130500Y-74726800D01*
X155140000Y-70350000D02*
X155140000Y-74717300D01*
X110230000Y-101250000D02*
X109080000Y-101250000D01*
X116114901Y-95365099D02*
X110230000Y-101250000D01*
X116114901Y-88102999D02*
X116114901Y-95365099D01*
X117479900Y-86738000D02*
X116114901Y-88102999D01*
X109605000Y-89250000D02*
X109080000Y-89250000D01*
X109080000Y-89250000D02*
X110230000Y-89250000D01*
X110326000Y-89154000D02*
X110807500Y-89154000D01*
X110230000Y-89250000D02*
X110326000Y-89154000D01*
X113071900Y-77250000D02*
X122559900Y-86738000D01*
X109080000Y-77250000D02*
X113071900Y-77250000D01*
D20*
X160220000Y-66494000D02*
X160274000Y-66548000D01*
X160220000Y-64850000D02*
X160220000Y-66494000D01*
X161490000Y-66490000D02*
X161500000Y-66500000D01*
X161490000Y-64850000D02*
X161490000Y-66490000D01*
D22*
G36*
X169004242Y-61953369D02*
G01*
X169489286Y-62099812D01*
X169936642Y-62337674D01*
X170329282Y-62657904D01*
X170652241Y-63048294D01*
X170893222Y-63493980D01*
X171043048Y-63977987D01*
X171098000Y-64500820D01*
X171098000Y-64500827D01*
X171098001Y-108480333D01*
X171046631Y-109004243D01*
X170900187Y-109489288D01*
X170662324Y-109936646D01*
X170342096Y-110329282D01*
X169951706Y-110652241D01*
X169506018Y-110893223D01*
X169022013Y-111043048D01*
X168499180Y-111098000D01*
X109519657Y-111098000D01*
X108995757Y-111046631D01*
X108510712Y-110900187D01*
X108063354Y-110662324D01*
X107670718Y-110342096D01*
X107347759Y-109951706D01*
X107106777Y-109506018D01*
X106956952Y-109022013D01*
X106902000Y-108499180D01*
X106902000Y-106310207D01*
X109573000Y-106310207D01*
X109573000Y-106689793D01*
X109647053Y-107062085D01*
X109792315Y-107412777D01*
X110003201Y-107728391D01*
X110271609Y-107996799D01*
X110587223Y-108207685D01*
X110937915Y-108352947D01*
X111310207Y-108427000D01*
X111689793Y-108427000D01*
X112062085Y-108352947D01*
X112412777Y-108207685D01*
X112728391Y-107996799D01*
X112996799Y-107728391D01*
X113207685Y-107412777D01*
X113352947Y-107062085D01*
X113427000Y-106689793D01*
X113427000Y-106310207D01*
X164573000Y-106310207D01*
X164573000Y-106689793D01*
X164647053Y-107062085D01*
X164792315Y-107412777D01*
X165003201Y-107728391D01*
X165271609Y-107996799D01*
X165587223Y-108207685D01*
X165937915Y-108352947D01*
X166310207Y-108427000D01*
X166689793Y-108427000D01*
X167062085Y-108352947D01*
X167412777Y-108207685D01*
X167728391Y-107996799D01*
X167996799Y-107728391D01*
X168207685Y-107412777D01*
X168352947Y-107062085D01*
X168427000Y-106689793D01*
X168427000Y-106310207D01*
X168352947Y-105937915D01*
X168207685Y-105587223D01*
X167996799Y-105271609D01*
X167728391Y-105003201D01*
X167412777Y-104792315D01*
X167062085Y-104647053D01*
X166689793Y-104573000D01*
X166310207Y-104573000D01*
X165937915Y-104647053D01*
X165587223Y-104792315D01*
X165271609Y-105003201D01*
X165003201Y-105271609D01*
X164792315Y-105587223D01*
X164647053Y-105937915D01*
X164573000Y-106310207D01*
X113427000Y-106310207D01*
X113352947Y-105937915D01*
X113207685Y-105587223D01*
X112996799Y-105271609D01*
X112728391Y-105003201D01*
X112412777Y-104792315D01*
X112062085Y-104647053D01*
X111689793Y-104573000D01*
X111310207Y-104573000D01*
X110937915Y-104647053D01*
X110587223Y-104792315D01*
X110271609Y-105003201D01*
X110003201Y-105271609D01*
X109792315Y-105587223D01*
X109647053Y-105937915D01*
X109573000Y-106310207D01*
X106902000Y-106310207D01*
X106902000Y-102853582D01*
X107580000Y-102853582D01*
X107644103Y-102847268D01*
X107705743Y-102828570D01*
X107756436Y-102801474D01*
X107811952Y-102838569D01*
X107953357Y-102897141D01*
X108103472Y-102927000D01*
X108256528Y-102927000D01*
X108406643Y-102897141D01*
X108548048Y-102838569D01*
X108675309Y-102753536D01*
X108783536Y-102645309D01*
X108868569Y-102518048D01*
X108927141Y-102376643D01*
X108957000Y-102226528D01*
X108957000Y-102073472D01*
X108933153Y-101953582D01*
X109980000Y-101953582D01*
X110044103Y-101947268D01*
X110105743Y-101928570D01*
X110162550Y-101898206D01*
X110212343Y-101857343D01*
X110253206Y-101807550D01*
X110283570Y-101750743D01*
X110299777Y-101697315D01*
X110318607Y-101695460D01*
X110403810Y-101669614D01*
X110482333Y-101627643D01*
X110551159Y-101571159D01*
X110565323Y-101553900D01*
X116418806Y-95700418D01*
X116436060Y-95686258D01*
X116492544Y-95617432D01*
X116534515Y-95538909D01*
X116560361Y-95453706D01*
X116566901Y-95387304D01*
X116569088Y-95365099D01*
X116566901Y-95342894D01*
X116566901Y-94844679D01*
X132423000Y-94844679D01*
X132423000Y-95155321D01*
X132483604Y-95459994D01*
X132602481Y-95746989D01*
X132775064Y-96005279D01*
X132994721Y-96224936D01*
X133253011Y-96397519D01*
X133540006Y-96516396D01*
X133844679Y-96577000D01*
X134155321Y-96577000D01*
X134459994Y-96516396D01*
X134746989Y-96397519D01*
X135005279Y-96224936D01*
X135224936Y-96005279D01*
X135397519Y-95746989D01*
X135516396Y-95459994D01*
X135577000Y-95155321D01*
X135577000Y-94844679D01*
X135516396Y-94540006D01*
X135397519Y-94253011D01*
X135224936Y-93994721D01*
X135005279Y-93775064D01*
X134746989Y-93602481D01*
X134459994Y-93483604D01*
X134155321Y-93423000D01*
X133844679Y-93423000D01*
X133540006Y-93483604D01*
X133253011Y-93602481D01*
X132994721Y-93775064D01*
X132775064Y-93994721D01*
X132602481Y-94253011D01*
X132483604Y-94540006D01*
X132423000Y-94844679D01*
X116566901Y-94844679D01*
X116566901Y-90029531D01*
X116729606Y-90192236D01*
X116922381Y-90321044D01*
X117136582Y-90409769D01*
X117363976Y-90455000D01*
X117595824Y-90455000D01*
X117823218Y-90409769D01*
X118037419Y-90321044D01*
X118230194Y-90192236D01*
X118394136Y-90028294D01*
X118522944Y-89835519D01*
X118611669Y-89621318D01*
X118656900Y-89393924D01*
X118656900Y-89162076D01*
X118842900Y-89162076D01*
X118842900Y-89393924D01*
X118888131Y-89621318D01*
X118976856Y-89835519D01*
X119105664Y-90028294D01*
X119269606Y-90192236D01*
X119462381Y-90321044D01*
X119676582Y-90409769D01*
X119903976Y-90455000D01*
X120135824Y-90455000D01*
X120363218Y-90409769D01*
X120577419Y-90321044D01*
X120770194Y-90192236D01*
X120934136Y-90028294D01*
X121062944Y-89835519D01*
X121151669Y-89621318D01*
X121196900Y-89393924D01*
X121196900Y-89162076D01*
X121382900Y-89162076D01*
X121382900Y-89393924D01*
X121428131Y-89621318D01*
X121516856Y-89835519D01*
X121645664Y-90028294D01*
X121809606Y-90192236D01*
X122002381Y-90321044D01*
X122216582Y-90409769D01*
X122443976Y-90455000D01*
X122675824Y-90455000D01*
X122903218Y-90409769D01*
X123117419Y-90321044D01*
X123310194Y-90192236D01*
X123474136Y-90028294D01*
X123602944Y-89835519D01*
X123691669Y-89621318D01*
X123736900Y-89393924D01*
X123736900Y-89162076D01*
X123922900Y-89162076D01*
X123922900Y-89393924D01*
X123968131Y-89621318D01*
X124056856Y-89835519D01*
X124185664Y-90028294D01*
X124349606Y-90192236D01*
X124542381Y-90321044D01*
X124756582Y-90409769D01*
X124983976Y-90455000D01*
X125215824Y-90455000D01*
X125443218Y-90409769D01*
X125657419Y-90321044D01*
X125850194Y-90192236D01*
X126014136Y-90028294D01*
X126142944Y-89835519D01*
X126231669Y-89621318D01*
X126276900Y-89393924D01*
X126276900Y-89162076D01*
X126462900Y-89162076D01*
X126462900Y-89393924D01*
X126508131Y-89621318D01*
X126596856Y-89835519D01*
X126725664Y-90028294D01*
X126889606Y-90192236D01*
X127082381Y-90321044D01*
X127296582Y-90409769D01*
X127523976Y-90455000D01*
X127755824Y-90455000D01*
X127983218Y-90409769D01*
X128197419Y-90321044D01*
X128390194Y-90192236D01*
X128554136Y-90028294D01*
X128682944Y-89835519D01*
X128771669Y-89621318D01*
X128816900Y-89393924D01*
X128816900Y-89162076D01*
X129002900Y-89162076D01*
X129002900Y-89393924D01*
X129048131Y-89621318D01*
X129136856Y-89835519D01*
X129265664Y-90028294D01*
X129429606Y-90192236D01*
X129622381Y-90321044D01*
X129836582Y-90409769D01*
X130063976Y-90455000D01*
X130295824Y-90455000D01*
X130523218Y-90409769D01*
X130737419Y-90321044D01*
X130930194Y-90192236D01*
X131094136Y-90028294D01*
X131222944Y-89835519D01*
X131311669Y-89621318D01*
X131356900Y-89393924D01*
X131356900Y-89162076D01*
X131542900Y-89162076D01*
X131542900Y-89393924D01*
X131588131Y-89621318D01*
X131676856Y-89835519D01*
X131805664Y-90028294D01*
X131969606Y-90192236D01*
X132162381Y-90321044D01*
X132376582Y-90409769D01*
X132603976Y-90455000D01*
X132835824Y-90455000D01*
X133063218Y-90409769D01*
X133277419Y-90321044D01*
X133470194Y-90192236D01*
X133634136Y-90028294D01*
X133762944Y-89835519D01*
X133851669Y-89621318D01*
X133896900Y-89393924D01*
X133896900Y-89162076D01*
X134082900Y-89162076D01*
X134082900Y-89393924D01*
X134128131Y-89621318D01*
X134216856Y-89835519D01*
X134345664Y-90028294D01*
X134509606Y-90192236D01*
X134702381Y-90321044D01*
X134916582Y-90409769D01*
X135143976Y-90455000D01*
X135375824Y-90455000D01*
X135603218Y-90409769D01*
X135817419Y-90321044D01*
X136010194Y-90192236D01*
X136174136Y-90028294D01*
X136302944Y-89835519D01*
X136391669Y-89621318D01*
X136436900Y-89393924D01*
X136436900Y-89162076D01*
X136622900Y-89162076D01*
X136622900Y-89393924D01*
X136668131Y-89621318D01*
X136756856Y-89835519D01*
X136885664Y-90028294D01*
X137049606Y-90192236D01*
X137242381Y-90321044D01*
X137456582Y-90409769D01*
X137683976Y-90455000D01*
X137915824Y-90455000D01*
X138143218Y-90409769D01*
X138357419Y-90321044D01*
X138550194Y-90192236D01*
X138714136Y-90028294D01*
X138842944Y-89835519D01*
X138911164Y-89670821D01*
X138995743Y-89909252D01*
X139144722Y-90159355D01*
X139339631Y-90375588D01*
X139572980Y-90549641D01*
X139835801Y-90674825D01*
X139983010Y-90719476D01*
X140212900Y-90598155D01*
X140212900Y-89405000D01*
X140192900Y-89405000D01*
X140192900Y-89151000D01*
X140212900Y-89151000D01*
X140212900Y-89131000D01*
X140466900Y-89131000D01*
X140466900Y-89151000D01*
X140486900Y-89151000D01*
X140486900Y-89405000D01*
X140466900Y-89405000D01*
X140466900Y-90598155D01*
X140696790Y-90719476D01*
X140843999Y-90674825D01*
X141106820Y-90549641D01*
X141340169Y-90375588D01*
X141535078Y-90159355D01*
X141684057Y-89909252D01*
X141768636Y-89670821D01*
X141836856Y-89835519D01*
X141965664Y-90028294D01*
X142129606Y-90192236D01*
X142322381Y-90321044D01*
X142536582Y-90409769D01*
X142763976Y-90455000D01*
X142995824Y-90455000D01*
X143223218Y-90409769D01*
X143437419Y-90321044D01*
X143630194Y-90192236D01*
X143794136Y-90028294D01*
X143922944Y-89835519D01*
X144011669Y-89621318D01*
X144056900Y-89393924D01*
X144056900Y-89162076D01*
X144242900Y-89162076D01*
X144242900Y-89393924D01*
X144288131Y-89621318D01*
X144376856Y-89835519D01*
X144505664Y-90028294D01*
X144669606Y-90192236D01*
X144862381Y-90321044D01*
X145076582Y-90409769D01*
X145303976Y-90455000D01*
X145535824Y-90455000D01*
X145763218Y-90409769D01*
X145977419Y-90321044D01*
X146170194Y-90192236D01*
X146334136Y-90028294D01*
X146462944Y-89835519D01*
X146551669Y-89621318D01*
X146596900Y-89393924D01*
X146596900Y-89162076D01*
X146782900Y-89162076D01*
X146782900Y-89393924D01*
X146828131Y-89621318D01*
X146916856Y-89835519D01*
X147045664Y-90028294D01*
X147209606Y-90192236D01*
X147402381Y-90321044D01*
X147616582Y-90409769D01*
X147843976Y-90455000D01*
X148075824Y-90455000D01*
X148303218Y-90409769D01*
X148517419Y-90321044D01*
X148710194Y-90192236D01*
X148874136Y-90028294D01*
X149002944Y-89835519D01*
X149091669Y-89621318D01*
X149136900Y-89393924D01*
X149136900Y-89162076D01*
X149322900Y-89162076D01*
X149322900Y-89393924D01*
X149368131Y-89621318D01*
X149456856Y-89835519D01*
X149585664Y-90028294D01*
X149749606Y-90192236D01*
X149942381Y-90321044D01*
X150156582Y-90409769D01*
X150383976Y-90455000D01*
X150615824Y-90455000D01*
X150843218Y-90409769D01*
X151057419Y-90321044D01*
X151250194Y-90192236D01*
X151414136Y-90028294D01*
X151542944Y-89835519D01*
X151631669Y-89621318D01*
X151676900Y-89393924D01*
X151676900Y-89162076D01*
X151862900Y-89162076D01*
X151862900Y-89393924D01*
X151908131Y-89621318D01*
X151996856Y-89835519D01*
X152125664Y-90028294D01*
X152289606Y-90192236D01*
X152482381Y-90321044D01*
X152696582Y-90409769D01*
X152923976Y-90455000D01*
X153155824Y-90455000D01*
X153383218Y-90409769D01*
X153597419Y-90321044D01*
X153790194Y-90192236D01*
X153954136Y-90028294D01*
X154082944Y-89835519D01*
X154171669Y-89621318D01*
X154216900Y-89393924D01*
X154216900Y-89162076D01*
X154402900Y-89162076D01*
X154402900Y-89393924D01*
X154448131Y-89621318D01*
X154536856Y-89835519D01*
X154665664Y-90028294D01*
X154829606Y-90192236D01*
X155022381Y-90321044D01*
X155236582Y-90409769D01*
X155463976Y-90455000D01*
X155695824Y-90455000D01*
X155923218Y-90409769D01*
X156137419Y-90321044D01*
X156330194Y-90192236D01*
X156494136Y-90028294D01*
X156622944Y-89835519D01*
X156711669Y-89621318D01*
X156756900Y-89393924D01*
X156756900Y-89162076D01*
X156942900Y-89162076D01*
X156942900Y-89393924D01*
X156988131Y-89621318D01*
X157076856Y-89835519D01*
X157205664Y-90028294D01*
X157369606Y-90192236D01*
X157562381Y-90321044D01*
X157776582Y-90409769D01*
X158003976Y-90455000D01*
X158235824Y-90455000D01*
X158463218Y-90409769D01*
X158677419Y-90321044D01*
X158870194Y-90192236D01*
X159034136Y-90028294D01*
X159162944Y-89835519D01*
X159251669Y-89621318D01*
X159296900Y-89393924D01*
X159296900Y-89162076D01*
X159482900Y-89162076D01*
X159482900Y-89393924D01*
X159528131Y-89621318D01*
X159616856Y-89835519D01*
X159745664Y-90028294D01*
X159909606Y-90192236D01*
X160102381Y-90321044D01*
X160316582Y-90409769D01*
X160543976Y-90455000D01*
X160775824Y-90455000D01*
X161003218Y-90409769D01*
X161217419Y-90321044D01*
X161410194Y-90192236D01*
X161574136Y-90028294D01*
X161702944Y-89835519D01*
X161791669Y-89621318D01*
X161836900Y-89393924D01*
X161836900Y-89162076D01*
X162022900Y-89162076D01*
X162022900Y-89393924D01*
X162068131Y-89621318D01*
X162156856Y-89835519D01*
X162285664Y-90028294D01*
X162449606Y-90192236D01*
X162642381Y-90321044D01*
X162856582Y-90409769D01*
X163083976Y-90455000D01*
X163315824Y-90455000D01*
X163543218Y-90409769D01*
X163757419Y-90321044D01*
X163950194Y-90192236D01*
X164114136Y-90028294D01*
X164242944Y-89835519D01*
X164331669Y-89621318D01*
X164376900Y-89393924D01*
X164376900Y-89162076D01*
X164331669Y-88934682D01*
X164242944Y-88720481D01*
X164114136Y-88527706D01*
X163950194Y-88363764D01*
X163757419Y-88234956D01*
X163543218Y-88146231D01*
X163315824Y-88101000D01*
X163083976Y-88101000D01*
X162856582Y-88146231D01*
X162642381Y-88234956D01*
X162449606Y-88363764D01*
X162285664Y-88527706D01*
X162156856Y-88720481D01*
X162068131Y-88934682D01*
X162022900Y-89162076D01*
X161836900Y-89162076D01*
X161791669Y-88934682D01*
X161702944Y-88720481D01*
X161574136Y-88527706D01*
X161410194Y-88363764D01*
X161217419Y-88234956D01*
X161003218Y-88146231D01*
X160775824Y-88101000D01*
X160543976Y-88101000D01*
X160316582Y-88146231D01*
X160102381Y-88234956D01*
X159909606Y-88363764D01*
X159745664Y-88527706D01*
X159616856Y-88720481D01*
X159528131Y-88934682D01*
X159482900Y-89162076D01*
X159296900Y-89162076D01*
X159251669Y-88934682D01*
X159162944Y-88720481D01*
X159034136Y-88527706D01*
X158870194Y-88363764D01*
X158677419Y-88234956D01*
X158463218Y-88146231D01*
X158235824Y-88101000D01*
X158003976Y-88101000D01*
X157776582Y-88146231D01*
X157562381Y-88234956D01*
X157369606Y-88363764D01*
X157205664Y-88527706D01*
X157076856Y-88720481D01*
X156988131Y-88934682D01*
X156942900Y-89162076D01*
X156756900Y-89162076D01*
X156711669Y-88934682D01*
X156622944Y-88720481D01*
X156494136Y-88527706D01*
X156330194Y-88363764D01*
X156137419Y-88234956D01*
X155923218Y-88146231D01*
X155695824Y-88101000D01*
X155463976Y-88101000D01*
X155236582Y-88146231D01*
X155022381Y-88234956D01*
X154829606Y-88363764D01*
X154665664Y-88527706D01*
X154536856Y-88720481D01*
X154448131Y-88934682D01*
X154402900Y-89162076D01*
X154216900Y-89162076D01*
X154171669Y-88934682D01*
X154082944Y-88720481D01*
X153954136Y-88527706D01*
X153790194Y-88363764D01*
X153597419Y-88234956D01*
X153383218Y-88146231D01*
X153155824Y-88101000D01*
X152923976Y-88101000D01*
X152696582Y-88146231D01*
X152482381Y-88234956D01*
X152289606Y-88363764D01*
X152125664Y-88527706D01*
X151996856Y-88720481D01*
X151908131Y-88934682D01*
X151862900Y-89162076D01*
X151676900Y-89162076D01*
X151631669Y-88934682D01*
X151542944Y-88720481D01*
X151414136Y-88527706D01*
X151250194Y-88363764D01*
X151057419Y-88234956D01*
X150843218Y-88146231D01*
X150615824Y-88101000D01*
X150383976Y-88101000D01*
X150156582Y-88146231D01*
X149942381Y-88234956D01*
X149749606Y-88363764D01*
X149585664Y-88527706D01*
X149456856Y-88720481D01*
X149368131Y-88934682D01*
X149322900Y-89162076D01*
X149136900Y-89162076D01*
X149091669Y-88934682D01*
X149002944Y-88720481D01*
X148874136Y-88527706D01*
X148710194Y-88363764D01*
X148517419Y-88234956D01*
X148303218Y-88146231D01*
X148075824Y-88101000D01*
X147843976Y-88101000D01*
X147616582Y-88146231D01*
X147402381Y-88234956D01*
X147209606Y-88363764D01*
X147045664Y-88527706D01*
X146916856Y-88720481D01*
X146828131Y-88934682D01*
X146782900Y-89162076D01*
X146596900Y-89162076D01*
X146551669Y-88934682D01*
X146462944Y-88720481D01*
X146334136Y-88527706D01*
X146170194Y-88363764D01*
X145977419Y-88234956D01*
X145763218Y-88146231D01*
X145535824Y-88101000D01*
X145303976Y-88101000D01*
X145076582Y-88146231D01*
X144862381Y-88234956D01*
X144669606Y-88363764D01*
X144505664Y-88527706D01*
X144376856Y-88720481D01*
X144288131Y-88934682D01*
X144242900Y-89162076D01*
X144056900Y-89162076D01*
X144011669Y-88934682D01*
X143922944Y-88720481D01*
X143794136Y-88527706D01*
X143630194Y-88363764D01*
X143437419Y-88234956D01*
X143223218Y-88146231D01*
X142995824Y-88101000D01*
X142763976Y-88101000D01*
X142536582Y-88146231D01*
X142322381Y-88234956D01*
X142129606Y-88363764D01*
X141965664Y-88527706D01*
X141836856Y-88720481D01*
X141768636Y-88885179D01*
X141684057Y-88646748D01*
X141535078Y-88396645D01*
X141340169Y-88180412D01*
X141106820Y-88006359D01*
X140843999Y-87881175D01*
X140735288Y-87848201D01*
X140897419Y-87781044D01*
X141090194Y-87652236D01*
X141254136Y-87488294D01*
X141382944Y-87295519D01*
X141471669Y-87081318D01*
X141516900Y-86853924D01*
X141516900Y-86622076D01*
X141702900Y-86622076D01*
X141702900Y-86853924D01*
X141748131Y-87081318D01*
X141836856Y-87295519D01*
X141965664Y-87488294D01*
X142129606Y-87652236D01*
X142322381Y-87781044D01*
X142536582Y-87869769D01*
X142763976Y-87915000D01*
X142995824Y-87915000D01*
X143223218Y-87869769D01*
X143437419Y-87781044D01*
X143630194Y-87652236D01*
X143794136Y-87488294D01*
X143922944Y-87295519D01*
X144011669Y-87081318D01*
X144056900Y-86853924D01*
X144056900Y-86622076D01*
X144242900Y-86622076D01*
X144242900Y-86853924D01*
X144288131Y-87081318D01*
X144376856Y-87295519D01*
X144505664Y-87488294D01*
X144669606Y-87652236D01*
X144862381Y-87781044D01*
X145076582Y-87869769D01*
X145303976Y-87915000D01*
X145535824Y-87915000D01*
X145763218Y-87869769D01*
X145977419Y-87781044D01*
X146170194Y-87652236D01*
X146334136Y-87488294D01*
X146462944Y-87295519D01*
X146551669Y-87081318D01*
X146596900Y-86853924D01*
X146596900Y-86622076D01*
X146782900Y-86622076D01*
X146782900Y-86853924D01*
X146828131Y-87081318D01*
X146916856Y-87295519D01*
X147045664Y-87488294D01*
X147209606Y-87652236D01*
X147402381Y-87781044D01*
X147616582Y-87869769D01*
X147843976Y-87915000D01*
X148075824Y-87915000D01*
X148303218Y-87869769D01*
X148517419Y-87781044D01*
X148710194Y-87652236D01*
X148874136Y-87488294D01*
X149002944Y-87295519D01*
X149091669Y-87081318D01*
X149136900Y-86853924D01*
X149136900Y-86622076D01*
X149322900Y-86622076D01*
X149322900Y-86853924D01*
X149368131Y-87081318D01*
X149456856Y-87295519D01*
X149585664Y-87488294D01*
X149749606Y-87652236D01*
X149942381Y-87781044D01*
X150156582Y-87869769D01*
X150383976Y-87915000D01*
X150615824Y-87915000D01*
X150843218Y-87869769D01*
X151057419Y-87781044D01*
X151250194Y-87652236D01*
X151414136Y-87488294D01*
X151542944Y-87295519D01*
X151631669Y-87081318D01*
X151676900Y-86853924D01*
X151676900Y-86622076D01*
X151862900Y-86622076D01*
X151862900Y-86853924D01*
X151908131Y-87081318D01*
X151996856Y-87295519D01*
X152125664Y-87488294D01*
X152289606Y-87652236D01*
X152482381Y-87781044D01*
X152696582Y-87869769D01*
X152923976Y-87915000D01*
X153155824Y-87915000D01*
X153383218Y-87869769D01*
X153597419Y-87781044D01*
X153790194Y-87652236D01*
X153954136Y-87488294D01*
X154082944Y-87295519D01*
X154171669Y-87081318D01*
X154216900Y-86853924D01*
X154216900Y-86622076D01*
X154402900Y-86622076D01*
X154402900Y-86853924D01*
X154448131Y-87081318D01*
X154536856Y-87295519D01*
X154665664Y-87488294D01*
X154829606Y-87652236D01*
X155022381Y-87781044D01*
X155236582Y-87869769D01*
X155463976Y-87915000D01*
X155695824Y-87915000D01*
X155923218Y-87869769D01*
X156137419Y-87781044D01*
X156330194Y-87652236D01*
X156494136Y-87488294D01*
X156622944Y-87295519D01*
X156711669Y-87081318D01*
X156756900Y-86853924D01*
X156756900Y-86622076D01*
X156942900Y-86622076D01*
X156942900Y-86853924D01*
X156988131Y-87081318D01*
X157076856Y-87295519D01*
X157205664Y-87488294D01*
X157369606Y-87652236D01*
X157562381Y-87781044D01*
X157776582Y-87869769D01*
X158003976Y-87915000D01*
X158235824Y-87915000D01*
X158463218Y-87869769D01*
X158677419Y-87781044D01*
X158870194Y-87652236D01*
X159034136Y-87488294D01*
X159162944Y-87295519D01*
X159251669Y-87081318D01*
X159296900Y-86853924D01*
X159296900Y-86622076D01*
X159482900Y-86622076D01*
X159482900Y-86853924D01*
X159528131Y-87081318D01*
X159616856Y-87295519D01*
X159745664Y-87488294D01*
X159909606Y-87652236D01*
X160102381Y-87781044D01*
X160316582Y-87869769D01*
X160543976Y-87915000D01*
X160775824Y-87915000D01*
X161003218Y-87869769D01*
X161217419Y-87781044D01*
X161410194Y-87652236D01*
X161574136Y-87488294D01*
X161702944Y-87295519D01*
X161791669Y-87081318D01*
X161836900Y-86853924D01*
X161836900Y-86622076D01*
X161791669Y-86394682D01*
X161702944Y-86180481D01*
X161574136Y-85987706D01*
X161474430Y-85888000D01*
X162021318Y-85888000D01*
X162021318Y-87588000D01*
X162027632Y-87652103D01*
X162046330Y-87713743D01*
X162076694Y-87770550D01*
X162117557Y-87820343D01*
X162167350Y-87861206D01*
X162224157Y-87891570D01*
X162285797Y-87910268D01*
X162349900Y-87916582D01*
X164049900Y-87916582D01*
X164114003Y-87910268D01*
X164175643Y-87891570D01*
X164232450Y-87861206D01*
X164282243Y-87820343D01*
X164323106Y-87770550D01*
X164353470Y-87713743D01*
X164372168Y-87652103D01*
X164378482Y-87588000D01*
X164378482Y-85888000D01*
X164372168Y-85823897D01*
X164353470Y-85762257D01*
X164323106Y-85705450D01*
X164282243Y-85655657D01*
X164232450Y-85614794D01*
X164175643Y-85584430D01*
X164114003Y-85565732D01*
X164049900Y-85559418D01*
X162349900Y-85559418D01*
X162285797Y-85565732D01*
X162224157Y-85584430D01*
X162167350Y-85614794D01*
X162117557Y-85655657D01*
X162076694Y-85705450D01*
X162046330Y-85762257D01*
X162027632Y-85823897D01*
X162021318Y-85888000D01*
X161474430Y-85888000D01*
X161410194Y-85823764D01*
X161217419Y-85694956D01*
X161003218Y-85606231D01*
X160775824Y-85561000D01*
X160543976Y-85561000D01*
X160316582Y-85606231D01*
X160102381Y-85694956D01*
X159909606Y-85823764D01*
X159745664Y-85987706D01*
X159616856Y-86180481D01*
X159528131Y-86394682D01*
X159482900Y-86622076D01*
X159296900Y-86622076D01*
X159251669Y-86394682D01*
X159162944Y-86180481D01*
X159034136Y-85987706D01*
X158870194Y-85823764D01*
X158677419Y-85694956D01*
X158463218Y-85606231D01*
X158235824Y-85561000D01*
X158003976Y-85561000D01*
X157776582Y-85606231D01*
X157562381Y-85694956D01*
X157369606Y-85823764D01*
X157205664Y-85987706D01*
X157076856Y-86180481D01*
X156988131Y-86394682D01*
X156942900Y-86622076D01*
X156756900Y-86622076D01*
X156711669Y-86394682D01*
X156622944Y-86180481D01*
X156494136Y-85987706D01*
X156330194Y-85823764D01*
X156137419Y-85694956D01*
X155923218Y-85606231D01*
X155695824Y-85561000D01*
X155463976Y-85561000D01*
X155236582Y-85606231D01*
X155022381Y-85694956D01*
X154829606Y-85823764D01*
X154665664Y-85987706D01*
X154536856Y-86180481D01*
X154448131Y-86394682D01*
X154402900Y-86622076D01*
X154216900Y-86622076D01*
X154171669Y-86394682D01*
X154082944Y-86180481D01*
X153954136Y-85987706D01*
X153790194Y-85823764D01*
X153597419Y-85694956D01*
X153383218Y-85606231D01*
X153155824Y-85561000D01*
X152923976Y-85561000D01*
X152696582Y-85606231D01*
X152482381Y-85694956D01*
X152289606Y-85823764D01*
X152125664Y-85987706D01*
X151996856Y-86180481D01*
X151908131Y-86394682D01*
X151862900Y-86622076D01*
X151676900Y-86622076D01*
X151631669Y-86394682D01*
X151542944Y-86180481D01*
X151414136Y-85987706D01*
X151250194Y-85823764D01*
X151057419Y-85694956D01*
X150843218Y-85606231D01*
X150615824Y-85561000D01*
X150383976Y-85561000D01*
X150156582Y-85606231D01*
X149942381Y-85694956D01*
X149749606Y-85823764D01*
X149585664Y-85987706D01*
X149456856Y-86180481D01*
X149368131Y-86394682D01*
X149322900Y-86622076D01*
X149136900Y-86622076D01*
X149091669Y-86394682D01*
X149002944Y-86180481D01*
X148874136Y-85987706D01*
X148710194Y-85823764D01*
X148517419Y-85694956D01*
X148303218Y-85606231D01*
X148075824Y-85561000D01*
X147843976Y-85561000D01*
X147616582Y-85606231D01*
X147402381Y-85694956D01*
X147209606Y-85823764D01*
X147045664Y-85987706D01*
X146916856Y-86180481D01*
X146828131Y-86394682D01*
X146782900Y-86622076D01*
X146596900Y-86622076D01*
X146551669Y-86394682D01*
X146462944Y-86180481D01*
X146334136Y-85987706D01*
X146170194Y-85823764D01*
X145977419Y-85694956D01*
X145763218Y-85606231D01*
X145535824Y-85561000D01*
X145303976Y-85561000D01*
X145076582Y-85606231D01*
X144862381Y-85694956D01*
X144669606Y-85823764D01*
X144505664Y-85987706D01*
X144376856Y-86180481D01*
X144288131Y-86394682D01*
X144242900Y-86622076D01*
X144056900Y-86622076D01*
X144011669Y-86394682D01*
X143922944Y-86180481D01*
X143794136Y-85987706D01*
X143630194Y-85823764D01*
X143437419Y-85694956D01*
X143223218Y-85606231D01*
X142995824Y-85561000D01*
X142763976Y-85561000D01*
X142536582Y-85606231D01*
X142322381Y-85694956D01*
X142129606Y-85823764D01*
X141965664Y-85987706D01*
X141836856Y-86180481D01*
X141748131Y-86394682D01*
X141702900Y-86622076D01*
X141516900Y-86622076D01*
X141471669Y-86394682D01*
X141382944Y-86180481D01*
X141254136Y-85987706D01*
X141090194Y-85823764D01*
X140897419Y-85694956D01*
X140683218Y-85606231D01*
X140455824Y-85561000D01*
X140223976Y-85561000D01*
X139996582Y-85606231D01*
X139782381Y-85694956D01*
X139589606Y-85823764D01*
X139425664Y-85987706D01*
X139296856Y-86180481D01*
X139208131Y-86394682D01*
X139162900Y-86622076D01*
X139162900Y-86853924D01*
X139208131Y-87081318D01*
X139296856Y-87295519D01*
X139425664Y-87488294D01*
X139589606Y-87652236D01*
X139782381Y-87781044D01*
X139944512Y-87848201D01*
X139835801Y-87881175D01*
X139572980Y-88006359D01*
X139339631Y-88180412D01*
X139144722Y-88396645D01*
X138995743Y-88646748D01*
X138911164Y-88885179D01*
X138842944Y-88720481D01*
X138714136Y-88527706D01*
X138550194Y-88363764D01*
X138357419Y-88234956D01*
X138143218Y-88146231D01*
X137915824Y-88101000D01*
X137683976Y-88101000D01*
X137456582Y-88146231D01*
X137242381Y-88234956D01*
X137049606Y-88363764D01*
X136885664Y-88527706D01*
X136756856Y-88720481D01*
X136668131Y-88934682D01*
X136622900Y-89162076D01*
X136436900Y-89162076D01*
X136391669Y-88934682D01*
X136302944Y-88720481D01*
X136174136Y-88527706D01*
X136010194Y-88363764D01*
X135817419Y-88234956D01*
X135603218Y-88146231D01*
X135375824Y-88101000D01*
X135143976Y-88101000D01*
X134916582Y-88146231D01*
X134702381Y-88234956D01*
X134509606Y-88363764D01*
X134345664Y-88527706D01*
X134216856Y-88720481D01*
X134128131Y-88934682D01*
X134082900Y-89162076D01*
X133896900Y-89162076D01*
X133851669Y-88934682D01*
X133762944Y-88720481D01*
X133634136Y-88527706D01*
X133470194Y-88363764D01*
X133277419Y-88234956D01*
X133063218Y-88146231D01*
X132835824Y-88101000D01*
X132603976Y-88101000D01*
X132376582Y-88146231D01*
X132162381Y-88234956D01*
X131969606Y-88363764D01*
X131805664Y-88527706D01*
X131676856Y-88720481D01*
X131588131Y-88934682D01*
X131542900Y-89162076D01*
X131356900Y-89162076D01*
X131311669Y-88934682D01*
X131222944Y-88720481D01*
X131094136Y-88527706D01*
X130930194Y-88363764D01*
X130737419Y-88234956D01*
X130523218Y-88146231D01*
X130295824Y-88101000D01*
X130063976Y-88101000D01*
X129836582Y-88146231D01*
X129622381Y-88234956D01*
X129429606Y-88363764D01*
X129265664Y-88527706D01*
X129136856Y-88720481D01*
X129048131Y-88934682D01*
X129002900Y-89162076D01*
X128816900Y-89162076D01*
X128771669Y-88934682D01*
X128682944Y-88720481D01*
X128554136Y-88527706D01*
X128390194Y-88363764D01*
X128197419Y-88234956D01*
X127983218Y-88146231D01*
X127755824Y-88101000D01*
X127523976Y-88101000D01*
X127296582Y-88146231D01*
X127082381Y-88234956D01*
X126889606Y-88363764D01*
X126725664Y-88527706D01*
X126596856Y-88720481D01*
X126508131Y-88934682D01*
X126462900Y-89162076D01*
X126276900Y-89162076D01*
X126231669Y-88934682D01*
X126142944Y-88720481D01*
X126014136Y-88527706D01*
X125850194Y-88363764D01*
X125657419Y-88234956D01*
X125443218Y-88146231D01*
X125215824Y-88101000D01*
X124983976Y-88101000D01*
X124756582Y-88146231D01*
X124542381Y-88234956D01*
X124349606Y-88363764D01*
X124185664Y-88527706D01*
X124056856Y-88720481D01*
X123968131Y-88934682D01*
X123922900Y-89162076D01*
X123736900Y-89162076D01*
X123691669Y-88934682D01*
X123602944Y-88720481D01*
X123474136Y-88527706D01*
X123310194Y-88363764D01*
X123117419Y-88234956D01*
X122903218Y-88146231D01*
X122675824Y-88101000D01*
X122443976Y-88101000D01*
X122216582Y-88146231D01*
X122002381Y-88234956D01*
X121809606Y-88363764D01*
X121645664Y-88527706D01*
X121516856Y-88720481D01*
X121428131Y-88934682D01*
X121382900Y-89162076D01*
X121196900Y-89162076D01*
X121151669Y-88934682D01*
X121062944Y-88720481D01*
X120934136Y-88527706D01*
X120770194Y-88363764D01*
X120577419Y-88234956D01*
X120363218Y-88146231D01*
X120135824Y-88101000D01*
X119903976Y-88101000D01*
X119676582Y-88146231D01*
X119462381Y-88234956D01*
X119269606Y-88363764D01*
X119105664Y-88527706D01*
X118976856Y-88720481D01*
X118888131Y-88934682D01*
X118842900Y-89162076D01*
X118656900Y-89162076D01*
X118611669Y-88934682D01*
X118522944Y-88720481D01*
X118394136Y-88527706D01*
X118230194Y-88363764D01*
X118037419Y-88234956D01*
X117823218Y-88146231D01*
X117595824Y-88101000D01*
X117363976Y-88101000D01*
X117136582Y-88146231D01*
X116922381Y-88234956D01*
X116729606Y-88363764D01*
X116566901Y-88526469D01*
X116566901Y-88290222D01*
X117031063Y-87826061D01*
X117136582Y-87869769D01*
X117363976Y-87915000D01*
X117595824Y-87915000D01*
X117823218Y-87869769D01*
X118037419Y-87781044D01*
X118230194Y-87652236D01*
X118394136Y-87488294D01*
X118522944Y-87295519D01*
X118611669Y-87081318D01*
X118656900Y-86853924D01*
X118656900Y-86622076D01*
X118842900Y-86622076D01*
X118842900Y-86853924D01*
X118888131Y-87081318D01*
X118976856Y-87295519D01*
X119105664Y-87488294D01*
X119269606Y-87652236D01*
X119462381Y-87781044D01*
X119676582Y-87869769D01*
X119903976Y-87915000D01*
X120135824Y-87915000D01*
X120363218Y-87869769D01*
X120577419Y-87781044D01*
X120770194Y-87652236D01*
X120934136Y-87488294D01*
X121062944Y-87295519D01*
X121151669Y-87081318D01*
X121196900Y-86853924D01*
X121196900Y-86622076D01*
X121151669Y-86394682D01*
X121062944Y-86180481D01*
X120934136Y-85987706D01*
X120770194Y-85823764D01*
X120577419Y-85694956D01*
X120363218Y-85606231D01*
X120135824Y-85561000D01*
X119903976Y-85561000D01*
X119676582Y-85606231D01*
X119462381Y-85694956D01*
X119269606Y-85823764D01*
X119105664Y-85987706D01*
X118976856Y-86180481D01*
X118888131Y-86394682D01*
X118842900Y-86622076D01*
X118656900Y-86622076D01*
X118611669Y-86394682D01*
X118522944Y-86180481D01*
X118394136Y-85987706D01*
X118230194Y-85823764D01*
X118037419Y-85694956D01*
X117823218Y-85606231D01*
X117595824Y-85561000D01*
X117363976Y-85561000D01*
X117136582Y-85606231D01*
X116922381Y-85694956D01*
X116729606Y-85823764D01*
X116565664Y-85987706D01*
X116436856Y-86180481D01*
X116348131Y-86394682D01*
X116302900Y-86622076D01*
X116302900Y-86853924D01*
X116348131Y-87081318D01*
X116391839Y-87186837D01*
X115811001Y-87767676D01*
X115793742Y-87781840D01*
X115737258Y-87850667D01*
X115715395Y-87891570D01*
X115695287Y-87929190D01*
X115669441Y-88014392D01*
X115660714Y-88102999D01*
X115662901Y-88125204D01*
X115662901Y-88345527D01*
X115497419Y-88234956D01*
X115283218Y-88146231D01*
X115055824Y-88101000D01*
X114823976Y-88101000D01*
X114596582Y-88146231D01*
X114382381Y-88234956D01*
X114189606Y-88363764D01*
X114025664Y-88527706D01*
X113896856Y-88720481D01*
X113808131Y-88934682D01*
X113762900Y-89162076D01*
X113762900Y-89393924D01*
X113808131Y-89621318D01*
X113896856Y-89835519D01*
X114025664Y-90028294D01*
X114189606Y-90192236D01*
X114382381Y-90321044D01*
X114596582Y-90409769D01*
X114823976Y-90455000D01*
X115055824Y-90455000D01*
X115283218Y-90409769D01*
X115497419Y-90321044D01*
X115662901Y-90210472D01*
X115662902Y-95177874D01*
X110572513Y-100268263D01*
X110456250Y-100152000D01*
X109207000Y-100152000D01*
X109207000Y-100172000D01*
X108953000Y-100172000D01*
X108953000Y-100152000D01*
X108933000Y-100152000D01*
X108933000Y-99898000D01*
X108953000Y-99898000D01*
X108953000Y-99878000D01*
X109207000Y-99878000D01*
X109207000Y-99898000D01*
X110456250Y-99898000D01*
X110615000Y-99739250D01*
X110618072Y-99725000D01*
X110605812Y-99600518D01*
X110569502Y-99480820D01*
X110510537Y-99370506D01*
X110431185Y-99273815D01*
X110334494Y-99194463D01*
X110308057Y-99180332D01*
X110308582Y-99175000D01*
X110308582Y-98425000D01*
X110302268Y-98360897D01*
X110283570Y-98299257D01*
X110253206Y-98242450D01*
X110212343Y-98192657D01*
X110162550Y-98151794D01*
X110105743Y-98121430D01*
X110044103Y-98102732D01*
X109980000Y-98096418D01*
X108933153Y-98096418D01*
X108957000Y-97976528D01*
X108957000Y-97823472D01*
X108927141Y-97673357D01*
X108868569Y-97531952D01*
X108783536Y-97404691D01*
X108675309Y-97296464D01*
X108548048Y-97211431D01*
X108406643Y-97152859D01*
X108256528Y-97123000D01*
X108103472Y-97123000D01*
X107953357Y-97152859D01*
X107811952Y-97211431D01*
X107756436Y-97248526D01*
X107705743Y-97221430D01*
X107644103Y-97202732D01*
X107580000Y-97196418D01*
X106902000Y-97196418D01*
X106902000Y-90853582D01*
X107580000Y-90853582D01*
X107644103Y-90847268D01*
X107705743Y-90828570D01*
X107756436Y-90801474D01*
X107811952Y-90838569D01*
X107953357Y-90897141D01*
X108103472Y-90927000D01*
X108256528Y-90927000D01*
X108406643Y-90897141D01*
X108548048Y-90838569D01*
X108675309Y-90753536D01*
X108783536Y-90645309D01*
X108868569Y-90518048D01*
X108927141Y-90376643D01*
X108957000Y-90226528D01*
X108957000Y-90073472D01*
X108933153Y-89953582D01*
X109980000Y-89953582D01*
X110044103Y-89947268D01*
X110105743Y-89928570D01*
X110162550Y-89898206D01*
X110212343Y-89857343D01*
X110253206Y-89807550D01*
X110283570Y-89750743D01*
X110299777Y-89697315D01*
X110318607Y-89695460D01*
X110403810Y-89669614D01*
X110482333Y-89627643D01*
X110508705Y-89606000D01*
X110535391Y-89606000D01*
X110557872Y-89621021D01*
X110653780Y-89660748D01*
X110755595Y-89681000D01*
X110859405Y-89681000D01*
X110961220Y-89660748D01*
X111057128Y-89621021D01*
X111143443Y-89563348D01*
X111216848Y-89489943D01*
X111274521Y-89403628D01*
X111314248Y-89307720D01*
X111334500Y-89205905D01*
X111334500Y-89102095D01*
X111314248Y-89000280D01*
X111274521Y-88904372D01*
X111216848Y-88818057D01*
X111143443Y-88744652D01*
X111057128Y-88686979D01*
X110961220Y-88647252D01*
X110859405Y-88627000D01*
X110755595Y-88627000D01*
X110653780Y-88647252D01*
X110557872Y-88686979D01*
X110535391Y-88702000D01*
X110492067Y-88702000D01*
X110510537Y-88679494D01*
X110569502Y-88569180D01*
X110605812Y-88449482D01*
X110618072Y-88325000D01*
X110615000Y-88310750D01*
X110456250Y-88152000D01*
X109207000Y-88152000D01*
X109207000Y-88172000D01*
X108953000Y-88172000D01*
X108953000Y-88152000D01*
X108933000Y-88152000D01*
X108933000Y-87898000D01*
X108953000Y-87898000D01*
X108953000Y-87878000D01*
X109207000Y-87878000D01*
X109207000Y-87898000D01*
X110456250Y-87898000D01*
X110615000Y-87739250D01*
X110618072Y-87725000D01*
X110605812Y-87600518D01*
X110569502Y-87480820D01*
X110510537Y-87370506D01*
X110431185Y-87273815D01*
X110334494Y-87194463D01*
X110308057Y-87180332D01*
X110308582Y-87175000D01*
X110308582Y-86622076D01*
X113762900Y-86622076D01*
X113762900Y-86853924D01*
X113808131Y-87081318D01*
X113896856Y-87295519D01*
X114025664Y-87488294D01*
X114189606Y-87652236D01*
X114382381Y-87781044D01*
X114596582Y-87869769D01*
X114823976Y-87915000D01*
X115055824Y-87915000D01*
X115283218Y-87869769D01*
X115497419Y-87781044D01*
X115690194Y-87652236D01*
X115854136Y-87488294D01*
X115982944Y-87295519D01*
X116071669Y-87081318D01*
X116116900Y-86853924D01*
X116116900Y-86622076D01*
X116071669Y-86394682D01*
X115982944Y-86180481D01*
X115854136Y-85987706D01*
X115690194Y-85823764D01*
X115497419Y-85694956D01*
X115283218Y-85606231D01*
X115055824Y-85561000D01*
X114823976Y-85561000D01*
X114596582Y-85606231D01*
X114382381Y-85694956D01*
X114189606Y-85823764D01*
X114025664Y-85987706D01*
X113896856Y-86180481D01*
X113808131Y-86394682D01*
X113762900Y-86622076D01*
X110308582Y-86622076D01*
X110308582Y-86425000D01*
X110302268Y-86360897D01*
X110283570Y-86299257D01*
X110253206Y-86242450D01*
X110212343Y-86192657D01*
X110162550Y-86151794D01*
X110105743Y-86121430D01*
X110044103Y-86102732D01*
X109980000Y-86096418D01*
X108933153Y-86096418D01*
X108957000Y-85976528D01*
X108957000Y-85823472D01*
X108927141Y-85673357D01*
X108868569Y-85531952D01*
X108783536Y-85404691D01*
X108675309Y-85296464D01*
X108548048Y-85211431D01*
X108406643Y-85152859D01*
X108256528Y-85123000D01*
X108103472Y-85123000D01*
X107953357Y-85152859D01*
X107811952Y-85211431D01*
X107756436Y-85248526D01*
X107705743Y-85221430D01*
X107644103Y-85202732D01*
X107580000Y-85196418D01*
X106902000Y-85196418D01*
X106902000Y-78853582D01*
X107580000Y-78853582D01*
X107644103Y-78847268D01*
X107705743Y-78828570D01*
X107756436Y-78801474D01*
X107811952Y-78838569D01*
X107953357Y-78897141D01*
X108103472Y-78927000D01*
X108256528Y-78927000D01*
X108406643Y-78897141D01*
X108548048Y-78838569D01*
X108675309Y-78753536D01*
X108783536Y-78645309D01*
X108868569Y-78518048D01*
X108927141Y-78376643D01*
X108957000Y-78226528D01*
X108957000Y-78073472D01*
X108933153Y-77953582D01*
X109980000Y-77953582D01*
X110044103Y-77947268D01*
X110105743Y-77928570D01*
X110162550Y-77898206D01*
X110212343Y-77857343D01*
X110253206Y-77807550D01*
X110283570Y-77750743D01*
X110298356Y-77702000D01*
X112884677Y-77702000D01*
X121471838Y-86289163D01*
X121428131Y-86394682D01*
X121382900Y-86622076D01*
X121382900Y-86853924D01*
X121428131Y-87081318D01*
X121516856Y-87295519D01*
X121645664Y-87488294D01*
X121809606Y-87652236D01*
X122002381Y-87781044D01*
X122216582Y-87869769D01*
X122443976Y-87915000D01*
X122675824Y-87915000D01*
X122903218Y-87869769D01*
X123117419Y-87781044D01*
X123310194Y-87652236D01*
X123474136Y-87488294D01*
X123602944Y-87295519D01*
X123691669Y-87081318D01*
X123736900Y-86853924D01*
X123736900Y-86622076D01*
X123922900Y-86622076D01*
X123922900Y-86853924D01*
X123968131Y-87081318D01*
X124056856Y-87295519D01*
X124185664Y-87488294D01*
X124349606Y-87652236D01*
X124542381Y-87781044D01*
X124756582Y-87869769D01*
X124983976Y-87915000D01*
X125215824Y-87915000D01*
X125443218Y-87869769D01*
X125657419Y-87781044D01*
X125850194Y-87652236D01*
X126014136Y-87488294D01*
X126142944Y-87295519D01*
X126231669Y-87081318D01*
X126276900Y-86853924D01*
X126276900Y-86622076D01*
X126462900Y-86622076D01*
X126462900Y-86853924D01*
X126508131Y-87081318D01*
X126596856Y-87295519D01*
X126725664Y-87488294D01*
X126889606Y-87652236D01*
X127082381Y-87781044D01*
X127296582Y-87869769D01*
X127523976Y-87915000D01*
X127755824Y-87915000D01*
X127983218Y-87869769D01*
X128197419Y-87781044D01*
X128390194Y-87652236D01*
X128554136Y-87488294D01*
X128682944Y-87295519D01*
X128771669Y-87081318D01*
X128816900Y-86853924D01*
X128816900Y-86622076D01*
X129002900Y-86622076D01*
X129002900Y-86853924D01*
X129048131Y-87081318D01*
X129136856Y-87295519D01*
X129265664Y-87488294D01*
X129429606Y-87652236D01*
X129622381Y-87781044D01*
X129836582Y-87869769D01*
X130063976Y-87915000D01*
X130295824Y-87915000D01*
X130523218Y-87869769D01*
X130737419Y-87781044D01*
X130930194Y-87652236D01*
X131094136Y-87488294D01*
X131222944Y-87295519D01*
X131311669Y-87081318D01*
X131356900Y-86853924D01*
X131356900Y-86622076D01*
X131542900Y-86622076D01*
X131542900Y-86853924D01*
X131588131Y-87081318D01*
X131676856Y-87295519D01*
X131805664Y-87488294D01*
X131969606Y-87652236D01*
X132162381Y-87781044D01*
X132376582Y-87869769D01*
X132603976Y-87915000D01*
X132835824Y-87915000D01*
X133063218Y-87869769D01*
X133277419Y-87781044D01*
X133470194Y-87652236D01*
X133634136Y-87488294D01*
X133762944Y-87295519D01*
X133851669Y-87081318D01*
X133896900Y-86853924D01*
X133896900Y-86622076D01*
X134082900Y-86622076D01*
X134082900Y-86853924D01*
X134128131Y-87081318D01*
X134216856Y-87295519D01*
X134345664Y-87488294D01*
X134509606Y-87652236D01*
X134702381Y-87781044D01*
X134916582Y-87869769D01*
X135143976Y-87915000D01*
X135375824Y-87915000D01*
X135603218Y-87869769D01*
X135817419Y-87781044D01*
X136010194Y-87652236D01*
X136174136Y-87488294D01*
X136302944Y-87295519D01*
X136391669Y-87081318D01*
X136436900Y-86853924D01*
X136436900Y-86622076D01*
X136622900Y-86622076D01*
X136622900Y-86853924D01*
X136668131Y-87081318D01*
X136756856Y-87295519D01*
X136885664Y-87488294D01*
X137049606Y-87652236D01*
X137242381Y-87781044D01*
X137456582Y-87869769D01*
X137683976Y-87915000D01*
X137915824Y-87915000D01*
X138143218Y-87869769D01*
X138357419Y-87781044D01*
X138550194Y-87652236D01*
X138714136Y-87488294D01*
X138842944Y-87295519D01*
X138931669Y-87081318D01*
X138976900Y-86853924D01*
X138976900Y-86622076D01*
X138931669Y-86394682D01*
X138842944Y-86180481D01*
X138714136Y-85987706D01*
X138550194Y-85823764D01*
X138357419Y-85694956D01*
X138143218Y-85606231D01*
X137915824Y-85561000D01*
X137683976Y-85561000D01*
X137456582Y-85606231D01*
X137242381Y-85694956D01*
X137049606Y-85823764D01*
X136885664Y-85987706D01*
X136756856Y-86180481D01*
X136668131Y-86394682D01*
X136622900Y-86622076D01*
X136436900Y-86622076D01*
X136391669Y-86394682D01*
X136302944Y-86180481D01*
X136174136Y-85987706D01*
X136010194Y-85823764D01*
X135817419Y-85694956D01*
X135603218Y-85606231D01*
X135375824Y-85561000D01*
X135143976Y-85561000D01*
X134916582Y-85606231D01*
X134702381Y-85694956D01*
X134509606Y-85823764D01*
X134345664Y-85987706D01*
X134216856Y-86180481D01*
X134128131Y-86394682D01*
X134082900Y-86622076D01*
X133896900Y-86622076D01*
X133851669Y-86394682D01*
X133762944Y-86180481D01*
X133634136Y-85987706D01*
X133470194Y-85823764D01*
X133277419Y-85694956D01*
X133063218Y-85606231D01*
X132835824Y-85561000D01*
X132603976Y-85561000D01*
X132376582Y-85606231D01*
X132162381Y-85694956D01*
X131969606Y-85823764D01*
X131805664Y-85987706D01*
X131676856Y-86180481D01*
X131588131Y-86394682D01*
X131542900Y-86622076D01*
X131356900Y-86622076D01*
X131311669Y-86394682D01*
X131222944Y-86180481D01*
X131094136Y-85987706D01*
X130930194Y-85823764D01*
X130737419Y-85694956D01*
X130523218Y-85606231D01*
X130295824Y-85561000D01*
X130063976Y-85561000D01*
X129836582Y-85606231D01*
X129622381Y-85694956D01*
X129429606Y-85823764D01*
X129265664Y-85987706D01*
X129136856Y-86180481D01*
X129048131Y-86394682D01*
X129002900Y-86622076D01*
X128816900Y-86622076D01*
X128771669Y-86394682D01*
X128682944Y-86180481D01*
X128554136Y-85987706D01*
X128390194Y-85823764D01*
X128197419Y-85694956D01*
X127983218Y-85606231D01*
X127755824Y-85561000D01*
X127523976Y-85561000D01*
X127296582Y-85606231D01*
X127082381Y-85694956D01*
X126889606Y-85823764D01*
X126725664Y-85987706D01*
X126596856Y-86180481D01*
X126508131Y-86394682D01*
X126462900Y-86622076D01*
X126276900Y-86622076D01*
X126231669Y-86394682D01*
X126142944Y-86180481D01*
X126014136Y-85987706D01*
X125850194Y-85823764D01*
X125657419Y-85694956D01*
X125443218Y-85606231D01*
X125215824Y-85561000D01*
X124983976Y-85561000D01*
X124756582Y-85606231D01*
X124542381Y-85694956D01*
X124349606Y-85823764D01*
X124185664Y-85987706D01*
X124056856Y-86180481D01*
X123968131Y-86394682D01*
X123922900Y-86622076D01*
X123736900Y-86622076D01*
X123691669Y-86394682D01*
X123602944Y-86180481D01*
X123474136Y-85987706D01*
X123310194Y-85823764D01*
X123117419Y-85694956D01*
X122903218Y-85606231D01*
X122675824Y-85561000D01*
X122443976Y-85561000D01*
X122216582Y-85606231D01*
X122111063Y-85649938D01*
X113407223Y-76946100D01*
X113393059Y-76928841D01*
X113324233Y-76872357D01*
X113245710Y-76830386D01*
X113160507Y-76804540D01*
X113094105Y-76798000D01*
X113071900Y-76795813D01*
X113049695Y-76798000D01*
X110404603Y-76798000D01*
X110431185Y-76776185D01*
X110510537Y-76679494D01*
X110569502Y-76569180D01*
X110605812Y-76449482D01*
X110618072Y-76325000D01*
X110615000Y-76310750D01*
X110456250Y-76152000D01*
X109207000Y-76152000D01*
X109207000Y-76172000D01*
X108953000Y-76172000D01*
X108953000Y-76152000D01*
X108933000Y-76152000D01*
X108933000Y-75898000D01*
X108953000Y-75898000D01*
X108953000Y-75878000D01*
X109207000Y-75878000D01*
X109207000Y-75898000D01*
X110456250Y-75898000D01*
X110615000Y-75739250D01*
X110618072Y-75725000D01*
X110605812Y-75600518D01*
X110569502Y-75480820D01*
X110510537Y-75370506D01*
X110431185Y-75273815D01*
X110334494Y-75194463D01*
X110308057Y-75180332D01*
X110308582Y-75175000D01*
X110308582Y-74425000D01*
X110302268Y-74360897D01*
X110283570Y-74299257D01*
X110253206Y-74242450D01*
X110212343Y-74192657D01*
X110162550Y-74151794D01*
X110105743Y-74121430D01*
X110044103Y-74102732D01*
X109980000Y-74096418D01*
X108933153Y-74096418D01*
X108957000Y-73976528D01*
X108957000Y-73823472D01*
X108927141Y-73673357D01*
X108868569Y-73531952D01*
X108783536Y-73404691D01*
X108675309Y-73296464D01*
X108548048Y-73211431D01*
X108406643Y-73152859D01*
X108256528Y-73123000D01*
X108103472Y-73123000D01*
X107953357Y-73152859D01*
X107811952Y-73211431D01*
X107756436Y-73248526D01*
X107705743Y-73221430D01*
X107644103Y-73202732D01*
X107580000Y-73196418D01*
X106902000Y-73196418D01*
X106902000Y-71359453D01*
X128573000Y-71359453D01*
X128573000Y-71640547D01*
X128627838Y-71916241D01*
X128735409Y-72175938D01*
X128891576Y-72409660D01*
X129090340Y-72608424D01*
X129324062Y-72764591D01*
X129583759Y-72872162D01*
X129859453Y-72927000D01*
X130140547Y-72927000D01*
X130416241Y-72872162D01*
X130675938Y-72764591D01*
X130909660Y-72608424D01*
X131108424Y-72409660D01*
X131264591Y-72175938D01*
X131372162Y-71916241D01*
X131427000Y-71640547D01*
X131427000Y-71359453D01*
X136573000Y-71359453D01*
X136573000Y-71640547D01*
X136627838Y-71916241D01*
X136735409Y-72175938D01*
X136891576Y-72409660D01*
X137090340Y-72608424D01*
X137324062Y-72764591D01*
X137583759Y-72872162D01*
X137859453Y-72927000D01*
X138140547Y-72927000D01*
X138416241Y-72872162D01*
X138675938Y-72764591D01*
X138909660Y-72608424D01*
X139108424Y-72409660D01*
X139264591Y-72175938D01*
X139372162Y-71916241D01*
X139427000Y-71640547D01*
X139427000Y-71359453D01*
X139372162Y-71083759D01*
X139264591Y-70824062D01*
X139108424Y-70590340D01*
X138909660Y-70391576D01*
X138675938Y-70235409D01*
X138416241Y-70127838D01*
X138140547Y-70073000D01*
X137859453Y-70073000D01*
X137583759Y-70127838D01*
X137324062Y-70235409D01*
X137090340Y-70391576D01*
X136891576Y-70590340D01*
X136735409Y-70824062D01*
X136627838Y-71083759D01*
X136573000Y-71359453D01*
X131427000Y-71359453D01*
X131372162Y-71083759D01*
X131264591Y-70824062D01*
X131108424Y-70590340D01*
X130909660Y-70391576D01*
X130675938Y-70235409D01*
X130416241Y-70127838D01*
X130140547Y-70073000D01*
X129859453Y-70073000D01*
X129583759Y-70127838D01*
X129324062Y-70235409D01*
X129090340Y-70391576D01*
X128891576Y-70590340D01*
X128735409Y-70824062D01*
X128627838Y-71083759D01*
X128573000Y-71359453D01*
X106902000Y-71359453D01*
X106902000Y-69100000D01*
X151686418Y-69100000D01*
X151686418Y-71600000D01*
X151692732Y-71664103D01*
X151711430Y-71725743D01*
X151741794Y-71782550D01*
X151782657Y-71832343D01*
X151832450Y-71873206D01*
X151889257Y-71903570D01*
X151950897Y-71922268D01*
X152015000Y-71928582D01*
X153215000Y-71928582D01*
X153279103Y-71922268D01*
X153340743Y-71903570D01*
X153397550Y-71873206D01*
X153447343Y-71832343D01*
X153488206Y-71782550D01*
X153518570Y-71725743D01*
X153537268Y-71664103D01*
X153543582Y-71600000D01*
X153543582Y-69800000D01*
X154411418Y-69800000D01*
X154411418Y-70900000D01*
X154417732Y-70964103D01*
X154436430Y-71025743D01*
X154466794Y-71082550D01*
X154507657Y-71132343D01*
X154557450Y-71173206D01*
X154614257Y-71203570D01*
X154675897Y-71222268D01*
X154688000Y-71223460D01*
X154688001Y-74440472D01*
X154663479Y-74477172D01*
X154623752Y-74573080D01*
X154603500Y-74674895D01*
X154603500Y-74778705D01*
X154623752Y-74880520D01*
X154663479Y-74976428D01*
X154721152Y-75062743D01*
X154794557Y-75136148D01*
X154880872Y-75193821D01*
X154976780Y-75233548D01*
X155078595Y-75253800D01*
X155182405Y-75253800D01*
X155284220Y-75233548D01*
X155380128Y-75193821D01*
X155466443Y-75136148D01*
X155539848Y-75062743D01*
X155597521Y-74976428D01*
X155637248Y-74880520D01*
X155657500Y-74778705D01*
X155657500Y-74674895D01*
X155637248Y-74573080D01*
X155597521Y-74477172D01*
X155592000Y-74468909D01*
X155592000Y-71223460D01*
X155604103Y-71222268D01*
X155665743Y-71203570D01*
X155722550Y-71173206D01*
X155772343Y-71132343D01*
X155775000Y-71129105D01*
X155777657Y-71132343D01*
X155827450Y-71173206D01*
X155884257Y-71203570D01*
X155945897Y-71222268D01*
X155958000Y-71223460D01*
X155957999Y-73448564D01*
X155874057Y-73504652D01*
X155800652Y-73578057D01*
X155742979Y-73664372D01*
X155703252Y-73760280D01*
X155683000Y-73862095D01*
X155683000Y-73965905D01*
X155703252Y-74067720D01*
X155742979Y-74163628D01*
X155800652Y-74249943D01*
X155874057Y-74323348D01*
X155960372Y-74381021D01*
X156056280Y-74420748D01*
X156158095Y-74441000D01*
X156261905Y-74441000D01*
X156363720Y-74420748D01*
X156459628Y-74381021D01*
X156545943Y-74323348D01*
X156619348Y-74249943D01*
X156677021Y-74163628D01*
X156716748Y-74067720D01*
X156721677Y-74042940D01*
X156731157Y-74035160D01*
X156787641Y-73966334D01*
X156829612Y-73887811D01*
X156837413Y-73862095D01*
X156855459Y-73802609D01*
X156864186Y-73714002D01*
X156861998Y-73691787D01*
X156861999Y-71223460D01*
X156874103Y-71222268D01*
X156935743Y-71203570D01*
X156992550Y-71173206D01*
X157042343Y-71132343D01*
X157045000Y-71129105D01*
X157047657Y-71132343D01*
X157097450Y-71173206D01*
X157154257Y-71203570D01*
X157215897Y-71222268D01*
X157228000Y-71223460D01*
X157228001Y-72178563D01*
X157144057Y-72234652D01*
X157070652Y-72308057D01*
X157012979Y-72394372D01*
X156973252Y-72490280D01*
X156953000Y-72592095D01*
X156953000Y-72695905D01*
X156973252Y-72797720D01*
X157012979Y-72893628D01*
X157070652Y-72979943D01*
X157144057Y-73053348D01*
X157230372Y-73111021D01*
X157326280Y-73150748D01*
X157428095Y-73171000D01*
X157531905Y-73171000D01*
X157633720Y-73150748D01*
X157729628Y-73111021D01*
X157815943Y-73053348D01*
X157889348Y-72979943D01*
X157947021Y-72893628D01*
X157986748Y-72797720D01*
X157991677Y-72772941D01*
X158001159Y-72765159D01*
X158057643Y-72696333D01*
X158099614Y-72617810D01*
X158125460Y-72532607D01*
X158127121Y-72515748D01*
X158134187Y-72444000D01*
X158132000Y-72421795D01*
X158132000Y-71223460D01*
X158144103Y-71222268D01*
X158205743Y-71203570D01*
X158262550Y-71173206D01*
X158312343Y-71132343D01*
X158315000Y-71129105D01*
X158317657Y-71132343D01*
X158367450Y-71173206D01*
X158424257Y-71203570D01*
X158432766Y-71206151D01*
X158414057Y-71218652D01*
X158340652Y-71292057D01*
X158282979Y-71378372D01*
X158243252Y-71474280D01*
X158223000Y-71576095D01*
X158223000Y-71679905D01*
X158243252Y-71781720D01*
X158282979Y-71877628D01*
X158340652Y-71963943D01*
X158414057Y-72037348D01*
X158500372Y-72095021D01*
X158596280Y-72134748D01*
X158698095Y-72155000D01*
X158801905Y-72155000D01*
X158903720Y-72134748D01*
X158999628Y-72095021D01*
X159085943Y-72037348D01*
X159159348Y-71963943D01*
X159217021Y-71877628D01*
X159256748Y-71781720D01*
X159261677Y-71756941D01*
X159271159Y-71749159D01*
X159327643Y-71680333D01*
X159369614Y-71601810D01*
X159395460Y-71516607D01*
X159398869Y-71482000D01*
X159404187Y-71428000D01*
X159402000Y-71405795D01*
X159402000Y-71223460D01*
X159414103Y-71222268D01*
X159475743Y-71203570D01*
X159532550Y-71173206D01*
X159582343Y-71132343D01*
X159585000Y-71129105D01*
X159587657Y-71132343D01*
X159637450Y-71173206D01*
X159694257Y-71203570D01*
X159755897Y-71222268D01*
X159768001Y-71223460D01*
X159768001Y-71642708D01*
X159737652Y-71673057D01*
X159679979Y-71759372D01*
X159640252Y-71855280D01*
X159620000Y-71957095D01*
X159620000Y-72060905D01*
X159640252Y-72162720D01*
X159679979Y-72258628D01*
X159737652Y-72344943D01*
X159811057Y-72418348D01*
X159897372Y-72476021D01*
X159993280Y-72515748D01*
X160095095Y-72536000D01*
X160198905Y-72536000D01*
X160300720Y-72515748D01*
X160396628Y-72476021D01*
X160482943Y-72418348D01*
X160556348Y-72344943D01*
X160614021Y-72258628D01*
X160653748Y-72162720D01*
X160674000Y-72060905D01*
X160674000Y-71957095D01*
X160672735Y-71950738D01*
X160674187Y-71936000D01*
X160672000Y-71913795D01*
X160672000Y-71223460D01*
X160684103Y-71222268D01*
X160745743Y-71203570D01*
X160802550Y-71173206D01*
X160852343Y-71132343D01*
X160855000Y-71129105D01*
X160857657Y-71132343D01*
X160907450Y-71173206D01*
X160964257Y-71203570D01*
X161025897Y-71222268D01*
X161090000Y-71228582D01*
X161890000Y-71228582D01*
X161954103Y-71222268D01*
X162015743Y-71203570D01*
X162072550Y-71173206D01*
X162122343Y-71132343D01*
X162163206Y-71082550D01*
X162193570Y-71025743D01*
X162212268Y-70964103D01*
X162218582Y-70900000D01*
X162218582Y-69800000D01*
X162212268Y-69735897D01*
X162193570Y-69674257D01*
X162163206Y-69617450D01*
X162122343Y-69567657D01*
X162072550Y-69526794D01*
X162015743Y-69496430D01*
X161954103Y-69477732D01*
X161942000Y-69476540D01*
X161942000Y-69100000D01*
X163086418Y-69100000D01*
X163086418Y-71600000D01*
X163092732Y-71664103D01*
X163111430Y-71725743D01*
X163141794Y-71782550D01*
X163182657Y-71832343D01*
X163232450Y-71873206D01*
X163289257Y-71903570D01*
X163350897Y-71922268D01*
X163415000Y-71928582D01*
X164615000Y-71928582D01*
X164679103Y-71922268D01*
X164740743Y-71903570D01*
X164797550Y-71873206D01*
X164847343Y-71832343D01*
X164888206Y-71782550D01*
X164918570Y-71725743D01*
X164937268Y-71664103D01*
X164943582Y-71600000D01*
X164943582Y-69100000D01*
X164937268Y-69035897D01*
X164918570Y-68974257D01*
X164888206Y-68917450D01*
X164847343Y-68867657D01*
X164797550Y-68826794D01*
X164740743Y-68796430D01*
X164679103Y-68777732D01*
X164615000Y-68771418D01*
X163415000Y-68771418D01*
X163350897Y-68777732D01*
X163289257Y-68796430D01*
X163232450Y-68826794D01*
X163182657Y-68867657D01*
X163141794Y-68917450D01*
X163111430Y-68974257D01*
X163092732Y-69035897D01*
X163086418Y-69100000D01*
X161942000Y-69100000D01*
X161942000Y-68992704D01*
X161944187Y-68970499D01*
X161935460Y-68881893D01*
X161909614Y-68796691D01*
X161909614Y-68796690D01*
X161867643Y-68718167D01*
X161811159Y-68649341D01*
X161805941Y-68645059D01*
X161801659Y-68639841D01*
X161732833Y-68583357D01*
X161654310Y-68541386D01*
X161569107Y-68515540D01*
X161502705Y-68509000D01*
X161480500Y-68506813D01*
X161458295Y-68509000D01*
X159772109Y-68509000D01*
X159749628Y-68493979D01*
X159653720Y-68454252D01*
X159551905Y-68434000D01*
X159448095Y-68434000D01*
X159346280Y-68454252D01*
X159250372Y-68493979D01*
X159164057Y-68551652D01*
X159090652Y-68625057D01*
X159032979Y-68711372D01*
X158993252Y-68807280D01*
X158973000Y-68909095D01*
X158973000Y-69012905D01*
X158993252Y-69114720D01*
X159032979Y-69210628D01*
X159090652Y-69296943D01*
X159164057Y-69370348D01*
X159250372Y-69428021D01*
X159346280Y-69467748D01*
X159379180Y-69474292D01*
X159350000Y-69471418D01*
X158550000Y-69471418D01*
X158485897Y-69477732D01*
X158424257Y-69496430D01*
X158367450Y-69526794D01*
X158317657Y-69567657D01*
X158315000Y-69570895D01*
X158312343Y-69567657D01*
X158262550Y-69526794D01*
X158205743Y-69496430D01*
X158144103Y-69477732D01*
X158080000Y-69471418D01*
X157280000Y-69471418D01*
X157215897Y-69477732D01*
X157154257Y-69496430D01*
X157097450Y-69526794D01*
X157047657Y-69567657D01*
X157045000Y-69570895D01*
X157042343Y-69567657D01*
X156992550Y-69526794D01*
X156935743Y-69496430D01*
X156874103Y-69477732D01*
X156810000Y-69471418D01*
X156010000Y-69471418D01*
X155945897Y-69477732D01*
X155884257Y-69496430D01*
X155827450Y-69526794D01*
X155777657Y-69567657D01*
X155775000Y-69570895D01*
X155772343Y-69567657D01*
X155722550Y-69526794D01*
X155665743Y-69496430D01*
X155604103Y-69477732D01*
X155540000Y-69471418D01*
X154740000Y-69471418D01*
X154675897Y-69477732D01*
X154614257Y-69496430D01*
X154557450Y-69526794D01*
X154507657Y-69567657D01*
X154466794Y-69617450D01*
X154436430Y-69674257D01*
X154417732Y-69735897D01*
X154411418Y-69800000D01*
X153543582Y-69800000D01*
X153543582Y-69100000D01*
X153537268Y-69035897D01*
X153518570Y-68974257D01*
X153488206Y-68917450D01*
X153447343Y-68867657D01*
X153397550Y-68826794D01*
X153340743Y-68796430D01*
X153279103Y-68777732D01*
X153215000Y-68771418D01*
X152015000Y-68771418D01*
X151950897Y-68777732D01*
X151889257Y-68796430D01*
X151832450Y-68826794D01*
X151782657Y-68867657D01*
X151741794Y-68917450D01*
X151711430Y-68974257D01*
X151692732Y-69035897D01*
X151686418Y-69100000D01*
X106902000Y-69100000D01*
X106902000Y-66310207D01*
X109573000Y-66310207D01*
X109573000Y-66689793D01*
X109647053Y-67062085D01*
X109792315Y-67412777D01*
X110003201Y-67728391D01*
X110271609Y-67996799D01*
X110587223Y-68207685D01*
X110937915Y-68352947D01*
X111310207Y-68427000D01*
X111689793Y-68427000D01*
X112062085Y-68352947D01*
X112412777Y-68207685D01*
X112728391Y-67996799D01*
X112996799Y-67728391D01*
X113207685Y-67412777D01*
X113352947Y-67062085D01*
X113427000Y-66689793D01*
X113427000Y-66344679D01*
X123423000Y-66344679D01*
X123423000Y-66655321D01*
X123483604Y-66959994D01*
X123602481Y-67246989D01*
X123775064Y-67505279D01*
X123994721Y-67724936D01*
X124253011Y-67897519D01*
X124540006Y-68016396D01*
X124844679Y-68077000D01*
X125155321Y-68077000D01*
X125459994Y-68016396D01*
X125746989Y-67897519D01*
X126005279Y-67724936D01*
X126224936Y-67505279D01*
X126397519Y-67246989D01*
X126516396Y-66959994D01*
X126577000Y-66655321D01*
X126577000Y-66344679D01*
X141423000Y-66344679D01*
X141423000Y-66655321D01*
X141483604Y-66959994D01*
X141602481Y-67246989D01*
X141775064Y-67505279D01*
X141994721Y-67724936D01*
X142253011Y-67897519D01*
X142540006Y-68016396D01*
X142844679Y-68077000D01*
X143155321Y-68077000D01*
X143459994Y-68016396D01*
X143746989Y-67897519D01*
X144005279Y-67724936D01*
X144224936Y-67505279D01*
X144235813Y-67489000D01*
X151803000Y-67489000D01*
X151803000Y-67711000D01*
X151846310Y-67928734D01*
X151931266Y-68133835D01*
X152054602Y-68318421D01*
X152211579Y-68475398D01*
X152396165Y-68598734D01*
X152601266Y-68683690D01*
X152819000Y-68727000D01*
X153041000Y-68727000D01*
X153258734Y-68683690D01*
X153463835Y-68598734D01*
X153648421Y-68475398D01*
X153805398Y-68318421D01*
X153928734Y-68133835D01*
X154013690Y-67928734D01*
X154057000Y-67711000D01*
X154057000Y-67489000D01*
X162573000Y-67489000D01*
X162573000Y-67711000D01*
X162616310Y-67928734D01*
X162701266Y-68133835D01*
X162824602Y-68318421D01*
X162981579Y-68475398D01*
X163166165Y-68598734D01*
X163371266Y-68683690D01*
X163589000Y-68727000D01*
X163811000Y-68727000D01*
X164028734Y-68683690D01*
X164233835Y-68598734D01*
X164418421Y-68475398D01*
X164575398Y-68318421D01*
X164698734Y-68133835D01*
X164783690Y-67928734D01*
X164827000Y-67711000D01*
X164827000Y-67489000D01*
X164783690Y-67271266D01*
X164698734Y-67066165D01*
X164575398Y-66881579D01*
X164418421Y-66724602D01*
X164233835Y-66601266D01*
X164028734Y-66516310D01*
X163811000Y-66473000D01*
X163589000Y-66473000D01*
X163371266Y-66516310D01*
X163166165Y-66601266D01*
X162981579Y-66724602D01*
X162824602Y-66881579D01*
X162701266Y-67066165D01*
X162616310Y-67271266D01*
X162573000Y-67489000D01*
X154057000Y-67489000D01*
X154013690Y-67271266D01*
X153928734Y-67066165D01*
X153805398Y-66881579D01*
X153648421Y-66724602D01*
X153463835Y-66601266D01*
X153258734Y-66516310D01*
X153041000Y-66473000D01*
X152819000Y-66473000D01*
X152601266Y-66516310D01*
X152396165Y-66601266D01*
X152211579Y-66724602D01*
X152054602Y-66881579D01*
X151931266Y-67066165D01*
X151846310Y-67271266D01*
X151803000Y-67489000D01*
X144235813Y-67489000D01*
X144397519Y-67246989D01*
X144516396Y-66959994D01*
X144577000Y-66655321D01*
X144577000Y-66344679D01*
X144516396Y-66040006D01*
X144397519Y-65753011D01*
X144224936Y-65494721D01*
X144005279Y-65275064D01*
X143746989Y-65102481D01*
X143459994Y-64983604D01*
X143155321Y-64923000D01*
X142844679Y-64923000D01*
X142540006Y-64983604D01*
X142253011Y-65102481D01*
X141994721Y-65275064D01*
X141775064Y-65494721D01*
X141602481Y-65753011D01*
X141483604Y-66040006D01*
X141423000Y-66344679D01*
X126577000Y-66344679D01*
X126516396Y-66040006D01*
X126397519Y-65753011D01*
X126224936Y-65494721D01*
X126005279Y-65275064D01*
X125746989Y-65102481D01*
X125459994Y-64983604D01*
X125155321Y-64923000D01*
X124844679Y-64923000D01*
X124540006Y-64983604D01*
X124253011Y-65102481D01*
X123994721Y-65275064D01*
X123775064Y-65494721D01*
X123602481Y-65753011D01*
X123483604Y-66040006D01*
X123423000Y-66344679D01*
X113427000Y-66344679D01*
X113427000Y-66310207D01*
X113352947Y-65937915D01*
X113207685Y-65587223D01*
X112996799Y-65271609D01*
X112728391Y-65003201D01*
X112412777Y-64792315D01*
X112062085Y-64647053D01*
X111689793Y-64573000D01*
X111310207Y-64573000D01*
X110937915Y-64647053D01*
X110587223Y-64792315D01*
X110271609Y-65003201D01*
X110003201Y-65271609D01*
X109792315Y-65587223D01*
X109647053Y-65937915D01*
X109573000Y-66310207D01*
X106902000Y-66310207D01*
X106902000Y-64519658D01*
X106953369Y-63995758D01*
X107072855Y-63600000D01*
X151686418Y-63600000D01*
X151686418Y-66100000D01*
X151692732Y-66164103D01*
X151711430Y-66225743D01*
X151741794Y-66282550D01*
X151782657Y-66332343D01*
X151832450Y-66373206D01*
X151889257Y-66403570D01*
X151950897Y-66422268D01*
X152015000Y-66428582D01*
X153215000Y-66428582D01*
X153279103Y-66422268D01*
X153340743Y-66403570D01*
X153397550Y-66373206D01*
X153447343Y-66332343D01*
X153488206Y-66282550D01*
X153518570Y-66225743D01*
X153537268Y-66164103D01*
X153543582Y-66100000D01*
X153543582Y-65400000D01*
X154101928Y-65400000D01*
X154114188Y-65524482D01*
X154150498Y-65644180D01*
X154209463Y-65754494D01*
X154288815Y-65851185D01*
X154385506Y-65930537D01*
X154495820Y-65989502D01*
X154615518Y-66025812D01*
X154740000Y-66038072D01*
X154854250Y-66035000D01*
X155013000Y-65876250D01*
X155013000Y-64977000D01*
X155267000Y-64977000D01*
X155267000Y-65876250D01*
X155425750Y-66035000D01*
X155540000Y-66038072D01*
X155664482Y-66025812D01*
X155775000Y-65992287D01*
X155885518Y-66025812D01*
X156010000Y-66038072D01*
X156124250Y-66035000D01*
X156283000Y-65876250D01*
X156283000Y-64977000D01*
X156537000Y-64977000D01*
X156537000Y-65876250D01*
X156695750Y-66035000D01*
X156810000Y-66038072D01*
X156934482Y-66025812D01*
X157045000Y-65992287D01*
X157155518Y-66025812D01*
X157280000Y-66038072D01*
X157394250Y-66035000D01*
X157553000Y-65876250D01*
X157553000Y-64977000D01*
X157807000Y-64977000D01*
X157807000Y-65876250D01*
X157965750Y-66035000D01*
X158080000Y-66038072D01*
X158204482Y-66025812D01*
X158315000Y-65992287D01*
X158425518Y-66025812D01*
X158550000Y-66038072D01*
X158664250Y-66035000D01*
X158823000Y-65876250D01*
X158823000Y-64977000D01*
X157807000Y-64977000D01*
X157553000Y-64977000D01*
X156537000Y-64977000D01*
X156283000Y-64977000D01*
X155267000Y-64977000D01*
X155013000Y-64977000D01*
X154263750Y-64977000D01*
X154105000Y-65135750D01*
X154101928Y-65400000D01*
X153543582Y-65400000D01*
X153543582Y-64300000D01*
X154101928Y-64300000D01*
X154105000Y-64564250D01*
X154263750Y-64723000D01*
X155013000Y-64723000D01*
X155013000Y-63823750D01*
X155267000Y-63823750D01*
X155267000Y-64723000D01*
X156283000Y-64723000D01*
X156283000Y-63823750D01*
X156537000Y-63823750D01*
X156537000Y-64723000D01*
X157553000Y-64723000D01*
X157553000Y-63823750D01*
X157807000Y-63823750D01*
X157807000Y-64723000D01*
X158823000Y-64723000D01*
X158823000Y-63823750D01*
X159077000Y-63823750D01*
X159077000Y-64723000D01*
X159097000Y-64723000D01*
X159097000Y-64977000D01*
X159077000Y-64977000D01*
X159077000Y-65876250D01*
X159235750Y-66035000D01*
X159350000Y-66038072D01*
X159474482Y-66025812D01*
X159593001Y-65989860D01*
X159593001Y-66463196D01*
X159589967Y-66494000D01*
X159602073Y-66616912D01*
X159634741Y-66724602D01*
X159637926Y-66735103D01*
X159696148Y-66844028D01*
X159774500Y-66939501D01*
X159798425Y-66959136D01*
X159852420Y-67013130D01*
X159923973Y-67071853D01*
X160032897Y-67130075D01*
X160151088Y-67165927D01*
X160274000Y-67178033D01*
X160396913Y-67165927D01*
X160515103Y-67130075D01*
X160624028Y-67071853D01*
X160719500Y-66993500D01*
X160797853Y-66898028D01*
X160856075Y-66789103D01*
X160890797Y-66674637D01*
X160891514Y-66677000D01*
X160907926Y-66731103D01*
X160966148Y-66840028D01*
X161044500Y-66935501D01*
X161068423Y-66955134D01*
X161078419Y-66965130D01*
X161149973Y-67023852D01*
X161258897Y-67082074D01*
X161377088Y-67117927D01*
X161499999Y-67130033D01*
X161622912Y-67117927D01*
X161741103Y-67082074D01*
X161850027Y-67023852D01*
X161945500Y-66945500D01*
X162023852Y-66850027D01*
X162082074Y-66741103D01*
X162117927Y-66622912D01*
X162130033Y-66499999D01*
X162117927Y-66377088D01*
X162117000Y-66374032D01*
X162117000Y-65636728D01*
X162122343Y-65632343D01*
X162163206Y-65582550D01*
X162193570Y-65525743D01*
X162212268Y-65464103D01*
X162218582Y-65400000D01*
X162218582Y-64300000D01*
X162212268Y-64235897D01*
X162193570Y-64174257D01*
X162163206Y-64117450D01*
X162122343Y-64067657D01*
X162072550Y-64026794D01*
X162015743Y-63996430D01*
X161954103Y-63977732D01*
X161890000Y-63971418D01*
X161090000Y-63971418D01*
X161025897Y-63977732D01*
X160964257Y-63996430D01*
X160907450Y-64026794D01*
X160857657Y-64067657D01*
X160855000Y-64070895D01*
X160852343Y-64067657D01*
X160802550Y-64026794D01*
X160745743Y-63996430D01*
X160684103Y-63977732D01*
X160620000Y-63971418D01*
X159894387Y-63971418D01*
X159880537Y-63945506D01*
X159801185Y-63848815D01*
X159704494Y-63769463D01*
X159594180Y-63710498D01*
X159474482Y-63674188D01*
X159350000Y-63661928D01*
X159235750Y-63665000D01*
X159077000Y-63823750D01*
X158823000Y-63823750D01*
X158664250Y-63665000D01*
X158550000Y-63661928D01*
X158425518Y-63674188D01*
X158315000Y-63707713D01*
X158204482Y-63674188D01*
X158080000Y-63661928D01*
X157965750Y-63665000D01*
X157807000Y-63823750D01*
X157553000Y-63823750D01*
X157394250Y-63665000D01*
X157280000Y-63661928D01*
X157155518Y-63674188D01*
X157045000Y-63707713D01*
X156934482Y-63674188D01*
X156810000Y-63661928D01*
X156695750Y-63665000D01*
X156537000Y-63823750D01*
X156283000Y-63823750D01*
X156124250Y-63665000D01*
X156010000Y-63661928D01*
X155885518Y-63674188D01*
X155775000Y-63707713D01*
X155664482Y-63674188D01*
X155540000Y-63661928D01*
X155425750Y-63665000D01*
X155267000Y-63823750D01*
X155013000Y-63823750D01*
X154854250Y-63665000D01*
X154740000Y-63661928D01*
X154615518Y-63674188D01*
X154495820Y-63710498D01*
X154385506Y-63769463D01*
X154288815Y-63848815D01*
X154209463Y-63945506D01*
X154150498Y-64055820D01*
X154114188Y-64175518D01*
X154101928Y-64300000D01*
X153543582Y-64300000D01*
X153543582Y-63600000D01*
X163086418Y-63600000D01*
X163086418Y-66100000D01*
X163092732Y-66164103D01*
X163111430Y-66225743D01*
X163141794Y-66282550D01*
X163182657Y-66332343D01*
X163232450Y-66373206D01*
X163289257Y-66403570D01*
X163350897Y-66422268D01*
X163415000Y-66428582D01*
X164615000Y-66428582D01*
X164679103Y-66422268D01*
X164740743Y-66403570D01*
X164797550Y-66373206D01*
X164847343Y-66332343D01*
X164888206Y-66282550D01*
X164918570Y-66225743D01*
X164937268Y-66164103D01*
X164943582Y-66100000D01*
X164943582Y-64834830D01*
X166323000Y-64834830D01*
X166323000Y-65165170D01*
X166387446Y-65489163D01*
X166513862Y-65794357D01*
X166697389Y-66069025D01*
X166930975Y-66302611D01*
X167205643Y-66486138D01*
X167510837Y-66612554D01*
X167834830Y-66677000D01*
X168165170Y-66677000D01*
X168489163Y-66612554D01*
X168794357Y-66486138D01*
X169069025Y-66302611D01*
X169302611Y-66069025D01*
X169486138Y-65794357D01*
X169612554Y-65489163D01*
X169677000Y-65165170D01*
X169677000Y-64834830D01*
X169612554Y-64510837D01*
X169486138Y-64205643D01*
X169302611Y-63930975D01*
X169069025Y-63697389D01*
X168794357Y-63513862D01*
X168489163Y-63387446D01*
X168165170Y-63323000D01*
X167834830Y-63323000D01*
X167510837Y-63387446D01*
X167205643Y-63513862D01*
X166930975Y-63697389D01*
X166697389Y-63930975D01*
X166513862Y-64205643D01*
X166387446Y-64510837D01*
X166323000Y-64834830D01*
X164943582Y-64834830D01*
X164943582Y-63600000D01*
X164937268Y-63535897D01*
X164918570Y-63474257D01*
X164888206Y-63417450D01*
X164847343Y-63367657D01*
X164797550Y-63326794D01*
X164740743Y-63296430D01*
X164679103Y-63277732D01*
X164615000Y-63271418D01*
X163415000Y-63271418D01*
X163350897Y-63277732D01*
X163289257Y-63296430D01*
X163232450Y-63326794D01*
X163182657Y-63367657D01*
X163141794Y-63417450D01*
X163111430Y-63474257D01*
X163092732Y-63535897D01*
X163086418Y-63600000D01*
X153543582Y-63600000D01*
X153537268Y-63535897D01*
X153518570Y-63474257D01*
X153488206Y-63417450D01*
X153447343Y-63367657D01*
X153397550Y-63326794D01*
X153340743Y-63296430D01*
X153279103Y-63277732D01*
X153215000Y-63271418D01*
X152015000Y-63271418D01*
X151950897Y-63277732D01*
X151889257Y-63296430D01*
X151832450Y-63326794D01*
X151782657Y-63367657D01*
X151741794Y-63417450D01*
X151711430Y-63474257D01*
X151692732Y-63535897D01*
X151686418Y-63600000D01*
X107072855Y-63600000D01*
X107099812Y-63510714D01*
X107337674Y-63063358D01*
X107657904Y-62670718D01*
X108048294Y-62347759D01*
X108493980Y-62106778D01*
X108977987Y-61956952D01*
X109500820Y-61902000D01*
X168480342Y-61902000D01*
X169004242Y-61953369D01*
G37*
X169004242Y-61953369D02*
X169489286Y-62099812D01*
X169936642Y-62337674D01*
X170329282Y-62657904D01*
X170652241Y-63048294D01*
X170893222Y-63493980D01*
X171043048Y-63977987D01*
X171098000Y-64500820D01*
X171098000Y-64500827D01*
X171098001Y-108480333D01*
X171046631Y-109004243D01*
X170900187Y-109489288D01*
X170662324Y-109936646D01*
X170342096Y-110329282D01*
X169951706Y-110652241D01*
X169506018Y-110893223D01*
X169022013Y-111043048D01*
X168499180Y-111098000D01*
X109519657Y-111098000D01*
X108995757Y-111046631D01*
X108510712Y-110900187D01*
X108063354Y-110662324D01*
X107670718Y-110342096D01*
X107347759Y-109951706D01*
X107106777Y-109506018D01*
X106956952Y-109022013D01*
X106902000Y-108499180D01*
X106902000Y-106310207D01*
X109573000Y-106310207D01*
X109573000Y-106689793D01*
X109647053Y-107062085D01*
X109792315Y-107412777D01*
X110003201Y-107728391D01*
X110271609Y-107996799D01*
X110587223Y-108207685D01*
X110937915Y-108352947D01*
X111310207Y-108427000D01*
X111689793Y-108427000D01*
X112062085Y-108352947D01*
X112412777Y-108207685D01*
X112728391Y-107996799D01*
X112996799Y-107728391D01*
X113207685Y-107412777D01*
X113352947Y-107062085D01*
X113427000Y-106689793D01*
X113427000Y-106310207D01*
X164573000Y-106310207D01*
X164573000Y-106689793D01*
X164647053Y-107062085D01*
X164792315Y-107412777D01*
X165003201Y-107728391D01*
X165271609Y-107996799D01*
X165587223Y-108207685D01*
X165937915Y-108352947D01*
X166310207Y-108427000D01*
X166689793Y-108427000D01*
X167062085Y-108352947D01*
X167412777Y-108207685D01*
X167728391Y-107996799D01*
X167996799Y-107728391D01*
X168207685Y-107412777D01*
X168352947Y-107062085D01*
X168427000Y-106689793D01*
X168427000Y-106310207D01*
X168352947Y-105937915D01*
X168207685Y-105587223D01*
X167996799Y-105271609D01*
X167728391Y-105003201D01*
X167412777Y-104792315D01*
X167062085Y-104647053D01*
X166689793Y-104573000D01*
X166310207Y-104573000D01*
X165937915Y-104647053D01*
X165587223Y-104792315D01*
X165271609Y-105003201D01*
X165003201Y-105271609D01*
X164792315Y-105587223D01*
X164647053Y-105937915D01*
X164573000Y-106310207D01*
X113427000Y-106310207D01*
X113352947Y-105937915D01*
X113207685Y-105587223D01*
X112996799Y-105271609D01*
X112728391Y-105003201D01*
X112412777Y-104792315D01*
X112062085Y-104647053D01*
X111689793Y-104573000D01*
X111310207Y-104573000D01*
X110937915Y-104647053D01*
X110587223Y-104792315D01*
X110271609Y-105003201D01*
X110003201Y-105271609D01*
X109792315Y-105587223D01*
X109647053Y-105937915D01*
X109573000Y-106310207D01*
X106902000Y-106310207D01*
X106902000Y-102853582D01*
X107580000Y-102853582D01*
X107644103Y-102847268D01*
X107705743Y-102828570D01*
X107756436Y-102801474D01*
X107811952Y-102838569D01*
X107953357Y-102897141D01*
X108103472Y-102927000D01*
X108256528Y-102927000D01*
X108406643Y-102897141D01*
X108548048Y-102838569D01*
X108675309Y-102753536D01*
X108783536Y-102645309D01*
X108868569Y-102518048D01*
X108927141Y-102376643D01*
X108957000Y-102226528D01*
X108957000Y-102073472D01*
X108933153Y-101953582D01*
X109980000Y-101953582D01*
X110044103Y-101947268D01*
X110105743Y-101928570D01*
X110162550Y-101898206D01*
X110212343Y-101857343D01*
X110253206Y-101807550D01*
X110283570Y-101750743D01*
X110299777Y-101697315D01*
X110318607Y-101695460D01*
X110403810Y-101669614D01*
X110482333Y-101627643D01*
X110551159Y-101571159D01*
X110565323Y-101553900D01*
X116418806Y-95700418D01*
X116436060Y-95686258D01*
X116492544Y-95617432D01*
X116534515Y-95538909D01*
X116560361Y-95453706D01*
X116566901Y-95387304D01*
X116569088Y-95365099D01*
X116566901Y-95342894D01*
X116566901Y-94844679D01*
X132423000Y-94844679D01*
X132423000Y-95155321D01*
X132483604Y-95459994D01*
X132602481Y-95746989D01*
X132775064Y-96005279D01*
X132994721Y-96224936D01*
X133253011Y-96397519D01*
X133540006Y-96516396D01*
X133844679Y-96577000D01*
X134155321Y-96577000D01*
X134459994Y-96516396D01*
X134746989Y-96397519D01*
X135005279Y-96224936D01*
X135224936Y-96005279D01*
X135397519Y-95746989D01*
X135516396Y-95459994D01*
X135577000Y-95155321D01*
X135577000Y-94844679D01*
X135516396Y-94540006D01*
X135397519Y-94253011D01*
X135224936Y-93994721D01*
X135005279Y-93775064D01*
X134746989Y-93602481D01*
X134459994Y-93483604D01*
X134155321Y-93423000D01*
X133844679Y-93423000D01*
X133540006Y-93483604D01*
X133253011Y-93602481D01*
X132994721Y-93775064D01*
X132775064Y-93994721D01*
X132602481Y-94253011D01*
X132483604Y-94540006D01*
X132423000Y-94844679D01*
X116566901Y-94844679D01*
X116566901Y-90029531D01*
X116729606Y-90192236D01*
X116922381Y-90321044D01*
X117136582Y-90409769D01*
X117363976Y-90455000D01*
X117595824Y-90455000D01*
X117823218Y-90409769D01*
X118037419Y-90321044D01*
X118230194Y-90192236D01*
X118394136Y-90028294D01*
X118522944Y-89835519D01*
X118611669Y-89621318D01*
X118656900Y-89393924D01*
X118656900Y-89162076D01*
X118842900Y-89162076D01*
X118842900Y-89393924D01*
X118888131Y-89621318D01*
X118976856Y-89835519D01*
X119105664Y-90028294D01*
X119269606Y-90192236D01*
X119462381Y-90321044D01*
X119676582Y-90409769D01*
X119903976Y-90455000D01*
X120135824Y-90455000D01*
X120363218Y-90409769D01*
X120577419Y-90321044D01*
X120770194Y-90192236D01*
X120934136Y-90028294D01*
X121062944Y-89835519D01*
X121151669Y-89621318D01*
X121196900Y-89393924D01*
X121196900Y-89162076D01*
X121382900Y-89162076D01*
X121382900Y-89393924D01*
X121428131Y-89621318D01*
X121516856Y-89835519D01*
X121645664Y-90028294D01*
X121809606Y-90192236D01*
X122002381Y-90321044D01*
X122216582Y-90409769D01*
X122443976Y-90455000D01*
X122675824Y-90455000D01*
X122903218Y-90409769D01*
X123117419Y-90321044D01*
X123310194Y-90192236D01*
X123474136Y-90028294D01*
X123602944Y-89835519D01*
X123691669Y-89621318D01*
X123736900Y-89393924D01*
X123736900Y-89162076D01*
X123922900Y-89162076D01*
X123922900Y-89393924D01*
X123968131Y-89621318D01*
X124056856Y-89835519D01*
X124185664Y-90028294D01*
X124349606Y-90192236D01*
X124542381Y-90321044D01*
X124756582Y-90409769D01*
X124983976Y-90455000D01*
X125215824Y-90455000D01*
X125443218Y-90409769D01*
X125657419Y-90321044D01*
X125850194Y-90192236D01*
X126014136Y-90028294D01*
X126142944Y-89835519D01*
X126231669Y-89621318D01*
X126276900Y-89393924D01*
X126276900Y-89162076D01*
X126462900Y-89162076D01*
X126462900Y-89393924D01*
X126508131Y-89621318D01*
X126596856Y-89835519D01*
X126725664Y-90028294D01*
X126889606Y-90192236D01*
X127082381Y-90321044D01*
X127296582Y-90409769D01*
X127523976Y-90455000D01*
X127755824Y-90455000D01*
X127983218Y-90409769D01*
X128197419Y-90321044D01*
X128390194Y-90192236D01*
X128554136Y-90028294D01*
X128682944Y-89835519D01*
X128771669Y-89621318D01*
X128816900Y-89393924D01*
X128816900Y-89162076D01*
X129002900Y-89162076D01*
X129002900Y-89393924D01*
X129048131Y-89621318D01*
X129136856Y-89835519D01*
X129265664Y-90028294D01*
X129429606Y-90192236D01*
X129622381Y-90321044D01*
X129836582Y-90409769D01*
X130063976Y-90455000D01*
X130295824Y-90455000D01*
X130523218Y-90409769D01*
X130737419Y-90321044D01*
X130930194Y-90192236D01*
X131094136Y-90028294D01*
X131222944Y-89835519D01*
X131311669Y-89621318D01*
X131356900Y-89393924D01*
X131356900Y-89162076D01*
X131542900Y-89162076D01*
X131542900Y-89393924D01*
X131588131Y-89621318D01*
X131676856Y-89835519D01*
X131805664Y-90028294D01*
X131969606Y-90192236D01*
X132162381Y-90321044D01*
X132376582Y-90409769D01*
X132603976Y-90455000D01*
X132835824Y-90455000D01*
X133063218Y-90409769D01*
X133277419Y-90321044D01*
X133470194Y-90192236D01*
X133634136Y-90028294D01*
X133762944Y-89835519D01*
X133851669Y-89621318D01*
X133896900Y-89393924D01*
X133896900Y-89162076D01*
X134082900Y-89162076D01*
X134082900Y-89393924D01*
X134128131Y-89621318D01*
X134216856Y-89835519D01*
X134345664Y-90028294D01*
X134509606Y-90192236D01*
X134702381Y-90321044D01*
X134916582Y-90409769D01*
X135143976Y-90455000D01*
X135375824Y-90455000D01*
X135603218Y-90409769D01*
X135817419Y-90321044D01*
X136010194Y-90192236D01*
X136174136Y-90028294D01*
X136302944Y-89835519D01*
X136391669Y-89621318D01*
X136436900Y-89393924D01*
X136436900Y-89162076D01*
X136622900Y-89162076D01*
X136622900Y-89393924D01*
X136668131Y-89621318D01*
X136756856Y-89835519D01*
X136885664Y-90028294D01*
X137049606Y-90192236D01*
X137242381Y-90321044D01*
X137456582Y-90409769D01*
X137683976Y-90455000D01*
X137915824Y-90455000D01*
X138143218Y-90409769D01*
X138357419Y-90321044D01*
X138550194Y-90192236D01*
X138714136Y-90028294D01*
X138842944Y-89835519D01*
X138911164Y-89670821D01*
X138995743Y-89909252D01*
X139144722Y-90159355D01*
X139339631Y-90375588D01*
X139572980Y-90549641D01*
X139835801Y-90674825D01*
X139983010Y-90719476D01*
X140212900Y-90598155D01*
X140212900Y-89405000D01*
X140192900Y-89405000D01*
X140192900Y-89151000D01*
X140212900Y-89151000D01*
X140212900Y-89131000D01*
X140466900Y-89131000D01*
X140466900Y-89151000D01*
X140486900Y-89151000D01*
X140486900Y-89405000D01*
X140466900Y-89405000D01*
X140466900Y-90598155D01*
X140696790Y-90719476D01*
X140843999Y-90674825D01*
X141106820Y-90549641D01*
X141340169Y-90375588D01*
X141535078Y-90159355D01*
X141684057Y-89909252D01*
X141768636Y-89670821D01*
X141836856Y-89835519D01*
X141965664Y-90028294D01*
X142129606Y-90192236D01*
X142322381Y-90321044D01*
X142536582Y-90409769D01*
X142763976Y-90455000D01*
X142995824Y-90455000D01*
X143223218Y-90409769D01*
X143437419Y-90321044D01*
X143630194Y-90192236D01*
X143794136Y-90028294D01*
X143922944Y-89835519D01*
X144011669Y-89621318D01*
X144056900Y-89393924D01*
X144056900Y-89162076D01*
X144242900Y-89162076D01*
X144242900Y-89393924D01*
X144288131Y-89621318D01*
X144376856Y-89835519D01*
X144505664Y-90028294D01*
X144669606Y-90192236D01*
X144862381Y-90321044D01*
X145076582Y-90409769D01*
X145303976Y-90455000D01*
X145535824Y-90455000D01*
X145763218Y-90409769D01*
X145977419Y-90321044D01*
X146170194Y-90192236D01*
X146334136Y-90028294D01*
X146462944Y-89835519D01*
X146551669Y-89621318D01*
X146596900Y-89393924D01*
X146596900Y-89162076D01*
X146782900Y-89162076D01*
X146782900Y-89393924D01*
X146828131Y-89621318D01*
X146916856Y-89835519D01*
X147045664Y-90028294D01*
X147209606Y-90192236D01*
X147402381Y-90321044D01*
X147616582Y-90409769D01*
X147843976Y-90455000D01*
X148075824Y-90455000D01*
X148303218Y-90409769D01*
X148517419Y-90321044D01*
X148710194Y-90192236D01*
X148874136Y-90028294D01*
X149002944Y-89835519D01*
X149091669Y-89621318D01*
X149136900Y-89393924D01*
X149136900Y-89162076D01*
X149322900Y-89162076D01*
X149322900Y-89393924D01*
X149368131Y-89621318D01*
X149456856Y-89835519D01*
X149585664Y-90028294D01*
X149749606Y-90192236D01*
X149942381Y-90321044D01*
X150156582Y-90409769D01*
X150383976Y-90455000D01*
X150615824Y-90455000D01*
X150843218Y-90409769D01*
X151057419Y-90321044D01*
X151250194Y-90192236D01*
X151414136Y-90028294D01*
X151542944Y-89835519D01*
X151631669Y-89621318D01*
X151676900Y-89393924D01*
X151676900Y-89162076D01*
X151862900Y-89162076D01*
X151862900Y-89393924D01*
X151908131Y-89621318D01*
X151996856Y-89835519D01*
X152125664Y-90028294D01*
X152289606Y-90192236D01*
X152482381Y-90321044D01*
X152696582Y-90409769D01*
X152923976Y-90455000D01*
X153155824Y-90455000D01*
X153383218Y-90409769D01*
X153597419Y-90321044D01*
X153790194Y-90192236D01*
X153954136Y-90028294D01*
X154082944Y-89835519D01*
X154171669Y-89621318D01*
X154216900Y-89393924D01*
X154216900Y-89162076D01*
X154402900Y-89162076D01*
X154402900Y-89393924D01*
X154448131Y-89621318D01*
X154536856Y-89835519D01*
X154665664Y-90028294D01*
X154829606Y-90192236D01*
X155022381Y-90321044D01*
X155236582Y-90409769D01*
X155463976Y-90455000D01*
X155695824Y-90455000D01*
X155923218Y-90409769D01*
X156137419Y-90321044D01*
X156330194Y-90192236D01*
X156494136Y-90028294D01*
X156622944Y-89835519D01*
X156711669Y-89621318D01*
X156756900Y-89393924D01*
X156756900Y-89162076D01*
X156942900Y-89162076D01*
X156942900Y-89393924D01*
X156988131Y-89621318D01*
X157076856Y-89835519D01*
X157205664Y-90028294D01*
X157369606Y-90192236D01*
X157562381Y-90321044D01*
X157776582Y-90409769D01*
X158003976Y-90455000D01*
X158235824Y-90455000D01*
X158463218Y-90409769D01*
X158677419Y-90321044D01*
X158870194Y-90192236D01*
X159034136Y-90028294D01*
X159162944Y-89835519D01*
X159251669Y-89621318D01*
X159296900Y-89393924D01*
X159296900Y-89162076D01*
X159482900Y-89162076D01*
X159482900Y-89393924D01*
X159528131Y-89621318D01*
X159616856Y-89835519D01*
X159745664Y-90028294D01*
X159909606Y-90192236D01*
X160102381Y-90321044D01*
X160316582Y-90409769D01*
X160543976Y-90455000D01*
X160775824Y-90455000D01*
X161003218Y-90409769D01*
X161217419Y-90321044D01*
X161410194Y-90192236D01*
X161574136Y-90028294D01*
X161702944Y-89835519D01*
X161791669Y-89621318D01*
X161836900Y-89393924D01*
X161836900Y-89162076D01*
X162022900Y-89162076D01*
X162022900Y-89393924D01*
X162068131Y-89621318D01*
X162156856Y-89835519D01*
X162285664Y-90028294D01*
X162449606Y-90192236D01*
X162642381Y-90321044D01*
X162856582Y-90409769D01*
X163083976Y-90455000D01*
X163315824Y-90455000D01*
X163543218Y-90409769D01*
X163757419Y-90321044D01*
X163950194Y-90192236D01*
X164114136Y-90028294D01*
X164242944Y-89835519D01*
X164331669Y-89621318D01*
X164376900Y-89393924D01*
X164376900Y-89162076D01*
X164331669Y-88934682D01*
X164242944Y-88720481D01*
X164114136Y-88527706D01*
X163950194Y-88363764D01*
X163757419Y-88234956D01*
X163543218Y-88146231D01*
X163315824Y-88101000D01*
X163083976Y-88101000D01*
X162856582Y-88146231D01*
X162642381Y-88234956D01*
X162449606Y-88363764D01*
X162285664Y-88527706D01*
X162156856Y-88720481D01*
X162068131Y-88934682D01*
X162022900Y-89162076D01*
X161836900Y-89162076D01*
X161791669Y-88934682D01*
X161702944Y-88720481D01*
X161574136Y-88527706D01*
X161410194Y-88363764D01*
X161217419Y-88234956D01*
X161003218Y-88146231D01*
X160775824Y-88101000D01*
X160543976Y-88101000D01*
X160316582Y-88146231D01*
X160102381Y-88234956D01*
X159909606Y-88363764D01*
X159745664Y-88527706D01*
X159616856Y-88720481D01*
X159528131Y-88934682D01*
X159482900Y-89162076D01*
X159296900Y-89162076D01*
X159251669Y-88934682D01*
X159162944Y-88720481D01*
X159034136Y-88527706D01*
X158870194Y-88363764D01*
X158677419Y-88234956D01*
X158463218Y-88146231D01*
X158235824Y-88101000D01*
X158003976Y-88101000D01*
X157776582Y-88146231D01*
X157562381Y-88234956D01*
X157369606Y-88363764D01*
X157205664Y-88527706D01*
X157076856Y-88720481D01*
X156988131Y-88934682D01*
X156942900Y-89162076D01*
X156756900Y-89162076D01*
X156711669Y-88934682D01*
X156622944Y-88720481D01*
X156494136Y-88527706D01*
X156330194Y-88363764D01*
X156137419Y-88234956D01*
X155923218Y-88146231D01*
X155695824Y-88101000D01*
X155463976Y-88101000D01*
X155236582Y-88146231D01*
X155022381Y-88234956D01*
X154829606Y-88363764D01*
X154665664Y-88527706D01*
X154536856Y-88720481D01*
X154448131Y-88934682D01*
X154402900Y-89162076D01*
X154216900Y-89162076D01*
X154171669Y-88934682D01*
X154082944Y-88720481D01*
X153954136Y-88527706D01*
X153790194Y-88363764D01*
X153597419Y-88234956D01*
X153383218Y-88146231D01*
X153155824Y-88101000D01*
X152923976Y-88101000D01*
X152696582Y-88146231D01*
X152482381Y-88234956D01*
X152289606Y-88363764D01*
X152125664Y-88527706D01*
X151996856Y-88720481D01*
X151908131Y-88934682D01*
X151862900Y-89162076D01*
X151676900Y-89162076D01*
X151631669Y-88934682D01*
X151542944Y-88720481D01*
X151414136Y-88527706D01*
X151250194Y-88363764D01*
X151057419Y-88234956D01*
X150843218Y-88146231D01*
X150615824Y-88101000D01*
X150383976Y-88101000D01*
X150156582Y-88146231D01*
X149942381Y-88234956D01*
X149749606Y-88363764D01*
X149585664Y-88527706D01*
X149456856Y-88720481D01*
X149368131Y-88934682D01*
X149322900Y-89162076D01*
X149136900Y-89162076D01*
X149091669Y-88934682D01*
X149002944Y-88720481D01*
X148874136Y-88527706D01*
X148710194Y-88363764D01*
X148517419Y-88234956D01*
X148303218Y-88146231D01*
X148075824Y-88101000D01*
X147843976Y-88101000D01*
X147616582Y-88146231D01*
X147402381Y-88234956D01*
X147209606Y-88363764D01*
X147045664Y-88527706D01*
X146916856Y-88720481D01*
X146828131Y-88934682D01*
X146782900Y-89162076D01*
X146596900Y-89162076D01*
X146551669Y-88934682D01*
X146462944Y-88720481D01*
X146334136Y-88527706D01*
X146170194Y-88363764D01*
X145977419Y-88234956D01*
X145763218Y-88146231D01*
X145535824Y-88101000D01*
X145303976Y-88101000D01*
X145076582Y-88146231D01*
X144862381Y-88234956D01*
X144669606Y-88363764D01*
X144505664Y-88527706D01*
X144376856Y-88720481D01*
X144288131Y-88934682D01*
X144242900Y-89162076D01*
X144056900Y-89162076D01*
X144011669Y-88934682D01*
X143922944Y-88720481D01*
X143794136Y-88527706D01*
X143630194Y-88363764D01*
X143437419Y-88234956D01*
X143223218Y-88146231D01*
X142995824Y-88101000D01*
X142763976Y-88101000D01*
X142536582Y-88146231D01*
X142322381Y-88234956D01*
X142129606Y-88363764D01*
X141965664Y-88527706D01*
X141836856Y-88720481D01*
X141768636Y-88885179D01*
X141684057Y-88646748D01*
X141535078Y-88396645D01*
X141340169Y-88180412D01*
X141106820Y-88006359D01*
X140843999Y-87881175D01*
X140735288Y-87848201D01*
X140897419Y-87781044D01*
X141090194Y-87652236D01*
X141254136Y-87488294D01*
X141382944Y-87295519D01*
X141471669Y-87081318D01*
X141516900Y-86853924D01*
X141516900Y-86622076D01*
X141702900Y-86622076D01*
X141702900Y-86853924D01*
X141748131Y-87081318D01*
X141836856Y-87295519D01*
X141965664Y-87488294D01*
X142129606Y-87652236D01*
X142322381Y-87781044D01*
X142536582Y-87869769D01*
X142763976Y-87915000D01*
X142995824Y-87915000D01*
X143223218Y-87869769D01*
X143437419Y-87781044D01*
X143630194Y-87652236D01*
X143794136Y-87488294D01*
X143922944Y-87295519D01*
X144011669Y-87081318D01*
X144056900Y-86853924D01*
X144056900Y-86622076D01*
X144242900Y-86622076D01*
X144242900Y-86853924D01*
X144288131Y-87081318D01*
X144376856Y-87295519D01*
X144505664Y-87488294D01*
X144669606Y-87652236D01*
X144862381Y-87781044D01*
X145076582Y-87869769D01*
X145303976Y-87915000D01*
X145535824Y-87915000D01*
X145763218Y-87869769D01*
X145977419Y-87781044D01*
X146170194Y-87652236D01*
X146334136Y-87488294D01*
X146462944Y-87295519D01*
X146551669Y-87081318D01*
X146596900Y-86853924D01*
X146596900Y-86622076D01*
X146782900Y-86622076D01*
X146782900Y-86853924D01*
X146828131Y-87081318D01*
X146916856Y-87295519D01*
X147045664Y-87488294D01*
X147209606Y-87652236D01*
X147402381Y-87781044D01*
X147616582Y-87869769D01*
X147843976Y-87915000D01*
X148075824Y-87915000D01*
X148303218Y-87869769D01*
X148517419Y-87781044D01*
X148710194Y-87652236D01*
X148874136Y-87488294D01*
X149002944Y-87295519D01*
X149091669Y-87081318D01*
X149136900Y-86853924D01*
X149136900Y-86622076D01*
X149322900Y-86622076D01*
X149322900Y-86853924D01*
X149368131Y-87081318D01*
X149456856Y-87295519D01*
X149585664Y-87488294D01*
X149749606Y-87652236D01*
X149942381Y-87781044D01*
X150156582Y-87869769D01*
X150383976Y-87915000D01*
X150615824Y-87915000D01*
X150843218Y-87869769D01*
X151057419Y-87781044D01*
X151250194Y-87652236D01*
X151414136Y-87488294D01*
X151542944Y-87295519D01*
X151631669Y-87081318D01*
X151676900Y-86853924D01*
X151676900Y-86622076D01*
X151862900Y-86622076D01*
X151862900Y-86853924D01*
X151908131Y-87081318D01*
X151996856Y-87295519D01*
X152125664Y-87488294D01*
X152289606Y-87652236D01*
X152482381Y-87781044D01*
X152696582Y-87869769D01*
X152923976Y-87915000D01*
X153155824Y-87915000D01*
X153383218Y-87869769D01*
X153597419Y-87781044D01*
X153790194Y-87652236D01*
X153954136Y-87488294D01*
X154082944Y-87295519D01*
X154171669Y-87081318D01*
X154216900Y-86853924D01*
X154216900Y-86622076D01*
X154402900Y-86622076D01*
X154402900Y-86853924D01*
X154448131Y-87081318D01*
X154536856Y-87295519D01*
X154665664Y-87488294D01*
X154829606Y-87652236D01*
X155022381Y-87781044D01*
X155236582Y-87869769D01*
X155463976Y-87915000D01*
X155695824Y-87915000D01*
X155923218Y-87869769D01*
X156137419Y-87781044D01*
X156330194Y-87652236D01*
X156494136Y-87488294D01*
X156622944Y-87295519D01*
X156711669Y-87081318D01*
X156756900Y-86853924D01*
X156756900Y-86622076D01*
X156942900Y-86622076D01*
X156942900Y-86853924D01*
X156988131Y-87081318D01*
X157076856Y-87295519D01*
X157205664Y-87488294D01*
X157369606Y-87652236D01*
X157562381Y-87781044D01*
X157776582Y-87869769D01*
X158003976Y-87915000D01*
X158235824Y-87915000D01*
X158463218Y-87869769D01*
X158677419Y-87781044D01*
X158870194Y-87652236D01*
X159034136Y-87488294D01*
X159162944Y-87295519D01*
X159251669Y-87081318D01*
X159296900Y-86853924D01*
X159296900Y-86622076D01*
X159482900Y-86622076D01*
X159482900Y-86853924D01*
X159528131Y-87081318D01*
X159616856Y-87295519D01*
X159745664Y-87488294D01*
X159909606Y-87652236D01*
X160102381Y-87781044D01*
X160316582Y-87869769D01*
X160543976Y-87915000D01*
X160775824Y-87915000D01*
X161003218Y-87869769D01*
X161217419Y-87781044D01*
X161410194Y-87652236D01*
X161574136Y-87488294D01*
X161702944Y-87295519D01*
X161791669Y-87081318D01*
X161836900Y-86853924D01*
X161836900Y-86622076D01*
X161791669Y-86394682D01*
X161702944Y-86180481D01*
X161574136Y-85987706D01*
X161474430Y-85888000D01*
X162021318Y-85888000D01*
X162021318Y-87588000D01*
X162027632Y-87652103D01*
X162046330Y-87713743D01*
X162076694Y-87770550D01*
X162117557Y-87820343D01*
X162167350Y-87861206D01*
X162224157Y-87891570D01*
X162285797Y-87910268D01*
X162349900Y-87916582D01*
X164049900Y-87916582D01*
X164114003Y-87910268D01*
X164175643Y-87891570D01*
X164232450Y-87861206D01*
X164282243Y-87820343D01*
X164323106Y-87770550D01*
X164353470Y-87713743D01*
X164372168Y-87652103D01*
X164378482Y-87588000D01*
X164378482Y-85888000D01*
X164372168Y-85823897D01*
X164353470Y-85762257D01*
X164323106Y-85705450D01*
X164282243Y-85655657D01*
X164232450Y-85614794D01*
X164175643Y-85584430D01*
X164114003Y-85565732D01*
X164049900Y-85559418D01*
X162349900Y-85559418D01*
X162285797Y-85565732D01*
X162224157Y-85584430D01*
X162167350Y-85614794D01*
X162117557Y-85655657D01*
X162076694Y-85705450D01*
X162046330Y-85762257D01*
X162027632Y-85823897D01*
X162021318Y-85888000D01*
X161474430Y-85888000D01*
X161410194Y-85823764D01*
X161217419Y-85694956D01*
X161003218Y-85606231D01*
X160775824Y-85561000D01*
X160543976Y-85561000D01*
X160316582Y-85606231D01*
X160102381Y-85694956D01*
X159909606Y-85823764D01*
X159745664Y-85987706D01*
X159616856Y-86180481D01*
X159528131Y-86394682D01*
X159482900Y-86622076D01*
X159296900Y-86622076D01*
X159251669Y-86394682D01*
X159162944Y-86180481D01*
X159034136Y-85987706D01*
X158870194Y-85823764D01*
X158677419Y-85694956D01*
X158463218Y-85606231D01*
X158235824Y-85561000D01*
X158003976Y-85561000D01*
X157776582Y-85606231D01*
X157562381Y-85694956D01*
X157369606Y-85823764D01*
X157205664Y-85987706D01*
X157076856Y-86180481D01*
X156988131Y-86394682D01*
X156942900Y-86622076D01*
X156756900Y-86622076D01*
X156711669Y-86394682D01*
X156622944Y-86180481D01*
X156494136Y-85987706D01*
X156330194Y-85823764D01*
X156137419Y-85694956D01*
X155923218Y-85606231D01*
X155695824Y-85561000D01*
X155463976Y-85561000D01*
X155236582Y-85606231D01*
X155022381Y-85694956D01*
X154829606Y-85823764D01*
X154665664Y-85987706D01*
X154536856Y-86180481D01*
X154448131Y-86394682D01*
X154402900Y-86622076D01*
X154216900Y-86622076D01*
X154171669Y-86394682D01*
X154082944Y-86180481D01*
X153954136Y-85987706D01*
X153790194Y-85823764D01*
X153597419Y-85694956D01*
X153383218Y-85606231D01*
X153155824Y-85561000D01*
X152923976Y-85561000D01*
X152696582Y-85606231D01*
X152482381Y-85694956D01*
X152289606Y-85823764D01*
X152125664Y-85987706D01*
X151996856Y-86180481D01*
X151908131Y-86394682D01*
X151862900Y-86622076D01*
X151676900Y-86622076D01*
X151631669Y-86394682D01*
X151542944Y-86180481D01*
X151414136Y-85987706D01*
X151250194Y-85823764D01*
X151057419Y-85694956D01*
X150843218Y-85606231D01*
X150615824Y-85561000D01*
X150383976Y-85561000D01*
X150156582Y-85606231D01*
X149942381Y-85694956D01*
X149749606Y-85823764D01*
X149585664Y-85987706D01*
X149456856Y-86180481D01*
X149368131Y-86394682D01*
X149322900Y-86622076D01*
X149136900Y-86622076D01*
X149091669Y-86394682D01*
X149002944Y-86180481D01*
X148874136Y-85987706D01*
X148710194Y-85823764D01*
X148517419Y-85694956D01*
X148303218Y-85606231D01*
X148075824Y-85561000D01*
X147843976Y-85561000D01*
X147616582Y-85606231D01*
X147402381Y-85694956D01*
X147209606Y-85823764D01*
X147045664Y-85987706D01*
X146916856Y-86180481D01*
X146828131Y-86394682D01*
X146782900Y-86622076D01*
X146596900Y-86622076D01*
X146551669Y-86394682D01*
X146462944Y-86180481D01*
X146334136Y-85987706D01*
X146170194Y-85823764D01*
X145977419Y-85694956D01*
X145763218Y-85606231D01*
X145535824Y-85561000D01*
X145303976Y-85561000D01*
X145076582Y-85606231D01*
X144862381Y-85694956D01*
X144669606Y-85823764D01*
X144505664Y-85987706D01*
X144376856Y-86180481D01*
X144288131Y-86394682D01*
X144242900Y-86622076D01*
X144056900Y-86622076D01*
X144011669Y-86394682D01*
X143922944Y-86180481D01*
X143794136Y-85987706D01*
X143630194Y-85823764D01*
X143437419Y-85694956D01*
X143223218Y-85606231D01*
X142995824Y-85561000D01*
X142763976Y-85561000D01*
X142536582Y-85606231D01*
X142322381Y-85694956D01*
X142129606Y-85823764D01*
X141965664Y-85987706D01*
X141836856Y-86180481D01*
X141748131Y-86394682D01*
X141702900Y-86622076D01*
X141516900Y-86622076D01*
X141471669Y-86394682D01*
X141382944Y-86180481D01*
X141254136Y-85987706D01*
X141090194Y-85823764D01*
X140897419Y-85694956D01*
X140683218Y-85606231D01*
X140455824Y-85561000D01*
X140223976Y-85561000D01*
X139996582Y-85606231D01*
X139782381Y-85694956D01*
X139589606Y-85823764D01*
X139425664Y-85987706D01*
X139296856Y-86180481D01*
X139208131Y-86394682D01*
X139162900Y-86622076D01*
X139162900Y-86853924D01*
X139208131Y-87081318D01*
X139296856Y-87295519D01*
X139425664Y-87488294D01*
X139589606Y-87652236D01*
X139782381Y-87781044D01*
X139944512Y-87848201D01*
X139835801Y-87881175D01*
X139572980Y-88006359D01*
X139339631Y-88180412D01*
X139144722Y-88396645D01*
X138995743Y-88646748D01*
X138911164Y-88885179D01*
X138842944Y-88720481D01*
X138714136Y-88527706D01*
X138550194Y-88363764D01*
X138357419Y-88234956D01*
X138143218Y-88146231D01*
X137915824Y-88101000D01*
X137683976Y-88101000D01*
X137456582Y-88146231D01*
X137242381Y-88234956D01*
X137049606Y-88363764D01*
X136885664Y-88527706D01*
X136756856Y-88720481D01*
X136668131Y-88934682D01*
X136622900Y-89162076D01*
X136436900Y-89162076D01*
X136391669Y-88934682D01*
X136302944Y-88720481D01*
X136174136Y-88527706D01*
X136010194Y-88363764D01*
X135817419Y-88234956D01*
X135603218Y-88146231D01*
X135375824Y-88101000D01*
X135143976Y-88101000D01*
X134916582Y-88146231D01*
X134702381Y-88234956D01*
X134509606Y-88363764D01*
X134345664Y-88527706D01*
X134216856Y-88720481D01*
X134128131Y-88934682D01*
X134082900Y-89162076D01*
X133896900Y-89162076D01*
X133851669Y-88934682D01*
X133762944Y-88720481D01*
X133634136Y-88527706D01*
X133470194Y-88363764D01*
X133277419Y-88234956D01*
X133063218Y-88146231D01*
X132835824Y-88101000D01*
X132603976Y-88101000D01*
X132376582Y-88146231D01*
X132162381Y-88234956D01*
X131969606Y-88363764D01*
X131805664Y-88527706D01*
X131676856Y-88720481D01*
X131588131Y-88934682D01*
X131542900Y-89162076D01*
X131356900Y-89162076D01*
X131311669Y-88934682D01*
X131222944Y-88720481D01*
X131094136Y-88527706D01*
X130930194Y-88363764D01*
X130737419Y-88234956D01*
X130523218Y-88146231D01*
X130295824Y-88101000D01*
X130063976Y-88101000D01*
X129836582Y-88146231D01*
X129622381Y-88234956D01*
X129429606Y-88363764D01*
X129265664Y-88527706D01*
X129136856Y-88720481D01*
X129048131Y-88934682D01*
X129002900Y-89162076D01*
X128816900Y-89162076D01*
X128771669Y-88934682D01*
X128682944Y-88720481D01*
X128554136Y-88527706D01*
X128390194Y-88363764D01*
X128197419Y-88234956D01*
X127983218Y-88146231D01*
X127755824Y-88101000D01*
X127523976Y-88101000D01*
X127296582Y-88146231D01*
X127082381Y-88234956D01*
X126889606Y-88363764D01*
X126725664Y-88527706D01*
X126596856Y-88720481D01*
X126508131Y-88934682D01*
X126462900Y-89162076D01*
X126276900Y-89162076D01*
X126231669Y-88934682D01*
X126142944Y-88720481D01*
X126014136Y-88527706D01*
X125850194Y-88363764D01*
X125657419Y-88234956D01*
X125443218Y-88146231D01*
X125215824Y-88101000D01*
X124983976Y-88101000D01*
X124756582Y-88146231D01*
X124542381Y-88234956D01*
X124349606Y-88363764D01*
X124185664Y-88527706D01*
X124056856Y-88720481D01*
X123968131Y-88934682D01*
X123922900Y-89162076D01*
X123736900Y-89162076D01*
X123691669Y-88934682D01*
X123602944Y-88720481D01*
X123474136Y-88527706D01*
X123310194Y-88363764D01*
X123117419Y-88234956D01*
X122903218Y-88146231D01*
X122675824Y-88101000D01*
X122443976Y-88101000D01*
X122216582Y-88146231D01*
X122002381Y-88234956D01*
X121809606Y-88363764D01*
X121645664Y-88527706D01*
X121516856Y-88720481D01*
X121428131Y-88934682D01*
X121382900Y-89162076D01*
X121196900Y-89162076D01*
X121151669Y-88934682D01*
X121062944Y-88720481D01*
X120934136Y-88527706D01*
X120770194Y-88363764D01*
X120577419Y-88234956D01*
X120363218Y-88146231D01*
X120135824Y-88101000D01*
X119903976Y-88101000D01*
X119676582Y-88146231D01*
X119462381Y-88234956D01*
X119269606Y-88363764D01*
X119105664Y-88527706D01*
X118976856Y-88720481D01*
X118888131Y-88934682D01*
X118842900Y-89162076D01*
X118656900Y-89162076D01*
X118611669Y-88934682D01*
X118522944Y-88720481D01*
X118394136Y-88527706D01*
X118230194Y-88363764D01*
X118037419Y-88234956D01*
X117823218Y-88146231D01*
X117595824Y-88101000D01*
X117363976Y-88101000D01*
X117136582Y-88146231D01*
X116922381Y-88234956D01*
X116729606Y-88363764D01*
X116566901Y-88526469D01*
X116566901Y-88290222D01*
X117031063Y-87826061D01*
X117136582Y-87869769D01*
X117363976Y-87915000D01*
X117595824Y-87915000D01*
X117823218Y-87869769D01*
X118037419Y-87781044D01*
X118230194Y-87652236D01*
X118394136Y-87488294D01*
X118522944Y-87295519D01*
X118611669Y-87081318D01*
X118656900Y-86853924D01*
X118656900Y-86622076D01*
X118842900Y-86622076D01*
X118842900Y-86853924D01*
X118888131Y-87081318D01*
X118976856Y-87295519D01*
X119105664Y-87488294D01*
X119269606Y-87652236D01*
X119462381Y-87781044D01*
X119676582Y-87869769D01*
X119903976Y-87915000D01*
X120135824Y-87915000D01*
X120363218Y-87869769D01*
X120577419Y-87781044D01*
X120770194Y-87652236D01*
X120934136Y-87488294D01*
X121062944Y-87295519D01*
X121151669Y-87081318D01*
X121196900Y-86853924D01*
X121196900Y-86622076D01*
X121151669Y-86394682D01*
X121062944Y-86180481D01*
X120934136Y-85987706D01*
X120770194Y-85823764D01*
X120577419Y-85694956D01*
X120363218Y-85606231D01*
X120135824Y-85561000D01*
X119903976Y-85561000D01*
X119676582Y-85606231D01*
X119462381Y-85694956D01*
X119269606Y-85823764D01*
X119105664Y-85987706D01*
X118976856Y-86180481D01*
X118888131Y-86394682D01*
X118842900Y-86622076D01*
X118656900Y-86622076D01*
X118611669Y-86394682D01*
X118522944Y-86180481D01*
X118394136Y-85987706D01*
X118230194Y-85823764D01*
X118037419Y-85694956D01*
X117823218Y-85606231D01*
X117595824Y-85561000D01*
X117363976Y-85561000D01*
X117136582Y-85606231D01*
X116922381Y-85694956D01*
X116729606Y-85823764D01*
X116565664Y-85987706D01*
X116436856Y-86180481D01*
X116348131Y-86394682D01*
X116302900Y-86622076D01*
X116302900Y-86853924D01*
X116348131Y-87081318D01*
X116391839Y-87186837D01*
X115811001Y-87767676D01*
X115793742Y-87781840D01*
X115737258Y-87850667D01*
X115715395Y-87891570D01*
X115695287Y-87929190D01*
X115669441Y-88014392D01*
X115660714Y-88102999D01*
X115662901Y-88125204D01*
X115662901Y-88345527D01*
X115497419Y-88234956D01*
X115283218Y-88146231D01*
X115055824Y-88101000D01*
X114823976Y-88101000D01*
X114596582Y-88146231D01*
X114382381Y-88234956D01*
X114189606Y-88363764D01*
X114025664Y-88527706D01*
X113896856Y-88720481D01*
X113808131Y-88934682D01*
X113762900Y-89162076D01*
X113762900Y-89393924D01*
X113808131Y-89621318D01*
X113896856Y-89835519D01*
X114025664Y-90028294D01*
X114189606Y-90192236D01*
X114382381Y-90321044D01*
X114596582Y-90409769D01*
X114823976Y-90455000D01*
X115055824Y-90455000D01*
X115283218Y-90409769D01*
X115497419Y-90321044D01*
X115662901Y-90210472D01*
X115662902Y-95177874D01*
X110572513Y-100268263D01*
X110456250Y-100152000D01*
X109207000Y-100152000D01*
X109207000Y-100172000D01*
X108953000Y-100172000D01*
X108953000Y-100152000D01*
X108933000Y-100152000D01*
X108933000Y-99898000D01*
X108953000Y-99898000D01*
X108953000Y-99878000D01*
X109207000Y-99878000D01*
X109207000Y-99898000D01*
X110456250Y-99898000D01*
X110615000Y-99739250D01*
X110618072Y-99725000D01*
X110605812Y-99600518D01*
X110569502Y-99480820D01*
X110510537Y-99370506D01*
X110431185Y-99273815D01*
X110334494Y-99194463D01*
X110308057Y-99180332D01*
X110308582Y-99175000D01*
X110308582Y-98425000D01*
X110302268Y-98360897D01*
X110283570Y-98299257D01*
X110253206Y-98242450D01*
X110212343Y-98192657D01*
X110162550Y-98151794D01*
X110105743Y-98121430D01*
X110044103Y-98102732D01*
X109980000Y-98096418D01*
X108933153Y-98096418D01*
X108957000Y-97976528D01*
X108957000Y-97823472D01*
X108927141Y-97673357D01*
X108868569Y-97531952D01*
X108783536Y-97404691D01*
X108675309Y-97296464D01*
X108548048Y-97211431D01*
X108406643Y-97152859D01*
X108256528Y-97123000D01*
X108103472Y-97123000D01*
X107953357Y-97152859D01*
X107811952Y-97211431D01*
X107756436Y-97248526D01*
X107705743Y-97221430D01*
X107644103Y-97202732D01*
X107580000Y-97196418D01*
X106902000Y-97196418D01*
X106902000Y-90853582D01*
X107580000Y-90853582D01*
X107644103Y-90847268D01*
X107705743Y-90828570D01*
X107756436Y-90801474D01*
X107811952Y-90838569D01*
X107953357Y-90897141D01*
X108103472Y-90927000D01*
X108256528Y-90927000D01*
X108406643Y-90897141D01*
X108548048Y-90838569D01*
X108675309Y-90753536D01*
X108783536Y-90645309D01*
X108868569Y-90518048D01*
X108927141Y-90376643D01*
X108957000Y-90226528D01*
X108957000Y-90073472D01*
X108933153Y-89953582D01*
X109980000Y-89953582D01*
X110044103Y-89947268D01*
X110105743Y-89928570D01*
X110162550Y-89898206D01*
X110212343Y-89857343D01*
X110253206Y-89807550D01*
X110283570Y-89750743D01*
X110299777Y-89697315D01*
X110318607Y-89695460D01*
X110403810Y-89669614D01*
X110482333Y-89627643D01*
X110508705Y-89606000D01*
X110535391Y-89606000D01*
X110557872Y-89621021D01*
X110653780Y-89660748D01*
X110755595Y-89681000D01*
X110859405Y-89681000D01*
X110961220Y-89660748D01*
X111057128Y-89621021D01*
X111143443Y-89563348D01*
X111216848Y-89489943D01*
X111274521Y-89403628D01*
X111314248Y-89307720D01*
X111334500Y-89205905D01*
X111334500Y-89102095D01*
X111314248Y-89000280D01*
X111274521Y-88904372D01*
X111216848Y-88818057D01*
X111143443Y-88744652D01*
X111057128Y-88686979D01*
X110961220Y-88647252D01*
X110859405Y-88627000D01*
X110755595Y-88627000D01*
X110653780Y-88647252D01*
X110557872Y-88686979D01*
X110535391Y-88702000D01*
X110492067Y-88702000D01*
X110510537Y-88679494D01*
X110569502Y-88569180D01*
X110605812Y-88449482D01*
X110618072Y-88325000D01*
X110615000Y-88310750D01*
X110456250Y-88152000D01*
X109207000Y-88152000D01*
X109207000Y-88172000D01*
X108953000Y-88172000D01*
X108953000Y-88152000D01*
X108933000Y-88152000D01*
X108933000Y-87898000D01*
X108953000Y-87898000D01*
X108953000Y-87878000D01*
X109207000Y-87878000D01*
X109207000Y-87898000D01*
X110456250Y-87898000D01*
X110615000Y-87739250D01*
X110618072Y-87725000D01*
X110605812Y-87600518D01*
X110569502Y-87480820D01*
X110510537Y-87370506D01*
X110431185Y-87273815D01*
X110334494Y-87194463D01*
X110308057Y-87180332D01*
X110308582Y-87175000D01*
X110308582Y-86622076D01*
X113762900Y-86622076D01*
X113762900Y-86853924D01*
X113808131Y-87081318D01*
X113896856Y-87295519D01*
X114025664Y-87488294D01*
X114189606Y-87652236D01*
X114382381Y-87781044D01*
X114596582Y-87869769D01*
X114823976Y-87915000D01*
X115055824Y-87915000D01*
X115283218Y-87869769D01*
X115497419Y-87781044D01*
X115690194Y-87652236D01*
X115854136Y-87488294D01*
X115982944Y-87295519D01*
X116071669Y-87081318D01*
X116116900Y-86853924D01*
X116116900Y-86622076D01*
X116071669Y-86394682D01*
X115982944Y-86180481D01*
X115854136Y-85987706D01*
X115690194Y-85823764D01*
X115497419Y-85694956D01*
X115283218Y-85606231D01*
X115055824Y-85561000D01*
X114823976Y-85561000D01*
X114596582Y-85606231D01*
X114382381Y-85694956D01*
X114189606Y-85823764D01*
X114025664Y-85987706D01*
X113896856Y-86180481D01*
X113808131Y-86394682D01*
X113762900Y-86622076D01*
X110308582Y-86622076D01*
X110308582Y-86425000D01*
X110302268Y-86360897D01*
X110283570Y-86299257D01*
X110253206Y-86242450D01*
X110212343Y-86192657D01*
X110162550Y-86151794D01*
X110105743Y-86121430D01*
X110044103Y-86102732D01*
X109980000Y-86096418D01*
X108933153Y-86096418D01*
X108957000Y-85976528D01*
X108957000Y-85823472D01*
X108927141Y-85673357D01*
X108868569Y-85531952D01*
X108783536Y-85404691D01*
X108675309Y-85296464D01*
X108548048Y-85211431D01*
X108406643Y-85152859D01*
X108256528Y-85123000D01*
X108103472Y-85123000D01*
X107953357Y-85152859D01*
X107811952Y-85211431D01*
X107756436Y-85248526D01*
X107705743Y-85221430D01*
X107644103Y-85202732D01*
X107580000Y-85196418D01*
X106902000Y-85196418D01*
X106902000Y-78853582D01*
X107580000Y-78853582D01*
X107644103Y-78847268D01*
X107705743Y-78828570D01*
X107756436Y-78801474D01*
X107811952Y-78838569D01*
X107953357Y-78897141D01*
X108103472Y-78927000D01*
X108256528Y-78927000D01*
X108406643Y-78897141D01*
X108548048Y-78838569D01*
X108675309Y-78753536D01*
X108783536Y-78645309D01*
X108868569Y-78518048D01*
X108927141Y-78376643D01*
X108957000Y-78226528D01*
X108957000Y-78073472D01*
X108933153Y-77953582D01*
X109980000Y-77953582D01*
X110044103Y-77947268D01*
X110105743Y-77928570D01*
X110162550Y-77898206D01*
X110212343Y-77857343D01*
X110253206Y-77807550D01*
X110283570Y-77750743D01*
X110298356Y-77702000D01*
X112884677Y-77702000D01*
X121471838Y-86289163D01*
X121428131Y-86394682D01*
X121382900Y-86622076D01*
X121382900Y-86853924D01*
X121428131Y-87081318D01*
X121516856Y-87295519D01*
X121645664Y-87488294D01*
X121809606Y-87652236D01*
X122002381Y-87781044D01*
X122216582Y-87869769D01*
X122443976Y-87915000D01*
X122675824Y-87915000D01*
X122903218Y-87869769D01*
X123117419Y-87781044D01*
X123310194Y-87652236D01*
X123474136Y-87488294D01*
X123602944Y-87295519D01*
X123691669Y-87081318D01*
X123736900Y-86853924D01*
X123736900Y-86622076D01*
X123922900Y-86622076D01*
X123922900Y-86853924D01*
X123968131Y-87081318D01*
X124056856Y-87295519D01*
X124185664Y-87488294D01*
X124349606Y-87652236D01*
X124542381Y-87781044D01*
X124756582Y-87869769D01*
X124983976Y-87915000D01*
X125215824Y-87915000D01*
X125443218Y-87869769D01*
X125657419Y-87781044D01*
X125850194Y-87652236D01*
X126014136Y-87488294D01*
X126142944Y-87295519D01*
X126231669Y-87081318D01*
X126276900Y-86853924D01*
X126276900Y-86622076D01*
X126462900Y-86622076D01*
X126462900Y-86853924D01*
X126508131Y-87081318D01*
X126596856Y-87295519D01*
X126725664Y-87488294D01*
X126889606Y-87652236D01*
X127082381Y-87781044D01*
X127296582Y-87869769D01*
X127523976Y-87915000D01*
X127755824Y-87915000D01*
X127983218Y-87869769D01*
X128197419Y-87781044D01*
X128390194Y-87652236D01*
X128554136Y-87488294D01*
X128682944Y-87295519D01*
X128771669Y-87081318D01*
X128816900Y-86853924D01*
X128816900Y-86622076D01*
X129002900Y-86622076D01*
X129002900Y-86853924D01*
X129048131Y-87081318D01*
X129136856Y-87295519D01*
X129265664Y-87488294D01*
X129429606Y-87652236D01*
X129622381Y-87781044D01*
X129836582Y-87869769D01*
X130063976Y-87915000D01*
X130295824Y-87915000D01*
X130523218Y-87869769D01*
X130737419Y-87781044D01*
X130930194Y-87652236D01*
X131094136Y-87488294D01*
X131222944Y-87295519D01*
X131311669Y-87081318D01*
X131356900Y-86853924D01*
X131356900Y-86622076D01*
X131542900Y-86622076D01*
X131542900Y-86853924D01*
X131588131Y-87081318D01*
X131676856Y-87295519D01*
X131805664Y-87488294D01*
X131969606Y-87652236D01*
X132162381Y-87781044D01*
X132376582Y-87869769D01*
X132603976Y-87915000D01*
X132835824Y-87915000D01*
X133063218Y-87869769D01*
X133277419Y-87781044D01*
X133470194Y-87652236D01*
X133634136Y-87488294D01*
X133762944Y-87295519D01*
X133851669Y-87081318D01*
X133896900Y-86853924D01*
X133896900Y-86622076D01*
X134082900Y-86622076D01*
X134082900Y-86853924D01*
X134128131Y-87081318D01*
X134216856Y-87295519D01*
X134345664Y-87488294D01*
X134509606Y-87652236D01*
X134702381Y-87781044D01*
X134916582Y-87869769D01*
X135143976Y-87915000D01*
X135375824Y-87915000D01*
X135603218Y-87869769D01*
X135817419Y-87781044D01*
X136010194Y-87652236D01*
X136174136Y-87488294D01*
X136302944Y-87295519D01*
X136391669Y-87081318D01*
X136436900Y-86853924D01*
X136436900Y-86622076D01*
X136622900Y-86622076D01*
X136622900Y-86853924D01*
X136668131Y-87081318D01*
X136756856Y-87295519D01*
X136885664Y-87488294D01*
X137049606Y-87652236D01*
X137242381Y-87781044D01*
X137456582Y-87869769D01*
X137683976Y-87915000D01*
X137915824Y-87915000D01*
X138143218Y-87869769D01*
X138357419Y-87781044D01*
X138550194Y-87652236D01*
X138714136Y-87488294D01*
X138842944Y-87295519D01*
X138931669Y-87081318D01*
X138976900Y-86853924D01*
X138976900Y-86622076D01*
X138931669Y-86394682D01*
X138842944Y-86180481D01*
X138714136Y-85987706D01*
X138550194Y-85823764D01*
X138357419Y-85694956D01*
X138143218Y-85606231D01*
X137915824Y-85561000D01*
X137683976Y-85561000D01*
X137456582Y-85606231D01*
X137242381Y-85694956D01*
X137049606Y-85823764D01*
X136885664Y-85987706D01*
X136756856Y-86180481D01*
X136668131Y-86394682D01*
X136622900Y-86622076D01*
X136436900Y-86622076D01*
X136391669Y-86394682D01*
X136302944Y-86180481D01*
X136174136Y-85987706D01*
X136010194Y-85823764D01*
X135817419Y-85694956D01*
X135603218Y-85606231D01*
X135375824Y-85561000D01*
X135143976Y-85561000D01*
X134916582Y-85606231D01*
X134702381Y-85694956D01*
X134509606Y-85823764D01*
X134345664Y-85987706D01*
X134216856Y-86180481D01*
X134128131Y-86394682D01*
X134082900Y-86622076D01*
X133896900Y-86622076D01*
X133851669Y-86394682D01*
X133762944Y-86180481D01*
X133634136Y-85987706D01*
X133470194Y-85823764D01*
X133277419Y-85694956D01*
X133063218Y-85606231D01*
X132835824Y-85561000D01*
X132603976Y-85561000D01*
X132376582Y-85606231D01*
X132162381Y-85694956D01*
X131969606Y-85823764D01*
X131805664Y-85987706D01*
X131676856Y-86180481D01*
X131588131Y-86394682D01*
X131542900Y-86622076D01*
X131356900Y-86622076D01*
X131311669Y-86394682D01*
X131222944Y-86180481D01*
X131094136Y-85987706D01*
X130930194Y-85823764D01*
X130737419Y-85694956D01*
X130523218Y-85606231D01*
X130295824Y-85561000D01*
X130063976Y-85561000D01*
X129836582Y-85606231D01*
X129622381Y-85694956D01*
X129429606Y-85823764D01*
X129265664Y-85987706D01*
X129136856Y-86180481D01*
X129048131Y-86394682D01*
X129002900Y-86622076D01*
X128816900Y-86622076D01*
X128771669Y-86394682D01*
X128682944Y-86180481D01*
X128554136Y-85987706D01*
X128390194Y-85823764D01*
X128197419Y-85694956D01*
X127983218Y-85606231D01*
X127755824Y-85561000D01*
X127523976Y-85561000D01*
X127296582Y-85606231D01*
X127082381Y-85694956D01*
X126889606Y-85823764D01*
X126725664Y-85987706D01*
X126596856Y-86180481D01*
X126508131Y-86394682D01*
X126462900Y-86622076D01*
X126276900Y-86622076D01*
X126231669Y-86394682D01*
X126142944Y-86180481D01*
X126014136Y-85987706D01*
X125850194Y-85823764D01*
X125657419Y-85694956D01*
X125443218Y-85606231D01*
X125215824Y-85561000D01*
X124983976Y-85561000D01*
X124756582Y-85606231D01*
X124542381Y-85694956D01*
X124349606Y-85823764D01*
X124185664Y-85987706D01*
X124056856Y-86180481D01*
X123968131Y-86394682D01*
X123922900Y-86622076D01*
X123736900Y-86622076D01*
X123691669Y-86394682D01*
X123602944Y-86180481D01*
X123474136Y-85987706D01*
X123310194Y-85823764D01*
X123117419Y-85694956D01*
X122903218Y-85606231D01*
X122675824Y-85561000D01*
X122443976Y-85561000D01*
X122216582Y-85606231D01*
X122111063Y-85649938D01*
X113407223Y-76946100D01*
X113393059Y-76928841D01*
X113324233Y-76872357D01*
X113245710Y-76830386D01*
X113160507Y-76804540D01*
X113094105Y-76798000D01*
X113071900Y-76795813D01*
X113049695Y-76798000D01*
X110404603Y-76798000D01*
X110431185Y-76776185D01*
X110510537Y-76679494D01*
X110569502Y-76569180D01*
X110605812Y-76449482D01*
X110618072Y-76325000D01*
X110615000Y-76310750D01*
X110456250Y-76152000D01*
X109207000Y-76152000D01*
X109207000Y-76172000D01*
X108953000Y-76172000D01*
X108953000Y-76152000D01*
X108933000Y-76152000D01*
X108933000Y-75898000D01*
X108953000Y-75898000D01*
X108953000Y-75878000D01*
X109207000Y-75878000D01*
X109207000Y-75898000D01*
X110456250Y-75898000D01*
X110615000Y-75739250D01*
X110618072Y-75725000D01*
X110605812Y-75600518D01*
X110569502Y-75480820D01*
X110510537Y-75370506D01*
X110431185Y-75273815D01*
X110334494Y-75194463D01*
X110308057Y-75180332D01*
X110308582Y-75175000D01*
X110308582Y-74425000D01*
X110302268Y-74360897D01*
X110283570Y-74299257D01*
X110253206Y-74242450D01*
X110212343Y-74192657D01*
X110162550Y-74151794D01*
X110105743Y-74121430D01*
X110044103Y-74102732D01*
X109980000Y-74096418D01*
X108933153Y-74096418D01*
X108957000Y-73976528D01*
X108957000Y-73823472D01*
X108927141Y-73673357D01*
X108868569Y-73531952D01*
X108783536Y-73404691D01*
X108675309Y-73296464D01*
X108548048Y-73211431D01*
X108406643Y-73152859D01*
X108256528Y-73123000D01*
X108103472Y-73123000D01*
X107953357Y-73152859D01*
X107811952Y-73211431D01*
X107756436Y-73248526D01*
X107705743Y-73221430D01*
X107644103Y-73202732D01*
X107580000Y-73196418D01*
X106902000Y-73196418D01*
X106902000Y-71359453D01*
X128573000Y-71359453D01*
X128573000Y-71640547D01*
X128627838Y-71916241D01*
X128735409Y-72175938D01*
X128891576Y-72409660D01*
X129090340Y-72608424D01*
X129324062Y-72764591D01*
X129583759Y-72872162D01*
X129859453Y-72927000D01*
X130140547Y-72927000D01*
X130416241Y-72872162D01*
X130675938Y-72764591D01*
X130909660Y-72608424D01*
X131108424Y-72409660D01*
X131264591Y-72175938D01*
X131372162Y-71916241D01*
X131427000Y-71640547D01*
X131427000Y-71359453D01*
X136573000Y-71359453D01*
X136573000Y-71640547D01*
X136627838Y-71916241D01*
X136735409Y-72175938D01*
X136891576Y-72409660D01*
X137090340Y-72608424D01*
X137324062Y-72764591D01*
X137583759Y-72872162D01*
X137859453Y-72927000D01*
X138140547Y-72927000D01*
X138416241Y-72872162D01*
X138675938Y-72764591D01*
X138909660Y-72608424D01*
X139108424Y-72409660D01*
X139264591Y-72175938D01*
X139372162Y-71916241D01*
X139427000Y-71640547D01*
X139427000Y-71359453D01*
X139372162Y-71083759D01*
X139264591Y-70824062D01*
X139108424Y-70590340D01*
X138909660Y-70391576D01*
X138675938Y-70235409D01*
X138416241Y-70127838D01*
X138140547Y-70073000D01*
X137859453Y-70073000D01*
X137583759Y-70127838D01*
X137324062Y-70235409D01*
X137090340Y-70391576D01*
X136891576Y-70590340D01*
X136735409Y-70824062D01*
X136627838Y-71083759D01*
X136573000Y-71359453D01*
X131427000Y-71359453D01*
X131372162Y-71083759D01*
X131264591Y-70824062D01*
X131108424Y-70590340D01*
X130909660Y-70391576D01*
X130675938Y-70235409D01*
X130416241Y-70127838D01*
X130140547Y-70073000D01*
X129859453Y-70073000D01*
X129583759Y-70127838D01*
X129324062Y-70235409D01*
X129090340Y-70391576D01*
X128891576Y-70590340D01*
X128735409Y-70824062D01*
X128627838Y-71083759D01*
X128573000Y-71359453D01*
X106902000Y-71359453D01*
X106902000Y-69100000D01*
X151686418Y-69100000D01*
X151686418Y-71600000D01*
X151692732Y-71664103D01*
X151711430Y-71725743D01*
X151741794Y-71782550D01*
X151782657Y-71832343D01*
X151832450Y-71873206D01*
X151889257Y-71903570D01*
X151950897Y-71922268D01*
X152015000Y-71928582D01*
X153215000Y-71928582D01*
X153279103Y-71922268D01*
X153340743Y-71903570D01*
X153397550Y-71873206D01*
X153447343Y-71832343D01*
X153488206Y-71782550D01*
X153518570Y-71725743D01*
X153537268Y-71664103D01*
X153543582Y-71600000D01*
X153543582Y-69800000D01*
X154411418Y-69800000D01*
X154411418Y-70900000D01*
X154417732Y-70964103D01*
X154436430Y-71025743D01*
X154466794Y-71082550D01*
X154507657Y-71132343D01*
X154557450Y-71173206D01*
X154614257Y-71203570D01*
X154675897Y-71222268D01*
X154688000Y-71223460D01*
X154688001Y-74440472D01*
X154663479Y-74477172D01*
X154623752Y-74573080D01*
X154603500Y-74674895D01*
X154603500Y-74778705D01*
X154623752Y-74880520D01*
X154663479Y-74976428D01*
X154721152Y-75062743D01*
X154794557Y-75136148D01*
X154880872Y-75193821D01*
X154976780Y-75233548D01*
X155078595Y-75253800D01*
X155182405Y-75253800D01*
X155284220Y-75233548D01*
X155380128Y-75193821D01*
X155466443Y-75136148D01*
X155539848Y-75062743D01*
X155597521Y-74976428D01*
X155637248Y-74880520D01*
X155657500Y-74778705D01*
X155657500Y-74674895D01*
X155637248Y-74573080D01*
X155597521Y-74477172D01*
X155592000Y-74468909D01*
X155592000Y-71223460D01*
X155604103Y-71222268D01*
X155665743Y-71203570D01*
X155722550Y-71173206D01*
X155772343Y-71132343D01*
X155775000Y-71129105D01*
X155777657Y-71132343D01*
X155827450Y-71173206D01*
X155884257Y-71203570D01*
X155945897Y-71222268D01*
X155958000Y-71223460D01*
X155957999Y-73448564D01*
X155874057Y-73504652D01*
X155800652Y-73578057D01*
X155742979Y-73664372D01*
X155703252Y-73760280D01*
X155683000Y-73862095D01*
X155683000Y-73965905D01*
X155703252Y-74067720D01*
X155742979Y-74163628D01*
X155800652Y-74249943D01*
X155874057Y-74323348D01*
X155960372Y-74381021D01*
X156056280Y-74420748D01*
X156158095Y-74441000D01*
X156261905Y-74441000D01*
X156363720Y-74420748D01*
X156459628Y-74381021D01*
X156545943Y-74323348D01*
X156619348Y-74249943D01*
X156677021Y-74163628D01*
X156716748Y-74067720D01*
X156721677Y-74042940D01*
X156731157Y-74035160D01*
X156787641Y-73966334D01*
X156829612Y-73887811D01*
X156837413Y-73862095D01*
X156855459Y-73802609D01*
X156864186Y-73714002D01*
X156861998Y-73691787D01*
X156861999Y-71223460D01*
X156874103Y-71222268D01*
X156935743Y-71203570D01*
X156992550Y-71173206D01*
X157042343Y-71132343D01*
X157045000Y-71129105D01*
X157047657Y-71132343D01*
X157097450Y-71173206D01*
X157154257Y-71203570D01*
X157215897Y-71222268D01*
X157228000Y-71223460D01*
X157228001Y-72178563D01*
X157144057Y-72234652D01*
X157070652Y-72308057D01*
X157012979Y-72394372D01*
X156973252Y-72490280D01*
X156953000Y-72592095D01*
X156953000Y-72695905D01*
X156973252Y-72797720D01*
X157012979Y-72893628D01*
X157070652Y-72979943D01*
X157144057Y-73053348D01*
X157230372Y-73111021D01*
X157326280Y-73150748D01*
X157428095Y-73171000D01*
X157531905Y-73171000D01*
X157633720Y-73150748D01*
X157729628Y-73111021D01*
X157815943Y-73053348D01*
X157889348Y-72979943D01*
X157947021Y-72893628D01*
X157986748Y-72797720D01*
X157991677Y-72772941D01*
X158001159Y-72765159D01*
X158057643Y-72696333D01*
X158099614Y-72617810D01*
X158125460Y-72532607D01*
X158127121Y-72515748D01*
X158134187Y-72444000D01*
X158132000Y-72421795D01*
X158132000Y-71223460D01*
X158144103Y-71222268D01*
X158205743Y-71203570D01*
X158262550Y-71173206D01*
X158312343Y-71132343D01*
X158315000Y-71129105D01*
X158317657Y-71132343D01*
X158367450Y-71173206D01*
X158424257Y-71203570D01*
X158432766Y-71206151D01*
X158414057Y-71218652D01*
X158340652Y-71292057D01*
X158282979Y-71378372D01*
X158243252Y-71474280D01*
X158223000Y-71576095D01*
X158223000Y-71679905D01*
X158243252Y-71781720D01*
X158282979Y-71877628D01*
X158340652Y-71963943D01*
X158414057Y-72037348D01*
X158500372Y-72095021D01*
X158596280Y-72134748D01*
X158698095Y-72155000D01*
X158801905Y-72155000D01*
X158903720Y-72134748D01*
X158999628Y-72095021D01*
X159085943Y-72037348D01*
X159159348Y-71963943D01*
X159217021Y-71877628D01*
X159256748Y-71781720D01*
X159261677Y-71756941D01*
X159271159Y-71749159D01*
X159327643Y-71680333D01*
X159369614Y-71601810D01*
X159395460Y-71516607D01*
X159398869Y-71482000D01*
X159404187Y-71428000D01*
X159402000Y-71405795D01*
X159402000Y-71223460D01*
X159414103Y-71222268D01*
X159475743Y-71203570D01*
X159532550Y-71173206D01*
X159582343Y-71132343D01*
X159585000Y-71129105D01*
X159587657Y-71132343D01*
X159637450Y-71173206D01*
X159694257Y-71203570D01*
X159755897Y-71222268D01*
X159768001Y-71223460D01*
X159768001Y-71642708D01*
X159737652Y-71673057D01*
X159679979Y-71759372D01*
X159640252Y-71855280D01*
X159620000Y-71957095D01*
X159620000Y-72060905D01*
X159640252Y-72162720D01*
X159679979Y-72258628D01*
X159737652Y-72344943D01*
X159811057Y-72418348D01*
X159897372Y-72476021D01*
X159993280Y-72515748D01*
X160095095Y-72536000D01*
X160198905Y-72536000D01*
X160300720Y-72515748D01*
X160396628Y-72476021D01*
X160482943Y-72418348D01*
X160556348Y-72344943D01*
X160614021Y-72258628D01*
X160653748Y-72162720D01*
X160674000Y-72060905D01*
X160674000Y-71957095D01*
X160672735Y-71950738D01*
X160674187Y-71936000D01*
X160672000Y-71913795D01*
X160672000Y-71223460D01*
X160684103Y-71222268D01*
X160745743Y-71203570D01*
X160802550Y-71173206D01*
X160852343Y-71132343D01*
X160855000Y-71129105D01*
X160857657Y-71132343D01*
X160907450Y-71173206D01*
X160964257Y-71203570D01*
X161025897Y-71222268D01*
X161090000Y-71228582D01*
X161890000Y-71228582D01*
X161954103Y-71222268D01*
X162015743Y-71203570D01*
X162072550Y-71173206D01*
X162122343Y-71132343D01*
X162163206Y-71082550D01*
X162193570Y-71025743D01*
X162212268Y-70964103D01*
X162218582Y-70900000D01*
X162218582Y-69800000D01*
X162212268Y-69735897D01*
X162193570Y-69674257D01*
X162163206Y-69617450D01*
X162122343Y-69567657D01*
X162072550Y-69526794D01*
X162015743Y-69496430D01*
X161954103Y-69477732D01*
X161942000Y-69476540D01*
X161942000Y-69100000D01*
X163086418Y-69100000D01*
X163086418Y-71600000D01*
X163092732Y-71664103D01*
X163111430Y-71725743D01*
X163141794Y-71782550D01*
X163182657Y-71832343D01*
X163232450Y-71873206D01*
X163289257Y-71903570D01*
X163350897Y-71922268D01*
X163415000Y-71928582D01*
X164615000Y-71928582D01*
X164679103Y-71922268D01*
X164740743Y-71903570D01*
X164797550Y-71873206D01*
X164847343Y-71832343D01*
X164888206Y-71782550D01*
X164918570Y-71725743D01*
X164937268Y-71664103D01*
X164943582Y-71600000D01*
X164943582Y-69100000D01*
X164937268Y-69035897D01*
X164918570Y-68974257D01*
X164888206Y-68917450D01*
X164847343Y-68867657D01*
X164797550Y-68826794D01*
X164740743Y-68796430D01*
X164679103Y-68777732D01*
X164615000Y-68771418D01*
X163415000Y-68771418D01*
X163350897Y-68777732D01*
X163289257Y-68796430D01*
X163232450Y-68826794D01*
X163182657Y-68867657D01*
X163141794Y-68917450D01*
X163111430Y-68974257D01*
X163092732Y-69035897D01*
X163086418Y-69100000D01*
X161942000Y-69100000D01*
X161942000Y-68992704D01*
X161944187Y-68970499D01*
X161935460Y-68881893D01*
X161909614Y-68796691D01*
X161909614Y-68796690D01*
X161867643Y-68718167D01*
X161811159Y-68649341D01*
X161805941Y-68645059D01*
X161801659Y-68639841D01*
X161732833Y-68583357D01*
X161654310Y-68541386D01*
X161569107Y-68515540D01*
X161502705Y-68509000D01*
X161480500Y-68506813D01*
X161458295Y-68509000D01*
X159772109Y-68509000D01*
X159749628Y-68493979D01*
X159653720Y-68454252D01*
X159551905Y-68434000D01*
X159448095Y-68434000D01*
X159346280Y-68454252D01*
X159250372Y-68493979D01*
X159164057Y-68551652D01*
X159090652Y-68625057D01*
X159032979Y-68711372D01*
X158993252Y-68807280D01*
X158973000Y-68909095D01*
X158973000Y-69012905D01*
X158993252Y-69114720D01*
X159032979Y-69210628D01*
X159090652Y-69296943D01*
X159164057Y-69370348D01*
X159250372Y-69428021D01*
X159346280Y-69467748D01*
X159379180Y-69474292D01*
X159350000Y-69471418D01*
X158550000Y-69471418D01*
X158485897Y-69477732D01*
X158424257Y-69496430D01*
X158367450Y-69526794D01*
X158317657Y-69567657D01*
X158315000Y-69570895D01*
X158312343Y-69567657D01*
X158262550Y-69526794D01*
X158205743Y-69496430D01*
X158144103Y-69477732D01*
X158080000Y-69471418D01*
X157280000Y-69471418D01*
X157215897Y-69477732D01*
X157154257Y-69496430D01*
X157097450Y-69526794D01*
X157047657Y-69567657D01*
X157045000Y-69570895D01*
X157042343Y-69567657D01*
X156992550Y-69526794D01*
X156935743Y-69496430D01*
X156874103Y-69477732D01*
X156810000Y-69471418D01*
X156010000Y-69471418D01*
X155945897Y-69477732D01*
X155884257Y-69496430D01*
X155827450Y-69526794D01*
X155777657Y-69567657D01*
X155775000Y-69570895D01*
X155772343Y-69567657D01*
X155722550Y-69526794D01*
X155665743Y-69496430D01*
X155604103Y-69477732D01*
X155540000Y-69471418D01*
X154740000Y-69471418D01*
X154675897Y-69477732D01*
X154614257Y-69496430D01*
X154557450Y-69526794D01*
X154507657Y-69567657D01*
X154466794Y-69617450D01*
X154436430Y-69674257D01*
X154417732Y-69735897D01*
X154411418Y-69800000D01*
X153543582Y-69800000D01*
X153543582Y-69100000D01*
X153537268Y-69035897D01*
X153518570Y-68974257D01*
X153488206Y-68917450D01*
X153447343Y-68867657D01*
X153397550Y-68826794D01*
X153340743Y-68796430D01*
X153279103Y-68777732D01*
X153215000Y-68771418D01*
X152015000Y-68771418D01*
X151950897Y-68777732D01*
X151889257Y-68796430D01*
X151832450Y-68826794D01*
X151782657Y-68867657D01*
X151741794Y-68917450D01*
X151711430Y-68974257D01*
X151692732Y-69035897D01*
X151686418Y-69100000D01*
X106902000Y-69100000D01*
X106902000Y-66310207D01*
X109573000Y-66310207D01*
X109573000Y-66689793D01*
X109647053Y-67062085D01*
X109792315Y-67412777D01*
X110003201Y-67728391D01*
X110271609Y-67996799D01*
X110587223Y-68207685D01*
X110937915Y-68352947D01*
X111310207Y-68427000D01*
X111689793Y-68427000D01*
X112062085Y-68352947D01*
X112412777Y-68207685D01*
X112728391Y-67996799D01*
X112996799Y-67728391D01*
X113207685Y-67412777D01*
X113352947Y-67062085D01*
X113427000Y-66689793D01*
X113427000Y-66344679D01*
X123423000Y-66344679D01*
X123423000Y-66655321D01*
X123483604Y-66959994D01*
X123602481Y-67246989D01*
X123775064Y-67505279D01*
X123994721Y-67724936D01*
X124253011Y-67897519D01*
X124540006Y-68016396D01*
X124844679Y-68077000D01*
X125155321Y-68077000D01*
X125459994Y-68016396D01*
X125746989Y-67897519D01*
X126005279Y-67724936D01*
X126224936Y-67505279D01*
X126397519Y-67246989D01*
X126516396Y-66959994D01*
X126577000Y-66655321D01*
X126577000Y-66344679D01*
X141423000Y-66344679D01*
X141423000Y-66655321D01*
X141483604Y-66959994D01*
X141602481Y-67246989D01*
X141775064Y-67505279D01*
X141994721Y-67724936D01*
X142253011Y-67897519D01*
X142540006Y-68016396D01*
X142844679Y-68077000D01*
X143155321Y-68077000D01*
X143459994Y-68016396D01*
X143746989Y-67897519D01*
X144005279Y-67724936D01*
X144224936Y-67505279D01*
X144235813Y-67489000D01*
X151803000Y-67489000D01*
X151803000Y-67711000D01*
X151846310Y-67928734D01*
X151931266Y-68133835D01*
X152054602Y-68318421D01*
X152211579Y-68475398D01*
X152396165Y-68598734D01*
X152601266Y-68683690D01*
X152819000Y-68727000D01*
X153041000Y-68727000D01*
X153258734Y-68683690D01*
X153463835Y-68598734D01*
X153648421Y-68475398D01*
X153805398Y-68318421D01*
X153928734Y-68133835D01*
X154013690Y-67928734D01*
X154057000Y-67711000D01*
X154057000Y-67489000D01*
X162573000Y-67489000D01*
X162573000Y-67711000D01*
X162616310Y-67928734D01*
X162701266Y-68133835D01*
X162824602Y-68318421D01*
X162981579Y-68475398D01*
X163166165Y-68598734D01*
X163371266Y-68683690D01*
X163589000Y-68727000D01*
X163811000Y-68727000D01*
X164028734Y-68683690D01*
X164233835Y-68598734D01*
X164418421Y-68475398D01*
X164575398Y-68318421D01*
X164698734Y-68133835D01*
X164783690Y-67928734D01*
X164827000Y-67711000D01*
X164827000Y-67489000D01*
X164783690Y-67271266D01*
X164698734Y-67066165D01*
X164575398Y-66881579D01*
X164418421Y-66724602D01*
X164233835Y-66601266D01*
X164028734Y-66516310D01*
X163811000Y-66473000D01*
X163589000Y-66473000D01*
X163371266Y-66516310D01*
X163166165Y-66601266D01*
X162981579Y-66724602D01*
X162824602Y-66881579D01*
X162701266Y-67066165D01*
X162616310Y-67271266D01*
X162573000Y-67489000D01*
X154057000Y-67489000D01*
X154013690Y-67271266D01*
X153928734Y-67066165D01*
X153805398Y-66881579D01*
X153648421Y-66724602D01*
X153463835Y-66601266D01*
X153258734Y-66516310D01*
X153041000Y-66473000D01*
X152819000Y-66473000D01*
X152601266Y-66516310D01*
X152396165Y-66601266D01*
X152211579Y-66724602D01*
X152054602Y-66881579D01*
X151931266Y-67066165D01*
X151846310Y-67271266D01*
X151803000Y-67489000D01*
X144235813Y-67489000D01*
X144397519Y-67246989D01*
X144516396Y-66959994D01*
X144577000Y-66655321D01*
X144577000Y-66344679D01*
X144516396Y-66040006D01*
X144397519Y-65753011D01*
X144224936Y-65494721D01*
X144005279Y-65275064D01*
X143746989Y-65102481D01*
X143459994Y-64983604D01*
X143155321Y-64923000D01*
X142844679Y-64923000D01*
X142540006Y-64983604D01*
X142253011Y-65102481D01*
X141994721Y-65275064D01*
X141775064Y-65494721D01*
X141602481Y-65753011D01*
X141483604Y-66040006D01*
X141423000Y-66344679D01*
X126577000Y-66344679D01*
X126516396Y-66040006D01*
X126397519Y-65753011D01*
X126224936Y-65494721D01*
X126005279Y-65275064D01*
X125746989Y-65102481D01*
X125459994Y-64983604D01*
X125155321Y-64923000D01*
X124844679Y-64923000D01*
X124540006Y-64983604D01*
X124253011Y-65102481D01*
X123994721Y-65275064D01*
X123775064Y-65494721D01*
X123602481Y-65753011D01*
X123483604Y-66040006D01*
X123423000Y-66344679D01*
X113427000Y-66344679D01*
X113427000Y-66310207D01*
X113352947Y-65937915D01*
X113207685Y-65587223D01*
X112996799Y-65271609D01*
X112728391Y-65003201D01*
X112412777Y-64792315D01*
X112062085Y-64647053D01*
X111689793Y-64573000D01*
X111310207Y-64573000D01*
X110937915Y-64647053D01*
X110587223Y-64792315D01*
X110271609Y-65003201D01*
X110003201Y-65271609D01*
X109792315Y-65587223D01*
X109647053Y-65937915D01*
X109573000Y-66310207D01*
X106902000Y-66310207D01*
X106902000Y-64519658D01*
X106953369Y-63995758D01*
X107072855Y-63600000D01*
X151686418Y-63600000D01*
X151686418Y-66100000D01*
X151692732Y-66164103D01*
X151711430Y-66225743D01*
X151741794Y-66282550D01*
X151782657Y-66332343D01*
X151832450Y-66373206D01*
X151889257Y-66403570D01*
X151950897Y-66422268D01*
X152015000Y-66428582D01*
X153215000Y-66428582D01*
X153279103Y-66422268D01*
X153340743Y-66403570D01*
X153397550Y-66373206D01*
X153447343Y-66332343D01*
X153488206Y-66282550D01*
X153518570Y-66225743D01*
X153537268Y-66164103D01*
X153543582Y-66100000D01*
X153543582Y-65400000D01*
X154101928Y-65400000D01*
X154114188Y-65524482D01*
X154150498Y-65644180D01*
X154209463Y-65754494D01*
X154288815Y-65851185D01*
X154385506Y-65930537D01*
X154495820Y-65989502D01*
X154615518Y-66025812D01*
X154740000Y-66038072D01*
X154854250Y-66035000D01*
X155013000Y-65876250D01*
X155013000Y-64977000D01*
X155267000Y-64977000D01*
X155267000Y-65876250D01*
X155425750Y-66035000D01*
X155540000Y-66038072D01*
X155664482Y-66025812D01*
X155775000Y-65992287D01*
X155885518Y-66025812D01*
X156010000Y-66038072D01*
X156124250Y-66035000D01*
X156283000Y-65876250D01*
X156283000Y-64977000D01*
X156537000Y-64977000D01*
X156537000Y-65876250D01*
X156695750Y-66035000D01*
X156810000Y-66038072D01*
X156934482Y-66025812D01*
X157045000Y-65992287D01*
X157155518Y-66025812D01*
X157280000Y-66038072D01*
X157394250Y-66035000D01*
X157553000Y-65876250D01*
X157553000Y-64977000D01*
X157807000Y-64977000D01*
X157807000Y-65876250D01*
X157965750Y-66035000D01*
X158080000Y-66038072D01*
X158204482Y-66025812D01*
X158315000Y-65992287D01*
X158425518Y-66025812D01*
X158550000Y-66038072D01*
X158664250Y-66035000D01*
X158823000Y-65876250D01*
X158823000Y-64977000D01*
X157807000Y-64977000D01*
X157553000Y-64977000D01*
X156537000Y-64977000D01*
X156283000Y-64977000D01*
X155267000Y-64977000D01*
X155013000Y-64977000D01*
X154263750Y-64977000D01*
X154105000Y-65135750D01*
X154101928Y-65400000D01*
X153543582Y-65400000D01*
X153543582Y-64300000D01*
X154101928Y-64300000D01*
X154105000Y-64564250D01*
X154263750Y-64723000D01*
X155013000Y-64723000D01*
X155013000Y-63823750D01*
X155267000Y-63823750D01*
X155267000Y-64723000D01*
X156283000Y-64723000D01*
X156283000Y-63823750D01*
X156537000Y-63823750D01*
X156537000Y-64723000D01*
X157553000Y-64723000D01*
X157553000Y-63823750D01*
X157807000Y-63823750D01*
X157807000Y-64723000D01*
X158823000Y-64723000D01*
X158823000Y-63823750D01*
X159077000Y-63823750D01*
X159077000Y-64723000D01*
X159097000Y-64723000D01*
X159097000Y-64977000D01*
X159077000Y-64977000D01*
X159077000Y-65876250D01*
X159235750Y-66035000D01*
X159350000Y-66038072D01*
X159474482Y-66025812D01*
X159593001Y-65989860D01*
X159593001Y-66463196D01*
X159589967Y-66494000D01*
X159602073Y-66616912D01*
X159634741Y-66724602D01*
X159637926Y-66735103D01*
X159696148Y-66844028D01*
X159774500Y-66939501D01*
X159798425Y-66959136D01*
X159852420Y-67013130D01*
X159923973Y-67071853D01*
X160032897Y-67130075D01*
X160151088Y-67165927D01*
X160274000Y-67178033D01*
X160396913Y-67165927D01*
X160515103Y-67130075D01*
X160624028Y-67071853D01*
X160719500Y-66993500D01*
X160797853Y-66898028D01*
X160856075Y-66789103D01*
X160890797Y-66674637D01*
X160891514Y-66677000D01*
X160907926Y-66731103D01*
X160966148Y-66840028D01*
X161044500Y-66935501D01*
X161068423Y-66955134D01*
X161078419Y-66965130D01*
X161149973Y-67023852D01*
X161258897Y-67082074D01*
X161377088Y-67117927D01*
X161499999Y-67130033D01*
X161622912Y-67117927D01*
X161741103Y-67082074D01*
X161850027Y-67023852D01*
X161945500Y-66945500D01*
X162023852Y-66850027D01*
X162082074Y-66741103D01*
X162117927Y-66622912D01*
X162130033Y-66499999D01*
X162117927Y-66377088D01*
X162117000Y-66374032D01*
X162117000Y-65636728D01*
X162122343Y-65632343D01*
X162163206Y-65582550D01*
X162193570Y-65525743D01*
X162212268Y-65464103D01*
X162218582Y-65400000D01*
X162218582Y-64300000D01*
X162212268Y-64235897D01*
X162193570Y-64174257D01*
X162163206Y-64117450D01*
X162122343Y-64067657D01*
X162072550Y-64026794D01*
X162015743Y-63996430D01*
X161954103Y-63977732D01*
X161890000Y-63971418D01*
X161090000Y-63971418D01*
X161025897Y-63977732D01*
X160964257Y-63996430D01*
X160907450Y-64026794D01*
X160857657Y-64067657D01*
X160855000Y-64070895D01*
X160852343Y-64067657D01*
X160802550Y-64026794D01*
X160745743Y-63996430D01*
X160684103Y-63977732D01*
X160620000Y-63971418D01*
X159894387Y-63971418D01*
X159880537Y-63945506D01*
X159801185Y-63848815D01*
X159704494Y-63769463D01*
X159594180Y-63710498D01*
X159474482Y-63674188D01*
X159350000Y-63661928D01*
X159235750Y-63665000D01*
X159077000Y-63823750D01*
X158823000Y-63823750D01*
X158664250Y-63665000D01*
X158550000Y-63661928D01*
X158425518Y-63674188D01*
X158315000Y-63707713D01*
X158204482Y-63674188D01*
X158080000Y-63661928D01*
X157965750Y-63665000D01*
X157807000Y-63823750D01*
X157553000Y-63823750D01*
X157394250Y-63665000D01*
X157280000Y-63661928D01*
X157155518Y-63674188D01*
X157045000Y-63707713D01*
X156934482Y-63674188D01*
X156810000Y-63661928D01*
X156695750Y-63665000D01*
X156537000Y-63823750D01*
X156283000Y-63823750D01*
X156124250Y-63665000D01*
X156010000Y-63661928D01*
X155885518Y-63674188D01*
X155775000Y-63707713D01*
X155664482Y-63674188D01*
X155540000Y-63661928D01*
X155425750Y-63665000D01*
X155267000Y-63823750D01*
X155013000Y-63823750D01*
X154854250Y-63665000D01*
X154740000Y-63661928D01*
X154615518Y-63674188D01*
X154495820Y-63710498D01*
X154385506Y-63769463D01*
X154288815Y-63848815D01*
X154209463Y-63945506D01*
X154150498Y-64055820D01*
X154114188Y-64175518D01*
X154101928Y-64300000D01*
X153543582Y-64300000D01*
X153543582Y-63600000D01*
X163086418Y-63600000D01*
X163086418Y-66100000D01*
X163092732Y-66164103D01*
X163111430Y-66225743D01*
X163141794Y-66282550D01*
X163182657Y-66332343D01*
X163232450Y-66373206D01*
X163289257Y-66403570D01*
X163350897Y-66422268D01*
X163415000Y-66428582D01*
X164615000Y-66428582D01*
X164679103Y-66422268D01*
X164740743Y-66403570D01*
X164797550Y-66373206D01*
X164847343Y-66332343D01*
X164888206Y-66282550D01*
X164918570Y-66225743D01*
X164937268Y-66164103D01*
X164943582Y-66100000D01*
X164943582Y-64834830D01*
X166323000Y-64834830D01*
X166323000Y-65165170D01*
X166387446Y-65489163D01*
X166513862Y-65794357D01*
X166697389Y-66069025D01*
X166930975Y-66302611D01*
X167205643Y-66486138D01*
X167510837Y-66612554D01*
X167834830Y-66677000D01*
X168165170Y-66677000D01*
X168489163Y-66612554D01*
X168794357Y-66486138D01*
X169069025Y-66302611D01*
X169302611Y-66069025D01*
X169486138Y-65794357D01*
X169612554Y-65489163D01*
X169677000Y-65165170D01*
X169677000Y-64834830D01*
X169612554Y-64510837D01*
X169486138Y-64205643D01*
X169302611Y-63930975D01*
X169069025Y-63697389D01*
X168794357Y-63513862D01*
X168489163Y-63387446D01*
X168165170Y-63323000D01*
X167834830Y-63323000D01*
X167510837Y-63387446D01*
X167205643Y-63513862D01*
X166930975Y-63697389D01*
X166697389Y-63930975D01*
X166513862Y-64205643D01*
X166387446Y-64510837D01*
X166323000Y-64834830D01*
X164943582Y-64834830D01*
X164943582Y-63600000D01*
X164937268Y-63535897D01*
X164918570Y-63474257D01*
X164888206Y-63417450D01*
X164847343Y-63367657D01*
X164797550Y-63326794D01*
X164740743Y-63296430D01*
X164679103Y-63277732D01*
X164615000Y-63271418D01*
X163415000Y-63271418D01*
X163350897Y-63277732D01*
X163289257Y-63296430D01*
X163232450Y-63326794D01*
X163182657Y-63367657D01*
X163141794Y-63417450D01*
X163111430Y-63474257D01*
X163092732Y-63535897D01*
X163086418Y-63600000D01*
X153543582Y-63600000D01*
X153537268Y-63535897D01*
X153518570Y-63474257D01*
X153488206Y-63417450D01*
X153447343Y-63367657D01*
X153397550Y-63326794D01*
X153340743Y-63296430D01*
X153279103Y-63277732D01*
X153215000Y-63271418D01*
X152015000Y-63271418D01*
X151950897Y-63277732D01*
X151889257Y-63296430D01*
X151832450Y-63326794D01*
X151782657Y-63367657D01*
X151741794Y-63417450D01*
X151711430Y-63474257D01*
X151692732Y-63535897D01*
X151686418Y-63600000D01*
X107072855Y-63600000D01*
X107099812Y-63510714D01*
X107337674Y-63063358D01*
X107657904Y-62670718D01*
X108048294Y-62347759D01*
X108493980Y-62106778D01*
X108977987Y-61956952D01*
X109500820Y-61902000D01*
X168480342Y-61902000D01*
X169004242Y-61953369D01*
M02*
