G04 #@! TF.GenerationSoftware,KiCad,Pcbnew,(5.1.9-0-10_14)*
G04 #@! TF.CreationDate,2021-05-06T16:16:17-07:00*
G04 #@! TF.ProjectId,Luminometer_RPi,4c756d69-6e6f-46d6-9574-65725f525069,rev?*
G04 #@! TF.SameCoordinates,Original*
G04 #@! TF.FileFunction,Soldermask,Top*
G04 #@! TF.FilePolarity,Negative*
%FSLAX46Y46*%
G04 Gerber Fmt 4.6, Leading zero omitted, Abs format (unit mm)*
G04 Created by KiCad (PCBNEW (5.1.9-0-10_14)) date 2021-05-06 16:16:17*
%MOMM*%
%LPD*%
G01*
G04 APERTURE LIST*
G04 #@! TA.AperFunction,Profile*
%ADD10C,0.150000*%
G04 #@! TD*
%ADD11C,5.101600*%
%ADD12C,4.601600*%
%ADD13C,3.201600*%
%ADD14C,1.701600*%
%ADD15C,0.481600*%
%ADD16C,1.879600*%
%ADD17C,2.641600*%
%ADD18O,1.501600X1.001600*%
%ADD19C,4.501600*%
%ADD20C,2.701600*%
%ADD21O,1.001600X1.501600*%
%ADD22O,1.801600X1.801600*%
%ADD23C,1.422400*%
G04 APERTURE END LIST*
D10*
X178000000Y-71250000D02*
G75*
G02*
X181000000Y-74250000I0J-3000000D01*
G01*
X181000000Y-74250000D02*
X180989637Y-108750000D01*
X174500000Y-71250000D02*
X178000000Y-71250000D01*
X174500000Y-71250000D02*
G75*
G02*
X171500000Y-68250000I0J3000000D01*
G01*
X171500000Y-64500000D02*
X171500000Y-68250000D01*
X168500000Y-61500000D02*
G75*
G02*
X171500000Y-64500000I0J-3000000D01*
G01*
X108750000Y-111500000D02*
G75*
G02*
X105750000Y-108500000I0J3000000D01*
G01*
X180989637Y-108749136D02*
G75*
G02*
X178000000Y-111500000I-2989637J249136D01*
G01*
X105750000Y-64500000D02*
G75*
G02*
X108750000Y-61500000I3000000J0D01*
G01*
X105750000Y-108500000D02*
X105750000Y-64500000D01*
X178000000Y-111500000D02*
X108750000Y-111500000D01*
X108750000Y-61500000D02*
X168500000Y-61500000D01*
D11*
X168000000Y-108000000D03*
X110000000Y-108000000D03*
X110000000Y-65000000D03*
D12*
X139000000Y-96500000D03*
D13*
X139000000Y-96500000D03*
D14*
X164885000Y-67500000D03*
X154115000Y-67500000D03*
G36*
G01*
X131374600Y-95124200D02*
X131925400Y-95124200D01*
G75*
G02*
X132175800Y-95374600I0J-250400D01*
G01*
X132175800Y-95875400D01*
G75*
G02*
X131925400Y-96125800I-250400J0D01*
G01*
X131374600Y-96125800D01*
G75*
G02*
X131124200Y-95875400I0J250400D01*
G01*
X131124200Y-95374600D01*
G75*
G02*
X131374600Y-95124200I250400J0D01*
G01*
G37*
G36*
G01*
X131374600Y-93574200D02*
X131925400Y-93574200D01*
G75*
G02*
X132175800Y-93824600I0J-250400D01*
G01*
X132175800Y-94325400D01*
G75*
G02*
X131925400Y-94575800I-250400J0D01*
G01*
X131374600Y-94575800D01*
G75*
G02*
X131124200Y-94325400I0J250400D01*
G01*
X131124200Y-93824600D01*
G75*
G02*
X131374600Y-93574200I250400J0D01*
G01*
G37*
G36*
G01*
X133300400Y-98525800D02*
X132749600Y-98525800D01*
G75*
G02*
X132499200Y-98275400I0J250400D01*
G01*
X132499200Y-97774600D01*
G75*
G02*
X132749600Y-97524200I250400J0D01*
G01*
X133300400Y-97524200D01*
G75*
G02*
X133550800Y-97774600I0J-250400D01*
G01*
X133550800Y-98275400D01*
G75*
G02*
X133300400Y-98525800I-250400J0D01*
G01*
G37*
G36*
G01*
X133300400Y-100075800D02*
X132749600Y-100075800D01*
G75*
G02*
X132499200Y-99825400I0J250400D01*
G01*
X132499200Y-99324600D01*
G75*
G02*
X132749600Y-99074200I250400J0D01*
G01*
X133300400Y-99074200D01*
G75*
G02*
X133550800Y-99324600I0J-250400D01*
G01*
X133550800Y-99825400D01*
G75*
G02*
X133300400Y-100075800I-250400J0D01*
G01*
G37*
D15*
X125525000Y-99050000D03*
X125525000Y-97550000D03*
X125525000Y-96050000D03*
X127025000Y-99050000D03*
X127025000Y-97550000D03*
X127025000Y-96050000D03*
G36*
G01*
X128275000Y-95705000D02*
X129875000Y-95705000D01*
G75*
G02*
X129945000Y-95775000I0J-70000D01*
G01*
X129945000Y-96075000D01*
G75*
G02*
X129875000Y-96145000I-70000J0D01*
G01*
X128275000Y-96145000D01*
G75*
G02*
X128205000Y-96075000I0J70000D01*
G01*
X128205000Y-95775000D01*
G75*
G02*
X128275000Y-95705000I70000J0D01*
G01*
G37*
G36*
G01*
X128275000Y-96355000D02*
X129875000Y-96355000D01*
G75*
G02*
X129945000Y-96425000I0J-70000D01*
G01*
X129945000Y-96725000D01*
G75*
G02*
X129875000Y-96795000I-70000J0D01*
G01*
X128275000Y-96795000D01*
G75*
G02*
X128205000Y-96725000I0J70000D01*
G01*
X128205000Y-96425000D01*
G75*
G02*
X128275000Y-96355000I70000J0D01*
G01*
G37*
G36*
G01*
X128275000Y-97005000D02*
X129875000Y-97005000D01*
G75*
G02*
X129945000Y-97075000I0J-70000D01*
G01*
X129945000Y-97375000D01*
G75*
G02*
X129875000Y-97445000I-70000J0D01*
G01*
X128275000Y-97445000D01*
G75*
G02*
X128205000Y-97375000I0J70000D01*
G01*
X128205000Y-97075000D01*
G75*
G02*
X128275000Y-97005000I70000J0D01*
G01*
G37*
G36*
G01*
X128275000Y-97655000D02*
X129875000Y-97655000D01*
G75*
G02*
X129945000Y-97725000I0J-70000D01*
G01*
X129945000Y-98025000D01*
G75*
G02*
X129875000Y-98095000I-70000J0D01*
G01*
X128275000Y-98095000D01*
G75*
G02*
X128205000Y-98025000I0J70000D01*
G01*
X128205000Y-97725000D01*
G75*
G02*
X128275000Y-97655000I70000J0D01*
G01*
G37*
G36*
G01*
X128275000Y-98305000D02*
X129875000Y-98305000D01*
G75*
G02*
X129945000Y-98375000I0J-70000D01*
G01*
X129945000Y-98675000D01*
G75*
G02*
X129875000Y-98745000I-70000J0D01*
G01*
X128275000Y-98745000D01*
G75*
G02*
X128205000Y-98675000I0J70000D01*
G01*
X128205000Y-98375000D01*
G75*
G02*
X128275000Y-98305000I70000J0D01*
G01*
G37*
G36*
G01*
X128275000Y-98955000D02*
X129875000Y-98955000D01*
G75*
G02*
X129945000Y-99025000I0J-70000D01*
G01*
X129945000Y-99325000D01*
G75*
G02*
X129875000Y-99395000I-70000J0D01*
G01*
X128275000Y-99395000D01*
G75*
G02*
X128205000Y-99325000I0J70000D01*
G01*
X128205000Y-99025000D01*
G75*
G02*
X128275000Y-98955000I70000J0D01*
G01*
G37*
G36*
G01*
X128275000Y-99605000D02*
X129875000Y-99605000D01*
G75*
G02*
X129945000Y-99675000I0J-70000D01*
G01*
X129945000Y-99975000D01*
G75*
G02*
X129875000Y-100045000I-70000J0D01*
G01*
X128275000Y-100045000D01*
G75*
G02*
X128205000Y-99975000I0J70000D01*
G01*
X128205000Y-99675000D01*
G75*
G02*
X128275000Y-99605000I70000J0D01*
G01*
G37*
G36*
G01*
X122675000Y-99605000D02*
X124275000Y-99605000D01*
G75*
G02*
X124345000Y-99675000I0J-70000D01*
G01*
X124345000Y-99975000D01*
G75*
G02*
X124275000Y-100045000I-70000J0D01*
G01*
X122675000Y-100045000D01*
G75*
G02*
X122605000Y-99975000I0J70000D01*
G01*
X122605000Y-99675000D01*
G75*
G02*
X122675000Y-99605000I70000J0D01*
G01*
G37*
G36*
G01*
X122675000Y-98955000D02*
X124275000Y-98955000D01*
G75*
G02*
X124345000Y-99025000I0J-70000D01*
G01*
X124345000Y-99325000D01*
G75*
G02*
X124275000Y-99395000I-70000J0D01*
G01*
X122675000Y-99395000D01*
G75*
G02*
X122605000Y-99325000I0J70000D01*
G01*
X122605000Y-99025000D01*
G75*
G02*
X122675000Y-98955000I70000J0D01*
G01*
G37*
G36*
G01*
X122675000Y-98305000D02*
X124275000Y-98305000D01*
G75*
G02*
X124345000Y-98375000I0J-70000D01*
G01*
X124345000Y-98675000D01*
G75*
G02*
X124275000Y-98745000I-70000J0D01*
G01*
X122675000Y-98745000D01*
G75*
G02*
X122605000Y-98675000I0J70000D01*
G01*
X122605000Y-98375000D01*
G75*
G02*
X122675000Y-98305000I70000J0D01*
G01*
G37*
G36*
G01*
X122675000Y-97655000D02*
X124275000Y-97655000D01*
G75*
G02*
X124345000Y-97725000I0J-70000D01*
G01*
X124345000Y-98025000D01*
G75*
G02*
X124275000Y-98095000I-70000J0D01*
G01*
X122675000Y-98095000D01*
G75*
G02*
X122605000Y-98025000I0J70000D01*
G01*
X122605000Y-97725000D01*
G75*
G02*
X122675000Y-97655000I70000J0D01*
G01*
G37*
G36*
G01*
X122675000Y-97005000D02*
X124275000Y-97005000D01*
G75*
G02*
X124345000Y-97075000I0J-70000D01*
G01*
X124345000Y-97375000D01*
G75*
G02*
X124275000Y-97445000I-70000J0D01*
G01*
X122675000Y-97445000D01*
G75*
G02*
X122605000Y-97375000I0J70000D01*
G01*
X122605000Y-97075000D01*
G75*
G02*
X122675000Y-97005000I70000J0D01*
G01*
G37*
G36*
G01*
X122675000Y-96355000D02*
X124275000Y-96355000D01*
G75*
G02*
X124345000Y-96425000I0J-70000D01*
G01*
X124345000Y-96725000D01*
G75*
G02*
X124275000Y-96795000I-70000J0D01*
G01*
X122675000Y-96795000D01*
G75*
G02*
X122605000Y-96725000I0J70000D01*
G01*
X122605000Y-96425000D01*
G75*
G02*
X122675000Y-96355000I70000J0D01*
G01*
G37*
G36*
G01*
X122675000Y-95705000D02*
X124275000Y-95705000D01*
G75*
G02*
X124345000Y-95775000I0J-70000D01*
G01*
X124345000Y-96075000D01*
G75*
G02*
X124275000Y-96145000I-70000J0D01*
G01*
X122675000Y-96145000D01*
G75*
G02*
X122605000Y-96075000I0J70000D01*
G01*
X122605000Y-95775000D01*
G75*
G02*
X122675000Y-95705000I70000J0D01*
G01*
G37*
G36*
G01*
X128275000Y-95055000D02*
X129875000Y-95055000D01*
G75*
G02*
X129945000Y-95125000I0J-70000D01*
G01*
X129945000Y-95425000D01*
G75*
G02*
X129875000Y-95495000I-70000J0D01*
G01*
X128275000Y-95495000D01*
G75*
G02*
X128205000Y-95425000I0J70000D01*
G01*
X128205000Y-95125000D01*
G75*
G02*
X128275000Y-95055000I70000J0D01*
G01*
G37*
G36*
G01*
X125045000Y-96394900D02*
X127505000Y-96394900D01*
G75*
G02*
X127505100Y-96395000I0J-100D01*
G01*
X127505100Y-98705000D01*
G75*
G02*
X127505000Y-98705100I-100J0D01*
G01*
X125045000Y-98705100D01*
G75*
G02*
X125044900Y-98705000I0J100D01*
G01*
X125044900Y-96395000D01*
G75*
G02*
X125045000Y-96394900I100J0D01*
G01*
G37*
G36*
G01*
X122675000Y-95055000D02*
X124275000Y-95055000D01*
G75*
G02*
X124345000Y-95125000I0J-70000D01*
G01*
X124345000Y-95425000D01*
G75*
G02*
X124275000Y-95495000I-70000J0D01*
G01*
X122675000Y-95495000D01*
G75*
G02*
X122605000Y-95425000I0J70000D01*
G01*
X122605000Y-95125000D01*
G75*
G02*
X122675000Y-95055000I70000J0D01*
G01*
G37*
D16*
X108000000Y-77250000D03*
X108000000Y-72750000D03*
D17*
X110500000Y-78500000D03*
X110500000Y-71500000D03*
D16*
X108000000Y-89250000D03*
X108000000Y-84750000D03*
D17*
X110500000Y-90500000D03*
X110500000Y-83500000D03*
D16*
X108000000Y-101250000D03*
X108000000Y-96750000D03*
D17*
X110500000Y-102500000D03*
X110500000Y-95500000D03*
D18*
X116000000Y-94500000D03*
G36*
G01*
X115499600Y-92749200D02*
X116500400Y-92749200D01*
G75*
G02*
X116750800Y-92999600I0J-250400D01*
G01*
X116750800Y-93500400D01*
G75*
G02*
X116500400Y-93750800I-250400J0D01*
G01*
X115499600Y-93750800D01*
G75*
G02*
X115249200Y-93500400I0J250400D01*
G01*
X115249200Y-92999600D01*
G75*
G02*
X115499600Y-92749200I250400J0D01*
G01*
G37*
X117000000Y-100000000D03*
G36*
G01*
X117500400Y-101750800D02*
X116499600Y-101750800D01*
G75*
G02*
X116249200Y-101500400I0J250400D01*
G01*
X116249200Y-100999600D01*
G75*
G02*
X116499600Y-100749200I250400J0D01*
G01*
X117500400Y-100749200D01*
G75*
G02*
X117750800Y-100999600I0J-250400D01*
G01*
X117750800Y-101500400D01*
G75*
G02*
X117500400Y-101750800I-250400J0D01*
G01*
G37*
D19*
X135000000Y-69500000D03*
D20*
X135000000Y-69500000D03*
D19*
X143000000Y-69500000D03*
D20*
X143000000Y-69500000D03*
G36*
G01*
X140450000Y-62899200D02*
X141950000Y-62899200D01*
G75*
G02*
X142000800Y-62950000I0J-50800D01*
G01*
X142000800Y-64450000D01*
G75*
G02*
X141950000Y-64500800I-50800J0D01*
G01*
X140450000Y-64500800D01*
G75*
G02*
X140399200Y-64450000I0J50800D01*
G01*
X140399200Y-62950000D01*
G75*
G02*
X140450000Y-62899200I50800J0D01*
G01*
G37*
G36*
G01*
X137750000Y-64500800D02*
X136250000Y-64500800D01*
G75*
G02*
X136199200Y-64450000I0J50800D01*
G01*
X136199200Y-62950000D01*
G75*
G02*
X136250000Y-62899200I50800J0D01*
G01*
X137750000Y-62899200D01*
G75*
G02*
X137800800Y-62950000I0J-50800D01*
G01*
X137800800Y-64450000D01*
G75*
G02*
X137750000Y-64500800I-50800J0D01*
G01*
G37*
G36*
G01*
X145724200Y-98525400D02*
X145724200Y-97974600D01*
G75*
G02*
X145974600Y-97724200I250400J0D01*
G01*
X146475400Y-97724200D01*
G75*
G02*
X146725800Y-97974600I0J-250400D01*
G01*
X146725800Y-98525400D01*
G75*
G02*
X146475400Y-98775800I-250400J0D01*
G01*
X145974600Y-98775800D01*
G75*
G02*
X145724200Y-98525400I0J250400D01*
G01*
G37*
G36*
G01*
X144174200Y-98525400D02*
X144174200Y-97974600D01*
G75*
G02*
X144424600Y-97724200I250400J0D01*
G01*
X144925400Y-97724200D01*
G75*
G02*
X145175800Y-97974600I0J-250400D01*
G01*
X145175800Y-98525400D01*
G75*
G02*
X144925400Y-98775800I-250400J0D01*
G01*
X144424600Y-98775800D01*
G75*
G02*
X144174200Y-98525400I0J250400D01*
G01*
G37*
G36*
G01*
X150274200Y-93275400D02*
X150274200Y-92724600D01*
G75*
G02*
X150524600Y-92474200I250400J0D01*
G01*
X151025400Y-92474200D01*
G75*
G02*
X151275800Y-92724600I0J-250400D01*
G01*
X151275800Y-93275400D01*
G75*
G02*
X151025400Y-93525800I-250400J0D01*
G01*
X150524600Y-93525800D01*
G75*
G02*
X150274200Y-93275400I0J250400D01*
G01*
G37*
G36*
G01*
X148724200Y-93275400D02*
X148724200Y-92724600D01*
G75*
G02*
X148974600Y-92474200I250400J0D01*
G01*
X149475400Y-92474200D01*
G75*
G02*
X149725800Y-92724600I0J-250400D01*
G01*
X149725800Y-93275400D01*
G75*
G02*
X149475400Y-93525800I-250400J0D01*
G01*
X148974600Y-93525800D01*
G75*
G02*
X148724200Y-93275400I0J250400D01*
G01*
G37*
D21*
X151250000Y-107750000D03*
G36*
G01*
X153000800Y-107249600D02*
X153000800Y-108250400D01*
G75*
G02*
X152750400Y-108500800I-250400J0D01*
G01*
X152249600Y-108500800D01*
G75*
G02*
X151999200Y-108250400I0J250400D01*
G01*
X151999200Y-107249600D01*
G75*
G02*
X152249600Y-106999200I250400J0D01*
G01*
X152750400Y-106999200D01*
G75*
G02*
X153000800Y-107249600I0J-250400D01*
G01*
G37*
G36*
G01*
X162200400Y-67025800D02*
X161599600Y-67025800D01*
G75*
G02*
X161374200Y-66800400I0J225400D01*
G01*
X161374200Y-66349600D01*
G75*
G02*
X161599600Y-66124200I225400J0D01*
G01*
X162200400Y-66124200D01*
G75*
G02*
X162425800Y-66349600I0J-225400D01*
G01*
X162425800Y-66800400D01*
G75*
G02*
X162200400Y-67025800I-225400J0D01*
G01*
G37*
G36*
G01*
X162200400Y-68675800D02*
X161599600Y-68675800D01*
G75*
G02*
X161374200Y-68450400I0J225400D01*
G01*
X161374200Y-67999600D01*
G75*
G02*
X161599600Y-67774200I225400J0D01*
G01*
X162200400Y-67774200D01*
G75*
G02*
X162425800Y-67999600I0J-225400D01*
G01*
X162425800Y-68450400D01*
G75*
G02*
X162200400Y-68675800I-225400J0D01*
G01*
G37*
D22*
X177000000Y-105030000D03*
X177000000Y-102490000D03*
X177000000Y-99950000D03*
X177000000Y-97410000D03*
X177000000Y-94870000D03*
X177000000Y-92330000D03*
X177000000Y-89790000D03*
G36*
G01*
X176099200Y-88100000D02*
X176099200Y-86400000D01*
G75*
G02*
X176150000Y-86349200I50800J0D01*
G01*
X177850000Y-86349200D01*
G75*
G02*
X177900800Y-86400000I0J-50800D01*
G01*
X177900800Y-88100000D01*
G75*
G02*
X177850000Y-88150800I-50800J0D01*
G01*
X176150000Y-88150800D01*
G75*
G02*
X176099200Y-88100000I0J50800D01*
G01*
G37*
G36*
G01*
X146725400Y-93725800D02*
X146174600Y-93725800D01*
G75*
G02*
X145924200Y-93475400I0J250400D01*
G01*
X145924200Y-92974600D01*
G75*
G02*
X146174600Y-92724200I250400J0D01*
G01*
X146725400Y-92724200D01*
G75*
G02*
X146975800Y-92974600I0J-250400D01*
G01*
X146975800Y-93475400D01*
G75*
G02*
X146725400Y-93725800I-250400J0D01*
G01*
G37*
G36*
G01*
X146725400Y-95275800D02*
X146174600Y-95275800D01*
G75*
G02*
X145924200Y-95025400I0J250400D01*
G01*
X145924200Y-94524600D01*
G75*
G02*
X146174600Y-94274200I250400J0D01*
G01*
X146725400Y-94274200D01*
G75*
G02*
X146975800Y-94524600I0J-250400D01*
G01*
X146975800Y-95025400D01*
G75*
G02*
X146725400Y-95275800I-250400J0D01*
G01*
G37*
G36*
G01*
X151675800Y-101974600D02*
X151675800Y-102525400D01*
G75*
G02*
X151425400Y-102775800I-250400J0D01*
G01*
X150924600Y-102775800D01*
G75*
G02*
X150674200Y-102525400I0J250400D01*
G01*
X150674200Y-101974600D01*
G75*
G02*
X150924600Y-101724200I250400J0D01*
G01*
X151425400Y-101724200D01*
G75*
G02*
X151675800Y-101974600I0J-250400D01*
G01*
G37*
G36*
G01*
X153225800Y-101974600D02*
X153225800Y-102525400D01*
G75*
G02*
X152975400Y-102775800I-250400J0D01*
G01*
X152474600Y-102775800D01*
G75*
G02*
X152224200Y-102525400I0J250400D01*
G01*
X152224200Y-101974600D01*
G75*
G02*
X152474600Y-101724200I250400J0D01*
G01*
X152975400Y-101724200D01*
G75*
G02*
X153225800Y-101974600I0J-250400D01*
G01*
G37*
G36*
G01*
X144224200Y-95100400D02*
X144224200Y-94499600D01*
G75*
G02*
X144449600Y-94274200I225400J0D01*
G01*
X144900400Y-94274200D01*
G75*
G02*
X145125800Y-94499600I0J-225400D01*
G01*
X145125800Y-95100400D01*
G75*
G02*
X144900400Y-95325800I-225400J0D01*
G01*
X144449600Y-95325800D01*
G75*
G02*
X144224200Y-95100400I0J225400D01*
G01*
G37*
G36*
G01*
X142574200Y-95100400D02*
X142574200Y-94499600D01*
G75*
G02*
X142799600Y-94274200I225400J0D01*
G01*
X143250400Y-94274200D01*
G75*
G02*
X143475800Y-94499600I0J-225400D01*
G01*
X143475800Y-95100400D01*
G75*
G02*
X143250400Y-95325800I-225400J0D01*
G01*
X142799600Y-95325800D01*
G75*
G02*
X142574200Y-95100400I0J225400D01*
G01*
G37*
G36*
G01*
X147899600Y-101624200D02*
X148500400Y-101624200D01*
G75*
G02*
X148725800Y-101849600I0J-225400D01*
G01*
X148725800Y-102300400D01*
G75*
G02*
X148500400Y-102525800I-225400J0D01*
G01*
X147899600Y-102525800D01*
G75*
G02*
X147674200Y-102300400I0J225400D01*
G01*
X147674200Y-101849600D01*
G75*
G02*
X147899600Y-101624200I225400J0D01*
G01*
G37*
G36*
G01*
X147899600Y-99974200D02*
X148500400Y-99974200D01*
G75*
G02*
X148725800Y-100199600I0J-225400D01*
G01*
X148725800Y-100650400D01*
G75*
G02*
X148500400Y-100875800I-225400J0D01*
G01*
X147899600Y-100875800D01*
G75*
G02*
X147674200Y-100650400I0J225400D01*
G01*
X147674200Y-100199600D01*
G75*
G02*
X147899600Y-99974200I225400J0D01*
G01*
G37*
G36*
G01*
X148930800Y-95425000D02*
X148930800Y-96075000D01*
G75*
G02*
X148880000Y-96125800I-50800J0D01*
G01*
X147820000Y-96125800D01*
G75*
G02*
X147769200Y-96075000I0J50800D01*
G01*
X147769200Y-95425000D01*
G75*
G02*
X147820000Y-95374200I50800J0D01*
G01*
X148880000Y-95374200D01*
G75*
G02*
X148930800Y-95425000I0J-50800D01*
G01*
G37*
G36*
G01*
X148930800Y-96375000D02*
X148930800Y-97025000D01*
G75*
G02*
X148880000Y-97075800I-50800J0D01*
G01*
X147820000Y-97075800D01*
G75*
G02*
X147769200Y-97025000I0J50800D01*
G01*
X147769200Y-96375000D01*
G75*
G02*
X147820000Y-96324200I50800J0D01*
G01*
X148880000Y-96324200D01*
G75*
G02*
X148930800Y-96375000I0J-50800D01*
G01*
G37*
G36*
G01*
X148930800Y-94475000D02*
X148930800Y-95125000D01*
G75*
G02*
X148880000Y-95175800I-50800J0D01*
G01*
X147820000Y-95175800D01*
G75*
G02*
X147769200Y-95125000I0J50800D01*
G01*
X147769200Y-94475000D01*
G75*
G02*
X147820000Y-94424200I50800J0D01*
G01*
X148880000Y-94424200D01*
G75*
G02*
X148930800Y-94475000I0J-50800D01*
G01*
G37*
G36*
G01*
X151130800Y-94475000D02*
X151130800Y-95125000D01*
G75*
G02*
X151080000Y-95175800I-50800J0D01*
G01*
X150020000Y-95175800D01*
G75*
G02*
X149969200Y-95125000I0J50800D01*
G01*
X149969200Y-94475000D01*
G75*
G02*
X150020000Y-94424200I50800J0D01*
G01*
X151080000Y-94424200D01*
G75*
G02*
X151130800Y-94475000I0J-50800D01*
G01*
G37*
G36*
G01*
X151130800Y-95425000D02*
X151130800Y-96075000D01*
G75*
G02*
X151080000Y-96125800I-50800J0D01*
G01*
X150020000Y-96125800D01*
G75*
G02*
X149969200Y-96075000I0J50800D01*
G01*
X149969200Y-95425000D01*
G75*
G02*
X150020000Y-95374200I50800J0D01*
G01*
X151080000Y-95374200D01*
G75*
G02*
X151130800Y-95425000I0J-50800D01*
G01*
G37*
G36*
G01*
X151130800Y-96375000D02*
X151130800Y-97025000D01*
G75*
G02*
X151080000Y-97075800I-50800J0D01*
G01*
X150020000Y-97075800D01*
G75*
G02*
X149969200Y-97025000I0J50800D01*
G01*
X149969200Y-96375000D01*
G75*
G02*
X150020000Y-96324200I50800J0D01*
G01*
X151080000Y-96324200D01*
G75*
G02*
X151130800Y-96375000I0J-50800D01*
G01*
G37*
D23*
X178330000Y-74170000D03*
X178330000Y-79250000D03*
X173250000Y-74170000D03*
X173250000Y-76710000D03*
X173250000Y-79250000D03*
G36*
G01*
X131625400Y-98525800D02*
X131074600Y-98525800D01*
G75*
G02*
X130824200Y-98275400I0J250400D01*
G01*
X130824200Y-97774600D01*
G75*
G02*
X131074600Y-97524200I250400J0D01*
G01*
X131625400Y-97524200D01*
G75*
G02*
X131875800Y-97774600I0J-250400D01*
G01*
X131875800Y-98275400D01*
G75*
G02*
X131625400Y-98525800I-250400J0D01*
G01*
G37*
G36*
G01*
X131625400Y-100075800D02*
X131074600Y-100075800D01*
G75*
G02*
X130824200Y-99825400I0J250400D01*
G01*
X130824200Y-99324600D01*
G75*
G02*
X131074600Y-99074200I250400J0D01*
G01*
X131625400Y-99074200D01*
G75*
G02*
X131875800Y-99324600I0J-250400D01*
G01*
X131875800Y-99825400D01*
G75*
G02*
X131625400Y-100075800I-250400J0D01*
G01*
G37*
G36*
G01*
X159870000Y-68100000D02*
X159870000Y-68700000D01*
G75*
G02*
X159800000Y-68770000I-70000J0D01*
G01*
X158500000Y-68770000D01*
G75*
G02*
X158430000Y-68700000I0J70000D01*
G01*
X158430000Y-68100000D01*
G75*
G02*
X158500000Y-68030000I70000J0D01*
G01*
X159800000Y-68030000D01*
G75*
G02*
X159870000Y-68100000I0J-70000D01*
G01*
G37*
G36*
G01*
X159870000Y-66200000D02*
X159870000Y-66800000D01*
G75*
G02*
X159800000Y-66870000I-70000J0D01*
G01*
X158500000Y-66870000D01*
G75*
G02*
X158430000Y-66800000I0J70000D01*
G01*
X158430000Y-66200000D01*
G75*
G02*
X158500000Y-66130000I70000J0D01*
G01*
X159800000Y-66130000D01*
G75*
G02*
X159870000Y-66200000I0J-70000D01*
G01*
G37*
G36*
G01*
X157770000Y-67150000D02*
X157770000Y-67750000D01*
G75*
G02*
X157700000Y-67820000I-70000J0D01*
G01*
X156400000Y-67820000D01*
G75*
G02*
X156330000Y-67750000I0J70000D01*
G01*
X156330000Y-67150000D01*
G75*
G02*
X156400000Y-67080000I70000J0D01*
G01*
X157700000Y-67080000D01*
G75*
G02*
X157770000Y-67150000I0J-70000D01*
G01*
G37*
G36*
G01*
X127420000Y-106750000D02*
X127420000Y-107350000D01*
G75*
G02*
X127350000Y-107420000I-70000J0D01*
G01*
X126050000Y-107420000D01*
G75*
G02*
X125980000Y-107350000I0J70000D01*
G01*
X125980000Y-106750000D01*
G75*
G02*
X126050000Y-106680000I70000J0D01*
G01*
X127350000Y-106680000D01*
G75*
G02*
X127420000Y-106750000I0J-70000D01*
G01*
G37*
G36*
G01*
X127420000Y-104850000D02*
X127420000Y-105450000D01*
G75*
G02*
X127350000Y-105520000I-70000J0D01*
G01*
X126050000Y-105520000D01*
G75*
G02*
X125980000Y-105450000I0J70000D01*
G01*
X125980000Y-104850000D01*
G75*
G02*
X126050000Y-104780000I70000J0D01*
G01*
X127350000Y-104780000D01*
G75*
G02*
X127420000Y-104850000I0J-70000D01*
G01*
G37*
G36*
G01*
X125320000Y-105800000D02*
X125320000Y-106400000D01*
G75*
G02*
X125250000Y-106470000I-70000J0D01*
G01*
X123950000Y-106470000D01*
G75*
G02*
X123880000Y-106400000I0J70000D01*
G01*
X123880000Y-105800000D01*
G75*
G02*
X123950000Y-105730000I70000J0D01*
G01*
X125250000Y-105730000D01*
G75*
G02*
X125320000Y-105800000I0J-70000D01*
G01*
G37*
G36*
G01*
X153000000Y-95249200D02*
X156400000Y-95249200D01*
G75*
G02*
X156450800Y-95300000I0J-50800D01*
G01*
X156450800Y-96600000D01*
G75*
G02*
X156400000Y-96650800I-50800J0D01*
G01*
X153000000Y-96650800D01*
G75*
G02*
X152949200Y-96600000I0J50800D01*
G01*
X152949200Y-95300000D01*
G75*
G02*
X153000000Y-95249200I50800J0D01*
G01*
G37*
G36*
G01*
X153000000Y-97349200D02*
X156400000Y-97349200D01*
G75*
G02*
X156450800Y-97400000I0J-50800D01*
G01*
X156450800Y-98700000D01*
G75*
G02*
X156400000Y-98750800I-50800J0D01*
G01*
X153000000Y-98750800D01*
G75*
G02*
X152949200Y-98700000I0J50800D01*
G01*
X152949200Y-97400000D01*
G75*
G02*
X153000000Y-97349200I50800J0D01*
G01*
G37*
G36*
G01*
X160324200Y-98725400D02*
X160324200Y-98174600D01*
G75*
G02*
X160574600Y-97924200I250400J0D01*
G01*
X161075400Y-97924200D01*
G75*
G02*
X161325800Y-98174600I0J-250400D01*
G01*
X161325800Y-98725400D01*
G75*
G02*
X161075400Y-98975800I-250400J0D01*
G01*
X160574600Y-98975800D01*
G75*
G02*
X160324200Y-98725400I0J250400D01*
G01*
G37*
G36*
G01*
X158774200Y-98725400D02*
X158774200Y-98174600D01*
G75*
G02*
X159024600Y-97924200I250400J0D01*
G01*
X159525400Y-97924200D01*
G75*
G02*
X159775800Y-98174600I0J-250400D01*
G01*
X159775800Y-98725400D01*
G75*
G02*
X159525400Y-98975800I-250400J0D01*
G01*
X159024600Y-98975800D01*
G75*
G02*
X158774200Y-98725400I0J250400D01*
G01*
G37*
G36*
G01*
X161175400Y-93325800D02*
X160624600Y-93325800D01*
G75*
G02*
X160374200Y-93075400I0J250400D01*
G01*
X160374200Y-92574600D01*
G75*
G02*
X160624600Y-92324200I250400J0D01*
G01*
X161175400Y-92324200D01*
G75*
G02*
X161425800Y-92574600I0J-250400D01*
G01*
X161425800Y-93075400D01*
G75*
G02*
X161175400Y-93325800I-250400J0D01*
G01*
G37*
G36*
G01*
X161175400Y-94875800D02*
X160624600Y-94875800D01*
G75*
G02*
X160374200Y-94625400I0J250400D01*
G01*
X160374200Y-94124600D01*
G75*
G02*
X160624600Y-93874200I250400J0D01*
G01*
X161175400Y-93874200D01*
G75*
G02*
X161425800Y-94124600I0J-250400D01*
G01*
X161425800Y-94625400D01*
G75*
G02*
X161175400Y-94875800I-250400J0D01*
G01*
G37*
G36*
G01*
X166475800Y-102274600D02*
X166475800Y-102825400D01*
G75*
G02*
X166225400Y-103075800I-250400J0D01*
G01*
X165724600Y-103075800D01*
G75*
G02*
X165474200Y-102825400I0J250400D01*
G01*
X165474200Y-102274600D01*
G75*
G02*
X165724600Y-102024200I250400J0D01*
G01*
X166225400Y-102024200D01*
G75*
G02*
X166475800Y-102274600I0J-250400D01*
G01*
G37*
G36*
G01*
X168025800Y-102274600D02*
X168025800Y-102825400D01*
G75*
G02*
X167775400Y-103075800I-250400J0D01*
G01*
X167274600Y-103075800D01*
G75*
G02*
X167024200Y-102825400I0J250400D01*
G01*
X167024200Y-102274600D01*
G75*
G02*
X167274600Y-102024200I250400J0D01*
G01*
X167775400Y-102024200D01*
G75*
G02*
X168025800Y-102274600I0J-250400D01*
G01*
G37*
D21*
X160000000Y-107750000D03*
G36*
G01*
X161750800Y-107249600D02*
X161750800Y-108250400D01*
G75*
G02*
X161500400Y-108500800I-250400J0D01*
G01*
X160999600Y-108500800D01*
G75*
G02*
X160749200Y-108250400I0J250400D01*
G01*
X160749200Y-107249600D01*
G75*
G02*
X160999600Y-106999200I250400J0D01*
G01*
X161500400Y-106999200D01*
G75*
G02*
X161750800Y-107249600I0J-250400D01*
G01*
G37*
G36*
G01*
X167050000Y-95299200D02*
X170450000Y-95299200D01*
G75*
G02*
X170500800Y-95350000I0J-50800D01*
G01*
X170500800Y-96650000D01*
G75*
G02*
X170450000Y-96700800I-50800J0D01*
G01*
X167050000Y-96700800D01*
G75*
G02*
X166999200Y-96650000I0J50800D01*
G01*
X166999200Y-95350000D01*
G75*
G02*
X167050000Y-95299200I50800J0D01*
G01*
G37*
G36*
G01*
X167050000Y-97399200D02*
X170450000Y-97399200D01*
G75*
G02*
X170500800Y-97450000I0J-50800D01*
G01*
X170500800Y-98750000D01*
G75*
G02*
X170450000Y-98800800I-50800J0D01*
G01*
X167050000Y-98800800D01*
G75*
G02*
X166999200Y-98750000I0J50800D01*
G01*
X166999200Y-97450000D01*
G75*
G02*
X167050000Y-97399200I50800J0D01*
G01*
G37*
G36*
G01*
X158824200Y-94650400D02*
X158824200Y-94049600D01*
G75*
G02*
X159049600Y-93824200I225400J0D01*
G01*
X159500400Y-93824200D01*
G75*
G02*
X159725800Y-94049600I0J-225400D01*
G01*
X159725800Y-94650400D01*
G75*
G02*
X159500400Y-94875800I-225400J0D01*
G01*
X159049600Y-94875800D01*
G75*
G02*
X158824200Y-94650400I0J225400D01*
G01*
G37*
G36*
G01*
X157174200Y-94650400D02*
X157174200Y-94049600D01*
G75*
G02*
X157399600Y-93824200I225400J0D01*
G01*
X157850400Y-93824200D01*
G75*
G02*
X158075800Y-94049600I0J-225400D01*
G01*
X158075800Y-94650400D01*
G75*
G02*
X157850400Y-94875800I-225400J0D01*
G01*
X157399600Y-94875800D01*
G75*
G02*
X157174200Y-94650400I0J225400D01*
G01*
G37*
G36*
G01*
X162449600Y-101924200D02*
X163050400Y-101924200D01*
G75*
G02*
X163275800Y-102149600I0J-225400D01*
G01*
X163275800Y-102600400D01*
G75*
G02*
X163050400Y-102825800I-225400J0D01*
G01*
X162449600Y-102825800D01*
G75*
G02*
X162224200Y-102600400I0J225400D01*
G01*
X162224200Y-102149600D01*
G75*
G02*
X162449600Y-101924200I225400J0D01*
G01*
G37*
G36*
G01*
X162449600Y-100274200D02*
X163050400Y-100274200D01*
G75*
G02*
X163275800Y-100499600I0J-225400D01*
G01*
X163275800Y-100950400D01*
G75*
G02*
X163050400Y-101175800I-225400J0D01*
G01*
X162449600Y-101175800D01*
G75*
G02*
X162224200Y-100950400I0J225400D01*
G01*
X162224200Y-100499600D01*
G75*
G02*
X162449600Y-100274200I225400J0D01*
G01*
G37*
G36*
G01*
X163330800Y-95325000D02*
X163330800Y-95975000D01*
G75*
G02*
X163280000Y-96025800I-50800J0D01*
G01*
X162220000Y-96025800D01*
G75*
G02*
X162169200Y-95975000I0J50800D01*
G01*
X162169200Y-95325000D01*
G75*
G02*
X162220000Y-95274200I50800J0D01*
G01*
X163280000Y-95274200D01*
G75*
G02*
X163330800Y-95325000I0J-50800D01*
G01*
G37*
G36*
G01*
X163330800Y-96275000D02*
X163330800Y-96925000D01*
G75*
G02*
X163280000Y-96975800I-50800J0D01*
G01*
X162220000Y-96975800D01*
G75*
G02*
X162169200Y-96925000I0J50800D01*
G01*
X162169200Y-96275000D01*
G75*
G02*
X162220000Y-96224200I50800J0D01*
G01*
X163280000Y-96224200D01*
G75*
G02*
X163330800Y-96275000I0J-50800D01*
G01*
G37*
G36*
G01*
X163330800Y-94375000D02*
X163330800Y-95025000D01*
G75*
G02*
X163280000Y-95075800I-50800J0D01*
G01*
X162220000Y-95075800D01*
G75*
G02*
X162169200Y-95025000I0J50800D01*
G01*
X162169200Y-94375000D01*
G75*
G02*
X162220000Y-94324200I50800J0D01*
G01*
X163280000Y-94324200D01*
G75*
G02*
X163330800Y-94375000I0J-50800D01*
G01*
G37*
G36*
G01*
X165530800Y-94375000D02*
X165530800Y-95025000D01*
G75*
G02*
X165480000Y-95075800I-50800J0D01*
G01*
X164420000Y-95075800D01*
G75*
G02*
X164369200Y-95025000I0J50800D01*
G01*
X164369200Y-94375000D01*
G75*
G02*
X164420000Y-94324200I50800J0D01*
G01*
X165480000Y-94324200D01*
G75*
G02*
X165530800Y-94375000I0J-50800D01*
G01*
G37*
G36*
G01*
X165530800Y-95325000D02*
X165530800Y-95975000D01*
G75*
G02*
X165480000Y-96025800I-50800J0D01*
G01*
X164420000Y-96025800D01*
G75*
G02*
X164369200Y-95975000I0J50800D01*
G01*
X164369200Y-95325000D01*
G75*
G02*
X164420000Y-95274200I50800J0D01*
G01*
X165480000Y-95274200D01*
G75*
G02*
X165530800Y-95325000I0J-50800D01*
G01*
G37*
G36*
G01*
X165530800Y-96275000D02*
X165530800Y-96925000D01*
G75*
G02*
X165480000Y-96975800I-50800J0D01*
G01*
X164420000Y-96975800D01*
G75*
G02*
X164369200Y-96925000I0J50800D01*
G01*
X164369200Y-96275000D01*
G75*
G02*
X164420000Y-96224200I50800J0D01*
G01*
X165480000Y-96224200D01*
G75*
G02*
X165530800Y-96275000I0J-50800D01*
G01*
G37*
X166250000Y-75500000D03*
G36*
G01*
X168000800Y-74999600D02*
X168000800Y-76000400D01*
G75*
G02*
X167750400Y-76250800I-250400J0D01*
G01*
X167249600Y-76250800D01*
G75*
G02*
X166999200Y-76000400I0J250400D01*
G01*
X166999200Y-74999600D01*
G75*
G02*
X167249600Y-74749200I250400J0D01*
G01*
X167750400Y-74749200D01*
G75*
G02*
X168000800Y-74999600I0J-250400D01*
G01*
G37*
G36*
G01*
X150274200Y-91525400D02*
X150274200Y-90974600D01*
G75*
G02*
X150524600Y-90724200I250400J0D01*
G01*
X151025400Y-90724200D01*
G75*
G02*
X151275800Y-90974600I0J-250400D01*
G01*
X151275800Y-91525400D01*
G75*
G02*
X151025400Y-91775800I-250400J0D01*
G01*
X150524600Y-91775800D01*
G75*
G02*
X150274200Y-91525400I0J250400D01*
G01*
G37*
G36*
G01*
X148724200Y-91525400D02*
X148724200Y-90974600D01*
G75*
G02*
X148974600Y-90724200I250400J0D01*
G01*
X149475400Y-90724200D01*
G75*
G02*
X149725800Y-90974600I0J-250400D01*
G01*
X149725800Y-91525400D01*
G75*
G02*
X149475400Y-91775800I-250400J0D01*
G01*
X148974600Y-91775800D01*
G75*
G02*
X148724200Y-91525400I0J250400D01*
G01*
G37*
G36*
G01*
X164524200Y-91425400D02*
X164524200Y-90874600D01*
G75*
G02*
X164774600Y-90624200I250400J0D01*
G01*
X165275400Y-90624200D01*
G75*
G02*
X165525800Y-90874600I0J-250400D01*
G01*
X165525800Y-91425400D01*
G75*
G02*
X165275400Y-91675800I-250400J0D01*
G01*
X164774600Y-91675800D01*
G75*
G02*
X164524200Y-91425400I0J250400D01*
G01*
G37*
G36*
G01*
X162974200Y-91425400D02*
X162974200Y-90874600D01*
G75*
G02*
X163224600Y-90624200I250400J0D01*
G01*
X163725400Y-90624200D01*
G75*
G02*
X163975800Y-90874600I0J-250400D01*
G01*
X163975800Y-91425400D01*
G75*
G02*
X163725400Y-91675800I-250400J0D01*
G01*
X163224600Y-91675800D01*
G75*
G02*
X162974200Y-91425400I0J250400D01*
G01*
G37*
G36*
G01*
X164524200Y-93175400D02*
X164524200Y-92624600D01*
G75*
G02*
X164774600Y-92374200I250400J0D01*
G01*
X165275400Y-92374200D01*
G75*
G02*
X165525800Y-92624600I0J-250400D01*
G01*
X165525800Y-93175400D01*
G75*
G02*
X165275400Y-93425800I-250400J0D01*
G01*
X164774600Y-93425800D01*
G75*
G02*
X164524200Y-93175400I0J250400D01*
G01*
G37*
G36*
G01*
X162974200Y-93175400D02*
X162974200Y-92624600D01*
G75*
G02*
X163224600Y-92374200I250400J0D01*
G01*
X163725400Y-92374200D01*
G75*
G02*
X163975800Y-92624600I0J-250400D01*
G01*
X163975800Y-93175400D01*
G75*
G02*
X163725400Y-93425800I-250400J0D01*
G01*
X163224600Y-93425800D01*
G75*
G02*
X162974200Y-93175400I0J250400D01*
G01*
G37*
G36*
G01*
X128699600Y-106674200D02*
X129300400Y-106674200D01*
G75*
G02*
X129525800Y-106899600I0J-225400D01*
G01*
X129525800Y-107350400D01*
G75*
G02*
X129300400Y-107575800I-225400J0D01*
G01*
X128699600Y-107575800D01*
G75*
G02*
X128474200Y-107350400I0J225400D01*
G01*
X128474200Y-106899600D01*
G75*
G02*
X128699600Y-106674200I225400J0D01*
G01*
G37*
G36*
G01*
X128699600Y-105024200D02*
X129300400Y-105024200D01*
G75*
G02*
X129525800Y-105249600I0J-225400D01*
G01*
X129525800Y-105700400D01*
G75*
G02*
X129300400Y-105925800I-225400J0D01*
G01*
X128699600Y-105925800D01*
G75*
G02*
X128474200Y-105700400I0J225400D01*
G01*
X128474200Y-105249600D01*
G75*
G02*
X128699600Y-105024200I225400J0D01*
G01*
G37*
G36*
G01*
X158000400Y-89525800D02*
X157399600Y-89525800D01*
G75*
G02*
X157174200Y-89300400I0J225400D01*
G01*
X157174200Y-88849600D01*
G75*
G02*
X157399600Y-88624200I225400J0D01*
G01*
X158000400Y-88624200D01*
G75*
G02*
X158225800Y-88849600I0J-225400D01*
G01*
X158225800Y-89300400D01*
G75*
G02*
X158000400Y-89525800I-225400J0D01*
G01*
G37*
G36*
G01*
X158000400Y-91175800D02*
X157399600Y-91175800D01*
G75*
G02*
X157174200Y-90950400I0J225400D01*
G01*
X157174200Y-90499600D01*
G75*
G02*
X157399600Y-90274200I225400J0D01*
G01*
X158000400Y-90274200D01*
G75*
G02*
X158225800Y-90499600I0J-225400D01*
G01*
X158225800Y-90950400D01*
G75*
G02*
X158000400Y-91175800I-225400J0D01*
G01*
G37*
G36*
G01*
X137774200Y-89900400D02*
X137774200Y-89299600D01*
G75*
G02*
X137999600Y-89074200I225400J0D01*
G01*
X138450400Y-89074200D01*
G75*
G02*
X138675800Y-89299600I0J-225400D01*
G01*
X138675800Y-89900400D01*
G75*
G02*
X138450400Y-90125800I-225400J0D01*
G01*
X137999600Y-90125800D01*
G75*
G02*
X137774200Y-89900400I0J225400D01*
G01*
G37*
G36*
G01*
X136124200Y-89900400D02*
X136124200Y-89299600D01*
G75*
G02*
X136349600Y-89074200I225400J0D01*
G01*
X136800400Y-89074200D01*
G75*
G02*
X137025800Y-89299600I0J-225400D01*
G01*
X137025800Y-89900400D01*
G75*
G02*
X136800400Y-90125800I-225400J0D01*
G01*
X136349600Y-90125800D01*
G75*
G02*
X136124200Y-89900400I0J225400D01*
G01*
G37*
D22*
X163133000Y-83724400D03*
X163133000Y-86264400D03*
X145353000Y-83724400D03*
X145353000Y-86264400D03*
X140273000Y-83724400D03*
X140273000Y-86264400D03*
X150433000Y-83724400D03*
X150433000Y-86264400D03*
X122493000Y-83724400D03*
X122493000Y-86264400D03*
X152973000Y-83724400D03*
X152973000Y-86264400D03*
X135193000Y-83724400D03*
X135193000Y-86264400D03*
X158053000Y-83724400D03*
X158053000Y-86264400D03*
X155513000Y-83724400D03*
X155513000Y-86264400D03*
X160593000Y-83724400D03*
X160593000Y-86264400D03*
X137733000Y-83724400D03*
X137733000Y-86264400D03*
X125033000Y-83724400D03*
X125033000Y-86264400D03*
X130113000Y-83724400D03*
X130113000Y-86264400D03*
X147893000Y-83724400D03*
X147893000Y-86264400D03*
X127573000Y-83724400D03*
X127573000Y-86264400D03*
X142813000Y-83724400D03*
X142813000Y-86264400D03*
G36*
G01*
X115723000Y-87165200D02*
X114023000Y-87165200D01*
G75*
G02*
X113972200Y-87114400I0J50800D01*
G01*
X113972200Y-85414400D01*
G75*
G02*
X114023000Y-85363600I50800J0D01*
G01*
X115723000Y-85363600D01*
G75*
G02*
X115773800Y-85414400I0J-50800D01*
G01*
X115773800Y-87114400D01*
G75*
G02*
X115723000Y-87165200I-50800J0D01*
G01*
G37*
X114873000Y-83724400D03*
X119953000Y-86264400D03*
X117413000Y-83724400D03*
X132653000Y-83724400D03*
X132653000Y-86264400D03*
X117413000Y-86264400D03*
X119953000Y-83724400D03*
D12*
X130000000Y-74500000D03*
D13*
X130000000Y-74500000D03*
D12*
X148000000Y-74500000D03*
D13*
X148000000Y-74500000D03*
M02*
