G04 #@! TF.GenerationSoftware,KiCad,Pcbnew,(5.1.5-0)*
G04 #@! TF.CreationDate,2020-10-28T23:32:55-07:00*
G04 #@! TF.ProjectId,Luminometer_RPi,4c756d69-6e6f-46d6-9574-65725f525069,rev?*
G04 #@! TF.SameCoordinates,Original*
G04 #@! TF.FileFunction,Paste,Top*
G04 #@! TF.FilePolarity,Positive*
%FSLAX46Y46*%
G04 Gerber Fmt 4.6, Leading zero omitted, Abs format (unit mm)*
G04 Created by KiCad (PCBNEW (5.1.5-0)) date 2020-10-28 23:32:55*
%MOMM*%
%LPD*%
G04 APERTURE LIST*
%ADD10C,0.150000*%
%ADD11C,0.100000*%
G04 APERTURE END LIST*
D10*
X109500000Y-111500000D02*
G75*
G02X106500000Y-108500000I0J3000000D01*
G01*
X171500000Y-108500000D02*
G75*
G02X168500000Y-111500000I-3000000J0D01*
G01*
X168500000Y-61500000D02*
G75*
G02X171500000Y-64500000I0J-3000000D01*
G01*
X106500000Y-64500000D02*
G75*
G02X109500000Y-61500000I3000000J0D01*
G01*
X106500000Y-108500000D02*
X106500000Y-64500000D01*
X168500000Y-111500000D02*
X109500000Y-111500000D01*
X171500000Y-64500000D02*
X171500000Y-108500000D01*
X109500000Y-61500000D02*
X168500000Y-61500000D01*
D11*
G36*
X163599691Y-80081553D02*
G01*
X163620926Y-80084703D01*
X163641750Y-80089919D01*
X163661962Y-80097151D01*
X163681368Y-80106330D01*
X163699781Y-80117366D01*
X163717024Y-80130154D01*
X163732930Y-80144570D01*
X163747346Y-80160476D01*
X163760134Y-80177719D01*
X163771170Y-80196132D01*
X163780349Y-80215538D01*
X163787581Y-80235750D01*
X163792797Y-80256574D01*
X163795947Y-80277809D01*
X163797000Y-80299250D01*
X163797000Y-80736750D01*
X163795947Y-80758191D01*
X163792797Y-80779426D01*
X163787581Y-80800250D01*
X163780349Y-80820462D01*
X163771170Y-80839868D01*
X163760134Y-80858281D01*
X163747346Y-80875524D01*
X163732930Y-80891430D01*
X163717024Y-80905846D01*
X163699781Y-80918634D01*
X163681368Y-80929670D01*
X163661962Y-80938849D01*
X163641750Y-80946081D01*
X163620926Y-80951297D01*
X163599691Y-80954447D01*
X163578250Y-80955500D01*
X163065750Y-80955500D01*
X163044309Y-80954447D01*
X163023074Y-80951297D01*
X163002250Y-80946081D01*
X162982038Y-80938849D01*
X162962632Y-80929670D01*
X162944219Y-80918634D01*
X162926976Y-80905846D01*
X162911070Y-80891430D01*
X162896654Y-80875524D01*
X162883866Y-80858281D01*
X162872830Y-80839868D01*
X162863651Y-80820462D01*
X162856419Y-80800250D01*
X162851203Y-80779426D01*
X162848053Y-80758191D01*
X162847000Y-80736750D01*
X162847000Y-80299250D01*
X162848053Y-80277809D01*
X162851203Y-80256574D01*
X162856419Y-80235750D01*
X162863651Y-80215538D01*
X162872830Y-80196132D01*
X162883866Y-80177719D01*
X162896654Y-80160476D01*
X162911070Y-80144570D01*
X162926976Y-80130154D01*
X162944219Y-80117366D01*
X162962632Y-80106330D01*
X162982038Y-80097151D01*
X163002250Y-80089919D01*
X163023074Y-80084703D01*
X163044309Y-80081553D01*
X163065750Y-80080500D01*
X163578250Y-80080500D01*
X163599691Y-80081553D01*
G37*
G36*
X163599691Y-81656553D02*
G01*
X163620926Y-81659703D01*
X163641750Y-81664919D01*
X163661962Y-81672151D01*
X163681368Y-81681330D01*
X163699781Y-81692366D01*
X163717024Y-81705154D01*
X163732930Y-81719570D01*
X163747346Y-81735476D01*
X163760134Y-81752719D01*
X163771170Y-81771132D01*
X163780349Y-81790538D01*
X163787581Y-81810750D01*
X163792797Y-81831574D01*
X163795947Y-81852809D01*
X163797000Y-81874250D01*
X163797000Y-82311750D01*
X163795947Y-82333191D01*
X163792797Y-82354426D01*
X163787581Y-82375250D01*
X163780349Y-82395462D01*
X163771170Y-82414868D01*
X163760134Y-82433281D01*
X163747346Y-82450524D01*
X163732930Y-82466430D01*
X163717024Y-82480846D01*
X163699781Y-82493634D01*
X163681368Y-82504670D01*
X163661962Y-82513849D01*
X163641750Y-82521081D01*
X163620926Y-82526297D01*
X163599691Y-82529447D01*
X163578250Y-82530500D01*
X163065750Y-82530500D01*
X163044309Y-82529447D01*
X163023074Y-82526297D01*
X163002250Y-82521081D01*
X162982038Y-82513849D01*
X162962632Y-82504670D01*
X162944219Y-82493634D01*
X162926976Y-82480846D01*
X162911070Y-82466430D01*
X162896654Y-82450524D01*
X162883866Y-82433281D01*
X162872830Y-82414868D01*
X162863651Y-82395462D01*
X162856419Y-82375250D01*
X162851203Y-82354426D01*
X162848053Y-82333191D01*
X162847000Y-82311750D01*
X162847000Y-81874250D01*
X162848053Y-81852809D01*
X162851203Y-81831574D01*
X162856419Y-81810750D01*
X162863651Y-81790538D01*
X162872830Y-81771132D01*
X162883866Y-81752719D01*
X162896654Y-81735476D01*
X162911070Y-81719570D01*
X162926976Y-81705154D01*
X162944219Y-81692366D01*
X162962632Y-81681330D01*
X162982038Y-81672151D01*
X163002250Y-81664919D01*
X163023074Y-81659703D01*
X163044309Y-81656553D01*
X163065750Y-81655500D01*
X163578250Y-81655500D01*
X163599691Y-81656553D01*
G37*
G36*
X167917691Y-87193553D02*
G01*
X167938926Y-87196703D01*
X167959750Y-87201919D01*
X167979962Y-87209151D01*
X167999368Y-87218330D01*
X168017781Y-87229366D01*
X168035024Y-87242154D01*
X168050930Y-87256570D01*
X168065346Y-87272476D01*
X168078134Y-87289719D01*
X168089170Y-87308132D01*
X168098349Y-87327538D01*
X168105581Y-87347750D01*
X168110797Y-87368574D01*
X168113947Y-87389809D01*
X168115000Y-87411250D01*
X168115000Y-87848750D01*
X168113947Y-87870191D01*
X168110797Y-87891426D01*
X168105581Y-87912250D01*
X168098349Y-87932462D01*
X168089170Y-87951868D01*
X168078134Y-87970281D01*
X168065346Y-87987524D01*
X168050930Y-88003430D01*
X168035024Y-88017846D01*
X168017781Y-88030634D01*
X167999368Y-88041670D01*
X167979962Y-88050849D01*
X167959750Y-88058081D01*
X167938926Y-88063297D01*
X167917691Y-88066447D01*
X167896250Y-88067500D01*
X167383750Y-88067500D01*
X167362309Y-88066447D01*
X167341074Y-88063297D01*
X167320250Y-88058081D01*
X167300038Y-88050849D01*
X167280632Y-88041670D01*
X167262219Y-88030634D01*
X167244976Y-88017846D01*
X167229070Y-88003430D01*
X167214654Y-87987524D01*
X167201866Y-87970281D01*
X167190830Y-87951868D01*
X167181651Y-87932462D01*
X167174419Y-87912250D01*
X167169203Y-87891426D01*
X167166053Y-87870191D01*
X167165000Y-87848750D01*
X167165000Y-87411250D01*
X167166053Y-87389809D01*
X167169203Y-87368574D01*
X167174419Y-87347750D01*
X167181651Y-87327538D01*
X167190830Y-87308132D01*
X167201866Y-87289719D01*
X167214654Y-87272476D01*
X167229070Y-87256570D01*
X167244976Y-87242154D01*
X167262219Y-87229366D01*
X167280632Y-87218330D01*
X167300038Y-87209151D01*
X167320250Y-87201919D01*
X167341074Y-87196703D01*
X167362309Y-87193553D01*
X167383750Y-87192500D01*
X167896250Y-87192500D01*
X167917691Y-87193553D01*
G37*
G36*
X167917691Y-88768553D02*
G01*
X167938926Y-88771703D01*
X167959750Y-88776919D01*
X167979962Y-88784151D01*
X167999368Y-88793330D01*
X168017781Y-88804366D01*
X168035024Y-88817154D01*
X168050930Y-88831570D01*
X168065346Y-88847476D01*
X168078134Y-88864719D01*
X168089170Y-88883132D01*
X168098349Y-88902538D01*
X168105581Y-88922750D01*
X168110797Y-88943574D01*
X168113947Y-88964809D01*
X168115000Y-88986250D01*
X168115000Y-89423750D01*
X168113947Y-89445191D01*
X168110797Y-89466426D01*
X168105581Y-89487250D01*
X168098349Y-89507462D01*
X168089170Y-89526868D01*
X168078134Y-89545281D01*
X168065346Y-89562524D01*
X168050930Y-89578430D01*
X168035024Y-89592846D01*
X168017781Y-89605634D01*
X167999368Y-89616670D01*
X167979962Y-89625849D01*
X167959750Y-89633081D01*
X167938926Y-89638297D01*
X167917691Y-89641447D01*
X167896250Y-89642500D01*
X167383750Y-89642500D01*
X167362309Y-89641447D01*
X167341074Y-89638297D01*
X167320250Y-89633081D01*
X167300038Y-89625849D01*
X167280632Y-89616670D01*
X167262219Y-89605634D01*
X167244976Y-89592846D01*
X167229070Y-89578430D01*
X167214654Y-89562524D01*
X167201866Y-89545281D01*
X167190830Y-89526868D01*
X167181651Y-89507462D01*
X167174419Y-89487250D01*
X167169203Y-89466426D01*
X167166053Y-89445191D01*
X167165000Y-89423750D01*
X167165000Y-88986250D01*
X167166053Y-88964809D01*
X167169203Y-88943574D01*
X167174419Y-88922750D01*
X167181651Y-88902538D01*
X167190830Y-88883132D01*
X167201866Y-88864719D01*
X167214654Y-88847476D01*
X167229070Y-88831570D01*
X167244976Y-88817154D01*
X167262219Y-88804366D01*
X167280632Y-88793330D01*
X167300038Y-88784151D01*
X167320250Y-88776919D01*
X167341074Y-88771703D01*
X167362309Y-88768553D01*
X167383750Y-88767500D01*
X167896250Y-88767500D01*
X167917691Y-88768553D01*
G37*
M02*
