G04 #@! TF.GenerationSoftware,KiCad,Pcbnew,(5.1.5-0)*
G04 #@! TF.CreationDate,2020-10-28T23:32:55-07:00*
G04 #@! TF.ProjectId,Luminometer_RPi,4c756d69-6e6f-46d6-9574-65725f525069,rev?*
G04 #@! TF.SameCoordinates,Original*
G04 #@! TF.FileFunction,Legend,Bot*
G04 #@! TF.FilePolarity,Positive*
%FSLAX46Y46*%
G04 Gerber Fmt 4.6, Leading zero omitted, Abs format (unit mm)*
G04 Created by KiCad (PCBNEW (5.1.5-0)) date 2020-10-28 23:32:55*
%MOMM*%
%LPD*%
G04 APERTURE LIST*
%ADD10C,0.150000*%
%ADD11C,0.100000*%
G04 APERTURE END LIST*
D10*
X109500000Y-111500000D02*
G75*
G02X106500000Y-108500000I0J3000000D01*
G01*
X171500000Y-108500000D02*
G75*
G02X168500000Y-111500000I-3000000J0D01*
G01*
X168500000Y-61500000D02*
G75*
G02X171500000Y-64500000I0J-3000000D01*
G01*
X106500000Y-64500000D02*
G75*
G02X109500000Y-61500000I3000000J0D01*
G01*
X106500000Y-108500000D02*
X106500000Y-64500000D01*
X168500000Y-111500000D02*
X109500000Y-111500000D01*
X171500000Y-64500000D02*
X171500000Y-108500000D01*
X109500000Y-61500000D02*
X168500000Y-61500000D01*
D11*
G36*
X106680000Y-99025000D02*
G01*
X106680000Y-101025000D01*
X107880000Y-101025000D01*
X107880000Y-99025000D01*
X106680000Y-99025000D01*
G37*
X106680000Y-99025000D02*
X106680000Y-101025000D01*
X107880000Y-101025000D01*
X107880000Y-99025000D01*
X106680000Y-99025000D01*
G36*
X106680000Y-87025000D02*
G01*
X106680000Y-89025000D01*
X107880000Y-89025000D01*
X107880000Y-87025000D01*
X106680000Y-87025000D01*
G37*
X106680000Y-87025000D02*
X106680000Y-89025000D01*
X107880000Y-89025000D01*
X107880000Y-87025000D01*
X106680000Y-87025000D01*
G36*
X106680000Y-75025000D02*
G01*
X106680000Y-77025000D01*
X107880000Y-77025000D01*
X107880000Y-75025000D01*
X106680000Y-75025000D01*
G37*
X106680000Y-75025000D02*
X106680000Y-77025000D01*
X107880000Y-77025000D01*
X107880000Y-75025000D01*
X106680000Y-75025000D01*
D10*
X158648333Y-72767380D02*
X158648333Y-73481666D01*
X158695952Y-73624523D01*
X158791190Y-73719761D01*
X158934047Y-73767380D01*
X159029285Y-73767380D01*
X157648333Y-73767380D02*
X158219761Y-73767380D01*
X157934047Y-73767380D02*
X157934047Y-72767380D01*
X158029285Y-72910238D01*
X158124523Y-73005476D01*
X158219761Y-73053095D01*
X110575238Y-101358333D02*
X110527619Y-101215476D01*
X110527619Y-100977380D01*
X110575238Y-100882142D01*
X110622857Y-100834523D01*
X110718095Y-100786904D01*
X110813333Y-100786904D01*
X110908571Y-100834523D01*
X110956190Y-100882142D01*
X111003809Y-100977380D01*
X111051428Y-101167857D01*
X111099047Y-101263095D01*
X111146666Y-101310714D01*
X111241904Y-101358333D01*
X111337142Y-101358333D01*
X111432380Y-101310714D01*
X111480000Y-101263095D01*
X111527619Y-101167857D01*
X111527619Y-100929761D01*
X111480000Y-100786904D01*
X111527619Y-100453571D02*
X110527619Y-100215476D01*
X111241904Y-100025000D01*
X110527619Y-99834523D01*
X111527619Y-99596428D01*
X111527619Y-99310714D02*
X111527619Y-98691666D01*
X111146666Y-99025000D01*
X111146666Y-98882142D01*
X111099047Y-98786904D01*
X111051428Y-98739285D01*
X110956190Y-98691666D01*
X110718095Y-98691666D01*
X110622857Y-98739285D01*
X110575238Y-98786904D01*
X110527619Y-98882142D01*
X110527619Y-99167857D01*
X110575238Y-99263095D01*
X110622857Y-99310714D01*
X110575238Y-89358333D02*
X110527619Y-89215476D01*
X110527619Y-88977380D01*
X110575238Y-88882142D01*
X110622857Y-88834523D01*
X110718095Y-88786904D01*
X110813333Y-88786904D01*
X110908571Y-88834523D01*
X110956190Y-88882142D01*
X111003809Y-88977380D01*
X111051428Y-89167857D01*
X111099047Y-89263095D01*
X111146666Y-89310714D01*
X111241904Y-89358333D01*
X111337142Y-89358333D01*
X111432380Y-89310714D01*
X111480000Y-89263095D01*
X111527619Y-89167857D01*
X111527619Y-88929761D01*
X111480000Y-88786904D01*
X111527619Y-88453571D02*
X110527619Y-88215476D01*
X111241904Y-88025000D01*
X110527619Y-87834523D01*
X111527619Y-87596428D01*
X111432380Y-87263095D02*
X111480000Y-87215476D01*
X111527619Y-87120238D01*
X111527619Y-86882142D01*
X111480000Y-86786904D01*
X111432380Y-86739285D01*
X111337142Y-86691666D01*
X111241904Y-86691666D01*
X111099047Y-86739285D01*
X110527619Y-87310714D01*
X110527619Y-86691666D01*
X110575238Y-77358333D02*
X110527619Y-77215476D01*
X110527619Y-76977380D01*
X110575238Y-76882142D01*
X110622857Y-76834523D01*
X110718095Y-76786904D01*
X110813333Y-76786904D01*
X110908571Y-76834523D01*
X110956190Y-76882142D01*
X111003809Y-76977380D01*
X111051428Y-77167857D01*
X111099047Y-77263095D01*
X111146666Y-77310714D01*
X111241904Y-77358333D01*
X111337142Y-77358333D01*
X111432380Y-77310714D01*
X111480000Y-77263095D01*
X111527619Y-77167857D01*
X111527619Y-76929761D01*
X111480000Y-76786904D01*
X111527619Y-76453571D02*
X110527619Y-76215476D01*
X111241904Y-76025000D01*
X110527619Y-75834523D01*
X111527619Y-75596428D01*
X110527619Y-74691666D02*
X110527619Y-75263095D01*
X110527619Y-74977380D02*
X111527619Y-74977380D01*
X111384761Y-75072619D01*
X111289523Y-75167857D01*
X111241904Y-75263095D01*
M02*
