G04 #@! TF.GenerationSoftware,KiCad,Pcbnew,(5.1.5-0)*
G04 #@! TF.CreationDate,2021-01-19T14:56:57-08:00*
G04 #@! TF.ProjectId,Luminometer_RPi,4c756d69-6e6f-46d6-9574-65725f525069,rev?*
G04 #@! TF.SameCoordinates,Original*
G04 #@! TF.FileFunction,Copper,L4,Bot*
G04 #@! TF.FilePolarity,Positive*
%FSLAX46Y46*%
G04 Gerber Fmt 4.6, Leading zero omitted, Abs format (unit mm)*
G04 Created by KiCad (PCBNEW (5.1.5-0)) date 2021-01-19 14:56:57*
%MOMM*%
%LPD*%
G04 APERTURE LIST*
%ADD10C,0.150000*%
%ADD11O,1.700000X1.700000*%
%ADD12R,1.700000X1.700000*%
%ADD13C,0.380000*%
%ADD14R,5.000000X3.400000*%
%ADD15C,0.100000*%
%ADD16C,1.778000*%
%ADD17C,2.540000*%
%ADD18R,1.700000X2.100000*%
%ADD19R,1.300000X0.600000*%
%ADD20C,2.020000*%
%ADD21R,1.200000X2.500000*%
%ADD22R,0.800000X1.100000*%
%ADD23C,0.400000*%
%ADD24C,0.250000*%
%ADD25C,0.400000*%
%ADD26C,0.500000*%
%ADD27C,1.000000*%
%ADD28C,0.200000*%
G04 APERTURE END LIST*
D10*
X109500000Y-111500000D02*
G75*
G02X106500000Y-108500000I0J3000000D01*
G01*
X171500000Y-108500000D02*
G75*
G02X168500000Y-111500000I-3000000J0D01*
G01*
X168500000Y-61500000D02*
G75*
G02X171500000Y-64500000I0J-3000000D01*
G01*
X106500000Y-64500000D02*
G75*
G02X109500000Y-61500000I3000000J0D01*
G01*
X106500000Y-108500000D02*
X106500000Y-64500000D01*
X168500000Y-111500000D02*
X109500000Y-111500000D01*
X171500000Y-64500000D02*
X171500000Y-108500000D01*
X109500000Y-61500000D02*
X168500000Y-61500000D01*
D11*
X114867000Y-105275600D03*
X114867000Y-102735600D03*
X132647000Y-105275600D03*
X132647000Y-102735600D03*
X137727000Y-105275600D03*
X137727000Y-102735600D03*
X127567000Y-105275600D03*
X127567000Y-102735600D03*
X155507000Y-105275600D03*
X155507000Y-102735600D03*
X125027000Y-105275600D03*
X125027000Y-102735600D03*
X142807000Y-105275600D03*
X142807000Y-102735600D03*
X119947000Y-105275600D03*
X119947000Y-102735600D03*
X122487000Y-105275600D03*
X122487000Y-102735600D03*
X117407000Y-105275600D03*
X117407000Y-102735600D03*
X140267000Y-105275600D03*
X140267000Y-102735600D03*
X152967000Y-105275600D03*
X152967000Y-102735600D03*
X147887000Y-105275600D03*
X147887000Y-102735600D03*
X130107000Y-105275600D03*
X130107000Y-102735600D03*
X150427000Y-105275600D03*
X150427000Y-102735600D03*
X135187000Y-105275600D03*
X135187000Y-102735600D03*
D12*
X163127000Y-102735600D03*
D11*
X163127000Y-105275600D03*
X158047000Y-102735600D03*
X160587000Y-105275600D03*
X145347000Y-105275600D03*
X145347000Y-102735600D03*
X160587000Y-102735600D03*
X158047000Y-105275600D03*
D13*
X140500000Y-85750000D03*
X139000000Y-85750000D03*
X137500000Y-85750000D03*
X140500000Y-84250000D03*
X139000000Y-84250000D03*
X137500000Y-84250000D03*
D14*
X139000000Y-85000000D03*
G04 #@! TA.AperFunction,SMDPad,CuDef*
D15*
G36*
X165027691Y-75026053D02*
G01*
X165048926Y-75029203D01*
X165069750Y-75034419D01*
X165089962Y-75041651D01*
X165109368Y-75050830D01*
X165127781Y-75061866D01*
X165145024Y-75074654D01*
X165160930Y-75089070D01*
X165175346Y-75104976D01*
X165188134Y-75122219D01*
X165199170Y-75140632D01*
X165208349Y-75160038D01*
X165215581Y-75180250D01*
X165220797Y-75201074D01*
X165223947Y-75222309D01*
X165225000Y-75243750D01*
X165225000Y-75681250D01*
X165223947Y-75702691D01*
X165220797Y-75723926D01*
X165215581Y-75744750D01*
X165208349Y-75764962D01*
X165199170Y-75784368D01*
X165188134Y-75802781D01*
X165175346Y-75820024D01*
X165160930Y-75835930D01*
X165145024Y-75850346D01*
X165127781Y-75863134D01*
X165109368Y-75874170D01*
X165089962Y-75883349D01*
X165069750Y-75890581D01*
X165048926Y-75895797D01*
X165027691Y-75898947D01*
X165006250Y-75900000D01*
X164493750Y-75900000D01*
X164472309Y-75898947D01*
X164451074Y-75895797D01*
X164430250Y-75890581D01*
X164410038Y-75883349D01*
X164390632Y-75874170D01*
X164372219Y-75863134D01*
X164354976Y-75850346D01*
X164339070Y-75835930D01*
X164324654Y-75820024D01*
X164311866Y-75802781D01*
X164300830Y-75784368D01*
X164291651Y-75764962D01*
X164284419Y-75744750D01*
X164279203Y-75723926D01*
X164276053Y-75702691D01*
X164275000Y-75681250D01*
X164275000Y-75243750D01*
X164276053Y-75222309D01*
X164279203Y-75201074D01*
X164284419Y-75180250D01*
X164291651Y-75160038D01*
X164300830Y-75140632D01*
X164311866Y-75122219D01*
X164324654Y-75104976D01*
X164339070Y-75089070D01*
X164354976Y-75074654D01*
X164372219Y-75061866D01*
X164390632Y-75050830D01*
X164410038Y-75041651D01*
X164430250Y-75034419D01*
X164451074Y-75029203D01*
X164472309Y-75026053D01*
X164493750Y-75025000D01*
X165006250Y-75025000D01*
X165027691Y-75026053D01*
G37*
G04 #@! TD.AperFunction*
G04 #@! TA.AperFunction,SMDPad,CuDef*
G36*
X165027691Y-76601053D02*
G01*
X165048926Y-76604203D01*
X165069750Y-76609419D01*
X165089962Y-76616651D01*
X165109368Y-76625830D01*
X165127781Y-76636866D01*
X165145024Y-76649654D01*
X165160930Y-76664070D01*
X165175346Y-76679976D01*
X165188134Y-76697219D01*
X165199170Y-76715632D01*
X165208349Y-76735038D01*
X165215581Y-76755250D01*
X165220797Y-76776074D01*
X165223947Y-76797309D01*
X165225000Y-76818750D01*
X165225000Y-77256250D01*
X165223947Y-77277691D01*
X165220797Y-77298926D01*
X165215581Y-77319750D01*
X165208349Y-77339962D01*
X165199170Y-77359368D01*
X165188134Y-77377781D01*
X165175346Y-77395024D01*
X165160930Y-77410930D01*
X165145024Y-77425346D01*
X165127781Y-77438134D01*
X165109368Y-77449170D01*
X165089962Y-77458349D01*
X165069750Y-77465581D01*
X165048926Y-77470797D01*
X165027691Y-77473947D01*
X165006250Y-77475000D01*
X164493750Y-77475000D01*
X164472309Y-77473947D01*
X164451074Y-77470797D01*
X164430250Y-77465581D01*
X164410038Y-77458349D01*
X164390632Y-77449170D01*
X164372219Y-77438134D01*
X164354976Y-77425346D01*
X164339070Y-77410930D01*
X164324654Y-77395024D01*
X164311866Y-77377781D01*
X164300830Y-77359368D01*
X164291651Y-77339962D01*
X164284419Y-77319750D01*
X164279203Y-77298926D01*
X164276053Y-77277691D01*
X164275000Y-77256250D01*
X164275000Y-76818750D01*
X164276053Y-76797309D01*
X164279203Y-76776074D01*
X164284419Y-76755250D01*
X164291651Y-76735038D01*
X164300830Y-76715632D01*
X164311866Y-76697219D01*
X164324654Y-76679976D01*
X164339070Y-76664070D01*
X164354976Y-76649654D01*
X164372219Y-76636866D01*
X164390632Y-76625830D01*
X164410038Y-76616651D01*
X164430250Y-76609419D01*
X164451074Y-76604203D01*
X164472309Y-76601053D01*
X164493750Y-76600000D01*
X165006250Y-76600000D01*
X165027691Y-76601053D01*
G37*
G04 #@! TD.AperFunction*
D16*
X109250000Y-93500000D03*
X109250000Y-98000000D03*
D17*
X111750000Y-92250000D03*
X111750000Y-99250000D03*
D16*
X109250000Y-82500000D03*
X109250000Y-87000000D03*
D17*
X111750000Y-81250000D03*
X111750000Y-88250000D03*
D16*
X109250000Y-71500000D03*
X109250000Y-76000000D03*
D17*
X111750000Y-70250000D03*
X111750000Y-77250000D03*
G04 #@! TA.AperFunction,SMDPad,CuDef*
D15*
G36*
X150202691Y-98026053D02*
G01*
X150223926Y-98029203D01*
X150244750Y-98034419D01*
X150264962Y-98041651D01*
X150284368Y-98050830D01*
X150302781Y-98061866D01*
X150320024Y-98074654D01*
X150335930Y-98089070D01*
X150350346Y-98104976D01*
X150363134Y-98122219D01*
X150374170Y-98140632D01*
X150383349Y-98160038D01*
X150390581Y-98180250D01*
X150395797Y-98201074D01*
X150398947Y-98222309D01*
X150400000Y-98243750D01*
X150400000Y-98756250D01*
X150398947Y-98777691D01*
X150395797Y-98798926D01*
X150390581Y-98819750D01*
X150383349Y-98839962D01*
X150374170Y-98859368D01*
X150363134Y-98877781D01*
X150350346Y-98895024D01*
X150335930Y-98910930D01*
X150320024Y-98925346D01*
X150302781Y-98938134D01*
X150284368Y-98949170D01*
X150264962Y-98958349D01*
X150244750Y-98965581D01*
X150223926Y-98970797D01*
X150202691Y-98973947D01*
X150181250Y-98975000D01*
X149743750Y-98975000D01*
X149722309Y-98973947D01*
X149701074Y-98970797D01*
X149680250Y-98965581D01*
X149660038Y-98958349D01*
X149640632Y-98949170D01*
X149622219Y-98938134D01*
X149604976Y-98925346D01*
X149589070Y-98910930D01*
X149574654Y-98895024D01*
X149561866Y-98877781D01*
X149550830Y-98859368D01*
X149541651Y-98839962D01*
X149534419Y-98819750D01*
X149529203Y-98798926D01*
X149526053Y-98777691D01*
X149525000Y-98756250D01*
X149525000Y-98243750D01*
X149526053Y-98222309D01*
X149529203Y-98201074D01*
X149534419Y-98180250D01*
X149541651Y-98160038D01*
X149550830Y-98140632D01*
X149561866Y-98122219D01*
X149574654Y-98104976D01*
X149589070Y-98089070D01*
X149604976Y-98074654D01*
X149622219Y-98061866D01*
X149640632Y-98050830D01*
X149660038Y-98041651D01*
X149680250Y-98034419D01*
X149701074Y-98029203D01*
X149722309Y-98026053D01*
X149743750Y-98025000D01*
X150181250Y-98025000D01*
X150202691Y-98026053D01*
G37*
G04 #@! TD.AperFunction*
G04 #@! TA.AperFunction,SMDPad,CuDef*
G36*
X151777691Y-98026053D02*
G01*
X151798926Y-98029203D01*
X151819750Y-98034419D01*
X151839962Y-98041651D01*
X151859368Y-98050830D01*
X151877781Y-98061866D01*
X151895024Y-98074654D01*
X151910930Y-98089070D01*
X151925346Y-98104976D01*
X151938134Y-98122219D01*
X151949170Y-98140632D01*
X151958349Y-98160038D01*
X151965581Y-98180250D01*
X151970797Y-98201074D01*
X151973947Y-98222309D01*
X151975000Y-98243750D01*
X151975000Y-98756250D01*
X151973947Y-98777691D01*
X151970797Y-98798926D01*
X151965581Y-98819750D01*
X151958349Y-98839962D01*
X151949170Y-98859368D01*
X151938134Y-98877781D01*
X151925346Y-98895024D01*
X151910930Y-98910930D01*
X151895024Y-98925346D01*
X151877781Y-98938134D01*
X151859368Y-98949170D01*
X151839962Y-98958349D01*
X151819750Y-98965581D01*
X151798926Y-98970797D01*
X151777691Y-98973947D01*
X151756250Y-98975000D01*
X151318750Y-98975000D01*
X151297309Y-98973947D01*
X151276074Y-98970797D01*
X151255250Y-98965581D01*
X151235038Y-98958349D01*
X151215632Y-98949170D01*
X151197219Y-98938134D01*
X151179976Y-98925346D01*
X151164070Y-98910930D01*
X151149654Y-98895024D01*
X151136866Y-98877781D01*
X151125830Y-98859368D01*
X151116651Y-98839962D01*
X151109419Y-98819750D01*
X151104203Y-98798926D01*
X151101053Y-98777691D01*
X151100000Y-98756250D01*
X151100000Y-98243750D01*
X151101053Y-98222309D01*
X151104203Y-98201074D01*
X151109419Y-98180250D01*
X151116651Y-98160038D01*
X151125830Y-98140632D01*
X151136866Y-98122219D01*
X151149654Y-98104976D01*
X151164070Y-98089070D01*
X151179976Y-98074654D01*
X151197219Y-98061866D01*
X151215632Y-98050830D01*
X151235038Y-98041651D01*
X151255250Y-98034419D01*
X151276074Y-98029203D01*
X151297309Y-98026053D01*
X151318750Y-98025000D01*
X151756250Y-98025000D01*
X151777691Y-98026053D01*
G37*
G04 #@! TD.AperFunction*
D18*
X161250000Y-98650000D03*
X157750000Y-94850000D03*
X157750000Y-98650000D03*
D19*
X151700000Y-95950000D03*
X151700000Y-94050000D03*
X153800000Y-95000000D03*
D20*
X168540000Y-90250000D03*
X166000000Y-90250000D03*
G04 #@! TA.AperFunction,SMDPad,CuDef*
D15*
G36*
X153952691Y-98026053D02*
G01*
X153973926Y-98029203D01*
X153994750Y-98034419D01*
X154014962Y-98041651D01*
X154034368Y-98050830D01*
X154052781Y-98061866D01*
X154070024Y-98074654D01*
X154085930Y-98089070D01*
X154100346Y-98104976D01*
X154113134Y-98122219D01*
X154124170Y-98140632D01*
X154133349Y-98160038D01*
X154140581Y-98180250D01*
X154145797Y-98201074D01*
X154148947Y-98222309D01*
X154150000Y-98243750D01*
X154150000Y-98756250D01*
X154148947Y-98777691D01*
X154145797Y-98798926D01*
X154140581Y-98819750D01*
X154133349Y-98839962D01*
X154124170Y-98859368D01*
X154113134Y-98877781D01*
X154100346Y-98895024D01*
X154085930Y-98910930D01*
X154070024Y-98925346D01*
X154052781Y-98938134D01*
X154034368Y-98949170D01*
X154014962Y-98958349D01*
X153994750Y-98965581D01*
X153973926Y-98970797D01*
X153952691Y-98973947D01*
X153931250Y-98975000D01*
X153493750Y-98975000D01*
X153472309Y-98973947D01*
X153451074Y-98970797D01*
X153430250Y-98965581D01*
X153410038Y-98958349D01*
X153390632Y-98949170D01*
X153372219Y-98938134D01*
X153354976Y-98925346D01*
X153339070Y-98910930D01*
X153324654Y-98895024D01*
X153311866Y-98877781D01*
X153300830Y-98859368D01*
X153291651Y-98839962D01*
X153284419Y-98819750D01*
X153279203Y-98798926D01*
X153276053Y-98777691D01*
X153275000Y-98756250D01*
X153275000Y-98243750D01*
X153276053Y-98222309D01*
X153279203Y-98201074D01*
X153284419Y-98180250D01*
X153291651Y-98160038D01*
X153300830Y-98140632D01*
X153311866Y-98122219D01*
X153324654Y-98104976D01*
X153339070Y-98089070D01*
X153354976Y-98074654D01*
X153372219Y-98061866D01*
X153390632Y-98050830D01*
X153410038Y-98041651D01*
X153430250Y-98034419D01*
X153451074Y-98029203D01*
X153472309Y-98026053D01*
X153493750Y-98025000D01*
X153931250Y-98025000D01*
X153952691Y-98026053D01*
G37*
G04 #@! TD.AperFunction*
G04 #@! TA.AperFunction,SMDPad,CuDef*
G36*
X155527691Y-98026053D02*
G01*
X155548926Y-98029203D01*
X155569750Y-98034419D01*
X155589962Y-98041651D01*
X155609368Y-98050830D01*
X155627781Y-98061866D01*
X155645024Y-98074654D01*
X155660930Y-98089070D01*
X155675346Y-98104976D01*
X155688134Y-98122219D01*
X155699170Y-98140632D01*
X155708349Y-98160038D01*
X155715581Y-98180250D01*
X155720797Y-98201074D01*
X155723947Y-98222309D01*
X155725000Y-98243750D01*
X155725000Y-98756250D01*
X155723947Y-98777691D01*
X155720797Y-98798926D01*
X155715581Y-98819750D01*
X155708349Y-98839962D01*
X155699170Y-98859368D01*
X155688134Y-98877781D01*
X155675346Y-98895024D01*
X155660930Y-98910930D01*
X155645024Y-98925346D01*
X155627781Y-98938134D01*
X155609368Y-98949170D01*
X155589962Y-98958349D01*
X155569750Y-98965581D01*
X155548926Y-98970797D01*
X155527691Y-98973947D01*
X155506250Y-98975000D01*
X155068750Y-98975000D01*
X155047309Y-98973947D01*
X155026074Y-98970797D01*
X155005250Y-98965581D01*
X154985038Y-98958349D01*
X154965632Y-98949170D01*
X154947219Y-98938134D01*
X154929976Y-98925346D01*
X154914070Y-98910930D01*
X154899654Y-98895024D01*
X154886866Y-98877781D01*
X154875830Y-98859368D01*
X154866651Y-98839962D01*
X154859419Y-98819750D01*
X154854203Y-98798926D01*
X154851053Y-98777691D01*
X154850000Y-98756250D01*
X154850000Y-98243750D01*
X154851053Y-98222309D01*
X154854203Y-98201074D01*
X154859419Y-98180250D01*
X154866651Y-98160038D01*
X154875830Y-98140632D01*
X154886866Y-98122219D01*
X154899654Y-98104976D01*
X154914070Y-98089070D01*
X154929976Y-98074654D01*
X154947219Y-98061866D01*
X154965632Y-98050830D01*
X154985038Y-98041651D01*
X155005250Y-98034419D01*
X155026074Y-98029203D01*
X155047309Y-98026053D01*
X155068750Y-98025000D01*
X155506250Y-98025000D01*
X155527691Y-98026053D01*
G37*
G04 #@! TD.AperFunction*
G04 #@! TA.AperFunction,SMDPad,CuDef*
G36*
X169027691Y-75026053D02*
G01*
X169048926Y-75029203D01*
X169069750Y-75034419D01*
X169089962Y-75041651D01*
X169109368Y-75050830D01*
X169127781Y-75061866D01*
X169145024Y-75074654D01*
X169160930Y-75089070D01*
X169175346Y-75104976D01*
X169188134Y-75122219D01*
X169199170Y-75140632D01*
X169208349Y-75160038D01*
X169215581Y-75180250D01*
X169220797Y-75201074D01*
X169223947Y-75222309D01*
X169225000Y-75243750D01*
X169225000Y-75681250D01*
X169223947Y-75702691D01*
X169220797Y-75723926D01*
X169215581Y-75744750D01*
X169208349Y-75764962D01*
X169199170Y-75784368D01*
X169188134Y-75802781D01*
X169175346Y-75820024D01*
X169160930Y-75835930D01*
X169145024Y-75850346D01*
X169127781Y-75863134D01*
X169109368Y-75874170D01*
X169089962Y-75883349D01*
X169069750Y-75890581D01*
X169048926Y-75895797D01*
X169027691Y-75898947D01*
X169006250Y-75900000D01*
X168493750Y-75900000D01*
X168472309Y-75898947D01*
X168451074Y-75895797D01*
X168430250Y-75890581D01*
X168410038Y-75883349D01*
X168390632Y-75874170D01*
X168372219Y-75863134D01*
X168354976Y-75850346D01*
X168339070Y-75835930D01*
X168324654Y-75820024D01*
X168311866Y-75802781D01*
X168300830Y-75784368D01*
X168291651Y-75764962D01*
X168284419Y-75744750D01*
X168279203Y-75723926D01*
X168276053Y-75702691D01*
X168275000Y-75681250D01*
X168275000Y-75243750D01*
X168276053Y-75222309D01*
X168279203Y-75201074D01*
X168284419Y-75180250D01*
X168291651Y-75160038D01*
X168300830Y-75140632D01*
X168311866Y-75122219D01*
X168324654Y-75104976D01*
X168339070Y-75089070D01*
X168354976Y-75074654D01*
X168372219Y-75061866D01*
X168390632Y-75050830D01*
X168410038Y-75041651D01*
X168430250Y-75034419D01*
X168451074Y-75029203D01*
X168472309Y-75026053D01*
X168493750Y-75025000D01*
X169006250Y-75025000D01*
X169027691Y-75026053D01*
G37*
G04 #@! TD.AperFunction*
G04 #@! TA.AperFunction,SMDPad,CuDef*
G36*
X169027691Y-76601053D02*
G01*
X169048926Y-76604203D01*
X169069750Y-76609419D01*
X169089962Y-76616651D01*
X169109368Y-76625830D01*
X169127781Y-76636866D01*
X169145024Y-76649654D01*
X169160930Y-76664070D01*
X169175346Y-76679976D01*
X169188134Y-76697219D01*
X169199170Y-76715632D01*
X169208349Y-76735038D01*
X169215581Y-76755250D01*
X169220797Y-76776074D01*
X169223947Y-76797309D01*
X169225000Y-76818750D01*
X169225000Y-77256250D01*
X169223947Y-77277691D01*
X169220797Y-77298926D01*
X169215581Y-77319750D01*
X169208349Y-77339962D01*
X169199170Y-77359368D01*
X169188134Y-77377781D01*
X169175346Y-77395024D01*
X169160930Y-77410930D01*
X169145024Y-77425346D01*
X169127781Y-77438134D01*
X169109368Y-77449170D01*
X169089962Y-77458349D01*
X169069750Y-77465581D01*
X169048926Y-77470797D01*
X169027691Y-77473947D01*
X169006250Y-77475000D01*
X168493750Y-77475000D01*
X168472309Y-77473947D01*
X168451074Y-77470797D01*
X168430250Y-77465581D01*
X168410038Y-77458349D01*
X168390632Y-77449170D01*
X168372219Y-77438134D01*
X168354976Y-77425346D01*
X168339070Y-77410930D01*
X168324654Y-77395024D01*
X168311866Y-77377781D01*
X168300830Y-77359368D01*
X168291651Y-77339962D01*
X168284419Y-77319750D01*
X168279203Y-77298926D01*
X168276053Y-77277691D01*
X168275000Y-77256250D01*
X168275000Y-76818750D01*
X168276053Y-76797309D01*
X168279203Y-76776074D01*
X168284419Y-76755250D01*
X168291651Y-76735038D01*
X168300830Y-76715632D01*
X168311866Y-76697219D01*
X168324654Y-76679976D01*
X168339070Y-76664070D01*
X168354976Y-76649654D01*
X168372219Y-76636866D01*
X168390632Y-76625830D01*
X168410038Y-76616651D01*
X168430250Y-76609419D01*
X168451074Y-76604203D01*
X168472309Y-76601053D01*
X168493750Y-76600000D01*
X169006250Y-76600000D01*
X169027691Y-76601053D01*
G37*
G04 #@! TD.AperFunction*
D21*
X153800000Y-64750000D03*
X165200000Y-64750000D03*
X165200000Y-70250000D03*
X153800000Y-70250000D03*
D22*
X156325000Y-64750000D03*
X157595000Y-64750000D03*
X158865000Y-64750000D03*
X162675000Y-70250000D03*
X161405000Y-70250000D03*
X156325000Y-70250000D03*
X160135000Y-64750000D03*
X161405000Y-64750000D03*
X162675000Y-64750000D03*
X157595000Y-70250000D03*
X158865000Y-70250000D03*
X160135000Y-70250000D03*
D23*
X159500000Y-96750000D03*
X139500000Y-77000000D03*
X161500000Y-73250000D03*
X156250000Y-72000000D03*
X158500000Y-66500000D03*
X150250000Y-94000000D03*
X141750000Y-99500000D03*
X143500000Y-97750000D03*
X145250000Y-96250000D03*
X136500000Y-89250000D03*
X141500000Y-89250000D03*
X137250000Y-81000000D03*
X136500000Y-81000000D03*
X140750000Y-81250000D03*
X141500000Y-81250000D03*
X137500000Y-89250000D03*
X130500000Y-91500000D03*
X140750000Y-89250000D03*
X148000000Y-91500000D03*
X139500000Y-89250000D03*
X156250000Y-87500000D03*
X138500000Y-89250000D03*
X121750000Y-87250000D03*
D24*
X157600000Y-98500000D02*
X157750000Y-98650000D01*
X155287500Y-98500000D02*
X157600000Y-98500000D01*
D25*
X165950000Y-90250000D02*
X166000000Y-90250000D01*
D26*
X157750000Y-98650000D02*
X157750000Y-98450000D01*
D27*
X168275000Y-77037500D02*
X168750000Y-77037500D01*
X166000000Y-79312500D02*
X168275000Y-77037500D01*
X166000000Y-90250000D02*
X166000000Y-79312500D01*
D26*
X157750000Y-98500000D02*
X159500000Y-96750000D01*
X157750000Y-98650000D02*
X157750000Y-98500000D01*
D24*
X160147000Y-70423000D02*
X160220000Y-70350000D01*
X162675000Y-71050000D02*
X162675000Y-70250000D01*
X162449990Y-71275010D02*
X162675000Y-71050000D01*
X162449990Y-80199990D02*
X162449990Y-71275010D01*
X162500000Y-80250000D02*
X162449990Y-80199990D01*
D10*
X142774999Y-99975001D02*
X146750000Y-96000000D01*
X136282597Y-99975001D02*
X142774999Y-99975001D01*
X134000000Y-102257598D02*
X136282597Y-99975001D01*
X134000000Y-103047602D02*
X134000000Y-102257598D01*
X132647000Y-104400602D02*
X134000000Y-103047602D01*
X132647000Y-105275600D02*
X132647000Y-104400602D01*
D24*
X146750000Y-96000000D02*
X162500000Y-80250000D01*
X146749899Y-96000101D02*
X146750000Y-96000000D01*
X156325000Y-71925000D02*
X156250000Y-72000000D01*
X156325000Y-70250000D02*
X156325000Y-71925000D01*
D27*
X168750000Y-65189998D02*
X168750000Y-75025000D01*
X166360001Y-62799999D02*
X168750000Y-65189998D01*
X164039999Y-62799999D02*
X166360001Y-62799999D01*
X162675000Y-64164998D02*
X164039999Y-62799999D01*
X168750000Y-75025000D02*
X168750000Y-75462500D01*
X162675000Y-64750000D02*
X162675000Y-64164998D01*
D24*
X161405000Y-73155000D02*
X161500000Y-73250000D01*
X161405000Y-70250000D02*
X161405000Y-73155000D01*
X160000000Y-70385000D02*
X160135000Y-70250000D01*
X158750000Y-70365000D02*
X158865000Y-70250000D01*
X157480000Y-70365000D02*
X157595000Y-70250000D01*
D26*
X156325000Y-64750000D02*
X160135000Y-64750000D01*
X158865000Y-66135000D02*
X158500000Y-66500000D01*
X158865000Y-64750000D02*
X158865000Y-66135000D01*
D24*
X151650000Y-94000000D02*
X151700000Y-94050000D01*
X150250000Y-94000000D02*
X151650000Y-94000000D01*
X160135000Y-81365000D02*
X160135000Y-70250000D01*
X145250000Y-96250000D02*
X160135000Y-81365000D01*
D26*
X164750000Y-77037500D02*
X164750000Y-77475000D01*
X163164900Y-102738000D02*
X163164900Y-83835100D01*
X164750000Y-82250000D02*
X164750000Y-77037500D01*
X163164900Y-83835100D02*
X164750000Y-82250000D01*
D24*
X158865000Y-70798412D02*
X158865000Y-70250000D01*
X143500000Y-97467158D02*
X143500000Y-97750000D01*
X143500000Y-95222998D02*
X143500000Y-97467158D01*
X158865000Y-79857998D02*
X143500000Y-95222998D01*
X158865000Y-70250000D02*
X158865000Y-79857998D01*
X157595000Y-71432002D02*
X157595000Y-71050000D01*
X157595000Y-71050000D02*
X157595000Y-70250000D01*
X142025001Y-99224999D02*
X142025001Y-93724999D01*
X141750000Y-99500000D02*
X142025001Y-99224999D01*
X157595000Y-78155000D02*
X157595000Y-70250000D01*
X142025001Y-93724999D02*
X157595000Y-78155000D01*
D26*
X164275000Y-75462500D02*
X164750000Y-75462500D01*
X164000000Y-75187500D02*
X164275000Y-75462500D01*
X164000000Y-68500000D02*
X164000000Y-75187500D01*
X161405000Y-65905000D02*
X164000000Y-68500000D01*
X161405000Y-64750000D02*
X161405000Y-65905000D01*
D24*
X108035999Y-100183601D02*
X116852398Y-109000000D01*
X108035999Y-94714001D02*
X108035999Y-100183601D01*
X109250000Y-93500000D02*
X108035999Y-94714001D01*
X153500000Y-109000000D02*
X154250000Y-108250000D01*
X116852398Y-109000000D02*
X153500000Y-109000000D01*
D28*
X154277900Y-108206702D02*
X154250000Y-108250000D01*
D24*
X157197001Y-103585599D02*
X158047000Y-102735600D01*
X154293298Y-108206702D02*
X156871999Y-105628001D01*
X156871999Y-103910601D02*
X157197001Y-103585599D01*
X156871999Y-105628001D02*
X156871999Y-103910601D01*
X154277900Y-108206702D02*
X154293298Y-108206702D01*
X153450000Y-95000000D02*
X153800000Y-95000000D01*
X153800000Y-98412500D02*
X153712500Y-98500000D01*
X153800000Y-95000000D02*
X153800000Y-98412500D01*
X157600000Y-95000000D02*
X157750000Y-94850000D01*
X153800000Y-95000000D02*
X157600000Y-95000000D01*
X129257001Y-104425601D02*
X130107000Y-105275600D01*
X128931999Y-104100599D02*
X129257001Y-104425601D01*
X128931999Y-96818001D02*
X128931999Y-104100599D01*
X136500000Y-89250000D02*
X128931999Y-96818001D01*
X130107000Y-100643000D02*
X130107000Y-102735600D01*
X141500000Y-89250000D02*
X130107000Y-100643000D01*
X122524900Y-86475100D02*
X122524900Y-102738000D01*
X127474999Y-81525001D02*
X122524900Y-86475100D01*
X136724999Y-81525001D02*
X127474999Y-81525001D01*
X137250000Y-81000000D02*
X136724999Y-81525001D01*
X136500000Y-81000000D02*
X127250000Y-81000000D01*
X127250000Y-81000000D02*
X121159901Y-87090099D01*
X121159901Y-104102999D02*
X119984900Y-105278000D01*
X121159901Y-87090099D02*
X121159901Y-104102999D01*
X136603576Y-81975012D02*
X125064900Y-93513688D01*
X137024989Y-81975011D02*
X136603576Y-81975012D01*
X137750000Y-81250000D02*
X137024989Y-81975011D01*
X140750000Y-81250000D02*
X137750000Y-81250000D01*
X125064900Y-93513688D02*
X125064900Y-102738000D01*
X127604900Y-91610098D02*
X127604900Y-102738000D01*
X136789977Y-82425021D02*
X127604900Y-91610098D01*
X140324979Y-82425021D02*
X136789977Y-82425021D01*
X141500000Y-81250000D02*
X140324979Y-82425021D01*
X149962500Y-98500000D02*
X149962500Y-98975000D01*
X149962500Y-98500000D02*
X149962500Y-101501398D01*
X149962500Y-101501398D02*
X149099901Y-102363997D01*
X149099901Y-102363997D02*
X149099901Y-106150099D01*
X149099901Y-106150099D02*
X147500000Y-107750000D01*
X127536900Y-107750000D02*
X125064900Y-105278000D01*
X147500000Y-107750000D02*
X127536900Y-107750000D01*
D25*
X130500000Y-91500000D02*
X130500000Y-91500000D01*
D24*
X151537500Y-95787500D02*
X151700000Y-95950000D01*
X151700000Y-98337500D02*
X151537500Y-98500000D01*
X151700000Y-95950000D02*
X151700000Y-98337500D01*
M02*
