G04 #@! TF.GenerationSoftware,KiCad,Pcbnew,(5.1.5-0)*
G04 #@! TF.CreationDate,2020-10-28T23:32:55-07:00*
G04 #@! TF.ProjectId,Luminometer_RPi,4c756d69-6e6f-46d6-9574-65725f525069,rev?*
G04 #@! TF.SameCoordinates,Original*
G04 #@! TF.FileFunction,Paste,Bot*
G04 #@! TF.FilePolarity,Positive*
%FSLAX46Y46*%
G04 Gerber Fmt 4.6, Leading zero omitted, Abs format (unit mm)*
G04 Created by KiCad (PCBNEW (5.1.5-0)) date 2020-10-28 23:32:55*
%MOMM*%
%LPD*%
G04 APERTURE LIST*
%ADD10C,0.150000*%
%ADD11R,1.200000X2.500000*%
%ADD12R,0.800000X1.100000*%
%ADD13R,1.800000X0.750000*%
%ADD14R,0.900000X1.300000*%
%ADD15R,1.800000X0.600000*%
G04 APERTURE END LIST*
D10*
X109500000Y-111500000D02*
G75*
G02X106500000Y-108500000I0J3000000D01*
G01*
X171500000Y-108500000D02*
G75*
G02X168500000Y-111500000I-3000000J0D01*
G01*
X168500000Y-61500000D02*
G75*
G02X171500000Y-64500000I0J-3000000D01*
G01*
X106500000Y-64500000D02*
G75*
G02X109500000Y-61500000I3000000J0D01*
G01*
X106500000Y-108500000D02*
X106500000Y-64500000D01*
X168500000Y-111500000D02*
X109500000Y-111500000D01*
X171500000Y-64500000D02*
X171500000Y-108500000D01*
X109500000Y-61500000D02*
X168500000Y-61500000D01*
D11*
X152615000Y-64850000D03*
X164015000Y-64850000D03*
X164015000Y-70350000D03*
X152615000Y-70350000D03*
D12*
X155140000Y-64850000D03*
X156410000Y-64850000D03*
X157680000Y-64850000D03*
X161490000Y-70350000D03*
X160220000Y-70350000D03*
X155140000Y-70350000D03*
X158950000Y-64850000D03*
X160220000Y-64850000D03*
X161490000Y-64850000D03*
X156410000Y-70350000D03*
X157680000Y-70350000D03*
X158950000Y-70350000D03*
D13*
X109080000Y-98800000D03*
D14*
X107130000Y-98175000D03*
X107130000Y-101875000D03*
D15*
X109080000Y-100025000D03*
D13*
X109080000Y-101250000D03*
X109080000Y-86800000D03*
D14*
X107130000Y-86175000D03*
X107130000Y-89875000D03*
D15*
X109080000Y-88025000D03*
D13*
X109080000Y-89250000D03*
X109080000Y-74800000D03*
D14*
X107130000Y-74175000D03*
X107130000Y-77875000D03*
D15*
X109080000Y-76025000D03*
D13*
X109080000Y-77250000D03*
M02*
