G04 #@! TF.GenerationSoftware,KiCad,Pcbnew,(5.1.5-0)*
G04 #@! TF.CreationDate,2021-01-19T14:56:57-08:00*
G04 #@! TF.ProjectId,Luminometer_RPi,4c756d69-6e6f-46d6-9574-65725f525069,rev?*
G04 #@! TF.SameCoordinates,Original*
G04 #@! TF.FileFunction,Paste,Bot*
G04 #@! TF.FilePolarity,Positive*
%FSLAX46Y46*%
G04 Gerber Fmt 4.6, Leading zero omitted, Abs format (unit mm)*
G04 Created by KiCad (PCBNEW (5.1.5-0)) date 2021-01-19 14:56:57*
%MOMM*%
%LPD*%
G04 APERTURE LIST*
%ADD10C,0.150000*%
%ADD11C,0.100000*%
%ADD12R,1.700000X2.100000*%
%ADD13R,1.300000X0.600000*%
%ADD14R,1.200000X2.500000*%
%ADD15R,0.800000X1.100000*%
G04 APERTURE END LIST*
D10*
X109500000Y-111500000D02*
G75*
G02X106500000Y-108500000I0J3000000D01*
G01*
X171500000Y-108500000D02*
G75*
G02X168500000Y-111500000I-3000000J0D01*
G01*
X168500000Y-61500000D02*
G75*
G02X171500000Y-64500000I0J-3000000D01*
G01*
X106500000Y-64500000D02*
G75*
G02X109500000Y-61500000I3000000J0D01*
G01*
X106500000Y-108500000D02*
X106500000Y-64500000D01*
X168500000Y-111500000D02*
X109500000Y-111500000D01*
X171500000Y-64500000D02*
X171500000Y-108500000D01*
X109500000Y-61500000D02*
X168500000Y-61500000D01*
D11*
G36*
X165027691Y-75026053D02*
G01*
X165048926Y-75029203D01*
X165069750Y-75034419D01*
X165089962Y-75041651D01*
X165109368Y-75050830D01*
X165127781Y-75061866D01*
X165145024Y-75074654D01*
X165160930Y-75089070D01*
X165175346Y-75104976D01*
X165188134Y-75122219D01*
X165199170Y-75140632D01*
X165208349Y-75160038D01*
X165215581Y-75180250D01*
X165220797Y-75201074D01*
X165223947Y-75222309D01*
X165225000Y-75243750D01*
X165225000Y-75681250D01*
X165223947Y-75702691D01*
X165220797Y-75723926D01*
X165215581Y-75744750D01*
X165208349Y-75764962D01*
X165199170Y-75784368D01*
X165188134Y-75802781D01*
X165175346Y-75820024D01*
X165160930Y-75835930D01*
X165145024Y-75850346D01*
X165127781Y-75863134D01*
X165109368Y-75874170D01*
X165089962Y-75883349D01*
X165069750Y-75890581D01*
X165048926Y-75895797D01*
X165027691Y-75898947D01*
X165006250Y-75900000D01*
X164493750Y-75900000D01*
X164472309Y-75898947D01*
X164451074Y-75895797D01*
X164430250Y-75890581D01*
X164410038Y-75883349D01*
X164390632Y-75874170D01*
X164372219Y-75863134D01*
X164354976Y-75850346D01*
X164339070Y-75835930D01*
X164324654Y-75820024D01*
X164311866Y-75802781D01*
X164300830Y-75784368D01*
X164291651Y-75764962D01*
X164284419Y-75744750D01*
X164279203Y-75723926D01*
X164276053Y-75702691D01*
X164275000Y-75681250D01*
X164275000Y-75243750D01*
X164276053Y-75222309D01*
X164279203Y-75201074D01*
X164284419Y-75180250D01*
X164291651Y-75160038D01*
X164300830Y-75140632D01*
X164311866Y-75122219D01*
X164324654Y-75104976D01*
X164339070Y-75089070D01*
X164354976Y-75074654D01*
X164372219Y-75061866D01*
X164390632Y-75050830D01*
X164410038Y-75041651D01*
X164430250Y-75034419D01*
X164451074Y-75029203D01*
X164472309Y-75026053D01*
X164493750Y-75025000D01*
X165006250Y-75025000D01*
X165027691Y-75026053D01*
G37*
G36*
X165027691Y-76601053D02*
G01*
X165048926Y-76604203D01*
X165069750Y-76609419D01*
X165089962Y-76616651D01*
X165109368Y-76625830D01*
X165127781Y-76636866D01*
X165145024Y-76649654D01*
X165160930Y-76664070D01*
X165175346Y-76679976D01*
X165188134Y-76697219D01*
X165199170Y-76715632D01*
X165208349Y-76735038D01*
X165215581Y-76755250D01*
X165220797Y-76776074D01*
X165223947Y-76797309D01*
X165225000Y-76818750D01*
X165225000Y-77256250D01*
X165223947Y-77277691D01*
X165220797Y-77298926D01*
X165215581Y-77319750D01*
X165208349Y-77339962D01*
X165199170Y-77359368D01*
X165188134Y-77377781D01*
X165175346Y-77395024D01*
X165160930Y-77410930D01*
X165145024Y-77425346D01*
X165127781Y-77438134D01*
X165109368Y-77449170D01*
X165089962Y-77458349D01*
X165069750Y-77465581D01*
X165048926Y-77470797D01*
X165027691Y-77473947D01*
X165006250Y-77475000D01*
X164493750Y-77475000D01*
X164472309Y-77473947D01*
X164451074Y-77470797D01*
X164430250Y-77465581D01*
X164410038Y-77458349D01*
X164390632Y-77449170D01*
X164372219Y-77438134D01*
X164354976Y-77425346D01*
X164339070Y-77410930D01*
X164324654Y-77395024D01*
X164311866Y-77377781D01*
X164300830Y-77359368D01*
X164291651Y-77339962D01*
X164284419Y-77319750D01*
X164279203Y-77298926D01*
X164276053Y-77277691D01*
X164275000Y-77256250D01*
X164275000Y-76818750D01*
X164276053Y-76797309D01*
X164279203Y-76776074D01*
X164284419Y-76755250D01*
X164291651Y-76735038D01*
X164300830Y-76715632D01*
X164311866Y-76697219D01*
X164324654Y-76679976D01*
X164339070Y-76664070D01*
X164354976Y-76649654D01*
X164372219Y-76636866D01*
X164390632Y-76625830D01*
X164410038Y-76616651D01*
X164430250Y-76609419D01*
X164451074Y-76604203D01*
X164472309Y-76601053D01*
X164493750Y-76600000D01*
X165006250Y-76600000D01*
X165027691Y-76601053D01*
G37*
G36*
X150202691Y-98026053D02*
G01*
X150223926Y-98029203D01*
X150244750Y-98034419D01*
X150264962Y-98041651D01*
X150284368Y-98050830D01*
X150302781Y-98061866D01*
X150320024Y-98074654D01*
X150335930Y-98089070D01*
X150350346Y-98104976D01*
X150363134Y-98122219D01*
X150374170Y-98140632D01*
X150383349Y-98160038D01*
X150390581Y-98180250D01*
X150395797Y-98201074D01*
X150398947Y-98222309D01*
X150400000Y-98243750D01*
X150400000Y-98756250D01*
X150398947Y-98777691D01*
X150395797Y-98798926D01*
X150390581Y-98819750D01*
X150383349Y-98839962D01*
X150374170Y-98859368D01*
X150363134Y-98877781D01*
X150350346Y-98895024D01*
X150335930Y-98910930D01*
X150320024Y-98925346D01*
X150302781Y-98938134D01*
X150284368Y-98949170D01*
X150264962Y-98958349D01*
X150244750Y-98965581D01*
X150223926Y-98970797D01*
X150202691Y-98973947D01*
X150181250Y-98975000D01*
X149743750Y-98975000D01*
X149722309Y-98973947D01*
X149701074Y-98970797D01*
X149680250Y-98965581D01*
X149660038Y-98958349D01*
X149640632Y-98949170D01*
X149622219Y-98938134D01*
X149604976Y-98925346D01*
X149589070Y-98910930D01*
X149574654Y-98895024D01*
X149561866Y-98877781D01*
X149550830Y-98859368D01*
X149541651Y-98839962D01*
X149534419Y-98819750D01*
X149529203Y-98798926D01*
X149526053Y-98777691D01*
X149525000Y-98756250D01*
X149525000Y-98243750D01*
X149526053Y-98222309D01*
X149529203Y-98201074D01*
X149534419Y-98180250D01*
X149541651Y-98160038D01*
X149550830Y-98140632D01*
X149561866Y-98122219D01*
X149574654Y-98104976D01*
X149589070Y-98089070D01*
X149604976Y-98074654D01*
X149622219Y-98061866D01*
X149640632Y-98050830D01*
X149660038Y-98041651D01*
X149680250Y-98034419D01*
X149701074Y-98029203D01*
X149722309Y-98026053D01*
X149743750Y-98025000D01*
X150181250Y-98025000D01*
X150202691Y-98026053D01*
G37*
G36*
X151777691Y-98026053D02*
G01*
X151798926Y-98029203D01*
X151819750Y-98034419D01*
X151839962Y-98041651D01*
X151859368Y-98050830D01*
X151877781Y-98061866D01*
X151895024Y-98074654D01*
X151910930Y-98089070D01*
X151925346Y-98104976D01*
X151938134Y-98122219D01*
X151949170Y-98140632D01*
X151958349Y-98160038D01*
X151965581Y-98180250D01*
X151970797Y-98201074D01*
X151973947Y-98222309D01*
X151975000Y-98243750D01*
X151975000Y-98756250D01*
X151973947Y-98777691D01*
X151970797Y-98798926D01*
X151965581Y-98819750D01*
X151958349Y-98839962D01*
X151949170Y-98859368D01*
X151938134Y-98877781D01*
X151925346Y-98895024D01*
X151910930Y-98910930D01*
X151895024Y-98925346D01*
X151877781Y-98938134D01*
X151859368Y-98949170D01*
X151839962Y-98958349D01*
X151819750Y-98965581D01*
X151798926Y-98970797D01*
X151777691Y-98973947D01*
X151756250Y-98975000D01*
X151318750Y-98975000D01*
X151297309Y-98973947D01*
X151276074Y-98970797D01*
X151255250Y-98965581D01*
X151235038Y-98958349D01*
X151215632Y-98949170D01*
X151197219Y-98938134D01*
X151179976Y-98925346D01*
X151164070Y-98910930D01*
X151149654Y-98895024D01*
X151136866Y-98877781D01*
X151125830Y-98859368D01*
X151116651Y-98839962D01*
X151109419Y-98819750D01*
X151104203Y-98798926D01*
X151101053Y-98777691D01*
X151100000Y-98756250D01*
X151100000Y-98243750D01*
X151101053Y-98222309D01*
X151104203Y-98201074D01*
X151109419Y-98180250D01*
X151116651Y-98160038D01*
X151125830Y-98140632D01*
X151136866Y-98122219D01*
X151149654Y-98104976D01*
X151164070Y-98089070D01*
X151179976Y-98074654D01*
X151197219Y-98061866D01*
X151215632Y-98050830D01*
X151235038Y-98041651D01*
X151255250Y-98034419D01*
X151276074Y-98029203D01*
X151297309Y-98026053D01*
X151318750Y-98025000D01*
X151756250Y-98025000D01*
X151777691Y-98026053D01*
G37*
D12*
X161250000Y-98650000D03*
X157750000Y-94850000D03*
X157750000Y-98650000D03*
D13*
X151700000Y-95950000D03*
X151700000Y-94050000D03*
X153800000Y-95000000D03*
D11*
G36*
X153952691Y-98026053D02*
G01*
X153973926Y-98029203D01*
X153994750Y-98034419D01*
X154014962Y-98041651D01*
X154034368Y-98050830D01*
X154052781Y-98061866D01*
X154070024Y-98074654D01*
X154085930Y-98089070D01*
X154100346Y-98104976D01*
X154113134Y-98122219D01*
X154124170Y-98140632D01*
X154133349Y-98160038D01*
X154140581Y-98180250D01*
X154145797Y-98201074D01*
X154148947Y-98222309D01*
X154150000Y-98243750D01*
X154150000Y-98756250D01*
X154148947Y-98777691D01*
X154145797Y-98798926D01*
X154140581Y-98819750D01*
X154133349Y-98839962D01*
X154124170Y-98859368D01*
X154113134Y-98877781D01*
X154100346Y-98895024D01*
X154085930Y-98910930D01*
X154070024Y-98925346D01*
X154052781Y-98938134D01*
X154034368Y-98949170D01*
X154014962Y-98958349D01*
X153994750Y-98965581D01*
X153973926Y-98970797D01*
X153952691Y-98973947D01*
X153931250Y-98975000D01*
X153493750Y-98975000D01*
X153472309Y-98973947D01*
X153451074Y-98970797D01*
X153430250Y-98965581D01*
X153410038Y-98958349D01*
X153390632Y-98949170D01*
X153372219Y-98938134D01*
X153354976Y-98925346D01*
X153339070Y-98910930D01*
X153324654Y-98895024D01*
X153311866Y-98877781D01*
X153300830Y-98859368D01*
X153291651Y-98839962D01*
X153284419Y-98819750D01*
X153279203Y-98798926D01*
X153276053Y-98777691D01*
X153275000Y-98756250D01*
X153275000Y-98243750D01*
X153276053Y-98222309D01*
X153279203Y-98201074D01*
X153284419Y-98180250D01*
X153291651Y-98160038D01*
X153300830Y-98140632D01*
X153311866Y-98122219D01*
X153324654Y-98104976D01*
X153339070Y-98089070D01*
X153354976Y-98074654D01*
X153372219Y-98061866D01*
X153390632Y-98050830D01*
X153410038Y-98041651D01*
X153430250Y-98034419D01*
X153451074Y-98029203D01*
X153472309Y-98026053D01*
X153493750Y-98025000D01*
X153931250Y-98025000D01*
X153952691Y-98026053D01*
G37*
G36*
X155527691Y-98026053D02*
G01*
X155548926Y-98029203D01*
X155569750Y-98034419D01*
X155589962Y-98041651D01*
X155609368Y-98050830D01*
X155627781Y-98061866D01*
X155645024Y-98074654D01*
X155660930Y-98089070D01*
X155675346Y-98104976D01*
X155688134Y-98122219D01*
X155699170Y-98140632D01*
X155708349Y-98160038D01*
X155715581Y-98180250D01*
X155720797Y-98201074D01*
X155723947Y-98222309D01*
X155725000Y-98243750D01*
X155725000Y-98756250D01*
X155723947Y-98777691D01*
X155720797Y-98798926D01*
X155715581Y-98819750D01*
X155708349Y-98839962D01*
X155699170Y-98859368D01*
X155688134Y-98877781D01*
X155675346Y-98895024D01*
X155660930Y-98910930D01*
X155645024Y-98925346D01*
X155627781Y-98938134D01*
X155609368Y-98949170D01*
X155589962Y-98958349D01*
X155569750Y-98965581D01*
X155548926Y-98970797D01*
X155527691Y-98973947D01*
X155506250Y-98975000D01*
X155068750Y-98975000D01*
X155047309Y-98973947D01*
X155026074Y-98970797D01*
X155005250Y-98965581D01*
X154985038Y-98958349D01*
X154965632Y-98949170D01*
X154947219Y-98938134D01*
X154929976Y-98925346D01*
X154914070Y-98910930D01*
X154899654Y-98895024D01*
X154886866Y-98877781D01*
X154875830Y-98859368D01*
X154866651Y-98839962D01*
X154859419Y-98819750D01*
X154854203Y-98798926D01*
X154851053Y-98777691D01*
X154850000Y-98756250D01*
X154850000Y-98243750D01*
X154851053Y-98222309D01*
X154854203Y-98201074D01*
X154859419Y-98180250D01*
X154866651Y-98160038D01*
X154875830Y-98140632D01*
X154886866Y-98122219D01*
X154899654Y-98104976D01*
X154914070Y-98089070D01*
X154929976Y-98074654D01*
X154947219Y-98061866D01*
X154965632Y-98050830D01*
X154985038Y-98041651D01*
X155005250Y-98034419D01*
X155026074Y-98029203D01*
X155047309Y-98026053D01*
X155068750Y-98025000D01*
X155506250Y-98025000D01*
X155527691Y-98026053D01*
G37*
G36*
X169027691Y-75026053D02*
G01*
X169048926Y-75029203D01*
X169069750Y-75034419D01*
X169089962Y-75041651D01*
X169109368Y-75050830D01*
X169127781Y-75061866D01*
X169145024Y-75074654D01*
X169160930Y-75089070D01*
X169175346Y-75104976D01*
X169188134Y-75122219D01*
X169199170Y-75140632D01*
X169208349Y-75160038D01*
X169215581Y-75180250D01*
X169220797Y-75201074D01*
X169223947Y-75222309D01*
X169225000Y-75243750D01*
X169225000Y-75681250D01*
X169223947Y-75702691D01*
X169220797Y-75723926D01*
X169215581Y-75744750D01*
X169208349Y-75764962D01*
X169199170Y-75784368D01*
X169188134Y-75802781D01*
X169175346Y-75820024D01*
X169160930Y-75835930D01*
X169145024Y-75850346D01*
X169127781Y-75863134D01*
X169109368Y-75874170D01*
X169089962Y-75883349D01*
X169069750Y-75890581D01*
X169048926Y-75895797D01*
X169027691Y-75898947D01*
X169006250Y-75900000D01*
X168493750Y-75900000D01*
X168472309Y-75898947D01*
X168451074Y-75895797D01*
X168430250Y-75890581D01*
X168410038Y-75883349D01*
X168390632Y-75874170D01*
X168372219Y-75863134D01*
X168354976Y-75850346D01*
X168339070Y-75835930D01*
X168324654Y-75820024D01*
X168311866Y-75802781D01*
X168300830Y-75784368D01*
X168291651Y-75764962D01*
X168284419Y-75744750D01*
X168279203Y-75723926D01*
X168276053Y-75702691D01*
X168275000Y-75681250D01*
X168275000Y-75243750D01*
X168276053Y-75222309D01*
X168279203Y-75201074D01*
X168284419Y-75180250D01*
X168291651Y-75160038D01*
X168300830Y-75140632D01*
X168311866Y-75122219D01*
X168324654Y-75104976D01*
X168339070Y-75089070D01*
X168354976Y-75074654D01*
X168372219Y-75061866D01*
X168390632Y-75050830D01*
X168410038Y-75041651D01*
X168430250Y-75034419D01*
X168451074Y-75029203D01*
X168472309Y-75026053D01*
X168493750Y-75025000D01*
X169006250Y-75025000D01*
X169027691Y-75026053D01*
G37*
G36*
X169027691Y-76601053D02*
G01*
X169048926Y-76604203D01*
X169069750Y-76609419D01*
X169089962Y-76616651D01*
X169109368Y-76625830D01*
X169127781Y-76636866D01*
X169145024Y-76649654D01*
X169160930Y-76664070D01*
X169175346Y-76679976D01*
X169188134Y-76697219D01*
X169199170Y-76715632D01*
X169208349Y-76735038D01*
X169215581Y-76755250D01*
X169220797Y-76776074D01*
X169223947Y-76797309D01*
X169225000Y-76818750D01*
X169225000Y-77256250D01*
X169223947Y-77277691D01*
X169220797Y-77298926D01*
X169215581Y-77319750D01*
X169208349Y-77339962D01*
X169199170Y-77359368D01*
X169188134Y-77377781D01*
X169175346Y-77395024D01*
X169160930Y-77410930D01*
X169145024Y-77425346D01*
X169127781Y-77438134D01*
X169109368Y-77449170D01*
X169089962Y-77458349D01*
X169069750Y-77465581D01*
X169048926Y-77470797D01*
X169027691Y-77473947D01*
X169006250Y-77475000D01*
X168493750Y-77475000D01*
X168472309Y-77473947D01*
X168451074Y-77470797D01*
X168430250Y-77465581D01*
X168410038Y-77458349D01*
X168390632Y-77449170D01*
X168372219Y-77438134D01*
X168354976Y-77425346D01*
X168339070Y-77410930D01*
X168324654Y-77395024D01*
X168311866Y-77377781D01*
X168300830Y-77359368D01*
X168291651Y-77339962D01*
X168284419Y-77319750D01*
X168279203Y-77298926D01*
X168276053Y-77277691D01*
X168275000Y-77256250D01*
X168275000Y-76818750D01*
X168276053Y-76797309D01*
X168279203Y-76776074D01*
X168284419Y-76755250D01*
X168291651Y-76735038D01*
X168300830Y-76715632D01*
X168311866Y-76697219D01*
X168324654Y-76679976D01*
X168339070Y-76664070D01*
X168354976Y-76649654D01*
X168372219Y-76636866D01*
X168390632Y-76625830D01*
X168410038Y-76616651D01*
X168430250Y-76609419D01*
X168451074Y-76604203D01*
X168472309Y-76601053D01*
X168493750Y-76600000D01*
X169006250Y-76600000D01*
X169027691Y-76601053D01*
G37*
D14*
X153800000Y-64750000D03*
X165200000Y-64750000D03*
X165200000Y-70250000D03*
X153800000Y-70250000D03*
D15*
X156325000Y-64750000D03*
X157595000Y-64750000D03*
X158865000Y-64750000D03*
X162675000Y-70250000D03*
X161405000Y-70250000D03*
X156325000Y-70250000D03*
X160135000Y-64750000D03*
X161405000Y-64750000D03*
X162675000Y-64750000D03*
X157595000Y-70250000D03*
X158865000Y-70250000D03*
X160135000Y-70250000D03*
M02*
