G04 #@! TF.GenerationSoftware,KiCad,Pcbnew,(5.1.9-0-10_14)*
G04 #@! TF.CreationDate,2021-05-06T16:16:17-07:00*
G04 #@! TF.ProjectId,Luminometer_RPi,4c756d69-6e6f-46d6-9574-65725f525069,rev?*
G04 #@! TF.SameCoordinates,Original*
G04 #@! TF.FileFunction,Copper,L4,Bot*
G04 #@! TF.FilePolarity,Positive*
%FSLAX46Y46*%
G04 Gerber Fmt 4.6, Leading zero omitted, Abs format (unit mm)*
G04 Created by KiCad (PCBNEW (5.1.9-0-10_14)) date 2021-05-06 16:16:17*
%MOMM*%
%LPD*%
G01*
G04 APERTURE LIST*
G04 #@! TA.AperFunction,Profile*
%ADD10C,0.150000*%
G04 #@! TD*
G04 #@! TA.AperFunction,ComponentPad*
%ADD11C,5.000000*%
G04 #@! TD*
G04 #@! TA.AperFunction,ConnectorPad*
%ADD12C,4.500000*%
G04 #@! TD*
G04 #@! TA.AperFunction,ComponentPad*
%ADD13C,3.100000*%
G04 #@! TD*
G04 #@! TA.AperFunction,SMDPad,CuDef*
%ADD14R,1.200000X2.500000*%
G04 #@! TD*
G04 #@! TA.AperFunction,SMDPad,CuDef*
%ADD15R,0.800000X1.100000*%
G04 #@! TD*
G04 #@! TA.AperFunction,ComponentPad*
%ADD16C,0.380000*%
G04 #@! TD*
G04 #@! TA.AperFunction,SMDPad,CuDef*
%ADD17R,3.400000X5.000000*%
G04 #@! TD*
G04 #@! TA.AperFunction,ComponentPad*
%ADD18C,1.778000*%
G04 #@! TD*
G04 #@! TA.AperFunction,ComponentPad*
%ADD19C,2.540000*%
G04 #@! TD*
G04 #@! TA.AperFunction,ComponentPad*
%ADD20O,1.400000X0.900000*%
G04 #@! TD*
G04 #@! TA.AperFunction,ConnectorPad*
%ADD21C,4.400000*%
G04 #@! TD*
G04 #@! TA.AperFunction,ComponentPad*
%ADD22C,2.600000*%
G04 #@! TD*
G04 #@! TA.AperFunction,ComponentPad*
%ADD23O,0.900000X1.400000*%
G04 #@! TD*
G04 #@! TA.AperFunction,ComponentPad*
%ADD24O,1.700000X1.700000*%
G04 #@! TD*
G04 #@! TA.AperFunction,ComponentPad*
%ADD25R,1.700000X1.700000*%
G04 #@! TD*
G04 #@! TA.AperFunction,ComponentPad*
%ADD26C,1.320800*%
G04 #@! TD*
G04 #@! TA.AperFunction,SMDPad,CuDef*
%ADD27R,1.300000X0.600000*%
G04 #@! TD*
G04 #@! TA.AperFunction,SMDPad,CuDef*
%ADD28R,2.650000X2.500000*%
G04 #@! TD*
G04 #@! TA.AperFunction,ViaPad*
%ADD29C,0.400000*%
G04 #@! TD*
G04 #@! TA.AperFunction,Conductor*
%ADD30C,0.250000*%
G04 #@! TD*
G04 #@! TA.AperFunction,Conductor*
%ADD31C,0.200000*%
G04 #@! TD*
G04 #@! TA.AperFunction,Conductor*
%ADD32C,0.500000*%
G04 #@! TD*
G04 #@! TA.AperFunction,Conductor*
%ADD33C,1.000000*%
G04 #@! TD*
G04 #@! TA.AperFunction,Conductor*
%ADD34C,0.254000*%
G04 #@! TD*
G04 #@! TA.AperFunction,Conductor*
%ADD35C,0.100000*%
G04 #@! TD*
G04 APERTURE END LIST*
D10*
X178000000Y-71250000D02*
G75*
G02*
X181000000Y-74250000I0J-3000000D01*
G01*
X181000000Y-74250000D02*
X180989637Y-108750000D01*
X174500000Y-71250000D02*
X178000000Y-71250000D01*
X174500000Y-71250000D02*
G75*
G02*
X171500000Y-68250000I0J3000000D01*
G01*
X171500000Y-64500000D02*
X171500000Y-68250000D01*
X168500000Y-61500000D02*
G75*
G02*
X171500000Y-64500000I0J-3000000D01*
G01*
X108750000Y-111500000D02*
G75*
G02*
X105750000Y-108500000I0J3000000D01*
G01*
X180989637Y-108749136D02*
G75*
G02*
X178000000Y-111500000I-2989637J249136D01*
G01*
X105750000Y-64500000D02*
G75*
G02*
X108750000Y-61500000I3000000J0D01*
G01*
X105750000Y-108500000D02*
X105750000Y-64500000D01*
X178000000Y-111500000D02*
X108750000Y-111500000D01*
X108750000Y-61500000D02*
X168500000Y-61500000D01*
D11*
X168000000Y-108000000D03*
X110000000Y-108000000D03*
X110000000Y-65000000D03*
D12*
X139000000Y-96500000D03*
D13*
X139000000Y-96500000D03*
D14*
X153800000Y-64750000D03*
X165200000Y-64750000D03*
X165200000Y-70250000D03*
X153800000Y-70250000D03*
D15*
X156325000Y-64750000D03*
X157595000Y-64750000D03*
X158865000Y-64750000D03*
X162675000Y-70250000D03*
X161405000Y-70250000D03*
X156325000Y-70250000D03*
X160135000Y-64750000D03*
X161405000Y-64750000D03*
X162675000Y-64750000D03*
X157595000Y-70250000D03*
X158865000Y-70250000D03*
X160135000Y-70250000D03*
G04 #@! TA.AperFunction,SMDPad,CuDef*
G36*
G01*
X150775000Y-63575000D02*
X150225000Y-63575000D01*
G75*
G02*
X150025000Y-63375000I0J200000D01*
G01*
X150025000Y-62975000D01*
G75*
G02*
X150225000Y-62775000I200000J0D01*
G01*
X150775000Y-62775000D01*
G75*
G02*
X150975000Y-62975000I0J-200000D01*
G01*
X150975000Y-63375000D01*
G75*
G02*
X150775000Y-63575000I-200000J0D01*
G01*
G37*
G04 #@! TD.AperFunction*
G04 #@! TA.AperFunction,SMDPad,CuDef*
G36*
G01*
X150775000Y-65225000D02*
X150225000Y-65225000D01*
G75*
G02*
X150025000Y-65025000I0J200000D01*
G01*
X150025000Y-64625000D01*
G75*
G02*
X150225000Y-64425000I200000J0D01*
G01*
X150775000Y-64425000D01*
G75*
G02*
X150975000Y-64625000I0J-200000D01*
G01*
X150975000Y-65025000D01*
G75*
G02*
X150775000Y-65225000I-200000J0D01*
G01*
G37*
G04 #@! TD.AperFunction*
D16*
X125525000Y-99050000D03*
X125525000Y-97550000D03*
X125525000Y-96050000D03*
X127025000Y-99050000D03*
X127025000Y-97550000D03*
X127025000Y-96050000D03*
D17*
X126275000Y-97550000D03*
D18*
X108000000Y-77250000D03*
X108000000Y-72750000D03*
D19*
X110500000Y-78500000D03*
X110500000Y-71500000D03*
D18*
X108000000Y-89250000D03*
X108000000Y-84750000D03*
D19*
X110500000Y-90500000D03*
X110500000Y-83500000D03*
D18*
X108000000Y-101250000D03*
X108000000Y-96750000D03*
D19*
X110500000Y-102500000D03*
X110500000Y-95500000D03*
D20*
X116000000Y-94500000D03*
G04 #@! TA.AperFunction,ComponentPad*
G36*
G01*
X115525000Y-92800000D02*
X116475000Y-92800000D01*
G75*
G02*
X116700000Y-93025000I0J-225000D01*
G01*
X116700000Y-93475000D01*
G75*
G02*
X116475000Y-93700000I-225000J0D01*
G01*
X115525000Y-93700000D01*
G75*
G02*
X115300000Y-93475000I0J225000D01*
G01*
X115300000Y-93025000D01*
G75*
G02*
X115525000Y-92800000I225000J0D01*
G01*
G37*
G04 #@! TD.AperFunction*
X117000000Y-100000000D03*
G04 #@! TA.AperFunction,ComponentPad*
G36*
G01*
X117475000Y-101700000D02*
X116525000Y-101700000D01*
G75*
G02*
X116300000Y-101475000I0J225000D01*
G01*
X116300000Y-101025000D01*
G75*
G02*
X116525000Y-100800000I225000J0D01*
G01*
X117475000Y-100800000D01*
G75*
G02*
X117700000Y-101025000I0J-225000D01*
G01*
X117700000Y-101475000D01*
G75*
G02*
X117475000Y-101700000I-225000J0D01*
G01*
G37*
G04 #@! TD.AperFunction*
D21*
X135000000Y-69500000D03*
D22*
X135000000Y-69500000D03*
D21*
X143000000Y-69500000D03*
D22*
X143000000Y-69500000D03*
G04 #@! TA.AperFunction,SMDPad,CuDef*
G36*
G01*
X175075000Y-84725000D02*
X175075000Y-85275000D01*
G75*
G02*
X174875000Y-85475000I-200000J0D01*
G01*
X174475000Y-85475000D01*
G75*
G02*
X174275000Y-85275000I0J200000D01*
G01*
X174275000Y-84725000D01*
G75*
G02*
X174475000Y-84525000I200000J0D01*
G01*
X174875000Y-84525000D01*
G75*
G02*
X175075000Y-84725000I0J-200000D01*
G01*
G37*
G04 #@! TD.AperFunction*
G04 #@! TA.AperFunction,SMDPad,CuDef*
G36*
G01*
X176725000Y-84725000D02*
X176725000Y-85275000D01*
G75*
G02*
X176525000Y-85475000I-200000J0D01*
G01*
X176125000Y-85475000D01*
G75*
G02*
X175925000Y-85275000I0J200000D01*
G01*
X175925000Y-84725000D01*
G75*
G02*
X176125000Y-84525000I200000J0D01*
G01*
X176525000Y-84525000D01*
G75*
G02*
X176725000Y-84725000I0J-200000D01*
G01*
G37*
G04 #@! TD.AperFunction*
G04 #@! TA.AperFunction,SMDPad,CuDef*
G36*
G01*
X175925000Y-83525000D02*
X175925000Y-82975000D01*
G75*
G02*
X176125000Y-82775000I200000J0D01*
G01*
X176525000Y-82775000D01*
G75*
G02*
X176725000Y-82975000I0J-200000D01*
G01*
X176725000Y-83525000D01*
G75*
G02*
X176525000Y-83725000I-200000J0D01*
G01*
X176125000Y-83725000D01*
G75*
G02*
X175925000Y-83525000I0J200000D01*
G01*
G37*
G04 #@! TD.AperFunction*
G04 #@! TA.AperFunction,SMDPad,CuDef*
G36*
G01*
X174275000Y-83525000D02*
X174275000Y-82975000D01*
G75*
G02*
X174475000Y-82775000I200000J0D01*
G01*
X174875000Y-82775000D01*
G75*
G02*
X175075000Y-82975000I0J-200000D01*
G01*
X175075000Y-83525000D01*
G75*
G02*
X174875000Y-83725000I-200000J0D01*
G01*
X174475000Y-83725000D01*
G75*
G02*
X174275000Y-83525000I0J200000D01*
G01*
G37*
G04 #@! TD.AperFunction*
D23*
X151250000Y-107750000D03*
G04 #@! TA.AperFunction,ComponentPad*
G36*
G01*
X152950000Y-107275000D02*
X152950000Y-108225000D01*
G75*
G02*
X152725000Y-108450000I-225000J0D01*
G01*
X152275000Y-108450000D01*
G75*
G02*
X152050000Y-108225000I0J225000D01*
G01*
X152050000Y-107275000D01*
G75*
G02*
X152275000Y-107050000I225000J0D01*
G01*
X152725000Y-107050000D01*
G75*
G02*
X152950000Y-107275000I0J-225000D01*
G01*
G37*
G04 #@! TD.AperFunction*
D24*
X177000000Y-105030000D03*
X177000000Y-102490000D03*
X177000000Y-99950000D03*
X177000000Y-97410000D03*
X177000000Y-94870000D03*
X177000000Y-92330000D03*
X177000000Y-89790000D03*
D25*
X177000000Y-87250000D03*
D26*
X178330000Y-74170000D03*
X178330000Y-79250000D03*
X173250000Y-74170000D03*
X173250000Y-76710000D03*
X173250000Y-79250000D03*
D27*
X158950000Y-76950000D03*
X158950000Y-75050000D03*
X161050000Y-76000000D03*
D23*
X160000000Y-107750000D03*
G04 #@! TA.AperFunction,ComponentPad*
G36*
G01*
X161700000Y-107275000D02*
X161700000Y-108225000D01*
G75*
G02*
X161475000Y-108450000I-225000J0D01*
G01*
X161025000Y-108450000D01*
G75*
G02*
X160800000Y-108225000I0J225000D01*
G01*
X160800000Y-107275000D01*
G75*
G02*
X161025000Y-107050000I225000J0D01*
G01*
X161475000Y-107050000D01*
G75*
G02*
X161700000Y-107275000I0J-225000D01*
G01*
G37*
G04 #@! TD.AperFunction*
X166250000Y-75500000D03*
G04 #@! TA.AperFunction,ComponentPad*
G36*
G01*
X167950000Y-75025000D02*
X167950000Y-75975000D01*
G75*
G02*
X167725000Y-76200000I-225000J0D01*
G01*
X167275000Y-76200000D01*
G75*
G02*
X167050000Y-75975000I0J225000D01*
G01*
X167050000Y-75025000D01*
G75*
G02*
X167275000Y-74800000I225000J0D01*
G01*
X167725000Y-74800000D01*
G75*
G02*
X167950000Y-75025000I0J-225000D01*
G01*
G37*
G04 #@! TD.AperFunction*
D28*
X129825000Y-105800000D03*
X121475000Y-105800000D03*
G04 #@! TA.AperFunction,SMDPad,CuDef*
G36*
G01*
X156225000Y-78925000D02*
X156775000Y-78925000D01*
G75*
G02*
X156975000Y-79125000I0J-200000D01*
G01*
X156975000Y-79525000D01*
G75*
G02*
X156775000Y-79725000I-200000J0D01*
G01*
X156225000Y-79725000D01*
G75*
G02*
X156025000Y-79525000I0J200000D01*
G01*
X156025000Y-79125000D01*
G75*
G02*
X156225000Y-78925000I200000J0D01*
G01*
G37*
G04 #@! TD.AperFunction*
G04 #@! TA.AperFunction,SMDPad,CuDef*
G36*
G01*
X156225000Y-77275000D02*
X156775000Y-77275000D01*
G75*
G02*
X156975000Y-77475000I0J-200000D01*
G01*
X156975000Y-77875000D01*
G75*
G02*
X156775000Y-78075000I-200000J0D01*
G01*
X156225000Y-78075000D01*
G75*
G02*
X156025000Y-77875000I0J200000D01*
G01*
X156025000Y-77475000D01*
G75*
G02*
X156225000Y-77275000I200000J0D01*
G01*
G37*
G04 #@! TD.AperFunction*
D24*
X163133000Y-83724400D03*
X163133000Y-86264400D03*
X145353000Y-83724400D03*
X145353000Y-86264400D03*
X140273000Y-83724400D03*
X140273000Y-86264400D03*
X150433000Y-83724400D03*
X150433000Y-86264400D03*
X122493000Y-83724400D03*
X122493000Y-86264400D03*
X152973000Y-83724400D03*
X152973000Y-86264400D03*
X135193000Y-83724400D03*
X135193000Y-86264400D03*
X158053000Y-83724400D03*
X158053000Y-86264400D03*
X155513000Y-83724400D03*
X155513000Y-86264400D03*
X160593000Y-83724400D03*
X160593000Y-86264400D03*
X137733000Y-83724400D03*
X137733000Y-86264400D03*
X125033000Y-83724400D03*
X125033000Y-86264400D03*
X130113000Y-83724400D03*
X130113000Y-86264400D03*
X147893000Y-83724400D03*
X147893000Y-86264400D03*
X127573000Y-83724400D03*
X127573000Y-86264400D03*
X142813000Y-83724400D03*
X142813000Y-86264400D03*
D25*
X114873000Y-86264400D03*
D24*
X114873000Y-83724400D03*
X119953000Y-86264400D03*
X117413000Y-83724400D03*
X132653000Y-83724400D03*
X132653000Y-86264400D03*
X117413000Y-86264400D03*
X119953000Y-83724400D03*
D12*
X130000000Y-74500000D03*
D13*
X130000000Y-74500000D03*
D12*
X148000000Y-74500000D03*
D13*
X148000000Y-74500000D03*
D29*
X160000000Y-71750000D03*
X158250000Y-72000000D03*
X157000000Y-72000000D03*
X155500000Y-72000000D03*
X151450000Y-99000000D03*
X150700000Y-99000000D03*
X149950000Y-99000000D03*
X149950000Y-98250000D03*
X150700000Y-98250000D03*
X151450000Y-98250000D03*
X165850000Y-98550000D03*
X164950000Y-98550000D03*
X164150000Y-98550000D03*
X164150000Y-97850000D03*
X164950000Y-97850000D03*
X165850000Y-97850000D03*
X134900000Y-63700000D03*
X143500000Y-63700000D03*
X160500000Y-66500000D03*
X158750000Y-76000000D03*
X126900000Y-106050000D03*
X122100000Y-95250000D03*
X134100000Y-107100000D03*
X122000000Y-97200000D03*
X121450000Y-95950000D03*
X122000000Y-97900000D03*
X121950000Y-99200000D03*
X123400000Y-106050000D03*
X134450000Y-98450000D03*
X173100000Y-85400000D03*
X172500000Y-84850000D03*
X173700000Y-85400000D03*
X173700000Y-84850000D03*
X173100000Y-84850000D03*
X172500000Y-85400000D03*
X168250000Y-92900000D03*
X132400000Y-105700000D03*
X154200000Y-92900000D03*
X153600000Y-92900000D03*
X154800000Y-92900000D03*
X167700000Y-92900000D03*
X168800000Y-92900000D03*
X150500000Y-66300000D03*
X121950000Y-99900000D03*
X156750000Y-66000000D03*
X156250000Y-66000000D03*
X155750000Y-66000000D03*
X147450000Y-98250000D03*
X152200000Y-95650000D03*
X130400000Y-100250000D03*
X130400000Y-95050000D03*
X166550000Y-95550000D03*
X162150000Y-98450000D03*
X157700000Y-92000000D03*
X160850000Y-95650000D03*
X147100000Y-95900000D03*
X135400000Y-90800000D03*
X130400000Y-95950000D03*
X130350000Y-99400000D03*
D30*
X162675000Y-70515002D02*
X162675000Y-70250000D01*
X160915001Y-72275001D02*
X162675000Y-70515002D01*
X159224999Y-72275001D02*
X160915001Y-72275001D01*
X151750000Y-79750000D02*
X159224999Y-72275001D01*
D31*
X145353000Y-83724400D02*
X147077400Y-82000000D01*
X149500000Y-82000000D02*
X151750000Y-79750000D01*
X147077400Y-82000000D02*
X149500000Y-82000000D01*
D30*
X160705000Y-71750000D02*
X160000000Y-71750000D01*
X161405000Y-71050000D02*
X160705000Y-71750000D01*
X161405000Y-70250000D02*
X161405000Y-71050000D01*
X160135000Y-70515002D02*
X160135000Y-70250000D01*
X158650002Y-72000000D02*
X160135000Y-70515002D01*
X158250000Y-72000000D02*
X158650002Y-72000000D01*
X157265000Y-72000000D02*
X157000000Y-72000000D01*
X158865000Y-70400000D02*
X157265000Y-72000000D01*
X158865000Y-70250000D02*
X158865000Y-70400000D01*
X155995000Y-72000000D02*
X155500000Y-72000000D01*
X157595000Y-70400000D02*
X155995000Y-72000000D01*
X157595000Y-70250000D02*
X157595000Y-70400000D01*
X123668001Y-85089399D02*
X122493000Y-86264400D01*
X123750000Y-83350397D02*
X123668001Y-85089399D01*
X127500000Y-78250000D02*
X123750000Y-83350397D01*
X148250000Y-78250000D02*
X127500000Y-78250000D01*
X156235002Y-70250000D02*
X148250000Y-78250000D01*
X156325000Y-70250000D02*
X156235002Y-70250000D01*
D32*
X161405000Y-63405000D02*
X161405000Y-64750000D01*
X161049999Y-63049999D02*
X161405000Y-63405000D01*
X152839999Y-63049999D02*
X161049999Y-63049999D01*
X152677498Y-63212500D02*
X152839999Y-63049999D01*
X150500000Y-63212500D02*
X152677498Y-63212500D01*
X158950000Y-75800000D02*
X158750000Y-76000000D01*
X158950000Y-75050000D02*
X158950000Y-75800000D01*
D30*
X158175000Y-76000000D02*
X158750000Y-76000000D01*
X156500000Y-77675000D02*
X158175000Y-76000000D01*
X131477999Y-84899401D02*
X132653000Y-83724400D01*
X122866402Y-95250000D02*
X131477999Y-86638403D01*
X131477999Y-86638403D02*
X131477999Y-84899401D01*
X122100000Y-95250000D02*
X122866402Y-95250000D01*
X133900001Y-106900001D02*
X134100000Y-107100000D01*
X139097999Y-84899401D02*
X139097999Y-91924999D01*
X133900001Y-97122997D02*
X133900001Y-106900001D01*
X139097999Y-91924999D02*
X133900001Y-97122997D01*
X140273000Y-83724400D02*
X139097999Y-84899401D01*
X156650000Y-79175000D02*
X156500000Y-79325000D01*
X159250000Y-77250000D02*
X158950000Y-76950000D01*
X159250000Y-79175000D02*
X159250000Y-77250000D01*
X160593000Y-80518000D02*
X159250000Y-79175000D01*
X160593000Y-83724400D02*
X160593000Y-80518000D01*
X159100000Y-79325000D02*
X159250000Y-79175000D01*
X156500000Y-79325000D02*
X159100000Y-79325000D01*
D32*
X161550000Y-75500000D02*
X161050000Y-76000000D01*
X166250000Y-75500000D02*
X161550000Y-75500000D01*
D30*
X179500000Y-96000000D02*
X177000000Y-97410000D01*
X179500000Y-83000000D02*
X179500000Y-96000000D01*
X175750000Y-79250000D02*
X173250000Y-79250000D01*
X179500000Y-83000000D02*
X175750000Y-79250000D01*
D32*
X123150000Y-105800000D02*
X123400000Y-106050000D01*
X121475000Y-105800000D02*
X123150000Y-105800000D01*
D33*
X129900000Y-105875000D02*
X129825000Y-105800000D01*
D32*
X129900000Y-105725000D02*
X129825000Y-105800000D01*
X132300000Y-105800000D02*
X132400000Y-105700000D01*
X129825000Y-105800000D02*
X132300000Y-105800000D01*
X150500000Y-66300000D02*
X150500000Y-64787500D01*
D33*
X162675000Y-63075000D02*
X162675000Y-64750000D01*
X163250000Y-62500000D02*
X162675000Y-63075000D01*
X169250000Y-65689998D02*
X166500000Y-62500000D01*
X166500000Y-62500000D02*
X163250000Y-62500000D01*
X174675000Y-83250000D02*
X173250000Y-83250000D01*
X173250000Y-83250000D02*
X171250000Y-81250000D01*
X171250000Y-70566554D02*
X171133891Y-70383891D01*
X171250000Y-81250000D02*
X171250000Y-70566554D01*
X169250000Y-68500000D02*
X169250000Y-65689998D01*
X171133891Y-70383891D02*
X169250000Y-68500000D01*
D30*
X121128001Y-85089399D02*
X121128001Y-88528001D01*
X122493000Y-83724400D02*
X121128001Y-85089399D01*
X121667158Y-99900000D02*
X121950000Y-99900000D01*
X120924999Y-88731003D02*
X120924999Y-99157841D01*
X120924999Y-99157841D02*
X121667158Y-99900000D01*
X121128001Y-88528001D02*
X120924999Y-88731003D01*
D32*
X156325000Y-64750000D02*
X157595000Y-64750000D01*
X157595000Y-64750000D02*
X158865000Y-64750000D01*
X158865000Y-64750000D02*
X160135000Y-64750000D01*
D30*
X134017999Y-84899401D02*
X134017999Y-91432001D01*
X134017999Y-91432001D02*
X130400000Y-95050000D01*
X135193000Y-83724400D02*
X134017999Y-84899401D01*
D31*
X130400000Y-95050000D02*
X129200000Y-96250000D01*
X129200000Y-99050000D02*
X130400000Y-100250000D01*
X129200000Y-96250000D02*
X129200000Y-99050000D01*
D30*
X154575001Y-95124999D02*
X157700000Y-92000000D01*
X147875001Y-95124999D02*
X154575001Y-95124999D01*
X147100000Y-95900000D02*
X147875001Y-95124999D01*
X157700000Y-92500000D02*
X160850000Y-95650000D01*
X157700000Y-92000000D02*
X157700000Y-92500000D01*
X130400000Y-95800000D02*
X130400000Y-95950000D01*
X135400000Y-90800000D02*
X130400000Y-95800000D01*
X130400000Y-99350000D02*
X130350000Y-99400000D01*
D31*
X130350000Y-96000000D02*
X130400000Y-95950000D01*
X130350000Y-99400000D02*
X130350000Y-96000000D01*
D34*
X178373000Y-88373000D02*
X175877000Y-88373000D01*
X175877000Y-82627000D01*
X178373000Y-82627000D01*
X178373000Y-88373000D01*
G04 #@! TA.AperFunction,Conductor*
D35*
G36*
X178373000Y-88373000D02*
G01*
X175877000Y-88373000D01*
X175877000Y-82627000D01*
X178373000Y-82627000D01*
X178373000Y-88373000D01*
G37*
G04 #@! TD.AperFunction*
D34*
X175123000Y-85623000D02*
X172377000Y-85623000D01*
X172377000Y-84377000D01*
X175123000Y-84377000D01*
X175123000Y-85623000D01*
G04 #@! TA.AperFunction,Conductor*
D35*
G36*
X175123000Y-85623000D02*
G01*
X172377000Y-85623000D01*
X172377000Y-84377000D01*
X175123000Y-84377000D01*
X175123000Y-85623000D01*
G37*
G04 #@! TD.AperFunction*
D34*
X160373000Y-65373000D02*
X157000000Y-65373000D01*
X156975224Y-65375440D01*
X156951399Y-65382667D01*
X156929443Y-65394403D01*
X156910197Y-65410197D01*
X156894403Y-65429443D01*
X156882667Y-65451399D01*
X156875440Y-65475224D01*
X156873000Y-65500000D01*
X156873000Y-66373000D01*
X155377000Y-66373000D01*
X155377000Y-64127000D01*
X160373000Y-64127000D01*
X160373000Y-65373000D01*
G04 #@! TA.AperFunction,Conductor*
D35*
G36*
X160373000Y-65373000D02*
G01*
X157000000Y-65373000D01*
X156975224Y-65375440D01*
X156951399Y-65382667D01*
X156929443Y-65394403D01*
X156910197Y-65410197D01*
X156894403Y-65429443D01*
X156882667Y-65451399D01*
X156875440Y-65475224D01*
X156873000Y-65500000D01*
X156873000Y-66373000D01*
X155377000Y-66373000D01*
X155377000Y-64127000D01*
X160373000Y-64127000D01*
X160373000Y-65373000D01*
G37*
G04 #@! TD.AperFunction*
M02*
