G04 #@! TF.GenerationSoftware,KiCad,Pcbnew,(5.1.9-0-10_14)*
G04 #@! TF.CreationDate,2021-05-06T17:38:12-07:00*
G04 #@! TF.ProjectId,Luminometer_ADC,4c756d69-6e6f-46d6-9574-65725f414443,rev?*
G04 #@! TF.SameCoordinates,Original*
G04 #@! TF.FileFunction,Legend,Bot*
G04 #@! TF.FilePolarity,Positive*
%FSLAX46Y46*%
G04 Gerber Fmt 4.6, Leading zero omitted, Abs format (unit mm)*
G04 Created by KiCad (PCBNEW (5.1.9-0-10_14)) date 2021-05-06 17:38:12*
%MOMM*%
%LPD*%
G01*
G04 APERTURE LIST*
%ADD10C,0.120000*%
%ADD11C,0.100000*%
%ADD12C,0.010000*%
%ADD13C,0.150000*%
G04 APERTURE END LIST*
D10*
X122050000Y-116350000D02*
X123450000Y-117050000D01*
X123450000Y-118050000D02*
X121950000Y-118550000D01*
X124750000Y-119050000D02*
X124750000Y-120565475D01*
X126050000Y-118050000D02*
X127550000Y-118550000D01*
X126050000Y-117050000D02*
X127350000Y-116350000D01*
D11*
X148625476Y-100107142D02*
X148673095Y-100154761D01*
X148815952Y-100202380D01*
X148911190Y-100202380D01*
X149054047Y-100154761D01*
X149149285Y-100059523D01*
X149196904Y-99964285D01*
X149244523Y-99773809D01*
X149244523Y-99630952D01*
X149196904Y-99440476D01*
X149149285Y-99345238D01*
X149054047Y-99250000D01*
X148911190Y-99202380D01*
X148815952Y-99202380D01*
X148673095Y-99250000D01*
X148625476Y-99297619D01*
X147768333Y-100202380D02*
X147768333Y-99678571D01*
X147815952Y-99583333D01*
X147911190Y-99535714D01*
X148101666Y-99535714D01*
X148196904Y-99583333D01*
X147768333Y-100154761D02*
X147863571Y-100202380D01*
X148101666Y-100202380D01*
X148196904Y-100154761D01*
X148244523Y-100059523D01*
X148244523Y-99964285D01*
X148196904Y-99869047D01*
X148101666Y-99821428D01*
X147863571Y-99821428D01*
X147768333Y-99773809D01*
X146863571Y-99535714D02*
X146863571Y-100202380D01*
X147292142Y-99535714D02*
X147292142Y-100059523D01*
X147244523Y-100154761D01*
X147149285Y-100202380D01*
X147006428Y-100202380D01*
X146911190Y-100154761D01*
X146863571Y-100107142D01*
X146530238Y-99535714D02*
X146149285Y-99535714D01*
X146387380Y-99202380D02*
X146387380Y-100059523D01*
X146339761Y-100154761D01*
X146244523Y-100202380D01*
X146149285Y-100202380D01*
X145815952Y-100202380D02*
X145815952Y-99535714D01*
X145815952Y-99202380D02*
X145863571Y-99250000D01*
X145815952Y-99297619D01*
X145768333Y-99250000D01*
X145815952Y-99202380D01*
X145815952Y-99297619D01*
X145196904Y-100202380D02*
X145292142Y-100154761D01*
X145339761Y-100107142D01*
X145387380Y-100011904D01*
X145387380Y-99726190D01*
X145339761Y-99630952D01*
X145292142Y-99583333D01*
X145196904Y-99535714D01*
X145054047Y-99535714D01*
X144958809Y-99583333D01*
X144911190Y-99630952D01*
X144863571Y-99726190D01*
X144863571Y-100011904D01*
X144911190Y-100107142D01*
X144958809Y-100154761D01*
X145054047Y-100202380D01*
X145196904Y-100202380D01*
X144435000Y-99535714D02*
X144435000Y-100202380D01*
X144435000Y-99630952D02*
X144387380Y-99583333D01*
X144292142Y-99535714D01*
X144149285Y-99535714D01*
X144054047Y-99583333D01*
X144006428Y-99678571D01*
X144006428Y-100202380D01*
X143530238Y-100107142D02*
X143482619Y-100154761D01*
X143530238Y-100202380D01*
X143577857Y-100154761D01*
X143530238Y-100107142D01*
X143530238Y-100202380D01*
X143530238Y-99821428D02*
X143577857Y-99250000D01*
X143530238Y-99202380D01*
X143482619Y-99250000D01*
X143530238Y-99821428D01*
X143530238Y-99202380D01*
X142339761Y-100154761D02*
X142196904Y-100202380D01*
X141958809Y-100202380D01*
X141863571Y-100154761D01*
X141815952Y-100107142D01*
X141768333Y-100011904D01*
X141768333Y-99916666D01*
X141815952Y-99821428D01*
X141863571Y-99773809D01*
X141958809Y-99726190D01*
X142149285Y-99678571D01*
X142244523Y-99630952D01*
X142292142Y-99583333D01*
X142339761Y-99488095D01*
X142339761Y-99392857D01*
X142292142Y-99297619D01*
X142244523Y-99250000D01*
X142149285Y-99202380D01*
X141911190Y-99202380D01*
X141768333Y-99250000D01*
X140958809Y-100154761D02*
X141054047Y-100202380D01*
X141244523Y-100202380D01*
X141339761Y-100154761D01*
X141387380Y-100059523D01*
X141387380Y-99678571D01*
X141339761Y-99583333D01*
X141244523Y-99535714D01*
X141054047Y-99535714D01*
X140958809Y-99583333D01*
X140911190Y-99678571D01*
X140911190Y-99773809D01*
X141387380Y-99869047D01*
X140482619Y-99535714D02*
X140482619Y-100202380D01*
X140482619Y-99630952D02*
X140435000Y-99583333D01*
X140339761Y-99535714D01*
X140196904Y-99535714D01*
X140101666Y-99583333D01*
X140054047Y-99678571D01*
X140054047Y-100202380D01*
X139625476Y-100154761D02*
X139530238Y-100202380D01*
X139339761Y-100202380D01*
X139244523Y-100154761D01*
X139196904Y-100059523D01*
X139196904Y-100011904D01*
X139244523Y-99916666D01*
X139339761Y-99869047D01*
X139482619Y-99869047D01*
X139577857Y-99821428D01*
X139625476Y-99726190D01*
X139625476Y-99678571D01*
X139577857Y-99583333D01*
X139482619Y-99535714D01*
X139339761Y-99535714D01*
X139244523Y-99583333D01*
X138625476Y-100202380D02*
X138720714Y-100154761D01*
X138768333Y-100107142D01*
X138815952Y-100011904D01*
X138815952Y-99726190D01*
X138768333Y-99630952D01*
X138720714Y-99583333D01*
X138625476Y-99535714D01*
X138482619Y-99535714D01*
X138387380Y-99583333D01*
X138339761Y-99630952D01*
X138292142Y-99726190D01*
X138292142Y-100011904D01*
X138339761Y-100107142D01*
X138387380Y-100154761D01*
X138482619Y-100202380D01*
X138625476Y-100202380D01*
X137863571Y-100202380D02*
X137863571Y-99535714D01*
X137863571Y-99726190D02*
X137815952Y-99630952D01*
X137768333Y-99583333D01*
X137673095Y-99535714D01*
X137577857Y-99535714D01*
X137292142Y-100154761D02*
X137196904Y-100202380D01*
X137006428Y-100202380D01*
X136911190Y-100154761D01*
X136863571Y-100059523D01*
X136863571Y-100011904D01*
X136911190Y-99916666D01*
X137006428Y-99869047D01*
X137149285Y-99869047D01*
X137244523Y-99821428D01*
X137292142Y-99726190D01*
X137292142Y-99678571D01*
X137244523Y-99583333D01*
X137149285Y-99535714D01*
X137006428Y-99535714D01*
X136911190Y-99583333D01*
X148768333Y-101802380D02*
X148768333Y-101278571D01*
X148815952Y-101183333D01*
X148911190Y-101135714D01*
X149101666Y-101135714D01*
X149196904Y-101183333D01*
X148768333Y-101754761D02*
X148863571Y-101802380D01*
X149101666Y-101802380D01*
X149196904Y-101754761D01*
X149244523Y-101659523D01*
X149244523Y-101564285D01*
X149196904Y-101469047D01*
X149101666Y-101421428D01*
X148863571Y-101421428D01*
X148768333Y-101373809D01*
X148292142Y-101802380D02*
X148292142Y-101135714D01*
X148292142Y-101326190D02*
X148244523Y-101230952D01*
X148196904Y-101183333D01*
X148101666Y-101135714D01*
X148006428Y-101135714D01*
X147292142Y-101754761D02*
X147387380Y-101802380D01*
X147577857Y-101802380D01*
X147673095Y-101754761D01*
X147720714Y-101659523D01*
X147720714Y-101278571D01*
X147673095Y-101183333D01*
X147577857Y-101135714D01*
X147387380Y-101135714D01*
X147292142Y-101183333D01*
X147244523Y-101278571D01*
X147244523Y-101373809D01*
X147720714Y-101469047D01*
X145625476Y-101802380D02*
X145625476Y-100802380D01*
X145625476Y-101754761D02*
X145720714Y-101802380D01*
X145911190Y-101802380D01*
X146006428Y-101754761D01*
X146054047Y-101707142D01*
X146101666Y-101611904D01*
X146101666Y-101326190D01*
X146054047Y-101230952D01*
X146006428Y-101183333D01*
X145911190Y-101135714D01*
X145720714Y-101135714D01*
X145625476Y-101183333D01*
X144768333Y-101754761D02*
X144863571Y-101802380D01*
X145054047Y-101802380D01*
X145149285Y-101754761D01*
X145196904Y-101659523D01*
X145196904Y-101278571D01*
X145149285Y-101183333D01*
X145054047Y-101135714D01*
X144863571Y-101135714D01*
X144768333Y-101183333D01*
X144720714Y-101278571D01*
X144720714Y-101373809D01*
X145196904Y-101469047D01*
X144149285Y-101802380D02*
X144244523Y-101754761D01*
X144292142Y-101659523D01*
X144292142Y-100802380D01*
X143768333Y-101802380D02*
X143768333Y-101135714D01*
X143768333Y-100802380D02*
X143815952Y-100850000D01*
X143768333Y-100897619D01*
X143720714Y-100850000D01*
X143768333Y-100802380D01*
X143768333Y-100897619D01*
X142863571Y-101754761D02*
X142958809Y-101802380D01*
X143149285Y-101802380D01*
X143244523Y-101754761D01*
X143292142Y-101707142D01*
X143339761Y-101611904D01*
X143339761Y-101326190D01*
X143292142Y-101230952D01*
X143244523Y-101183333D01*
X143149285Y-101135714D01*
X142958809Y-101135714D01*
X142863571Y-101183333D01*
X142006428Y-101802380D02*
X142006428Y-101278571D01*
X142054047Y-101183333D01*
X142149285Y-101135714D01*
X142339761Y-101135714D01*
X142435000Y-101183333D01*
X142006428Y-101754761D02*
X142101666Y-101802380D01*
X142339761Y-101802380D01*
X142435000Y-101754761D01*
X142482619Y-101659523D01*
X142482619Y-101564285D01*
X142435000Y-101469047D01*
X142339761Y-101421428D01*
X142101666Y-101421428D01*
X142006428Y-101373809D01*
X141673095Y-101135714D02*
X141292142Y-101135714D01*
X141530238Y-100802380D02*
X141530238Y-101659523D01*
X141482619Y-101754761D01*
X141387380Y-101802380D01*
X141292142Y-101802380D01*
X140577857Y-101754761D02*
X140673095Y-101802380D01*
X140863571Y-101802380D01*
X140958809Y-101754761D01*
X141006428Y-101659523D01*
X141006428Y-101278571D01*
X140958809Y-101183333D01*
X140863571Y-101135714D01*
X140673095Y-101135714D01*
X140577857Y-101183333D01*
X140530238Y-101278571D01*
X140530238Y-101373809D01*
X141006428Y-101469047D01*
X140101666Y-101707142D02*
X140054047Y-101754761D01*
X140101666Y-101802380D01*
X140149285Y-101754761D01*
X140101666Y-101707142D01*
X140101666Y-101802380D01*
X148625476Y-103307142D02*
X148673095Y-103354761D01*
X148815952Y-103402380D01*
X148911190Y-103402380D01*
X149054047Y-103354761D01*
X149149285Y-103259523D01*
X149196904Y-103164285D01*
X149244523Y-102973809D01*
X149244523Y-102830952D01*
X149196904Y-102640476D01*
X149149285Y-102545238D01*
X149054047Y-102450000D01*
X148911190Y-102402380D01*
X148815952Y-102402380D01*
X148673095Y-102450000D01*
X148625476Y-102497619D01*
X148054047Y-103402380D02*
X148149285Y-103354761D01*
X148196904Y-103259523D01*
X148196904Y-102402380D01*
X147292142Y-103354761D02*
X147387380Y-103402380D01*
X147577857Y-103402380D01*
X147673095Y-103354761D01*
X147720714Y-103259523D01*
X147720714Y-102878571D01*
X147673095Y-102783333D01*
X147577857Y-102735714D01*
X147387380Y-102735714D01*
X147292142Y-102783333D01*
X147244523Y-102878571D01*
X147244523Y-102973809D01*
X147720714Y-103069047D01*
X146387380Y-103402380D02*
X146387380Y-102878571D01*
X146435000Y-102783333D01*
X146530238Y-102735714D01*
X146720714Y-102735714D01*
X146815952Y-102783333D01*
X146387380Y-103354761D02*
X146482619Y-103402380D01*
X146720714Y-103402380D01*
X146815952Y-103354761D01*
X146863571Y-103259523D01*
X146863571Y-103164285D01*
X146815952Y-103069047D01*
X146720714Y-103021428D01*
X146482619Y-103021428D01*
X146387380Y-102973809D01*
X145911190Y-102735714D02*
X145911190Y-103402380D01*
X145911190Y-102830952D02*
X145863571Y-102783333D01*
X145768333Y-102735714D01*
X145625476Y-102735714D01*
X145530238Y-102783333D01*
X145482619Y-102878571D01*
X145482619Y-103402380D01*
X143815952Y-102735714D02*
X143815952Y-103545238D01*
X143863571Y-103640476D01*
X143911190Y-103688095D01*
X144006428Y-103735714D01*
X144149285Y-103735714D01*
X144244523Y-103688095D01*
X143815952Y-103354761D02*
X143911190Y-103402380D01*
X144101666Y-103402380D01*
X144196904Y-103354761D01*
X144244523Y-103307142D01*
X144292142Y-103211904D01*
X144292142Y-102926190D01*
X144244523Y-102830952D01*
X144196904Y-102783333D01*
X144101666Y-102735714D01*
X143911190Y-102735714D01*
X143815952Y-102783333D01*
X142958809Y-103354761D02*
X143054047Y-103402380D01*
X143244523Y-103402380D01*
X143339761Y-103354761D01*
X143387380Y-103259523D01*
X143387380Y-102878571D01*
X143339761Y-102783333D01*
X143244523Y-102735714D01*
X143054047Y-102735714D01*
X142958809Y-102783333D01*
X142911190Y-102878571D01*
X142911190Y-102973809D01*
X143387380Y-103069047D01*
X142482619Y-102735714D02*
X142482619Y-103402380D01*
X142482619Y-102830952D02*
X142435000Y-102783333D01*
X142339761Y-102735714D01*
X142196904Y-102735714D01*
X142101666Y-102783333D01*
X142054047Y-102878571D01*
X142054047Y-103402380D01*
X141720714Y-102735714D02*
X141339761Y-102735714D01*
X141577857Y-102402380D02*
X141577857Y-103259523D01*
X141530238Y-103354761D01*
X141435000Y-103402380D01*
X141339761Y-103402380D01*
X140863571Y-103402380D02*
X140958809Y-103354761D01*
X141006428Y-103259523D01*
X141006428Y-102402380D01*
X140577857Y-102735714D02*
X140339761Y-103402380D01*
X140101666Y-102735714D02*
X140339761Y-103402380D01*
X140435000Y-103640476D01*
X140482619Y-103688095D01*
X140577857Y-103735714D01*
X139054047Y-102735714D02*
X138863571Y-103402380D01*
X138673095Y-102926190D01*
X138482619Y-103402380D01*
X138292142Y-102735714D01*
X137911190Y-103402380D02*
X137911190Y-102735714D01*
X137911190Y-102402380D02*
X137958809Y-102450000D01*
X137911190Y-102497619D01*
X137863571Y-102450000D01*
X137911190Y-102402380D01*
X137911190Y-102497619D01*
X137577857Y-102735714D02*
X137196904Y-102735714D01*
X137435000Y-102402380D02*
X137435000Y-103259523D01*
X137387380Y-103354761D01*
X137292142Y-103402380D01*
X137196904Y-103402380D01*
X136863571Y-103402380D02*
X136863571Y-102402380D01*
X136435000Y-103402380D02*
X136435000Y-102878571D01*
X136482619Y-102783333D01*
X136577857Y-102735714D01*
X136720714Y-102735714D01*
X136815952Y-102783333D01*
X136863571Y-102830952D01*
X149196904Y-104335714D02*
X149196904Y-105002380D01*
X149196904Y-104430952D02*
X149149285Y-104383333D01*
X149054047Y-104335714D01*
X148911190Y-104335714D01*
X148815952Y-104383333D01*
X148768333Y-104478571D01*
X148768333Y-105002380D01*
X148149285Y-105002380D02*
X148244523Y-104954761D01*
X148292142Y-104907142D01*
X148339761Y-104811904D01*
X148339761Y-104526190D01*
X148292142Y-104430952D01*
X148244523Y-104383333D01*
X148149285Y-104335714D01*
X148006428Y-104335714D01*
X147911190Y-104383333D01*
X147863571Y-104430952D01*
X147815952Y-104526190D01*
X147815952Y-104811904D01*
X147863571Y-104907142D01*
X147911190Y-104954761D01*
X148006428Y-105002380D01*
X148149285Y-105002380D01*
X147387380Y-104335714D02*
X147387380Y-105002380D01*
X147387380Y-104430952D02*
X147339761Y-104383333D01*
X147244523Y-104335714D01*
X147101666Y-104335714D01*
X147006428Y-104383333D01*
X146958809Y-104478571D01*
X146958809Y-105002380D01*
X146482619Y-104621428D02*
X145720714Y-104621428D01*
X145292142Y-104954761D02*
X145196904Y-105002380D01*
X145006428Y-105002380D01*
X144911190Y-104954761D01*
X144863571Y-104859523D01*
X144863571Y-104811904D01*
X144911190Y-104716666D01*
X145006428Y-104669047D01*
X145149285Y-104669047D01*
X145244523Y-104621428D01*
X145292142Y-104526190D01*
X145292142Y-104478571D01*
X145244523Y-104383333D01*
X145149285Y-104335714D01*
X145006428Y-104335714D01*
X144911190Y-104383333D01*
X144006428Y-104954761D02*
X144101666Y-105002380D01*
X144292142Y-105002380D01*
X144387380Y-104954761D01*
X144435000Y-104907142D01*
X144482619Y-104811904D01*
X144482619Y-104526190D01*
X144435000Y-104430952D01*
X144387380Y-104383333D01*
X144292142Y-104335714D01*
X144101666Y-104335714D01*
X144006428Y-104383333D01*
X143577857Y-105002380D02*
X143577857Y-104335714D01*
X143577857Y-104526190D02*
X143530238Y-104430952D01*
X143482619Y-104383333D01*
X143387380Y-104335714D01*
X143292142Y-104335714D01*
X142530238Y-105002380D02*
X142530238Y-104478571D01*
X142577857Y-104383333D01*
X142673095Y-104335714D01*
X142863571Y-104335714D01*
X142958809Y-104383333D01*
X142530238Y-104954761D02*
X142625476Y-105002380D01*
X142863571Y-105002380D01*
X142958809Y-104954761D01*
X143006428Y-104859523D01*
X143006428Y-104764285D01*
X142958809Y-104669047D01*
X142863571Y-104621428D01*
X142625476Y-104621428D01*
X142530238Y-104573809D01*
X142196904Y-104335714D02*
X141815952Y-104335714D01*
X142054047Y-104002380D02*
X142054047Y-104859523D01*
X142006428Y-104954761D01*
X141911190Y-105002380D01*
X141815952Y-105002380D01*
X141054047Y-104954761D02*
X141149285Y-105002380D01*
X141339761Y-105002380D01*
X141435000Y-104954761D01*
X141482619Y-104907142D01*
X141530238Y-104811904D01*
X141530238Y-104526190D01*
X141482619Y-104430952D01*
X141435000Y-104383333D01*
X141339761Y-104335714D01*
X141149285Y-104335714D01*
X141054047Y-104383333D01*
X140625476Y-105002380D02*
X140625476Y-104002380D01*
X140196904Y-105002380D02*
X140196904Y-104478571D01*
X140244523Y-104383333D01*
X140339761Y-104335714D01*
X140482619Y-104335714D01*
X140577857Y-104383333D01*
X140625476Y-104430952D01*
X139720714Y-105002380D02*
X139720714Y-104335714D01*
X139720714Y-104002380D02*
X139768333Y-104050000D01*
X139720714Y-104097619D01*
X139673095Y-104050000D01*
X139720714Y-104002380D01*
X139720714Y-104097619D01*
X139244523Y-104335714D02*
X139244523Y-105002380D01*
X139244523Y-104430952D02*
X139196904Y-104383333D01*
X139101666Y-104335714D01*
X138958809Y-104335714D01*
X138863571Y-104383333D01*
X138815952Y-104478571D01*
X138815952Y-105002380D01*
X137911190Y-104335714D02*
X137911190Y-105145238D01*
X137958809Y-105240476D01*
X138006428Y-105288095D01*
X138101666Y-105335714D01*
X138244523Y-105335714D01*
X138339761Y-105288095D01*
X137911190Y-104954761D02*
X138006428Y-105002380D01*
X138196904Y-105002380D01*
X138292142Y-104954761D01*
X138339761Y-104907142D01*
X138387380Y-104811904D01*
X138387380Y-104526190D01*
X138339761Y-104430952D01*
X138292142Y-104383333D01*
X138196904Y-104335714D01*
X138006428Y-104335714D01*
X137911190Y-104383333D01*
X148768333Y-106554761D02*
X148863571Y-106602380D01*
X149054047Y-106602380D01*
X149149285Y-106554761D01*
X149196904Y-106507142D01*
X149244523Y-106411904D01*
X149244523Y-106126190D01*
X149196904Y-106030952D01*
X149149285Y-105983333D01*
X149054047Y-105935714D01*
X148863571Y-105935714D01*
X148768333Y-105983333D01*
X148196904Y-106602380D02*
X148292142Y-106554761D01*
X148339761Y-106459523D01*
X148339761Y-105602380D01*
X147673095Y-106602380D02*
X147768333Y-106554761D01*
X147815952Y-106507142D01*
X147863571Y-106411904D01*
X147863571Y-106126190D01*
X147815952Y-106030952D01*
X147768333Y-105983333D01*
X147673095Y-105935714D01*
X147530238Y-105935714D01*
X147435000Y-105983333D01*
X147387380Y-106030952D01*
X147339761Y-106126190D01*
X147339761Y-106411904D01*
X147387380Y-106507142D01*
X147435000Y-106554761D01*
X147530238Y-106602380D01*
X147673095Y-106602380D01*
X147054047Y-105935714D02*
X146673095Y-105935714D01*
X146911190Y-105602380D02*
X146911190Y-106459523D01*
X146863571Y-106554761D01*
X146768333Y-106602380D01*
X146673095Y-106602380D01*
X146339761Y-106602380D02*
X146339761Y-105602380D01*
X145911190Y-106602380D02*
X145911190Y-106078571D01*
X145958809Y-105983333D01*
X146054047Y-105935714D01*
X146196904Y-105935714D01*
X146292142Y-105983333D01*
X146339761Y-106030952D01*
X145435000Y-106507142D02*
X145387380Y-106554761D01*
X145435000Y-106602380D01*
X145482619Y-106554761D01*
X145435000Y-106507142D01*
X145435000Y-106602380D01*
X144196904Y-105602380D02*
X144196904Y-106411904D01*
X144149285Y-106507142D01*
X144101666Y-106554761D01*
X144006428Y-106602380D01*
X143815952Y-106602380D01*
X143720714Y-106554761D01*
X143673095Y-106507142D01*
X143625476Y-106411904D01*
X143625476Y-105602380D01*
X143196904Y-106554761D02*
X143101666Y-106602380D01*
X142911190Y-106602380D01*
X142815952Y-106554761D01*
X142768333Y-106459523D01*
X142768333Y-106411904D01*
X142815952Y-106316666D01*
X142911190Y-106269047D01*
X143054047Y-106269047D01*
X143149285Y-106221428D01*
X143196904Y-106126190D01*
X143196904Y-106078571D01*
X143149285Y-105983333D01*
X143054047Y-105935714D01*
X142911190Y-105935714D01*
X142815952Y-105983333D01*
X141958809Y-106554761D02*
X142054047Y-106602380D01*
X142244523Y-106602380D01*
X142339761Y-106554761D01*
X142387380Y-106459523D01*
X142387380Y-106078571D01*
X142339761Y-105983333D01*
X142244523Y-105935714D01*
X142054047Y-105935714D01*
X141958809Y-105983333D01*
X141911190Y-106078571D01*
X141911190Y-106173809D01*
X142387380Y-106269047D01*
X140577857Y-106602380D02*
X140673095Y-106554761D01*
X140720714Y-106507142D01*
X140768333Y-106411904D01*
X140768333Y-106126190D01*
X140720714Y-106030952D01*
X140673095Y-105983333D01*
X140577857Y-105935714D01*
X140435000Y-105935714D01*
X140339761Y-105983333D01*
X140292142Y-106030952D01*
X140244523Y-106126190D01*
X140244523Y-106411904D01*
X140292142Y-106507142D01*
X140339761Y-106554761D01*
X140435000Y-106602380D01*
X140577857Y-106602380D01*
X139815952Y-105935714D02*
X139815952Y-106602380D01*
X139815952Y-106030952D02*
X139768333Y-105983333D01*
X139673095Y-105935714D01*
X139530238Y-105935714D01*
X139435000Y-105983333D01*
X139387380Y-106078571D01*
X139387380Y-106602380D01*
X138768333Y-106602380D02*
X138863571Y-106554761D01*
X138911190Y-106459523D01*
X138911190Y-105602380D01*
X138482619Y-105935714D02*
X138244523Y-106602380D01*
X138006428Y-105935714D02*
X138244523Y-106602380D01*
X138339761Y-106840476D01*
X138387380Y-106888095D01*
X138482619Y-106935714D01*
X148435000Y-107535714D02*
X149196904Y-107821428D01*
X148435000Y-108107142D01*
X147244523Y-107297619D02*
X147196904Y-107250000D01*
X147101666Y-107202380D01*
X146863571Y-107202380D01*
X146768333Y-107250000D01*
X146720714Y-107297619D01*
X146673095Y-107392857D01*
X146673095Y-107488095D01*
X146720714Y-107630952D01*
X147292142Y-108202380D01*
X146673095Y-108202380D01*
X146054047Y-107202380D02*
X145958809Y-107202380D01*
X145863571Y-107250000D01*
X145815952Y-107297619D01*
X145768333Y-107392857D01*
X145720714Y-107583333D01*
X145720714Y-107821428D01*
X145768333Y-108011904D01*
X145815952Y-108107142D01*
X145863571Y-108154761D01*
X145958809Y-108202380D01*
X146054047Y-108202380D01*
X146149285Y-108154761D01*
X146196904Y-108107142D01*
X146244523Y-108011904D01*
X146292142Y-107821428D01*
X146292142Y-107583333D01*
X146244523Y-107392857D01*
X146196904Y-107297619D01*
X146149285Y-107250000D01*
X146054047Y-107202380D01*
X145339761Y-108202380D02*
X144577857Y-107202380D01*
X145196904Y-107202380D02*
X145101666Y-107250000D01*
X145054047Y-107345238D01*
X145101666Y-107440476D01*
X145196904Y-107488095D01*
X145292142Y-107440476D01*
X145339761Y-107345238D01*
X145292142Y-107250000D01*
X145196904Y-107202380D01*
X144625476Y-108154761D02*
X144577857Y-108059523D01*
X144625476Y-107964285D01*
X144720714Y-107916666D01*
X144815952Y-107964285D01*
X144863571Y-108059523D01*
X144815952Y-108154761D01*
X144720714Y-108202380D01*
X144625476Y-108154761D01*
X143387380Y-107678571D02*
X143054047Y-107678571D01*
X142911190Y-108202380D02*
X143387380Y-108202380D01*
X143387380Y-107202380D01*
X142911190Y-107202380D01*
X142625476Y-107535714D02*
X142244523Y-107535714D01*
X142482619Y-107202380D02*
X142482619Y-108059523D01*
X142435000Y-108154761D01*
X142339761Y-108202380D01*
X142244523Y-108202380D01*
X141720714Y-107202380D02*
X141530238Y-107202380D01*
X141435000Y-107250000D01*
X141339761Y-107345238D01*
X141292142Y-107535714D01*
X141292142Y-107869047D01*
X141339761Y-108059523D01*
X141435000Y-108154761D01*
X141530238Y-108202380D01*
X141720714Y-108202380D01*
X141815952Y-108154761D01*
X141911190Y-108059523D01*
X141958809Y-107869047D01*
X141958809Y-107535714D01*
X141911190Y-107345238D01*
X141815952Y-107250000D01*
X141720714Y-107202380D01*
X140863571Y-108202380D02*
X140863571Y-107202380D01*
X140863571Y-107678571D02*
X140292142Y-107678571D01*
X140292142Y-108202380D02*
X140292142Y-107202380D01*
X139815952Y-108107142D02*
X139768333Y-108154761D01*
X139815952Y-108202380D01*
X139863571Y-108154761D01*
X139815952Y-108107142D01*
X139815952Y-108202380D01*
D10*
X137691777Y-110958885D02*
X138050987Y-111318095D01*
X138050987Y-111318095D02*
X137781580Y-111587503D01*
X137781580Y-111587503D02*
X137422369Y-111228292D01*
X137422369Y-111228292D02*
X137691777Y-110958885D01*
X155691777Y-110958885D02*
X156050987Y-111318095D01*
X156050987Y-111318095D02*
X155781580Y-111587503D01*
X155781580Y-111587503D02*
X155422369Y-111228292D01*
X155422369Y-111228292D02*
X155691777Y-110958885D01*
D12*
G36*
X123946650Y-105316400D02*
G01*
X123322742Y-105386851D01*
X122792108Y-105501333D01*
X122365224Y-105658862D01*
X122177500Y-105764123D01*
X122065437Y-105809832D01*
X121875431Y-105862469D01*
X121711867Y-105897994D01*
X121372994Y-106002640D01*
X121126284Y-106160235D01*
X120978878Y-106356872D01*
X120937915Y-106578647D01*
X121010537Y-106811652D01*
X121150205Y-106991828D01*
X121255109Y-107090364D01*
X121351350Y-107151014D01*
X121473484Y-107183280D01*
X121656068Y-107196664D01*
X121909030Y-107200484D01*
X122188654Y-107207795D01*
X122442726Y-107223490D01*
X122627016Y-107244578D01*
X122661439Y-107251357D01*
X122786153Y-107294400D01*
X122853206Y-107373482D01*
X122890740Y-107528552D01*
X122899564Y-107589360D01*
X122908511Y-107717479D01*
X122916759Y-107956729D01*
X122924079Y-108291241D01*
X122930240Y-108705145D01*
X122935014Y-109182573D01*
X122938169Y-109707655D01*
X122939478Y-110264524D01*
X122939500Y-110348193D01*
X122939500Y-112815661D01*
X123383036Y-115268937D01*
X123505147Y-115933042D01*
X123616436Y-116515525D01*
X123715232Y-117008430D01*
X123799864Y-117403804D01*
X123868661Y-117693691D01*
X123919950Y-117870136D01*
X123938661Y-117913593D01*
X124070404Y-118089249D01*
X124218121Y-118229719D01*
X124394813Y-118314312D01*
X124629583Y-118370580D01*
X124864274Y-118389057D01*
X125035000Y-118362665D01*
X125193985Y-118261156D01*
X125367507Y-118097423D01*
X125507987Y-117920013D01*
X125554600Y-117832500D01*
X125577941Y-117736681D01*
X125618483Y-117529614D01*
X125673759Y-117225518D01*
X125741301Y-116838610D01*
X125818643Y-116383111D01*
X125903318Y-115873239D01*
X125992857Y-115323213D01*
X126028386Y-115102000D01*
X126439853Y-112530250D01*
X126496897Y-110593500D01*
X126511773Y-110065997D01*
X126525382Y-109540614D01*
X126537183Y-109041634D01*
X126538574Y-108975637D01*
X126430508Y-108975637D01*
X126428323Y-109276519D01*
X126418908Y-109571472D01*
X126401978Y-109833936D01*
X126390831Y-109942812D01*
X126350766Y-110276374D01*
X125945442Y-110401566D01*
X125648796Y-110478645D01*
X125320611Y-110542638D01*
X125128809Y-110568898D01*
X124919204Y-110599092D01*
X124771038Y-110637084D01*
X124717500Y-110673085D01*
X124774628Y-110700361D01*
X124928218Y-110700834D01*
X125151584Y-110678736D01*
X125418039Y-110638298D01*
X125700896Y-110583751D01*
X125973468Y-110519326D01*
X126209069Y-110449254D01*
X126271209Y-110426746D01*
X126307937Y-110426176D01*
X126333923Y-110468437D01*
X126350752Y-110570408D01*
X126360006Y-110748973D01*
X126363269Y-111021013D01*
X126362171Y-111396331D01*
X126357317Y-111753284D01*
X126348092Y-112075668D01*
X126335607Y-112337408D01*
X126320973Y-112512432D01*
X126312490Y-112562000D01*
X126249443Y-112674884D01*
X126112343Y-112764596D01*
X125943495Y-112829503D01*
X125707577Y-112896545D01*
X125478781Y-112943148D01*
X125389926Y-112953607D01*
X125240682Y-112976073D01*
X125164516Y-113011820D01*
X125162000Y-113019478D01*
X125217553Y-113059975D01*
X125361962Y-113068382D01*
X125561857Y-113047096D01*
X125783867Y-112998514D01*
X125884380Y-112967608D01*
X126063412Y-112915231D01*
X126188506Y-112894626D01*
X126220110Y-112900442D01*
X126218022Y-112967354D01*
X126198825Y-113140380D01*
X126165379Y-113400216D01*
X126120542Y-113727556D01*
X126067173Y-114103094D01*
X126008131Y-114507526D01*
X125946274Y-114921544D01*
X125884461Y-115325845D01*
X125825551Y-115701121D01*
X125772402Y-116028069D01*
X125727874Y-116287381D01*
X125694824Y-116459754D01*
X125689582Y-116483217D01*
X125601262Y-116601505D01*
X125415051Y-116694871D01*
X125158160Y-116760289D01*
X124857797Y-116794733D01*
X124541170Y-116795175D01*
X124235488Y-116758590D01*
X123967960Y-116681951D01*
X123954241Y-116676237D01*
X123730732Y-116581194D01*
X123073120Y-112847750D01*
X123013746Y-107849274D01*
X123214748Y-107892155D01*
X123857517Y-107984057D01*
X124560857Y-108005981D01*
X125280643Y-107959825D01*
X125972746Y-107847490D01*
X126325653Y-107758175D01*
X126406289Y-107755305D01*
X126426644Y-107833703D01*
X126420903Y-107904360D01*
X126365422Y-108053424D01*
X126228402Y-108161888D01*
X125994775Y-108237459D01*
X125676648Y-108285074D01*
X125473911Y-108315039D01*
X125333606Y-108352548D01*
X125289000Y-108384615D01*
X125345177Y-108408181D01*
X125489345Y-108410400D01*
X125684965Y-108394838D01*
X125895498Y-108365060D01*
X126084402Y-108324633D01*
X126166259Y-108298995D01*
X126302895Y-108256187D01*
X126372634Y-108244000D01*
X126396526Y-108303007D01*
X126414325Y-108462321D01*
X126425747Y-108695385D01*
X126430508Y-108975637D01*
X126538574Y-108975637D01*
X126546636Y-108593341D01*
X126553201Y-108220019D01*
X126556336Y-107945950D01*
X126556471Y-107916897D01*
X126558518Y-107318210D01*
X126457008Y-107318210D01*
X126438790Y-107426856D01*
X126400299Y-107552646D01*
X126326147Y-107629930D01*
X126180489Y-107686902D01*
X126070804Y-107716287D01*
X125599044Y-107810567D01*
X125081678Y-107871251D01*
X124553604Y-107897503D01*
X124049720Y-107888485D01*
X123604922Y-107843359D01*
X123320500Y-107782282D01*
X123139873Y-107718165D01*
X123049716Y-107643581D01*
X123015023Y-107528453D01*
X123013851Y-107518829D01*
X123010163Y-107393892D01*
X123064554Y-107361422D01*
X123172601Y-107381300D01*
X123297689Y-107398658D01*
X123522572Y-107417811D01*
X123820095Y-107436896D01*
X124163106Y-107454053D01*
X124336554Y-107461080D01*
X125046756Y-107466825D01*
X125642123Y-107426406D01*
X126126274Y-107339468D01*
X126377180Y-107260124D01*
X126444049Y-107251394D01*
X126457008Y-107318210D01*
X126558518Y-107318210D01*
X126559001Y-107177044D01*
X126781251Y-107045913D01*
X126941817Y-106917907D01*
X126995804Y-106806578D01*
X126876500Y-106806578D01*
X126817036Y-106897131D01*
X126652619Y-106997236D01*
X126404211Y-107099885D01*
X126092775Y-107198071D01*
X125739275Y-107284789D01*
X125364672Y-107353031D01*
X125162000Y-107379621D01*
X124945453Y-107390049D01*
X124641615Y-107386914D01*
X124289233Y-107372264D01*
X123927054Y-107348151D01*
X123593824Y-107316623D01*
X123352250Y-107283866D01*
X122986132Y-107215427D01*
X122732365Y-107149570D01*
X122576560Y-107080803D01*
X122504325Y-107003628D01*
X122495000Y-106956542D01*
X122497109Y-106948859D01*
X122357845Y-106948859D01*
X122280049Y-107047659D01*
X122113655Y-107109424D01*
X121892305Y-107131562D01*
X121649641Y-107111482D01*
X121419306Y-107046590D01*
X121371243Y-107024874D01*
X121227683Y-106907405D01*
X121192699Y-106764193D01*
X121254831Y-106610968D01*
X121402619Y-106463460D01*
X121624601Y-106337397D01*
X121909317Y-106248510D01*
X121941570Y-106242126D01*
X122100528Y-106223051D01*
X122168349Y-106250373D01*
X122177500Y-106292067D01*
X122116628Y-106370070D01*
X121942006Y-106423822D01*
X121926778Y-106426360D01*
X121710600Y-106495283D01*
X121515539Y-106610385D01*
X121498153Y-106625119D01*
X121385621Y-106731814D01*
X121360506Y-106795705D01*
X121414748Y-106857730D01*
X121447250Y-106883635D01*
X121593976Y-106937464D01*
X121814636Y-106951227D01*
X122062957Y-106925835D01*
X122279964Y-106867195D01*
X122354840Y-106866424D01*
X122357845Y-106948859D01*
X122497109Y-106948859D01*
X122519110Y-106868733D01*
X122613691Y-106867906D01*
X122637875Y-106874651D01*
X123297902Y-107017594D01*
X124028580Y-107080621D01*
X124801815Y-107063679D01*
X125589512Y-106966716D01*
X126011618Y-106880919D01*
X126354492Y-106802351D01*
X126592836Y-106752562D01*
X126745428Y-106729937D01*
X126831049Y-106732863D01*
X126868477Y-106759725D01*
X126876500Y-106806578D01*
X126995804Y-106806578D01*
X127003428Y-106790857D01*
X127003500Y-106786851D01*
X127055342Y-106672103D01*
X127178125Y-106619368D01*
X127440853Y-106559567D01*
X127605437Y-106513107D01*
X127696782Y-106461898D01*
X127739793Y-106387851D01*
X127759377Y-106272876D01*
X127768620Y-106190475D01*
X127771047Y-106146870D01*
X127651538Y-106146870D01*
X127648200Y-106180250D01*
X127627881Y-106319919D01*
X127610086Y-106387697D01*
X127546910Y-106405780D01*
X127382917Y-106445904D01*
X127141320Y-106502802D01*
X126845331Y-106571209D01*
X126518164Y-106645858D01*
X126183030Y-106721482D01*
X125863144Y-106792816D01*
X125581717Y-106854593D01*
X125361962Y-106901546D01*
X125227093Y-106928410D01*
X125225500Y-106928692D01*
X124993661Y-106952873D01*
X124673434Y-106964216D01*
X124302690Y-106963569D01*
X123919303Y-106951782D01*
X123561143Y-106929704D01*
X123266084Y-106898184D01*
X123171722Y-106882648D01*
X122812439Y-106803959D01*
X122563032Y-106721783D01*
X122523121Y-106697340D01*
X122271381Y-106697340D01*
X122216052Y-106757630D01*
X122163101Y-106780975D01*
X122008035Y-106820799D01*
X121821072Y-106839600D01*
X121643461Y-106837422D01*
X121516455Y-106814307D01*
X121479000Y-106780259D01*
X121531923Y-106714107D01*
X121661691Y-106639242D01*
X121685375Y-106629116D01*
X121916808Y-106539346D01*
X122062337Y-106501227D01*
X122151244Y-106512914D01*
X122212809Y-106572563D01*
X122227497Y-106594975D01*
X122271381Y-106697340D01*
X122523121Y-106697340D01*
X122406550Y-106625948D01*
X122326045Y-106506287D01*
X122304500Y-106362325D01*
X122313938Y-106214526D01*
X122353148Y-106166355D01*
X122415625Y-106181089D01*
X122685582Y-106281128D01*
X122958366Y-106352633D01*
X123267146Y-106401233D01*
X123645092Y-106432560D01*
X123987250Y-106447877D01*
X124302409Y-106456813D01*
X124567966Y-106457745D01*
X124812840Y-106448023D01*
X125065952Y-106424996D01*
X125356220Y-106386015D01*
X125712565Y-106328427D01*
X126163908Y-106249582D01*
X126178000Y-106247077D01*
X126573602Y-106176925D01*
X126930087Y-106114060D01*
X127227287Y-106062011D01*
X127445027Y-106024307D01*
X127563136Y-106004477D01*
X127575000Y-106002688D01*
X127640980Y-106028460D01*
X127651538Y-106146870D01*
X127771047Y-106146870D01*
X127779968Y-105986665D01*
X127750848Y-105871362D01*
X127638902Y-105871362D01*
X126289326Y-106104064D01*
X125878877Y-106174585D01*
X125500490Y-106239127D01*
X125175755Y-106294045D01*
X124926260Y-106335693D01*
X124773596Y-106360426D01*
X124749250Y-106364097D01*
X124500848Y-106379834D01*
X124169714Y-106373871D01*
X123797622Y-106349564D01*
X123426346Y-106310268D01*
X123097659Y-106259339D01*
X122906064Y-106216038D01*
X122675459Y-106141783D01*
X122485033Y-106061999D01*
X122408757Y-106014706D01*
X122177500Y-106014706D01*
X122121244Y-106086066D01*
X121981339Y-106135920D01*
X121852277Y-106148500D01*
X121675054Y-106187724D01*
X121464895Y-106285909D01*
X121273463Y-106413822D01*
X121152418Y-106542231D01*
X121150526Y-106545582D01*
X121091074Y-106639751D01*
X121061255Y-106626021D01*
X121047288Y-106570846D01*
X121073070Y-106447654D01*
X121171332Y-106299261D01*
X121190542Y-106278327D01*
X121418543Y-106113182D01*
X121713638Y-105999052D01*
X122010243Y-105958000D01*
X122133623Y-105976520D01*
X122177500Y-106014706D01*
X122408757Y-106014706D01*
X122379114Y-105996327D01*
X122321708Y-105880206D01*
X122388667Y-105773137D01*
X122577626Y-105675928D01*
X122886219Y-105589387D01*
X123312078Y-105514319D01*
X123852838Y-105451534D01*
X124019000Y-105436729D01*
X124355027Y-105411768D01*
X124653822Y-105398812D01*
X124948069Y-105398537D01*
X125270456Y-105411618D01*
X125653666Y-105438732D01*
X126128266Y-105480359D01*
X126562550Y-105521641D01*
X126888278Y-105556276D01*
X127123504Y-105587574D01*
X127286280Y-105618847D01*
X127394660Y-105653406D01*
X127466696Y-105694562D01*
X127509591Y-105733717D01*
X127638902Y-105871362D01*
X127750848Y-105871362D01*
X127744062Y-105844496D01*
X127645047Y-105702553D01*
X127641620Y-105698469D01*
X127582502Y-105631505D01*
X127520851Y-105580220D01*
X127437728Y-105540192D01*
X127314194Y-105507002D01*
X127131309Y-105476229D01*
X126870134Y-105443453D01*
X126511729Y-105404252D01*
X126273250Y-105379082D01*
X125432381Y-105311531D01*
X124653355Y-105290965D01*
X123946650Y-105316400D01*
G37*
X123946650Y-105316400D02*
X123322742Y-105386851D01*
X122792108Y-105501333D01*
X122365224Y-105658862D01*
X122177500Y-105764123D01*
X122065437Y-105809832D01*
X121875431Y-105862469D01*
X121711867Y-105897994D01*
X121372994Y-106002640D01*
X121126284Y-106160235D01*
X120978878Y-106356872D01*
X120937915Y-106578647D01*
X121010537Y-106811652D01*
X121150205Y-106991828D01*
X121255109Y-107090364D01*
X121351350Y-107151014D01*
X121473484Y-107183280D01*
X121656068Y-107196664D01*
X121909030Y-107200484D01*
X122188654Y-107207795D01*
X122442726Y-107223490D01*
X122627016Y-107244578D01*
X122661439Y-107251357D01*
X122786153Y-107294400D01*
X122853206Y-107373482D01*
X122890740Y-107528552D01*
X122899564Y-107589360D01*
X122908511Y-107717479D01*
X122916759Y-107956729D01*
X122924079Y-108291241D01*
X122930240Y-108705145D01*
X122935014Y-109182573D01*
X122938169Y-109707655D01*
X122939478Y-110264524D01*
X122939500Y-110348193D01*
X122939500Y-112815661D01*
X123383036Y-115268937D01*
X123505147Y-115933042D01*
X123616436Y-116515525D01*
X123715232Y-117008430D01*
X123799864Y-117403804D01*
X123868661Y-117693691D01*
X123919950Y-117870136D01*
X123938661Y-117913593D01*
X124070404Y-118089249D01*
X124218121Y-118229719D01*
X124394813Y-118314312D01*
X124629583Y-118370580D01*
X124864274Y-118389057D01*
X125035000Y-118362665D01*
X125193985Y-118261156D01*
X125367507Y-118097423D01*
X125507987Y-117920013D01*
X125554600Y-117832500D01*
X125577941Y-117736681D01*
X125618483Y-117529614D01*
X125673759Y-117225518D01*
X125741301Y-116838610D01*
X125818643Y-116383111D01*
X125903318Y-115873239D01*
X125992857Y-115323213D01*
X126028386Y-115102000D01*
X126439853Y-112530250D01*
X126496897Y-110593500D01*
X126511773Y-110065997D01*
X126525382Y-109540614D01*
X126537183Y-109041634D01*
X126538574Y-108975637D01*
X126430508Y-108975637D01*
X126428323Y-109276519D01*
X126418908Y-109571472D01*
X126401978Y-109833936D01*
X126390831Y-109942812D01*
X126350766Y-110276374D01*
X125945442Y-110401566D01*
X125648796Y-110478645D01*
X125320611Y-110542638D01*
X125128809Y-110568898D01*
X124919204Y-110599092D01*
X124771038Y-110637084D01*
X124717500Y-110673085D01*
X124774628Y-110700361D01*
X124928218Y-110700834D01*
X125151584Y-110678736D01*
X125418039Y-110638298D01*
X125700896Y-110583751D01*
X125973468Y-110519326D01*
X126209069Y-110449254D01*
X126271209Y-110426746D01*
X126307937Y-110426176D01*
X126333923Y-110468437D01*
X126350752Y-110570408D01*
X126360006Y-110748973D01*
X126363269Y-111021013D01*
X126362171Y-111396331D01*
X126357317Y-111753284D01*
X126348092Y-112075668D01*
X126335607Y-112337408D01*
X126320973Y-112512432D01*
X126312490Y-112562000D01*
X126249443Y-112674884D01*
X126112343Y-112764596D01*
X125943495Y-112829503D01*
X125707577Y-112896545D01*
X125478781Y-112943148D01*
X125389926Y-112953607D01*
X125240682Y-112976073D01*
X125164516Y-113011820D01*
X125162000Y-113019478D01*
X125217553Y-113059975D01*
X125361962Y-113068382D01*
X125561857Y-113047096D01*
X125783867Y-112998514D01*
X125884380Y-112967608D01*
X126063412Y-112915231D01*
X126188506Y-112894626D01*
X126220110Y-112900442D01*
X126218022Y-112967354D01*
X126198825Y-113140380D01*
X126165379Y-113400216D01*
X126120542Y-113727556D01*
X126067173Y-114103094D01*
X126008131Y-114507526D01*
X125946274Y-114921544D01*
X125884461Y-115325845D01*
X125825551Y-115701121D01*
X125772402Y-116028069D01*
X125727874Y-116287381D01*
X125694824Y-116459754D01*
X125689582Y-116483217D01*
X125601262Y-116601505D01*
X125415051Y-116694871D01*
X125158160Y-116760289D01*
X124857797Y-116794733D01*
X124541170Y-116795175D01*
X124235488Y-116758590D01*
X123967960Y-116681951D01*
X123954241Y-116676237D01*
X123730732Y-116581194D01*
X123073120Y-112847750D01*
X123013746Y-107849274D01*
X123214748Y-107892155D01*
X123857517Y-107984057D01*
X124560857Y-108005981D01*
X125280643Y-107959825D01*
X125972746Y-107847490D01*
X126325653Y-107758175D01*
X126406289Y-107755305D01*
X126426644Y-107833703D01*
X126420903Y-107904360D01*
X126365422Y-108053424D01*
X126228402Y-108161888D01*
X125994775Y-108237459D01*
X125676648Y-108285074D01*
X125473911Y-108315039D01*
X125333606Y-108352548D01*
X125289000Y-108384615D01*
X125345177Y-108408181D01*
X125489345Y-108410400D01*
X125684965Y-108394838D01*
X125895498Y-108365060D01*
X126084402Y-108324633D01*
X126166259Y-108298995D01*
X126302895Y-108256187D01*
X126372634Y-108244000D01*
X126396526Y-108303007D01*
X126414325Y-108462321D01*
X126425747Y-108695385D01*
X126430508Y-108975637D01*
X126538574Y-108975637D01*
X126546636Y-108593341D01*
X126553201Y-108220019D01*
X126556336Y-107945950D01*
X126556471Y-107916897D01*
X126558518Y-107318210D01*
X126457008Y-107318210D01*
X126438790Y-107426856D01*
X126400299Y-107552646D01*
X126326147Y-107629930D01*
X126180489Y-107686902D01*
X126070804Y-107716287D01*
X125599044Y-107810567D01*
X125081678Y-107871251D01*
X124553604Y-107897503D01*
X124049720Y-107888485D01*
X123604922Y-107843359D01*
X123320500Y-107782282D01*
X123139873Y-107718165D01*
X123049716Y-107643581D01*
X123015023Y-107528453D01*
X123013851Y-107518829D01*
X123010163Y-107393892D01*
X123064554Y-107361422D01*
X123172601Y-107381300D01*
X123297689Y-107398658D01*
X123522572Y-107417811D01*
X123820095Y-107436896D01*
X124163106Y-107454053D01*
X124336554Y-107461080D01*
X125046756Y-107466825D01*
X125642123Y-107426406D01*
X126126274Y-107339468D01*
X126377180Y-107260124D01*
X126444049Y-107251394D01*
X126457008Y-107318210D01*
X126558518Y-107318210D01*
X126559001Y-107177044D01*
X126781251Y-107045913D01*
X126941817Y-106917907D01*
X126995804Y-106806578D01*
X126876500Y-106806578D01*
X126817036Y-106897131D01*
X126652619Y-106997236D01*
X126404211Y-107099885D01*
X126092775Y-107198071D01*
X125739275Y-107284789D01*
X125364672Y-107353031D01*
X125162000Y-107379621D01*
X124945453Y-107390049D01*
X124641615Y-107386914D01*
X124289233Y-107372264D01*
X123927054Y-107348151D01*
X123593824Y-107316623D01*
X123352250Y-107283866D01*
X122986132Y-107215427D01*
X122732365Y-107149570D01*
X122576560Y-107080803D01*
X122504325Y-107003628D01*
X122495000Y-106956542D01*
X122497109Y-106948859D01*
X122357845Y-106948859D01*
X122280049Y-107047659D01*
X122113655Y-107109424D01*
X121892305Y-107131562D01*
X121649641Y-107111482D01*
X121419306Y-107046590D01*
X121371243Y-107024874D01*
X121227683Y-106907405D01*
X121192699Y-106764193D01*
X121254831Y-106610968D01*
X121402619Y-106463460D01*
X121624601Y-106337397D01*
X121909317Y-106248510D01*
X121941570Y-106242126D01*
X122100528Y-106223051D01*
X122168349Y-106250373D01*
X122177500Y-106292067D01*
X122116628Y-106370070D01*
X121942006Y-106423822D01*
X121926778Y-106426360D01*
X121710600Y-106495283D01*
X121515539Y-106610385D01*
X121498153Y-106625119D01*
X121385621Y-106731814D01*
X121360506Y-106795705D01*
X121414748Y-106857730D01*
X121447250Y-106883635D01*
X121593976Y-106937464D01*
X121814636Y-106951227D01*
X122062957Y-106925835D01*
X122279964Y-106867195D01*
X122354840Y-106866424D01*
X122357845Y-106948859D01*
X122497109Y-106948859D01*
X122519110Y-106868733D01*
X122613691Y-106867906D01*
X122637875Y-106874651D01*
X123297902Y-107017594D01*
X124028580Y-107080621D01*
X124801815Y-107063679D01*
X125589512Y-106966716D01*
X126011618Y-106880919D01*
X126354492Y-106802351D01*
X126592836Y-106752562D01*
X126745428Y-106729937D01*
X126831049Y-106732863D01*
X126868477Y-106759725D01*
X126876500Y-106806578D01*
X126995804Y-106806578D01*
X127003428Y-106790857D01*
X127003500Y-106786851D01*
X127055342Y-106672103D01*
X127178125Y-106619368D01*
X127440853Y-106559567D01*
X127605437Y-106513107D01*
X127696782Y-106461898D01*
X127739793Y-106387851D01*
X127759377Y-106272876D01*
X127768620Y-106190475D01*
X127771047Y-106146870D01*
X127651538Y-106146870D01*
X127648200Y-106180250D01*
X127627881Y-106319919D01*
X127610086Y-106387697D01*
X127546910Y-106405780D01*
X127382917Y-106445904D01*
X127141320Y-106502802D01*
X126845331Y-106571209D01*
X126518164Y-106645858D01*
X126183030Y-106721482D01*
X125863144Y-106792816D01*
X125581717Y-106854593D01*
X125361962Y-106901546D01*
X125227093Y-106928410D01*
X125225500Y-106928692D01*
X124993661Y-106952873D01*
X124673434Y-106964216D01*
X124302690Y-106963569D01*
X123919303Y-106951782D01*
X123561143Y-106929704D01*
X123266084Y-106898184D01*
X123171722Y-106882648D01*
X122812439Y-106803959D01*
X122563032Y-106721783D01*
X122523121Y-106697340D01*
X122271381Y-106697340D01*
X122216052Y-106757630D01*
X122163101Y-106780975D01*
X122008035Y-106820799D01*
X121821072Y-106839600D01*
X121643461Y-106837422D01*
X121516455Y-106814307D01*
X121479000Y-106780259D01*
X121531923Y-106714107D01*
X121661691Y-106639242D01*
X121685375Y-106629116D01*
X121916808Y-106539346D01*
X122062337Y-106501227D01*
X122151244Y-106512914D01*
X122212809Y-106572563D01*
X122227497Y-106594975D01*
X122271381Y-106697340D01*
X122523121Y-106697340D01*
X122406550Y-106625948D01*
X122326045Y-106506287D01*
X122304500Y-106362325D01*
X122313938Y-106214526D01*
X122353148Y-106166355D01*
X122415625Y-106181089D01*
X122685582Y-106281128D01*
X122958366Y-106352633D01*
X123267146Y-106401233D01*
X123645092Y-106432560D01*
X123987250Y-106447877D01*
X124302409Y-106456813D01*
X124567966Y-106457745D01*
X124812840Y-106448023D01*
X125065952Y-106424996D01*
X125356220Y-106386015D01*
X125712565Y-106328427D01*
X126163908Y-106249582D01*
X126178000Y-106247077D01*
X126573602Y-106176925D01*
X126930087Y-106114060D01*
X127227287Y-106062011D01*
X127445027Y-106024307D01*
X127563136Y-106004477D01*
X127575000Y-106002688D01*
X127640980Y-106028460D01*
X127651538Y-106146870D01*
X127771047Y-106146870D01*
X127779968Y-105986665D01*
X127750848Y-105871362D01*
X127638902Y-105871362D01*
X126289326Y-106104064D01*
X125878877Y-106174585D01*
X125500490Y-106239127D01*
X125175755Y-106294045D01*
X124926260Y-106335693D01*
X124773596Y-106360426D01*
X124749250Y-106364097D01*
X124500848Y-106379834D01*
X124169714Y-106373871D01*
X123797622Y-106349564D01*
X123426346Y-106310268D01*
X123097659Y-106259339D01*
X122906064Y-106216038D01*
X122675459Y-106141783D01*
X122485033Y-106061999D01*
X122408757Y-106014706D01*
X122177500Y-106014706D01*
X122121244Y-106086066D01*
X121981339Y-106135920D01*
X121852277Y-106148500D01*
X121675054Y-106187724D01*
X121464895Y-106285909D01*
X121273463Y-106413822D01*
X121152418Y-106542231D01*
X121150526Y-106545582D01*
X121091074Y-106639751D01*
X121061255Y-106626021D01*
X121047288Y-106570846D01*
X121073070Y-106447654D01*
X121171332Y-106299261D01*
X121190542Y-106278327D01*
X121418543Y-106113182D01*
X121713638Y-105999052D01*
X122010243Y-105958000D01*
X122133623Y-105976520D01*
X122177500Y-106014706D01*
X122408757Y-106014706D01*
X122379114Y-105996327D01*
X122321708Y-105880206D01*
X122388667Y-105773137D01*
X122577626Y-105675928D01*
X122886219Y-105589387D01*
X123312078Y-105514319D01*
X123852838Y-105451534D01*
X124019000Y-105436729D01*
X124355027Y-105411768D01*
X124653822Y-105398812D01*
X124948069Y-105398537D01*
X125270456Y-105411618D01*
X125653666Y-105438732D01*
X126128266Y-105480359D01*
X126562550Y-105521641D01*
X126888278Y-105556276D01*
X127123504Y-105587574D01*
X127286280Y-105618847D01*
X127394660Y-105653406D01*
X127466696Y-105694562D01*
X127509591Y-105733717D01*
X127638902Y-105871362D01*
X127750848Y-105871362D01*
X127744062Y-105844496D01*
X127645047Y-105702553D01*
X127641620Y-105698469D01*
X127582502Y-105631505D01*
X127520851Y-105580220D01*
X127437728Y-105540192D01*
X127314194Y-105507002D01*
X127131309Y-105476229D01*
X126870134Y-105443453D01*
X126511729Y-105404252D01*
X126273250Y-105379082D01*
X125432381Y-105311531D01*
X124653355Y-105290965D01*
X123946650Y-105316400D01*
G36*
X125188950Y-105650939D02*
G01*
X124829246Y-105662985D01*
X124467343Y-105681359D01*
X124134308Y-105704749D01*
X123861210Y-105731841D01*
X123679117Y-105761324D01*
X123677862Y-105761626D01*
X123457694Y-105833247D01*
X123344615Y-105912160D01*
X123346666Y-105991195D01*
X123384531Y-106023171D01*
X123475540Y-106041739D01*
X123665526Y-106056531D01*
X123926516Y-106067244D01*
X124230536Y-106073574D01*
X124549611Y-106075218D01*
X124855766Y-106071872D01*
X125121028Y-106063233D01*
X125317421Y-106048998D01*
X125352500Y-106044526D01*
X125713576Y-105981256D01*
X125976699Y-105913071D01*
X126136158Y-105843624D01*
X126163838Y-105806564D01*
X125999069Y-105806564D01*
X125975604Y-105836395D01*
X125835297Y-105880414D01*
X125596285Y-105920238D01*
X125286832Y-105954403D01*
X124935203Y-105981444D01*
X124569665Y-105999897D01*
X124218481Y-106008297D01*
X123909917Y-106005179D01*
X123672239Y-105989079D01*
X123542750Y-105962458D01*
X123520483Y-105927802D01*
X123605005Y-105890222D01*
X123776206Y-105851790D01*
X124013972Y-105814579D01*
X124298194Y-105780664D01*
X124608758Y-105752118D01*
X124925554Y-105731014D01*
X125228469Y-105719425D01*
X125497392Y-105719424D01*
X125712211Y-105733086D01*
X125737076Y-105736241D01*
X125928380Y-105770825D01*
X125999069Y-105806564D01*
X126163838Y-105806564D01*
X126186240Y-105776572D01*
X126121234Y-105715569D01*
X125944185Y-105665890D01*
X125777487Y-105651079D01*
X125515386Y-105646533D01*
X125188950Y-105650939D01*
G37*
X125188950Y-105650939D02*
X124829246Y-105662985D01*
X124467343Y-105681359D01*
X124134308Y-105704749D01*
X123861210Y-105731841D01*
X123679117Y-105761324D01*
X123677862Y-105761626D01*
X123457694Y-105833247D01*
X123344615Y-105912160D01*
X123346666Y-105991195D01*
X123384531Y-106023171D01*
X123475540Y-106041739D01*
X123665526Y-106056531D01*
X123926516Y-106067244D01*
X124230536Y-106073574D01*
X124549611Y-106075218D01*
X124855766Y-106071872D01*
X125121028Y-106063233D01*
X125317421Y-106048998D01*
X125352500Y-106044526D01*
X125713576Y-105981256D01*
X125976699Y-105913071D01*
X126136158Y-105843624D01*
X126163838Y-105806564D01*
X125999069Y-105806564D01*
X125975604Y-105836395D01*
X125835297Y-105880414D01*
X125596285Y-105920238D01*
X125286832Y-105954403D01*
X124935203Y-105981444D01*
X124569665Y-105999897D01*
X124218481Y-106008297D01*
X123909917Y-106005179D01*
X123672239Y-105989079D01*
X123542750Y-105962458D01*
X123520483Y-105927802D01*
X123605005Y-105890222D01*
X123776206Y-105851790D01*
X124013972Y-105814579D01*
X124298194Y-105780664D01*
X124608758Y-105752118D01*
X124925554Y-105731014D01*
X125228469Y-105719425D01*
X125497392Y-105719424D01*
X125712211Y-105733086D01*
X125737076Y-105736241D01*
X125928380Y-105770825D01*
X125999069Y-105806564D01*
X126163838Y-105806564D01*
X126186240Y-105776572D01*
X126121234Y-105715569D01*
X125944185Y-105665890D01*
X125777487Y-105651079D01*
X125515386Y-105646533D01*
X125188950Y-105650939D01*
D10*
X155800000Y-103900000D02*
X157200000Y-103900000D01*
X157200000Y-103900000D02*
X157200000Y-102500000D01*
X157200000Y-102500000D02*
X155800000Y-102500000D01*
X155800000Y-102500000D02*
X155800000Y-103900000D01*
X153000000Y-99000000D02*
X154400000Y-99000000D01*
X154400000Y-99000000D02*
X154400000Y-97600000D01*
X154400000Y-97600000D02*
X153000000Y-97600000D01*
X153000000Y-97600000D02*
X153000000Y-99000000D01*
X155900000Y-99000000D02*
X157300000Y-99000000D01*
X157300000Y-99000000D02*
X157300000Y-97600000D01*
X157300000Y-97600000D02*
X155900000Y-97600000D01*
X155900000Y-97600000D02*
X155900000Y-99000000D01*
X153050000Y-103950000D02*
X154450000Y-103950000D01*
X154450000Y-103950000D02*
X154450000Y-102550000D01*
X154450000Y-102550000D02*
X153050000Y-102550000D01*
X153050000Y-102550000D02*
X153050000Y-103950000D01*
X138450000Y-124250000D02*
G75*
G03*
X138450000Y-124250000I-950000J0D01*
G01*
X148700000Y-119737000D02*
G75*
G03*
X148700000Y-119737000I-950000J0D01*
G01*
D13*
X140626428Y-121662761D02*
X140483571Y-121710380D01*
X140245476Y-121710380D01*
X140150238Y-121662761D01*
X140102619Y-121615142D01*
X140055000Y-121519904D01*
X140055000Y-121424666D01*
X140102619Y-121329428D01*
X140150238Y-121281809D01*
X140245476Y-121234190D01*
X140435952Y-121186571D01*
X140531190Y-121138952D01*
X140578809Y-121091333D01*
X140626428Y-120996095D01*
X140626428Y-120900857D01*
X140578809Y-120805619D01*
X140531190Y-120758000D01*
X140435952Y-120710380D01*
X140197857Y-120710380D01*
X140055000Y-120758000D01*
X139626428Y-121710380D02*
X139626428Y-121043714D01*
X139626428Y-120710380D02*
X139674047Y-120758000D01*
X139626428Y-120805619D01*
X139578809Y-120758000D01*
X139626428Y-120710380D01*
X139626428Y-120805619D01*
X139150238Y-121710380D02*
X139150238Y-120710380D01*
X138769285Y-120710380D01*
X138674047Y-120758000D01*
X138626428Y-120805619D01*
X138578809Y-120900857D01*
X138578809Y-121043714D01*
X138626428Y-121138952D01*
X138674047Y-121186571D01*
X138769285Y-121234190D01*
X139150238Y-121234190D01*
X138150238Y-121710380D02*
X138150238Y-120710380D01*
X137816904Y-121424666D01*
X137483571Y-120710380D01*
X137483571Y-121710380D01*
X136483571Y-121710380D02*
X137055000Y-121710380D01*
X136769285Y-121710380D02*
X136769285Y-120710380D01*
X136864523Y-120853238D01*
X136959761Y-120948476D01*
X137055000Y-120996095D01*
X158376428Y-121412761D02*
X158233571Y-121460380D01*
X157995476Y-121460380D01*
X157900238Y-121412761D01*
X157852619Y-121365142D01*
X157805000Y-121269904D01*
X157805000Y-121174666D01*
X157852619Y-121079428D01*
X157900238Y-121031809D01*
X157995476Y-120984190D01*
X158185952Y-120936571D01*
X158281190Y-120888952D01*
X158328809Y-120841333D01*
X158376428Y-120746095D01*
X158376428Y-120650857D01*
X158328809Y-120555619D01*
X158281190Y-120508000D01*
X158185952Y-120460380D01*
X157947857Y-120460380D01*
X157805000Y-120508000D01*
X157376428Y-121460380D02*
X157376428Y-120793714D01*
X157376428Y-120460380D02*
X157424047Y-120508000D01*
X157376428Y-120555619D01*
X157328809Y-120508000D01*
X157376428Y-120460380D01*
X157376428Y-120555619D01*
X156900238Y-121460380D02*
X156900238Y-120460380D01*
X156519285Y-120460380D01*
X156424047Y-120508000D01*
X156376428Y-120555619D01*
X156328809Y-120650857D01*
X156328809Y-120793714D01*
X156376428Y-120888952D01*
X156424047Y-120936571D01*
X156519285Y-120984190D01*
X156900238Y-120984190D01*
X155900238Y-121460380D02*
X155900238Y-120460380D01*
X155566904Y-121174666D01*
X155233571Y-120460380D01*
X155233571Y-121460380D01*
X154805000Y-120555619D02*
X154757380Y-120508000D01*
X154662142Y-120460380D01*
X154424047Y-120460380D01*
X154328809Y-120508000D01*
X154281190Y-120555619D01*
X154233571Y-120650857D01*
X154233571Y-120746095D01*
X154281190Y-120888952D01*
X154852619Y-121460380D01*
X154233571Y-121460380D01*
X157761904Y-104100380D02*
X157190476Y-104100380D01*
X157476190Y-105100380D02*
X157476190Y-104100380D01*
X156857142Y-105100380D02*
X156857142Y-104100380D01*
X156476190Y-104100380D01*
X156380952Y-104148000D01*
X156333333Y-104195619D01*
X156285714Y-104290857D01*
X156285714Y-104433714D01*
X156333333Y-104528952D01*
X156380952Y-104576571D01*
X156476190Y-104624190D01*
X156857142Y-104624190D01*
X155428571Y-104100380D02*
X155619047Y-104100380D01*
X155714285Y-104148000D01*
X155761904Y-104195619D01*
X155857142Y-104338476D01*
X155904761Y-104528952D01*
X155904761Y-104909904D01*
X155857142Y-105005142D01*
X155809523Y-105052761D01*
X155714285Y-105100380D01*
X155523809Y-105100380D01*
X155428571Y-105052761D01*
X155380952Y-105005142D01*
X155333333Y-104909904D01*
X155333333Y-104671809D01*
X155380952Y-104576571D01*
X155428571Y-104528952D01*
X155523809Y-104481333D01*
X155714285Y-104481333D01*
X155809523Y-104528952D01*
X155857142Y-104576571D01*
X155904761Y-104671809D01*
X154961904Y-99200380D02*
X154390476Y-99200380D01*
X154676190Y-100200380D02*
X154676190Y-99200380D01*
X154057142Y-100200380D02*
X154057142Y-99200380D01*
X153676190Y-99200380D01*
X153580952Y-99248000D01*
X153533333Y-99295619D01*
X153485714Y-99390857D01*
X153485714Y-99533714D01*
X153533333Y-99628952D01*
X153580952Y-99676571D01*
X153676190Y-99724190D01*
X154057142Y-99724190D01*
X152580952Y-99200380D02*
X153057142Y-99200380D01*
X153104761Y-99676571D01*
X153057142Y-99628952D01*
X152961904Y-99581333D01*
X152723809Y-99581333D01*
X152628571Y-99628952D01*
X152580952Y-99676571D01*
X152533333Y-99771809D01*
X152533333Y-100009904D01*
X152580952Y-100105142D01*
X152628571Y-100152761D01*
X152723809Y-100200380D01*
X152961904Y-100200380D01*
X153057142Y-100152761D01*
X153104761Y-100105142D01*
X157861904Y-99200380D02*
X157290476Y-99200380D01*
X157576190Y-100200380D02*
X157576190Y-99200380D01*
X156957142Y-100200380D02*
X156957142Y-99200380D01*
X156576190Y-99200380D01*
X156480952Y-99248000D01*
X156433333Y-99295619D01*
X156385714Y-99390857D01*
X156385714Y-99533714D01*
X156433333Y-99628952D01*
X156480952Y-99676571D01*
X156576190Y-99724190D01*
X156957142Y-99724190D01*
X156052380Y-99200380D02*
X155433333Y-99200380D01*
X155766666Y-99581333D01*
X155623809Y-99581333D01*
X155528571Y-99628952D01*
X155480952Y-99676571D01*
X155433333Y-99771809D01*
X155433333Y-100009904D01*
X155480952Y-100105142D01*
X155528571Y-100152761D01*
X155623809Y-100200380D01*
X155909523Y-100200380D01*
X156004761Y-100152761D01*
X156052380Y-100105142D01*
X155011904Y-104150380D02*
X154440476Y-104150380D01*
X154726190Y-105150380D02*
X154726190Y-104150380D01*
X154107142Y-105150380D02*
X154107142Y-104150380D01*
X153726190Y-104150380D01*
X153630952Y-104198000D01*
X153583333Y-104245619D01*
X153535714Y-104340857D01*
X153535714Y-104483714D01*
X153583333Y-104578952D01*
X153630952Y-104626571D01*
X153726190Y-104674190D01*
X154107142Y-104674190D01*
X152678571Y-104483714D02*
X152678571Y-105150380D01*
X152916666Y-104102761D02*
X153154761Y-104817047D01*
X152535714Y-104817047D01*
X138761904Y-125952380D02*
X138190476Y-125952380D01*
X138476190Y-126952380D02*
X138476190Y-125952380D01*
X137857142Y-126952380D02*
X137857142Y-125952380D01*
X137476190Y-125952380D01*
X137380952Y-126000000D01*
X137333333Y-126047619D01*
X137285714Y-126142857D01*
X137285714Y-126285714D01*
X137333333Y-126380952D01*
X137380952Y-126428571D01*
X137476190Y-126476190D01*
X137857142Y-126476190D01*
X136904761Y-126047619D02*
X136857142Y-126000000D01*
X136761904Y-125952380D01*
X136523809Y-125952380D01*
X136428571Y-126000000D01*
X136380952Y-126047619D01*
X136333333Y-126142857D01*
X136333333Y-126238095D01*
X136380952Y-126380952D01*
X136952380Y-126952380D01*
X136333333Y-126952380D01*
X148884904Y-120967380D02*
X148313476Y-120967380D01*
X148599190Y-121967380D02*
X148599190Y-120967380D01*
X147980142Y-121967380D02*
X147980142Y-120967380D01*
X147599190Y-120967380D01*
X147503952Y-121015000D01*
X147456333Y-121062619D01*
X147408714Y-121157857D01*
X147408714Y-121300714D01*
X147456333Y-121395952D01*
X147503952Y-121443571D01*
X147599190Y-121491190D01*
X147980142Y-121491190D01*
X146456333Y-121967380D02*
X147027761Y-121967380D01*
X146742047Y-121967380D02*
X146742047Y-120967380D01*
X146837285Y-121110238D01*
X146932523Y-121205476D01*
X147027761Y-121253095D01*
M02*
