G04 #@! TF.GenerationSoftware,KiCad,Pcbnew,(5.1.9-0-10_14)*
G04 #@! TF.CreationDate,2021-05-06T16:16:17-07:00*
G04 #@! TF.ProjectId,Luminometer_RPi,4c756d69-6e6f-46d6-9574-65725f525069,rev?*
G04 #@! TF.SameCoordinates,Original*
G04 #@! TF.FileFunction,Paste,Bot*
G04 #@! TF.FilePolarity,Positive*
%FSLAX46Y46*%
G04 Gerber Fmt 4.6, Leading zero omitted, Abs format (unit mm)*
G04 Created by KiCad (PCBNEW (5.1.9-0-10_14)) date 2021-05-06 16:16:17*
%MOMM*%
%LPD*%
G01*
G04 APERTURE LIST*
G04 #@! TA.AperFunction,Profile*
%ADD10C,0.150000*%
G04 #@! TD*
%ADD11R,1.200000X2.500000*%
%ADD12R,0.800000X1.100000*%
%ADD13R,1.300000X0.600000*%
%ADD14R,2.650000X2.500000*%
G04 APERTURE END LIST*
D10*
X178000000Y-71250000D02*
G75*
G02*
X181000000Y-74250000I0J-3000000D01*
G01*
X181000000Y-74250000D02*
X180989637Y-108750000D01*
X174500000Y-71250000D02*
X178000000Y-71250000D01*
X174500000Y-71250000D02*
G75*
G02*
X171500000Y-68250000I0J3000000D01*
G01*
X171500000Y-64500000D02*
X171500000Y-68250000D01*
X168500000Y-61500000D02*
G75*
G02*
X171500000Y-64500000I0J-3000000D01*
G01*
X108750000Y-111500000D02*
G75*
G02*
X105750000Y-108500000I0J3000000D01*
G01*
X180989637Y-108749136D02*
G75*
G02*
X178000000Y-111500000I-2989637J249136D01*
G01*
X105750000Y-64500000D02*
G75*
G02*
X108750000Y-61500000I3000000J0D01*
G01*
X105750000Y-108500000D02*
X105750000Y-64500000D01*
X178000000Y-111500000D02*
X108750000Y-111500000D01*
X108750000Y-61500000D02*
X168500000Y-61500000D01*
D11*
X153800000Y-64750000D03*
X165200000Y-64750000D03*
X165200000Y-70250000D03*
X153800000Y-70250000D03*
D12*
X156325000Y-64750000D03*
X157595000Y-64750000D03*
X158865000Y-64750000D03*
X162675000Y-70250000D03*
X161405000Y-70250000D03*
X156325000Y-70250000D03*
X160135000Y-64750000D03*
X161405000Y-64750000D03*
X162675000Y-64750000D03*
X157595000Y-70250000D03*
X158865000Y-70250000D03*
X160135000Y-70250000D03*
G36*
G01*
X150775000Y-63575000D02*
X150225000Y-63575000D01*
G75*
G02*
X150025000Y-63375000I0J200000D01*
G01*
X150025000Y-62975000D01*
G75*
G02*
X150225000Y-62775000I200000J0D01*
G01*
X150775000Y-62775000D01*
G75*
G02*
X150975000Y-62975000I0J-200000D01*
G01*
X150975000Y-63375000D01*
G75*
G02*
X150775000Y-63575000I-200000J0D01*
G01*
G37*
G36*
G01*
X150775000Y-65225000D02*
X150225000Y-65225000D01*
G75*
G02*
X150025000Y-65025000I0J200000D01*
G01*
X150025000Y-64625000D01*
G75*
G02*
X150225000Y-64425000I200000J0D01*
G01*
X150775000Y-64425000D01*
G75*
G02*
X150975000Y-64625000I0J-200000D01*
G01*
X150975000Y-65025000D01*
G75*
G02*
X150775000Y-65225000I-200000J0D01*
G01*
G37*
G36*
G01*
X175075000Y-84725000D02*
X175075000Y-85275000D01*
G75*
G02*
X174875000Y-85475000I-200000J0D01*
G01*
X174475000Y-85475000D01*
G75*
G02*
X174275000Y-85275000I0J200000D01*
G01*
X174275000Y-84725000D01*
G75*
G02*
X174475000Y-84525000I200000J0D01*
G01*
X174875000Y-84525000D01*
G75*
G02*
X175075000Y-84725000I0J-200000D01*
G01*
G37*
G36*
G01*
X176725000Y-84725000D02*
X176725000Y-85275000D01*
G75*
G02*
X176525000Y-85475000I-200000J0D01*
G01*
X176125000Y-85475000D01*
G75*
G02*
X175925000Y-85275000I0J200000D01*
G01*
X175925000Y-84725000D01*
G75*
G02*
X176125000Y-84525000I200000J0D01*
G01*
X176525000Y-84525000D01*
G75*
G02*
X176725000Y-84725000I0J-200000D01*
G01*
G37*
G36*
G01*
X175925000Y-83525000D02*
X175925000Y-82975000D01*
G75*
G02*
X176125000Y-82775000I200000J0D01*
G01*
X176525000Y-82775000D01*
G75*
G02*
X176725000Y-82975000I0J-200000D01*
G01*
X176725000Y-83525000D01*
G75*
G02*
X176525000Y-83725000I-200000J0D01*
G01*
X176125000Y-83725000D01*
G75*
G02*
X175925000Y-83525000I0J200000D01*
G01*
G37*
G36*
G01*
X174275000Y-83525000D02*
X174275000Y-82975000D01*
G75*
G02*
X174475000Y-82775000I200000J0D01*
G01*
X174875000Y-82775000D01*
G75*
G02*
X175075000Y-82975000I0J-200000D01*
G01*
X175075000Y-83525000D01*
G75*
G02*
X174875000Y-83725000I-200000J0D01*
G01*
X174475000Y-83725000D01*
G75*
G02*
X174275000Y-83525000I0J200000D01*
G01*
G37*
D13*
X158950000Y-76950000D03*
X158950000Y-75050000D03*
X161050000Y-76000000D03*
D14*
X129825000Y-105800000D03*
X121475000Y-105800000D03*
G36*
G01*
X156225000Y-78925000D02*
X156775000Y-78925000D01*
G75*
G02*
X156975000Y-79125000I0J-200000D01*
G01*
X156975000Y-79525000D01*
G75*
G02*
X156775000Y-79725000I-200000J0D01*
G01*
X156225000Y-79725000D01*
G75*
G02*
X156025000Y-79525000I0J200000D01*
G01*
X156025000Y-79125000D01*
G75*
G02*
X156225000Y-78925000I200000J0D01*
G01*
G37*
G36*
G01*
X156225000Y-77275000D02*
X156775000Y-77275000D01*
G75*
G02*
X156975000Y-77475000I0J-200000D01*
G01*
X156975000Y-77875000D01*
G75*
G02*
X156775000Y-78075000I-200000J0D01*
G01*
X156225000Y-78075000D01*
G75*
G02*
X156025000Y-77875000I0J200000D01*
G01*
X156025000Y-77475000D01*
G75*
G02*
X156225000Y-77275000I200000J0D01*
G01*
G37*
M02*
