G04 #@! TF.GenerationSoftware,KiCad,Pcbnew,(5.1.9-0-10_14)*
G04 #@! TF.CreationDate,2021-05-06T16:16:17-07:00*
G04 #@! TF.ProjectId,Luminometer_RPi,4c756d69-6e6f-46d6-9574-65725f525069,rev?*
G04 #@! TF.SameCoordinates,Original*
G04 #@! TF.FileFunction,Copper,L2,Inr*
G04 #@! TF.FilePolarity,Positive*
%FSLAX46Y46*%
G04 Gerber Fmt 4.6, Leading zero omitted, Abs format (unit mm)*
G04 Created by KiCad (PCBNEW (5.1.9-0-10_14)) date 2021-05-06 16:16:17*
%MOMM*%
%LPD*%
G01*
G04 APERTURE LIST*
G04 #@! TA.AperFunction,Profile*
%ADD10C,0.150000*%
G04 #@! TD*
G04 #@! TA.AperFunction,ComponentPad*
%ADD11C,5.000000*%
G04 #@! TD*
G04 #@! TA.AperFunction,ComponentPad*
%ADD12C,3.100000*%
G04 #@! TD*
G04 #@! TA.AperFunction,ComponentPad*
%ADD13C,0.380000*%
G04 #@! TD*
G04 #@! TA.AperFunction,ComponentPad*
%ADD14C,1.778000*%
G04 #@! TD*
G04 #@! TA.AperFunction,ComponentPad*
%ADD15C,2.540000*%
G04 #@! TD*
G04 #@! TA.AperFunction,ComponentPad*
%ADD16O,1.400000X0.900000*%
G04 #@! TD*
G04 #@! TA.AperFunction,ComponentPad*
%ADD17C,2.600000*%
G04 #@! TD*
G04 #@! TA.AperFunction,ComponentPad*
%ADD18O,0.900000X1.400000*%
G04 #@! TD*
G04 #@! TA.AperFunction,ComponentPad*
%ADD19O,1.700000X1.700000*%
G04 #@! TD*
G04 #@! TA.AperFunction,ComponentPad*
%ADD20R,1.700000X1.700000*%
G04 #@! TD*
G04 #@! TA.AperFunction,ComponentPad*
%ADD21C,1.320800*%
G04 #@! TD*
G04 #@! TA.AperFunction,ViaPad*
%ADD22C,0.400000*%
G04 #@! TD*
G04 #@! TA.AperFunction,Conductor*
%ADD23C,0.500000*%
G04 #@! TD*
G04 #@! TA.AperFunction,Conductor*
%ADD24C,2.000000*%
G04 #@! TD*
G04 #@! TA.AperFunction,Conductor*
%ADD25C,1.000000*%
G04 #@! TD*
G04 #@! TA.AperFunction,Conductor*
%ADD26C,0.250000*%
G04 #@! TD*
G04 #@! TA.AperFunction,Conductor*
%ADD27C,0.254000*%
G04 #@! TD*
G04 #@! TA.AperFunction,Conductor*
%ADD28C,0.100000*%
G04 #@! TD*
G04 APERTURE END LIST*
D10*
X178000000Y-71250000D02*
G75*
G02*
X181000000Y-74250000I0J-3000000D01*
G01*
X181000000Y-74250000D02*
X180989637Y-108750000D01*
X174500000Y-71250000D02*
X178000000Y-71250000D01*
X174500000Y-71250000D02*
G75*
G02*
X171500000Y-68250000I0J3000000D01*
G01*
X171500000Y-64500000D02*
X171500000Y-68250000D01*
X168500000Y-61500000D02*
G75*
G02*
X171500000Y-64500000I0J-3000000D01*
G01*
X108750000Y-111500000D02*
G75*
G02*
X105750000Y-108500000I0J3000000D01*
G01*
X180989637Y-108749136D02*
G75*
G02*
X178000000Y-111500000I-2989637J249136D01*
G01*
X105750000Y-64500000D02*
G75*
G02*
X108750000Y-61500000I3000000J0D01*
G01*
X105750000Y-108500000D02*
X105750000Y-64500000D01*
X178000000Y-111500000D02*
X108750000Y-111500000D01*
X108750000Y-61500000D02*
X168500000Y-61500000D01*
D11*
X168000000Y-108000000D03*
X110000000Y-108000000D03*
X110000000Y-65000000D03*
D12*
X139000000Y-96500000D03*
D13*
X125525000Y-99050000D03*
X125525000Y-97550000D03*
X125525000Y-96050000D03*
X127025000Y-99050000D03*
X127025000Y-97550000D03*
X127025000Y-96050000D03*
D14*
X108000000Y-77250000D03*
X108000000Y-72750000D03*
D15*
X110500000Y-78500000D03*
X110500000Y-71500000D03*
D14*
X108000000Y-89250000D03*
X108000000Y-84750000D03*
D15*
X110500000Y-90500000D03*
X110500000Y-83500000D03*
D14*
X108000000Y-101250000D03*
X108000000Y-96750000D03*
D15*
X110500000Y-102500000D03*
X110500000Y-95500000D03*
D16*
X116000000Y-94500000D03*
G04 #@! TA.AperFunction,ComponentPad*
G36*
G01*
X115525000Y-92800000D02*
X116475000Y-92800000D01*
G75*
G02*
X116700000Y-93025000I0J-225000D01*
G01*
X116700000Y-93475000D01*
G75*
G02*
X116475000Y-93700000I-225000J0D01*
G01*
X115525000Y-93700000D01*
G75*
G02*
X115300000Y-93475000I0J225000D01*
G01*
X115300000Y-93025000D01*
G75*
G02*
X115525000Y-92800000I225000J0D01*
G01*
G37*
G04 #@! TD.AperFunction*
X117000000Y-100000000D03*
G04 #@! TA.AperFunction,ComponentPad*
G36*
G01*
X117475000Y-101700000D02*
X116525000Y-101700000D01*
G75*
G02*
X116300000Y-101475000I0J225000D01*
G01*
X116300000Y-101025000D01*
G75*
G02*
X116525000Y-100800000I225000J0D01*
G01*
X117475000Y-100800000D01*
G75*
G02*
X117700000Y-101025000I0J-225000D01*
G01*
X117700000Y-101475000D01*
G75*
G02*
X117475000Y-101700000I-225000J0D01*
G01*
G37*
G04 #@! TD.AperFunction*
D17*
X135000000Y-69500000D03*
X143000000Y-69500000D03*
D18*
X151250000Y-107750000D03*
G04 #@! TA.AperFunction,ComponentPad*
G36*
G01*
X152950000Y-107275000D02*
X152950000Y-108225000D01*
G75*
G02*
X152725000Y-108450000I-225000J0D01*
G01*
X152275000Y-108450000D01*
G75*
G02*
X152050000Y-108225000I0J225000D01*
G01*
X152050000Y-107275000D01*
G75*
G02*
X152275000Y-107050000I225000J0D01*
G01*
X152725000Y-107050000D01*
G75*
G02*
X152950000Y-107275000I0J-225000D01*
G01*
G37*
G04 #@! TD.AperFunction*
D19*
X177000000Y-105030000D03*
X177000000Y-102490000D03*
X177000000Y-99950000D03*
X177000000Y-97410000D03*
X177000000Y-94870000D03*
X177000000Y-92330000D03*
X177000000Y-89790000D03*
D20*
X177000000Y-87250000D03*
D21*
X178330000Y-74170000D03*
X178330000Y-79250000D03*
X173250000Y-74170000D03*
X173250000Y-76710000D03*
X173250000Y-79250000D03*
D18*
X160000000Y-107750000D03*
G04 #@! TA.AperFunction,ComponentPad*
G36*
G01*
X161700000Y-107275000D02*
X161700000Y-108225000D01*
G75*
G02*
X161475000Y-108450000I-225000J0D01*
G01*
X161025000Y-108450000D01*
G75*
G02*
X160800000Y-108225000I0J225000D01*
G01*
X160800000Y-107275000D01*
G75*
G02*
X161025000Y-107050000I225000J0D01*
G01*
X161475000Y-107050000D01*
G75*
G02*
X161700000Y-107275000I0J-225000D01*
G01*
G37*
G04 #@! TD.AperFunction*
X166250000Y-75500000D03*
G04 #@! TA.AperFunction,ComponentPad*
G36*
G01*
X167950000Y-75025000D02*
X167950000Y-75975000D01*
G75*
G02*
X167725000Y-76200000I-225000J0D01*
G01*
X167275000Y-76200000D01*
G75*
G02*
X167050000Y-75975000I0J225000D01*
G01*
X167050000Y-75025000D01*
G75*
G02*
X167275000Y-74800000I225000J0D01*
G01*
X167725000Y-74800000D01*
G75*
G02*
X167950000Y-75025000I0J-225000D01*
G01*
G37*
G04 #@! TD.AperFunction*
D19*
X163133000Y-83724400D03*
X163133000Y-86264400D03*
X145353000Y-83724400D03*
X145353000Y-86264400D03*
X140273000Y-83724400D03*
X140273000Y-86264400D03*
X150433000Y-83724400D03*
X150433000Y-86264400D03*
X122493000Y-83724400D03*
X122493000Y-86264400D03*
X152973000Y-83724400D03*
X152973000Y-86264400D03*
X135193000Y-83724400D03*
X135193000Y-86264400D03*
X158053000Y-83724400D03*
X158053000Y-86264400D03*
X155513000Y-83724400D03*
X155513000Y-86264400D03*
X160593000Y-83724400D03*
X160593000Y-86264400D03*
X137733000Y-83724400D03*
X137733000Y-86264400D03*
X125033000Y-83724400D03*
X125033000Y-86264400D03*
X130113000Y-83724400D03*
X130113000Y-86264400D03*
X147893000Y-83724400D03*
X147893000Y-86264400D03*
X127573000Y-83724400D03*
X127573000Y-86264400D03*
X142813000Y-83724400D03*
X142813000Y-86264400D03*
D20*
X114873000Y-86264400D03*
D19*
X114873000Y-83724400D03*
X119953000Y-86264400D03*
X117413000Y-83724400D03*
X132653000Y-83724400D03*
X132653000Y-86264400D03*
X117413000Y-86264400D03*
X119953000Y-83724400D03*
D12*
X130000000Y-74500000D03*
X148000000Y-74500000D03*
D22*
X160000000Y-71750000D03*
X158250000Y-72000000D03*
X157000000Y-72000000D03*
X155500000Y-72000000D03*
X151450000Y-99000000D03*
X150700000Y-99000000D03*
X149950000Y-99000000D03*
X149950000Y-98250000D03*
X150700000Y-98250000D03*
X151450000Y-98250000D03*
X165850000Y-98550000D03*
X164950000Y-98550000D03*
X164150000Y-98550000D03*
X164150000Y-97850000D03*
X164950000Y-97850000D03*
X165850000Y-97850000D03*
X134900000Y-63700000D03*
X143500000Y-63700000D03*
X160500000Y-66500000D03*
X158750000Y-76000000D03*
X126900000Y-106050000D03*
X122100000Y-95250000D03*
X134100000Y-107100000D03*
X122000000Y-97200000D03*
X121450000Y-95950000D03*
X122000000Y-97900000D03*
X121950000Y-99200000D03*
X123400000Y-106050000D03*
X134450000Y-98450000D03*
X173100000Y-85400000D03*
X172500000Y-84850000D03*
X173700000Y-85400000D03*
X173700000Y-84850000D03*
X173100000Y-84850000D03*
X172500000Y-85400000D03*
X168250000Y-92900000D03*
X132400000Y-105700000D03*
X154200000Y-92900000D03*
X153600000Y-92900000D03*
X154800000Y-92900000D03*
X167700000Y-92900000D03*
X168800000Y-92900000D03*
X150500000Y-66300000D03*
X121950000Y-99900000D03*
X156750000Y-66000000D03*
X156250000Y-66000000D03*
X155750000Y-66000000D03*
X147450000Y-98250000D03*
X152200000Y-95650000D03*
X130400000Y-100250000D03*
X130400000Y-95050000D03*
X166550000Y-95550000D03*
X162150000Y-98450000D03*
X157700000Y-92000000D03*
X160850000Y-95650000D03*
X147100000Y-95900000D03*
X135400000Y-90800000D03*
X130400000Y-95950000D03*
X130350000Y-99400000D03*
D23*
X118700000Y-97200000D02*
X116000000Y-94500000D01*
X122000000Y-97200000D02*
X118700000Y-97200000D01*
X118750000Y-93250000D02*
X121450000Y-95950000D01*
X116000000Y-93250000D02*
X118750000Y-93250000D01*
X119100000Y-97900000D02*
X122000000Y-97900000D01*
X117000000Y-100000000D02*
X119100000Y-97900000D01*
X121687998Y-99200000D02*
X121950000Y-99200000D01*
X119637998Y-101250000D02*
X121687998Y-99200000D01*
X117000000Y-101250000D02*
X119637998Y-101250000D01*
D24*
X114873000Y-82522319D02*
X114873000Y-83724400D01*
X173100000Y-84850000D02*
X168000000Y-79750000D01*
X168000000Y-79750000D02*
X143678000Y-79750000D01*
X114873000Y-82522319D02*
X117645319Y-79750000D01*
D25*
X173100000Y-89523641D02*
X173100000Y-84850000D01*
X169723641Y-92900000D02*
X173100000Y-89523641D01*
X154200000Y-92900000D02*
X169723641Y-92900000D01*
X154200000Y-92900000D02*
X135600000Y-92900000D01*
X134450000Y-94050000D02*
X134450000Y-103650000D01*
X135600000Y-92900000D02*
X134450000Y-94050000D01*
X134450000Y-103650000D02*
X132400000Y-105700000D01*
D23*
X167500000Y-79250000D02*
X168000000Y-79750000D01*
X167500000Y-75500000D02*
X167500000Y-79250000D01*
D24*
X117645319Y-79750000D02*
X143678000Y-79750000D01*
D25*
X112800000Y-81700000D02*
X128400000Y-66300000D01*
X128400000Y-66300000D02*
X150500000Y-66300000D01*
X112800000Y-84600000D02*
X112800000Y-81700000D01*
X114873000Y-86264400D02*
X112800000Y-84600000D01*
D26*
X150050000Y-95650000D02*
X152200000Y-95650000D01*
X147450000Y-98250000D02*
X150050000Y-95650000D01*
X165050000Y-95550000D02*
X162150000Y-98450000D01*
X166550000Y-95550000D02*
X165050000Y-95550000D01*
D27*
X173923000Y-85573000D02*
X172377000Y-85573000D01*
X172377000Y-84627000D01*
X173923000Y-84627000D01*
X173923000Y-85573000D01*
G04 #@! TA.AperFunction,Conductor*
D28*
G36*
X173923000Y-85573000D02*
G01*
X172377000Y-85573000D01*
X172377000Y-84627000D01*
X173923000Y-84627000D01*
X173923000Y-85573000D01*
G37*
G04 #@! TD.AperFunction*
M02*
