M48
; DRILL file {KiCad (5.1.9-0-10_14)} date Thursday, May 06, 2021 at 04:16:15 PM
; FORMAT={-:-/ absolute / inch / decimal}
; #@! TF.CreationDate,2021-05-06T16:16:15-07:00
; #@! TF.GenerationSoftware,Kicad,Pcbnew,(5.1.9-0-10_14)
; #@! TF.FileFunction,Plated,1,4,PTH
FMAT,2
INCH
T1C0.0079
T2C0.0130
T3C0.0236
T4C0.0320
T5C0.0394
T6C0.0400
T7C0.0591
T8C0.0866
T9C0.0984
T10C0.1063
%
G90
G05
T1
X4.7815Y-3.7776
X4.8012Y-3.9055
X4.8012Y-3.9331
X4.8031Y-3.8268
X4.8031Y-3.8543
X4.8071Y-3.75
X4.8583Y-4.1752
X4.9961Y-4.1752
X5.1319Y-3.9134
X5.1339Y-3.7421
X5.1339Y-3.7776
X5.1339Y-3.9469
X5.2126Y-4.1614
X5.2795Y-4.2165
X5.2933Y-3.876
X5.311Y-2.5079
X5.3307Y-3.5748
X5.6496Y-2.5079
X5.7913Y-3.7756
X5.8051Y-3.8681
X5.9035Y-3.8681
X5.9035Y-3.8976
X5.9252Y-2.6102
X5.9331Y-3.8681
X5.9331Y-3.8976
X5.9626Y-3.8681
X5.9626Y-3.8976
X5.9921Y-3.7657
X6.0472Y-3.6575
X6.0709Y-3.6575
X6.0945Y-3.6575
X6.122Y-2.8346
X6.1319Y-2.5984
X6.1516Y-2.5984
X6.1713Y-2.5984
X6.1811Y-2.8346
X6.2087Y-3.622
X6.2303Y-2.8346
X6.25Y-2.9921
X6.2992Y-2.8248
X6.3189Y-2.6181
X6.3327Y-3.7657
X6.3839Y-3.876
X6.4626Y-3.8524
X6.4626Y-3.8799
X6.4941Y-3.8524
X6.4941Y-3.8799
X6.5295Y-3.8524
X6.5295Y-3.8799
X6.5571Y-3.7618
X6.6024Y-3.6575
X6.624Y-3.6575
X6.6457Y-3.6575
X6.7913Y-3.3406
X6.7913Y-3.3622
X6.815Y-3.3406
X6.815Y-3.3622
X6.8386Y-3.3406
X6.8386Y-3.3622
T2
X4.9419Y-3.7815
X4.9419Y-3.8406
X4.9419Y-3.8996
X5.001Y-3.7815
X5.001Y-3.8406
X5.001Y-3.8996
T3
X4.5669Y-3.6713
X4.5669Y-3.7205
X4.6063Y-3.937
X4.6063Y-3.9862
X5.9547Y-4.2421
X6.0039Y-4.2421
X6.2992Y-4.2421
X6.3484Y-4.2421
X6.5453Y-2.9724
X6.5945Y-2.9724
T4
X6.8209Y-2.9201
X6.8209Y-3.0201
X6.8209Y-3.1201
X7.0209Y-2.9201
X7.0209Y-3.1201
T5
X4.5226Y-3.2962
X4.5226Y-3.3962
X4.6226Y-3.2962
X4.6226Y-3.3962
X4.7226Y-3.2962
X4.7226Y-3.3962
X4.8226Y-3.2962
X4.8226Y-3.3962
X4.9226Y-3.2962
X4.9226Y-3.3962
X5.0226Y-3.2962
X5.0226Y-3.3962
X5.1226Y-3.2962
X5.1226Y-3.3962
X5.2226Y-3.2962
X5.2226Y-3.3962
X5.3226Y-3.2962
X5.3226Y-3.3962
X5.4226Y-3.2962
X5.4226Y-3.3962
X5.5226Y-3.2962
X5.5226Y-3.3962
X5.6226Y-3.2962
X5.6226Y-3.3962
X5.7226Y-3.2962
X5.7226Y-3.3962
X5.8226Y-3.2962
X5.8226Y-3.3962
X5.9226Y-3.2962
X5.9226Y-3.3962
X6.0226Y-3.2962
X6.0226Y-3.3962
X6.1226Y-3.2962
X6.1226Y-3.3962
X6.2226Y-3.2962
X6.2226Y-3.3962
X6.3226Y-3.2962
X6.3226Y-3.3962
X6.4226Y-3.2962
X6.4226Y-3.3962
X6.9685Y-3.435
X6.9685Y-3.535
X6.9685Y-3.635
X6.9685Y-3.735
X6.9685Y-3.835
X6.9685Y-3.935
X6.9685Y-4.035
X6.9685Y-4.135
T6
X4.252Y-2.8642
X4.252Y-3.0413
X4.252Y-3.3366
X4.252Y-3.5138
X4.252Y-3.8091
X4.252Y-3.9862
T7
X4.3504Y-2.815
X4.3504Y-3.0906
X4.3504Y-3.2874
X4.3504Y-3.563
X4.3504Y-3.7598
X4.3504Y-4.0354
T8
X5.315Y-2.7362
X5.6299Y-2.7362
T9
X4.3307Y-2.5591
X4.3307Y-4.252
X6.6142Y-4.252
T10
X5.1181Y-2.9331
X5.4724Y-3.7992
X5.8268Y-2.9331
T0
M30
